<?xml version="1.0" encoding="utf-8"?>
<!-- Generator: Adobe Illustrator 24.1.2, SVG Export Plug-In . SVG Version: 6.00 Build 0)  -->
<svg version="1.1" id="Layer_1" xmlns="http://www.w3.org/2000/svg" xmlns:xlink="http://www.w3.org/1999/xlink" x="0px" y="0px"
	 viewBox="0 0 57 54" style="enable-background:new 0 0 57 54;" xml:space="preserve">
<g>
	<path d="M49.98,40.99H7.25c-1.73,0-3.13-1.4-3.13-3.13V10.18c0-1.73,1.4-3.13,3.13-3.13h9.1V8.5h-9.1c-0.93,0-1.68,0.75-1.68,1.68
		v27.68c0,0.93,0.75,1.68,1.68,1.68h42.74c0.93,0,1.68-0.75,1.68-1.68V10.18c0-0.93-0.75-1.68-1.68-1.68H35.67V7.04h14.32
		c1.73,0,3.13,1.4,3.13,3.13v27.68C53.12,39.59,51.71,40.99,49.98,40.99z"/>
</g>
<g>
	<rect x="22.48" y="7.04" width="8.45" height="1.45"/>
</g>
<g>
	<rect x="4.84" y="33.98" width="47.55" height="1.45"/>
</g>
<g>
	<rect x="22.58" y="40.27" width="1.45" height="5.52"/>
</g>
<g>
	<rect x="32.97" y="40.27" width="1.45" height="5.52"/>
</g>
<g>
	<path d="M40.56,49.26h-1.45v-1.39c0-0.93-0.75-1.68-1.68-1.68H19.67c-0.93,0-1.68,0.75-1.68,1.68v1.27h-1.45v-1.27
		c0-1.73,1.4-3.13,3.13-3.13h17.75c1.73,0,3.13,1.4,3.13,3.13V49.26z"/>
</g>
<g>
	<path d="M20.9,31.02c-0.05,0-0.1-0.01-0.15-0.02l-1.61-0.34c-0.26-0.05-0.47-0.25-0.55-0.5s-0.01-0.53,0.18-0.72l3.13-3.13
		l-1.92-1.92l-3.13,3.13c-0.19,0.19-0.46,0.26-0.72,0.18c-0.25-0.08-0.45-0.29-0.5-0.55l-0.34-1.61c-0.01-0.05-0.02-0.11-0.02-0.16
		l0.04-3.26c0-0.19,0.08-0.37,0.21-0.5l2.88-2.88c0.14-0.14,0.32-0.21,0.51-0.21h3.9l7.3-7.3v-3.9c0-0.19,0.08-0.38,0.21-0.51
		l2.88-2.88c0.13-0.13,0.31-0.21,0.5-0.21l3.26-0.04c0.05,0,0.11,0,0.16,0.02l1.61,0.34c0.26,0.05,0.47,0.25,0.55,0.5
		c0.08,0.25,0.01,0.53-0.18,0.72l-3.13,3.13l1.92,1.92l3.13-3.13c0.19-0.19,0.46-0.26,0.72-0.18c0.25,0.08,0.45,0.29,0.5,0.55
		l0.34,1.61c0.01,0.05,0.02,0.11,0.02,0.16l-0.04,3.26c0,0.19-0.08,0.37-0.21,0.5l-2.88,2.88c-0.14,0.14-0.32,0.21-0.51,0.21h-3.9
		l-7.3,7.3v3.9c0,0.19-0.08,0.38-0.21,0.51l-2.88,2.88c-0.13,0.13-0.31,0.21-0.5,0.21L20.9,31.02C20.9,31.02,20.9,31.02,20.9,31.02z
		 M20.74,29.52l0.22,0.05l2.89-0.04l2.46-2.46v-3.9c0-0.19,0.08-0.38,0.21-0.51l7.72-7.72c0.14-0.14,0.32-0.21,0.51-0.21h3.9
		l2.46-2.46l0.04-2.89l-0.05-0.22l-2.7,2.7c-0.28,0.28-0.74,0.28-1.03,0l-2.95-2.95c-0.28-0.28-0.28-0.74,0-1.03l2.7-2.7l-0.22-0.05
		l-2.89,0.04l-2.46,2.46v3.9c0,0.19-0.08,0.38-0.21,0.51l-7.72,7.72c-0.14,0.14-0.32,0.21-0.51,0.21h-3.9l-2.46,2.46l-0.04,2.89
		l0.05,0.22l2.7-2.7c0.28-0.28,0.74-0.28,1.03,0l2.95,2.95c0.28,0.28,0.28,0.74,0,1.03L20.74,29.52z M27.04,27.37L27.04,27.37
		L27.04,27.37z"/>
</g>
<g>
	<path d="M25.3,16.86l-5.58-5.58h-2.13c-0.28,0-0.53-0.16-0.65-0.41L15.3,7.54c-0.14-0.28-0.08-0.61,0.14-0.83l3.1-3.1
		c0.22-0.22,0.55-0.27,0.83-0.14l3.33,1.64c0.25,0.12,0.41,0.37,0.41,0.65v2.13l5.58,5.58l-1.03,1.03L21.88,8.7
		c-0.14-0.14-0.21-0.32-0.21-0.51V6.21L19.2,4.99l-2.37,2.37l1.21,2.46h1.98c0.19,0,0.38,0.08,0.51,0.21l5.79,5.79L25.3,16.86z"/>
</g>
<g>
	<path d="M37,31.25c-0.7,0-1.36-0.27-1.85-0.77l-7.81-7.81l1.03-1.03l7.81,7.81c0.44,0.44,1.21,0.44,1.66,0l3.48-3.48
		c0.46-0.46,0.46-1.2,0-1.66l-7.81-7.81l1.03-1.03l7.81,7.81c1.02,1.02,1.02,2.68,0,3.71l-3.48,3.48
		C38.35,30.98,37.7,31.25,37,31.25z"/>
</g>
</svg>
