<?xml version="1.0" encoding="utf-8"?>
<!-- Generator: Adobe Illustrator 24.1.2, SVG Export Plug-In . SVG Version: 6.00 Build 0)  -->
<svg version="1.1" id="Layer_1" xmlns="http://www.w3.org/2000/svg" xmlns:xlink="http://www.w3.org/1999/xlink" x="0px" y="0px"
	 viewBox="0 0 55.07 54" style="enable-background:new 0 0 55.07 54;" xml:space="preserve">
<g>
	<path d="M23.59,15.84c0.19,0,0.39-0.07,0.53-0.22c0.29-0.29,0.29-0.77-0.01-1.06c-1.31-1.29-2.67-2.12-4.06-2.52
		c1.19-0.69,2.01-1.97,2.01-3.45c0-2.2-1.79-4-4-4s-4,1.79-4,4c0,1.5,0.84,2.8,2.07,3.48c-2.35,0.72-3.84,2.44-3.91,2.53
		c-0.27,0.32-0.23,0.79,0.09,1.06c0.31,0.27,0.79,0.23,1.06-0.08c0.02-0.02,1.91-2.19,4.59-2.31c1.72-0.07,3.45,0.72,5.11,2.35
		C23.21,15.77,23.4,15.84,23.59,15.84z M18.06,6.1c1.38,0,2.5,1.12,2.5,2.5c0,1.38-1.12,2.5-2.5,2.5s-2.5-1.12-2.5-2.5
		C15.56,7.22,16.69,6.1,18.06,6.1z"/>
	<path d="M15.72,42.56c1.93-0.64,3.33-2.43,3.33-4.57c0-2.66-2.17-4.83-4.83-4.83c-2.66,0-4.83,2.17-4.83,4.83
		c0,2.14,1.4,3.93,3.33,4.57c-3.29,0.73-5.4,3.65-5.5,3.79c-0.24,0.34-0.16,0.8,0.18,1.04c0.34,0.24,0.81,0.16,1.05-0.18
		c0.02-0.03,2.32-3.19,5.55-3.33c2.04-0.08,4.08,1.05,6.05,3.38c0.15,0.17,0.36,0.26,0.57,0.26c0.17,0,0.34-0.06,0.48-0.18
		c0.32-0.27,0.35-0.74,0.09-1.06C19.44,44.24,17.61,42.99,15.72,42.56z M10.89,37.99c0-1.84,1.49-3.33,3.33-3.33
		s3.33,1.49,3.33,3.33s-1.49,3.33-3.33,3.33S10.89,39.83,10.89,37.99z"/>
	<path d="M49.78,32.82c-1.22-1.21-2.5-2.02-3.81-2.45c1.1-0.7,1.84-1.93,1.84-3.33c0-2.18-1.77-3.96-3.96-3.96s-3.96,1.77-3.96,3.96
		c0,1.39,0.73,2.62,1.82,3.32c-2.31,0.73-3.76,2.42-3.84,2.5c-0.27,0.32-0.23,0.79,0.09,1.06c0.14,0.12,0.31,0.18,0.48,0.18
		c0.21,0,0.42-0.09,0.57-0.26c0.02-0.02,1.88-2.18,4.58-2.31c1.74-0.07,3.46,0.71,5.12,2.35c0.29,0.29,0.77,0.29,1.06-0.01
		C50.08,33.59,50.07,33.11,49.78,32.82z M43.85,24.59c1.35,0,2.46,1.1,2.46,2.46s-1.1,2.46-2.46,2.46s-2.46-1.1-2.46-2.46
		S42.5,24.59,43.85,24.59z"/>
	<path d="M43.85,19.11c-3.06,0-5.81,1.38-7.65,3.55l-9.36-6.98c0.81-1.45,1.27-3.11,1.27-4.88c0-5.54-4.51-10.05-10.05-10.05
		S8.01,5.25,8.01,10.79c0,4.82,3.42,8.86,7.95,9.83l-0.8,6.7c-0.31-0.02-0.63-0.05-0.95-0.05c-7.17,0-13,5.83-13,13
		c0,7.17,5.83,13,13,13c7.17,0,13-5.83,13-13c0-1.36-0.21-2.67-0.6-3.9l8.02-3.21c1.55,3.56,5.1,6.06,9.22,6.06
		c5.54,0,10.05-4.51,10.05-10.05S49.4,19.11,43.85,19.11z M9.51,10.79c0-4.72,3.84-8.55,8.55-8.55s8.55,3.84,8.55,8.55
		s-3.84,8.55-8.55,8.55S9.51,15.51,9.51,10.79z M14.22,51.77c-6.34,0-11.5-5.16-11.5-11.5c0-6.34,5.16-11.5,11.5-11.5
		c6.34,0,11.5,5.16,11.5,11.5C25.71,46.61,20.56,51.77,14.22,51.77z M26.07,34.97c-1.71-3.81-5.2-6.66-9.42-7.46l0.8-6.69
		c0.2,0.01,0.41,0.03,0.61,0.03c3.23,0,6.11-1.54,7.95-3.92l9.31,6.95c-0.96,1.54-1.52,3.35-1.52,5.29c0,0.89,0.13,1.75,0.35,2.57
		L26.07,34.97z M43.85,37.72c-4.72,0-8.55-3.84-8.55-8.55s3.84-8.55,8.55-8.55s8.55,3.84,8.55,8.55S48.57,37.72,43.85,37.72z"/>
</g>
</svg>
