<?xml version="1.0" encoding="UTF-8"?>
<svg width="52px" height="52px" viewBox="0 0 52 52" version="1.1" xmlns="http://www.w3.org/2000/svg" xmlns:xlink="http://www.w3.org/1999/xlink">
    <title>Product Icons / PingDataGovernance</title>
    <g id="Product-Icons-/-PingDataGovernance" stroke="none" stroke-width="1" fill="none" fill-rule="evenodd">
        <g id="DataGov_basic" transform="translate(0.500000, 2.500000)" fill-rule="nonzero">
            <polygon id="Path" fill="#B49636" points="50.5 46.75 4.4 46.75 4.4 39.79 7.61 39.79 7.61 43.54 47.3 43.54 47.3 3.85 7.61 3.85 7.61 14.12 4.4 14.12 4.4 0.65 50.5 0.65"></polygon>
            <g id="Group" transform="translate(0.000000, 19.000000)" fill="#3D331A">
                <path d="M9.42,14.58 C8.61,14.9 7.79,15.06 6.96,15.06 C5.91,15.06 4.97,14.87 4.15,14.48 C3.32,14.09 2.62,13.57 2.04,12.92 C1.46,12.26 1.02,11.51 0.72,10.66 C0.42,9.81 0.27,8.92 0.27,8 C0.27,6.98 0.41,6 0.69,5.08 C0.97,4.16 1.39,3.35 1.95,2.65 C2.51,1.95 3.2,1.4 4.04,0.99 C4.88,0.58 5.85,0.37 6.96,0.37 C7.72,0.37 8.44,0.46 9.11,0.64 C9.79,0.82 10.39,1.1 10.92,1.48 C11.45,1.86 11.9,2.34 12.26,2.93 C12.62,3.51 12.87,4.22 13,5.04 L11.13,5.04 C11.04,4.5 10.87,4.04 10.62,3.65 C10.37,3.26 10.06,2.95 9.7,2.7 C9.33,2.45 8.92,2.26 8.45,2.14 C7.98,2 7.48,1.93 6.96,1.93 C6.11,1.93 5.38,2.1 4.77,2.44 C4.16,2.78 3.66,3.23 3.27,3.79 C2.88,4.35 2.6,4.98 2.41,5.7 C2.23,6.41 2.13,7.15 2.13,7.89 C2.13,8.63 2.24,9.33 2.44,10.01 C2.65,10.68 2.96,11.28 3.36,11.8 C3.77,12.32 4.27,12.73 4.87,13.04 C5.47,13.35 6.16,13.5 6.95,13.5 C7.68,13.5 8.33,13.38 8.9,13.15 C9.46,12.91 9.94,12.59 10.33,12.18 C10.72,11.77 11.01,11.28 11.21,10.72 C11.41,10.16 11.49,9.56 11.47,8.92 L6.98,8.92 L6.98,7.35 L13.14,7.35 L13.14,14.75 L11.96,14.75 L11.47,13 C10.91,13.73 10.23,14.25 9.42,14.58 Z" id="Path"></path>
                <path d="M15.92,4.95 C16.2,4.06 16.62,3.28 17.19,2.6 C17.75,1.92 18.46,1.37 19.3,0.97 C20.14,0.56 21.12,0.36 22.23,0.36 C23.34,0.36 24.32,0.56 25.16,0.97 C26,1.38 26.7,1.92 27.27,2.6 C27.83,3.28 28.26,4.07 28.54,4.95 C28.82,5.84 28.96,6.76 28.96,7.71 C28.96,8.67 28.82,9.59 28.54,10.47 C28.26,11.36 27.83,12.14 27.27,12.82 C26.71,13.5 26,14.04 25.16,14.44 C24.32,14.84 23.34,15.04 22.23,15.04 C21.11,15.04 20.14,14.84 19.3,14.44 C18.46,14.04 17.76,13.5 17.19,12.82 C16.63,12.14 16.2,11.35 15.92,10.47 C15.64,9.58 15.5,8.66 15.5,7.71 C15.5,6.76 15.64,5.84 15.92,4.95 Z M17.64,9.81 C17.82,10.5 18.11,11.12 18.51,11.67 C18.9,12.22 19.41,12.66 20.03,13 C20.65,13.34 21.38,13.5 22.23,13.5 C23.08,13.5 23.82,13.33 24.43,13 C25.05,12.66 25.55,12.22 25.95,11.67 C26.34,11.12 26.63,10.5 26.82,9.81 C27,9.12 27.1,8.42 27.1,7.71 C27.1,7 27.01,6.3 26.82,5.61 C26.64,4.92 26.35,4.3 25.95,3.75 C25.56,3.2 25.05,2.76 24.43,2.42 C23.81,2.08 23.08,1.92 22.23,1.92 C21.38,1.92 20.64,2.09 20.03,2.42 C19.41,2.75 18.91,3.2 18.51,3.75 C18.12,4.3 17.83,4.92 17.64,5.61 C17.45,6.3 17.36,7 17.36,7.71 C17.37,8.43 17.46,9.13 17.64,9.81 Z" id="Shape"></path>
                <polygon id="Path" points="35.04 14.74 30.1 0.69 32.11 0.69 36.12 12.87 36.16 12.87 40.21 0.69 42.16 0.69 37.16 14.74 35.04 14.74"></polygon>
            </g>
        </g>
    </g>
</svg>