<?xml version="1.0" encoding="UTF-8"?>
<svg width="52px" height="52px" viewBox="0 0 52 52" version="1.1" xmlns="http://www.w3.org/2000/svg" xmlns:xlink="http://www.w3.org/1999/xlink">
    <title>Product Icons / ID Proofing</title>
    <g id="Product-Icons-/-ID-Proofing" stroke="none" stroke-width="1" fill="none" fill-rule="evenodd">
        <g id="ID_Proofing_basic" transform="translate(0.500000, 4.500000)" fill-rule="nonzero">
            <path d="M39.01,36.5003407 C45.55,36.55 50.88,31.09 50.9303838,24.3 C50.97,19.13 47.88,14.49 43.21,12.7 L43.21,12.7 C42.74,12.51 42.25,12.36 41.76,12.24 L41.63,12.24 L41.2,12.15 C38.09,3.16 28.55,-1.51 19.9,1.72 C15.22,3.47 11.54,7.29 9.86,12.14 C3.44,13.4 -0.79,19.82 0.42,26.48 C0.48,26.8 0.55,27.11 0.63,27.41 L2.45,27 C2.21,26.11 2.08,25.17 2.07,24.2 C2.06,19.24 5.46,14.98 10.15,14.06 C12.35,13.67 14.61,14.03 16.59,15.09 C17.05,15.33 17.61,15.15 17.87,14.69 C18.11,14.21 17.93,13.63 17.48,13.37 C15.78,12.42 13.87,11.92 11.93,11.93 C15.14,4.15 23.81,0.55 31.3,3.88 C34.78,5.43 37.55,8.31 39.05,11.92 C36.64,11.96 34.3,12.76 32.34,14.22 C29.22,16.49 27.35,20.19 27.33,24.15 C27.33,24.7 27.76,25.14 28.29,25.14 C28.82,25.14 29.25,24.7 29.25,24.15 C29.25,20.84 30.82,17.73 33.45,15.85 C35.46,14.34 37.93,13.67 40.39,13.98 L40.79,14.04 L40.85,14.04 L41.28,14.13 C46.63,15.36 50,20.86 48.82,26.41 C47.8,31.17 43.72,34.53 39.02,34.48 L39.02,36.5003407 L39.01,36.5003407 Z" id="Path" fill="#899D96"></path>
            <path d="M2.48,26.99 C2.24,26.1 2.11,25.16 2.1,24.19 C2.09,19.24 5.48,14.98 10.17,14.06 C12.36,13.67 14.62,14.03 16.6,15.08 C17.06,15.32 17.62,15.14 17.87,14.68 C18.11,14.2 17.93,13.62 17.48,13.36 C15.78,12.41 13.87,11.92 11.94,11.93 C15.14,4.17 23.8,0.58 31.28,3.9 C34.76,5.45 37.52,8.32 39.01,11.93 C36.6,11.97 34.27,12.77 32.31,14.22 C29.19,16.49 27.33,20.18 27.31,24.13 C27.31,24.68 27.74,25.12 28.26,25.12 C28.78,25.12 29.21,24.68 29.21,24.13 C29.21,20.82 30.78,17.72 33.41,15.84 C35.41,14.34 37.89,13.67 40.34,13.97 L40.73,14.03 L40.79,14.03 L41.22,14.12 C46.56,15.35 49.93,20.84 48.75,26.39 C47.74,31.14 43.66,34.5 38.97,34.45 L36.13,34.45 L36.22,36.4703413 L38.97,36.4703413 C45.5,36.52 50.82,31.07 50.870385,24.29 C50.91,19.13 47.83,14.5 43.17,12.7 L43.17,12.7 C42.7,12.51 42.21,12.36 41.72,12.24 L41.59,12.24 L41.16,12.15 C38.07,3.18 28.55,-1.48 19.91,1.75 C15.24,3.49 11.57,7.31 9.89,12.15 C3.47,13.4 -0.75,19.82 0.46,26.47 C0.67,27.63 1.03,28.72 1.53,29.74 L2.48,26.99 Z" id="Path" fill="#899D96"></path>
            <g id="Group" transform="translate(4.000000, 29.000000)" fill="#454D4A">
                <polygon id="Path" points="2.49 0.07 2.49 12.81 0.79 12.81 0.79 0.07"></polygon>
                <path d="M10.07,0.07 C12.03,0.07 13.54,0.57 14.6,1.57 C15.66,2.57 16.19,4.09 16.19,6.14 C16.19,7.21 16.07,8.16 15.83,8.99 C15.59,9.82 15.22,10.51 14.72,11.08 C14.22,11.64 13.58,12.08 12.81,12.37 C12.04,12.67 11.12,12.82 10.06,12.82 L5.7,12.82 L5.7,0.07 L10.07,0.07 Z M10.21,11.38 C10.4,11.38 10.64,11.37 10.92,11.34 C11.21,11.31 11.51,11.24 11.83,11.13 C12.15,11.02 12.47,10.85 12.78,10.64 C13.09,10.43 13.38,10.13 13.63,9.77 C13.88,9.4 14.09,8.94 14.25,8.39 C14.41,7.84 14.49,7.17 14.49,6.38 C14.49,5.62 14.42,4.94 14.27,4.34 C14.12,3.74 13.88,3.23 13.54,2.81 C13.2,2.39 12.76,2.07 12.23,1.85 C11.69,1.63 11.03,1.52 10.25,1.52 L7.4,1.52 L7.4,11.4 L10.21,11.4 L10.21,11.38 Z" id="Shape"></path>
                <polygon id="Path" points="21.7 12.81 17.22 0.07 19.04 0.07 22.68 11.11 22.72 11.11 26.39 0.07 28.16 0.07 23.63 12.81"></polygon>
            </g>
        </g>
    </g>
</svg>