<?xml version="1.0" encoding="UTF-8"?>
<svg width="52px" height="52px" viewBox="0 0 52 52" version="1.1" xmlns="http://www.w3.org/2000/svg" xmlns:xlink="http://www.w3.org/1999/xlink">
    <title>Product Icons / MFA</title>
    <g id="Product-Icons-/-MFA" stroke="none" stroke-width="1" fill="none" fill-rule="evenodd">
        <g id="MFA_basic" transform="translate(0.000000, 4.500000)" fill-rule="nonzero">
            <path d="M39.24,36.4903388 C45.81,36.54 51.17,31.05 51.2203826,24.23 C51.26,19.04 48.16,14.37 43.47,12.57 L43.47,12.57 C42.99,12.38 42.51,12.23 42.01,12.1 L41.88,12.1 L41.45,12.01 C38.31,2.98 28.73,-1.71 20.03,1.54 C15.33,3.29 11.63,7.13 9.94,12.01 C3.49,13.27 -0.76,19.72 0.45,26.43 C0.51,26.75 0.58,27.06 0.66,27.37 L2.49,26.95 C2.25,26.06 2.11,25.11 2.11,24.14 C2.1,19.16 5.51,14.87 10.23,13.95 C12.44,13.56 14.71,13.92 16.7,14.98 C17.16,15.22 17.73,15.04 17.98,14.57 C18.22,14.09 18.04,13.5 17.59,13.24 C15.88,12.28 13.96,11.79 12.02,11.8 C15.24,3.99 23.96,0.37 31.48,3.72 C34.98,5.28 37.77,8.17 39.26,11.8 C36.84,11.84 34.49,12.65 32.51,14.11 C29.37,16.39 27.5,20.11 27.47,24.09 C27.47,24.64 27.9,25.09 28.43,25.09 C28.96,25.09 29.39,24.64 29.39,24.09 C29.39,20.76 30.97,17.64 33.61,15.75 C35.63,14.24 38.12,13.56 40.59,13.87 L40.99,13.93 L41.05,13.93 L41.5,14 C46.88,15.24 50.27,20.76 49.08,26.35 C48.06,31.13 43.95,34.51 39.24,34.46 L39.24,36.4903388 L39.24,36.4903388 Z" id="Path" fill="#9DAD40"></path>
            <g id="Group" transform="translate(2.000000, 29.000000)" fill="#505A27">
                <polygon id="Path" points="2.83 0.79 6.84 11.48 10.87 0.79 13.19 0.79 13.19 13.51 11.59 13.51 11.59 2.92 11.55 2.92 7.58 13.5 6.14 13.5 2.16 2.92 2.12 2.92 2.12 13.5 0.52 13.5 0.52 0.79"></polygon>
                <polygon id="Path" points="24.71 0.79 24.71 2.22 18.05 2.22 18.05 6.26 23.89 6.26 23.89 7.69 18.05 7.69 18.05 13.52 16.36 13.52 16.36 0.79"></polygon>
                <path d="M31.28,0.79 L36.25,13.51 L34.38,13.51 L32.99,9.68 L27.61,9.68 L26.18,13.51 L24.45,13.51 L29.4,0.79 L31.28,0.79 Z M32.46,8.25 L30.34,2.32 L30.3,2.32 L28.14,8.25 L32.46,8.25 Z" id="Shape"></path>
            </g>
        </g>
    </g>
</svg>