<?xml version="1.0" encoding="UTF-8"?>
<svg width="52px" height="52px" viewBox="0 0 52 52" version="1.1" xmlns="http://www.w3.org/2000/svg" xmlns:xlink="http://www.w3.org/1999/xlink">
    <title>Product Icons / PingOne for Customers</title>
    <g id="Product-Icons-/-PingOne-for-Customers" stroke="none" stroke-width="1" fill="none" fill-rule="evenodd">
        <g id="P14C_basic" transform="translate(-0.500000, 4.000000)" fill-rule="nonzero">
            <path d="M36.15,23.75 L36.15,23.71 C36.15,20.64 38.53,18.06 41.78,18.06 C43.81,18.06 45.08,18.82 46.1,19.92 L44.54,21.58 C43.78,20.8 42.98,20.23 41.75,20.23 C39.95,20.23 38.62,21.79 38.62,23.67 L38.62,23.71 C38.62,25.63 39.95,27.17 41.86,27.17 C43.03,27.17 43.87,26.64 44.67,25.84 L46.16,27.31 C45.1,28.5 43.85,29.34 41.74,29.34 C38.53,29.34 36.15,26.82 36.15,23.75 Z" id="Path" fill="#14785A"></path>
            <g id="Group" transform="translate(0.000000, 29.000000)" fill="#0A3327">
                <path d="M0.46,4.35 C0.72,3.53 1.11,2.81 1.63,2.17 C2.15,1.53 2.8,1.04 3.58,0.66 C4.36,0.28 5.26,0.1 6.29,0.1 C7.32,0.1 8.23,0.29 9,0.66 C9.78,1.04 10.43,1.54 10.95,2.17 C11.47,2.8 11.86,3.53 12.12,4.35 C12.38,5.17 12.51,6.02 12.51,6.91 C12.51,7.8 12.38,8.65 12.12,9.47 C11.86,10.29 11.47,11.01 10.95,11.65 C10.43,12.28 9.78,12.78 9,13.15 C8.23,13.51 7.33,13.7 6.3,13.7 C5.27,13.7 4.36,13.51 3.59,13.14 C2.82,12.77 2.16,12.27 1.64,11.64 C1.12,11.01 0.73,10.28 0.47,9.46 C0.21,8.64 0.08,7.79 0.08,6.9 C0.07,6.02 0.2,5.17 0.46,4.35 Z M2.06,8.85 C2.23,9.49 2.5,10.06 2.86,10.57 C3.22,11.08 3.69,11.49 4.26,11.8 C4.83,12.11 5.51,12.26 6.3,12.26 C7.09,12.26 7.77,12.11 8.34,11.8 C8.91,11.49 9.38,11.08 9.74,10.57 C10.1,10.06 10.37,9.49 10.54,8.85 C10.71,8.21 10.79,7.57 10.79,6.91 C10.79,6.25 10.7,5.61 10.54,4.97 C10.37,4.33 10.1,3.76 9.74,3.25 C9.38,2.74 8.91,2.33 8.34,2.02 C7.77,1.71 7.09,1.56 6.3,1.56 C5.51,1.56 4.83,1.71 4.26,2.02 C3.69,2.33 3.22,2.74 2.86,3.25 C2.5,3.76 2.23,4.33 2.06,4.97 C1.89,5.6 1.8,6.25 1.8,6.91 C1.8,7.56 1.89,8.21 2.06,8.85 Z" id="Shape"></path>
                <polygon id="Path" points="16.82 0.41 23.66 10.95 23.7 10.95 23.7 0.41 25.34 0.41 25.34 13.41 23.45 13.41 16.66 2.98 16.62 2.98 16.62 13.41 14.98 13.41 14.98 0.41 16.82 0.41"></polygon>
                <polygon id="Path" points="37.48 0.41 37.48 1.87 30.23 1.87 30.23 6 36.98 6 36.98 7.46 30.23 7.46 30.23 11.96 37.53 11.96 37.53 13.42 28.5 13.42 28.5 0.42 37.48 0.42"></polygon>
            </g>
            <path d="M41.01,36.5003407 C47.55,36.55 52.88,31.09 52.9303838,24.3 C52.97,19.13 49.88,14.49 45.21,12.7 L45.21,12.7 C44.74,12.51 44.25,12.36 43.76,12.24 L43.63,12.24 L43.2,12.15 C40.09,3.16 30.55,-1.51 21.9,1.72 C17.22,3.47 13.54,7.29 11.86,12.14 C5.44,13.4 1.21,19.82 2.42,26.48 C2.48,26.8 2.55,27.11 2.63,27.41 L4.45,27 C4.21,26.11 4.08,25.17 4.07,24.2 C4.06,19.24 7.46,14.98 12.15,14.06 C14.35,13.67 16.61,14.03 18.59,15.09 C19.05,15.33 19.61,15.15 19.87,14.69 C20.11,14.21 19.93,13.63 19.48,13.37 C17.78,12.42 15.87,11.92 13.93,11.93 C17.14,4.15 25.81,0.55 33.3,3.88 C36.78,5.43 39.55,8.31 41.05,11.92 C38.64,11.96 36.3,12.76 34.34,14.22 C31.22,16.49 29.35,20.19 29.33,24.15 C29.33,24.7 29.76,25.14 30.29,25.14 C30.82,25.14 31.25,24.7 31.25,24.15 C31.25,20.84 32.82,17.73 35.45,15.85 C37.46,14.34 39.93,13.67 42.39,13.98 L42.79,14.04 L42.85,14.04 L43.28,14.13 C48.63,15.36 52,20.86 50.82,26.41 C49.8,31.17 45.72,34.53 41.02,34.48 L41.02,36.5003407 L41.01,36.5003407 Z" id="Path" fill="#104D3C"></path>
        </g>
    </g>
</svg>