<?xml version="1.0" encoding="UTF-8"?>
<svg width="52px" height="52px" viewBox="0 0 52 52" version="1.1" xmlns="http://www.w3.org/2000/svg" xmlns:xlink="http://www.w3.org/1999/xlink">
    <title>Product Icons / PingOne for Enterprise</title>
    <g id="Product-Icons-/-PingOne-for-Enterprise" stroke="none" stroke-width="1" fill="none" fill-rule="evenodd">
        <g id="P14E_basic" transform="translate(-0.500000, 5.000000)" fill-rule="nonzero">
            <path d="M36.28,23.04 L36.28,23 C36.28,19.91 38.47,17.37 41.56,17.37 C45,17.37 46.74,20.07 46.74,23.19 C46.74,23.42 46.72,23.64 46.7,23.89 L38.75,23.89 C39.02,25.65 40.26,26.63 41.86,26.63 C43.07,26.63 43.93,26.18 44.79,25.34 L46.24,26.63 C45.22,27.86 43.8,28.66 41.82,28.66 C38.69,28.65 36.28,26.37 36.28,23.04 Z M44.28,22.24 C44.12,20.64 43.17,19.39 41.54,19.39 C40.02,19.39 38.96,20.56 38.73,22.24 L44.28,22.24 Z" id="Shape" fill="#197BC0"></path>
            <g id="Group" transform="translate(0.000000, 28.000000)" fill="#263947">
                <path d="M0.46,4.65 C0.72,3.83 1.11,3.11 1.63,2.47 C2.15,1.83 2.8,1.34 3.58,0.96 C4.36,0.58 5.26,0.4 6.29,0.4 C7.32,0.4 8.23,0.59 9,0.96 C9.78,1.34 10.43,1.84 10.95,2.47 C11.47,3.1 11.86,3.83 12.12,4.65 C12.38,5.47 12.51,6.32 12.51,7.21 C12.51,8.1 12.38,8.95 12.12,9.77 C11.86,10.59 11.47,11.31 10.95,11.95 C10.43,12.58 9.78,13.08 9,13.45 C8.23,13.81 7.33,14 6.3,14 C5.27,14 4.36,13.81 3.59,13.44 C2.82,13.07 2.16,12.57 1.64,11.94 C1.12,11.31 0.73,10.58 0.47,9.76 C0.21,8.94 0.08,8.09 0.08,7.2 C0.08,6.31 0.2,5.47 0.46,4.65 Z M2.06,9.15 C2.23,9.79 2.5,10.36 2.86,10.87 C3.22,11.38 3.69,11.79 4.26,12.1 C4.83,12.41 5.51,12.56 6.3,12.56 C7.09,12.56 7.77,12.41 8.34,12.1 C8.91,11.79 9.38,11.38 9.74,10.87 C10.1,10.36 10.37,9.79 10.54,9.15 C10.71,8.51 10.79,7.87 10.79,7.21 C10.79,6.55 10.7,5.91 10.54,5.27 C10.37,4.63 10.1,4.06 9.74,3.55 C9.38,3.04 8.91,2.63 8.34,2.32 C7.77,2.01 7.09,1.86 6.3,1.86 C5.51,1.86 4.83,2.01 4.26,2.32 C3.69,2.63 3.22,3.04 2.86,3.55 C2.5,4.06 2.23,4.63 2.06,5.27 C1.89,5.91 1.8,6.55 1.8,7.21 C1.8,7.87 1.89,8.51 2.06,9.15 Z" id="Shape"></path>
                <polygon id="Path" points="16.82 0.71 23.66 11.25 23.7 11.25 23.7 0.71 25.34 0.71 25.34 13.71 23.45 13.71 16.66 3.28 16.62 3.28 16.62 13.71 14.98 13.71 14.98 0.71"></polygon>
                <polygon id="Path" points="37.48 0.71 37.48 2.17 30.23 2.17 30.23 6.3 36.98 6.3 36.98 7.76 30.23 7.76 30.23 12.26 37.53 12.26 37.53 13.72 28.5 13.72 28.5 0.72 37.48 0.72"></polygon>
            </g>
            <path d="M41.01,35.8003407 C47.55,35.85 52.88,30.39 52.9303838,23.6 C52.97,18.43 49.88,13.79 45.21,12 L45.21,12 C44.74,11.81 44.25,11.66 43.76,11.54 L43.63,11.54 L43.2,11.45 C40.09,2.46 30.55,-2.21 21.9,1.02 C17.22,2.77 13.54,6.59 11.86,11.44 C5.44,12.7 1.21,19.12 2.42,25.79 C2.48,26.11 2.55,26.42 2.63,26.72 L4.46,26.3 C4.22,25.41 4.09,24.47 4.08,23.5 C4.07,18.54 7.47,14.28 12.16,13.36 C14.36,12.97 16.62,13.33 18.6,14.39 C19.06,14.63 19.62,14.45 19.88,13.99 C20.12,13.51 19.94,12.93 19.49,12.67 C17.79,11.72 15.88,11.22 13.94,11.23 C17.14,3.45 25.81,-0.15 33.3,3.18 C36.78,4.73 39.55,7.61 41.05,11.22 C38.64,11.26 36.3,12.06 34.34,13.52 C31.22,15.79 29.35,19.49 29.33,23.45 C29.33,24 29.76,24.44 30.29,24.44 C30.82,24.44 31.25,24 31.25,23.45 C31.25,20.14 32.82,17.03 35.45,15.15 C37.46,13.64 39.93,12.97 42.39,13.28 L42.79,13.34 L42.85,13.34 L43.28,13.43 C48.63,14.66 52,20.16 50.82,25.71 C49.8,30.47 45.72,33.83 41.02,33.78 L41.02,35.8003407 L41.01,35.8003407 Z" id="Path" fill="#2C80C2"></path>
        </g>
    </g>
</svg>