<?xml version="1.0" encoding="UTF-8"?>
<svg width="52px" height="52px" viewBox="0 0 52 52" version="1.1" xmlns="http://www.w3.org/2000/svg" xmlns:xlink="http://www.w3.org/1999/xlink">
    <title>Product Icons / PingFederate</title>
    <g id="Product-Icons-/-PingFederate" stroke="none" stroke-width="1" fill="none" fill-rule="evenodd">
        <g id="PF_basic" transform="translate(1.500000, 2.500000)" fill-rule="nonzero">
            <g id="Group" transform="translate(0.000000, 19.000000)" fill="#3B1716">
                <polygon id="Path" points="9.93 0.48 9.93 2.09 2.41 2.09 2.41 6.65 9 6.65 9 8.26 2.41 8.26 2.41 14.83 0.5 14.83 0.5 0.48"></polygon>
                <polygon id="Path" points="22.35 0.48 22.35 2.09 14.35 2.09 14.35 6.65 21.81 6.65 21.81 8.26 14.35 8.26 14.35 13.22 22.41 13.22 22.41 14.83 12.44 14.83 12.44 0.48"></polygon>
                <path d="M30.05,0.48 C32.26,0.48 33.96,1.04 35.16,2.17 C36.35,3.3 36.95,5.01 36.95,7.32 C36.95,8.53 36.82,9.6 36.55,10.53 C36.28,11.46 35.87,12.25 35.3,12.88 C34.74,13.52 34.02,14 33.15,14.34 C32.28,14.68 31.25,14.84 30.05,14.84 L25.13,14.84 L25.13,0.48 L30.05,0.48 Z M30.21,13.22 C30.42,13.22 30.69,13.2 31.01,13.17 C31.33,13.14 31.67,13.06 32.03,12.93 C32.39,12.8 32.75,12.62 33.11,12.38 C33.46,12.14 33.78,11.81 34.06,11.39 C34.34,10.98 34.57,10.46 34.75,9.83 C34.93,9.21 35.02,8.45 35.02,7.57 C35.02,6.71 34.94,5.95 34.77,5.27 C34.6,4.59 34.33,4.02 33.95,3.54 C33.57,3.07 33.08,2.7 32.47,2.46 C31.87,2.21 31.12,2.09 30.24,2.09 L27.02,2.09 L27.02,13.22 L30.21,13.22 L30.21,13.22 Z" id="Shape"></path>
            </g>
            <polygon id="Path" fill="#B63C3C" points="48.5 46.75 2.4 46.75 2.4 39.79 5.61 39.79 5.61 43.54 45.3 43.54 45.3 3.85 5.61 3.85 5.61 14.12 2.4 14.12 2.4 0.65 48.5 0.65"></polygon>
        </g>
    </g>
</svg>