<?xml version="1.0" encoding="UTF-8"?>
<svg width="52px" height="52px" viewBox="0 0 52 52" version="1.1" xmlns="http://www.w3.org/2000/svg" xmlns:xlink="http://www.w3.org/1999/xlink">
    <title>Product Icons / Directory</title>
    <g id="Product-Icons-/-Directory" stroke="none" stroke-width="1" fill="none" fill-rule="evenodd">
        <g id="PingDirectory_basic" transform="translate(3.000000, 2.500000)" fill-rule="nonzero">
            <polygon id="Path" fill="#61528B" points="47.5 46.75 1.4 46.75 1.4 39.79 4.61 39.79 4.61 43.54 44.3 43.54 44.3 3.85 4.61 3.85 4.61 14.12 1.4 14.12 1.4 0.65 47.5 0.65"></polygon>
            <path d="M6.17815977,19.5209604 L6.47140351,19.5262214 C8.30753737,19.5928603 9.74321801,20.2925686 10.7784454,21.6253464 C11.7507044,22.8912406 12.2368338,24.5127597 12.2368338,26.4899038 C12.2368338,28.0168071 11.9497238,29.3968928 11.3755038,30.6301608 C10.4015531,32.7288675 8.75293502,33.8170857 6.42964957,33.8948156 L6.15858408,33.8993 L0.354393896,33.8993 L0.354393896,19.5209604 L6.17815977,19.5209604 Z M5.76707041,21.1946813 L2.31196226,21.1946813 L2.31196226,32.2353669 L5.78664609,32.2353669 C6.44569411,32.2353669 6.98728802,32.166852 7.41142783,32.0298222 C8.16835426,31.7753383 8.78825091,31.2859462 9.27111777,30.5616459 C9.65610622,29.9809007 9.9334284,29.2370247 10.1030843,28.330018 C10.2009627,27.7884241 10.249902,27.2859816 10.249902,26.8226904 C10.249902,25.0413032 9.89590834,23.6579549 9.18792112,22.6726455 C8.5215802,21.7452954 7.4723055,21.2543454 6.04009701,21.1997954 L5.76707041,21.1946813 Z" id="Shape" fill="#1C1723"></path>
            <polygon id="Path" fill="#1C1723" points="17.1503304 33.8993 17.1503304 19.5209604 15.1829742 19.5209604 15.1829742 33.8993"></polygon>
            <path d="M27.2024439,19.5209604 L27.5607273,19.5268814 C28.4971378,19.5584603 29.281454,19.7163547 29.9136761,20.0005646 C31.2643983,20.6139361 31.9397594,21.7460631 31.9397594,23.3969458 C31.9397594,24.2582758 31.7619469,24.9630004 31.406322,25.5111196 C31.0506971,26.0592387 30.5531485,26.4996916 29.9136761,26.8324782 C30.4748457,27.0608612 30.8973542,27.3610217 31.1812016,27.7329597 C31.4366643,28.0677039 31.5903824,28.590081 31.6423558,29.300091 L31.655912,29.5437104 L31.7244269,31.4719152 L31.7344144,31.6982341 C31.7575857,32.1336932 31.7999331,32.4660803 31.8614566,32.6953955 C31.964229,33.0950657 32.1369436,33.3698389 32.3796005,33.5197153 L32.4878785,33.5763012 L32.4878785,33.8993 L30.0996451,33.8993 L30.0531529,33.7995864 C30.0091076,33.6931436 29.9724032,33.5665134 29.9430396,33.4196958 C29.9136761,33.2728781 29.887983,33.0232882 29.8659604,32.6709259 L29.7277071,29.8862849 L29.7132751,29.6896791 C29.6306111,28.8582785 29.2863221,28.2941293 28.6804081,27.9972314 C28.3497965,27.8406259 27.8516236,27.7536229 27.1858892,27.7362223 L26.9283844,27.7329597 L22.494492,27.7329597 L22.494492,33.8993 L20.5467115,33.8993 L20.5467115,19.5209604 L27.2024439,19.5209604 Z M27.2513832,21.1946813 L22.494492,21.1946813 L22.494492,26.1081779 L26.9968993,26.1081779 C27.9104312,26.1081779 28.6331002,25.9254715 29.1649062,25.5600588 C29.6967123,25.194646 29.9626153,24.535598 29.9626153,23.5829147 C29.9626153,22.558454 29.5906773,21.8602546 28.8468014,21.4883166 C28.4985173,21.3170294 28.0478178,21.2206803 27.4947028,21.1992694 L27.2513832,21.1946813 Z" id="Shape" fill="#1C1723"></path>
        </g>
    </g>
</svg>