<?xml version="1.0" encoding="UTF-8"?>
<svg width="52px" height="52px" viewBox="0 0 52 52" version="1.1" xmlns="http://www.w3.org/2000/svg" xmlns:xlink="http://www.w3.org/1999/xlink">
    <title>Product Icons / PingCentral</title>
    <g id="Product-Icons-/-PingCentral" stroke="none" stroke-width="1" fill="none" fill-rule="evenodd">
        <g id="Group-2" transform="translate(1.500000, 2.500000)" fill-rule="nonzero">
            <polygon id="Path" fill="#F15858" points="48.5 46.1 2.4 46.1 2.4 39.14 5.61 39.14 5.61 42.89 45.3 42.89 45.3 3.2 5.61 3.2 5.61 13.47 2.4 13.47 2.4 1.0658141e-14 48.5 1.0658141e-14"></polygon>
            <g id="Group" transform="translate(0.000000, 18.350000)" fill="#2F1110">
                <path d="M9.85,2.75 C9.14,2.25 8.29,2 7.3,2 C6.46,2 5.74,2.16 5.15,2.47 C4.55,2.79 4.06,3.21 3.68,3.74 C3.29,4.27 3.01,4.88 2.82,5.56 C2.63,6.24 2.54,6.95 2.54,7.68 C2.54,8.48 2.63,9.24 2.82,9.95 C3.01,10.66 3.29,11.29 3.68,11.82 C4.07,12.35 4.56,12.77 5.16,13.09 C5.76,13.41 6.48,13.56 7.32,13.56 C7.94,13.56 8.48,13.46 8.96,13.25 C9.44,13.05 9.85,12.77 10.2,12.41 C10.55,12.05 10.82,11.62 11.02,11.12 C11.22,10.62 11.33,10.08 11.37,9.51 L13.24,9.51 C13.06,11.28 12.45,12.66 11.41,13.64 C10.37,14.62 8.96,15.11 7.16,15.11 C6.07,15.11 5.12,14.92 4.31,14.55 C3.5,14.18 2.82,13.66 2.29,13.01 C1.75,12.35 1.35,11.58 1.08,10.69 C0.81,9.8 0.68,8.84 0.68,7.82 C0.68,6.8 0.82,5.84 1.11,4.94 C1.4,4.04 1.82,3.26 2.38,2.59 C2.94,1.92 3.63,1.39 4.46,1.01 C5.29,0.62 6.25,0.43 7.32,0.43 C8.05,0.43 8.75,0.53 9.4,0.72 C10.05,0.91 10.64,1.2 11.15,1.58 C11.66,1.96 12.09,2.44 12.43,3.01 C12.77,3.58 12.99,4.24 13.1,4.99 L11.23,4.99 C11.03,4 10.57,3.25 9.85,2.75 Z" id="Path"></path>
                <polygon id="Path" points="25.26 0.76 25.26 2.33 17.43 2.33 17.43 6.79 24.72 6.79 24.72 8.36 17.43 8.36 17.43 13.22 25.31 13.22 25.31 14.79 15.56 14.79 15.56 0.76"></polygon>
                <polygon id="Path" points="29.54 0.76 36.93 12.14 36.97 12.14 36.97 0.76 38.74 0.76 38.74 14.8 36.7 14.8 29.37 3.53 29.33 3.53 29.33 14.8 27.56 14.8 27.56 0.76"></polygon>
            </g>
        </g>
    </g>
</svg>