<?xml version="1.0" encoding="UTF-8"?>
<svg width="64px" height="63px" viewBox="0 0 64 63" version="1.1" xmlns="http://www.w3.org/2000/svg" xmlns:xlink="http://www.w3.org/1999/xlink">
    <title>Product Icons / Boxed / Directory</title>
    <g id="Product-Icons-/-Boxed-/-Directory" stroke="none" stroke-width="1" fill="none" fill-rule="evenodd">
        <g id="PingDirectory_box" fill-rule="nonzero">
            <rect id="Rectangle" fill="#FFFFFF" x="0.26" y="0.09" width="63.49" height="62.08"></rect>
            <polygon id="Path" fill="#61528B" opacity="0.06" points="0.26 0.09 63.74 62.17 63.74 0.09"></polygon>
            <polygon id="Path" fill="#61528B" points="55.78 54.21 9.69 54.21 9.69 47.26 12.89 47.26 12.89 51.01 52.58 51.01 52.58 11.32 12.89 11.32 12.89 21.59 9.69 21.59 9.69 8.12 55.78 8.12"></polygon>
            <path d="M14.4412841,41.3673 C16.9078202,41.3673 18.6467934,40.2775869 19.6582038,38.0981608 C20.2324238,36.8648928 20.5195338,35.4848071 20.5195338,33.9579038 C20.5195338,31.9807597 20.0334044,30.3592406 19.0611454,29.0933464 C17.9714324,27.6904224 16.4380038,26.9889604 14.4608598,26.9889604 L14.4608598,26.9889604 L8.6370939,26.9889604 L8.6370939,41.3673 L14.4412841,41.3673 Z M14.0693461,39.7033669 L10.5946623,39.7033669 L10.5946623,28.6626813 L14.0497704,28.6626813 C15.6223503,28.6626813 16.7626339,29.1553361 17.4706211,30.1406455 C18.1786083,31.1259549 18.532602,32.5093032 18.532602,34.2906904 C18.532602,34.7539816 18.4836627,35.2564241 18.3857843,35.798018 C18.2161284,36.7050247 17.9388062,37.4489007 17.5538178,38.0296459 C17.0709509,38.7539462 16.4510543,39.2433383 15.6941278,39.4978222 C15.269988,39.634852 14.7283941,39.7033669 14.0693461,39.7033669 L14.0693461,39.7033669 Z M25.4330304,41.3673 L25.4330304,26.9889604 L23.4656742,26.9889604 L23.4656742,41.3673 L25.4330304,41.3673 Z M30.777192,41.3673 L30.777192,35.2009597 L35.2110844,35.2009597 C36.0071622,35.2009597 36.5911701,35.2890502 36.9631081,35.4652314 C37.6156308,35.7849676 37.9647305,36.4146521 38.0104071,37.3542849 L38.0104071,37.3542849 L38.1278612,39.7523061 C38.1539621,40.3134757 38.1865883,40.6919389 38.2257396,40.8876958 C38.264891,41.0834526 38.3170928,41.2433207 38.3823451,41.3673 L38.3823451,41.3673 L40.7705785,41.3673 L40.7705785,41.0443012 C40.470418,40.9137967 40.2616107,40.6201614 40.1441566,40.1633955 C40.0723791,39.8958611 40.0267025,39.4880344 40.0071269,38.9399152 L40.0071269,38.9399152 L39.938612,37.0117104 C39.9059858,36.1764812 39.747749,35.5728977 39.4639016,35.2009597 C39.1800542,34.8290217 38.7575457,34.5288612 38.1963761,34.3004782 C38.8358485,33.9676916 39.3333971,33.5272387 39.689022,32.9791196 C40.0446469,32.4310004 40.2224594,31.7262758 40.2224594,30.8649458 C40.2224594,29.2140631 39.5470983,28.0819361 38.1963761,27.4685646 C37.4851263,27.1488285 36.5813822,26.9889604 35.4851439,26.9889604 L35.4851439,26.9889604 L28.8294115,26.9889604 L28.8294115,41.3673 L30.777192,41.3673 Z M35.2795993,33.5761779 L30.777192,33.5761779 L30.777192,28.6626813 L35.5340832,28.6626813 C36.1996564,28.6626813 36.7314625,28.7605598 37.1295014,28.9563166 C37.8733773,29.3282546 38.2453153,30.026454 38.2453153,31.0509147 C38.2453153,32.003598 37.9794123,32.662646 37.4476062,33.0280588 C36.9158002,33.3934715 36.1931312,33.5761779 35.2795993,33.5761779 L35.2795993,33.5761779 Z" id="DIR" fill="#1C1723"></path>
        </g>
    </g>
</svg>