<?xml version="1.0" encoding="UTF-8"?>
<svg width="52px" height="52px" viewBox="0 0 52 52" version="1.1" xmlns="http://www.w3.org/2000/svg" xmlns:xlink="http://www.w3.org/1999/xlink">
    <title>Product Icons / PingAccess</title>
    <g id="Product-Icons-/-PingAccess" stroke="none" stroke-width="1" fill="none" fill-rule="evenodd">
        <g id="PingAccess_basic" transform="translate(1.500000, 2.500000)" fill-rule="nonzero">
            <polygon id="Path" fill="#A0AC52" points="48.5 46.75 2.4 46.75 2.4 39.79 5.61 39.79 5.61 43.54 45.3 43.54 45.3 3.85 5.61 3.85 5.61 14.12 2.4 14.12 2.4 0.65 48.5 0.65"></polygon>
            <g id="Group" transform="translate(0.000000, 19.000000)" fill="#484F23">
                <path d="M7.33,0.8 L12.43,14.68 L10.51,14.68 L9.09,10.5 L3.57,10.5 L2.1,14.68 L0.33,14.68 L5.41,0.8 L7.33,0.8 Z M8.54,8.94 L6.37,2.47 L6.32,2.47 L4.11,8.94 L8.54,8.94 Z" id="Shape"></path>
                <path d="M21.41,2.76 C20.75,2.27 19.96,2.02 19.04,2.02 C18.26,2.02 17.59,2.18 17.04,2.49 C16.48,2.8 16.03,3.22 15.67,3.74 C15.31,4.26 15.04,4.86 14.88,5.54 C14.71,6.21 14.62,6.91 14.62,7.64 C14.62,8.43 14.71,9.18 14.88,9.88 C15.05,10.59 15.32,11.2 15.67,11.73 C16.03,12.25 16.49,12.67 17.05,12.99 C17.61,13.3 18.28,13.46 19.06,13.46 C19.63,13.46 20.14,13.36 20.58,13.16 C21.02,12.96 21.41,12.68 21.73,12.32 C22.05,11.96 22.31,11.54 22.49,11.05 C22.67,10.56 22.78,10.03 22.82,9.46 L24.56,9.46 C24.39,11.21 23.82,12.57 22.86,13.54 C21.9,14.51 20.58,15 18.91,15 C17.9,15 17.02,14.81 16.26,14.45 C15.5,14.08 14.88,13.57 14.38,12.92 C13.88,12.27 13.51,11.51 13.26,10.63 C13.01,9.75 12.89,8.8 12.89,7.79 C12.89,6.78 13.02,5.83 13.29,4.94 C13.56,4.05 13.95,3.28 14.47,2.62 C14.99,1.96 15.63,1.44 16.41,1.06 C17.18,0.68 18.07,0.49 19.07,0.49 C19.75,0.49 20.4,0.59 21.01,0.78 C21.62,0.97 22.16,1.26 22.64,1.63 C23.11,2.01 23.51,2.48 23.83,3.04 C24.15,3.6 24.35,4.25 24.45,4.99 L22.71,4.99 C22.5,3.99 22.07,3.25 21.41,2.76 Z" id="Path"></path>
                <path d="M34.41,2.76 C33.75,2.27 32.96,2.02 32.04,2.02 C31.26,2.02 30.59,2.18 30.04,2.49 C29.49,2.8 29.03,3.22 28.67,3.74 C28.31,4.26 28.05,4.86 27.88,5.54 C27.71,6.21 27.62,6.91 27.62,7.64 C27.62,8.43 27.7,9.18 27.88,9.88 C28.05,10.59 28.32,11.2 28.67,11.73 C29.03,12.25 29.49,12.67 30.05,12.99 C30.61,13.3 31.28,13.46 32.06,13.46 C32.63,13.46 33.14,13.36 33.59,13.16 C34.03,12.96 34.42,12.68 34.74,12.32 C35.06,11.96 35.32,11.54 35.5,11.05 C35.68,10.56 35.79,10.03 35.83,9.46 L37.57,9.46 C37.4,11.21 36.83,12.57 35.87,13.54 C34.91,14.51 33.59,15 31.92,15 C30.91,15 30.03,14.81 29.27,14.45 C28.51,14.08 27.89,13.57 27.39,12.92 C26.89,12.27 26.52,11.51 26.27,10.63 C26.02,9.75 25.9,8.8 25.9,7.79 C25.9,6.78 26.03,5.83 26.3,4.94 C26.57,4.05 26.96,3.28 27.48,2.62 C28,1.96 28.64,1.44 29.42,1.06 C30.19,0.68 31.08,0.49 32.08,0.49 C32.76,0.49 33.41,0.59 34.02,0.78 C34.63,0.97 35.17,1.26 35.65,1.63 C36.13,2.01 36.52,2.48 36.84,3.04 C37.16,3.6 37.36,4.25 37.46,4.99 L35.7,4.99 C35.51,3.99 35.08,3.25 34.41,2.76 Z" id="Path"></path>
            </g>
        </g>
    </g>
</svg>