<?xml version="1.0" encoding="UTF-8"?>
<svg width="52px" height="52px" viewBox="0 0 52 52" version="1.1" xmlns="http://www.w3.org/2000/svg" xmlns:xlink="http://www.w3.org/1999/xlink">
    <title>Product Icons / Risk</title>
    <g id="Product-Icons-/-Risk" stroke="none" stroke-width="1" fill="none" fill-rule="evenodd">
        <g id="Risk_basic" transform="translate(0.000000, 4.500000)" fill-rule="nonzero">
            <path d="M39.13,36.3703413 C45.65,36.42 50.97,30.97 51.010385,24.21 C51.05,19.06 47.97,14.43 43.32,12.64 L43.32,12.64 C42.85,12.45 42.36,12.3 41.87,12.18 L41.74,12.18 L41.31,12.09 C38.21,3.12 28.7,-1.53 20.07,1.69 C15.41,3.43 11.74,7.24 10.06,12.08 C3.66,13.33 -0.56,19.73 0.65,26.38 C0.71,26.69 0.78,27 0.85,27.31 L2.67,26.89 C2.43,26 2.3,25.07 2.29,24.1 C2.28,19.15 5.67,14.9 10.35,13.99 C12.54,13.6 14.79,13.96 16.77,15.01 C17.23,15.25 17.79,15.07 18.04,14.61 C18.28,14.13 18.1,13.55 17.65,13.29 C15.95,12.34 14.05,11.85 12.12,11.86 C15.32,4.11 23.96,0.52 31.43,3.84 C34.9,5.38 37.67,8.25 39.15,11.86 C36.75,11.9 34.41,12.7 32.46,14.15 C29.35,16.42 27.49,20.1 27.46,24.05 C27.46,24.6 27.89,25.04 28.41,25.04 C28.93,25.04 29.36,24.6 29.36,24.05 C29.36,20.75 30.93,17.65 33.55,15.77 C35.55,14.27 38.02,13.6 40.47,13.9 L40.86,13.96 L40.92,13.96 L41.35,14.05 C46.68,15.28 50.05,20.76 48.87,26.3 C47.86,31.04 43.78,34.4 39.1,34.35 L39.1,36.3703413 L39.13,36.3703413 Z" id="Path" fill="#F58044"></path>
            <g id="Group" transform="translate(2.000000, 29.000000)" fill="#7D4325">
                <path d="M6.56,0.66 C7.77,0.66 8.72,0.96 9.4,1.55 C10.08,2.14 10.42,2.96 10.42,3.99 C10.42,4.76 10.24,5.44 9.89,6.02 C9.54,6.6 8.98,7 8.21,7.21 L8.21,7.25 C8.58,7.32 8.88,7.44 9.11,7.61 C9.34,7.78 9.53,7.98 9.66,8.21 C9.8,8.44 9.9,8.7 9.96,8.98 C10.02,9.27 10.08,9.56 10.11,9.87 C10.13,10.18 10.15,10.49 10.16,10.81 C10.17,11.13 10.2,11.45 10.25,11.75 C10.3,12.06 10.37,12.35 10.45,12.63 C10.54,12.91 10.67,13.16 10.85,13.37 L8.96,13.37 C8.84,13.24 8.76,13.06 8.72,12.84 C8.68,12.61 8.65,12.36 8.64,12.08 C8.63,11.8 8.62,11.5 8.6,11.18 C8.59,10.86 8.55,10.54 8.49,10.24 C8.44,9.93 8.38,9.64 8.31,9.36 C8.24,9.08 8.13,8.84 7.97,8.63 C7.81,8.42 7.61,8.26 7.36,8.13 C7.11,8.01 6.78,7.94 6.36,7.94 L2.26,7.94 L2.26,13.37 L0.57,13.37 L0.57,0.66 L6.56,0.66 Z M6.91,6.44 C7.27,6.38 7.58,6.26 7.85,6.09 C8.12,5.92 8.33,5.69 8.49,5.4 C8.65,5.11 8.73,4.73 8.73,4.27 C8.73,3.63 8.55,3.11 8.2,2.7 C7.84,2.3 7.27,2.09 6.47,2.09 L2.27,2.09 L2.27,6.53 L5.8,6.53 C6.18,6.52 6.56,6.5 6.91,6.44 Z" id="Shape"></path>
                <path d="M19.5,2.4 C18.94,1.99 18.21,1.79 17.33,1.79 C16.97,1.79 16.62,1.82 16.28,1.9 C15.93,1.97 15.63,2.09 15.36,2.26 C15.09,2.43 14.88,2.65 14.72,2.93 C14.56,3.21 14.48,3.56 14.48,3.97 C14.48,4.36 14.6,4.68 14.83,4.92 C15.06,5.16 15.37,5.36 15.76,5.52 C16.15,5.67 16.58,5.8 17.07,5.9 C17.56,6 18.05,6.11 18.56,6.23 C19.07,6.35 19.56,6.49 20.05,6.65 C20.54,6.81 20.97,7.03 21.36,7.3 C21.75,7.57 22.06,7.92 22.29,8.33 C22.52,8.75 22.64,9.27 22.64,9.9 C22.64,10.58 22.49,11.16 22.19,11.64 C21.89,12.12 21.5,12.51 21.02,12.82 C20.54,13.13 20.01,13.34 19.43,13.48 C18.84,13.62 18.26,13.69 17.67,13.69 C16.96,13.69 16.28,13.6 15.65,13.42 C15.01,13.24 14.46,12.97 13.98,12.61 C13.5,12.25 13.12,11.79 12.84,11.22 C12.56,10.66 12.42,9.99 12.42,9.22 L14.02,9.22 C14.02,9.75 14.12,10.22 14.33,10.6 C14.54,10.99 14.81,11.3 15.15,11.55 C15.49,11.8 15.88,11.98 16.33,12.1 C16.78,12.22 17.24,12.28 17.72,12.28 C18.1,12.28 18.48,12.25 18.87,12.17 C19.26,12.1 19.6,11.98 19.91,11.8 C20.22,11.63 20.47,11.39 20.66,11.1 C20.85,10.8 20.95,10.42 20.95,9.96 C20.95,9.52 20.83,9.16 20.6,8.89 C20.37,8.62 20.06,8.39 19.67,8.22 C19.28,8.05 18.85,7.91 18.36,7.8 C17.87,7.69 17.38,7.58 16.87,7.47 C16.36,7.36 15.87,7.23 15.38,7.08 C14.89,6.93 14.46,6.74 14.07,6.49 C13.68,6.25 13.38,5.93 13.14,5.55 C12.91,5.16 12.79,4.68 12.79,4.1 C12.79,3.46 12.92,2.9 13.18,2.43 C13.44,1.96 13.79,1.58 14.22,1.27 C14.65,0.97 15.15,0.74 15.7,0.59 C16.25,0.44 16.82,0.37 17.4,0.37 C18.05,0.37 18.66,0.45 19.22,0.6 C19.78,0.75 20.27,1 20.69,1.33 C21.11,1.66 21.44,2.08 21.69,2.59 C21.93,3.1 22.07,3.7 22.09,4.4 L20.49,4.4 C20.4,3.47 20.07,2.81 19.5,2.4 Z" id="Path"></path>
                <polygon id="Path" points="26.73 0.66 26.73 7 33.18 0.66 35.37 0.66 30.01 5.79 35.59 13.38 33.45 13.38 28.85 6.95 26.73 8.93 26.73 13.38 25.04 13.38 25.04 0.66"></polygon>
            </g>
        </g>
    </g>
</svg>