<?xml version="1.0" encoding="UTF-8"?>
<!DOCTYPE svg PUBLIC "-//W3C//DTD SVG 1.1//EN" "http://www.w3.org/Graphics/SVG/1.1/DTD/svg11.dtd">
<svg viewBox="0 0 32 32" version="1.1" xmlns="http://www.w3.org/2000/svg" xmlns:xlink="http://www.w3.org/1999/xlink">
    <title>users</title>
    <g id="users" stroke="none" stroke-width="1" fill="none" fill-rule="evenodd">
        <path d="M16.549084,13.4193276 C18.7253716,13.4193276 20.4958521,15.2363379 20.4958521,17.4693843 C20.4958521,18.5220657 20.0907363,19.5162254 19.4063256,20.256791 C19.890598,20.5348577 20.3447978,20.8742836 20.7385067,21.2782607 C21.8743519,22.4437294 22.5,23.9883477 22.5,25.6276649 L22.5,25.6276649 L22.5,27.7071362 C22.5,28.100473 22.1892499,28.4193276 21.8055652,28.4193276 C21.4225717,28.4193276 21.1118216,28.100473 21.1118216,27.7071362 L21.1118216,27.7071362 L21.1118216,25.6276649 C21.1118216,24.3689162 20.6306602,23.1818122 19.7568268,22.2851888 C19.2825786,21.7989266 18.7035949,21.4211956 18.0803664,21.18569 C18.0278258,21.1984584 17.9742482,21.2059066 17.9217076,21.2059066 C17.6600415,21.2059066 17.4094366,21.0533955 17.2919115,20.7937719 C17.1304874,20.4369669 17.281196,20.0134825 17.6285862,19.8478484 C18.527653,19.4193985 19.1080194,18.485534 19.1080194,17.4690297 C19.1080194,16.0212381 17.9597304,14.8433558 16.549084,14.8433558 C15.1380919,14.8433558 13.9901486,16.0212381 13.9901486,17.4690297 C13.9901486,18.485534 14.5708607,19.4193985 15.4692361,19.8478484 C15.816972,20.0134825 15.9680263,20.4369669 15.8062565,20.7937719 C15.6562392,21.1246856 15.2912202,21.2779061 14.96215,21.1672468 C13.1232285,21.8418425 11.8881784,23.6336707 11.8881784,25.6276649 L11.8881784,25.6276649 L11.8881784,27.7071362 C11.8881784,28.100473 11.5774283,28.4193276 11.1940892,28.4193276 C10.8107501,28.4193276 10.5,28.100473 10.5,27.7071362 L10.5,27.7071362 L10.5,25.6276649 C10.5,23.3517025 11.7353958,21.2793248 13.6520913,20.2124563 C12.9915313,19.4768562 12.6019703,18.5014944 12.6019703,17.4693843 C12.6019703,15.2363379 14.3727964,13.4193276 16.549084,13.4193276 Z M6.43892836,9.41932759 C8.57546301,9.41932759 10.3139425,11.2363809 10.3139425,13.4694801 C10.3139425,14.5228957 9.91588739,15.5174336 9.24329977,16.2580167 C9.71906558,16.53609 10.1642901,16.875524 10.5508074,17.2795106 C10.8775994,17.6210727 11.1629911,17.9981032 11.3991772,18.3999618 C11.595999,18.7351395 11.4958914,19.1738853 11.1752076,19.3796028 C11.0639015,19.4508946 10.9407182,19.4849444 10.8192316,19.4849444 C10.5901717,19.4849444 10.3662021,19.3643514 10.2379286,19.1455105 C10.0570561,18.8383529 9.83817671,18.5492843 9.58705923,18.2864625 C9.12113451,17.7994794 8.55238735,17.4217395 7.94088236,17.1862284 C7.88964082,17.198997 7.83772058,17.2060907 7.78647905,17.2060907 C7.52959265,17.2060907 7.28356539,17.053576 7.16818709,16.7939463 C7.0097116,16.4371328 7.15766731,16.0136384 7.49905134,15.8480004 C8.38101664,15.4195404 8.95078184,14.4856538 8.95044249,13.4687707 C8.95044249,12.020945 7.82346797,10.8430348 6.43824967,10.8430348 C5.05303136,10.8430348 3.92605684,12.020945 3.92605684,13.4687707 C3.92605684,14.4852991 4.49616139,15.4191857 5.37812669,15.8476457 C5.71951072,16.0132838 5.86780577,16.4367781 5.70899094,16.7935916 C5.56239263,17.1241584 5.20370185,17.2777372 4.88064261,17.1670753 C3.07531155,17.841687 1.86282135,19.6332029 1.86282135,21.6272442 L1.86282135,21.6272442 L1.86282135,23.7071193 C1.86282135,24.1004654 1.55774755,24.4193276 1.18141068,24.4193276 C0.805073813,24.4193276 0.500000012,24.1004654 0.500000012,23.7071193 L0.500000012,23.7071193 L0.500000012,21.6272442 C0.500000012,19.3515827 1.71282956,17.2791559 3.59485325,16.212617 C2.94635933,15.4769994 2.5639142,14.5016146 2.5639142,13.4694801 C2.5639142,11.2363809 4.30239371,9.41932759 6.43892836,9.41932759 Z M25.5610449,9.41932759 C27.6977113,9.41932759 29.4362979,11.2363379 29.4362979,13.4693843 C29.4362979,14.5014944 29.0534899,15.4768562 28.4052953,16.2124563 C30.2870957,17.2793248 31.5,19.3517025 31.5,21.6276649 L31.5,21.6276649 L31.5,23.7071362 C31.5,24.100473 31.1949074,24.4193276 30.8185473,24.4193276 C30.4421873,24.4193276 30.137434,24.100473 30.137434,23.7071362 L30.137434,23.7071362 L30.137434,21.6276649 C30.137434,19.6333161 28.9245297,17.8418425 27.1190873,17.1672468 C26.7960082,17.2782607 26.4372953,17.1243309 26.2906879,16.7937719 C26.1318633,16.4369669 26.2798281,16.0134825 26.6212332,15.8478484 C27.5035923,15.4193985 28.0733926,14.485534 28.0733926,13.4690297 C28.0733926,12.0212381 26.9463486,10.8433558 25.5610449,10.8433558 C24.1757412,10.8433558 23.0486972,12.0212381 23.0486972,13.4690297 C23.0486972,14.485534 23.6188369,15.4190439 24.5008566,15.8478484 C24.8422616,16.0138372 24.9905658,16.4373215 24.8317412,16.7937719 C24.7160164,17.0537502 24.4703134,17.2059066 24.2134111,17.2059066 C24.1621664,17.2062613 24.110243,17.1988131 24.0589983,17.1863994 C23.4471162,17.4215502 22.8786734,17.7992813 22.4127199,18.2862528 C22.161587,18.5494231 21.9423547,18.8381302 21.7624892,19.1449258 C21.633529,19.3641162 21.4102243,19.4847064 21.180811,19.4847064 C21.0593169,19.4847064 20.936126,19.4510121 20.8251524,19.379722 C20.5044488,19.1740093 20.4039956,18.7356286 20.6004902,18.4001041 C20.8363516,17.9982551 21.1217608,17.6212334 21.4489124,17.2793248 C21.8357929,16.8757023 22.2810448,16.5362764 22.75684,16.257855 C22.0838715,15.5169347 21.6857918,14.5227751 21.6857918,13.4693843 C21.6857918,11.2363379 23.4243785,9.41932759 25.5610449,9.41932759 Z M16.431,3.58067241 C18.5296667,3.58067241 20.2373333,5.34722414 20.2373333,7.51825862 C20.2373333,8.54239656 19.8463333,9.50929311 19.1856667,10.2292931 C19.653,10.4996379 20.0903333,10.8296379 20.47,11.2223966 C20.791,11.5544655 21.0713333,11.9210172 21.3033333,12.3117069 C21.4966667,12.637569 21.3983333,13.0641207 21.0833333,13.2641207 C20.974,13.333431 20.853,13.3665345 20.733,13.3665345 C20.508,13.3665345 20.288,13.2492931 20.162,13.0365345 C19.9843333,12.7379138 19.7693333,12.4568793 19.5226667,12.2013621 C19.065,11.7279138 18.5063333,11.3606724 17.9056667,11.1317069 C17.8553333,11.1441207 17.8043333,11.1510172 17.754,11.1510172 C17.5016667,11.1510172 17.26,11.0027414 17.1466667,10.7503276 C16.991,10.403431 17.1363333,9.9917069 17.4716667,9.83067242 C18.3383333,9.41412069 18.898,8.50618966 18.898,7.5179138 C18.898,6.11032759 17.791,4.96515518 16.4303333,4.96515518 C15.0696667,4.96515518 13.9626667,6.11032759 13.9626667,7.5179138 C13.9626667,8.50618966 14.5226667,9.41412069 15.389,9.83067242 C15.7243333,9.9917069 15.87,10.403431 15.714,10.7503276 C15.5693333,11.0727414 15.2163333,11.2220517 14.8986667,11.1130862 C14.059,11.4255 13.3353333,11.9844655 12.8063333,12.7292931 C12.6746667,12.9144655 12.472,13.0120517 12.266,13.0120517 C12.1286667,13.0120517 11.99,12.9686034 11.8706667,12.8779138 C11.5726667,12.6513621 11.5086667,12.2179138 11.7273333,11.9099828 C12.2383333,11.1903276 12.889,10.6058448 13.6373333,10.1855 C13.0006667,9.46998276 12.6246667,8.52205173 12.6246667,7.51825862 C12.6246667,5.34722414 14.3323333,3.58067241 16.431,3.58067241 Z" id="Combined-Shape" fill="#000000" fill-rule="nonzero"></path>
    </g>
</svg>