<?xml version="1.0" encoding="utf-8"?>
<!-- Generator: Adobe Illustrator 25.1.0, SVG Export Plug-In . SVG Version: 6.00 Build 0)  -->
<svg version="1.1" id="Layer_1" xmlns="http://www.w3.org/2000/svg" xmlns:xlink="http://www.w3.org/1999/xlink" x="0px" y="0px"
	 viewBox="0 0 52 52" style="enable-background:new 0 0 52 52;" xml:space="preserve">
<style type="text/css">
	.st0{fill:#899D96;}
	.st1{enable-background:new    ;}
	.st2{fill:#454D4A;}
</style>
<g id="Product-Icons-_x2F_-Verify">
	<g id="Verify" transform="translate(0.000000, 4.500000)">
		<path id="Path" class="st0" d="M39.2,36.5c6.6,0,11.9-5.4,12-12.3c0-5.2-3.1-9.9-7.8-11.7l0,0c-0.5-0.2-1-0.3-1.5-0.5h-0.1
			L41.5,12C38.3,3,28.7-1.7,20,1.5C15.3,3.3,11.6,7.1,9.9,12c-6.4,1.3-10.7,7.7-9.5,14.4c0.1,0.3,0.1,0.6,0.2,0.9L2.5,27
			c-0.2-0.9-0.4-1.8-0.4-2.8c0-5,3.4-9.3,8.1-10.2c2.2-0.4,4.5,0,6.5,1c0.5,0.2,1,0.1,1.3-0.4c0.2-0.5,0.1-1.1-0.4-1.3
			c-1.7-1-3.6-1.4-5.6-1.4C15.2,4,24,0.4,31.5,3.7c3.5,1.6,6.3,4.4,7.8,8.1c-2.4,0-4.8,0.8-6.8,2.3c-3.1,2.3-5,6-5,10
			c0,0.5,0.4,1,1,1c0.5,0,1-0.5,1-1c0-3.3,1.6-6.5,4.2-8.3c2-1.5,4.5-2.2,7-1.9l0.4,0.1H41l0.5,0.1c5.4,1.2,8.8,6.8,7.6,12.4
			c-1,4.8-5.1,8.2-9.8,8.1V36.5L39.2,36.5z"/>
		<g class="st1">
			<path class="st2" d="M6.4,43L1.8,30.1h1.8l3.7,11.1h0l3.7-11.1h1.8L8.3,43H6.4z"/>
			<path class="st2" d="M24.1,30.1v1.4h-7.2v4.1h6.7v1.4h-6.7v4.4h7.2V43h-8.9V30.1H24.1z"/>
			<path class="st2" d="M33.3,30.1c1.2,0,2.2,0.3,2.9,0.9c0.7,0.6,1,1.4,1,2.5c0,0.8-0.2,1.5-0.5,2.1s-0.9,1-1.7,1.2v0
				c0.4,0.1,0.7,0.2,0.9,0.4s0.4,0.4,0.6,0.6c0.1,0.2,0.2,0.5,0.3,0.8c0.1,0.3,0.1,0.6,0.2,0.9c0,0.3,0,0.6,0.1,1c0,0.3,0,0.6,0.1,1
				c0,0.3,0.1,0.6,0.2,0.9s0.2,0.5,0.4,0.7h-1.9c-0.1-0.1-0.2-0.3-0.2-0.5c0-0.2-0.1-0.5-0.1-0.8s0-0.6,0-0.9s0-0.6-0.1-1
				c0-0.3-0.1-0.6-0.2-0.9c-0.1-0.3-0.2-0.5-0.3-0.7s-0.4-0.4-0.6-0.5s-0.6-0.2-1-0.2h-4.2V43h-1.7V30.1H33.3z M33.6,36
				c0.4-0.1,0.7-0.2,0.9-0.4c0.3-0.2,0.5-0.4,0.6-0.7s0.2-0.7,0.2-1.1c0-0.6-0.2-1.2-0.5-1.6c-0.4-0.4-0.9-0.6-1.7-0.6h-4.2v4.5h3.6
				C32.9,36.1,33.3,36,33.6,36z"/>
		</g>
	</g>
</g>
</svg>
