<?xml version="1.0" encoding="UTF-8"?>
<svg width="52px" height="52px" viewBox="0 0 52 52" version="1.1" xmlns="http://www.w3.org/2000/svg" xmlns:xlink="http://www.w3.org/1999/xlink">
    <title>Product Icons / Workforce 360</title>
    <g id="Product-Icons-/-Workforce-360" stroke="none" stroke-width="1" fill="none" fill-rule="evenodd">
        <g id="WorkForce_360" transform="translate(1.500000, 1.000000)" fill-rule="nonzero">
            <path d="M45.37,49.4 L3.34,49.4 C1.69,49.4 0.36,48.06 0.36,46.42 L0.36,3.55 C0.36,1.9 1.7,0.57 3.34,0.57 L45.37,0.57 C47.02,0.57 48.3500556,1.91 48.3500556,3.55 L48.3500556,46.41 C48.36,48.06 47.02,49.4 45.37,49.4 Z" id="Path" fill="#2078AF"></path>
            <path d="M21.27,12.82 C22.21,12.45 23.21,12.18 24.26,12.02 C31.87,10.85 38.99,16.08 40.16,23.7 C41.33,31.31 36.1,38.43 28.48,39.6 C25,40.13 21.51,39.38 18.64,37.43 L21.94,36.92 C22.6,36.82 23.06,36.2 22.96,35.54 C22.86,34.88 22.24,34.42 21.58,34.52 L15.59,35.44 C15.59,35.44 15.59,35.44 15.53,35.45 L15.47,35.46 C15.41,35.47 15.35,35.48 15.29,35.49 L15.23,35.5 C15.17,35.51 15.12,35.58 15.06,35.59 L15,35.6 C14.94,35.61 14.89,35.68 14.84,35.75 L14.84,35.75 C14.84,35.75 14.84,35.75 14.79,35.82 C14.74,35.89 14.74,35.89 14.69,35.96 L14.64,36.03 C14.65,36.09 14.59,36.1 14.6,36.16 L14.55,36.23 C14.56,36.29 14.5,36.3 14.51,36.36 C14.52,36.42 14.52,36.42 14.53,36.48 C14.54,36.54 14.54,36.54 14.49,36.61 C14.5,36.67 14.5,36.67 14.51,36.73 L14.52,36.79 L15.45,42.84 C15.55,43.5 16.17,43.96 16.83,43.86 C17.49,43.76 17.95,43.14 17.85,42.48 L17.4,39.54 C20.8,41.72 24.81,42.64 28.88,42.01 C37.81,40.64 43.95,32.28 42.59,23.35 C41.23,14.42 32.82,8.25 23.88,9.62 C23.24,9.72 22.62,9.85 22.02,10.02" id="Path" fill="#FFFFFF" opacity="0.65"></path>
            <g id="Group" transform="translate(8.000000, 20.000000)" fill="#FFFFFF">
                <path d="M3.17,4.86 C3.22,4.86 3.28,4.86 3.33,4.86 L3.61,4.86 C3.89,4.86 4.16,4.82 4.42,4.74 C4.68,4.66 4.9,4.55 5.1,4.39 C5.29,4.24 5.45,4.05 5.57,3.81 C5.69,3.57 5.74,3.32 5.74,3.02 C5.74,2.42 5.55,1.97 5.17,1.67 C4.79,1.37 4.32,1.22 3.75,1.22 C3.39,1.22 3.08,1.29 2.81,1.42 C2.54,1.55 2.32,1.73 2.15,1.95 C1.98,2.17 1.85,2.43 1.76,2.72 C1.68,3.01 1.63,3.33 1.63,3.65 L0.3,3.65 C0.32,3.11 0.41,2.62 0.56,2.18 C0.71,1.74 0.93,1.36 1.21,1.04 C1.49,0.72 1.85,0.48 2.28,0.3 C2.71,0.12 3.2,0.03 3.76,0.03 C4.24,0.03 4.69,0.09 5.11,0.21 C5.53,0.33 5.89,0.51 6.19,0.75 C6.49,0.99 6.73,1.3 6.91,1.68 C7.08,2.06 7.17,2.51 7.17,3.02 C7.17,3.52 7.02,3.97 6.73,4.36 C6.44,4.75 6.07,5.04 5.63,5.24 L5.63,5.27 C6.31,5.42 6.82,5.74 7.15,6.23 C7.48,6.73 7.65,7.31 7.65,7.98 C7.65,8.54 7.55,9.03 7.34,9.46 C7.13,9.89 6.86,10.24 6.51,10.52 C6.16,10.8 5.76,11.02 5.29,11.16 C4.82,11.3 4.33,11.37 3.8,11.37 C3.23,11.37 2.72,11.29 2.25,11.13 C1.79,10.97 1.39,10.74 1.07,10.43 C0.74,10.12 0.49,9.74 0.32,9.29 C0.15,8.84 0.07,8.32 0.08,7.74 L1.42,7.74 C1.44,8.47 1.65,9.06 2.05,9.51 C2.45,9.97 3.03,10.2 3.8,10.2 C4.13,10.2 4.44,10.15 4.73,10.05 C5.02,9.95 5.28,9.81 5.5,9.62 C5.72,9.44 5.9,9.21 6.03,8.94 C6.16,8.67 6.23,8.37 6.23,8.03 C6.23,7.68 6.17,7.37 6.04,7.11 C5.91,6.84 5.75,6.62 5.54,6.43 C5.33,6.25 5.08,6.11 4.79,6.02 C4.5,5.93 4.19,5.89 3.85,5.89 C3.57,5.89 3.3,5.91 3.05,5.94 L3.05,4.8 C3.08,4.86 3.12,4.86 3.17,4.86 Z" id="Path"></path>
                <path d="M14.62,1.69 C14.29,1.38 13.86,1.23 13.33,1.23 C12.76,1.23 12.3,1.37 11.96,1.65 C11.61,1.93 11.34,2.28 11.15,2.71 C10.96,3.14 10.82,3.6 10.75,4.09 C10.68,4.58 10.63,5.05 10.62,5.48 L10.65,5.51 C10.97,4.99 11.36,4.62 11.83,4.39 C12.3,4.16 12.84,4.04 13.45,4.04 C13.99,4.04 14.47,4.13 14.89,4.32 C15.32,4.5 15.67,4.76 15.96,5.09 C16.25,5.42 16.47,5.8 16.63,6.24 C16.79,6.68 16.87,7.16 16.87,7.68 C16.87,8.09 16.81,8.52 16.68,8.96 C16.55,9.4 16.35,9.8 16.06,10.17 C15.77,10.53 15.39,10.83 14.91,11.07 C14.43,11.31 13.84,11.43 13.13,11.43 C12.3,11.43 11.63,11.26 11.13,10.93 C10.63,10.59 10.24,10.16 9.96,9.64 C9.69,9.11 9.5,8.54 9.42,7.9 C9.33,7.27 9.29,6.66 9.29,6.07 C9.29,5.3 9.36,4.56 9.49,3.84 C9.62,3.12 9.84,2.48 10.16,1.92 C10.48,1.36 10.9,0.92 11.42,0.58 C11.95,0.24 12.61,0.08 13.41,0.08 C14.34,0.08 15.07,0.32 15.62,0.81 C16.17,1.3 16.48,2.01 16.57,2.93 L15.23,2.93 C15.14,2.4 14.95,2 14.62,1.69 Z M12.19,5.42 C11.91,5.55 11.66,5.73 11.46,5.96 C11.26,6.19 11.11,6.46 11.01,6.76 C10.91,7.07 10.86,7.4 10.86,7.75 C10.86,8.1 10.91,8.42 11.02,8.73 C11.13,9.04 11.27,9.3 11.47,9.52 C11.66,9.74 11.91,9.92 12.2,10.05 C12.49,10.18 12.82,10.25 13.19,10.25 C13.56,10.25 13.88,10.18 14.16,10.05 C14.44,9.92 14.67,9.74 14.86,9.51 C15.05,9.28 15.19,9.01 15.29,8.71 C15.39,8.41 15.44,8.1 15.44,7.77 C15.44,7.42 15.4,7.09 15.31,6.78 C15.22,6.47 15.08,6.2 14.89,5.98 C14.7,5.75 14.46,5.57 14.18,5.44 C13.9,5.31 13.56,5.23 13.19,5.23 C12.82,5.23 12.48,5.29 12.19,5.42 Z" id="Shape"></path>
                <path d="M18.46,4.47 C18.48,4.03 18.53,3.6 18.62,3.18 C18.7,2.76 18.83,2.36 18.98,1.98 C19.14,1.6 19.35,1.27 19.63,0.99 C19.9,0.71 20.25,0.48 20.66,0.31 C21.08,0.14 21.57,0.06 22.15,0.06 C22.73,0.06 23.23,0.14 23.64,0.31 C24.06,0.48 24.4,0.7 24.67,0.99 C24.94,1.27 25.16,1.61 25.32,1.98 C25.48,2.36 25.6,2.76 25.68,3.18 C25.76,3.6 25.82,4.03 25.84,4.47 C25.86,4.91 25.87,5.34 25.87,5.75 C25.87,6.16 25.86,6.59 25.84,7.03 C25.82,7.47 25.77,7.9 25.68,8.32 C25.59,8.74 25.47,9.14 25.32,9.51 C25.16,9.88 24.95,10.21 24.67,10.5 C24.4,10.78 24.05,11.01 23.64,11.17 C23.23,11.33 22.73,11.42 22.14,11.42 C21.56,11.42 21.06,11.34 20.65,11.17 C20.23,11.01 19.89,10.78 19.62,10.5 C19.35,10.22 19.13,9.89 18.97,9.51 C18.81,9.14 18.69,8.74 18.61,8.32 C18.53,7.9 18.47,7.47 18.45,7.03 C18.43,6.59 18.42,6.16 18.42,5.75 C18.42,5.34 18.43,4.91 18.46,4.47 Z M19.88,7.14 C19.91,7.66 19.99,8.15 20.13,8.61 C20.27,9.07 20.5,9.45 20.82,9.77 C21.14,10.09 21.58,10.24 22.15,10.24 C22.72,10.24 23.16,10.08 23.48,9.77 C23.8,9.45 24.02,9.07 24.17,8.61 C24.31,8.15 24.4,7.66 24.42,7.14 C24.44,6.62 24.46,6.15 24.46,5.73 C24.46,5.46 24.46,5.15 24.45,4.82 C24.44,4.49 24.42,4.16 24.37,3.83 C24.32,3.5 24.25,3.18 24.16,2.86 C24.07,2.54 23.94,2.27 23.77,2.03 C23.6,1.79 23.38,1.6 23.11,1.45 C22.84,1.3 22.53,1.23 22.15,1.23 C21.77,1.23 21.45,1.3 21.19,1.45 C20.93,1.6 20.71,1.79 20.54,2.03 C20.37,2.27 20.23,2.54 20.15,2.86 C20.06,3.18 19.99,3.5 19.94,3.83 C19.89,4.16 19.87,4.49 19.86,4.82 C19.85,5.15 19.85,5.45 19.85,5.73 C19.84,6.15 19.86,6.62 19.88,7.14 Z" id="Shape"></path>
            </g>
            <path d="M3.14,0.63 L45.56,0.63 C47.1,0.63 48.35,1.88 48.35,3.42 L48.35,46.67 L3.14,0.63 Z" id="Path" fill="#FFFFFF" opacity="0.1"></path>
            <polygon id="Path" fill="#FFFFFF" points="6.96 8.75 8.94 8.75 10.59 15.06 10.62 15.06 12.21 8.75 14.09 8.75 15.61 15.06 15.64 15.06 17.36 8.75 19.26 8.75 16.61 17.2 14.7 17.2 13.13 10.92 13.1 10.92 11.55 17.2 9.59 17.2"></polygon>
        </g>
    </g>
</svg>