<?xml version="1.0" encoding="utf-8"?>
<!-- Generator: Adobe Illustrator 24.1.2, SVG Export Plug-In . SVG Version: 6.00 Build 0)  -->
<svg version="1.1" id="Layer_1" xmlns="http://www.w3.org/2000/svg" xmlns:xlink="http://www.w3.org/1999/xlink" x="0px" y="0px"
	 viewBox="0 0 55.07 54" style="enable-background:new 0 0 55.07 54;" xml:space="preserve">
<style type="text/css">
	.st0{fill:none;stroke:#000000;stroke-width:1.5;stroke-linejoin:round;stroke-miterlimit:10;}
</style>
<g>
	<path d="M40.19,22c-0.13,0-0.25,0.01-0.38,0.02c-2.47-4.52-7.17-7.32-12.33-7.32c-5.21,0-9.93,2.84-12.39,7.42
		c-3.16,0.01-5.73,2.59-5.73,5.75c0,3.17,2.58,5.75,5.75,5.75s5.75-2.58,5.75-5.75c0-2.62-1.77-4.84-4.18-5.53
		c2.26-3.81,6.33-6.14,10.79-6.14c4.46,0,8.53,2.34,10.79,6.14c-2.23,0.79-3.83,2.92-3.83,5.41c0,3.17,2.58,5.75,5.75,5.75
		s5.75-2.58,5.75-5.75S43.36,22,40.19,22z M19.37,27.86c0,2.34-1.91,4.25-4.25,4.25s-4.25-1.91-4.25-4.25s1.91-4.25,4.25-4.25
		S19.37,25.52,19.37,27.86z M40.19,32c-2.34,0-4.25-1.91-4.25-4.25s1.91-4.25,4.25-4.25s4.25,1.91,4.25,4.25S42.54,32,40.19,32z"/>
	<path d="M52.95,31.37l-3.45-1.83c0.06-0.69,0.08-1.32,0.08-2.02c0-0.52-0.02-1.06-0.07-1.64c1.17-0.63,3.21-1.72,3.5-1.86
		c0.66-0.32,0.8-1.12,0.72-1.77c-0.14-0.63-0.62-2.71-0.8-3.15c-0.27-0.65-0.95-0.87-1.4-0.81l-3.91,0.12
		c-0.17-0.38-0.35-0.71-0.54-1.09c-0.39-0.74-0.83-1.47-1.31-2.17c0.82-1.37,1.9-3.16,2.06-3.4c0.41-0.61,0.14-1.37-0.26-1.89
		c-0.44-0.47-1.89-2.04-2.27-2.32c-0.56-0.43-1.26-0.28-1.62,0l-3.32,2.06c-1.02-0.74-2.01-1.33-3.18-1.89
		c-0.04-1.6-0.1-3.72-0.09-4c0.03-0.73-0.6-1.24-1.21-1.47c-0.62-0.17-2.68-0.75-3.15-0.79c-0.7-0.07-1.22,0.42-1.38,0.84
		l-1.68,3.35c-1.41-0.14-2.64-0.14-3.97-0.03C24.58,3.72,23.8,2.4,23.7,2.19c-0.33-0.65-1.13-0.79-1.78-0.7
		c-0.63,0.15-2.7,0.65-3.14,0.84c-0.65,0.28-0.86,0.96-0.79,1.41l0.17,3.9C17.05,8.16,15.99,8.78,15,9.47
		c-1.4-0.78-3.24-1.81-3.48-1.97c-0.62-0.4-1.37-0.12-1.88,0.29c-0.47,0.44-2.01,1.92-2.29,2.3c-0.42,0.57-0.26,1.27,0.02,1.62
		l2.11,3.29C8.93,15.79,8.44,16.62,8,17.47c-0.15,0.28-0.28,0.54-0.41,0.82C6,18.32,3.89,18.35,3.6,18.34
		c-0.72-0.03-1.24,0.59-1.48,1.2c-0.18,0.62-0.77,2.67-0.82,3.14c-0.08,0.7,0.41,1.22,0.83,1.38l3.48,1.78
		c-0.04,0.54-0.05,1.05-0.05,1.67c0,0.78,0.03,1.42,0.08,2.05c-1.37,0.83-3.17,1.92-3.42,2.05c-0.65,0.34-0.78,1.13-0.67,1.78
		c0.16,0.62,0.68,2.69,0.87,3.13c0.25,0.56,0.8,0.79,1.25,0.79c0.07,0,0.13,0,0.2-0.02l1.11-0.11c-0.02,0.15-0.02,0.29-0.01,0.41
		v4.25c0,1.58,1.29,2.87,2.87,2.87h9.85v2.94c0,1.58,1.29,2.87,2.87,2.87H35.1c1.58,0,2.87-1.29,2.87-2.87v-2.94h9.48
		c1.58,0,2.87-1.29,2.87-2.87v-4.25c0.02-0.16,0.02-0.35-0.02-0.55c0.48,0,0.92,0,1.09,0.01c0.75,0.04,1.25-0.57,1.5-1.18
		c0.19-0.61,0.81-2.66,0.87-3.13C53.85,32.07,53.37,31.54,52.95,31.37z M36.48,43.37v4.31c0,0.76-0.62,1.37-1.37,1.37H20.58
		c-0.76,0-1.37-0.62-1.37-1.37v-4.31c0-0.06,0-0.07-0.01-0.12c0-0.02-0.02-0.44,0.89-0.84c0.77-0.34,2.09-0.88,2.79-1.16
		c0.26,0.28,0.65,0.69,1.08,1.14c3.13,3.26,3.51,3.26,3.88,3.26c0.31,0,0.89,0,4.97-4.4c0.7,0.28,2.02,0.81,2.79,1.16
		c0.88,0.39,0.89,0.8,0.89,0.8c0,0,0,0,0,0C36.48,43.26,36.48,43.31,36.48,43.37z M48.83,37.55v4.31c0,0.76-0.62,1.37-1.37,1.37
		h-9.47c0-0.63-0.36-1.57-1.77-2.2c-1.11-0.5-3.24-1.34-3.33-1.37c-0.29-0.12-0.62-0.04-0.83,0.19c-1.57,1.7-3.48,3.65-4.21,4.2
		c-0.32-0.24-1.08-0.91-2.8-2.7c-0.79-0.82-1.41-1.5-1.41-1.5c-0.21-0.23-0.54-0.3-0.83-0.19c-0.09,0.04-2.22,0.88-3.33,1.37
		c-1.41,0.63-1.78,1.58-1.77,2.2H7.85c-0.76,0-1.37-0.62-1.37-1.37v-4.31c0-0.06,0-0.07-0.01-0.12c0-0.02-0.02-0.44,0.89-0.84
		c0.77-0.34,2.09-0.88,2.79-1.16c4.07,4.4,4.65,4.4,4.97,4.4s0.89,0,4.97-4.4c0.61,0.24,1.66,0.67,2.44,1.01
		c1,1.7,2.84,2.85,4.96,2.85c2.02,0,3.8-1.05,4.83-2.64c0.04-0.02,0.08-0.04,0.12-0.06c0.77-0.34,2.09-0.88,2.79-1.16
		c4.07,4.4,4.65,4.4,4.97,4.4s0.89,0,4.97-4.4c0.7,0.28,2.02,0.81,2.79,1.16c0.88,0.39,0.89,0.8,0.89,0.8c0,0,0,0,0,0
		C48.84,37.44,48.83,37.5,48.83,37.55z M23.23,33.54c0-2.34,1.91-4.25,4.25-4.25s4.25,1.91,4.25,4.25s-1.91,4.25-4.25,4.25
		S23.23,35.88,23.23,33.54z M51.49,35.39c-0.03,0.06-0.07,0.14-0.11,0.19c-0.49-0.02-1.66-0.01-2.18,0
		c-0.18-0.12-0.39-0.24-0.63-0.35c-1.11-0.5-3.24-1.34-3.33-1.37c-0.29-0.12-0.62-0.04-0.83,0.19c-1.57,1.71-3.49,3.65-4.21,4.2
		c-0.73-0.55-2.65-2.49-4.21-4.2c-0.21-0.23-0.54-0.3-0.83-0.19c-0.06,0.02-1.05,0.42-2.03,0.82c0.07-0.36,0.11-0.74,0.11-1.13
		c0-3.17-2.58-5.75-5.75-5.75s-5.75,2.58-5.75,5.75c0,0.33,0.03,0.66,0.09,0.98c-0.87-0.36-1.66-0.67-1.66-0.67
		c-0.29-0.12-0.62-0.04-0.83,0.19c-1.57,1.71-3.49,3.65-4.21,4.2c-0.73-0.55-2.65-2.49-4.21-4.2c-0.21-0.23-0.54-0.3-0.83-0.19
		c-0.09,0.04-2.22,0.88-3.33,1.37c-0.25,0.11-0.46,0.24-0.65,0.37l-2.33,0.23c-0.14-0.43-0.48-1.68-0.73-2.69
		c-0.01-0.07-0.01-0.16,0-0.22c0.68-0.38,3.48-2.09,3.81-2.29l0.41-0.25L7.2,29.88c-0.09-0.73-0.12-1.44-0.12-2.36
		c0-0.77,0.01-1.35,0.09-2.03l0.05-0.51l-4.4-2.25c0.09-0.44,0.43-1.7,0.72-2.7c0.03-0.06,0.07-0.14,0.11-0.19
		c0.78,0.02,4.06-0.06,4.45-0.07l0.48-0.01l0.19-0.44c0.18-0.42,0.35-0.77,0.56-1.17c0.48-0.93,1.04-1.84,1.65-2.68l0.3-0.41
		L8.63,10.9c0.3-0.33,1.23-1.25,1.99-1.97c0.03-0.03,0.12-0.08,0.19-0.1c0.67,0.4,3.53,1.99,3.88,2.19l0.42,0.23l0.39-0.28
		c1.16-0.85,2.42-1.57,3.74-2.17l0.47-0.21l-0.21-4.91c0.42-0.14,1.69-0.46,2.7-0.7c0.07-0.01,0.16-0.01,0.22,0
		c0.31,0.57,1.51,2.59,2.23,3.81l0.25,0.41l0.48-0.05c1.55-0.17,2.94-0.17,4.64,0.03l0.52,0.06l2.15-4.29
		c0.44,0.09,1.7,0.42,2.7,0.7c0.06,0.03,0.14,0.07,0.19,0.11c0,0.78,0.09,4.06,0.1,4.45l0.01,0.47l0.43,0.19
		c1.42,0.64,2.54,1.31,3.74,2.22l0.41,0.31l4.2-2.6c0.33,0.3,1.23,1.25,1.94,2.01c0.04,0.05,0.08,0.14,0.1,0.19
		c-0.41,0.65-2.09,3.44-2.29,3.78l-0.25,0.42l0.29,0.4c0.55,0.77,1.05,1.58,1.48,2.4c0.26,0.49,0.47,0.91,0.7,1.45l0.2,0.48
		l4.93-0.15c0.13,0.43,0.44,1.7,0.67,2.71c0.01,0.07,0,0.16-0.01,0.22c-0.71,0.36-3.74,2-3.88,2.07l-0.44,0.24l0.05,0.5
		c0.07,0.73,0.11,1.38,0.11,2c0,0.82-0.02,1.53-0.12,2.35l-0.06,0.51l4.36,2.31C52.15,33.14,51.79,34.39,51.49,35.39z"/>
</g>
<g>
	<path class="st0" d="M30.81,37.55"/>
</g>
</svg>
