<?xml version="1.0" encoding="UTF-8"?>
<svg width="25px" height="20px" viewBox="0 0 25 20" version="1.1" xmlns="http://www.w3.org/2000/svg" xmlns:xlink="http://www.w3.org/1999/xlink">
    <!-- Generator: Sketch 63.1 (92452) - https://sketch.com -->
    <title>Fill 3615</title>
    <desc>Created with Sketch.</desc>
    <g id="Symbols" stroke="none" stroke-width="1" fill="none" fill-rule="evenodd">
        <g id="Tile-/-Pages-Forms-Selected" transform="translate(-23.000000, -22.000000)" fill="#008CFF">
            <path d="M28.5,41.5 L28.5,36.5 L39.5,36.5 L39.5,41.5 L28.5,41.5 Z M34.5,35.5 L34.5,22.5 L39.5,22.5 L39.5,35.5 L34.5,35.5 Z M28.5,35.5 L28.5,22.5 L33.5,22.5 L33.5,35.5 L28.5,35.5 Z M45,41.5995371 L45,22.4004629 C45,21.0799769 43.9314395,20.012786 42.6246455,20.012786 L28.3744819,20 C27.0687786,20 26,21.0799769 26,22.4004629 L26,41.5995371 C26,42.9202436 27.0687786,44 28.3744819,44 L42.6246455,44 C43.9314395,44 45,42.9202436 45,41.5995371 L45,41.5995371 Z" id="Fill-3615" transform="translate(35.500000, 32.000000) rotate(-90.000000) translate(-35.500000, -32.000000) "></path>
        </g>
    </g>
</svg>
