<?xml version="1.0" encoding="UTF-8"?>
<svg width="19px" height="19px" viewBox="0 0 19 19" version="1.1" xmlns="http://www.w3.org/2000/svg" xmlns:xlink="http://www.w3.org/1999/xlink">
    <!-- Generator: Sketch 63.1 (92452) - https://sketch.com -->
    <title>Group 4</title>
    <desc>Created with Sketch.</desc>
    <g id="Symbols" stroke="none" stroke-width="1" fill="none" fill-rule="evenodd">
        <g id="Tile-/-Action" transform="translate(-18.000000, -23.000000)">
            <g id="Group-4" transform="translate(18.000000, 23.000000)">
                <path d="M9.49988892,0 C14.7468224,0 19,4.25297866 19,9.49944461 C19,14.7461327 14.7468224,19 9.49988892,19 C4.25317758,19 0,14.7461327 0,9.49944461 C0,4.25297866 4.25317758,0 9.49988892,0" id="Fill-3612" fill="#FF00FF" transform="translate(9.500000, 9.500000) rotate(-90.000000) translate(-9.500000, -9.500000) "></path>
                <path d="M10.4997212,5 L15.3230839,5 C15.8427461,5 16.1685289,5.52244947 15.9086978,5.93993193 L13.4965487,9.81330161 L11.0855689,13.6868882 C10.8257378,14.1043706 10.1751077,14.1043706 9.91527667,13.6868882 L7.50312756,9.81330161 L5.09191393,5.93993193 C4.8309135,5.52244947 5.15693016,5 5.67752779,5 L10.4997212,5 Z" id="Fill-3614" fill="#FFFFFF" transform="translate(10.500000, 9.500000) rotate(-90.000000) translate(-10.500000, -9.500000) "></path>
            </g>
        </g>
    </g>
</svg>