<!-- Generated by IcoMoon.io -->
<svg version="1.1" xmlns="http://www.w3.org/2000/svg" width="32" height="32" viewBox="0 0 32 32">
<title>401k</title>
<path d="M20.307 0.126c1.821 0 3.3 1.476 3.3 3.297 0 1.825-1.479 3.3-3.3 3.3s-3.297-1.475-3.297-3.3c0-1.821 1.476-3.297 3.297-3.297zM22.386 3.423c0-0.573-0.234-1.089-0.611-1.468-0.377-0.377-0.892-0.607-1.468-0.607-0.573 0-1.089 0.231-1.468 0.607-0.377 0.38-0.607 0.895-0.607 1.468 0 0.577 0.231 1.092 0.607 1.468 0.38 0.38 0.895 0.611 1.468 0.611 0.577 0 1.092-0.231 1.468-0.611 0.377-0.376 0.611-0.891 0.611-1.468zM28.41 20.904c-0.003 0.003-0.003 0.007-0.003 0.007h-0.003c0-0.003 0-0.003 0-0.007l-0.020 0.003 0.020 0.003c0 0.007 0 0.020 0 0.044 0 0.003 0 0.010 0.003 0.013-0.003 0.003 0 0.003 0 0.007 0.007 0.298 0.251 0.533 0.55 0.533 0.302 0 0.543-0.234 0.553-0.536 0-0.007 0-0.010 0-0.017 0-0.017 0-0.037-0.007-0.054 0-0.051-0.013-0.102-0.034-0.153 0-0.003-0.003-0.007-0.003-0.010-0.003-0.003-0.003-0.007-0.007-0.010-0.027-0.071-0.068-0.132-0.119-0.193-0.088-0.102-0.231-0.21-0.438-0.302-0.159 0.109-0.278 0.217-0.353 0.322-0.054 0.071-0.088 0.136-0.112 0.2 0 0.010-0.003 0.017-0.007 0.027-0.003 0.020-0.010 0.041-0.013 0.064-0.003 0.010-0.007 0.023-0.007 0.037 0 0.003 0 0.010 0 0.013-0.004 0-0.004 0.003-0.001 0.007zM5.234 9.637c0.861 0.088 1.628 0.292 2.279 0.648h0.003c0.658-0.268 1.353-0.464 2.072-0.58 0-0.010 0-0.020 0-0.031 0-2.551 2.069-4.616 4.62-4.616s4.62 2.066 4.62 4.616c0 0.010 0 0.024 0 0.034 4.443 0.723 7.879 4.42 8.205 8.982 0.377 0.013 0.743 0.041 1.085 0.088 0.234 0.034 0.461 0.078 0.675 0.132h0.003c0.668-0.295 1.472-0.444 2.34-0.444 0.339 0 0.611 0.271 0.611 0.61 0 0.336-0.271 0.611-0.611 0.611-0.298 0-0.59 0.023-0.858 0.064 0.112 0.132 0.207 0.282 0.278 0.444l0.017 0.037 0.017 0.041c0.020 0.048 0.037 0.095 0.051 0.146 0.007 0.007 0.007 0.010 0.007 0.017 0.031 0.105 0.054 0.214 0.068 0.326 0.007 0.020 0.007 0.041 0.007 0.064 0.007 0.041 0.007 0.085 0.007 0.129 0 0.007 0 0.013 0 0.020-0.007 0.482-0.2 0.919-0.519 1.235-0.319 0.322-0.766 0.523-1.255 0.519-0.957 0-1.743-0.76-1.771-1.716-0.003-0.020-0.003-0.037-0.003-0.057 0-0.051 0.003-0.095 0.007-0.132 0-0.010 0.003-0.020 0.003-0.031v-0.027c0.003-0.017 0.003-0.031 0.007-0.048 0.007-0.034 0.010-0.071 0.020-0.105 0.010-0.051 0.020-0.098 0.034-0.149 0.003-0.007 0.003-0.017 0.007-0.023s0.003-0.010 0.007-0.017c0.051-0.173 0.129-0.336 0.22-0.485-0.143-0.013-0.288-0.020-0.441-0.027-0.057 1.174-0.322 2.293-0.76 3.32-0.495 1.18-1.218 2.239-2.106 3.127-0.889 0.892-1.953 1.614-3.137 2.106l-0.807 2.958c-0.071 0.264-0.315 0.451-0.59 0.451h-3.649c-0.312 0-0.577-0.237-0.607-0.55l-0.21-2.086h-1.94l-0.21 2.086c-0.031 0.312-0.295 0.55-0.607 0.55h-3.65c-0.275 0-0.519-0.187-0.59-0.451l-0.804-2.947c-2.663-1.123-4.728-3.382-5.587-6.173h-1.18c-0.159 0-0.319-0.068-0.431-0.18-0.115-0.115-0.18-0.271-0.18-0.43v-4.569c0-0.159 0.064-0.319 0.18-0.431 0.112-0.115 0.271-0.18 0.431-0.18h1.18c0.214-0.702 0.505-1.367 0.861-1.991 0.434-0.76 0.966-1.451 1.584-2.066 0.214-0.217 0.438-0.417 0.672-0.611-0.010-0.092-0.024-0.18-0.037-0.268-0.064-0.428-0.166-0.817-0.285-1.099-0.031-0.075-0.048-0.149-0.048-0.231 0-0.020 0-0.044 0.003-0.064 0-0.004 0-0.004 0-0.007 0.003-0.037 0.013-0.075 0.024-0.109 0.007-0.020 0.013-0.041 0.020-0.061 0.010-0.017 0.017-0.034 0.027-0.051 0.013-0.031 0.031-0.057 0.054-0.085 0.020-0.031 0.048-0.057 0.075-0.082 0.013-0.013 0.027-0.024 0.044-0.037 0.013-0.010 0.027-0.020 0.044-0.031 0.027-0.017 0.061-0.031 0.088-0.044 0.003 0 0.003-0.004 0.007-0.004 0.034-0.013 0.071-0.024 0.105-0.031 0.031-0.007 0.061-0.010 0.095-0.010 0.027-0.004 0.057-0.004 0.085 0 0.007 0.001 0.017 0.001 0.024 0.005zM2.429 21.108c0.017 0.007 0.034 0.013 0.054 0.020 0.041 0.013 0.078 0.037 0.115 0.064 0.017 0.010 0.034 0.020 0.048 0.037 0.017 0.013 0.034 0.027 0.048 0.044 0.023 0.023 0.044 0.051 0.064 0.078 0.017 0.020 0.031 0.044 0.041 0.071 0.007 0.010 0.010 0.020 0.013 0.031 0.013 0.027 0.023 0.054 0.031 0.085 0.692 2.707 2.666 4.908 5.24 5.902 0.004 0 0.007 0.003 0.010 0.003s0.004 0.003 0.007 0.003c0.020 0.007 0.041 0.017 0.061 0.027 0.004 0.003 0.010 0.003 0.013 0.007 0.013 0.007 0.027 0.013 0.044 0.027 0.004 0.003 0.010 0.007 0.013 0.010 0.020 0.010 0.041 0.023 0.057 0.044 0.013 0.010 0.027 0.023 0.037 0.037 0.048 0.048 0.085 0.102 0.112 0.163 0.013 0.023 0.024 0.051 0.031 0.082 0.007 0.017 0.010 0.034 0.013 0.051l0.753 2.757h2.632l0.207-2.086c0-0.013 0.004-0.023 0.007-0.037 0-0.017 0.004-0.034 0.010-0.051 0.004-0.020 0.010-0.037 0.017-0.054 0.004-0.017 0.010-0.034 0.020-0.051 0.013-0.031 0.027-0.057 0.048-0.085 0.010-0.017 0.024-0.034 0.034-0.048 0.013-0.017 0.027-0.031 0.041-0.044s0.027-0.027 0.044-0.041c0.013-0.013 0.031-0.023 0.048-0.034 0.031-0.020 0.064-0.041 0.098-0.054l0.004-0.003c0.037-0.013 0.075-0.027 0.115-0.034 0.013-0.003 0.024-0.007 0.037-0.007 0.027-0.007 0.057-0.007 0.085-0.007h3.053c0.031 0 0.057 0.003 0.088 0.007 0.010 0 0.024 0.003 0.034 0.007 0.041 0.007 0.078 0.020 0.115 0.034l0.004 0.003c0.034 0.013 0.068 0.034 0.098 0.054 0.017 0.010 0.034 0.020 0.048 0.034 0.017 0.013 0.031 0.027 0.044 0.041s0.027 0.027 0.041 0.044c0.010 0.013 0.023 0.031 0.034 0.048 0.020 0.027 0.034 0.054 0.048 0.085 0.010 0.017 0.017 0.034 0.020 0.051 0.007 0.017 0.013 0.034 0.017 0.054 0.007 0.017 0.010 0.034 0.010 0.051 0 0.003 0 0.007 0 0.010 0.003 0.010 0.007 0.017 0.007 0.027l0.207 2.086h2.632l0.76-2.781c0-0.007 0-0.010 0.003-0.013 0.010-0.034 0.020-0.068 0.037-0.098 0.013-0.027 0.027-0.054 0.044-0.082 0.003-0.003 0.007-0.010 0.010-0.013 0.017-0.023 0.034-0.048 0.057-0.068 0.017-0.020 0.037-0.037 0.057-0.051 0.007-0.007 0.013-0.013 0.020-0.017 0.003-0.003 0.007-0.007 0.010-0.007 0.017-0.013 0.034-0.023 0.051-0.034 0.003-0.003 0.007-0.003 0.010-0.007 0.007-0.003 0.010-0.007 0.017-0.010 0.017-0.007 0.034-0.017 0.054-0.023 0.003 0 0.007-0.003 0.010-0.003 1.133-0.434 2.154-1.106 2.992-1.947l0.003-0.003c1.56-1.56 2.52-3.708 2.52-6.088 0.003-4.27-3.107-7.811-7.18-8.49-0.132 0.478-0.339 0.926-0.611 1.326 0.302 0.034 0.536 0.288 0.536 0.604 0 0.336-0.271 0.611-0.61 0.611h-7.532c-0.336 0-0.611-0.275-0.611-0.611 0-0.312 0.234-0.57 0.536-0.604-0.271-0.4-0.478-0.848-0.611-1.326-0.39 0.064-0.766 0.156-1.133 0.268 0.177 0.207 0.332 0.434 0.458 0.682 0.237 0.451 0.39 0.966 0.468 1.53 0.044 0.336-0.19 0.641-0.526 0.689-0.336 0.044-0.641-0.193-0.685-0.526-0.061-0.448-0.177-0.817-0.339-1.13-0.163-0.309-0.366-0.56-0.628-0.773-0.064-0.054-0.132-0.105-0.204-0.153-0.013-0.007-0.027-0.017-0.041-0.024 0 0-0.003 0-0.003-0.004-0.305-0.2-0.678-0.356-1.116-0.464 0.024 0.122 0.048 0.248 0.068 0.377 0.031 0.2 0.054 0.41 0.071 0.614 0 0.004 0 0.004 0 0.007 0.007 0.034 0.010 0.071 0.010 0.105 0.024 0.268 0.034 0.536 0.034 0.797-0.003 0.478-0.034 0.939-0.105 1.353-0.057 0.332-0.373 0.556-0.705 0.498-0.332-0.054-0.556-0.37-0.498-0.702 0.031-0.18 0.054-0.377 0.068-0.59-1.004 1.048-1.74 2.354-2.11 3.805-0.005 0.030-0.015 0.057-0.029 0.084-0.013 0.037-0.034 0.071-0.054 0.102s-0.041 0.054-0.064 0.078c-0.010 0.013-0.023 0.027-0.037 0.037-0.017 0.017-0.041 0.034-0.061 0.048-0.004 0.006-0.010 0.006-0.014 0.006-0.023 0.017-0.048 0.031-0.075 0.044-0.003 0-0.003 0.003-0.007 0.003-0.010 0.007-0.027 0.010-0.041 0.013-0.003 0.003-0.007 0.003-0.013 0.007-0.023 0.010-0.048 0.017-0.075 0.020-0.040 0.010-0.081 0.014-0.122 0.014h-1.027v3.348h1.028c0.023 0 0.044 0 0.068 0.003 0.017 0.003 0.037 0.007 0.054 0.010 0.021 0.002 0.037 0.006 0.058 0.012zM17.573 10.142c0.023-0.149 0.034-0.305 0.034-0.468 0-0.939-0.38-1.784-0.994-2.401-0.617-0.617-1.462-0.994-2.405-0.994-0.939 0-1.787 0.377-2.405 0.994-0.614 0.617-0.994 1.462-0.994 2.401 0 0.163 0.010 0.319 0.034 0.468v0.007c0.004 0.007 0.004 0.013 0.004 0.020 0.115 0.825 0.533 1.55 1.133 2.066h4.457c0.597-0.516 1.014-1.238 1.133-2.062 0-0.007 0.003-0.017 0.003-0.024v-0.007h-0.002z"></path>
</svg>
