<!-- Generated by IcoMoon.io -->
<svg version="1.1" xmlns="http://www.w3.org/2000/svg" width="32" height="32" viewBox="0 0 32 32">
<title>accelerate</title>
<path d="M31.155 14.026l-16.173-13.098c-0.389-0.317-0.89-0.509-1.437-0.509-1.26 0-2.282 1.022-2.282 2.282 0 0 0 0 0 0v-0 1.642l1.28 1.050v-2.691c-0-0.003-0-0.006-0-0.010 0-0.391 0.234-0.728 0.57-0.877l0.006-0.002c0.124-0.063 0.271-0.1 0.426-0.1 0.236 0 0.451 0.085 0.618 0.226l-0.001-0.001 16.176 13.104c0.221 0.182 0.36 0.456 0.36 0.762s-0.139 0.579-0.358 0.76l-0.002 0.001-16.163 13.491c-0.167 0.136-0.383 0.218-0.618 0.218-0.54 0-0.977-0.435-0.982-0.973v-2.813l-1.28 1.082v1.731c0.017 1.245 1.030 2.248 2.278 2.248 0.545 0 1.046-0.192 1.438-0.511l-0.004 0.003 16.173-13.488c0.5-0.422 0.815-1.049 0.815-1.749 0-0.712-0.326-1.348-0.837-1.767l-0.004-0.003zM2.288 31.584c-0.349-0.002-0.679-0.082-0.974-0.224l0.014 0.006c-0.79-0.364-1.328-1.148-1.328-2.058 0-0.003 0-0.006 0-0.009v0-26.598c0-0 0-0 0-0 0-1.26 1.022-2.282 2.282-2.282 0.546 0 1.048 0.192 1.441 0.512l-0.004-0.003 16.173 13.098c0.515 0.422 0.841 1.058 0.841 1.771 0 0.701-0.315 1.327-0.812 1.747l-0.003 0.003-16.173 13.494c-0.389 0.335-0.898 0.54-1.455 0.544h-0.001zM2.288 1.712c-0 0-0 0-0 0-0.156 0-0.304 0.037-0.434 0.102l0.006-0.003c-0.335 0.155-0.563 0.488-0.563 0.874 0 0.005 0 0.011 0 0.016v-0.001 26.598c-0 0.005-0 0.010-0 0.016 0 0.389 0.231 0.724 0.564 0.875l0.006 0.002c0.123 0.061 0.268 0.097 0.421 0.097 0.241 0 0.461-0.089 0.63-0.236l-0.001 0.001 16.17-13.498c0.221-0.182 0.36-0.456 0.36-0.762s-0.139-0.579-0.358-0.76l-0.002-0.001-16.182-13.098c-0.165-0.139-0.38-0.224-0.614-0.224h-0z"></path>
</svg>
