<!-- Generated by IcoMoon.io -->
<svg version="1.1" xmlns="http://www.w3.org/2000/svg" width="32" height="32" viewBox="0 0 32 32">
<title>access</title>
<path d="M19.947 21.237c0.106 0.106 0.106 0.278 0 0.384l-0.271 0.271c-0.106 0.106-0.278 0.106-0.384 0l-1.078-1.078-1.078 1.078c-0.106 0.106-0.278 0.106-0.384 0l-0.271-0.271c-0.106-0.106-0.106-0.278 0-0.384l1.078-1.078-1.078-1.078c-0.106-0.106-0.106-0.278 0-0.384l0.271-0.271c0.106-0.106 0.278-0.106 0.384 0l1.078 1.078 1.078-1.078c0.106-0.106 0.278-0.106 0.384 0l0.271 0.271c0.106 0.106 0.106 0.278 0 0.384l-1.078 1.078 1.078 1.078zM18.3 10.937c1.408 0 2.554 1.146 2.554 2.554s-1.146 2.554-2.554 2.554c-0.962 0-1.801-0.535-2.236-1.323h1.039c0.31 0.301 0.732 0.489 1.197 0.489 0.948 0 1.72-0.772 1.72-1.72s-0.772-1.72-1.72-1.72c-0.543 0-1.022 0.258-1.338 0.652h-0.979c0.406-0.876 1.291-1.486 2.317-1.486zM31.556 13.238l-2.117-1.431c-0.187-0.126-0.439 0.008-0.439 0.233v1.125h-2.536v-3.286c0-0.405-0.321-0.734-0.729-0.747-3.783-0.121-6.361-2.422-7.061-3.124-0.144-0.145-0.341-0.223-0.545-0.222-0.203 0.003-0.391 0.086-0.53 0.235-0.687 0.732-3.244 3.117-7.322 3.117-0.111 0-0.217 0.044-0.295 0.123-0.037 0.037-0.065 0.065-0.084 0.223 0.292 0.142 0.574 0.302 0.844 0.478 4.029-0.168 6.604-2.475 7.402-3.305 0.829 0.815 3.541 3.152 7.487 3.307v7.046c-0.001 0.037-0.143 3.7-2.647 5.943-2.488 2.229-4.233 3.102-4.822 3.36-0.551-0.24-2.306-1.107-4.82-3.36-0.373-0.334-0.691-0.701-0.965-1.082-0.188 0.212-0.386 0.415-0.595 0.606 0.289 0.383 0.62 0.754 1.004 1.097 2.865 2.567 4.83 3.421 5.195 3.566 0.001 0 0.030 0.012 0.030 0.012 0.042 0.016 0.091 0.024 0.141 0.024 0.067 0 0.137-0.013 0.193-0.036 0.365-0.145 2.331-1.001 5.195-3.566 2.776-2.487 2.92-6.376 2.925-6.552v-3.023h2.536v1.023c0 0.23 0.262 0.363 0.447 0.227l2.117-1.551c0.157-0.115 0.153-0.351-0.008-0.46zM18.349 13.131h-7.26c-1.074-1.498-2.826-2.476-4.806-2.476-3.264 0-5.919 2.655-5.919 5.919s2.655 5.919 5.919 5.919c1.72 0 3.268-0.739 4.348-1.915h5.236c0.23 0 0.417-0.187 0.417-0.417s-0.186-0.417-0.417-0.417h-4.596c0.522-0.82 0.849-1.777 0.912-2.804l-0.005-0.834c-0.060-0.763-0.265-1.486-0.588-2.141h6.759c0.23 0 0.417-0.187 0.417-0.417s-0.186-0.417-0.417-0.417zM9.862 20.185c-0.834-0.675-1.74-0.98-1.953-1.043-0.648-0.543-0.385-1.148 0.088-2.004 0.071-0.13 0.141-0.256 0.203-0.378 0.351-0.702 0.29-1.146 0.237-1.324 0.137-0.504 0.258-1.905-0.449-2.668-0.421-0.454-1.037-0.586-1.836-0.393-0.842 0.005-1.454 0.266-1.821 0.774-0.632 0.877-0.3 2.19-0.209 2.498-0.178 0.632 0.185 1.069 0.261 1.153 0.086 0.119 1.050 1.502 0.243 2.357l-0.276 0.122c-0.726 0.321-1.258 0.558-1.698 0.853-0.899-0.917-1.455-2.172-1.455-3.557 0-2.809 2.277-5.085 5.085-5.085s5.085 2.277 5.085 5.085c0 1.413-0.576 2.69-1.506 3.612z"></path>
</svg>
