<!-- Generated by IcoMoon.io -->
<svg version="1.1" xmlns="http://www.w3.org/2000/svg" width="32" height="32" viewBox="0 0 32 32">
<title>access-management</title>
<path d="M25.58 12.185l0.065-0.062c1.4-1.33 2.171-3.119 2.171-5.038 0-3.837-3.122-6.959-6.959-6.959s-6.959 3.122-6.959 6.959c0 0.237 0.193 0.43 0.43 0.43s0.43-0.193 0.43-0.43c0-3.363 2.736-6.098 6.099-6.098s6.098 2.736 6.098 6.098c0 1.635-0.649 3.173-1.828 4.332l-0.079 0.078-0.076-0.081c-1.084-1.155-2.545-1.791-4.115-1.791-0.387 0-0.777 0.041-1.159 0.121l-0.053 0.011-0.041-0.036c-1.031-0.905-2.352-1.404-3.719-1.404-1.509 0-2.928 0.588-3.995 1.655-1.57 1.57-2.073 3.839-1.313 5.922l0.024 0.065-1.096 1.095c-0.081 0.082-0.126 0.19-0.126 0.304l0 1.454-1.433-0.017c-0.107-0.005-0.224 0.040-0.31 0.126l-0.583 0.583c-0.082 0.081-0.126 0.189-0.126 0.304v1.467l-1.466 0.003c-0.112 0-0.223 0.046-0.303 0.126l-1.098 1.095c-0.085 0.084-0.131 0.202-0.126 0.322l0.104 2.619c0.009 0.226 0.193 0.408 0.419 0.413l2.58 0.066c0.125 0 0.235-0.046 0.315-0.126l6.541-6.541 0.065 0.024c0.987 0.36 2.052 0.437 3.079 0.224l0.053-0.011 0.041 0.036c0.402 0.35 0.851 0.642 1.334 0.867l0.063 0.029v1.549c0 0.113 0.046 0.224 0.126 0.304l1.029 1.028-1.026 1.001c-0.083 0.081-0.13 0.193-0.13 0.308v0.824c0 0.115 0.045 0.223 0.126 0.305l1.038 1.037-1.035 1.039c-0.080 0.080-0.125 0.19-0.125 0.303l-0.002 1.551c-0 0.12 0.050 0.235 0.138 0.317l1.925 1.778c0.16 0.149 0.429 0.147 0.588-0.004l1.871-1.778c0.085-0.081 0.133-0.195 0.133-0.312v-9.252l0.063-0.029c2.010-0.936 3.259-2.896 3.259-5.116 0-1.064-0.304-2.106-0.879-3.014l-0.049-0.076zM16.194 18.741c-0.778 0.050-1.527-0.083-2.231-0.391-0.161-0.071-0.353-0.034-0.477 0.090l-6.612 6.612-1.993-0.051-0.081-2.027 0.839-0.837 1.718-0.003c0.237-0.001 0.429-0.194 0.429-0.43v-1.718l0.329-0.329 1.688 0.021c0.105 0.005 0.224-0.041 0.308-0.124 0.083-0.081 0.128-0.19 0.128-0.306v-1.712l1.171-1.172c0.127-0.126 0.162-0.313 0.090-0.477-0.797-1.822-0.406-3.905 0.998-5.308 1.594-1.594 4.121-1.855 6.008-0.62l0.164 0.108-0.178 0.083c-1.996 0.925-3.287 2.936-3.287 5.125 0 1.184 0.37 2.324 1.070 3.294l0.116 0.16-0.197 0.013zM22.507 19.784c-0.107 0.070-0.183 0.204-0.183 0.349v9.352l-1.445 1.373-1.491-1.377 0.001-1.185 1.213-1.217c0.167-0.168 0.167-0.441-0.001-0.608l-1.215-1.215v-0.465l1.209-1.179c0.082-0.080 0.129-0.191 0.13-0.305s-0.045-0.227-0.126-0.307l-1.211-1.21v-1.658c0-0.153-0.087-0.296-0.228-0.373-0.975-0.367-1.826-1.070-2.382-1.973-0.152-0.248-0.279-0.503-0.381-0.763l-0.009-0.026c-0.106-0.28-0.184-0.551-0.235-0.819l-0.006-0.039c-0.055-0.301-0.081-0.583-0.081-0.861 0-0.213 0.018-0.435 0.056-0.699 0.009-0.058 0.014-0.098 0.021-0.138 0.041-0.23 0.095-0.447 0.16-0.648l0.029-0.079c0.069-0.199 0.152-0.397 0.247-0.587l0.030-0.062c0.101-0.195 0.223-0.391 0.361-0.584l0.025-0.033c0.294-0.397 0.631-0.736 1.013-1.020 0.841-0.623 1.826-0.95 2.857-0.95 1.304 0 2.524 0.516 3.437 1.453l0.090 0.093-0.107 0.073c-0.468 0.32-0.92 0.557-1.382 0.722l-0.098 0.035-0.040-0.096c-0.322-0.777-1.071-1.279-1.909-1.279-1.14 0-2.067 0.927-2.067 2.067s0.927 2.067 2.067 2.067c1.035 0 1.912-0.78 2.041-1.813l0.009-0.069 0.066-0.021c0.654-0.21 1.278-0.519 1.854-0.922l0.096-0.066 0.060 0.101c0.445 0.746 0.681 1.595 0.681 2.455-0 2.005-1.268 3.815-3.156 4.504zM19.916 13.973c0.715 0.097 1.163 0.097 1.879 0l0.216-0.030-0.106 0.191c-0.214 0.384-0.617 0.622-1.049 0.622s-0.835-0.238-1.050-0.622l-0.107-0.191 0.217 0.030zM19.74 13.076l0.082-0.138c0.221-0.372 0.608-0.595 1.035-0.595s0.813 0.222 1.034 0.595l0.082 0.138-0.159 0.025c-0.35 0.056-0.663 0.083-0.958 0.083-0.291 0-0.605-0.027-0.958-0.082l-0.158-0.025z"></path>
</svg>
