<!-- Generated by IcoMoon.io -->
<svg version="1.1" xmlns="http://www.w3.org/2000/svg" width="32" height="32" viewBox="0 0 32 32">
<title>access-broker</title>
<path d="M10.687 6.55c5.358 0 9.702 4.344 9.702 9.702s-4.343 9.702-9.702 9.702-9.702-4.344-9.702-9.702 4.344-9.702 9.702-9.702zM10.687 5.564c-5.893 0-10.687 4.794-10.687 10.687s4.794 10.687 10.687 10.687 10.687-4.795 10.687-10.687-4.794-10.687-10.687-10.687v0zM17.271 15.281l0.001-0.004-1.705-0.487c-0.099-0.328-0.232-0.641-0.392-0.938l0.864-1.554-0.004-0.002c0.050-0.090 0.041-0.205-0.036-0.282l-1.009-1.009c-0.077-0.077-0.191-0.086-0.282-0.036l-0.002-0.004-1.553 0.863c-0.297-0.161-0.61-0.295-0.939-0.393l-0.487-1.703-0.004 0.001c-0.029-0.099-0.116-0.174-0.225-0.174h-1.427c-0.109 0-0.196 0.074-0.225 0.174l-0.004-0.001-0.486 1.703c-0.312 0.093-0.61 0.219-0.893 0.369l-1.578-0.859-0.002 0.004c-0.091-0.049-0.208-0.038-0.287 0.042l-1.042 1.042c-0.079 0.079-0.091 0.196-0.042 0.287l-0.003 0.002 0.86 1.579c-0.141 0.267-0.261 0.547-0.352 0.841l-1.72 0.507 0.001 0.004c-0.099 0.029-0.174 0.12-0.174 0.232v1.473c0 0.112 0.074 0.203 0.174 0.232l-0.001 0.004 1.72 0.507c0.091 0.293 0.211 0.573 0.352 0.841l-0.86 1.579 0.003 0.002c-0.050 0.091-0.038 0.208 0.042 0.287l1.042 1.042c0.079 0.079 0.196 0.091 0.287 0.041l0.002 0.003 1.576-0.858c0.269 0.142 0.55 0.263 0.845 0.355l0.506 1.716 0.004-0.001c0.029 0.099 0.12 0.174 0.232 0.174h1.473c0.112 0 0.203-0.074 0.232-0.174l0.004 0.001 0.506-1.715c0.312-0.097 0.609-0.226 0.891-0.38l1.551 0.862 0.002-0.003c0.090 0.050 0.205 0.040 0.282-0.036l1.009-1.009c0.077-0.076 0.086-0.191 0.036-0.282l0.004-0.002-0.863-1.554c0.16-0.296 0.293-0.609 0.392-0.938l1.705-0.487-0.001-0.004c0.099-0.028 0.174-0.116 0.174-0.225v-1.427c-0-0.109-0.074-0.197-0.174-0.225zM12.527 17.962c-2.545 1.938-5.422-0.938-3.485-3.484 2.546-1.941 5.425 0.938 3.485 3.484zM28.462 18.85c0.111 0.11 0.257 0.165 0.403 0.165s0.292-0.055 0.404-0.166l2.314-2.314c0.22-0.223 0.22-0.584 0-0.806 0-0.001-0.001-0.001-0.001-0.001l-2.314-2.314c-0.223-0.22-0.584-0.22-0.808 0.002-0.22 0.223-0.22 0.584 0.001 0.807l1.338 1.338h-7.357c0.011 0.213 0.018 0.428 0.018 0.644 0 0.167-0.006 0.333-0.013 0.498h7.351l-1.338 1.338c-0.22 0.222-0.22 0.583 0.003 0.808zM27.681 7.58l-0.683 1.762c-0.056 0.143-0.053 0.298 0.009 0.438s0.175 0.248 0.315 0.302c0.143 0.056 0.298 0.053 0.438-0.009s0.248-0.175 0.302-0.317l1.182-3.051c0.113-0.294-0.034-0.624-0.327-0.737l-3.049-1.182c-0.143-0.055-0.298-0.053-0.438 0.010-0.139 0.062-0.246 0.174-0.303 0.317-0.055 0.142-0.051 0.297 0.010 0.436s0.175 0.247 0.317 0.302l1.764 0.683-6.819 3.011c0.217 0.317 0.419 0.644 0.605 0.982l6.677-2.948zM27.22 25.466l-1.763 0.683c-0.142 0.055-0.255 0.161-0.317 0.301s-0.066 0.295-0.010 0.439c0.088 0.226 0.305 0.364 0.534 0.364 0.069 0 0.138-0.012 0.205-0.039l3.051-1.181c0.292-0.114 0.438-0.445 0.325-0.74l-1.181-3.048c-0.055-0.142-0.161-0.255-0.301-0.317s-0.296-0.066-0.439-0.010c-0.294 0.115-0.44 0.446-0.325 0.74l0.683 1.763-6.502-2.871c-0.174 0.343-0.365 0.675-0.571 0.997l6.611 2.919z"></path>
</svg>
