<!-- Generated by IcoMoon.io -->
<svg version="1.1" xmlns="http://www.w3.org/2000/svg" width="32" height="32" viewBox="0 0 32 32">
<title>access-everything</title>
<path d="M27.606 4.554c-0.001 0.012-0.002 0.026-0.002 0.041 0 0.285 0.231 0.515 0.515 0.515s0.515-0.231 0.515-0.515c0-0.014-0.001-0.028-0.002-0.042l0 0.002v-4.038c0-0.285-0.231-0.515-0.515-0.515v0h-4.038c-0.012-0.001-0.026-0.002-0.041-0.002-0.285 0-0.515 0.231-0.515 0.515s0.231 0.515 0.515 0.515c0.014 0 0.028-0.001 0.042-0.002l-0.002 0h2.8l-3.050 3.050-0.112-0.090c-0.995-0.805-2.277-1.293-3.672-1.293-1.067 0-2.067 0.285-2.929 0.783l0.028-0.015-0.106 0.061-2.493-2.496h2.8c0.267-0.022 0.475-0.243 0.475-0.514s-0.208-0.492-0.473-0.513l-0.002-0h-4.042c-0.069 0-0.135 0.015-0.195 0.040l0.003-0.001c-0.059 0.028-0.11 0.063-0.154 0.106l0-0c-0.054 0.048-0.097 0.107-0.127 0.173l-0.001 0.003c-0.023 0.057-0.037 0.123-0.038 0.191v4.042c-0.001 0.012-0.002 0.026-0.002 0.041 0 0.285 0.231 0.515 0.515 0.515s0.515-0.231 0.515-0.515c0-0.014-0.001-0.028-0.002-0.042l0 0.002v-2.797l2.374 2.374-0.122 0.112c-0.583 0.529-1.056 1.167-1.39 1.884l-0.015 0.036c-0.038 0.070-0.060 0.153-0.060 0.241 0 0.285 0.231 0.515 0.515 0.515 0.219 0 0.407-0.137 0.481-0.33l0.001-0.004c0.78-1.71 2.474-2.877 4.442-2.877 2.688 0 4.867 2.179 4.867 4.867 0 1.967-1.167 3.662-2.846 4.429l-0.030 0.012c-0.124 0.057-0.22 0.159-0.268 0.284l-0.001 0.004c-0.025 0.058-0.039 0.125-0.039 0.195s0.015 0.138 0.041 0.198l-0.001-0.003c0.087 0.179 0.268 0.301 0.477 0.301 0.074 0 0.145-0.015 0.209-0.043l-0.003 0.001c0.753-0.349 1.391-0.822 1.916-1.4l0.004-0.005 0.112-0.122 2.397 2.384h-2.8c-0.012-0.001-0.026-0.002-0.041-0.002-0.285 0-0.515 0.231-0.515 0.515s0.231 0.515 0.515 0.515c0.014 0 0.028-0.001 0.042-0.002l-0.002 0h4.038c0.068-0.001 0.133-0.014 0.193-0.037l-0.004 0.001c0.049-0.020 0.091-0.045 0.129-0.075l-0.001 0.001v-0.086h0.090c0.027-0.036 0.050-0.077 0.069-0.121l0.001-0.004c0.024-0.057 0.038-0.123 0.038-0.192v-4.042c-0.022-0.267-0.243-0.475-0.514-0.475s-0.492 0.208-0.513 0.473l-0 0.002v2.794l-2.496-2.493 0.061-0.106c0.48-0.831 0.763-1.829 0.763-2.892 0-1.396-0.488-2.678-1.303-3.685l0.009 0.011-0.083-0.115 3.050-3.050zM22.102 21.027l-0.227-0.064 0.144-0.186c0.309-0.402 0.495-0.912 0.495-1.466 0-1.1-0.734-2.028-1.738-2.322l-0.017-0.004-0.227-0.064 0.144-0.186c0.305-0.402 0.489-0.91 0.489-1.462 0-0.67-0.271-1.277-0.71-1.716l0 0c-0.276-0.276-0.62-0.485-1.004-0.6l-0.017-0.004-0.256-0.077 2.582-2.576c0.437-0.438 0.708-1.043 0.708-1.71 0-1.337-1.084-2.421-2.421-2.421-0.669 0-1.275 0.272-1.714 0.711l-9.373 9.389-0.902-5.76c-0.21-1.385-1.389-2.436-2.815-2.442h-0.001c-1.026 0.002-1.857 0.833-1.859 1.859v12.711c0 0.003 0 0.007 0 0.011 0 1.996 0.811 3.803 2.121 5.109l0 0 2.118 2.115c1.31 1.309 3.119 2.118 5.117 2.118 1.874 0 3.582-0.712 4.867-1.88l-0.006 0.005 5.562-5.062c0.435-0.438 0.704-1.041 0.704-1.707s-0.269-1.269-0.704-1.707l0 0c-0.285-0.285-0.643-0.497-1.043-0.607l-0.017-0.004zM22.451 24.32v0l-5.546 5.037c-1.1 1.006-2.571 1.622-4.186 1.622-1.719 0-3.275-0.698-4.4-1.827l-2.119-2.119c-1.125-1.119-1.821-2.668-1.821-4.379 0-0.006 0-0.013 0-0.019v0.001-12.698c0.002-0.459 0.373-0.83 0.832-0.832h0c0.005-0 0.010-0 0.016-0 0.918 0 1.679 0.676 1.81 1.558l0.001 0.010 1.062 6.749c0.038 0.249 0.25 0.437 0.506 0.437 0.142 0 0.271-0.058 0.364-0.152l0-0 10.086-10.102c0.246-0.225 0.576-0.363 0.938-0.363 0.769 0 1.392 0.623 1.392 1.392 0 0.361-0.137 0.69-0.363 0.937l0.001-0.001-6.739 6.749c-0.091 0.094-0.147 0.222-0.147 0.363s0.056 0.269 0.147 0.363l-0-0c0.095 0.089 0.223 0.144 0.363 0.144s0.268-0.055 0.363-0.144l-0 0 2.752-2.752c0.252-0.252 0.6-0.407 0.984-0.407s0.732 0.156 0.984 0.407v0c0.246 0.246 0.399 0.585 0.403 0.959v0.001c0 0.001 0 0.003 0 0.004 0 0.382-0.154 0.727-0.403 0.979l0-0-2.752 2.749c-0.093 0.094-0.15 0.223-0.15 0.365v0c0 0 0 0 0 0 0 0.141 0.058 0.269 0.15 0.361l0 0c0.093 0.094 0.222 0.151 0.365 0.151s0.272-0.058 0.365-0.151v0l1.405-1.405c0.252-0.251 0.599-0.406 0.982-0.406s0.731 0.155 0.982 0.406l-0-0c0.251 0.25 0.407 0.597 0.407 0.979s-0.155 0.729-0.407 0.979l-1.386 1.386-0.029 0.067h-0.032c-0.067 0.086-0.107 0.196-0.107 0.315 0 0.141 0.057 0.27 0.149 0.363l-0-0c0.093 0.093 0.221 0.151 0.363 0.151s0.27-0.058 0.363-0.151l0.058-0.058c0.254-0.247 0.601-0.4 0.984-0.4s0.73 0.152 0.984 0.4l-0-0c0.262 0.253 0.425 0.608 0.425 1.001 0 0.382-0.154 0.728-0.403 0.979l0-0z"></path>
</svg>
