<!-- Generated by IcoMoon.io -->
<svg version="1.1" xmlns="http://www.w3.org/2000/svg" width="32" height="32" viewBox="0 0 32 32">
<title>account-provisioning</title>
<path d="M15.874 0.126c-8.753 0-15.874 7.121-15.874 15.874s7.121 15.874 15.874 15.874 15.874-7.121 15.874-15.874-7.121-15.874-15.874-15.874zM15.874 30.531c-8.012 0-14.531-6.519-14.531-14.531s6.519-14.531 14.531-14.531c8.013 0 14.531 6.519 14.531 14.531s-6.519 14.531-14.531 14.531zM23.43 8.032c-0.137-0.138-0.321-0.213-0.516-0.213s-0.378 0.076-0.516 0.213l-14.298 14.297c-0.138 0.138-0.214 0.321-0.214 0.516s0.076 0.378 0.214 0.516c0.275 0.275 0.757 0.275 1.031 0l14.298-14.297c0.284-0.284 0.284-0.748 0-1.032zM9.514 14.136c0 0.509 0.414 0.922 0.922 0.922s0.923-0.414 0.923-0.922v-2.587h2.587c0.509 0 0.923-0.414 0.923-0.922s-0.414-0.922-0.923-0.922h-2.587v-2.587c0-0.509-0.414-0.922-0.923-0.922s-0.922 0.414-0.922 0.922v2.587h-2.587c-0.509 0-0.922 0.414-0.922 0.922s0.414 0.922 0.922 0.922h2.587v2.587zM25.254 19.674h-7.019c-0.509 0-0.923 0.414-0.923 0.922s0.414 0.923 0.923 0.923h7.019c0.509 0 0.922-0.414 0.922-0.923s-0.414-0.922-0.922-0.922z"></path>
</svg>
