<!-- Generated by IcoMoon.io -->
<svg version="1.1" xmlns="http://www.w3.org/2000/svg" width="32" height="32" viewBox="0 0 32 32">
<title>account-credentials</title>
<path d="M25.16 18.367c3.187 0 5.771 2.584 5.771 5.771s-2.584 5.771-5.771 5.771c-3.187 0-5.771-2.584-5.771-5.771s2.584-5.771 5.771-5.771zM25.16 17.551c-3.633 0-6.588 2.955-6.588 6.588s2.955 6.588 6.588 6.588c3.633 0 6.588-2.955 6.588-6.588s-2.955-6.588-6.588-6.588v0zM18.032 21.543c-0.027-0.008-0.069-0.022-0.090-0.029-1.581-1.325-0.941-2.802 0.215-4.89 0.174-0.317 0.345-0.625 0.494-0.923 0.857-1.713 0.706-2.796 0.578-3.233 0.333-1.231 0.629-4.649-1.096-6.512-1.027-1.109-2.533-1.43-4.481-0.959-2.054 0.013-3.548 0.648-4.443 1.89-1.543 2.14-0.731 5.344-0.509 6.096-0.434 1.543 0.45 2.611 0.636 2.813 0.21 0.291 2.563 3.665 0.594 5.752l-0.673 0.297c-2.035 0.9-3.443 1.529-4.606 2.413-2.257-2.334-3.652-5.508-3.652-9.012 0-7.166 5.809-12.976 12.975-12.976s12.976 5.809 12.976 12.976c0 0.509-0.037 1.010-0.094 1.504 0.331 0.067 0.652 0.161 0.967 0.269 0.074-0.582 0.125-1.171 0.125-1.773 0-7.718-6.256-13.974-13.974-13.974s-13.973 6.256-13.973 13.974c0 7.717 6.256 13.973 13.973 13.973 1.623 0 3.175-0.291 4.624-0.8-0.704-1.173-1.116-2.542-1.116-4.010 0-1.013 0.199-1.979 0.55-2.867zM28.087 22.44h-0.881v-0.731c0-1.12-0.908-2.027-2.027-2.027s-2.027 0.908-2.027 2.027v0.731h-0.881c-0.209 0-0.378 0.169-0.378 0.378v4.375c0 0.209 0.169 0.378 0.378 0.378h5.817c0.209 0 0.378-0.169 0.378-0.378v-4.375c0-0.209-0.169-0.378-0.378-0.378zM25.559 24.965v1.098c0 0.175-0.141 0.316-0.316 0.316s-0.316-0.142-0.316-0.316v-1.098c-0.23-0.116-0.389-0.352-0.389-0.627 0-0.389 0.316-0.705 0.705-0.705s0.705 0.316 0.705 0.705c0 0.275-0.159 0.511-0.389 0.627zM26.292 22.44h-2.227v-0.776c0-0.615 0.499-1.114 1.114-1.114s1.114 0.499 1.114 1.114v0.776z"></path>
</svg>
