<!-- Generated by IcoMoon.io -->
<svg version="1.1" xmlns="http://www.w3.org/2000/svg" width="32" height="32" viewBox="0 0 32 32">
<title>adaptive-mfa</title>
<path d="M16.149 1.12c-3.074 0-5.565 2.492-5.565 5.565s2.492 5.565 5.565 5.565c3.074 0 5.565-2.492 5.565-5.565s-2.492-5.565-5.565-5.565zM19.804 10.339c-0.855-0.761-1.853-1.091-2.075-1.157-0.63-0.528-0.375-1.116 0.085-1.948 0.069-0.126 0.138-0.249 0.197-0.368 0.341-0.682 0.282-1.114 0.23-1.287 0.133-0.49 0.251-1.852-0.436-2.594-0.409-0.442-1.009-0.57-1.785-0.382-0.818 0.005-1.413 0.258-1.77 0.753-0.614 0.852-0.291 2.128-0.203 2.428-0.173 0.614 0.18 1.040 0.253 1.12 0.084 0.116 1.020 1.46 0.236 2.291l-0.268 0.119c-0.811 0.358-1.371 0.609-1.835 0.961-0.899-0.93-1.454-2.194-1.454-3.589 0-2.854 2.314-5.168 5.168-5.168s5.168 2.314 5.168 5.168c-0 1.427-0.578 2.718-1.513 3.654zM5.528 19.614c-2.978 0-5.393 2.414-5.393 5.393s2.414 5.393 5.393 5.393 5.393-2.414 5.393-5.393-2.414-5.393-5.393-5.393zM9.069 28.547c-0.828-0.737-1.795-1.057-2.010-1.121-0.61-0.511-0.363-1.081 0.083-1.887 0.067-0.122 0.133-0.241 0.191-0.356 0.331-0.661 0.273-1.079 0.223-1.247 0.129-0.475 0.243-1.794-0.423-2.513-0.396-0.428-0.977-0.552-1.729-0.37-0.793 0.005-1.369 0.25-1.715 0.729-0.596 0.826-0.282 2.062-0.196 2.353-0.167 0.595 0.174 1.007 0.246 1.085 0.081 0.112 0.989 1.414 0.229 2.22l-0.26 0.115c-0.785 0.348-1.329 0.59-1.778 0.931-0.871-0.901-1.409-2.126-1.409-3.478 0-2.765 2.242-5.007 5.007-5.007s5.007 2.242 5.007 5.007c0 1.382-0.56 2.634-1.466 3.54zM26.472 19.614c-2.978 0-5.393 2.414-5.393 5.393s2.414 5.393 5.393 5.393c2.978 0 5.393-2.414 5.393-5.393s-2.414-5.393-5.393-5.393zM30.014 28.547c-0.828-0.737-1.795-1.057-2.010-1.121-0.61-0.511-0.363-1.081 0.083-1.887 0.067-0.122 0.133-0.241 0.191-0.356 0.331-0.661 0.273-1.079 0.223-1.247 0.129-0.475 0.243-1.794-0.423-2.513-0.396-0.428-0.977-0.552-1.729-0.37-0.793 0.005-1.369 0.25-1.715 0.729-0.596 0.826-0.282 2.062-0.196 2.353-0.167 0.595 0.174 1.007 0.246 1.086 0.081 0.112 0.989 1.414 0.229 2.22l-0.26 0.115c-0.785 0.348-1.329 0.59-1.778 0.931-0.871-0.901-1.409-2.126-1.409-3.478 0-2.765 2.242-5.007 5.007-5.007s5.007 2.242 5.007 5.007c0 1.382-0.56 2.634-1.466 3.54zM16.137 22.066c-1.683 0-3.052-1.369-3.052-3.052s1.369-3.052 3.052-3.052 3.052 1.369 3.052 3.052-1.369 3.052-3.052 3.052zM16.137 16.492c-1.39 0-2.522 1.132-2.522 2.522s1.132 2.522 2.522 2.522c1.391 0 2.522-1.132 2.522-2.522s-1.132-2.522-2.522-2.522zM17.745 18.53l-1.829 1.829c-0.061 0.060-0.16 0.060-0.221 0-0.001-0.001-0.003-0.001-0.004-0.003l-1.073-1.053c-0.061-0.060-0.062-0.16-0.001-0.221l0.305-0.311c0.060-0.061 0.16-0.062 0.221-0.002l0.658 0.646 1.415-1.415c0.061-0.060 0.16-0.060 0.221 0l0.307 0.308c0.061 0.061 0.061 0.16-0 0.221zM16.494 29.63l-0.018-0.521c0.253-0.009 0.507-0.027 0.754-0.053l0.056 0.518c-0.26 0.028-0.526 0.047-0.792 0.056zM15.701 29.628c-0.262-0.011-0.529-0.031-0.791-0.061l0.059-0.517c0.25 0.028 0.503 0.048 0.753 0.058l-0.020 0.521zM18.071 29.46l-0.094-0.512c0.244-0.045 0.492-0.1 0.736-0.164l0.132 0.504c-0.257 0.068-0.518 0.126-0.775 0.173zM14.124 29.448c-0.26-0.050-0.521-0.11-0.774-0.179l0.136-0.503c0.24 0.065 0.488 0.122 0.736 0.17l-0.098 0.512zM19.605 29.055l-0.17-0.492c0.239-0.083 0.475-0.174 0.704-0.273l0.207 0.478c-0.24 0.104-0.489 0.201-0.74 0.287zM12.592 29.032c-0.249-0.088-0.498-0.187-0.739-0.293l0.21-0.477c0.229 0.101 0.465 0.195 0.702 0.279l-0.174 0.491zM21.061 28.426l-0.242-0.461c0.221-0.116 0.442-0.243 0.655-0.376l0.276 0.442c-0.224 0.14-0.456 0.273-0.689 0.395zM11.138 28.392c-0.235-0.125-0.466-0.26-0.686-0.4l0.279-0.44c0.21 0.133 0.429 0.261 0.652 0.38l-0.245 0.46zM26.745 19.456l-0.521-0.021c0.010-0.252 0.011-0.506 0.003-0.756l-0.001-0.042 0.521-0.017 0.001 0.042c0.009 0.263 0.008 0.53-0.003 0.794zM5.516 19.387l-0.001-0.021c-0.009-0.257-0.008-0.516 0.002-0.772l0.521 0.020c-0.009 0.243-0.010 0.491-0.002 0.735l-0.52 0.038zM26.17 17.886c-0.028-0.25-0.066-0.501-0.111-0.747l0.512-0.096c0.048 0.258 0.088 0.523 0.117 0.785l-0.518 0.058zM6.095 17.861l-0.518-0.059c0.030-0.262 0.070-0.526 0.119-0.785l0.512 0.097c-0.046 0.246-0.085 0.497-0.113 0.746zM25.892 16.404c-0.065-0.244-0.14-0.487-0.221-0.722l0.492-0.172c0.086 0.247 0.165 0.503 0.233 0.759l-0.503 0.134zM6.377 16.38l-0.503-0.136c0.068-0.254 0.148-0.51 0.236-0.759l0.492 0.173c-0.084 0.237-0.159 0.48-0.224 0.722zM25.395 14.979c-0.1-0.23-0.211-0.459-0.327-0.679l0.46-0.244c0.123 0.232 0.239 0.473 0.344 0.715l-0.477 0.208zM6.879 14.955l-0.477-0.21c0.106-0.242 0.223-0.482 0.347-0.715l0.46 0.245c-0.118 0.221-0.229 0.45-0.33 0.679zM24.69 13.646c-0.133-0.212-0.276-0.422-0.425-0.623l0.42-0.309c0.156 0.212 0.307 0.433 0.447 0.656l-0.441 0.277zM7.589 13.622l-0.44-0.278c0.14-0.222 0.292-0.443 0.449-0.655l0.418 0.31c-0.15 0.202-0.293 0.411-0.427 0.623zM23.794 12.432c-0.163-0.189-0.336-0.376-0.513-0.554l0.369-0.368c0.187 0.187 0.368 0.383 0.54 0.582l-0.395 0.34zM8.488 12.41l-0.394-0.341c0.172-0.199 0.354-0.395 0.541-0.581l0.368 0.369c-0.178 0.177-0.351 0.363-0.515 0.553zM22.728 11.364c-0.191-0.165-0.39-0.324-0.59-0.472l0.31-0.419c0.21 0.156 0.419 0.323 0.62 0.496l-0.34 0.394zM9.557 11.345l-0.34-0.395c0.199-0.171 0.408-0.337 0.621-0.494l0.309 0.42c-0.202 0.149-0.401 0.307-0.59 0.47zM21.515 10.466c-0.213-0.134-0.433-0.262-0.653-0.379l0.245-0.46c0.232 0.123 0.463 0.257 0.687 0.398l-0.278 0.44zM10.772 10.45l-0.277-0.441c0.223-0.14 0.454-0.273 0.688-0.396l0.243 0.461c-0.222 0.117-0.442 0.244-0.653 0.377z"></path>
</svg>
