<!-- Generated by IcoMoon.io -->
<svg version="1.1" xmlns="http://www.w3.org/2000/svg" width="32" height="32" viewBox="0 0 32 32">
<title>adaptive-mfa-alt</title>
<path d="M31.082 9.213c-0.582-0.584-1.388-0.946-2.278-0.946-1.776 0-3.216 1.44-3.216 3.216 0 0.691 0.218 1.331 0.589 1.855l-0.007-0.010-4.646 4.646c-0.527-0.396-1.192-0.635-1.913-0.635-0.702 0-1.351 0.226-1.879 0.609l0.009-0.006-4.083-4.115c0.372-0.516 0.595-1.161 0.595-1.859 0-1.767-1.433-3.2-3.2-3.2s-3.2 1.433-3.2 3.2c0 0.697 0.223 1.343 0.602 1.868l-0.007-0.009-3.354 3.35c-0.514-0.367-1.155-0.587-1.848-0.587-1.767 0-3.2 1.433-3.2 3.2s1.433 3.2 3.2 3.2c1.767 0 3.2-1.433 3.2-3.2 0-0.693-0.22-1.334-0.594-1.858l0.007 0.010 3.35-3.354c0.515 0.359 1.154 0.574 1.843 0.574s1.328-0.215 1.854-0.581l-0.011 0.007 4.080 4.083c-0.366 0.513-0.585 1.153-0.585 1.844 0 1.767 1.433 3.2 3.2 3.2s3.2-1.433 3.2-3.2c0-0.662-0.201-1.278-0.546-1.788l0.007 0.011 4.65-4.659c0.512 0.357 1.147 0.57 1.832 0.57 1.781 0 3.226-1.444 3.226-3.226 0-0.857-0.334-1.636-0.879-2.214l0.001 0.002zM4.698 21.261c-0.382 0.382-0.91 0.618-1.492 0.618-1.166 0-2.112-0.946-2.112-2.112s0.946-2.112 2.112-2.112c0.583 0 1.11 0.236 1.492 0.618l-0-0c0.384 0.382 0.622 0.91 0.622 1.494s-0.238 1.113-0.622 1.494l-0 0zM12.528 13.44c-0.382 0.383-0.911 0.619-1.494 0.619-1.166 0-2.112-0.946-2.112-2.112s0.946-2.112 2.112-2.112c0.584 0 1.112 0.237 1.494 0.619v0c0.384 0.381 0.622 0.909 0.622 1.493s-0.238 1.112-0.622 1.493l-0 0zM21.091 22.026c-0.382 0.382-0.91 0.618-1.492 0.618-1.166 0-2.112-0.946-2.112-2.112s0.946-2.112 2.112-2.112c0.583 0 1.11 0.236 1.492 0.618l-0-0c0.385 0.381 0.624 0.91 0.624 1.494s-0.238 1.113-0.623 1.494l-0 0zM28.528 12.896l-1.296-1.261 0.499-0.499 0.797 0.797 1.99-1.99 0.499 0.499z"></path>
</svg>
