<!-- Generated by IcoMoon.io -->
<svg version="1.1" xmlns="http://www.w3.org/2000/svg" width="32" height="32" viewBox="0 0 32 32">
<title>admin-user</title>
<path d="M25.16 18.367c3.187 0 5.771 2.584 5.771 5.771s-2.584 5.771-5.771 5.771c-3.187 0-5.771-2.584-5.771-5.771s2.584-5.771 5.771-5.771zM25.16 17.551c-3.633 0-6.588 2.955-6.588 6.588s2.955 6.588 6.588 6.588 6.588-2.955 6.588-6.588-2.955-6.588-6.588-6.588v0zM29.219 23.54l0.001-0.002-1.051-0.3c-0.061-0.202-0.143-0.395-0.242-0.578l0.532-0.958-0.002-0.001c0.031-0.056 0.025-0.126-0.022-0.174l-0.622-0.622c-0.047-0.047-0.118-0.053-0.174-0.022l-0.001-0.002-0.957 0.532c-0.183-0.099-0.376-0.182-0.579-0.243l-0.3-1.050-0.003 0.001c-0.017-0.061-0.072-0.107-0.139-0.107h-0.88c-0.067 0-0.121 0.046-0.139 0.107l-0.003-0.001-0.3 1.050c-0.192 0.057-0.376 0.135-0.55 0.227l-0.973-0.53-0.001 0.002c-0.056-0.030-0.128-0.023-0.177 0.026l-0.642 0.642c-0.049 0.049-0.056 0.121-0.026 0.177l-0.002 0.001 0.53 0.973c-0.087 0.165-0.161 0.337-0.217 0.518l-1.060 0.313 0.001 0.003c-0.061 0.018-0.107 0.074-0.107 0.143v0.908c0 0.069 0.046 0.125 0.107 0.143l-0.001 0.003 1.060 0.313c0.056 0.181 0.13 0.353 0.217 0.518l-0.53 0.973 0.002 0.001c-0.030 0.056-0.023 0.128 0.026 0.177l0.642 0.642c0.049 0.049 0.121 0.056 0.177 0.025l0.001 0.002 0.971-0.529c0.165 0.088 0.339 0.162 0.521 0.219l0.312 1.058 0.003-0.001c0.018 0.061 0.074 0.107 0.143 0.107h0.908c0.069 0 0.125-0.046 0.143-0.107l0.003 0.001 0.312-1.058c0.192-0.060 0.375-0.14 0.55-0.234l0.956 0.531 0.001-0.002c0.056 0.031 0.126 0.025 0.174-0.022l0.622-0.622c0.047-0.047 0.053-0.118 0.022-0.174l0.002-0.001-0.532-0.958c0.099-0.183 0.181-0.376 0.242-0.578l1.051-0.3-0.001-0.003c0.061-0.017 0.107-0.072 0.107-0.139v-0.88c0-0.067-0.045-0.121-0.107-0.138zM26.294 25.193c-1.569 1.195-3.342-0.578-2.148-2.148 1.569-1.197 3.344 0.578 2.148 2.148zM18.032 21.543c-0.027-0.008-0.069-0.022-0.090-0.029-1.581-1.325-0.941-2.802 0.215-4.89 0.174-0.317 0.345-0.625 0.494-0.923 0.857-1.713 0.706-2.796 0.578-3.233 0.333-1.231 0.629-4.649-1.096-6.512-1.027-1.109-2.533-1.43-4.481-0.959-2.054 0.013-3.548 0.648-4.443 1.89-1.543 2.14-0.731 5.344-0.509 6.096-0.434 1.543 0.45 2.611 0.636 2.813 0.21 0.291 2.563 3.665 0.594 5.752l-0.673 0.297c-2.035 0.9-3.443 1.529-4.606 2.413-2.257-2.334-3.652-5.508-3.652-9.011 0-7.166 5.809-12.976 12.975-12.976s12.976 5.809 12.976 12.976c0 0.509-0.037 1.010-0.094 1.504 0.331 0.067 0.652 0.161 0.967 0.269 0.074-0.582 0.125-1.171 0.125-1.773 0-7.718-6.256-13.974-13.974-13.974s-13.973 6.256-13.973 13.974c0 7.717 6.256 13.973 13.973 13.973 1.623 0 3.175-0.291 4.624-0.8-0.704-1.173-1.116-2.542-1.116-4.010 0-1.014 0.199-1.979 0.55-2.868z"></path>
</svg>
