<!-- Generated by IcoMoon.io -->
<svg version="1.1" xmlns="http://www.w3.org/2000/svg" width="32" height="32" viewBox="0 0 32 32">
<title>all</title>
<path d="M31.045 14.090c-0.528 0-0.955 0.428-0.955 0.955v11.94c0 1.583-1.283 2.866-2.866 2.866h-16.716c-1.583 0-2.866-1.283-2.866-2.866v-0.478h13.851c2.638 0 4.776-2.138 4.776-4.776v-11.94c0-0.528-0.428-0.955-0.955-0.955s-0.955 0.428-0.955 0.955v11.94c0 1.583-1.283 2.866-2.866 2.866h-16.717c-1.583 0-2.866-1.283-2.866-2.866v-16.716c0-1.583 1.283-2.866 2.866-2.866h11.94c0.528 0 0.955-0.428 0.955-0.955s-0.428-0.955-0.955-0.955h-11.94c-2.638-0-4.776 2.138-4.776 4.776v16.716c0 2.638 2.138 4.776 4.776 4.776h0.955v0.478c0 2.638 2.138 4.776 4.776 4.776h16.716c2.638 0 4.776-2.138 4.776-4.776v-11.94c0-0.528-0.427-0.955-0.955-0.955zM7.054 9.089c-0.378-0.368-0.983-0.36-1.351 0.018s-0.36 0.983 0.018 1.351c0.013 0.012 0.026 0.024 0.039 0.036l5.698 5.254c0.177 0.163 0.409 0.253 0.65 0.253h0.043c0.254-0.011 0.493-0.123 0.664-0.31l12.293-13.54c0.355-0.396 0.322-1.004-0.074-1.359s-1.004-0.322-1.359 0.074v0l-11.625 12.824-4.996-4.599z"></path>
</svg>
