<!-- Generated by IcoMoon.io -->
<svg version="1.1" xmlns="http://www.w3.org/2000/svg" width="32" height="32" viewBox="0 0 32 32">
<title>analyst-report</title>
<path d="M22.658 21.717h-1.815v-1.815c0-0.342-0.278-0.62-0.62-0.62s-0.62 0.278-0.62 0.62v1.815h-1.815c-0.342 0-0.62 0.278-0.62 0.62s0.278 0.62 0.62 0.62h1.815v1.815c0 0.342 0.278 0.62 0.62 0.62s0.62-0.278 0.62-0.62v-1.815h1.815c0.342 0 0.62-0.278 0.62-0.62s-0.278-0.62-0.62-0.62zM29.704 30.947l-4.696-4.696c0.906-1.106 1.402-2.485 1.402-3.913 0-3.412-2.776-6.188-6.188-6.188s-6.188 2.776-6.188 6.188 2.776 6.188 6.188 6.188c1.427 0 2.807-0.496 3.913-1.402l4.696 4.696c0.12 0.12 0.278 0.18 0.436 0.18s0.316-0.060 0.436-0.18c0.241-0.24 0.241-0.632 0-0.873zM20.222 27.285c-2.727 0-4.947-2.219-4.947-4.947s2.219-4.947 4.947-4.947 4.947 2.219 4.947 4.947c-0 2.728-2.22 4.947-4.947 4.947zM5.596 6.010h13.046c0.262 0 0.475 0.224 0.475 0.501s-0.212 0.501-0.475 0.501h-13.046c-0.262 0-0.475-0.224-0.475-0.501s0.212-0.501 0.475-0.501zM5.596 9.014h13.046c0.262 0 0.475 0.225 0.475 0.501s-0.212 0.501-0.475 0.501h-13.046c-0.262 0-0.475-0.224-0.475-0.501s0.212-0.501 0.475-0.501zM18.642 13.021h-13.021c-0.277 0-0.501-0.224-0.501-0.501s0.224-0.501 0.501-0.501h13.021c0.277 0 0.501 0.225 0.501 0.501s-0.224 0.501-0.501 0.501zM5.621 15.024c-0.277 0-0.501 0.224-0.501 0.501s0.224 0.501 0.501 0.501h9.818c0.603-0.423 1.269-0.761 1.98-1.002h-11.799zM5.621 18.028c-0.277 0-0.501 0.225-0.501 0.501s0.224 0.501 0.501 0.501h7.268c0.168-0.348 0.354-0.685 0.57-1.002h-7.838zM5.621 21.033c-0.277 0-0.501 0.224-0.501 0.501s0.224 0.501 0.501 0.501h6.507c0.016-0.34 0.052-0.675 0.11-1.002h-6.617zM5.596 7.011h13.046c0.262 0 0.475-0.224 0.475-0.501s-0.212-0.501-0.475-0.501h-13.046c-0.262 0-0.475 0.224-0.475 0.501s0.212 0.501 0.475 0.501zM18.642 12.019h-13.021c-0.277 0-0.501 0.225-0.501 0.501s0.224 0.501 0.501 0.501h13.021c0.277 0 0.501-0.224 0.501-0.501s-0.224-0.501-0.501-0.501zM13.639 27.043h-10.522v-26.041h18.028v13.714c0.341 0.054 0.676 0.125 1.002 0.222v-13.936c0-0.553-0.448-1.002-1.002-1.002h-18.028c-0.553 0-1.002 0.449-1.002 1.002v26.041c0 0.554 0.448 1.002 1.002 1.002h11.398c-0.32-0.308-0.612-0.644-0.876-1.002zM5.596 10.016h13.046c0.262 0 0.475-0.224 0.475-0.501s-0.212-0.501-0.475-0.501h-13.046c-0.262 0-0.475 0.225-0.475 0.501s0.212 0.501 0.475 0.501z"></path>
</svg>
