<!-- Generated by IcoMoon.io -->
<svg version="1.1" xmlns="http://www.w3.org/2000/svg" width="32" height="32" viewBox="0 0 32 32">
<title>annual-renewal</title>
<path d="M15.882 28.852c-5.991 0-11.209-4.183-12.537-9.993h-2.401c-0.338 0-0.641-0.202-0.77-0.514s-0.059-0.669 0.181-0.909l4.042-4.042c0.325-0.324 0.854-0.325 1.178 0l4.042 4.042c0.239 0.239 0.31 0.596 0.181 0.909s-0.432 0.514-0.77 0.514h-1.819c1.231 3.722 4.722 6.277 8.673 6.277 3.479 0 6.612-1.932 8.176-5.044 0.46-0.915 1.58-1.285 2.495-0.825v0c0.444 0.223 0.773 0.605 0.93 1.077s0.119 0.976-0.104 1.419c-2.199 4.373-6.605 7.090-11.497 7.090zM4.988 13.981l-4.046 4.042 3.078 0.005 0.067 0.333c1.124 5.597 6.084 9.66 11.795 9.66 4.577 0 8.698-2.541 10.755-6.633 0.124-0.245 0.144-0.524 0.058-0.784s-0.269-0.472-0.514-0.596v0c-0.506-0.256-1.125-0.050-1.38 0.457-1.706 3.393-5.124 5.501-8.918 5.501-4.508 0-8.469-3.049-9.631-7.416l-0.139-0.522h2.916l-4.040-4.047zM26.922 18.716c-0.222 0-0.432-0.087-0.589-0.244l-4.041-4.041c-0.239-0.239-0.31-0.596-0.181-0.908s0.432-0.514 0.77-0.514h1.638c-1.265-3.655-4.74-6.164-8.636-6.164-3.334 0-6.406 1.816-8.017 4.74-0.494 0.896-1.626 1.225-2.524 0.731-0.435-0.24-0.75-0.634-0.888-1.111s-0.082-0.979 0.157-1.413c2.265-4.11 6.584-6.664 11.272-6.664 5.933 0 11.14 4.135 12.51 9.881h2.572c0.338 0 0.641 0.202 0.77 0.514s0.058 0.669-0.181 0.908l-4.041 4.042c-0.157 0.157-0.367 0.244-0.589 0.244zM22.88 13.838l4.040 4.046 4.046-4.042-0.002-0.004h-3.241l-0.069-0.33c-1.165-5.534-6.116-9.551-11.772-9.551-4.386 0-8.427 2.388-10.545 6.234-0.273 0.496-0.092 1.123 0.404 1.396 0.495 0.272 1.122 0.093 1.396-0.404 1.757-3.188 5.108-5.169 8.744-5.169 4.452 0 8.4 3.001 9.6 7.298l0.147 0.527h-2.749z"></path>
</svg>
