<!-- Generated by IcoMoon.io -->
<svg version="1.1" xmlns="http://www.w3.org/2000/svg" width="32" height="32" viewBox="0 0 32 32">
<title>api-new</title>
<path d="M28.125 3.382h-24.25c-0.003 0-0.006 0-0.010 0-2.135 0-3.866 1.731-3.866 3.866 0 0.005 0 0.009 0 0.013v-0.001 17.478c0 0.004-0 0.008-0 0.013 0 2.135 1.731 3.866 3.866 3.866 0.003 0 0.007 0 0.010 0h24.249c0.003 0 0.006 0 0.010 0 2.135 0 3.866-1.731 3.866-3.866 0-0.005 0-0.009-0-0.014v0.001-17.478c-0.005-2.139-1.737-3.871-3.875-3.878h-0.001zM30.589 24.739c0 0.004 0 0.008 0 0.013 0 1.352-1.096 2.448-2.448 2.448-0.006 0-0.011-0-0.017-0h-24.249c-0.005 0-0.010 0-0.016 0-1.352 0-2.448-1.096-2.448-2.448 0-0.007 0-0.014 0-0.020v0.001-14.512h29.178zM30.589 8.81h-29.178v-1.549c-0-0.004-0-0.008-0-0.013 0-1.352 1.096-2.448 2.448-2.448 0.006 0 0.011 0 0.017 0h24.249c0.005-0 0.010-0 0.016-0 1.352 0 2.448 1.096 2.448 2.448 0 0.007-0 0.014-0 0.020v-0.001zM4.755 6.838c0 0.661-0.536 1.197-1.197 1.197s-1.197-0.536-1.197-1.197c0-0.661 0.536-1.197 1.197-1.197s1.197 0.536 1.197 1.197zM8.387 6.838c0 0.661-0.536 1.197-1.197 1.197s-1.197-0.536-1.197-1.197c0-0.661 0.536-1.197 1.197-1.197s1.197 0.536 1.197 1.197zM12.051 6.838c0 0.661-0.536 1.197-1.197 1.197s-1.197-0.536-1.197-1.197c0-0.661 0.536-1.197 1.197-1.197s1.197 0.536 1.197 1.197zM20.653 23.613c0.124 0.13 0.299 0.211 0.493 0.211s0.368-0.081 0.493-0.21l4.512-4.512c0.13-0.124 0.211-0.299 0.211-0.493s-0.081-0.368-0.21-0.493l-0-0-4.512-4.547c-0.124-0.114-0.289-0.183-0.471-0.183-0.385 0-0.698 0.312-0.698 0.698 0 0.182 0.070 0.347 0.184 0.472l-0-0.001 4.016 4.006-4.016 4.029c-0.13 0.131-0.211 0.312-0.211 0.512s0.081 0.381 0.211 0.512l-0-0zM10.362 23.613c0.124 0.13 0.299 0.211 0.493 0.211s0.368-0.081 0.493-0.21l0-0c0.13-0.125 0.211-0.3 0.211-0.494s-0.081-0.37-0.211-0.494l-0-0-4.016-4.064 4.016-3.971c0.139-0.128 0.226-0.311 0.226-0.514 0-0.385-0.312-0.698-0.698-0.698-0.203 0-0.387 0.087-0.514 0.226l-0 0.001-4.512 4.48c-0.13 0.124-0.211 0.299-0.211 0.493s0.081 0.368 0.21 0.493l0 0zM13.251 23.718c0.076 0.046 0.168 0.073 0.266 0.073 0.019 0 0.038-0.001 0.056-0.003l-0.002 0c0.275-0.005 0.513-0.158 0.638-0.383l0.002-0.004 4.864-9.024c0.053-0.097 0.085-0.212 0.085-0.334 0-0.387-0.314-0.701-0.701-0.701-0.265 0-0.495 0.147-0.614 0.363l-0.002 0.004-4.874 9.059c-0.062 0.099-0.099 0.22-0.099 0.349 0 0.264 0.154 0.492 0.376 0.6l0.004 0.002z"></path>
</svg>
