<!-- Generated by IcoMoon.io -->
<svg version="1.1" xmlns="http://www.w3.org/2000/svg" width="32" height="32" viewBox="0 0 32 32">
<title>api-first</title>
<path d="M29.628 12.241h-2.238c-0.224-0.761-0.537-1.499-0.895-2.193l1.589-1.589c0.090-0.089 0.157-0.224 0.157-0.358s-0.045-0.269-0.157-0.358l-4.185-4.162c-0.201-0.201-0.515-0.201-0.716 0l-1.589 1.589c-0.694-0.38-1.432-0.671-2.193-0.895v-2.26c0-0.291-0.224-0.515-0.515-0.515h-5.863c-0.291 0-0.515 0.224-0.515 0.515v2.171c-0.403 0.134-1.097 0.403-2.193 0.985l-1.589-1.589c-0.201-0.201-0.515-0.201-0.716 0l-4.162 4.162c-0.090 0.090-0.157 0.224-0.157 0.358s0.045 0.269 0.157 0.358l1.589 1.589c-0.38 0.694-0.671 1.432-0.895 2.193h-2.238c-0.291 0-0.515 0.224-0.515 0.515v5.885c0 0.291 0.224 0.515 0.515 0.515h2.238c0.224 0.761 0.537 1.499 0.895 2.193l-1.589 1.589c-0.090 0.090-0.157 0.224-0.157 0.358s0.045 0.269 0.157 0.358l4.162 4.162c0.201 0.201 0.515 0.201 0.716 0l1.589-1.589c0.694 0.38 1.432 0.671 2.193 0.895v2.238c0 0.291 0.224 0.515 0.515 0.515h5.885c0.291 0 0.515-0.224 0.515-0.515v-2.238c0.761-0.224 1.499-0.537 2.193-0.895l1.589 1.589c0.201 0.201 0.515 0.201 0.716 0l4.162-4.162c0.090-0.090 0.157-0.224 0.157-0.358s-0.045-0.269-0.157-0.358l-1.589-1.589c0.38-0.694 0.671-1.432 0.895-2.193h2.238c0.291 0 0.515-0.224 0.515-0.515v-5.908c0-0.269-0.246-0.492-0.515-0.492zM29.113 18.126h-2.126c-0.224 0-0.425 0.157-0.492 0.38-0.246 0.94-0.627 1.835-1.096 2.663-0.112 0.201-0.090 0.448 0.090 0.604l1.499 1.499-3.446 3.446-1.499-1.499c-0.157-0.157-0.425-0.201-0.604-0.090-0.828 0.492-1.723 0.85-2.663 1.096-0.224 0.067-0.38 0.269-0.38 0.492v2.126h-4.878v-2.126c0-0.224-0.157-0.425-0.38-0.492-0.94-0.246-1.835-0.627-2.663-1.096-0.201-0.112-0.448-0.090-0.604 0.090l-1.499 1.499-3.446-3.446 1.499-1.499c0.157-0.157 0.201-0.425 0.090-0.604-0.492-0.828-0.85-1.723-1.096-2.663-0.067-0.224-0.269-0.38-0.492-0.38h-2.126v-4.878h2.126c0.224 0 0.425-0.157 0.492-0.38 0.246-0.94 0.627-1.835 1.096-2.663 0.112-0.201 0.090-0.448-0.090-0.604l-1.499-1.499 3.446-3.446 1.499 1.499c0.157 0.157 0.403 0.201 0.604 0.090 1.88-1.052 2.573-1.141 2.573-1.141 0.269-0.022 0.47-0.246 0.47-0.515v-2.081h4.878v2.126c0 0.224 0.157 0.425 0.38 0.492 0.94 0.246 1.835 0.627 2.663 1.096 0.201 0.112 0.448 0.090 0.604-0.090l1.499-1.499 3.446 3.446-1.499 1.499c-0.157 0.157-0.201 0.425-0.090 0.604 0.492 0.828 0.85 1.723 1.096 2.663 0.067 0.224 0.269 0.38 0.492 0.38h2.126v4.901zM13.203 12.778h-2.417c-1.432 0-2.618 1.052-2.864 2.417h-3.29c-0.291 0-0.515 0.224-0.515 0.515s0.224 0.515 0.515 0.515h3.29c0.246 1.365 1.432 2.417 2.864 2.417h2.417c0.291 0 0.515-0.224 0.515-0.515v-4.856c0-0.269-0.224-0.492-0.515-0.492zM12.688 17.589h-1.902c-1.052 0-1.902-0.85-1.902-1.902s0.85-1.902 1.902-1.902h1.902v3.804zM21.371 12.778h-2.417c-0.291 0-0.515 0.224-0.515 0.515v1.029h-1.656c-0.291 0-0.515 0.224-0.515 0.515s0.224 0.515 0.515 0.515h1.656v0.761h-1.656c-0.291 0-0.515 0.224-0.515 0.515s0.224 0.515 0.515 0.515h1.656v0.962c0 0.291 0.224 0.515 0.515 0.515h2.417c1.432 0 2.618-1.052 2.864-2.417h3.29c0.291 0 0.515-0.224 0.515-0.515s-0.224-0.515-0.515-0.515h-3.29c-0.246-1.365-1.432-2.394-2.864-2.394zM21.371 17.589h-1.902v-3.804h1.902c1.052 0 1.902 0.85 1.902 1.902s-0.85 1.902-1.902 1.902z"></path>
</svg>
