<!-- Generated by IcoMoon.io -->
<svg version="1.1" xmlns="http://www.w3.org/2000/svg" width="32" height="32" viewBox="0 0 32 32">
<title>api</title>
<path d="M15.874 8.76c-1.769 0-3.649 0.585-3.649 1.671v2.027c0 1.086 1.88 1.671 3.649 1.671s3.649-0.585 3.649-1.671v-2.027c0-1.086-1.88-1.671-3.649-1.671zM18.851 12.458c0 0.407-1.16 0.999-2.977 0.999s-2.977-0.592-2.977-0.999v-1.034c0.704 0.444 1.861 0.678 2.977 0.678s2.273-0.234 2.977-0.678v1.034zM15.874 11.43c-1.817 0-2.977-0.592-2.977-0.998s1.16-0.999 2.977-0.999c1.817 0 2.977 0.592 2.977 0.999s-1.16 0.998-2.977 0.998zM31.553 9.291c-0.035-0.024-0.077-0.030-0.116-0.043l0.004-0.012-4.196-1.392v-0.26c0-1.086-1.88-1.671-3.649-1.671-0.557 0-1.119 0.064-1.636 0.178l-2.436-0.808v-0.708c0-1.086-1.88-1.671-3.649-1.671s-3.649 0.585-3.649 1.671v0.6l-2.419 0.95c-0.557-0.137-1.18-0.212-1.793-0.212-1.769 0-3.649 0.585-3.649 1.671v0.678l-4.080 1.602 0.005 0.012c-0.034 0.013-0.070 0.018-0.1 0.039-0.119 0.084-0.189 0.221-0.189 0.366v12.979c0 0.191 0.12 0.36 0.299 0.423l15.328 5.39c0.049 0.017 0.099 0.025 0.149 0.025 0.091 0 0.183-0.028 0.259-0.082 0.004-0.003 0.005-0.008 0.009-0.010l15.417-5.975c0.172-0.067 0.286-0.233 0.286-0.418v-12.951c0-0.148-0.073-0.286-0.195-0.37zM26.572 7.583c0 0.407-1.16 0.998-2.977 0.998s-2.977-0.592-2.977-0.998c0-0.407 1.16-0.999 2.977-0.999s2.977 0.592 2.977 0.999zM20.619 8.576c0.704 0.444 1.861 0.678 2.977 0.678s2.273-0.234 2.977-0.678v1.034c0 0.407-1.16 0.999-2.977 0.999s-2.977-0.592-2.977-0.999v-1.034zM15.874 3.575c1.817 0 2.977 0.592 2.977 0.999s-1.16 0.998-2.977 0.998c-1.817 0-2.977-0.592-2.977-0.998s1.16-0.999 2.977-0.999zM12.897 5.567c0.704 0.444 1.861 0.678 2.977 0.678s2.273-0.234 2.977-0.678v1.034c0 0.407-1.16 0.999-2.977 0.999s-2.977-0.592-2.977-0.999v-1.034zM8.013 6.584c1.817 0 2.977 0.592 2.977 0.999s-1.16 0.998-2.977 0.998c-1.817 0-2.977-0.592-2.977-0.998s1.16-0.999 2.977-0.999zM5.036 8.576c0.705 0.444 1.861 0.678 2.977 0.678s2.273-0.234 2.977-0.678v1.034c0 0.407-1.16 0.999-2.977 0.999s-2.977-0.592-2.977-0.999v-1.034zM15.328 28.017l-14.432-5.074v-12.029l14.432 5.074v12.029zM15.778 15.195l-14.045-4.938 2.631-1.033v0.386c0 1.086 1.88 1.671 3.649 1.671s3.649-0.585 3.649-1.671v-2.027c0-0.391-0.25-0.715-0.644-0.972l1.208-0.474v0.464c0 1.086 1.88 1.671 3.649 1.671s3.649-0.585 3.649-1.671v-0.375l1.095 0.363c-0.413 0.26-0.672 0.592-0.672 0.993v2.027c0 1.086 1.88 1.671 3.649 1.671s3.649-0.585 3.649-1.671v-0.823l2.731 0.906-14.198 5.503zM30.852 22.305l-14.624 5.668v-11.99l14.624-5.667v11.99z"></path>
</svg>
