<!-- Generated by IcoMoon.io -->
<svg version="1.1" xmlns="http://www.w3.org/2000/svg" width="32" height="32" viewBox="0 0 32 32">
<title>app-partner</title>
<path d="M6.788 26.691h-0.049c0.824-0.526 1.406-1.435 1.406-2.487 0-1.626-1.357-2.966-3.006-2.966s-3.006 1.339-3.006 2.966c0 1.052 0.582 1.961 1.406 2.487h-0.146c-1.891 0-3.394 1.531-3.394 3.348v1.483c0 0.287 0.194 0.478 0.485 0.478h9.212c0.291 0 0.485-0.191 0.485-0.478v-1.483c0-1.818-1.503-3.348-3.394-3.348zM5.14 22.194c1.115 0 2.036 0.909 2.036 2.009s-0.921 2.009-2.036 2.009-2.036-0.909-2.036-2.009 0.921-2.009 2.036-2.009zM9.212 31.043h-8.243v-1.004c0-1.339 1.115-2.392 2.424-2.392h3.394c1.357 0 2.424 1.1 2.424 2.392v1.004zM17.697 26.691v0c0.776-0.526 1.357-1.435 1.357-2.487 0-1.626-1.357-2.966-3.006-2.966s-3.006 1.339-3.006 2.966c0 1.052 0.582 1.961 1.406 2.487h-0.146c-1.891 0-3.394 1.531-3.394 3.348v1.483c0 0.287 0.194 0.478 0.485 0.478h9.212c0.291 0 0.485-0.191 0.485-0.478v-1.483c0-1.818-1.503-3.348-3.394-3.348zM16.049 22.194c1.115 0 2.036 0.909 2.036 2.009s-0.921 2.009-2.036 2.009-2.036-0.909-2.036-2.009 0.921-2.009 2.036-2.009zM20.121 31.043h-8.243v-1.004c0-1.339 1.115-2.392 2.424-2.392h3.394c1.357 0 2.424 1.1 2.424 2.392v1.004zM28.606 26.691v0c0.776-0.526 1.357-1.435 1.357-2.487 0-1.626-1.357-2.966-3.006-2.966s-3.006 1.339-3.006 2.966c0 1.052 0.582 1.961 1.406 2.487h-0.146c-1.891 0-3.394 1.531-3.394 3.348v1.483c0 0.287 0.194 0.478 0.485 0.478h9.212c0.291 0 0.485-0.191 0.485-0.478v-1.483c0-1.818-1.551-3.348-3.394-3.348zM26.957 22.194c1.115 0 2.036 0.909 2.036 2.009s-0.921 2.009-2.036 2.009-2.036-0.909-2.036-2.009 0.873-2.009 2.036-2.009zM31.030 31.043h-8.243v-1.004c0-1.339 1.115-2.392 2.424-2.392h3.394c1.357 0 2.424 1.1 2.424 2.392v1.004zM22.933 0h-13.867c-0.873 0-1.6 0.717-1.6 1.579v11.289c0 0.861 0.727 1.579 1.6 1.579h13.818c0.873 0 1.6-0.717 1.6-1.579v-11.289c0.049-0.861-0.679-1.579-1.551-1.579zM8.243 3.013v-1.435c0-0.478 0.388-0.861 0.873-0.861h13.818c0.485 0 0.873 0.383 0.873 0.861v1.435h-15.564zM23.757 12.867c0 0.478-0.388 0.861-0.873 0.861h-13.818c-0.485 0-0.873-0.383-0.873-0.861v-9.088h15.564v9.088zM10.085 1.913c0 0.317-0.26 0.574-0.582 0.574s-0.582-0.257-0.582-0.574c0-0.317 0.26-0.574 0.582-0.574s0.582 0.257 0.582 0.574zM11.588 1.913c0 0.317-0.26 0.574-0.582 0.574s-0.582-0.257-0.582-0.574c0-0.317 0.26-0.574 0.582-0.574s0.582 0.257 0.582 0.574zM13.091 1.913c0 0.317-0.26 0.574-0.582 0.574s-0.582-0.257-0.582-0.574c0-0.317 0.26-0.574 0.582-0.574s0.582 0.257 0.582 0.574zM6.741 20.854l-0.586-0.572 4.703-4.688 0.586 0.572zM11.443 18.416h-0.485l0.097-2.392-2.473 0.096v-0.526l2.958-0.096zM24.774 20.854l-4.703-4.687 0.586-0.572 4.703 4.688zM22.933 15.593v0.526l-2.473-0.096 0.097 2.392h-0.485l-0.097-2.918zM15.539 15.928h0.824v4.64h-0.824v-4.64zM17.988 17.555l-0.339 0.335-1.697-1.77-1.648 1.77-0.34-0.335 1.988-2.152z"></path>
</svg>
