<!-- Generated by IcoMoon.io -->
<svg version="1.1" xmlns="http://www.w3.org/2000/svg" width="32" height="32" viewBox="0 0 32 32">
<title>application</title>
<path d="M28.871 2.382h-25.993c-1.587 0-2.878 1.291-2.878 2.878v21.481c0 1.587 1.291 2.878 2.878 2.878h25.992c1.587 0 2.878-1.291 2.878-2.878v-21.481c0-1.587-1.291-2.878-2.877-2.878zM2.878 3.526h25.992c0.956 0 1.733 0.778 1.733 1.734v2.884h-29.46v-2.884c0-0.956 0.778-1.734 1.734-1.734zM28.871 28.474h-25.993c-0.956 0-1.734-0.778-1.734-1.734v-17.452h29.46v17.452c0 0.956-0.777 1.734-1.733 1.734zM4.649 5.889c0 0.54-0.438 0.978-0.978 0.978s-0.978-0.438-0.978-0.978c0-0.54 0.438-0.978 0.978-0.978s0.978 0.438 0.978 0.978zM7.476 5.889c0 0.54-0.438 0.978-0.978 0.978s-0.978-0.438-0.978-0.978c0-0.54 0.438-0.978 0.978-0.978s0.978 0.438 0.978 0.978zM10.303 5.889c0 0.54-0.438 0.978-0.978 0.978s-0.978-0.438-0.978-0.978c0-0.54 0.438-0.978 0.978-0.978s0.978 0.438 0.978 0.978z"></path>
</svg>
