<!-- Generated by IcoMoon.io -->
<svg version="1.1" xmlns="http://www.w3.org/2000/svg" width="32" height="32" viewBox="0 0 32 32">
<title>applications</title>
<path d="M29.482 8.083h-20.467c-1.25 0-2.266 1.017-2.266 2.266v16.915c0 1.25 1.017 2.266 2.266 2.266h20.468c1.25 0 2.266-1.017 2.266-2.266v-16.915c0-1.249-1.017-2.266-2.266-2.266zM9.015 8.984h20.468c0.753 0 1.365 0.612 1.365 1.365v2.271h-23.198v-2.271c0-0.753 0.612-1.365 1.365-1.365zM29.482 28.629h-20.467c-0.753 0-1.365-0.612-1.365-1.365v-13.742h23.198v13.743c0 0.753-0.612 1.365-1.365 1.365zM10.409 10.845c0 0.426-0.345 0.771-0.771 0.771s-0.771-0.345-0.771-0.771c0-0.426 0.345-0.771 0.771-0.771s0.771 0.345 0.771 0.771zM12.635 10.845c0 0.426-0.345 0.771-0.771 0.771s-0.771-0.345-0.771-0.771c0-0.426 0.345-0.771 0.771-0.771s0.771 0.345 0.771 0.771zM14.861 10.845c0 0.426-0.345 0.771-0.771 0.771s-0.771-0.345-0.771-0.771c0-0.426 0.345-0.771 0.771-0.771s0.771 0.345 0.771 0.771zM28.462 6.914c-0.148-0.998-1.014-1.752-2.015-1.752h-21.063c-1.127 0-2.045 0.921-2.045 2.053v17.492c0 1.132 0.917 2.053 2.045 2.053h0.279v-1.030h-0.279c-0.562 0-1.019-0.459-1.019-1.023v-17.492c0-0.564 0.457-1.023 1.019-1.023h21.063c0.464 0 0.869 0.318 0.984 0.772l0.024 0.097h1.029l-0.022-0.148zM1.026 22.015v-17.492c0-0.564 0.457-1.023 1.019-1.023h21.063c0.464 0 0.869 0.318 0.984 0.772l0.024 0.097h1.029l-0.022-0.148c-0.148-0.998-1.014-1.752-2.015-1.752h-21.063c-1.127 0-2.045 0.921-2.045 2.053v17.492c0 1.132 0.917 2.053 2.045 2.053h0.279v-1.030h-0.279c-0.562-0-1.019-0.459-1.019-1.023z"></path>
</svg>
