<!-- Generated by IcoMoon.io -->
<svg version="1.1" xmlns="http://www.w3.org/2000/svg" width="32" height="32" viewBox="0 0 32 32">
<title>article1</title>
<path d="M22.748 13.8h-13.496c-0.28 0-0.507-0.227-0.507-0.507s0.227-0.507 0.507-0.507h13.496c0.28 0 0.507 0.227 0.507 0.507s-0.227 0.507-0.507 0.507zM22.748 17.236h-13.496c-0.28 0-0.507-0.227-0.507-0.507s0.227-0.507 0.507-0.507h13.496c0.28 0 0.507 0.227 0.507 0.507s-0.227 0.507-0.507 0.507zM17.869 20.548h-8.617c-0.28 0-0.507-0.227-0.507-0.507s0.227-0.507 0.507-0.507h8.617c0.28 0 0.507 0.227 0.507 0.507s-0.227 0.507-0.507 0.507zM25.367 4.539h-5.369v-0.434c0-0.807-0.656-1.463-1.463-1.463h-1.916v-0.662c0-0.121-0.098-0.219-0.219-0.219h-0.799c-0.121 0-0.219 0.098-0.219 0.219v0.663h-1.916c-0.807 0-1.463 0.656-1.463 1.463v0.434h-5.368c-0.807 0-1.463 0.656-1.463 1.463v22.775c0 0.807 0.656 1.463 1.463 1.463h18.734c0.807 0 1.463-0.656 1.463-1.463v-22.775c0-0.807-0.656-1.463-1.463-1.463zM13.016 5.552v-1.447c0-0.248 0.202-0.45 0.45-0.45h5.070c0.248 0 0.45 0.202 0.45 0.45v1.881c0 0.248-0.202 0.45-0.45 0.45h-5.070c-0.248 0-0.45-0.202-0.45-0.45v-0.434zM25.817 28.777c0 0.248-0.202 0.45-0.45 0.45h-3.14l3.59-3.59v3.14zM25.817 24.203l-5.014 5.014c-0.003 0.003-0.004 0.006-0.006 0.009h-14.163c-0.248 0-0.45-0.202-0.45-0.45v-22.775c0-0.248 0.202-0.45 0.45-0.45h5.369v0.434c0 0.807 0.656 1.463 1.463 1.463h5.070c0.807 0 1.463-0.656 1.463-1.463v-0.434h5.369c0.248 0 0.45 0.202 0.45 0.45v18.201z"></path>
</svg>
