<!-- Generated by IcoMoon.io -->
<svg version="1.1" xmlns="http://www.w3.org/2000/svg" width="32" height="32" viewBox="0 0 32 32">
<title>article</title>
<path d="M23.582 13.528h-15.164c-0.315 0-0.57-0.255-0.57-0.57s0.255-0.57 0.57-0.57h15.164c0.315 0 0.57 0.255 0.57 0.57s-0.255 0.57-0.569 0.57zM23.582 17.389h-15.164c-0.315 0-0.57-0.255-0.57-0.57s0.255-0.57 0.57-0.57h15.164c0.315 0 0.57 0.255 0.57 0.57s-0.255 0.57-0.569 0.57zM18.1 21.11h-9.682c-0.315 0-0.57-0.255-0.57-0.57s0.255-0.57 0.57-0.57h9.682c0.315 0 0.57 0.255 0.57 0.57s-0.255 0.57-0.57 0.57zM26.525 3.122h-6.032v-0.487c0-0.907-0.738-1.644-1.644-1.644h-2.153v-0.745c-0-0.136-0.11-0.246-0.246-0.246h-0.898c-0.136 0-0.246 0.11-0.246 0.246v0.745h-2.153c-0.907 0-1.644 0.738-1.644 1.644v0.487h-6.032c-0.907 0-1.644 0.738-1.644 1.644v25.59c0 0.907 0.738 1.644 1.644 1.644h21.050c0.907 0 1.644-0.738 1.644-1.644v-25.59c0-0.907-0.738-1.644-1.644-1.644zM12.647 4.261v-1.626c0-0.279 0.226-0.505 0.505-0.505h5.697c0.279 0 0.505 0.226 0.505 0.505v2.114c0 0.279-0.226 0.505-0.505 0.505h-5.697c-0.279 0-0.505-0.226-0.505-0.505v-0.488zM27.030 30.356c0 0.279-0.226 0.505-0.505 0.505h-3.528l4.034-4.034v3.529zM27.030 25.217l-5.634 5.634c-0.003 0.003-0.004 0.007-0.007 0.011h-15.914c-0.279 0-0.505-0.226-0.505-0.505v-25.59c0-0.279 0.226-0.505 0.505-0.505h6.032v0.487c0 0.907 0.738 1.644 1.644 1.644h5.697c0.907 0 1.644-0.738 1.644-1.644v-0.487h6.032c0.279 0 0.505 0.226 0.505 0.505v20.451z"></path>
</svg>
