<!-- Generated by IcoMoon.io -->
<svg version="1.1" xmlns="http://www.w3.org/2000/svg" width="32" height="32" viewBox="0 0 32 32">
<title>bank</title>
<path d="M28.131 13.437v-1.977h1.75v-3.895l-14.006-7.439-14.007 7.439v3.895h1.75v1.977h1.215v13.107h-1.215v1.977h-1.75v3.353h28.013v-3.353h-1.75v-1.977h-1.215v-13.107h1.215zM17.551 26.544v-13.107h1.215v-1.977h3.581v1.977h1.215v13.107h-1.215v1.977h-3.581v-1.977h-1.215zM18.086 27.224v1.297h-4.423v-1.297h4.423zM14.878 26.544v-13.107h1.992v13.107h-1.992zM13.663 12.756v-1.297h4.423v1.297h-4.423zM8.186 26.544v-13.107h1.215v-1.977h3.581v1.977h1.215v13.107h-1.215v1.977h-3.58v-1.977h-1.216zM8.721 11.46v1.297h-4.423v-1.297h4.423zM7.506 13.437v13.107h-1.992v-13.107h1.992zM8.721 27.224v1.297h-4.423v-1.297h4.423zM23.027 28.521v-1.297h4.423v1.297h-4.423zM24.243 26.544v-13.107h1.992v13.107h-1.992zM27.451 11.46v1.297h-4.423v-1.297h4.423zM15.874 0.897l13.326 7.078v2.805h-26.652v-2.805l13.326-7.078zM2.548 31.193v-1.992h26.652v1.992h-26.652zM16.089 8.392v0.365c0 0.112-0.088 0.201-0.2 0.201-0.124 0-0.212-0.089-0.212-0.201v-0.36c-0.501-0.035-0.955-0.218-1.227-0.495-0.047-0.047-0.071-0.112-0.071-0.177 0-0.148 0.118-0.289 0.265-0.289 0.065 0 0.118 0.024 0.165 0.059 0.224 0.189 0.519 0.336 0.867 0.383v-1.303c-0.608-0.165-1.239-0.372-1.239-1.115 0-0.607 0.501-1.061 1.239-1.115v-0.377c0-0.112 0.088-0.201 0.212-0.201 0.112 0 0.2 0.089 0.2 0.201v0.389c0.395 0.042 0.767 0.165 1.026 0.413 0.047 0.047 0.071 0.112 0.071 0.177 0 0.153-0.13 0.277-0.283 0.277-0.041 0-0.094-0.011-0.136-0.041-0.212-0.153-0.436-0.26-0.678-0.295v1.156c0.608 0.165 1.256 0.401 1.256 1.173 0 0.572-0.359 1.103-1.256 1.174zM15.677 4.865c-0.383 0.030-0.637 0.248-0.637 0.555 0 0.289 0.277 0.413 0.637 0.519v-1.073zM16.089 6.688v1.191c0.484-0.059 0.661-0.354 0.661-0.602 0-0.336-0.289-0.478-0.661-0.59z"></path>
</svg>
