<!-- Generated by IcoMoon.io -->
<svg version="1.1" xmlns="http://www.w3.org/2000/svg" width="38" height="32" viewBox="0 0 38 32">
<title>bidirectional-sync</title>
<path d="M31.905 12.455c0.024-0.213 0.024-0.425 0.024-0.614 0-5.365-4.372-9.761-9.761-9.761-3.781 0-7.232 2.222-8.815 5.601-0.756-0.52-1.654-0.804-2.576-0.804-2.505 0-4.514 2.032-4.514 4.514 0 0.354 0.047 0.709 0.142 1.063-2.482 0.945-4.16 3.356-4.16 6.050 0 3.569 2.907 6.476 6.476 6.476h6.948c1.371 3.261 4.609 5.554 8.366 5.554 4.041 0 7.468-2.671 8.65-6.334 0 0 0 0 0 0 2.103-1.134 3.427-3.309 3.427-5.719-0.047-2.647-1.725-5.081-4.207-6.027zM24.012 29.424c-4.372 0-7.941-3.569-7.941-7.941s3.569-7.941 7.941-7.941 7.941 3.569 7.941 7.941c0 4.372-3.569 7.941-7.941 7.941zM32.993 22.665c0.047-0.378 0.071-0.78 0.071-1.182 0-5.010-4.065-9.075-9.075-9.075s-9.052 4.065-9.052 9.075c0 0.827 0.118 1.631 0.331 2.387h-6.57c-2.954 0-5.365-2.411-5.365-5.365 0-2.387 1.607-4.49 3.9-5.152 0.142-0.047 0.284-0.142 0.354-0.284s0.071-0.307 0.024-0.449c-0.142-0.402-0.236-0.804-0.236-1.229 0-1.891 1.536-3.403 3.403-3.403 0.898 0 1.773 0.354 2.411 0.993 0.142 0.142 0.331 0.189 0.52 0.142s0.331-0.165 0.402-0.354c1.253-3.332 4.49-5.578 8.059-5.578 4.75 0 8.626 3.876 8.626 8.626 0 0.307-0.024 0.614-0.047 0.945-0.024 0.26 0.142 0.52 0.402 0.591 2.245 0.685 3.805 2.789 3.805 5.129 0 1.654-0.733 3.167-1.962 4.183zM19.64 20.727l1.985-0.284c0.307-0.047 0.52-0.331 0.473-0.638s-0.331-0.52-0.638-0.473l-0.685 0.095c0.709-1.111 1.914-1.796 3.261-1.796 1.583 0 3.001 0.945 3.592 2.411 0.095 0.213 0.307 0.355 0.52 0.355 0.071 0 0.142-0.024 0.213-0.047 0.284-0.118 0.425-0.449 0.307-0.733-0.78-1.891-2.576-3.12-4.632-3.12-1.702 0-3.238 0.851-4.136 2.222l-0.095-0.638c-0.047-0.307-0.331-0.52-0.638-0.473s-0.52 0.331-0.473 0.638l0.284 1.985c0.047 0.284 0.284 0.473 0.544 0.473 0.047 0.047 0.095 0.047 0.118 0.024zM29.117 22.877c-0.047-0.307-0.331-0.52-0.638-0.473l-1.985 0.284c-0.307 0.047-0.52 0.331-0.473 0.638s0.331 0.52 0.638 0.473l0.591-0.095c-0.709 1.040-1.891 1.702-3.214 1.702-1.583 0-3.001-0.945-3.592-2.411-0.118-0.284-0.449-0.425-0.733-0.307s-0.425 0.449-0.307 0.733c0.78 1.891 2.576 3.12 4.632 3.12 1.702 0 3.238-0.851 4.16-2.222l0.118 0.733c0.047 0.284 0.284 0.473 0.544 0.473 0.024 0 0.047 0 0.071 0 0.307-0.047 0.52-0.331 0.473-0.638l-0.284-2.009z"></path>
</svg>
