<!-- Generated by IcoMoon.io -->
<svg version="1.1" xmlns="http://www.w3.org/2000/svg" width="32" height="32" viewBox="0 0 32 32">
<title>bio-pharmaceuticals</title>
<path d="M25.385 9.83c-0.284-0.256-0.605-0.545-0.976-0.951-0.93-1.014-1.114-2.367-1.148-2.999h0.498c0.567 0 1.029-0.461 1.029-1.029v-3.697c0-0.567-0.462-1.029-1.029-1.029h-15.771c-0.567 0-1.028 0.461-1.028 1.029v3.697c0 0.567 0.461 1.029 1.028 1.029h0.499c-0.032 0.63-0.214 1.979-1.149 2.999-0.371 0.405-0.693 0.695-0.976 0.951-0.752 0.677-1.249 1.125-1.249 2.556v15.707c-0 0.068 0.008 1.686 1.111 2.792 0.654 0.656 1.544 0.989 2.645 0.989l14.008 0.001c1.101 0 1.991-0.333 2.645-0.989 1.103-1.107 1.111-2.724 1.111-2.791v-15.708c-0-1.431-0.497-1.879-1.249-2.556zM9.21 0.877h1.239v4.253h-1.239v-4.253zM11.2 0.877h1.239v4.253h-1.239v-4.253zM13.191 0.877h1.239v4.253h-1.239v-4.253zM15.181 0.877h1.239v4.253h-1.239v-4.253zM17.171 0.877h1.239v4.253h-1.239v-4.253zM19.16 0.877h1.239v4.253h-1.239v-4.253zM21.15 0.877h1.239v4.253h-1.239v-4.253zM24.038 1.155v3.697c0 0.153-0.125 0.278-0.278 0.278h-0.619v-4.254h0.619c0.154 0 0.278 0.124 0.278 0.278zM7.711 4.852v-3.697c0-0.153 0.124-0.278 0.278-0.278h0.471v4.253h-0.471c-0.153 0-0.278-0.124-0.278-0.278zM5.865 14.637h3.425v11.321h-3.425v-11.321zM25.883 16.138h-9.901v0.751h9.901v1.751h-9.901v0.751h9.901v1.751h-9.901v0.751h9.901v1.751h-9.901v0.751h9.901v1.564h-11.873v-11.321h11.873v1.502zM13.26 13.887v12.822h12.624v1.385c0 0.014-0.006 1.372-0.892 2.26-0.508 0.51-1.219 0.769-2.114 0.769l-14.008-0.001c-2.966 0-3.005-2.905-3.006-3.029v-1.385h4.175v-12.822h-4.176v-1.501c0-1.097 0.293-1.36 1.001-1.998 0.282-0.254 0.632-0.569 1.027-1.001 1.114-1.215 1.317-2.781 1.348-3.506h13.267c0.031 0.725 0.234 2.291 1.348 3.506 0.395 0.431 0.746 0.747 1.027 1.001 0.708 0.638 1.001 0.902 1.001 1.998v1.501h-12.624z"></path>
</svg>
