<!-- Generated by IcoMoon.io -->
<svg version="1.1" xmlns="http://www.w3.org/2000/svg" width="32" height="32" viewBox="0 0 32 32">
<title>blog</title>
<path d="M6.286 24h8c0.316 0 0.572-0.256 0.572-0.572s-0.256-0.572-0.572-0.572h-8c-0.316 0-0.572 0.257-0.572 0.572s0.256 0.572 0.572 0.572zM6.286 14.857h8c0.316 0 0.572-0.256 0.572-0.572s-0.256-0.572-0.572-0.572h-8c-0.316 0-0.572 0.256-0.572 0.572s0.256 0.572 0.572 0.572zM6.286 19.428h8c0.316 0 0.572-0.256 0.572-0.572s-0.256-0.572-0.572-0.572h-8c-0.316 0-0.572 0.257-0.572 0.572 0 0.316 0.256 0.572 0.572 0.572zM29.714 2.286h-27.428c-1.262 0-2.286 1.023-2.286 2.286v22.857c0 1.262 1.023 2.286 2.286 2.286h27.428c1.262 0 2.286-1.023 2.286-2.286v-22.857c0-1.262-1.023-2.286-2.286-2.286zM30.857 27.428c0 0.632-0.512 1.143-1.143 1.143h-27.429c-0.631 0-1.143-0.511-1.143-1.143v-18.286h29.714v18.286zM30.857 8h-29.715v-3.428c0-0.631 0.512-1.143 1.143-1.143h27.428c0.631 0 1.143 0.512 1.143 1.143v3.428zM3.428 4.572c-0.631 0-1.143 0.512-1.143 1.143 0 0.632 0.512 1.143 1.143 1.143s1.143-0.511 1.143-1.143c0-0.63-0.511-1.143-1.143-1.143zM10.286 4.572c-0.631 0-1.143 0.512-1.143 1.143 0 0.632 0.512 1.143 1.143 1.143s1.143-0.511 1.143-1.143c0-0.63-0.512-1.143-1.143-1.143zM6.857 4.572c-0.631 0-1.143 0.512-1.143 1.143 0 0.632 0.512 1.143 1.143 1.143s1.143-0.511 1.143-1.143c0-0.63-0.512-1.143-1.143-1.143zM26.181 24.572h-8c-0.63 0-1.143-0.512-1.143-1.143v-9.143c0-0.631 0.513-1.143 1.143-1.143h8c0.63 0 1.143 0.512 1.143 1.143v9.143c0 0.631-0.513 1.143-1.143 1.143zM26.181 23.428v0.572l0.001-0.572c-0 0-0.001 0-0.001 0zM18.181 14.286v9.143h8v-9.143h-8z"></path>
</svg>
