<!-- Generated by IcoMoon.io -->
<svg version="1.1" xmlns="http://www.w3.org/2000/svg" width="32" height="32" viewBox="0 0 32 32">
<title>bonus-plan</title>
<path d="M30.571 5.856h-7.998c-0.138-1.87-1.697-3.358-3.601-3.358-1.143 0-2.181 0.554-2.839 1.385-0.485-1.454-1.835-2.493-3.428-2.493-1.973 0-3.601 1.627-3.601 3.601 0 0.311 0.035 0.589 0.104 0.865h-8.067c-0.623 0-1.143 0.519-1.143 1.143v3.704c0 0.623 0.519 1.143 1.143 1.143h0.831v18.315c0 0.242 0.208 0.45 0.45 0.45h26.901c0.242 0 0.45-0.208 0.45-0.45v-18.314h0.831c0.623 0 1.143-0.519 1.143-1.143v-3.739c-0.070-0.623-0.554-1.108-1.177-1.108zM18.973 3.363c1.419 0 2.597 1.108 2.735 2.493h-5.47c0.138-1.419 1.316-2.493 2.735-2.493zM9.971 4.99c0-1.523 1.246-2.735 2.735-2.735s2.735 1.246 2.735 2.735c0 0.311-0.035 0.589-0.138 0.865h-5.193c-0.069-0.277-0.138-0.589-0.138-0.865zM17.553 11.811v1.627l-3.428 3.427v-2.146l2.873-2.873h0.554v-0.035zM14.264 27.079c-0.069-0.173-0.104-0.381-0.104-0.589v-1.662l3.428-3.428v2.389l-3.324 3.289zM14.16 21.436l3.428-3.427v2.146l-3.428 3.427v-2.146zM17.553 16.796l-3.428 3.428v-2.181l3.428-3.428v2.181zM17.553 25.002v1.489c0 0.935-0.762 1.697-1.697 1.697-0.416 0-0.796-0.138-1.073-0.416l2.77-2.77zM14.16 13.438v-1.627h1.662l-1.662 1.627zM13.295 26.040h-10.456v-14.229h10.456v14.229zM2.839 29.71v-2.77h10.49c0.208 1.212 1.246 2.146 2.527 2.146s2.32-0.935 2.527-2.146h10.49v2.77h-26.036zM28.874 26.040h-10.456v-14.229h10.456v14.229zM30.813 10.668c0 0.138-0.104 0.277-0.277 0.277h-29.428c-0.138 0-0.277-0.104-0.277-0.277v-3.705c0-0.138 0.104-0.277 0.277-0.277h29.428c0.138 0 0.277 0.104 0.277 0.277l0 3.705z"></path>
</svg>
