<!-- Generated by IcoMoon.io -->
<svg version="1.1" xmlns="http://www.w3.org/2000/svg" width="32" height="32" viewBox="0 0 32 32">
<title>brain-lightbulb</title>
<path d="M23.165 10.899c-0.001 0.62-0.502 1.12-1.121 1.122-0 0-0.001 0-0.001 0s-0.001 0-0.001 0h-1.371c-0.159-0.896-0.94-1.578-1.882-1.578-0.185 0-0.336 0.15-0.336 0.336s0.15 0.336 0.336 0.336c0.569 0.001 1.047 0.384 1.195 0.906h-0.207c-0.186 0-0.336 0.15-0.336 0.336s0.15 0.336 0.336 0.336v0h0.588c0 0 0.001 0 0.002 0s0.001 0 0.002 0h1.675c0.377 0.001 0.683 0.306 0.683 0.684v0c0 0.024-0.002 0.047-0.004 0.071-0.036 0.344-0.326 0.612-0.68 0.613-0.377-0.001-0.683-0.306-0.684-0.683 0-0.185-0.15-0.336-0.336-0.336s-0.336 0.15-0.336 0.336c0 0.556 0.335 1.032 0.813 1.241-0.006 0-0.011 0.001-0.017 0.001h-2.605c-0 0-0.001 0-0.001 0-0.334 0-0.637-0.133-0.86-0.348h0.967c0.185 0 0.336-0.15 0.336-0.336s-0.15-0.336-0.336-0.336h-2.053c-0.569-0.001-1.047-0.384-1.195-0.906h1.057c0.001 0 0.001 0 0.002 0s0.001 0 0.002 0h0.805c0.185 0 0.336-0.15 0.336-0.336s-0.15-0.336-0.336-0.336h-0.471l-0-1.413c0.896-0.159 1.578-0.94 1.578-1.882 0-0.185-0.15-0.336-0.336-0.336s-0.336 0.15-0.336 0.336c-0.001 0.583-0.403 1.069-0.943 1.204-0.174-0.878-0.948-1.54-1.876-1.54-0.185 0-0.336 0.15-0.336 0.336s0.15 0.336 0.336 0.336c0.685 0.001 1.241 0.556 1.242 1.241 0 0 0 0.001 0 0.001s0 0.001 0 0.001v1.716h-4.937c0.147-0.523 0.625-0.905 1.194-0.906 0.185 0 0.336-0.15 0.336-0.336s-0.15-0.335-0.336-0.335v-0c-0.942 0-1.723 0.681-1.882 1.578h-0.796c-0.62-0.001-1.121-0.503-1.122-1.123 0-0.331 0.144-0.626 0.373-0.832h1.932c1.057-0 1.913-0.857 1.913-1.913 0-0.186-0.15-0.336-0.335-0.336s-0.336 0.15-0.336 0.336c-0.001 0.686-0.556 1.241-1.242 1.242h-1.878c-0.102-0.169-0.161-0.365-0.162-0.578 0.001-0.62 0.502-1.121 1.122-1.123 0.044 0 0.090 0.004 0.14 0.010 0.012 0.002 0.024 0.002 0.037 0.002 0.011 0 0.022-0.001 0.033-0.002l0.742 0.742c0.066 0.066 0.151 0.098 0.237 0.098s0.172-0.033 0.237-0.098c0.131-0.131 0.131-0.344 0-0.475l-0.913-0.913c0.066-0.558 0.539-0.991 1.114-0.992 0.119 0 0.233 0.019 0.34 0.053 0.033 0.011 0.068 0.016 0.102 0.016 0.059 0 0.118-0.016 0.171-0.047 0.083-0.049 0.14-0.13 0.158-0.224 0.102-0.513 0.555-0.902 1.099-0.902 0.001 0 0.001 0 0.002 0 0.18 0 0.348 0.042 0.498 0.117 0.099 0.964 0.913 1.716 1.903 1.716 0.185 0 0.335-0.15 0.335-0.336s-0.15-0.336-0.335-0.336c-0.654-0.001-1.188-0.506-1.237-1.147 0.204-0.288 0.535-0.476 0.913-0.476h0.001c0.398 0 0.745 0.207 0.946 0.521 0.050 0.078 0.129 0.132 0.22 0.149 0.021 0.004 0.042 0.006 0.063 0.006 0.070 0 0.139-0.022 0.196-0.063 0.186-0.133 0.409-0.212 0.654-0.212h0c0.574 0 1.046 0.433 1.112 0.989l-0.709 1.062c-0.103 0.154-0.061 0.363 0.093 0.466 0.057 0.038 0.122 0.057 0.186 0.057 0.108 0 0.215-0.052 0.279-0.149l0.719-1.076c0.132-0.055 0.275-0.086 0.426-0.087 0.538 0.001 0.986 0.379 1.096 0.883-0.885 0.168-1.554 0.945-1.554 1.878 0 0.185 0.15 0.336 0.336 0.336s0.336-0.15 0.336-0.336c0.001-0.685 0.555-1.24 1.24-1.242 0.612 0.009 1.107 0.507 1.106 1.121-0 0.229-0.068 0.439-0.186 0.617-0.052 0.079-0.068 0.177-0.045 0.268s0.085 0.17 0.169 0.214c0.357 0.188 0.6 0.562 0.6 0.994zM13.576 9.368c-0.185 0-0.336 0.15-0.336 0.336s0.15 0.336 0.336 0.336c0.686 0.001 1.241 0.556 1.242 1.242 0 0.185 0.15 0.336 0.336 0.336s0.336-0.151 0.336-0.336c-0-1.057-0.857-1.913-1.913-1.913zM17.456 7.821c0-0.186-0.15-0.336-0.336-0.336h-2.052c-0.686-0.001-1.241-0.556-1.242-1.242 0-0.185-0.15-0.335-0.336-0.335s-0.336 0.15-0.336 0.335c0 1.057 0.857 1.913 1.914 1.914h2.052c0.186 0 0.336-0.15 0.336-0.336zM25.363 11.22v0zM23.836 10.899c-0-0.569-0.265-1.076-0.678-1.404 0.089-0.212 0.138-0.446 0.138-0.69-0-0.875-0.626-1.602-1.453-1.761-0.118-0.876-0.869-1.552-1.778-1.552-0 0-0.001 0-0.002 0-0.131 0-0.258 0.014-0.381 0.041-0.213-0.752-0.904-1.302-1.724-1.302-0.001 0-0.001 0-0.002 0-0.274 0-0.533 0.063-0.765 0.173-0.327-0.352-0.794-0.573-1.313-0.573-0.539 0-1.023 0.239-1.351 0.616-0.222-0.099-0.469-0.154-0.727-0.154-0.751 0.001-1.394 0.461-1.661 1.116-0.069-0.008-0.14-0.012-0.211-0.012-0.937 0-1.706 0.718-1.787 1.635-0.916 0.081-1.634 0.85-1.635 1.787 0 0.31 0.080 0.603 0.219 0.858-0.299 0.32-0.484 0.75-0.484 1.223 0 0.991 0.803 1.793 1.794 1.794h1.099c0.001 0 0.001 0 0.002 0s0.001 0 0.002 0h3.909c0.159 0.896 0.94 1.578 1.882 1.578h0.257c0.321 0.606 0.956 1.019 1.69 1.020 0 0 0.001 0 0.001 0l2.605-0c1.010-0 1.835-0.783 1.907-1.774 0.004-0.046 0.007-0.092 0.007-0.139v0c-0-0.376-0.153-0.715-0.4-0.961 0.504-0.317 0.839-0.877 0.84-1.516zM17.19 30.428h-1.816c-0.718 0-1.303-0.584-1.303-1.302 0-0.229 0.059-0.444 0.164-0.631h-1.381c-0.718 0-1.303-0.584-1.303-1.303 0-0.382 0.165-0.726 0.428-0.964-0.262-0.238-0.428-0.582-0.428-0.964 0-0.4 0.181-0.758 0.466-0.997-0.237-0.22-0.397-0.525-0.435-0.873-0.145-1.336-0.487-2.471-1.044-3.471-0.302-0.541-0.665-1.050-1.079-1.513-0.121-0.135-0.244-0.268-0.368-0.4-0.283-0.303-0.575-0.617-0.836-0.963-0.786-1.041-1.364-2.26-1.67-3.524-0.294-1.214-0.332-2.451-0.116-3.782 0.086-0.532 0.187-1.1 0.388-1.678 0.217-0.625 0.5-1.229 0.841-1.797 0.673-1.121 1.588-2.114 2.646-2.874 2.17-1.557 4.913-2.153 7.527-1.636 2.141 0.423 4.098 1.581 5.511 3.261 1.422 1.691 2.226 3.839 2.265 6.049 0.031 0.566-0.020 1.257-0.144 1.932v0c-0.235 1.278-0.743 2.526-1.469 3.609-0.348 0.518-0.76 0.98-1.159 1.426-0.443 0.496-0.862 0.965-1.201 1.507-0.626 1-1.037 2.154-1.19 3.337l-0.020 0.165c-0.048 0.41-0.105 0.897-0.46 1.234 0.278 0.239 0.454 0.593 0.454 0.988 0 0.382-0.165 0.726-0.428 0.964 0.262 0.238 0.428 0.582 0.428 0.964 0 0.718-0.584 1.303-1.303 1.303h-0.824c0.104 0.187 0.163 0.403 0.163 0.631 0 0.718-0.584 1.303-1.303 1.303zM15.374 28.494c-0.348 0-0.631 0.283-0.631 0.631s0.283 0.631 0.631 0.631h1.816c0.348 0 0.631-0.283 0.631-0.631s-0.283-0.631-0.631-0.631h-1.816zM12.788 26.564c-0.317 0.033-0.565 0.302-0.565 0.627 0 0.348 0.283 0.631 0.631 0.631h6.3c0.348 0 0.631-0.283 0.631-0.631 0-0.325-0.248-0.594-0.565-0.627-0.022 0.001-0.044 0.002-0.066 0.002h-6.3c-0.022 0-0.044-0-0.066-0.002zM12.854 25.888h6.3c0.022 0 0.044 0 0.066 0.002 0.317-0.033 0.565-0.302 0.565-0.627 0-0.348-0.283-0.631-0.631-0.631h-6.3c-0.348 0-0.631 0.283-0.631 0.631 0 0.325 0.248 0.594 0.565 0.627 0.022-0.001 0.044-0.002 0.066-0.002zM13.014 23.96h0.027c0.027-0 0.054-0 0.082-0.001l5.798-0.001c0.156 0 0.29 0 0.408-0.045 0.357-0.137 0.405-0.42 0.467-0.95l0.021-0.174c0.165-1.278 0.611-2.526 1.287-3.607 0.369-0.59 0.827-1.102 1.269-1.598 0.401-0.449 0.78-0.873 1.101-1.353 0.675-1.007 1.148-2.167 1.366-3.356v0c0.115-0.625 0.163-1.26 0.134-1.787-0.036-2.069-0.785-4.068-2.108-5.641-1.314-1.563-3.135-2.64-5.127-3.034-2.431-0.481-4.985 0.074-7.004 1.523-0.985 0.706-1.836 1.631-2.462 2.673-0.317 0.528-0.58 1.091-0.782 1.672-0.183 0.528-0.278 1.063-0.359 1.565-0.201 1.242-0.166 2.392 0.106 3.517 0.284 1.175 0.821 2.308 1.553 3.277 0.24 0.318 0.508 0.605 0.791 0.91 0.126 0.135 0.253 0.271 0.377 0.41 0.447 0.5 0.839 1.050 1.165 1.634 0.603 1.080 0.971 2.299 1.125 3.726 0.040 0.366 0.323 0.629 0.689 0.64 0.025 0.001 0.050 0.001 0.075 0.002zM31.664 12.074h-4.112c-0.186 0-0.336-0.15-0.336-0.336s0.15-0.336 0.336-0.336h4.112c0.186 0 0.336 0.15 0.336 0.336s-0.15 0.336-0.336 0.336zM4.448 12.074h-4.112c-0.186 0-0.336-0.15-0.336-0.336s0.15-0.336 0.336-0.336h4.112c0.186 0 0.336 0.15 0.336 0.336s-0.15 0.336-0.336 0.336zM30.574 17.815c-0.041 0-0.083-0.008-0.123-0.024l-3.826-1.507c-0.173-0.068-0.258-0.263-0.189-0.436s0.264-0.257 0.436-0.189l3.826 1.507c0.173 0.068 0.258 0.263 0.189 0.436-0.052 0.132-0.179 0.213-0.312 0.213zM5.252 7.84c-0.041 0-0.083-0.008-0.123-0.023l-3.826-1.507c-0.173-0.068-0.258-0.263-0.189-0.436s0.263-0.257 0.436-0.189l3.826 1.507c0.173 0.068 0.258 0.263 0.189 0.436-0.052 0.132-0.179 0.213-0.313 0.213zM26.594 7.468c-0.13 0-0.253-0.076-0.308-0.202-0.074-0.17 0.004-0.368 0.174-0.442l3.771-1.64c0.17-0.074 0.368 0.004 0.442 0.174s-0.004 0.368-0.174 0.442l-3.771 1.64c-0.044 0.019-0.089 0.028-0.133 0.028zM1.636 18.32c-0.13 0-0.253-0.076-0.308-0.202-0.074-0.17 0.004-0.368 0.174-0.442l3.771-1.64c0.171-0.074 0.368 0.004 0.442 0.174s-0.004 0.368-0.174 0.442l-3.771 1.639c-0.044 0.019-0.089 0.028-0.134 0.028z"></path>
</svg>
