<!-- Generated by IcoMoon.io -->
<svg version="1.1" xmlns="http://www.w3.org/2000/svg" width="32" height="32" viewBox="0 0 32 32">
<title>bus</title>
<path d="M24.248 20.701c-1.555 0-2.828 1.272-2.828 2.828s1.272 2.828 2.828 2.828 2.828-1.272 2.828-2.828-1.272-2.828-2.828-2.828zM24.248 25.049c-0.848 0-1.52-0.671-1.52-1.52s0.671-1.52 1.52-1.52 1.52 0.671 1.52 1.52c0 0.813-0.672 1.52-1.52 1.52zM7.565 20.701c-1.555 0-2.828 1.272-2.828 2.828s1.272 2.828 2.828 2.828 2.828-1.272 2.828-2.828-1.272-2.828-2.828-2.828zM7.565 25.049c-0.848 0-1.52-0.671-1.52-1.52s0.671-1.52 1.52-1.52 1.52 0.671 1.52 1.52c-0 0.813-0.707 1.52-1.52 1.52zM30.54 7.729h-0.99v-1.838c0-2.722-0.353-5.585-4.348-5.585h-17.32c-4.065 0-5.585 1.343-5.585 4.984v2.439h-1.025c-0.707 0-1.272 0.565-1.272 1.272v4.949c0 0.707 0.565 1.272 1.272 1.272h1.025v10.498c0 0.884 0.283 1.52 0.671 1.979-0.035 0.071-0.071 0.177-0.071 0.283v1.838c0 1.025 0.848 1.873 1.873 1.873h2.474c1.025 0 1.873-0.848 1.873-1.873v-0.99h13.538v0.99c0 1.025 0.848 1.873 1.873 1.873h2.474c1.025 0 1.873-0.848 1.873-1.873v-1.838c0-0.106-0.035-0.212-0.071-0.283 0.424-0.459 0.671-1.096 0.671-1.979v-10.533h0.99c0.707 0 1.272-0.565 1.272-1.272v-4.949c0.071-0.672-0.495-1.237-1.202-1.237zM2.262 13.914l-0.99 0.035v-4.949h1.025v4.913h-0.036zM7.847 29.821c0 0.318-0.247 0.601-0.601 0.601h-2.474c-0.318 0-0.601-0.247-0.601-0.601v-1.343c0.919 0.353 1.944 0.353 2.439 0.353h1.202v0.99h0.036zM27.642 29.821c0 0.318-0.247 0.601-0.601 0.601h-2.474c-0.318 0-0.601-0.247-0.601-0.601v-0.99h1.202c0.53 0 1.52 0 2.439-0.353v1.343h0.036zM28.243 25.685c0 1.096-0.53 1.838-3.075 1.838h-18.522c-2.545 0-3.075-0.742-3.075-1.838v-20.395c0-2.899 0.919-3.676 4.312-3.676h17.32c2.368 0 3.075 0.954 3.075 4.312v19.759h-0.035zM29.551 13.914v-4.913l0.99-0.035 0.035 4.913h-1.025v0.035zM9.721 4.724h12.973c0.353 0 0.636-0.283 0.636-0.636s-0.283-0.636-0.636-0.636h-12.973c-0.353 0-0.636 0.283-0.636 0.636s0.283 0.636 0.636 0.636zM24.567 6.492h-17.32c-1.591 0-2.51 0.919-2.51 2.51v7.423c0 1.591 0.919 2.51 2.51 2.51l17.32-0.035c1.025 0 2.51-0.884 2.51-2.439v-7.423c0-1.626-0.919-2.545-2.51-2.545zM25.769 16.424c0 0.813-0.848 1.166-1.202 1.166v0l-17.32 0.035c-0.884 0-1.202-0.318-1.202-1.202v-7.423c0-0.884 0.318-1.202 1.202-1.202h17.32c0.884 0 1.202 0.318 1.202 1.202v7.423z"></path>
</svg>
