<!-- Generated by IcoMoon.io -->
<svg version="1.1" xmlns="http://www.w3.org/2000/svg" width="32" height="32" viewBox="0 0 32 32">
<title>buyers-guide</title>
<path d="M5.905 14.257c0.068 0 0.138-0.012 0.206-0.039l0.053-0.019c0.284-0.095 0.548-0.125 0.779-0.090 0.308 0.043 0.603-0.169 0.65-0.481s-0.169-0.603-0.481-0.65c-0.4-0.059-0.851-0.017-1.316 0.138l-0.096 0.036c-0.294 0.114-0.44 0.444-0.326 0.74 0.087 0.227 0.303 0.365 0.533 0.365zM3.274 16.57c0.076 0.035 0.155 0.050 0.233 0.050 0.219 0 0.427-0.125 0.522-0.337 0.108-0.243 0.301-0.537 0.541-0.826 0.202-0.243 0.167-0.604-0.075-0.805s-0.603-0.169-0.805 0.075c-0.308 0.373-0.552 0.749-0.704 1.087-0.129 0.288 0 0.627 0.288 0.756zM14.2 17.766c-0.289 0.26-0.575 0.552-0.843 0.829-0.219 0.228-0.213 0.589 0.014 0.809 0.11 0.107 0.254 0.161 0.397 0.161 0.149 0 0.299-0.058 0.411-0.174 0.254-0.263 0.524-0.539 0.785-0.775 0.235-0.211 0.254-0.572 0.044-0.807s-0.572-0.254-0.808-0.043zM7.032 18.123c-0.175 0.446-0.299 0.827-0.379 1.164-0.073 0.307 0.117 0.616 0.424 0.689 0.044 0.010 0.089 0.016 0.133 0.016 0.259 0 0.493-0.177 0.556-0.44 0.068-0.284 0.176-0.615 0.33-1.011 0.116-0.293-0.029-0.625-0.323-0.74s-0.626 0.028-0.74 0.322zM8.154 20.949c-0.267-0.169-0.62-0.090-0.789 0.176s-0.090 0.62 0.176 0.789c0.389 0.248 0.855 0.377 1.386 0.386h0.010c0.311 0 0.566-0.25 0.571-0.564 0.005-0.315-0.247-0.575-0.563-0.58s-0.582-0.075-0.79-0.208zM8.261 16.761c0.059 0.018 0.118 0.027 0.176 0.027 0.241 0 0.465-0.154 0.544-0.396l0.021-0.071c0.074-0.266 0.112-0.539 0.112-0.812 0.001-0.175-0.015-0.353-0.046-0.524-0.057-0.31-0.352-0.515-0.665-0.461-0.31 0.057-0.516 0.355-0.46 0.665 0.019 0.105 0.028 0.211 0.028 0.319 0 0.171-0.023 0.34-0.077 0.535-0.096 0.3 0.068 0.622 0.368 0.719zM21.714 4.572h-1.143l-9.143-2.286h-1.143l-10.286 2.286v25.143l10.286-2.286h1.143l9.143 2.286h1.143l10.286-2.286v-25.143l-10.286 2.286zM10.286 26.286h-0.125l-0.122 0.028-8.895 1.977v-22.801l9.143-2.032v22.829zM20.572 18.958c-0.21-0.19-0.421-0.38-0.633-0.565-0.24-0.205-0.6-0.18-0.806 0.059-0.206 0.24-0.18 0.6 0.059 0.807 0.272 0.234 0.54 0.478 0.843 0.752 0.105 0.095 0.233 0.142 0.362 0.142 0.060 0 0.118-0.019 0.176-0.039v8.423l-9.002-2.251h-0.14v-4.65c0.196-0.098 0.381-0.2 0.54-0.299 0.164-0.102 0.321-0.21 0.474-0.325 0.252-0.19 0.304-0.548 0.114-0.8-0.189-0.253-0.548-0.304-0.8-0.116-0.107 0.080-0.217 0.154-0.329 0.227v-16.858l9.002 2.25h0.14v13.243zM30.857 26.512l-9.143 2.031v-7.144c0.034 0.045 0.067 0.089 0.114 0.124 0.359 0.262 0.698 0.476 1.035 0.654 0.085 0.044 0.176 0.066 0.266 0.066 0.205 0 0.404-0.11 0.506-0.305 0.147-0.279 0.041-0.625-0.238-0.772-0.288-0.153-0.581-0.338-0.896-0.567-0.251-0.182-0.599-0.13-0.787 0.115v-15h0.125l0.123-0.027 8.894-1.977v22.802zM28.214 15.759c-0.308 0.069-0.502 0.375-0.432 0.683 0.082 0.367 0.146 0.728 0.188 1.071 0.036 0.289 0.282 0.501 0.566 0.501 0.024 0 0.047-0.001 0.071-0.004 0.313-0.039 0.536-0.324 0.497-0.637-0.047-0.382-0.117-0.779-0.208-1.181-0.069-0.309-0.375-0.502-0.682-0.433zM28.617 19.158c-0.31-0.055-0.608 0.149-0.664 0.461-0.064 0.354-0.164 0.668-0.296 0.933-0.141 0.282-0.026 0.626 0.257 0.767 0.082 0.041 0.169 0.060 0.254 0.060 0.21 0 0.412-0.116 0.512-0.317 0.181-0.363 0.314-0.779 0.397-1.24 0.056-0.31-0.15-0.608-0.461-0.664zM23.297 9.709l1.836 0.612-0.884 1.986c-0.129 0.288 0.001 0.627 0.289 0.756 0.075 0.034 0.155 0.049 0.232 0.049 0.219 0 0.428-0.126 0.522-0.339l0.93-2.087 1.646 0.549c0.060 0.020 0.121 0.030 0.181 0.030 0.239 0 0.463-0.152 0.542-0.392 0.1-0.299-0.062-0.623-0.362-0.723l-1.54-0.513 0.589-1.321c0.128-0.288-0.001-0.627-0.289-0.756-0.289-0.13-0.627 0.001-0.755 0.29l-0.635 1.423-1.942-0.647c-0.3-0.101-0.623 0.061-0.723 0.362-0.1 0.298 0.062 0.623 0.361 0.723zM27.867 14.668c0.291-0.121 0.43-0.455 0.309-0.748-0.158-0.38-0.33-0.746-0.511-1.085-0.149-0.279-0.494-0.384-0.773-0.236s-0.383 0.495-0.234 0.774c0.164 0.307 0.32 0.637 0.463 0.983 0.091 0.221 0.304 0.354 0.528 0.354 0.073 0 0.147-0.015 0.218-0.044zM17.94 16.992c-0.455-0.21-0.905-0.318-1.335-0.321h-0.004c-0.314 0-0.569 0.253-0.572 0.568s0.251 0.574 0.566 0.576c0.272 0.002 0.556 0.074 0.868 0.217 0.077 0.036 0.158 0.052 0.238 0.052 0.217 0 0.424-0.124 0.519-0.334 0.132-0.287 0.006-0.627-0.281-0.758zM26.314 21.626c-0.071 0.018-0.145 0.031-0.22 0.041-0.209 0.030-0.418 0.046-0.617 0.046l-0.148-0.004c-0.313-0.016-0.579 0.239-0.589 0.554s0.238 0.58 0.554 0.589l0.179 0.004c0.258 0 0.522-0.019 0.784-0.057 0.111-0.016 0.218-0.036 0.322-0.060 0.308-0.073 0.497-0.38 0.425-0.689-0.073-0.307-0.381-0.494-0.688-0.425z"></path>
</svg>
