<!-- Generated by IcoMoon.io -->
<svg version="1.1" xmlns="http://www.w3.org/2000/svg" width="32" height="32" viewBox="0 0 32 32">
<title>call-center</title>
<path d="M25.205 9.931c-0.729-1.437-1.809-2.664-3.091-3.632-2.63-1.986-6.19-2.561-9.329-1.594-3.122 0.962-5.622 3.384-6.757 6.435-1.149 3.088-0.696 6.676 1.136 9.405 1.838 2.738 4.888 4.46 8.176 4.645 3.255 0.183 6.503-1.245 8.584-3.75 1.566-1.886 2.433-4.266 2.439-6.718v0c-0.004-1.667-0.403-3.305-1.158-4.791zM25.063 15.938c-0.001 0.009-0.002 0.016-0.003 0.022-0 0.002-0.001 0.004-0.001 0.006-0.007 0.047-0.014 0.095-0.021 0.142-0.015 0.094-0.031 0.189-0.049 0.283-0.037 0.202-0.083 0.403-0.133 0.602-0.095 0.379-0.216 0.752-0.356 1.117-0.025 0.066-0.052 0.131-0.078 0.197-0.005 0.011-0.030 0.071-0.037 0.087-0.019 0.043-0.038 0.085-0.057 0.127-0.083 0.183-0.173 0.362-0.267 0.539-0.18 0.339-0.382 0.666-0.6 0.981-0.052 0.076-0.106 0.15-0.16 0.224-0.027 0.037-0.055 0.074-0.083 0.11-0.001 0.002-0.003 0.003-0.004 0.005-0.003 0.004-0.008 0.010-0.013 0.016-0.123 0.156-0.251 0.308-0.383 0.456-0.253 0.285-0.525 0.555-0.809 0.809-0.137 0.122-0.277 0.24-0.42 0.354-0.009 0.007-0.037 0.029-0.056 0.044-0.025 0.019-0.050 0.037-0.075 0.056-0.086 0.064-0.173 0.126-0.261 0.188-0.315 0.22-0.643 0.419-0.981 0.6-0.163 0.088-0.329 0.17-0.497 0.248-0.069 0.032-0.139 0.063-0.209 0.094-0.023 0.010-0.058 0.025-0.070 0.030-0.057 0.023-0.115 0.046-0.173 0.069-0.364 0.142-0.738 0.258-1.117 0.356-0.184 0.047-0.369 0.087-0.556 0.124-0.094 0.018-0.188 0.035-0.282 0.050-0.047 0.008-0.095 0.015-0.142 0.022-0.016 0.003-0.032 0.005-0.049 0.007-0.007 0.001-0.016 0.002-0.027 0.003-0.806 0.101-1.626 0.097-2.432 0-0.009-0.001-0.016-0.002-0.022-0.003-0.002-0-0.004-0.001-0.006-0.001-0.047-0.007-0.095-0.014-0.142-0.021-0.094-0.015-0.189-0.031-0.283-0.049-0.202-0.037-0.403-0.083-0.602-0.133-0.379-0.095-0.752-0.216-1.117-0.356-0.066-0.025-0.131-0.052-0.196-0.078-0.010-0.005-0.072-0.030-0.087-0.037-0.043-0.019-0.085-0.038-0.127-0.057-0.183-0.083-0.362-0.173-0.539-0.267-0.339-0.18-0.666-0.382-0.981-0.6-0.076-0.052-0.15-0.106-0.224-0.16-0.037-0.027-0.074-0.055-0.11-0.083-0.002-0.001-0.003-0.002-0.004-0.003-0.005-0.004-0.010-0.008-0.017-0.013-0.156-0.123-0.308-0.251-0.457-0.383-0.285-0.253-0.555-0.525-0.809-0.809-0.122-0.137-0.24-0.277-0.354-0.42-0.007-0.009-0.029-0.037-0.044-0.056-0.019-0.025-0.037-0.049-0.056-0.074-0.064-0.086-0.126-0.173-0.188-0.261-0.22-0.315-0.419-0.643-0.6-0.981-0.088-0.163-0.17-0.329-0.248-0.497-0.032-0.070-0.064-0.14-0.094-0.21-0.010-0.023-0.024-0.057-0.029-0.069-0.024-0.057-0.046-0.115-0.069-0.173-0.142-0.364-0.258-0.738-0.356-1.117-0.047-0.184-0.088-0.369-0.124-0.556-0.018-0.094-0.035-0.188-0.050-0.282-0.008-0.047-0.015-0.095-0.022-0.142-0.003-0.017-0.005-0.033-0.007-0.049-0.001-0.007-0.002-0.015-0.003-0.026-0.050-0.403-0.073-0.81-0.074-1.216s0.026-0.812 0.074-1.216c0.001-0.009 0.002-0.016 0.003-0.022 0-0.002 0.001-0.004 0.001-0.006 0.007-0.048 0.014-0.095 0.021-0.142 0.015-0.094 0.031-0.189 0.049-0.283 0.037-0.202 0.083-0.403 0.133-0.602 0.095-0.379 0.216-0.752 0.356-1.117 0.025-0.066 0.052-0.131 0.078-0.197 0.005-0.011 0.030-0.071 0.037-0.087 0.019-0.043 0.038-0.085 0.057-0.127 0.083-0.183 0.173-0.362 0.267-0.539 0.18-0.339 0.382-0.666 0.6-0.981 0.052-0.076 0.106-0.15 0.16-0.224 0.027-0.037 0.055-0.074 0.083-0.11 0.001-0.002 0.002-0.003 0.003-0.004 0.004-0.005 0.008-0.010 0.013-0.017 0.123-0.156 0.251-0.308 0.383-0.457 0.253-0.285 0.525-0.555 0.809-0.809 0.137-0.122 0.277-0.24 0.42-0.354 0.009-0.007 0.037-0.029 0.056-0.044 0.025-0.019 0.049-0.037 0.074-0.056 0.086-0.064 0.173-0.126 0.261-0.188 0.315-0.22 0.643-0.419 0.981-0.6 0.163-0.088 0.329-0.17 0.497-0.248 0.070-0.032 0.14-0.064 0.21-0.094 0.023-0.010 0.058-0.025 0.069-0.029 0.057-0.024 0.115-0.046 0.173-0.069 0.364-0.142 0.738-0.258 1.117-0.356 0.184-0.047 0.369-0.088 0.556-0.124 0.094-0.018 0.188-0.035 0.282-0.050 0.047-0.008 0.095-0.015 0.142-0.022 0.017-0.003 0.033-0.005 0.049-0.007 0.007-0.001 0.015-0.002 0.026-0.003 0.806-0.101 1.626-0.097 2.432 0 0.009 0.001 0.016 0.002 0.022 0.003 0.002 0 0.004 0.001 0.006 0.001 0.047 0.007 0.095 0.014 0.142 0.021 0.094 0.015 0.189 0.031 0.283 0.049 0.202 0.037 0.403 0.083 0.602 0.133 0.379 0.095 0.752 0.216 1.117 0.356 0.066 0.025 0.131 0.052 0.197 0.079 0.012 0.005 0.071 0.030 0.087 0.037 0.043 0.019 0.085 0.038 0.127 0.057 0.183 0.083 0.362 0.173 0.539 0.267 0.339 0.18 0.666 0.382 0.981 0.6 0.076 0.052 0.15 0.106 0.224 0.16 0.037 0.027 0.074 0.055 0.11 0.083 0.002 0.001 0.003 0.003 0.005 0.004 0.004 0.003 0.010 0.008 0.016 0.013 0.156 0.123 0.308 0.251 0.457 0.383 0.285 0.253 0.555 0.525 0.809 0.809 0.122 0.137 0.24 0.277 0.354 0.42 0.007 0.009 0.028 0.036 0.043 0.055 0.019 0.025 0.038 0.050 0.057 0.075 0.064 0.086 0.126 0.173 0.188 0.261 0.22 0.315 0.419 0.643 0.6 0.981 0.088 0.163 0.17 0.329 0.248 0.497 0.032 0.070 0.064 0.14 0.094 0.21 0.010 0.023 0.025 0.058 0.030 0.070 0.023 0.057 0.046 0.115 0.069 0.173 0.142 0.364 0.258 0.738 0.356 1.117 0.047 0.184 0.087 0.369 0.124 0.556 0.018 0.094 0.035 0.188 0.050 0.282 0.008 0.047 0.015 0.095 0.022 0.142 0.003 0.016 0.005 0.032 0.007 0.049 0.001 0.007 0.002 0.016 0.003 0.027 0.050 0.403 0.073 0.81 0.074 1.216-0.001 0.406-0.026 0.812-0.075 1.216zM30.515 19.601c0.651 0 1.158-0.453 1.223-1.091 0.003-0.026 0.006-0.053 0.006-0.080v-0c0 0 0-0 0-0 0-1.732 0-3.463 0-5.195 0-0.277 0.029-0.586-0.053-0.855-0.152-0.498-0.628-0.823-1.141-0.823-0.202 0-0.404 0-0.606 0-0.265 0-0.53 0-0.794 0-0.133 0-0.263 0.004-0.389 0.023-0.451-2.393-1.562-4.636-3.218-6.457-2.182-2.399-5.229-3.877-8.447-4.195-3.22-0.318-6.538 0.627-9.111 2.585-2.557 1.946-4.367 4.781-4.978 7.945-0.008 0.039-0.014 0.078-0.021 0.117-0.066-0.011-0.134-0.017-0.202-0.017-0.202 0-0.404 0-0.606 0-0.265 0-0.53 0-0.794 0-0.292 0-0.568 0.018-0.828 0.176-0.353 0.213-0.554 0.611-0.554 1.018 0 0.092 0 0.184 0 0.277 0 1.79 0 3.58 0 5.37 0 0.55 0.364 1.056 0.913 1.175 0.284 0.061 0.599 0.030 0.887 0.030 0.316 0 0.632 0 0.948 0 0.053 0 0.105-0.003 0.156-0.009 0.409 2.703 1.726 5.233 3.752 7.105 1.599 1.478 3.598 2.515 5.731 2.956 0.061 0.013 0.123 0.017 0.183 0.015 0.241 0.84 1.003 1.441 1.909 1.457 0.449 0.008 0.912 0.027 1.357-0.042 0.904-0.141 1.542-1.004 1.586-1.883 0.002-0.021 0.003-0.042 0.003-0.064-0-0.012-0.001-0.023-0.001-0.035-0-0.009-0-0.018-0.001-0.028-0.023-0.489-0.21-0.926-0.533-1.295-0.336-0.383-0.817-0.564-1.309-0.624-0.221-0.027-0.453-0.007-0.675-0.007-0.281 0-0.547-0.001-0.826 0.042-0.677 0.106-1.225 0.63-1.461 1.26-0.365-0.078-0.725-0.173-1.081-0.286-0.184-0.058-0.366-0.122-0.546-0.19-0.090-0.034-0.179-0.069-0.268-0.105-0.026-0.010-0.052-0.021-0.078-0.032 0.008 0.003-0.108-0.047-0.128-0.056-0.725-0.32-1.413-0.72-2.056-1.182-0.077-0.055-0.152-0.112-0.228-0.169-0.003-0.002-0.006-0.004-0.009-0.007-0.005-0.004-0.010-0.008-0.017-0.013-0.037-0.029-0.074-0.059-0.111-0.088-0.16-0.128-0.315-0.261-0.467-0.398-0.293-0.262-0.571-0.541-0.836-0.831-0.127-0.14-0.25-0.283-0.37-0.429-0.049-0.060-0.097-0.12-0.145-0.181-0.015-0.019-0.043-0.056-0.051-0.066-0.038-0.050-0.076-0.101-0.113-0.152-0.233-0.318-0.449-0.65-0.648-0.991-0.232-0.396-0.437-0.807-0.619-1.227-0.009-0.021-0.029-0.068-0.034-0.081-0.024-0.059-0.048-0.119-0.071-0.178-0.047-0.12-0.090-0.24-0.133-0.361-0.085-0.244-0.161-0.49-0.23-0.739-0.126-0.457-0.221-0.922-0.289-1.391-0.003-0.026-0.010-0.069-0.011-0.082-0.008-0.066-0.015-0.132-0.022-0.198-0.014-0.132-0.025-0.265-0.035-0.398-0.019-0.269-0.027-0.538-0.028-0.808 0-0.047-0.006-0.092-0.017-0.136 0-1.197 0-2.394 0-3.591 0.006-0.034 0.010-0.068 0.010-0.104 0.001-0.408 0.020-0.815 0.059-1.221 0.009-0.096 0.020-0.192 0.031-0.288 0.003-0.024 0.006-0.049 0.009-0.074 0.002-0.011 0.011-0.080 0.014-0.097 0.030-0.205 0.066-0.409 0.106-0.612 0.152-0.769 0.381-1.523 0.674-2.249 0.009-0.022 0.018-0.044 0.027-0.066 0.004-0.010 0.031-0.072 0.037-0.087 0.037-0.085 0.076-0.17 0.115-0.254 0.084-0.182 0.174-0.362 0.267-0.54 0.178-0.341 0.373-0.672 0.582-0.995 0.1-0.155 0.204-0.306 0.31-0.456 0.053-0.075 0.108-0.149 0.162-0.223 0.026-0.035 0.052-0.069 0.078-0.103 0.016-0.021 0.033-0.043 0.050-0.064 0.237-0.3 0.489-0.587 0.752-0.864s0.54-0.54 0.827-0.792c0.138-0.121 0.279-0.238 0.422-0.353 0.024-0.019 0.048-0.038 0.072-0.057 0.019-0.015 0.048-0.037 0.057-0.045 0.085-0.065 0.172-0.128 0.258-0.191 0.624-0.45 1.29-0.838 1.986-1.165 0.084-0.040 0.169-0.078 0.253-0.115 0.029-0.013 0.057-0.025 0.086-0.037 0.023-0.010 0.056-0.024 0.067-0.028 0.187-0.077 0.376-0.149 0.566-0.217 0.369-0.132 0.745-0.244 1.124-0.34 0.384-0.097 0.774-0.174 1.166-0.234 0.031-0.005 0.062-0.009 0.093-0.014 0.025-0.003 0.065-0.009 0.077-0.010 0.096-0.012 0.192-0.023 0.288-0.032 0.21-0.022 0.42-0.037 0.63-0.048 0.409-0.021 0.819-0.021 1.228-0.003 0.195 0.009 0.389 0.023 0.583 0.041 0.096 0.009 0.192 0.019 0.289 0.030 0.046 0.005 0.092 0.011 0.138 0.017 0.027 0.004 0.054 0.008 0.081 0.012 0.781 0.114 1.549 0.306 2.294 0.566 0.176 0.061 0.351 0.128 0.524 0.197 0.042 0.017 0.084 0.034 0.125 0.051 0.007 0.003 0.016 0.007 0.029 0.012 0.099 0.043 0.198 0.088 0.297 0.133 0.35 0.162 0.691 0.341 1.024 0.535 0.332 0.192 0.653 0.402 0.966 0.624 0.075 0.053 0.149 0.108 0.223 0.162 0.036 0.026 0.071 0.053 0.106 0.080 0.006 0.005 0.014 0.011 0.025 0.020 0.156 0.123 0.309 0.25 0.459 0.38 0.578 0.499 1.107 1.054 1.585 1.65 0.020 0.024 0.039 0.049 0.058 0.074 0.015 0.019 0.036 0.047 0.043 0.056 0.056 0.073 0.11 0.147 0.164 0.221 0.117 0.161 0.23 0.326 0.339 0.492 0.211 0.321 0.405 0.653 0.585 0.992 0.087 0.164 0.169 0.329 0.249 0.497 0.040 0.084 0.078 0.168 0.116 0.253 0.019 0.042 0.037 0.085 0.056 0.128 0.006 0.013 0.010 0.023 0.013 0.030 0.005 0.013 0.010 0.025 0.016 0.038 0.149 0.36 0.278 0.728 0.393 1.1 0.116 0.377 0.211 0.759 0.29 1.145 0.038 0.187 0.071 0.375 0.101 0.564 0.007 0.047 0.014 0.095 0.021 0.142 0.001 0.010 0.003 0.017 0.003 0.024 0 0.002 0 0.003 0.001 0.004 0.015 0.112 0.027 0.224 0.038 0.336 0.043 0.422 0.063 0.845 0.064 1.269 0 0.024 0.002 0.049 0.005 0.072 0 1.448 0 2.895 0 4.343 0 0.55 0.364 1.056 0.913 1.175l1.834 0.030zM13.759 28.882c0.004-0.011 0.014-0.038 0.023-0.059 0.015-0.029 0.030-0.057 0.046-0.084 0.013-0.023 0.028-0.044 0.042-0.066-0.027 0.040 0.036-0.041 0.053-0.060 0.019-0.021 0.040-0.040 0.062-0.059-0.041 0.038 0.069-0.052 0.096-0.068 0.019-0.012 0.038-0.022 0.057-0.033 0.006-0.002 0.066-0.030 0.086-0.037 0.044-0.015 0.089-0.025 0.134-0.035 0.005-0.001 0.009-0.002 0.013-0.003s0.007-0.001 0.011-0.001c0.088-0.008 0.178-0.003 0.266-0.003 0.249 0 0.499 0 0.748 0 0.013 0 0.026 0 0.039 0 0.024 0 0.047 0.001 0.071 0.002-0.004 0.001 0.072 0.010 0.095 0.015 0.045 0.010 0.089 0.025 0.132 0.040 0.006 0.003 0.013 0.006 0.021 0.011 0.041 0.020 0.079 0.044 0.117 0.068 0.010 0.006 0.030 0.022 0.048 0.035 0.032 0.029 0.062 0.059 0.091 0.090 0.013 0.015 0.042 0.051 0.052 0.065 0.025 0.037 0.047 0.077 0.068 0.117 0.003 0.006 0.006 0.012 0.009 0.017 0.001 0.002 0.001 0.003 0.002 0.004 0.016 0.043 0.028 0.088 0.040 0.132 0.004 0.014 0.010 0.054 0.014 0.078 0.002 0.029 0.003 0.058 0.003 0.088-0 0.024-0.001 0.047-0.003 0.071-0.002 0.005-0.010 0.073-0.015 0.095-0.010 0.045-0.025 0.089-0.040 0.132-0.003 0.006-0.006 0.013-0.011 0.021-0.020 0.041-0.044 0.079-0.068 0.117-0.005 0.009-0.019 0.027-0.032 0.044-0.023 0.026-0.047 0.051-0.072 0.076-0.018 0.018-0.037 0.035-0.057 0.052-0.035 0.024-0.071 0.046-0.108 0.067-0.014 0.008-0.058 0.029-0.076 0.038-0.050 0.017-0.1 0.030-0.151 0.041 0.038-0.010-0.105 0.010-0.138 0.010-0.037 0-0.074 0-0.111 0-0.255 0-0.51 0-0.765 0-0.024 0-0.048 0-0.072 0-0.034 0-0.064-0.002-0.098-0.003-0.002 0-0.004-0-0.006-0-0.005-0.001-0.011-0.002-0.018-0.003-0.045-0.009-0.090-0.022-0.134-0.035-0.011-0.003-0.038-0.014-0.059-0.023-0.029-0.015-0.057-0.030-0.084-0.046-0.017-0.010-0.075-0.054-0.098-0.070-0.020-0.019-0.040-0.038-0.059-0.057-0.011-0.011-0.046-0.052-0.058-0.066-0.026-0.039-0.050-0.080-0.072-0.121-0.006-0.015-0.029-0.064-0.035-0.082-0.015-0.044-0.025-0.089-0.035-0.134-0.001-0.005-0.002-0.009-0.003-0.013s-0.001-0.007-0.001-0.011c-0.005-0.064-0.003-0.128 0-0.192 0-0.002 0-0.003 0-0.005 0.001-0.005 0.002-0.011 0.004-0.018 0.010-0.046 0.023-0.091 0.037-0.135zM2.791 12.783c0.004 0.003 0.008 0.005 0.014 0.009-0.006-0.004-0.010-0.006-0.015-0.009 0 0 0.001 0 0.001 0zM2.754 12.747v0c-0-0.001-0-0.002-0.001-0.002v0c0 0.001 0 0.001 0.001 0.002zM2.749 12.74c-0.002-0.003-0.004-0.006-0.007-0.010 0.002 0.003 0.004 0.006 0.006 0.009 0 0 0 0 0 0.001zM2.745 12.716c-0.015-0.051-0.007-0.031 0 0v0zM1.226 18.416c0-0.001 0-0.002 0-0.003 0.001 0.001 0.001 0.002 0.002 0.003s-0.001 0.001-0.001 0.002c-0-0.001-0.001-0.001-0.001-0.002zM1.226 18.407v0c0 0 0 0 0 0s0 0 0 0zM1.218 18.4c-0-0-0.001-0-0.001-0.001s-0-0.001-0.001-0.001 0.001 0 0.001 0c0 0.001 0 0.001 0.001 0.001zM1.18 18.375c-0.001 0-0.002 0-0.004 0-0.006-0.003-0.015-0.006-0.027-0.010 0.015 0.004 0.026 0.008 0.035 0.010-0.002 0-0.003 0-0.004 0zM1.228 12.68c-0.001 0.029-0 0.045 0.002 0.055-0 0.001-0.001 0.001-0.001 0.002s-0.002 0.002-0.003 0.003c0-0.002 0-0.003 0-0.004-0-0.019 0.001-0.036 0.002-0.055zM1.151 12.783c-0.001 0.001-0.002 0.002-0.003 0.003-0.027 0.001-0.043-0.002 0.003-0.003zM1.937 18.375c-0.231 0-0.462 0-0.693 0-0.006 0-0.012 0-0.017 0 0-0.707 0-1.414 0-2.121 0-1.027 0-2.054 0-3.081 0-0.122 0-0.244 0-0.367 0-0.008 0-0.016 0-0.024 0.087 0 0.174 0 0.261 0 0.274 0 0.548 0 0.822 0 0.147 0 0.295 0 0.442 0 0 0.277 0 0.553 0 0.83 0 1.089 0 2.178 0 3.266 0 0.499 0 0.998 0 1.498-0.023-0.001-0.047-0.001-0.070-0.001-0.248 0-0.497 0-0.745 0zM2.742 18.453c0.004-0.015 0.008-0.026 0.010-0.035 0 0.002 0 0.004 0 0.007-0.003 0.007-0.006 0.016-0.010 0.029zM30.556 12.783c0.004 0.003 0.008 0.005 0.014 0.009-0.006-0.004-0.010-0.006-0.015-0.009 0 0 0.001 0 0.001 0zM30.52 12.747v0c-0-0.001-0.001-0.002-0.001-0.002v0c0 0.001 0 0.001 0.001 0.002zM30.515 12.74c-0.002-0.003-0.004-0.006-0.007-0.010 0.002 0.003 0.004 0.006 0.006 0.009 0 0 0 0 0 0.001zM30.594 12.786c0.002-0 0.002-0.001 0.002-0.002 0.038 0.001 0.027 0.004-0.002 0.002zM30.511 12.716c-0.015-0.051-0.007-0.031 0 0v0zM28.992 18.416c0-0.001 0-0.002 0-0.003 0.001 0.001 0.001 0.002 0.002 0.003s-0.001 0.001-0.001 0.002c-0-0.001-0.001-0.001-0.001-0.002zM28.992 18.407v0c0 0 0 0 0 0s0 0 0 0zM28.984 18.4c0 0-0.001-0-0.001-0.001s-0-0.001-0.001-0.001 0.001 0 0.001 0.001 0 0.001 0.001 0.001zM28.946 18.375c-0.001 0-0.002 0-0.003 0-0.006-0.003-0.015-0.006-0.027-0.010 0.015 0.004 0.026 0.008 0.035 0.010-0.002 0-0.003 0-0.004 0zM28.994 12.68c-0.001 0.029-0 0.045 0.002 0.055-0 0.001-0.001 0.001-0.001 0.002s-0.002 0.002-0.003 0.003c0-0.002 0-0.003 0-0.004-0-0.019 0.001-0.036 0.002-0.055zM29.703 18.375c-0.231 0-0.462 0-0.693 0-0.006 0-0.012 0-0.017 0 0-0.707 0-1.414 0-2.121 0-1.027 0-2.054 0-3.081 0-0.122 0-0.244 0-0.367 0-0.008 0-0.016 0-0.024 0.087 0 0.174 0 0.261 0 0.274 0 0.548 0 0.822 0 0.147 0 0.295 0 0.442 0 0 0.277 0 0.553 0 0.83 0 1.089 0 2.178 0 3.266 0 0.499 0 0.998 0 1.498-0.023-0.001-0.047-0.001-0.070-0.001-0.248 0-0.497 0-0.745 0zM30.508 18.453c0.004-0.015 0.008-0.026 0.010-0.035 0 0.002 0 0.004 0 0.007-0.003 0.007-0.006 0.016-0.010 0.029z"></path>
</svg>
