<!-- Generated by IcoMoon.io -->
<svg version="1.1" xmlns="http://www.w3.org/2000/svg" width="32" height="32" viewBox="0 0 32 32">
<title>call</title>
<path d="M31.951 26.157c-0.253-1.671-1.809-3.491-4.498-5.262-3.859-2.542-4.942-1.868-6.391-0.56-0.117 0.106-0.239 0.216-0.368 0.328l-0.043 0.042c-0.162 0.172-0.733 0.667-1.219 0.682-0.18 0.004-0.329-0.058-0.477-0.197-1.132-1.067-4.041-3.864-4.156-3.974l0.006-0.006c0 0-2.726-2.949-3.843-4.068-0.188-0.189-0.2-0.335-0.193-0.428 0.033-0.393 0.524-0.833 0.691-0.954l0.052-0.042c0.147-0.133 0.295-0.256 0.437-0.375 1.531-1.28 2.272-2.349-0.343-6.402-2.138-3.314-3.46-4.641-4.876-4.897-0.879-0.158-1.745 0.112-2.788 0.87-1.81 1.25-3.601 2.669-3.889 5.046-0.42 3.472 2.473 8.44 9.461 16.188l0.055 0.056c6.663 6.67 11.613 9.798 15.525 9.798 0.129 0 0.258-0.004 0.386-0.011 2.799-0.151 4.587-1.961 5.823-3.511 0.553-0.66 0.777-1.463 0.647-2.322zM30.409 27.792c-1.65 2.068-3.142 2.994-4.991 3.094-3.572 0.189-8.478-2.898-15.019-9.445-6.659-7.383-9.586-12.262-9.212-15.354 0.212-1.747 1.413-2.89 3.429-4.282 0.777-0.564 1.365-0.772 1.905-0.675 1.016 0.184 2.247 1.498 4.117 4.396 2.285 3.541 1.637 4.083 0.564 4.979-0.146 0.123-0.297 0.249-0.449 0.385-0.194 0.145-1.044 0.826-1.123 1.729-0.041 0.47 0.135 0.916 0.509 1.291 1.099 1.101 3.835 4.075 3.849 4.089l-0.007 0.007c0 0 3.017 2.884 4.176 3.975 0.37 0.349 0.819 0.52 1.314 0.51 0.997-0.033 1.831-0.844 2.002-1.022 0.128-0.11 0.249-0.22 0.366-0.326 1.113-1.004 1.67-1.509 4.971 0.666 2.383 1.57 3.807 3.171 4.010 4.508 0.084 0.551-0.052 1.044-0.413 1.474z"></path>
</svg>
