<!-- Generated by IcoMoon.io -->
<svg version="1.1" xmlns="http://www.w3.org/2000/svg" width="32" height="32" viewBox="0 0 32 32">
<title>centralized-infrastructure</title>
<path d="M15.874 0.864c-1.627 0-2.953 1.327-2.953 2.953 0 1.501 1.132 2.746 2.584 2.93v4.107c-2.679 0.148-4.929 1.88-5.838 4.28l-3.795-1.269c0.022-0.144 0.035-0.299 0.035-0.45 0-1.627-1.327-2.953-2.953-2.953s-2.953 1.327-2.953 2.953 1.327 2.953 2.953 2.953c1.214 0 2.258-0.737 2.711-1.788l3.784 1.258c-0.134 0.525-0.219 1.071-0.219 1.638 0 2.012 0.903 3.822 2.319 5.041l-2.111 3.034c-0.397-0.2-0.841-0.323-1.315-0.323-1.627 0-2.953 1.327-2.953 2.953s1.327 2.953 2.953 2.953 2.953-1.327 2.953-2.953c0-0.892-0.398-1.684-1.027-2.226l2.088-2.976c1.065 0.726 2.354 1.142 3.738 1.142s2.673-0.416 3.738-1.142l2.088 2.976c-0.628 0.542-1.027 1.335-1.027 2.226 0 1.627 1.327 2.953 2.953 2.953s2.953-1.327 2.953-2.953c0-1.627-1.327-2.953-2.953-2.953-0.474 0-0.918 0.123-1.315 0.323l-2.111-3.034c1.416-1.219 2.319-3.029 2.319-5.041 0-0.561-0.111-1.094-0.242-1.615l3.807-1.28c0.453 1.052 1.497 1.788 2.711 1.788 1.627 0 2.953-1.327 2.953-2.953s-1.327-2.953-2.953-2.953c-1.627 0-2.953 1.327-2.953 2.953 0 0.15 0.013 0.305 0.035 0.45l-4.13 1.384c-0.19 0.066-0.292 0.271-0.231 0.461 0.173 0.556 0.265 1.151 0.265 1.765 0 3.267-2.64 5.907-5.907 5.907s-5.907-2.64-5.907-5.907c0-3.267 2.64-5.907 5.907-5.907 1.803 0 3.44 0.805 4.522 2.077 0.105 0.175 0.332 0.231 0.507 0.126s0.231-0.332 0.126-0.507c-0.021-0.035-0.048-0.066-0.079-0.093-1.145-1.345-2.828-2.228-4.707-2.33v-4.095c1.452-0.184 2.584-1.43 2.584-2.93 0-1.627-1.327-2.953-2.953-2.953zM15.874 1.603c1.228 0 2.215 0.987 2.215 2.215s-0.987 2.215-2.215 2.215-2.215-0.987-2.215-2.215 0.987-2.215 2.215-2.215zM2.954 11.201c1.228 0 2.215 0.987 2.215 2.215s-0.987 2.215-2.215 2.215-2.215-0.987-2.215-2.215 0.987-2.215 2.215-2.215zM28.795 11.201c1.228 0 2.215 0.987 2.215 2.215s-0.987 2.215-2.215 2.215-2.215-0.987-2.215-2.215 0.987-2.215 2.215-2.215zM8.122 25.967c1.228 0 2.215 0.987 2.215 2.215s-0.987 2.215-2.215 2.215-2.215-0.987-2.215-2.215c0-1.228 0.987-2.215 2.215-2.215zM23.627 25.967c1.228 0 2.215 0.987 2.215 2.215s-0.987 2.215-2.215 2.215c-1.228 0-2.215-0.987-2.215-2.215s0.987-2.215 2.215-2.215z"></path>
</svg>
