<!-- Generated by IcoMoon.io -->
<svg version="1.1" xmlns="http://www.w3.org/2000/svg" width="32" height="32" viewBox="0 0 32 32">
<title>central-management</title>
<path d="M28.269 12.266c-1.872 0.005-3.42 1.383-3.69 3.179l-0.003 0.021h-2.736c-0.118-1.231-0.602-2.331-1.342-3.209l0.007 0.009 1.92-1.936c0.619 0.469 1.401 0.752 2.25 0.752 2.068 0 3.744-1.676 3.744-3.744s-1.676-3.744-3.744-3.744c-2.068 0-3.744 1.676-3.744 3.744 0 0.843 0.279 1.621 0.749 2.247l-0.007-0.010-1.936 1.936c-0.875-0.734-1.981-1.219-3.196-1.333l-0.023-0.002v-2.752c1.821-0.27 3.202-1.822 3.202-3.696 0-2.062-1.672-3.734-3.734-3.734s-3.734 1.672-3.734 3.734c0 1.874 1.381 3.426 3.181 3.694l0.020 0.003v2.736c-1.238 0.115-2.344 0.6-3.228 1.342l0.009-0.007-1.936-1.936c0.458-0.61 0.733-1.38 0.733-2.214 0-2.050-1.662-3.712-3.712-3.712s-3.712 1.662-3.712 3.712c0 2.050 1.662 3.712 3.712 3.712 0.84 0 1.614-0.279 2.236-0.749l-0.009 0.007 1.92 1.936c-0.731 0.87-1.214 1.969-1.329 3.176l-0.002 0.024h-2.71c-0.271-1.82-1.822-3.2-3.696-3.2-2.062 0-3.734 1.672-3.734 3.734s1.672 3.734 3.734 3.734c1.874 0 3.425-1.38 3.693-3.18l0.003-0.020h2.736c0.112 1.177 0.557 2.233 1.238 3.094l-0.009-0.012 0.026 0.029c0.026 0.032 0.048 0.064 0.074 0.093l-1.936 1.92c-0.614-0.463-1.39-0.741-2.231-0.741-2.059 0-3.728 1.669-3.728 3.728 0 0.015 0 0.030 0 0.046l-0-0.002c0.004 2.058 1.673 3.725 3.731 3.725 2.061 0 3.731-1.671 3.731-3.731 0-0.842-0.279-1.619-0.749-2.243l0.007 0.009 1.936-1.92 0.051 0.042c0.064 0.051 0.128 0.096 0.192 0.144s0.195 0.147 0.298 0.211l0.253 0.157c0.090 0.051 0.179 0.102 0.272 0.15s0.182 0.093 0.275 0.134 0.192 0.083 0.288 0.118c0.072 0.032 0.165 0.067 0.261 0.097l0.021 0.006c0.106 0.038 0.214 0.067 0.32 0.096l0.262 0.067c0.131 0.029 0.266 0.051 0.397 0.070 0.074 0 0.144 0.026 0.218 0.032h0.102v2.739c-1.82 0.27-3.2 1.822-3.2 3.696 0 2.062 1.672 3.734 3.734 3.734s3.734-1.672 3.734-3.734c0-1.874-1.38-3.425-3.18-3.693l-0.020-0.003v-2.736h0.102c0.074 0 0.144-0.022 0.218-0.032 0.134-0.022 0.266-0.042 0.397-0.070s0.176-0.045 0.262-0.067 0.221-0.058 0.32-0.096c0.116-0.036 0.21-0.071 0.301-0.11l-0.019 0.007c0.096-0.035 0.192-0.077 0.288-0.118s0.186-0.086 0.275-0.134 0.182-0.099 0.272-0.15l0.253-0.157c0.102-0.064 0.198-0.138 0.298-0.211s0.128-0.093 0.192-0.144l0.051-0.042 1.92 1.92c-0.468 0.617-0.751 1.397-0.751 2.243 0 2.059 1.669 3.728 3.728 3.728 0.013 0 0.026-0 0.039-0l-0.002 0c2.058-0.004 3.725-1.673 3.725-3.731 0-2.061-1.671-3.731-3.731-3.731-0.842 0-1.619 0.279-2.243 0.749l0.009-0.007-1.92-1.92c0.026-0.029 0.048-0.064 0.074-0.093l0.026-0.029s0 0 0 0c0.672-0.848 1.117-1.904 1.227-3.058l0.002-0.024h2.736c0.285 1.803 1.827 3.165 3.688 3.165 2.061 0 3.731-1.671 3.731-3.731 0-2.059-1.668-3.728-3.726-3.731h-0zM22.79 5.44c0.482-0.481 1.148-0.779 1.883-0.779 1.472 0 2.666 1.193 2.666 2.666s-1.193 2.666-2.666 2.666c-0.735 0-1.401-0.298-1.883-0.779l0 0c-0.488-0.48-0.79-1.148-0.79-1.886s0.302-1.406 0.79-1.886l0-0zM19.52 19.245c-0.080 0.086-0.163 0.17-0.246 0.25l-0.125 0.112c-0.077 0.067-0.154 0.131-0.234 0.192l-0.163 0.122-0.221 0.147-0.195 0.118-0.218 0.112-0.218 0.106c-0.074 0.032-0.15 0.058-0.224 0.086l-0.173 0.064c0.054-0.083 0.086-0.185 0.086-0.294 0-0.069-0.013-0.135-0.036-0.196l0.001 0.004-0.778-1.92h1.184c0.365 0 0.704 0.11 0.986 0.298l-0.006-0.004c0.278 0.187 0.497 0.443 0.635 0.744l0.005 0.011zM14.080 20.403l-0.221-0.109-0.214-0.109-0.198-0.122c-0.074-0.045-0.147-0.093-0.218-0.144s-0.109-0.080-0.163-0.122-0.157-0.125-0.234-0.192l-0.125-0.112c-0.086-0.080-0.166-0.163-0.246-0.253l-0.042-0.042c0.14-0.314 0.359-0.57 0.633-0.751l0.007-0.004c0.274-0.184 0.611-0.294 0.974-0.294 0.001 0 0.002 0 0.003 0h1.184l-0.774 1.92c-0.023 0.057-0.036 0.123-0.036 0.192 0 0.108 0.033 0.209 0.089 0.293l-0.001-0.002-0.176-0.064c-0.080-0.029-0.157-0.054-0.24-0.086zM16 20.579l-0.442-0.442 0.442-1.101 0.442 1.101zM16 17.059c-0.771 0-2.24-0.96-2.592-2.16 0.912-0.077 2.56-0.352 3.328-1.363l1.92 1.146c-0.227 1.318-1.837 2.384-2.656 2.384zM18.586 13.408l-1.776-1.066c-0.078-0.048-0.173-0.076-0.274-0.076-0.234 0-0.433 0.151-0.505 0.36l-0.001 0.004c-0.272 0.81-1.728 1.117-2.666 1.206 0.144-1.789 0.986-2.637 2.637-2.637 1.514 0 2.346 0.717 2.586 2.208zM13.334 3.734c0-0.001 0-0.002 0-0.003 0-1.474 1.195-2.669 2.669-2.669s2.669 1.195 2.669 2.669c0 1.474-1.195 2.669-2.669 2.669-0.001 0-0.002 0-0.003 0h0c-1.471-0.004-2.662-1.195-2.666-2.665v-0zM5.44 9.213c-0.483-0.483-0.782-1.151-0.782-1.888 0-1.474 1.195-2.669 2.669-2.669s2.669 1.195 2.669 2.669c0 0.737-0.299 1.405-0.782 1.888l-0 0c-0.482 0.484-1.149 0.784-1.886 0.784s-1.404-0.3-1.886-0.784l-0-0zM3.734 18.666c-1.472 0-2.666-1.193-2.666-2.666s1.193-2.666 2.666-2.666c1.472 0 2.666 1.193 2.666 2.666v0c-0.002 1.471-1.194 2.664-2.665 2.666h-0zM12.448 12.8c-0.116 0.464-0.183 0.997-0.183 1.546 0 0.019 0 0.038 0 0.057l-0-0.003c0 1.046 0.618 2.006 1.408 2.694-0.457 0.056-0.869 0.216-1.223 0.454l0.010-0.006c-0.279 0.192-0.514 0.423-0.705 0.689l-0.006 0.009c-0.347-0.645-0.55-1.41-0.55-2.224 0-1.241 0.474-2.371 1.251-3.22l-0.003 0.004zM9.213 26.56c-0.482 0.481-1.148 0.779-1.883 0.779-1.472 0-2.666-1.193-2.666-2.666s1.193-2.666 2.666-2.666c0.735 0 1.401 0.298 1.883 0.779l-0-0c0.484 0.482 0.784 1.149 0.784 1.886s-0.3 1.404-0.784 1.886l-0 0zM18.669 28.266c0 0.001 0 0.002 0 0.003 0 1.474-1.195 2.669-2.669 2.669s-2.669-1.195-2.669-2.669c0-1.474 1.195-2.669 2.669-2.669 0 0 0 0 0 0v0c1.472 0.002 2.665 1.194 2.669 2.665v0zM26.56 22.787c0.487 0.484 0.788 1.154 0.788 1.894 0 1.476-1.196 2.672-2.672 2.672s-2.672-1.196-2.672-2.672c0-1.476 1.196-2.672 2.672-2.672h0c0.001 0 0.003 0 0.004 0 0.734 0 1.399 0.297 1.88 0.778l-0-0zM20.25 18.24c-0.447-0.613-1.127-1.032-1.907-1.128l-0.013-0.001c0.79-0.688 1.405-1.648 1.405-2.694 0-0.014 0-0.031 0-0.048 0-0.551-0.065-1.086-0.189-1.599l0.009 0.046c0.772 0.845 1.245 1.975 1.245 3.215 0 0.814-0.204 1.58-0.563 2.251l0.012-0.026zM28.269 18.682c-1.472-0-2.666-1.193-2.666-2.666s1.193-2.666 2.666-2.666c1.467 0 2.656 1.184 2.666 2.649v0.001c-0.002 1.471-1.194 2.664-2.665 2.666h-0z"></path>
</svg>
