<!-- Generated by IcoMoon.io -->
<svg version="1.1" xmlns="http://www.w3.org/2000/svg" width="32" height="32" viewBox="0 0 32 32">
<title>centralized-administration</title>
<path d="M8.103 5.014c0 0.397-0.322 0.718-0.718 0.718s-0.718-0.322-0.718-0.718c0-0.397 0.322-0.718 0.718-0.718s0.718 0.322 0.718 0.718zM12.411 5.014c0 0.397-0.322 0.718-0.718 0.718s-0.718-0.322-0.718-0.718c0-0.397 0.322-0.718 0.718-0.718s0.718 0.322 0.718 0.718zM10.257 5.014c0 0.397-0.322 0.718-0.718 0.718s-0.718-0.322-0.718-0.718c0-0.397 0.322-0.718 0.718-0.718s0.718 0.322 0.718 0.718zM10.658 22.783h5.722c-0.122-0.276-0.23-0.558-0.322-0.848h-5.399zM5.468 13.021v-5.501h22.048v3.854c0.291 0.12 0.574 0.254 0.848 0.404v-7.65c0-0.937-0.759-1.696-1.696-1.696h-20.352c-0.937 0-1.696 0.759-1.696 1.696v8.884l0.848 0.009zM5.468 4.127c0-0.468 0.38-0.848 0.848-0.848h20.352c0.468 0 0.848 0.38 0.848 0.848v2.544h-22.048v-2.544zM25.988 21.145c-0.391-0.289-0.124-0.416-1.139-0.866-1.405-0.622-2.278 0-2.278 0.866 0 1.732 1.14 2.020 1.14 2.020-0.285 1.443 0 2.020 0.285 2.309s0.479 0.718 0.736 0.577c0.257-0.141 0.403-2.020 1.258-2.886s0.513-1.641-0-2.020zM24.244 11.564c-4.284 0-7.756 3.473-7.756 7.756s3.473 7.756 7.756 7.756 7.756-3.473 7.756-7.756-3.473-7.756-7.756-7.756zM24.244 26.371c-3.894 0-7.051-3.157-7.051-7.051 0-1.587 0.53-3.045 1.414-4.224 0.197 0.122 0.404 0.275 0.612 0.481 0.914 0.901 0.305 1.802 0 2.403s0.914 1.501 0.914 1.501 0.914 0.601 1.827 0.901c0 0 0.609-0.3-0.609-0.901 0 0-0.914-0.901 0.305-1.201 0.913-0.3 0.304 0.601 0.913 0.601s0-0.901 1.219-1.502c1.219-0.6 0.914-0.901 1.523-0.901s0.609-1.201-0.609-1.201c-1.219 0-0.609 1.502-1.524 0.6s0.305-0.6 0.914-1.201c0.609-0.6-0.609-0.901-0.914-0.3 0 0-0.913-0.901-1.523 0.6 0 0-1.078-0.639-1.566-1.345 1.166-0.852 2.598-1.362 4.153-1.362 0.841 0 1.643 0.155 2.391 0.425-0.020 0.066-0.052 0.128-0.105 0.18-0.305 0.3-0.914 1.202 0.305 1.202 0 0-0.609 1.802 0.305 1.802s1.828-1.668 2.614-0.773c0.996 1.134-1.395 0.773-1.395 2.876 0 1.451 1.593 2.613 2.682 3.195-0.815 2.993-3.545 5.196-6.796 5.196zM5.755 14.606h-1.151c-0.159 0-0.288 0.129-0.288 0.288s0.129 0.288 0.288 0.288h1.151c0.159 0 0.288-0.129 0.288-0.288s-0.129-0.288-0.288-0.288zM5.18 28.705c0.318 0 0.575-0.258 0.575-0.575s-0.258-0.575-0.575-0.575c-0.318 0-0.575 0.258-0.575 0.575s0.257 0.575 0.575 0.575zM9.208 13.455h-8.057c-0.636 0-1.151 0.516-1.151 1.151v13.812c0 0.636 0.515 1.151 1.151 1.151h8.057c0.636 0 1.151-0.515 1.151-1.151v-13.812c-0-0.636-0.516-1.151-1.151-1.151zM9.783 28.418c0 0.318-0.258 0.575-0.575 0.575h-8.057c-0.318 0-0.575-0.258-0.575-0.575v-1.151h9.208v1.151zM9.783 26.691h-9.208v-10.359h9.208v10.359zM9.783 15.757h-9.208v-1.151c0-0.318 0.258-0.575 0.575-0.575h8.057c0.318 0 0.575 0.258 0.575 0.575v1.151z"></path>
</svg>
