<!-- Generated by IcoMoon.io -->
<svg version="1.1" xmlns="http://www.w3.org/2000/svg" width="22" height="32" viewBox="0 0 22 32">
<title>certificate</title>
<path d="M21.514 11.407l-1.348-1.866 0.789-2.163c0.012-0.033 0.020-0.072 0.020-0.112 0-0.121-0.066-0.227-0.163-0.285l-0.002-0.001-1.978-1.156-0.169-2.295c-0.011-0.16-0.136-0.288-0.293-0.305l-0.001-0-2.286-0.248-1.079-2.031c-0.057-0.106-0.167-0.176-0.293-0.176-0.036 0-0.070 0.006-0.103 0.016l0.002-0.001-2.198 0.706-1.805-1.418c-0.055-0.044-0.126-0.070-0.203-0.070-0.084 0-0.161 0.032-0.219 0.083l0-0-1.715 1.539-2.233-0.563c-0.024-0.006-0.051-0.009-0.078-0.009-0.133 0-0.248 0.079-0.301 0.192l-0.001 0.002-0.943 2.099-2.275 0.393c-0.151 0.031-0.264 0.163-0.264 0.321 0 0.003 0 0.006 0 0.009v-0 2.302l-1.915 1.286c-0.089 0.059-0.147 0.16-0.147 0.273 0 0.048 0.010 0.094 0.029 0.135l-0.001-0.002 0.93 2.104-1.22 1.952c-0.031 0.049-0.049 0.109-0.049 0.172 0 0.095 0.041 0.181 0.106 0.241l0 0 1.706 1.539-0.321 2.291c-0.002 0.014-0.004 0.031-0.004 0.048 0 0.144 0.092 0.266 0.221 0.31l0.002 0.001 2.198 0.719 0.633 2.211c0.040 0.139 0.166 0.239 0.315 0.239 0.012 0 0.024-0.001 0.036-0.002l-0.001 0 0.692-0.070-2.62 10.332c-0.007 0.025-0.010 0.053-0.010 0.082 0 0.1 0.045 0.19 0.115 0.25l0 0c0.058 0.049 0.133 0.079 0.216 0.079 0.047 0 0.091-0.010 0.132-0.027l-0.002 0.001 3.056-1.332 2.216 2.675c0.061 0.073 0.152 0.119 0.254 0.119 0 0 0 0 0.001 0h-0c0.011 0.001 0.024 0.002 0.036 0.002s0.025-0.001 0.038-0.002l-0.002 0c0.121-0.029 0.215-0.122 0.246-0.239l0.001-0.002 1.967-7.764 1.978 7.764c0.031 0.12 0.125 0.213 0.244 0.241l0.002 0c0.011 0.001 0.024 0.002 0.036 0.002s0.025-0.001 0.038-0.002l-0.002 0c0.001 0 0.002 0 0.003 0 0.101 0 0.191-0.046 0.25-0.118l0-0.001 2.227-2.675 3.056 1.332c0.038 0.017 0.083 0.026 0.13 0.026 0.082 0 0.158-0.030 0.216-0.079l-0 0c0.071-0.061 0.115-0.151 0.115-0.252 0-0.029-0.004-0.056-0.010-0.083l0 0.002-2.717-10.684 0.409 0.015c0.002 0 0.004 0 0.007 0 0.158 0 0.291-0.11 0.327-0.257l0-0.002 0.488-2.249 2.132-0.862c0.122-0.050 0.207-0.168 0.207-0.306 0-0.024-0.003-0.047-0.007-0.070l0 0.002-0.473-2.253 1.598-1.653c0.057-0.059 0.093-0.14 0.093-0.229 0-0.072-0.023-0.139-0.063-0.194l0.001 0.001zM8.793 30.962l-1.978-2.368c-0.061-0.073-0.153-0.119-0.255-0.119-0.047 0-0.092 0.010-0.132 0.027l0.002-0.001-2.666 1.161 2.51-9.919 0.901-0.092 1.477 1.759c0.061 0.072 0.152 0.118 0.253 0.119h0c0.001 0 0.002 0 0.003 0 0.060 0 0.116-0.016 0.164-0.045l-0.001 0.001 1.996-1.143 0.361 0.176zM18.709 29.663l-2.666-1.161c-0.038-0.017-0.083-0.027-0.13-0.027-0.102 0-0.193 0.046-0.254 0.118l-0 0-1.978 2.368-2.11-8.32 0.464-1.827 1.099 0.539c0.042 0.021 0.092 0.033 0.144 0.033 0.108 0 0.204-0.053 0.264-0.134l0.001-0.001 1.361-1.858 1.202 0.042zM19.301 13.15c-0.057 0.059-0.093 0.14-0.093 0.229 0 0.024 0.003 0.048 0.008 0.070l-0-0.002 0.44 2.154-2.040 0.822c-0.101 0.042-0.175 0.129-0.2 0.235l-0 0.002-0.464 2.15-2.198-0.079c-0.003-0-0.006-0-0.010-0-0.11 0-0.208 0.053-0.269 0.136l-0.001 0.001-1.299 1.774-1.978-0.965c-0.044-0.024-0.098-0.039-0.154-0.039s-0.109 0.014-0.156 0.040l0.002-0.001-1.908 1.099-1.413-1.684c-0.061-0.073-0.151-0.119-0.252-0.119-0 0-0 0-0 0h-0.035l-2.187 0.22-0.607-2.115c-0.032-0.106-0.114-0.188-0.218-0.219l-0.002-0.001-2.082-0.681 0.308-2.178c0.002-0.014 0.003-0.029 0.003-0.046 0-0.097-0.042-0.184-0.108-0.244l-0-0-1.629-1.477 1.165-1.864c0.032-0.049 0.051-0.11 0.051-0.174 0-0.048-0.011-0.094-0.029-0.136l0.001 0.002-0.879-2.014 1.816-1.231c0.088-0.060 0.145-0.16 0.145-0.273v-2.198l2.174-0.387c0.109-0.020 0.199-0.091 0.243-0.187l0.001-0.002 0.901-2.009 2.135 0.532c0.024 0.006 0.052 0.010 0.081 0.010 0.084 0 0.16-0.031 0.219-0.083l-0 0 1.64-1.468 1.734 1.356c0.054 0.044 0.124 0.070 0.2 0.070 0.037 0 0.073-0.006 0.106-0.018l-0.002 0.001 2.095-0.664 1.031 1.943c0.052 0.094 0.144 0.16 0.253 0.173l0.002 0 2.189 0.237 0.154 2.198c0.007 0.112 0.070 0.208 0.161 0.261l0.002 0.001 1.901 1.099-0.754 2.066c-0.012 0.033-0.019 0.071-0.019 0.111 0 0.073 0.024 0.141 0.064 0.195l-0.001-0.001 1.286 1.783z"></path>
<path d="M10.771 3.471c-4.132 0.004-7.481 3.354-7.481 7.487 0 4.135 3.352 7.487 7.487 7.487s7.487-3.352 7.487-7.487v0c-0.005-4.135-3.358-7.486-7.494-7.487h-0zM10.771 17.784c-3.768-0.004-6.821-3.059-6.821-6.828 0-3.771 3.057-6.828 6.828-6.828s6.828 3.057 6.828 6.828c0 0.001 0 0.002 0 0.002v-0c-0.005 3.771-3.063 6.826-6.834 6.826v0z"></path>
</svg>
