<!-- Generated by IcoMoon.io -->
<svg version="1.1" xmlns="http://www.w3.org/2000/svg" width="32" height="32" viewBox="0 0 32 32">
<title>charity</title>
<path d="M26.815 21.192l-10.756 1.871-3.055-3.055c-0.101-0.102-0.239-0.159-0.383-0.159h-5.423c0-0.3-0.243-0.542-0.542-0.542h-5.966v1.085h3.254v7.593h-3.254v1.085h5.966c0.3 0 0.542-0.243 0.542-0.542h1.499l5.798 2.9c0.251 0.125 0.522 0.188 0.793 0.188 0.309 0 0.617-0.081 0.893-0.242l11.832-6.903c0.542-0.316 0.879-0.903 0.879-1.531 0-0.524-0.23-1.019-0.632-1.357-0.4-0.338-0.929-0.48-1.444-0.39zM6.112 27.984h-1.085v-7.593h1.085v7.593zM27.465 23.532l-11.832 6.903c-0.201 0.117-0.445 0.125-0.654 0.021l-5.913-2.956c-0.075-0.038-0.159-0.057-0.243-0.057h-1.627v-6.508h5.199l4.273 4.273c0.184 0.184 0.29 0.44 0.29 0.701 0 0.547-0.445 0.991-0.992 0.991-0.261 0-0.517-0.106-0.701-0.29l-2.805-2.805-0.767 0.767 2.805 2.805c0.392 0.392 0.913 0.608 1.468 0.608 1.145 0 2.076-0.932 2.076-2.076 0-0.554-0.216-1.076-0.608-1.468l-0.439-0.439 10.003-1.74c0.201-0.036 0.405 0.020 0.561 0.151s0.246 0.323 0.246 0.527c0 0.243-0.131 0.471-0.341 0.593zM31.060 4.12v-1.085h-3.407c-0.099-0.103-0.236 0-0.39 0h-2.169c-0.3 0-0.542 0-0.542 0.542h-1.499l-5.799-2.983c-0.538-0.269-1.168-0.29-1.685 0.012l-11.832 6.881c-0.542 0.316-0.879 0.892-0.879 1.52 0 0.524 0.231 1.013 0.631 1.351 0.323 0.271 0.726 0.414 1.14 0.414 0.102 0 0.204-0.010 0.305-0.028l10.756-1.871 3.055 3.139c0.102 0.101 0.24 0.243 0.384 0.243h5.424c0 0 0.243 0.542 0.542 0.542h1.779c0.099 0 0.236 0 0.39 0h3.796v-1.085h-3.254v-7.593h3.255zM19.353 11.171l-4.273-4.356c-0.188-0.188-0.291-0.479-0.291-0.744 0-0.547 0.445-1.013 0.992-1.013 0.265 0 0.514 0.093 0.701 0.28l2.805 2.799 0.767-0.77-2.805-2.805c-0.392-0.393-0.914-0.61-1.469-0.61-1.145 0-2.076 0.931-2.076 2.076 0 0.554 0.215 1.075 0.608 1.468l0.439 0.439-10.003 1.74c-0.203 0.035-0.405-0.021-0.561-0.151s-0.244-0.323-0.244-0.527c0-0.244 0.131-0.472 0.341-0.594l11.831-6.902c0.201-0.117 0.445-0.125 0.654-0.021l5.913 3.040c0.075 0.037 0.159 0.141 0.243 0.141h1.627v6.508h-5.199zM25.637 4.12h1.085v7.593h-1.085v-7.593zM15.874 13.366c-0.884-0.773-2.264-0.753-3.122 0.063-0.435 0.414-0.674 0.966-0.674 1.556s0.239 1.141 0.674 1.555l2.748 2.616c0.105 0.1 0.24 0.15 0.374 0.15s0.269-0.050 0.374-0.149l2.748-2.616c0.436-0.414 0.675-0.966 0.675-1.555s-0.239-1.142-0.674-1.556c0-0.001 0-0.001 0-0.001-0.859-0.816-2.239-0.835-3.122-0.062zM18.249 15.754l-2.374 2.26-2.374-2.26c-0.217-0.207-0.337-0.481-0.337-0.77s0.12-0.563 0.337-0.77c0.234-0.222 0.541-0.334 0.847-0.334s0.614 0.111 0.847 0.334l0.305 0.291c0.21 0.199 0.538 0.199 0.748 0l0.305-0.291c0.467-0.445 1.227-0.444 1.695-0.001 0.218 0.208 0.338 0.482 0.338 0.771s-0.121 0.562-0.337 0.77zM9.581 11.802l-0.899-0.607c-0.216 0.32-0.412 0.656-0.582 0.998l0.972 0.483c0.148-0.3 0.32-0.594 0.51-0.875zM7.378 17.828c0.079 0.378 0.184 0.754 0.311 1.113l1.022-0.361c-0.111-0.315-0.203-0.643-0.272-0.975l-1.061 0.223zM7.358 14.38l1.064 0.208c0.064-0.331 0.152-0.659 0.26-0.977l-1.028-0.349c-0.123 0.363-0.222 0.739-0.297 1.118zM7.196 16.053c0.001 0.211 0.008 0.42 0.023 0.628l1.081-0.076c-0.012-0.183-0.019-0.368-0.020-0.553 0-0.154 0.004-0.307 0.014-0.459l-1.083-0.067c-0.010 0.175-0.016 0.35-0.016 0.528zM23.035 13.521c0.113 0.319 0.204 0.647 0.272 0.974l1.063-0.22c-0.078-0.374-0.183-0.749-0.311-1.114l-1.024 0.36zM22.168 20.299l0.898 0.608c0.216-0.319 0.413-0.655 0.583-0.999l-0.971-0.483c-0.149 0.301-0.32 0.595-0.51 0.874zM23.067 18.492l1.028 0.349c0.124-0.363 0.223-0.739 0.297-1.118l-1.064-0.208c-0.065 0.331-0.152 0.66-0.26 0.978zM24.552 16.053c0.001-0.213-0.008-0.425-0.023-0.635l-1.081 0.079c0.013 0.182 0.020 0.367 0.020 0.554 0 0.153-0.004 0.306-0.014 0.458l1.083 0.067c0.010-0.174 0.016-0.349 0.016-0.523z"></path>
</svg>
