<!-- Generated by IcoMoon.io -->
<svg version="1.1" xmlns="http://www.w3.org/2000/svg" width="32" height="32" viewBox="0 0 32 32">
<title>circle-checkmark</title>
<path d="M16 32c-8.822 0-16-7.177-16-16s7.178-16 16-16 16 7.177 16 16c0 8.823-7.177 16-16 16zM16 1.737c-7.865 0-14.263 6.398-14.263 14.263s6.398 14.263 14.263 14.263c7.864 0 14.263-6.398 14.263-14.263s-6.398-14.263-14.263-14.263zM23.191 9.727l1.805 1.805-11.279 11.279-1.805-1.805 11.279-11.279zM13.717 22.81l-5.87-5.87 2.041-2.041 5.87 5.87-2.041 2.041z"></path>
</svg>
