<!-- Generated by IcoMoon.io -->
<svg version="1.1" xmlns="http://www.w3.org/2000/svg" width="32" height="32" viewBox="0 0 32 32">
<title>clock</title>
<path d="M16 24.724c-0.385 0-0.665 0.283-0.665 0.671s0.28 0.672 0.665 0.672c0.385 0 0.665-0.283 0.665-0.672s-0.28-0.671-0.665-0.671zM6.691 15.329c-0.385 0-0.665 0.283-0.665 0.671s0.28 0.672 0.665 0.672c0.385 0 0.665-0.283 0.665-0.672s-0.28-0.671-0.665-0.671zM16 7.276c0.385 0 0.665-0.283 0.665-0.671s-0.28-0.672-0.665-0.672c-0.385 0-0.665 0.283-0.665 0.672s0.28 0.671 0.665 0.671zM25.309 15.329c-0.385 0-0.665 0.283-0.665 0.671s0.28 0.672 0.665 0.672c0.385 0 0.665-0.283 0.665-0.672s-0.28-0.671-0.665-0.671zM16 30.658c-8.014 0-14.524-6.57-14.524-14.658s6.51-14.658 14.524-14.658 14.524 6.57 14.524 14.658-6.51 14.658-14.524 14.658zM16 0c-8.749 0-15.854 7.17-15.854 16s7.105 16 15.854 16 15.854-7.17 15.854-16-7.105-16-15.854-16zM16 16.812c-0.455 0-0.805-0.353-0.805-0.812s0.35-0.812 0.805-0.812c0.455 0 0.805 0.354 0.805 0.812s-0.35 0.812-0.805 0.812zM16.665 13.951v-4.38c0-0.389-0.28-0.671-0.665-0.671s-0.665 0.282-0.665 0.671v4.38c-0.63 0.212-1.156 0.741-1.365 1.378h-4.34c-0.385 0-0.665 0.282-0.665 0.671s0.28 0.671 0.665 0.671h4.34c0.315 0.884 1.155 1.484 2.030 1.484 1.19 0 2.135-0.954 2.135-2.155 0-0.883-0.596-1.731-1.47-2.049zM16 27.691c-6.404 0-11.584-5.227-11.584-11.691s5.18-11.691 11.584-11.691 11.584 5.227 11.584 11.691-5.18 11.691-11.584 11.691zM16 2.967c-7.105 0-12.914 5.864-12.914 13.033s5.809 13.034 12.914 13.034 12.914-5.864 12.914-13.033-5.809-13.034-12.914-13.034z"></path>
</svg>
