<!-- Generated by IcoMoon.io -->
<svg version="1.1" xmlns="http://www.w3.org/2000/svg" width="32" height="32" viewBox="0 0 32 32">
<title>cloud-upload</title>
<path d="M24.461 6.909c-0.659-0.015-1.321 0.065-1.962 0.235-1.674-2.734-4.686-4.449-7.902-4.486-4.55 0.063-8.408 3.332-9.229 7.793-2.925 0.248-5.368 3.024-5.368 6.145 0 3.283 2.701 6.164 5.781 6.164h6.415c0.32 0 0.581-0.261 0.581-0.581s-0.261-0.581-0.581-0.581h-6.416c-2.461 0-4.619-2.337-4.619-5.002 0-1.346 0.557-2.675 1.529-3.645 0.864-0.863 1.947-1.338 3.049-1.338 0.002 0 0.004 0 0.006 0h0.618l0.070-0.509c0.532-4.087 4.041-7.219 8.156-7.284 2.971 0.043 5.699 1.692 7.121 4.304l0.243 0.428 0.461-0.167c0.653-0.227 1.337-0.33 2.031-0.314 3.386 0 6.141 2.942 6.141 6.559 0 3.713-2.985 6.969-6.388 6.969h-4.259c-0.32 0-0.581 0.261-0.581 0.581s0.261 0.581 0.581 0.581h4.259c4.022 0 7.55-3.799 7.55-8.131 0-4.257-3.27-7.72-7.286-7.72zM19.55 17.189c0.107 0.096 0.244 0.15 0.388 0.151 0.002 0 0.003 0 0.005 0 0.166 0 0.325-0.071 0.436-0.197 0.212-0.24 0.189-0.608-0.050-0.818l-3.877-3.488c-0.007-0.007-0.017-0.009-0.024-0.015-0.042-0.033-0.087-0.063-0.137-0.083-0.023-0.010-0.045-0.015-0.069-0.021-0.031-0.009-0.063-0.014-0.096-0.017-0.039-0.004-0.077-0.004-0.116 0-0.033 0.003-0.065 0.009-0.096 0.017-0.024 0.007-0.046 0.012-0.069 0.021-0.050 0.021-0.095 0.050-0.137 0.083-0.008 0.006-0.017 0.008-0.024 0.015l-3.877 3.492c-0.116 0.104-0.184 0.246-0.192 0.402s0.044 0.304 0.148 0.42c0.104 0.116 0.246 0.183 0.402 0.192 0.010 0.001 0.021 0.001 0.031 0.001 0.144 0 0.281-0.052 0.388-0.149l2.902-2.613v14.181c0 0.32 0.261 0.581 0.581 0.581s0.581-0.261 0.581-0.581v-14.181l2.902 2.61z"></path>
</svg>
