<!-- Generated by IcoMoon.io -->
<svg version="1.1" xmlns="http://www.w3.org/2000/svg" width="32" height="32" viewBox="0 0 32 32">
<title>cloud-directory</title>
<path d="M26.483 12.181l-0.14-0.012 0.020-0.139c0.063-0.438 0.092-0.805 0.092-1.157 0-4.37-3.495-7.925-7.791-7.925-3.297 0-6.248 2.13-7.344 5.3l-0.058 0.167-0.144-0.103c-0.696-0.497-1.511-0.76-2.359-0.76-2.022 0-3.769 1.535-4.064 3.571l-0.012 0.085-0.083 0.023c-2.639 0.736-4.482 3.192-4.482 5.972 0 3.418 2.733 6.198 6.093 6.198h11.557v-0.887h-11.557c-2.882 0-5.226-2.383-5.226-5.312 0-2.683 1.944-4.922 4.544-5.266-0.009-0.066-0.016-0.133-0.016-0.201 0-1.818 1.456-3.298 3.245-3.298 1.085 0 2.186 0.619 2.847 1.573 0.511-3.44 3.6-6.178 7.057-6.178 3.818 0 6.924 3.157 6.924 7.039 0 0.757-0.123 1.51-0.367 2.243 0.27-0.049 0.538-0.073 0.801-0.073 2.57 0 4.66 2.125 4.66 4.736 0 0.969-0.289 1.871-0.783 2.622v1.379c1.018-1.020 1.65-2.436 1.65-4.001-0-2.9-2.226-5.359-5.067-5.598zM29.145 16.51h-0.013c-0.259-1.417-2.426-2.431-5.249-2.431s-4.989 1.014-5.249 2.431h-0.033l0.001 9.025 0.019 0.139c0.001 0.009 0.003 0.017 0.004 0.026l0.005 0.031h0.001c0.245 1.408 2.457 2.452 5.254 2.452 2.892 0 5.158-1.117 5.272-2.609l0.008-8.782-0.019-0.282zM19.346 16.792c0-0.895 1.863-1.893 4.537-1.893 2.654 0 4.52 0.992 4.535 1.903-0.015 0.891-1.881 1.883-4.535 1.883-2.674 0-4.537-0.998-4.537-1.893zM19.344 20.217v-2.010c0.926 0.808 2.615 1.299 4.54 1.299 1.92 0 3.608-0.489 4.535-1.295v2.060c-0.592 0.514-1.943 1.32-4.583 1.32-2.653 0-3.942-0.84-4.492-1.374zM19.344 23.364v-2.087c0.802 0.567 2.191 1.158 4.492 1.158 2.316 0 3.746-0.583 4.583-1.139v2.122c-0.593 0.514-1.944 1.32-4.583 1.32-2.653 0-3.942-0.841-4.492-1.374zM28.419 24.443v1.037c-0.016 0.89-1.882 1.882-4.535 1.882-2.674 0-4.537-0.998-4.537-1.899l-0.003-1.038c0.803 0.567 2.191 1.158 4.492 1.158 2.316 0 3.746-0.584 4.583-1.139z"></path>
</svg>
