<!-- Generated by IcoMoon.io -->
<svg version="1.1" xmlns="http://www.w3.org/2000/svg" width="32" height="32" viewBox="0 0 32 32">
<title>cloud</title>
<path d="M26.631 14.995l-0.141-0.012 0.020-0.14c0.064-0.443 0.093-0.814 0.093-1.169 0-4.414-3.531-8.005-7.87-8.005-3.33 0-6.311 2.151-7.419 5.353l-0.058 0.169-0.145-0.104c-0.703-0.503-1.526-0.768-2.382-0.768-2.042 0-3.807 1.551-4.105 3.607l-0.012 0.086-0.084 0.023c-2.666 0.744-4.527 3.224-4.527 6.033 0 3.452 2.761 6.261 6.155 6.261h20.009c3.079 0 5.584-2.548 5.584-5.68 0-2.93-2.248-5.414-5.117-5.656zM26.164 25.435h-20.009c-2.911 0-5.279-2.407-5.279-5.366 0-2.71 1.964-4.972 4.59-5.319-0.009-0.067-0.016-0.134-0.016-0.204 0-1.837 1.47-3.331 3.278-3.331 1.095 0 2.208 0.626 2.876 1.589 0.517-3.474 3.636-6.24 7.129-6.24 3.856 0 6.994 3.189 6.994 7.11 0 0.764-0.125 1.525-0.371 2.266 0.272-0.049 0.543-0.074 0.809-0.074 2.596 0 4.707 2.146 4.707 4.784s-2.112 4.784-4.707 4.784z"></path>
</svg>
