<!-- Generated by IcoMoon.io -->
<svg version="1.1" xmlns="http://www.w3.org/2000/svg" width="32" height="32" viewBox="0 0 32 32">
<title>commuter-offset</title>
<path d="M31.507 17.492l-0.885-0.315-0.661-1.301c-0.003-0.005-0.007-0.010-0.010-0.015-0.002-0.004-0.002-0.009-0.003-0.012-0.294-0.589-0.74-1.48-1.385-1.788-0.487-0.233-1.002-0.289-1.501-0.343-0.107-0.012-0.215-0.024-0.321-0.037l-6.561-0.837-2.045-3.828c-0.063-0.118-0.186-0.192-0.32-0.192h-13.752c-0.158 0-0.298 0.103-0.346 0.254l-0.967 3.052h-2.386c-0.201 0-0.363 0.163-0.363 0.363v5.34c0 0.201 0.163 0.363 0.363 0.363h0.998v1.316c0 0.201 0.163 0.363 0.363 0.363h3.030c-0.021 0.139-0.035 0.279-0.035 0.424 0 1.585 1.29 2.874 2.874 2.874s2.874-1.289 2.874-2.874c0-0.020-0.003-0.040-0.003-0.061h13.501c-0 0.020-0.003 0.040-0.003 0.061 0 1.585 1.29 2.874 2.874 2.874s2.874-1.289 2.874-2.874c0-0.213-0.025-0.42-0.069-0.621h1.741c0.201 0 0.363-0.163 0.363-0.363v-1.483c0.001-0.154-0.096-0.291-0.241-0.342zM12.867 9.551h4.729l1.701 3.185h-6.431v-3.185zM12.867 14.907h0.998c0.201 0 0.363-0.163 0.363-0.363s-0.163-0.363-0.363-0.363h-0.998v-0.718h6.536v4.394h-5.584l-0.951-1.249v-1.7zM12.141 9.551v3.185h-6.696l1.009-3.185h5.687zM0.726 17.471v-4.614h1.793l-0.392 1.237c-0.011 0.036-0.017 0.072-0.017 0.11v3.268h-1.384zM7.595 22.449c-1.184 0-2.148-0.964-2.148-2.148 0-0.197 0.029-0.388 0.079-0.569 0.047-0.061 0.080-0.134 0.080-0.217 0-0.005-0.003-0.009-0.003-0.013 0.318-0.789 1.091-1.348 1.992-1.348 1.184 0 2.148 0.964 2.148 2.148s-0.964 2.148-2.148 2.148zM10.357 19.514c-0.343-1.203-1.45-2.088-2.762-2.088-1.176 0-2.188 0.711-2.633 1.725h-2.874v-0.953h1.906c0.127 0 0.244-0.066 0.31-0.174l0.983-1.618h4.144l2.649 3.109h-1.724zM13.035 19.514l-3.159-3.708c-0.069-0.081-0.17-0.128-0.276-0.128h-4.516c-0.127 0-0.244 0.066-0.31 0.174l-0.983 1.618h-0.953v-3.211l1.492-4.708h1.364l-1.089 3.439c-0.035 0.11-0.015 0.231 0.053 0.324s0.177 0.149 0.293 0.149h7.192v3.268c0 0.079 0.026 0.157 0.074 0.22l1.135 1.49c0.069 0.090 0.176 0.143 0.289 0.143h6.127c0.201 0 0.363-0.163 0.363-0.363v-4.648l6.52 0.831c0.11 0.014 0.222 0.026 0.334 0.038 0.458 0.050 0.891 0.097 1.266 0.276 0.289 0.138 0.564 0.553 0.79 0.961h-4.345c-0.106 0-0.207 0.047-0.276 0.128l-3.159 3.708h-8.224zM26.839 22.449c-1.184 0-2.148-0.964-2.148-2.148s0.964-2.148 2.148-2.148c0.869 0 1.618 0.52 1.956 1.265 0.009 0.029 0.020 0.056 0.035 0.081 0.1 0.248 0.157 0.518 0.157 0.802 0 1.184-0.964 2.148-2.148 2.148zM31.022 18.954h-1.645c-0.484-0.908-1.439-1.528-2.538-1.528-1.312 0-2.419 0.884-2.762 2.088h-1.864l2.649-3.109h4.554l0.625 1.231c0.042 0.083 0.115 0.146 0.202 0.178l0.78 0.277-0 0.863z"></path>
</svg>
