<!-- Generated by IcoMoon.io -->
<svg version="1.1" xmlns="http://www.w3.org/2000/svg" width="32" height="32" viewBox="0 0 32 32">
<title>computer-connect</title>
<path d="M8.955 21.727c0.125-0.158 0.169-0.362 0.122-0.558l-0.247-1.025h3.163c0.439 0 0.796-0.357 0.796-0.797v-8.53c0-0.439-0.357-0.797-0.796-0.797h-11.196c-0.439 0-0.797 0.357-0.797 0.797v8.53c0 0.439 0.357 0.797 0.797 0.797h3.163l-0.248 1.025c-0.047 0.197-0.003 0.4 0.122 0.558s0.313 0.25 0.515 0.25h4.091c0.202-0 0.39-0.091 0.515-0.251zM0.792 17.955v-7.136l0.005-0.005 11.201 0.005v7.136h-11.206zM4.773 20.145h3.243l0.252 1.041-3.748 0.004 0.252-1.045zM0.797 19.354l-0.005-0.607h11.205l-0.004 0.607h-11.196zM8.441 21.582v0 0 0zM30.952 10.022h-11.197c-0.439 0-0.796 0.357-0.796 0.797v8.53c0 0.439 0.357 0.797 0.796 0.797h3.162l-0.247 1.024c-0.048 0.197-0.003 0.4 0.122 0.558s0.313 0.25 0.515 0.25h4.091c0.202 0 0.39-0.091 0.515-0.25s0.169-0.362 0.123-0.558l-0.248-1.025h3.163c0.439 0 0.796-0.357 0.796-0.797v-8.53c0-0.439-0.357-0.797-0.796-0.797zM26.976 20.145l0.252 1.041-3.748 0.004 0.252-1.045h3.243zM19.751 17.955l0.005-7.141 11.201 0.005v7.136h-11.206zM30.956 18.747v0.602l-0.005 0.005-11.201-0.005v-0.602h11.206zM25.634 23.485c-0.037-0.037-0.081-0.066-0.129-0.085-0.097-0.040-0.204-0.042-0.301-0.001-0.050 0.020-0.094 0.050-0.13 0.086l-2.185 2.184c-0.154 0.155-0.154 0.406 0 0.56 0.075 0.075 0.174 0.116 0.28 0.116 0.001 0 0.001 0 0.001 0 0.106-0.001 0.205-0.042 0.279-0.116l1.51-1.509v2.874c0 0.615-0.501 1.116-1.117 1.116h-16.099c-0.616 0-1.117-0.501-1.117-1.116v-3.83c0-0.218-0.177-0.396-0.396-0.396s-0.396 0.177-0.396 0.396v3.83c0 1.052 0.856 1.908 1.908 1.908h16.098c1.052 0 1.908-0.856 1.908-1.908v-2.874l1.509 1.509c0.149 0.15 0.412 0.15 0.56 0.001 0.075-0.074 0.116-0.174 0.116-0.279s-0.041-0.205-0.116-0.28l-2.184-2.184zM5.95 8.515c0.037 0.037 0.080 0.066 0.129 0.086 0.097 0.041 0.205 0.040 0.302 0 0.048-0.020 0.091-0.049 0.129-0.086l2.185-2.185c0.075-0.075 0.116-0.174 0.116-0.28s-0.041-0.205-0.116-0.28c-0.154-0.154-0.405-0.154-0.56 0l-1.51 1.509v-2.874c0-0.616 0.501-1.117 1.117-1.117h16.098c0.616 0 1.117 0.501 1.117 1.117v3.829c0 0.218 0.177 0.396 0.396 0.396s0.396-0.177 0.396-0.396v-3.829c0-1.052-0.856-1.908-1.908-1.908h-16.098c-1.052 0-1.908 0.856-1.908 1.908v2.874l-1.509-1.509c-0.154-0.154-0.405-0.154-0.559 0-0.075 0.075-0.116 0.174-0.116 0.28s0.041 0.205 0.116 0.28l2.185 2.185z"></path>
</svg>
