<!-- Generated by IcoMoon.io -->
<svg version="1.1" xmlns="http://www.w3.org/2000/svg" width="32" height="32" viewBox="0 0 32 32">
<title>competitive-content</title>
<path d="M26.783 1.854h-21.565c-0.976 0-1.768 0.793-1.768 1.768v24.756c0 0.977 0.793 1.768 1.768 1.768h21.565c0.977 0 1.768-0.791 1.768-1.768v-24.756c0-0.976-0.791-1.768-1.768-1.768zM27.536 28.067c0 0.512-0.414 0.925-0.925 0.925h-20.872c-0.512 0-0.925-0.414-0.925-0.925v-24.062c0-0.512 0.414-0.925 0.925-0.925h20.872c0.512 0 0.925 0.414 0.925 0.925v24.062zM24.506 20.415l-4.044 4.044-1.98-2.014c-0.237-0.237-0.621-0.237-0.858 0s-0.237 0.621 0 0.858l2.406 2.446c0.237 0.237 0.621 0.237 0.858 0l4.476-4.476c0.237-0.237 0.237-0.621 0-0.858s-0.621-0.237-0.858 0zM24.362 17.119h-16.723c-0.306 0-0.553-0.247-0.553-0.553 0-0.305 0.247-0.553 0.553-0.553h16.723c0.306 0 0.553 0.249 0.553 0.553 0 0.306-0.248 0.553-0.553 0.553zM24.362 12.694h-16.723c-0.306 0-0.553-0.247-0.553-0.553 0-0.305 0.247-0.553 0.553-0.553h16.723c0.306 0 0.553 0.249 0.553 0.553 0 0.306-0.248 0.553-0.553 0.553zM24.362 8.268h-16.723c-0.306 0-0.553-0.247-0.553-0.553s0.247-0.553 0.553-0.553h16.723c0.306 0 0.553 0.247 0.553 0.553s-0.248 0.553-0.553 0.553z"></path>
</svg>
