<!-- Generated by IcoMoon.io -->
<svg version="1.1" xmlns="http://www.w3.org/2000/svg" width="32" height="32" viewBox="0 0 32 32">
<title>connect-everything</title>
<path d="M29.034 9.123c-0.015-0-0.034-0-0.052-0-1.529 0-2.768 1.239-2.768 2.768 0 0.182 0.018 0.361 0.051 0.533l-0.003-0.017-4.822 1.674c-0.865-2.194-2.966-3.718-5.423-3.718-1.413 0-2.708 0.504-3.716 1.342l0.009-0.008-3.616-3.619c0.745-0.856 1.199-1.983 1.199-3.216 0-2.713-2.199-4.912-4.912-4.912s-4.912 2.199-4.912 4.912c0 2.713 2.199 4.912 4.912 4.912 1.143 0 2.195-0.39 3.029-1.045l-0.011 0.008 3.635 3.645c-0.891 1.015-1.434 2.355-1.434 3.821 0 2.031 1.043 3.819 2.622 4.857l0.022 0.014-2.426 4.099c-0.33-0.116-0.711-0.182-1.107-0.182-0.001 0-0.002 0-0.003 0h0c-0.002 0-0.005 0-0.008 0-1.944 0-3.52 1.576-3.52 3.52s1.576 3.52 3.52 3.52c1.944 0 3.52-1.576 3.52-3.52 0-1.204-0.604-2.266-1.526-2.901l-0.012-0.008 2.41-4.067c0.69 0.312 1.497 0.494 2.345 0.494 3.213 0 5.818-2.605 5.818-5.818 0-0.424-0.045-0.838-0.132-1.236l0.007 0.038 4.854-1.699c0.491 0.864 1.405 1.437 2.453 1.437 1.553 0 2.813-1.259 2.813-2.813s-1.259-2.813-2.813-2.813c-0.002 0-0.004 0-0.006 0h0zM11.84 28.48c-0 1.414-1.146 2.56-2.56 2.56s-2.56-1.146-2.56-2.56c0-1.414 1.146-2.56 2.56-2.56 0.006 0 0.011 0 0.017 0h-0.001c1.407 0.009 2.544 1.152 2.544 2.56 0 0 0 0 0 0v0zM1.114 4.874c0-2.161 1.752-3.914 3.914-3.914s3.914 1.752 3.914 3.914c0 2.161-1.752 3.914-3.914 3.914v0c-2.161 0-3.914-1.752-3.914-3.914v0zM16.029 21.062c-2.686 0-4.864-2.178-4.864-4.864s2.178-4.864 4.864-4.864c2.686 0 4.864 2.178 4.864 4.864v0c-0.004 2.685-2.179 4.86-4.864 4.864h-0zM29.034 13.795c-0.001 0-0.002 0-0.003 0-1.025 0-1.856-0.831-1.856-1.856s0.831-1.856 1.856-1.856c1.025 0 1.856 0.831 1.856 1.856v0c0 0 0 0 0 0 0 1.024-0.829 1.854-1.853 1.856h-0z"></path>
</svg>
