<!-- Generated by IcoMoon.io -->
<svg version="1.1" xmlns="http://www.w3.org/2000/svg" width="32" height="32" viewBox="0 0 32 32">
<title>consumer</title>
<path d="M28.418 25.337l0.81-2.904c0.024-0.085 0.006-0.178-0.047-0.249-0.055-0.072-0.137-0.113-0.227-0.113h-5.777l-0.207-0.793c-0.033-0.125-0.146-0.213-0.276-0.213h-1.388c-0.157 0-0.285 0.128-0.285 0.285s0.128 0.285 0.285 0.285h1.168l0.951 3.696c0.007 0.025 0.017 0.050 0.030 0.072l0.294 1.131c0.033 0.125 0.146 0.213 0.276 0.213h4.188c0.157 0 0.285-0.128 0.285-0.285s-0.128-0.285-0.285-0.285h-3.967l-0.165-0.633h4.063c0.127 0.001 0.24-0.085 0.274-0.208zM24.328 23.507h-0.777l-0.223-0.865h0.877l0.123 0.865zM25.672 24.076v0.9h-0.561l-0.128-0.9h0.689zM24.78 22.642h0.893v0.865h-0.77l-0.123-0.865zM24.537 24.976h-0.604l-0.234-0.9h0.71l0.128 0.9zM27.587 23.507l0.123-0.865h0.869l-0.241 0.865h-0.75zM27.378 24.976l0.128-0.9h0.673l-0.251 0.9h-0.55zM26.242 23.507v-0.865h0.893l-0.123 0.865h-0.77zM26.242 24.976v-0.9h0.689l-0.128 0.9h-0.561zM25.041 27.499c0 0.34-0.276 0.616-0.616 0.616s-0.616-0.276-0.616-0.616c0-0.34 0.276-0.616 0.616-0.616s0.616 0.276 0.616 0.616zM28.060 27.499c0 0.34-0.276 0.616-0.616 0.616s-0.616-0.276-0.616-0.616c0-0.34 0.276-0.616 0.616-0.616s0.616 0.276 0.616 0.616zM25.16 18.367c3.187 0 5.771 2.584 5.771 5.771s-2.584 5.771-5.771 5.771c-3.187 0-5.771-2.584-5.771-5.771s2.584-5.771 5.771-5.771zM25.16 17.551c-3.633 0-6.588 2.955-6.588 6.588s2.955 6.588 6.588 6.588 6.588-2.955 6.588-6.588-2.955-6.588-6.588-6.588v0zM18.032 21.543c-0.027-0.008-0.069-0.022-0.090-0.029-1.581-1.325-0.941-2.802 0.215-4.89 0.174-0.317 0.345-0.625 0.494-0.923 0.857-1.713 0.706-2.796 0.578-3.233 0.333-1.231 0.629-4.649-1.096-6.512-1.027-1.109-2.533-1.43-4.481-0.959-2.054 0.013-3.548 0.648-4.443 1.89-1.543 2.14-0.731 5.344-0.509 6.096-0.434 1.543 0.45 2.611 0.636 2.813 0.21 0.291 2.563 3.665 0.594 5.752l-0.673 0.297c-2.035 0.9-3.443 1.529-4.606 2.413-2.257-2.334-3.652-5.508-3.652-9.011 0-7.166 5.809-12.976 12.975-12.976s12.976 5.809 12.976 12.976c0 0.509-0.037 1.010-0.094 1.504 0.331 0.067 0.652 0.161 0.967 0.269 0.074-0.582 0.125-1.171 0.125-1.773 0-7.718-6.256-13.974-13.974-13.974s-13.973 6.256-13.973 13.974c0 7.717 6.256 13.973 13.973 13.973 1.623 0 3.175-0.291 4.624-0.8-0.704-1.173-1.116-2.542-1.116-4.010 0-1.014 0.199-1.979 0.55-2.868z"></path>
</svg>
