<!-- Generated by IcoMoon.io -->
<svg version="1.1" xmlns="http://www.w3.org/2000/svg" width="32" height="32" viewBox="0 0 32 32">
<title>console</title>
<path d="M29.48 1.26h-27.213c-1.252 0-2.268 1.015-2.268 2.268v20.409c0 1.252 1.015 2.268 2.268 2.268h11.338v3.401h-2.268c-0.313 0-0.567 0.254-0.567 0.567s0.254 0.567 0.567 0.567h9.071c0.313 0 0.567-0.254 0.567-0.567s-0.254-0.567-0.567-0.567h-2.268v-3.401h11.338c1.252 0 2.268-1.015 2.268-2.268v-20.409c0.001-1.252-1.015-2.268-2.267-2.268zM17.008 29.606h-2.268v-3.401h2.268v3.401zM30.614 23.937c0 0.626-0.508 1.134-1.134 1.134h-27.213c-0.626 0-1.134-0.508-1.134-1.134v-2.268h29.48v2.268zM30.614 20.535h-29.48v-17.008c0-0.626 0.508-1.134 1.134-1.134h27.212c0.626 0 1.134 0.508 1.134 1.134v17.008z"></path>
</svg>
