<!-- Generated by IcoMoon.io -->
<svg version="1.1" xmlns="http://www.w3.org/2000/svg" width="32" height="32" viewBox="0 0 32 32">
<title>contact-talk</title>
<path d="M32 17.14c0-4.417-4.093-7.999-9.143-7.999-0.542 0-1.069 0.049-1.585 0.128-1.319-4.036-5.479-6.986-10.415-6.986-5.996 0-10.857 4.349-10.857 9.715 0 2.392 0.97 4.578 2.572 6.271-0.731 4.020 0.149 8 0.149 8 1.521-2.988 3.359-4.372 4.949-4.984 1.008 0.277 2.078 0.428 3.188 0.428 1.417 0 2.767-0.25 4.008-0.692 1.561 2.455 4.554 4.118 7.992 4.118 0.679 0 1.338-0.069 1.974-0.192 1.466 0.7 3.084 2.088 4.448 4.769 0 0 0.76-3.437 0.283-7.151 1.508-1.427 2.438-3.329 2.438-5.426zM10.857 20.57c-1.097 0-2.146-0.167-3.13-0.463-1.386 0.401-2.964 1.281-4.243 3.148 0 0-0.318-2.581 0.34-5.354-1.658-1.538-2.682-3.613-2.682-5.903 0-4.733 4.349-8.572 9.714-8.572 4.379 0 8.079 2.558 9.292 6.071-3.727 1.010-6.435 4.049-6.435 7.642 0 1.008 0.222 1.969 0.612 2.857-1.078 0.365-2.245 0.572-3.468 0.572zM28.339 22.123c0.437 2.46 0.176 4.576 0.176 4.576-1.089-1.592-2.396-2.464-3.616-2.938-0.653 0.147-1.335 0.233-2.042 0.233-4.419 0-8-3.069-8-6.855s3.581-6.855 8-6.855 8 3.069 8 6.855c0 1.967-0.971 3.733-2.518 4.983z"></path>
</svg>
