<!-- Generated by IcoMoon.io -->
<svg version="1.1" xmlns="http://www.w3.org/2000/svg" width="32" height="32" viewBox="0 0 32 32">
<title>continuous-auth</title>
<path d="M22.896 0h-0.074c-5.006 0.045-9.048 4.107-9.062 9.115v3.685h4.48v-3.683c0-0.002 0-0.004 0-0.006 0-2.568 2.082-4.65 4.65-4.65s4.65 2.082 4.65 4.65c0 2.568-2.082 4.65-4.65 4.65-0.002 0-0.005 0-0.007 0h-13.76c-0.006 0-0.012-0-0.019-0-5.037 0-9.12 4.083-9.12 9.12 0 5.030 4.072 9.109 9.1 9.12h0.155c4.49-0.081 8.185-3.385 8.873-7.692l0.007-0.052h1.446c0.004 0 0.008 0 0.012 0 0.53 0 0.96-0.43 0.96-0.96 0-0.27-0.111-0.513-0.29-0.688l-3.626-3.623c-0.174-0.176-0.415-0.285-0.682-0.285h-0c-0.267 0-0.508 0.109-0.682 0.285l-3.626 3.622c-0.179 0.175-0.291 0.418-0.291 0.688 0 0.53 0.43 0.96 0.96 0.96 0.004 0 0.009-0 0.013-0h1.244c-0.603 1.917-2.364 3.283-4.444 3.283-2.568 0-4.65-2.082-4.65-4.65s2.082-4.65 4.65-4.65c0.001 0 0.002 0 0.003 0h13.76c5.037 0 9.12-4.083 9.12-9.12s-4.083-9.12-9.12-9.12v0zM22.896 17.309h-13.76c-0.006-0-0.013-0-0.019-0-3.077 0-5.571 2.494-5.571 5.571s2.494 5.571 5.571 5.571c2.489 0 4.596-1.632 5.311-3.884l0.011-0.039 0.374-1.197h-2.499c-0.017 0-0.032-0.010-0.038-0.025l-0-0c-0.005-0.006-0.007-0.014-0.007-0.022s0.003-0.016 0.007-0.023l-0 0 0.080-0.080 3.581-3.571 0.032 0.029 3.622 3.622c0.005 0.006 0.008 0.014 0.008 0.022s-0.003 0.016-0.008 0.022l0-0c-0.005 0.015-0.019 0.025-0.035 0.026h-2.24l-0.118 0.784c-0.612 3.93-3.952 6.909-7.995 6.954l-0.005 0h-0.138c-4.449-0.1-8.017-3.73-8.017-8.193 0-4.476 3.588-8.113 8.044-8.194l0.008-0h13.76c0.009 0 0.019 0 0.029 0 3.077 0 5.571-2.494 5.571-5.571s-2.494-5.571-5.571-5.571c-3.077 0-5.571 2.494-5.571 5.571 0 0.002 0 0.004 0 0.007v-0 2.765h-2.624v-2.765c0.021-4.5 3.651-8.145 8.143-8.192l0.004-0h0.064c4.456 0.091 8.033 3.724 8.033 8.194s-3.577 8.103-8.025 8.193l-0.008 0z"></path>
</svg>
