<!-- Generated by IcoMoon.io -->
<svg version="1.1" xmlns="http://www.w3.org/2000/svg" width="32" height="32" viewBox="0 0 32 32">
<title>credit-card</title>
<path d="M29.405 10.157h-1.619l-1.459-5.44c-0.176-0.685-0.617-1.244-1.203-1.574l-0.013-0.006c-0.36-0.221-0.797-0.353-1.264-0.353-0.258 0-0.507 0.040-0.74 0.114l0.017-0.005-21.203 5.645c-0.685 0.176-1.244 0.617-1.574 1.203l-0.007 0.013c-0.221 0.36-0.353 0.796-0.353 1.262 0 0.258 0.040 0.506 0.114 0.739l-0.005-0.017 0.32 1.136v0.080l0.909 3.325v0.080l2.349 8.752c0.177 0.662 0.6 1.204 1.163 1.533l0.012 0.006c0.025 1.416 1.176 2.555 2.595 2.56h21.962c0.003 0 0.006 0 0.010 0 1.428 0 2.586-1.158 2.586-2.586 0-0.002 0-0.005 0-0.007v0-13.866c0-0.016 0.001-0.036 0.001-0.055 0-1.403-1.138-2.541-2.541-2.541-0.019 0-0.039 0-0.058 0.001l0.003-0zM26.448 9.024l-4.16 1.133h-9.6l13.091-3.52zM26.691 9.984l0.038 0.122h-0.525zM1.242 10.266c0.216-0.351 0.551-0.61 0.948-0.724l0.012-0.003 21.206-5.699c0.123-0.034 0.265-0.054 0.411-0.054 0.296 0 0.574 0.081 0.812 0.221l-0.007-0.004c0.364 0.201 0.631 0.543 0.728 0.95l0.002 0.010 0.163 0.64-16.778 4.554h-1.254c-0.013-0-0.028-0-0.044-0-0.747 0-1.417 0.328-1.874 0.849l-0.002 0.003-4.285 1.152-0.163-0.64c-0.055-0.146-0.087-0.315-0.087-0.491 0-0.278 0.079-0.537 0.215-0.756l-0.004 0.006zM4.848 12.739v2.067l-2.672 0.742-0.64-2.39 3.363-0.893c-0.010 0.122-0.051 0.323-0.051 0.486zM2.458 16.522l2.39-0.64v9.35c-0.074-0.117-0.13-0.253-0.159-0.399l-0.001-0.008zM30.986 26.56c0 0.013 0.001 0.029 0.001 0.045 0 0.859-0.696 1.555-1.555 1.555-0.009 0-0.018-0-0.028-0l0.001 0h-21.92c-0.008 0-0.017 0-0.026 0-0.859 0-1.555-0.696-1.555-1.555 0-0.016 0-0.032 0.001-0.047l-0 0.002v-13.808c0-0.873 0.708-1.581 1.581-1.581v0h21.955c0.006-0 0.012-0 0.019-0 0.873 0 1.581 0.708 1.581 1.581 0 0 0 0 0 0v0l-0.054 13.808zM13.398 13.76h-4.618c-0.012-0.001-0.027-0.002-0.041-0.002-0.292 0-0.528 0.236-0.528 0.528s0.236 0.528 0.528 0.528c0.014 0 0.029-0.001 0.043-0.002l-0.002 0h4.618c0.012 0.001 0.027 0.002 0.041 0.002 0.292 0 0.528-0.236 0.528-0.528s-0.236-0.528-0.528-0.528c-0.014 0-0.029 0.001-0.043 0.002l0.002-0z"></path>
</svg>
