<!-- Generated by IcoMoon.io -->
<svg version="1.1" xmlns="http://www.w3.org/2000/svg" width="31" height="32" viewBox="0 0 31 32">
<title>custom-schema</title>
<path d="M15.774 14.85c0.172 0 0.322-0.15 0.322-0.322v-0.946c0-0.172-0.15-0.322-0.322-0.322s-0.322 0.15-0.322 0.322v0.946c0 0.193 0.15 0.322 0.322 0.322zM15.774 10.144c0.172 0 0.322-0.15 0.322-0.322v-0.946c0-0.172-0.15-0.322-0.322-0.322s-0.322 0.15-0.322 0.322v0.946c0 0.172 0.15 0.322 0.322 0.322zM15.774 12.508c0.172 0 0.322-0.15 0.322-0.322v-0.946c0-0.172-0.15-0.322-0.322-0.322s-0.322 0.15-0.322 0.322v0.946c0 0.172 0.15 0.322 0.322 0.322zM8.21 20.073l-0.752 0.43c-0.15 0.086-0.215 0.279-0.107 0.451 0.064 0.107 0.172 0.172 0.279 0.172 0.064 0 0.107-0.021 0.172-0.043l0.752-0.43c0.15-0.086 0.215-0.279 0.107-0.451s-0.301-0.215-0.451-0.129zM11.949 17.923l-0.752 0.43c-0.15 0.086-0.215 0.279-0.107 0.451 0.064 0.107 0.172 0.172 0.279 0.172 0.064 0 0.107-0.021 0.172-0.043l0.752-0.43c0.15-0.086 0.215-0.279 0.107-0.451s-0.301-0.215-0.451-0.129zM13.819 16.849l-0.752 0.43c-0.15 0.086-0.215 0.279-0.107 0.451 0.064 0.107 0.172 0.172 0.279 0.172 0.064 0 0.107-0.021 0.172-0.043l0.752-0.43c0.15-0.086 0.215-0.279 0.107-0.451s-0.301-0.236-0.451-0.129zM10.079 18.998l-0.752 0.43c-0.15 0.086-0.215 0.279-0.107 0.451 0.064 0.107 0.172 0.172 0.279 0.172 0.064 0 0.107-0.021 0.172-0.043l0.752-0.43c0.15-0.086 0.215-0.279 0.107-0.451s-0.301-0.215-0.451-0.129zM22.2 19.428l-0.752-0.43c-0.15-0.086-0.344-0.043-0.451 0.107-0.086 0.15-0.043 0.344 0.107 0.451l0.752 0.43c0.043 0.021 0.107 0.043 0.172 0.043 0.107 0 0.215-0.064 0.279-0.172 0.107-0.15 0.043-0.344-0.107-0.43zM20.33 18.353l-0.752-0.43c-0.15-0.086-0.344-0.043-0.451 0.107-0.086 0.15-0.043 0.344 0.107 0.451l0.752 0.43c0.043 0.021 0.107 0.043 0.172 0.043 0.107 0 0.215-0.064 0.279-0.172 0.107-0.15 0.064-0.344-0.107-0.43zM18.482 17.279l-0.752-0.43c-0.15-0.086-0.344-0.043-0.451 0.107-0.086 0.15-0.021 0.344 0.129 0.451l0.752 0.43c0.043 0.021 0.107 0.043 0.172 0.043 0.107 0 0.215-0.064 0.279-0.172 0.064-0.15 0.021-0.344-0.129-0.43zM24.070 20.502l-0.752-0.43c-0.15-0.086-0.344-0.043-0.451 0.107-0.086 0.15-0.043 0.344 0.107 0.451l0.752 0.43c0.043 0.021 0.107 0.043 0.172 0.043 0.107 0 0.215-0.064 0.279-0.172 0.107-0.129 0.043-0.322-0.107-0.43zM26.778 20.073v-7.694c0.817-0.215 1.418-0.967 1.418-1.848 0-1.053-0.86-1.913-1.913-1.913-0.516 0-0.967 0.193-1.332 0.537l-7.371-4.062c0.043-0.15 0.043-0.279 0.043-0.43 0-1.053-0.86-1.913-1.913-1.913s-1.913 0.86-1.913 1.913c0 0.172 0.021 0.344 0.064 0.494l-7.242 3.976c-0.344-0.322-0.817-0.537-1.332-0.537-1.053 0-1.913 0.86-1.913 1.913 0 0.881 0.602 1.633 1.418 1.848v7.694c-0.817 0.215-1.418 0.967-1.418 1.848 0 1.053 0.86 1.913 1.913 1.913 0.537 0 1.032-0.215 1.375-0.58l7.199 3.954c-0.043 0.15-0.064 0.322-0.064 0.494 0 1.053 0.86 1.913 1.913 1.913s1.913-0.86 1.913-1.913c0-0.15-0.021-0.301-0.064-0.451l7.307-4.019c0.344 0.365 0.838 0.58 1.375 0.58 1.053 0 1.913-0.86 1.913-1.913 0.021-0.838-0.58-1.59-1.375-1.805zM26.262 22.802c-0.15 0-0.279-0.043-0.408-0.107-0.258-0.129-0.451-0.387-0.494-0.709 0-0.043 0-0.064 0-0.107 0-0.021 0-0.064 0-0.086 0.021-0.172 0.086-0.322 0.172-0.451 0.064-0.064 0.129-0.15 0.193-0.193 0.15-0.107 0.322-0.15 0.516-0.15s0.365 0.064 0.516 0.15c0.236 0.172 0.387 0.43 0.387 0.731 0.021 0.537-0.387 0.924-0.881 0.924zM25.94 9.692c0.107-0.043 0.215-0.064 0.322-0.064 0.494 0 0.903 0.408 0.903 0.903 0 0.301-0.15 0.58-0.387 0.731-0.15 0.107-0.322 0.15-0.516 0.15-0.172 0-0.344-0.043-0.473-0.129-0.021 0-0.021-0.021-0.043-0.021-0.236-0.172-0.387-0.43-0.387-0.731 0-0.387 0.236-0.709 0.58-0.838zM15.71 3.761c0.473 0 0.838 0.344 0.881 0.795 0 0.043 0 0.064 0 0.107 0 0.344-0.193 0.645-0.494 0.795-0.129 0.064-0.258 0.107-0.408 0.107-0.129 0-0.236-0.021-0.344-0.064-0.322-0.129-0.559-0.451-0.559-0.838 0 0 0-0.021 0-0.021 0.043-0.494 0.451-0.881 0.924-0.881zM14.377 6.039c0.279 0.279 0.666 0.473 1.075 0.516v0.924c0 0.172 0.15 0.322 0.322 0.322s0.322-0.15 0.322-0.322v-0.924c0.387-0.086 0.731-0.279 0.989-0.537l7.328 4.040c-0.043 0.172-0.064 0.344-0.064 0.516 0 0.129 0.021 0.258 0.043 0.365l-8.575 4.728c0 0-0.021 0-0.021 0s-0.021 0-0.021 0l-8.575-4.728c0.021-0.129 0.043-0.236 0.043-0.365 0-0.172-0.021-0.344-0.064-0.516l7.199-4.019zM15.71 28.626c-0.494 0-0.881-0.387-0.903-0.881 0 0 0-0.021 0-0.021 0-0.322 0.193-0.623 0.451-0.774 0.043-0.021 0.064-0.043 0.107-0.064 0.107-0.043 0.215-0.064 0.344-0.064 0.15 0 0.279 0.043 0.408 0.107 0.064 0.021 0.129 0.064 0.172 0.107 0.193 0.172 0.322 0.408 0.322 0.688 0 0.021 0 0.064 0 0.086-0.043 0.451-0.43 0.817-0.903 0.817zM4.384 10.531c0-0.494 0.408-0.903 0.903-0.903 0.107 0 0.215 0.021 0.322 0.064 0.344 0.129 0.58 0.451 0.58 0.838 0 0.301-0.15 0.58-0.387 0.731-0.021 0-0.021 0.021-0.043 0.021-0.129 0.086-0.301 0.129-0.473 0.129-0.193 0-0.365-0.064-0.516-0.15-0.215-0.15-0.387-0.43-0.387-0.731zM5.695 22.716c-0.129 0.064-0.258 0.107-0.408 0.107-0.494 0-0.903-0.408-0.903-0.903 0-0.301 0.15-0.58 0.387-0.731 0.15-0.107 0.322-0.15 0.516-0.15s0.365 0.064 0.516 0.15c0.086 0.043 0.15 0.107 0.193 0.193 0.107 0.129 0.172 0.279 0.193 0.451 0 0.021 0 0.064 0 0.086s0 0.064 0 0.086c-0.043 0.301-0.236 0.58-0.494 0.709zM7.156 22.351c0.043-0.15 0.064-0.301 0.064-0.451 0-0.881-0.602-1.633-1.418-1.848v-7.672c0.365-0.107 0.666-0.301 0.903-0.559l8.124 4.47c-0.064 0.107-0.086 0.236-0.021 0.344s0.172 0.172 0.279 0.172c0.064 0 0.107-0.021 0.172-0.043h0.021v9.112c-0.344 0.086-0.645 0.258-0.881 0.473l-7.242-3.997zM17.085 26.369c-0.215-0.215-0.494-0.408-0.795-0.494v-9.134c0.043 0.021 0.107 0.043 0.172 0.043 0.107 0 0.215-0.064 0.279-0.172s0.064-0.236-0.021-0.344l8.124-4.449c0.236 0.258 0.559 0.473 0.903 0.559v7.694c-0.817 0.215-1.418 0.967-1.418 1.848 0 0.15 0.021 0.301 0.064 0.451l-7.307 3.997z"></path>
</svg>
