<!-- Generated by IcoMoon.io -->
<svg version="1.1" xmlns="http://www.w3.org/2000/svg" width="32" height="32" viewBox="0 0 32 32">
<title>customer</title>
<path d="M29.48 6.929h-6.803v-2.268c0-1.252-1.015-2.268-2.268-2.268h-9.071c-1.252 0-2.268 1.015-2.268 2.268v2.268h-6.803c-1.252 0-2.268 1.015-2.268 2.268v18.142c0 1.252 1.015 2.268 2.268 2.268h27.212c1.252 0 2.268-1.015 2.268-2.268v-18.142c0-1.252-1.015-2.268-2.267-2.268zM10.205 4.661c0-0.626 0.508-1.134 1.134-1.134h9.071c0.626 0 1.134 0.508 1.134 1.134v2.268h-11.338v-2.268zM4.535 28.472h-2.268c-0.626 0-1.134-0.508-1.134-1.134v-18.142c0-0.626 0.508-1.134 1.134-1.134h2.268v20.409zM26.079 28.472h-20.409v-20.409h20.409v20.409zM30.614 27.338c0 0.626-0.508 1.134-1.134 1.134h-2.268v-20.409h2.268c0.626 0 1.134 0.508 1.134 1.134v18.142z"></path>
</svg>
