<!-- Generated by IcoMoon.io -->
<svg version="1.1" xmlns="http://www.w3.org/2000/svg" width="32" height="32" viewBox="0 0 32 32">
<title>customizable</title>
<path d="M28 0h-24c-2.208 0.004-3.996 1.792-4 4v24c0.004 2.208 1.792 3.996 4 4h24c2.208-0.004 3.996-1.792 4-4v-24c-0.004-2.208-1.792-3.996-4-4h-0zM30.4 28c-0.004 1.324-1.076 2.396-2.4 2.4h-24c-1.324-0.004-2.396-1.076-2.4-2.4v-24c0.004-1.324 1.076-2.396 2.4-2.4h24c1.324 0.004 2.396 1.076 2.4 2.4v0zM22.4 10.4h-4.141c-0.339-0.938-1.222-1.596-2.259-1.596s-1.92 0.658-2.254 1.58l-0.005 0.017h-4.141c-0.442 0-0.8 0.358-0.8 0.8s0.358 0.8 0.8 0.8v0h4.141c0.339 0.938 1.222 1.596 2.259 1.596s1.92-0.658 2.254-1.58l0.005-0.017h4.141c0.442 0 0.8-0.358 0.8-0.8s-0.358-0.8-0.8-0.8v0zM16 12c-0.442 0-0.8-0.358-0.8-0.8s0.358-0.8 0.8-0.8c0.442 0 0.8 0.358 0.8 0.8v0c0 0.442-0.358 0.8-0.8 0.8v0zM22.4 20h-4.141c-0.339-0.938-1.222-1.596-2.259-1.596s-1.92 0.658-2.254 1.58l-0.005 0.017h-4.141c-0.442 0-0.8 0.358-0.8 0.8s0.358 0.8 0.8 0.8v0h4.141c0.339 0.938 1.222 1.596 2.259 1.596s1.92-0.658 2.254-1.58l0.005-0.017h4.141c0.442 0 0.8-0.358 0.8-0.8s-0.358-0.8-0.8-0.8v0zM16 21.6c-0.442 0-0.8-0.358-0.8-0.8s0.358-0.8 0.8-0.8c0.442 0 0.8 0.358 0.8 0.8v0c0 0.442-0.358 0.8-0.8 0.8v0zM20.8 13.6c-1.037 0.004-1.919 0.662-2.254 1.583l-0.005 0.017h-8.941c-0.442 0-0.8 0.358-0.8 0.8s0.358 0.8 0.8 0.8v0h8.941c0.339 0.94 1.224 1.6 2.263 1.6 1.325 0 2.4-1.075 2.4-2.4s-1.075-2.4-2.4-2.4c-0.001 0-0.003 0-0.004 0h0zM20.8 16.8c-0.442 0-0.8-0.358-0.8-0.8s0.358-0.8 0.8-0.8c0.442 0 0.8 0.358 0.8 0.8v0c0 0.442-0.358 0.8-0.8 0.8v0z"></path>
</svg>
