<!-- Generated by IcoMoon.io -->
<svg version="1.1" xmlns="http://www.w3.org/2000/svg" width="32" height="32" viewBox="0 0 32 32">
<title>cycle</title>
<path d="M15.874 1.638c4.963 0 9.594 2.599 12.204 6.803h-3.133v1.512h6.047v-6.047h-1.512v3.928c-2.862-4.759-8.046-7.708-13.606-7.708-8.753 0-15.874 7.121-15.874 15.874h1.512c-0-7.919 6.443-14.362 14.362-14.362zM30.236 16c0 7.919-6.443 14.362-14.362 14.362-4.963 0-9.594-2.599-12.205-6.803h3.134v-1.512h-6.047v6.047h1.512v-3.928c2.862 4.758 8.046 7.707 13.606 7.707 8.753 0 15.874-7.121 15.874-15.874h-1.512z"></path>
</svg>
