<!-- Generated by IcoMoon.io -->
<svg version="1.1" xmlns="http://www.w3.org/2000/svg" width="32" height="32" viewBox="0 0 32 32">
<title>datasheet1</title>
<path d="M7.924 26.896h2.84v-4.971h-2.84v4.971zM8.634 22.636h1.42v3.55h-1.42v-3.55zM16.445 26.896h2.84v-7.811h-2.84v7.811zM17.155 19.796h1.42v6.391h-1.42v-6.391zM12.185 26.896h2.84v-9.231h-2.84v9.231zM14.315 26.186h-1.42v-7.811h1.42zM20.705 16.245v10.651h2.84v-10.651h-2.84zM22.836 26.186h-1.42v-9.231h1.42v9.231zM23.050 12.244l-0-0.001c-0.005-0.013-0.011-0.025-0.017-0.037-0.014-0.028-0.032-0.056-0.061-0.089-0.006-0.007-0.013-0.015-0.020-0.022-0.036-0.033-0.071-0.057-0.094-0.065l-0.019-0.011c-0.040-0.016-0.086-0.025-0.12-0.025l-1.654-0.005c-0.215 0-0.391 0.175-0.391 0.39s0.175 0.39 0.391 0.39h0.671l-3.974 3.915-4.61-2.855c-0.147-0.092-0.333-0.076-0.462 0.037l-4.871 4.234c-0.079 0.068-0.126 0.163-0.133 0.268s0.026 0.205 0.094 0.284c0.074 0.085 0.181 0.134 0.295 0.134 0.094 0 0.185-0.034 0.256-0.096l4.654-4.045 4.626 2.865c0.154 0.095 0.35 0.073 0.48-0.054l4.206-4.145v0.722c0 0.215 0.175 0.39 0.391 0.39s0.391-0.175 0.391-0.39v-1.655c-0-0.043-0.009-0.088-0.027-0.136zM20.934 0h-14.811c-0.943 0-1.71 0.767-1.71 1.71v28.579c0 0.943 0.767 1.711 1.71 1.711h19.753c0.943 0 1.71-0.768 1.71-1.711v-23.069l-6.652-7.22zM21.226 1.852l4.655 5.051h-4.655v-5.051zM25.876 30.96h-19.753c-0.37 0-0.67-0.301-0.67-0.671v-28.579c0-0.37 0.301-0.67 0.67-0.67h14.062v6.903h6.361v22.346c0 0.37-0.301 0.671-0.67 0.671z"></path>
</svg>
