<!-- Generated by IcoMoon.io -->
<svg version="1.1" xmlns="http://www.w3.org/2000/svg" width="32" height="32" viewBox="0 0 32 32">
<title>deck-library</title>
<path d="M26.168 8.757l-0.115-0.036 0.003-0.015-11.883-4.357-0.091-0.016c-0.061-0.019-0.109-0.033-0.156-0.033-0.302 0-0.549 0.246-0.549 0.549 0 0.247 0.175 0.461 0.426 0.521l0.127 0.030-0.005 0.022 11.537 4.23v18.559c0 0.302 0.246 0.548 0.549 0.548s0.548-0.246 0.548-0.548v-18.89l-0.003-0.060c-0.005-0.232-0.161-0.434-0.389-0.505zM28.863 6.662l-0.129-0.035 0.006-0.022-14.839-5.38c-0.038-0.011-0.071-0.020-0.101-0.020-0.109 0-0.217 0.040-0.322 0.119l-0.104 0.078-0.007-0.010-5.221 3.916-0.095 0.086c-0.146 0.11-0.227 0.262-0.227 0.43v14.004c-0.126-0.010-0.253-0.019-0.381-0.019-2.604 0-4.716 2.111-4.716 4.716s2.111 4.716 4.716 4.716c1.859 0 3.461-1.078 4.229-2.64l11.426 4.155 0.060 0.010 0.038 0.011c0.038 0.011 0.071 0.020 0.101 0.020 0.302 0 0.548-0.246 0.548-0.549v-18.996c0-0.244-0.165-0.452-0.411-0.519l-0.128-0.035 0.006-0.022-13.803-5.020 4.384-3.288 14.282 5.193v18.614c0 0.302 0.246 0.549 0.549 0.549s0.548-0.246 0.548-0.549v-18.995c0-0.244-0.165-0.453-0.411-0.519zM8.171 26.897c0 0.247-0.2 0.447-0.447 0.447h-0.278c-0.247 0-0.447-0.2-0.447-0.447v-1.853h-1.853c-0.247 0-0.447-0.2-0.447-0.447v-0.278c0-0.247 0.2-0.447 0.447-0.447h1.853v-1.853c0-0.247 0.2-0.447 0.447-0.447h0.278c0.247 0 0.447 0.2 0.447 0.447v1.853h1.853c0.247 0 0.447 0.2 0.447 0.447v0.278c0 0.247-0.2 0.447-0.447 0.447h-1.853v1.853zM22.663 11.602l0.085 0.031v17.833l-10.711-3.895c0.076-0.337 0.121-0.686 0.121-1.047 0-2.087-1.358-3.855-3.237-4.476v-13.444l13.742 4.997z"></path>
</svg>
