<!-- Generated by IcoMoon.io -->
<svg version="1.1" xmlns="http://www.w3.org/2000/svg" width="32" height="32" viewBox="0 0 32 32">
<title>demo</title>
<path d="M6.711 0c-2.558 0-4.631 2.073-4.631 4.631s2.073 4.631 4.631 4.631 4.631-2.073 4.631-4.631c0-2.558-2.073-4.631-4.631-4.631zM6.708 8.253c-1.99 0-3.614-1.618-3.614-3.614s1.619-3.614 3.614-3.614 3.614 1.618 3.614 3.614-1.624 3.614-3.614 3.614zM19.188 9.508l-3.98 3.973 0.731 0.73 3.249-3.243 2.575 2.575 4.647-4.641v1.335h1.033v-3.098h-3.098v1.033h1.335l-3.917 3.916zM13.422 18.588v-5.673c0-2.972-2.701-4.231-2.701-4.231s-1.536 1.65-4.005 1.65c-2.349 0-4.005-1.65-4.005-1.65s-2.701 1.297-2.701 4.225v9.804h2.065v9.287h9.288v-9.288h2.059v-4.124zM14.15 19.614h2.886v9.288h-3.614v3.098h11.353v-3.098h-3.614v-9.282h10.837v-16.51h-20.187c0.106 0.329 0.181 0.672 0.219 1.026h18.929v14.451h-16.808c0 0 0.016 1.026 0 1.026zM12.402 21.68h-2.078v9.288h-3.098v-7.222h-1.033v7.222h-3.086v-9.288h-2.065v-8.772c0-1.19 0.592-2.298 1.562-2.972 1.178 0.919 2.626 1.423 4.118 1.423s2.94-0.504 4.118-1.423c0.97 0.674 1.562 1.782 1.562 2.972v8.772zM18.069 19.62h2.065v9.288h-2.065v-9.288zM23.742 29.935v1.033h-9.288v-1.033h9.288z"></path>
</svg>
