<!-- Generated by IcoMoon.io -->
<svg version="1.1" xmlns="http://www.w3.org/2000/svg" width="32" height="32" viewBox="0 0 32 32">
<title>developer</title>
<path d="M11.938 17.735c-0.089 0-0.178-0.027-0.256-0.083l-3.225-2.325c-0.114-0.082-0.182-0.214-0.182-0.355s0.068-0.273 0.182-0.355l3.225-2.326c0.195-0.141 0.47-0.097 0.611 0.099s0.097 0.47-0.099 0.611l-2.732 1.971 2.732 1.97c0.196 0.141 0.241 0.415 0.099 0.611-0.086 0.119-0.22 0.182-0.356 0.182zM20.395 17.735c-0.136 0-0.27-0.063-0.355-0.182-0.141-0.196-0.097-0.47 0.099-0.611l2.732-1.97-2.732-1.971c-0.196-0.141-0.241-0.415-0.099-0.611s0.416-0.241 0.611-0.099l3.225 2.326c0.114 0.082 0.182 0.214 0.182 0.355s-0.068 0.273-0.182 0.355l-3.225 2.325c-0.077 0.056-0.167 0.083-0.256 0.083zM14.083 20.291c-0.059 0-0.12-0.012-0.177-0.038-0.221-0.098-0.32-0.357-0.222-0.578l4.284-9.63c0.098-0.221 0.357-0.322 0.578-0.222 0.221 0.098 0.32 0.357 0.222 0.578l-4.284 9.63c-0.072 0.163-0.233 0.26-0.4 0.26zM27.569 22.258h-23.389v-14.774h23.389v14.774zM4.918 21.519h21.911v-13.296h-21.911v13.296zM31.733 23.558l-0.039-0.345h-2.137v-16.128c0-0.796-0.648-1.444-1.444-1.444h-24.417c-0.796 0-1.444 0.648-1.444 1.444v16.129h-2.252v0.389c0 2.555 1.767 2.754 1.822 2.758h27.931c0.586 0 1.058-0.197 1.405-0.584 0.723-0.808 0.58-2.16 0.574-2.217zM3.029 7.085c0-0.367 0.299-0.666 0.666-0.666h24.417c0.367 0 0.666 0.299 0.666 0.666v16.129h-25.75v-16.129zM30.579 25.257c-0.196 0.219-0.465 0.325-0.825 0.325l-27.888 0.003c-0.041-0.005-0.935-0.137-1.071-1.594h11.818c-0 0.008-0.004 0.014-0.004 0.022v0.32c0 0.249 0.201 0.45 0.45 0.45h5.632c0.249 0 0.45-0.202 0.45-0.45v-0.32c0-0.008-0.004-0.014-0.004-0.022h11.833c-0.010 0.36-0.079 0.919-0.39 1.267z"></path>
</svg>
