<!-- Generated by IcoMoon.io -->
<svg version="1.1" xmlns="http://www.w3.org/2000/svg" width="32" height="32" viewBox="0 0 32 32">
<title>diamond</title>
<path d="M15.787 28.351h0.707v3.269h-0.707v-3.269zM22.683 26.417l-0.611 0.354c0.307 0.531 0.564 0.988 0.823 1.446 0.245 0.437 0.492 0.874 0.783 1.379l0.613-0.353c-0.291-0.503-0.536-0.939-0.781-1.373-0.26-0.46-0.518-0.918-0.827-1.453zM27.077 21.65l2.437 1.407-0.353 0.612-2.437-1.407 0.353-0.612zM28.499 15.322h2.853v0.707h-2.853v-0.707zM15.471 0.38h0.707v2.939h-0.707v-2.939zM27.554 9.467l-0.353-0.612 2.231-1.288 0.353 0.612-2.231 1.288zM22.408 5.093l-0.612-0.354 1.388-2.4 0.612 0.354-1.388 2.4zM8.326 27.822c-0.253 0.45-0.506 0.899-0.807 1.421l0.611 0.353c0.303-0.524 0.558-0.976 0.812-1.427 0.249-0.443 0.499-0.885 0.795-1.398l-0.612-0.354c-0.298 0.517-0.548 0.961-0.798 1.405zM4.729 21.649l0.353 0.611-2.435 1.408-0.353-0.611 2.435-1.408zM0.397 15.322h2.912v0.707h-2.912v-0.707zM4.253 9.466l-2.231-1.288 0.353-0.612 2.231 1.288-0.353 0.612zM9.398 5.092l-1.387-2.401 0.612-0.353 1.387 2.401-0.612 0.353zM28.315 12.764l-4.229-5.382h-15.216l-4.226 5.376 11.536 13.117 12.136-13.111zM19.938 13.076l-3.739 11.077-3.296-11.077 7.035 0zM13.205 12.369l3.271-4.14 3.272 4.14h-6.543zM20.67 13.076h6.393l-10.044 10.851 3.65-10.851zM21.097 12.369l2.779-4.109 3.229 4.109h-6.008zM20.432 12.092l-3.165-4.003h5.872l-2.706 4.003zM12.453 12.18l-2.75-4.092h5.983l-3.234 4.092zM11.746 12.369h-5.897l3.172-4.035 2.726 4.035zM12.165 13.076l3.223 10.829-9.523-10.829h6.3z"></path>
</svg>
