<!-- Generated by IcoMoon.io -->
<svg version="1.1" xmlns="http://www.w3.org/2000/svg" width="32" height="32" viewBox="0 0 32 32">
<title>directory</title>
<path d="M12.481 29.075c-5.968 0-9.977-2.253-9.977-4.357l-0.005-0.122v-2.773c1.596 1.317 4.572 2.801 9.881 2.801 1.723 0 3.207-0.154 4.489-0.404 0.051-0.413 0.135-0.815 0.256-1.202-1.314 0.291-2.881 0.479-4.745 0.479-5.904 0-8.715-1.935-9.881-3.116v-5.25c1.596 1.317 4.572 2.801 9.881 2.801 5.315 0 8.393-1.451 10.075-2.734v3.14c0.295-0.052 0.597-0.084 0.904-0.097l0.010-11.968c0-0.012-0.001-0.024-0.003-0.034l-0.011-0.231h-0.009c-0.268-2.954-4.9-5.167-10.865-5.167s-10.597 2.212-10.865 5.167h-0.028v18.809l0.015 0.122h0.007c0.225 2.932 4.957 5.212 10.872 5.212 2.147 0 4.137-0.302 5.813-0.825-0.227-0.285-0.431-0.589-0.611-0.908-1.473 0.408-3.232 0.657-5.203 0.657zM12.481 1.917c5.923 0 9.939 2.239 9.974 4.327v0.056c-0.035 2.091-4.051 4.33-9.974 4.33-5.968 0-9.977-2.253-9.977-4.356s4.009-4.357 9.977-4.357zM2.499 8.474c1.697 1.973 5.551 3.233 9.982 3.233 4.421 0 8.273-1.255 9.974-3.223v5.333c-1.253 1.134-4.202 2.99-10.075 2.99-5.904 0-8.715-1.935-9.881-3.116v-5.217zM24.106 19.050c-3.339 0-6.055 2.716-6.055 6.055s2.716 6.055 6.055 6.055 6.055-2.716 6.055-6.055-2.716-6.055-6.055-6.055zM27.747 28.815c-0.855-0.693-1.784-1.005-2.002-1.071-0.662-0.555-0.394-1.174 0.090-2.049 0.073-0.132 0.144-0.262 0.207-0.387 0.359-0.718 0.296-1.172 0.242-1.354 0.14-0.516 0.264-1.948-0.459-2.728-0.43-0.465-1.061-0.599-1.877-0.402-0.861 0.005-1.487 0.271-1.862 0.791-0.646 0.897-0.306 2.239-0.213 2.554-0.182 0.646 0.189 1.094 0.267 1.179 0.088 0.122 1.074 1.536 0.249 2.41l-0.282 0.125c-0.731 0.323-1.268 0.564-1.714 0.858-0.919-0.938-1.487-2.221-1.487-3.638 0-2.873 2.328-5.201 5.201-5.201s5.201 2.328 5.201 5.201c0 1.455-0.598 2.767-1.56 3.711z"></path>
</svg>
