<!-- Generated by IcoMoon.io -->
<svg version="1.1" xmlns="http://www.w3.org/2000/svg" width="32" height="32" viewBox="0 0 32 32">
<title>downloads-product</title>
<path d="M27.093 7.68h-6.522v1.219h6.522c1.097 0 2.012 0.914 2.012 1.95v17.981c0 1.097-0.914 1.95-2.012 1.95h-22.187c-1.097 0-2.012-0.914-2.012-1.95v-17.981c0-1.097 0.914-1.95 2.012-1.95h6.522v-1.219h-6.522c-1.767 0-3.23 1.402-3.23 3.17v17.981c0 1.768 1.463 3.17 3.23 3.17h22.187c1.768 0 3.23-1.402 3.23-3.17v-17.981c0-1.768-1.463-3.17-3.23-3.17zM11.002 16.335l4.572 4.267c0.122 0.122 0.244 0.183 0.427 0.183s0.305-0.061 0.427-0.183l4.572-4.267-0.853-0.914-3.535 3.291v-18.712h-1.219v18.712l-3.535-3.291-0.853 0.914z"></path>
</svg>
