<!-- Generated by IcoMoon.io -->
<svg version="1.1" xmlns="http://www.w3.org/2000/svg" width="32" height="32" viewBox="0 0 32 32">
<title>download</title>
<path d="M31.326 18.596l-2.936-8.662c-0.23-0.981-1.114-1.686-2.127-1.686h-1.669c-0.536 0-0.969 0.434-0.969 0.969s0.433 0.969 0.969 0.969h1.669c0.117 0 0.219 0.084 0.242 0.201 0.009 0.040 0.018 0.080 0.032 0.119l2.52 7.432h-4.078c-0.665 0-1.307 0.278-1.764 0.764l-2.774 2.959c-0.090 0.096-0.218 0.152-0.35 0.152h-8.435c-0.132 0-0.26-0.055-0.35-0.151l-2.775-2.96c-0.455-0.486-1.098-0.765-1.765-0.765h-4.076l2.52-7.432c0.013-0.040 0.024-0.080 0.032-0.121 0.023-0.115 0.125-0.199 0.242-0.199h1.668c0.535 0 0.969-0.434 0.969-0.969s-0.434-0.969-0.969-0.969h-1.668c-1.015 0-1.897 0.705-2.128 1.686l-2.936 8.662c-0.034 0.1-0.051 0.205-0.051 0.311v9.686c0 1.605 1.306 2.911 2.911 2.911h25.186c1.605 0 2.911-1.306 2.911-2.911v-9.686c-0-0.106-0.018-0.211-0.052-0.311zM28.467 29.566h-25.186c-0.537 0-0.973-0.436-0.973-0.973v-8.717h4.459c0.132 0 0.26 0.055 0.35 0.151l2.775 2.96c0.455 0.486 1.098 0.765 1.765 0.765h8.435c0.665 0 1.307-0.278 1.764-0.764l2.774-2.959c0.090-0.096 0.218-0.152 0.35-0.152h4.46v8.717c0 0.537-0.436 0.973-0.973 0.973zM15.189 17.653c0.090 0.090 0.197 0.161 0.316 0.21s0.244 0.075 0.37 0.075 0.252-0.026 0.37-0.075c0.119-0.049 0.226-0.121 0.316-0.21l4.844-4.844c0.379-0.379 0.379-0.991 0-1.37s-0.991-0.379-1.37 0l-3.191 3.191v-13.164c0-0.535-0.434-0.969-0.969-0.969s-0.969 0.434-0.969 0.969v13.165l-3.191-3.191c-0.379-0.379-0.991-0.379-1.37 0s-0.379 0.991 0 1.37l4.844 4.844z"></path>
</svg>
