<!-- Generated by IcoMoon.io -->
<svg version="1.1" xmlns="http://www.w3.org/2000/svg" width="32" height="32" viewBox="0 0 32 32">
<title>e-mail</title>
<path d="M30.857 5.714h-29.715c-0.631 0-1.143 0.512-1.143 1.143v18.286c0 0.631 0.512 1.143 1.143 1.143h29.714c0.631 0 1.143-0.512 1.143-1.143v-18.286c0-0.631-0.511-1.143-1.142-1.143zM29.614 6.857l-12.804 12.804c-0.452 0.452-1.185 0.452-1.637 0l-12.805-12.804h27.246zM1.143 7.213l8.781 8.781-8.781 8.792v-17.573zM2.367 25.143l8.348-8.358 3.683 3.683c0.881 0.88 2.308 0.88 3.188 0l3.683-3.682 8.347 8.358h-27.247zM30.857 24.804l-8.799-8.809 8.799-8.799v17.608z"></path>
</svg>
