<!-- Generated by IcoMoon.io -->
<svg version="1.1" xmlns="http://www.w3.org/2000/svg" width="32" height="32" viewBox="0 0 32 32">
<title>ebook1</title>
<path d="M26.996 8.167l-0.124-0.038 0.004-0.016-12.851-4.712-0.098-0.017c-0.066-0.020-0.117-0.036-0.168-0.036-0.327 0-0.593 0.266-0.593 0.593 0 0.268 0.189 0.499 0.46 0.564l0.138 0.033-0.006 0.024 12.476 4.574v20.070c0 0.327 0.266 0.593 0.593 0.593s0.593-0.266 0.593-0.593v-20.428l-0.003-0.065c-0.005-0.25-0.174-0.469-0.42-0.545zM29.91 5.902l-0.139-0.037 0.007-0.024-16.048-5.819c-0.041-0.012-0.077-0.021-0.11-0.021-0.118 0-0.235 0.043-0.348 0.129l-0.112 0.084-0.008-0.010-5.646 4.235-0.103 0.093c-0.158 0.119-0.245 0.284-0.245 0.465v15.144c-0.137-0.011-0.273-0.021-0.413-0.021-2.817 0-5.1 2.283-5.1 5.1s2.283 5.1 5.1 5.1c2.010 0 3.743-1.165 4.574-2.855l12.357 4.493 0.065 0.010 0.041 0.011c0.042 0.012 0.077 0.022 0.11 0.022 0.327 0 0.593-0.266 0.593-0.593v-20.542c0-0.264-0.179-0.489-0.444-0.561l-0.139-0.037 0.007-0.023-14.927-5.428 4.74-3.556 15.445 5.617v20.13c0 0.327 0.266 0.593 0.593 0.593s0.593-0.266 0.593-0.593v-20.542c0-0.264-0.178-0.49-0.444-0.561zM7.533 27.784c0 0.267-0.216 0.483-0.483 0.483h-0.3c-0.267 0-0.483-0.216-0.483-0.483v-2.004h-2.004c-0.267 0-0.483-0.216-0.483-0.483v-0.3c0-0.267 0.216-0.483 0.483-0.483h2.004v-2.004c0-0.267 0.216-0.483 0.483-0.483h0.3c0.267 0 0.483 0.216 0.483 0.483v2.004h2.004c0.267 0 0.483 0.216 0.483 0.483v0.3c0 0.267-0.216 0.483-0.483 0.483h-2.004v2.004zM23.206 11.244l0.092 0.034v19.285l-11.583-4.212c0.083-0.364 0.131-0.742 0.131-1.132 0-2.257-1.468-4.169-3.5-4.84v-14.539l14.861 5.404z"></path>
</svg>
