<!-- Generated by IcoMoon.io -->
<svg version="1.1" xmlns="http://www.w3.org/2000/svg" width="32" height="32" viewBox="0 0 32 32">
<title>education</title>
<path d="M15.887 31.169c-0.003 0-0.006 0-0.008 0-0.071-0.002-0.139-0.021-0.197-0.054-2.388-1.291-4.802-1.969-7.175-2.016-0.227-0.005-0.409-0.19-0.409-0.417v-2.953h-3.395c-0.231 0-0.417-0.187-0.417-0.417 0-3.187 1.139-5.945 3.385-8.199 1.018-1.020 2.147-1.814 3.365-2.368-0.921-1.146-1.388-2.499-1.388-4.028 0-1.010 0.205-1.947 0.609-2.791l-3.577-1.747c-0.144-0.070-0.234-0.215-0.235-0.375s0.091-0.305 0.234-0.375l9.323-4.557c0.116-0.056 0.251-0.056 0.366 0l9.321 4.556c0.003 0.002 0.006 0.003 0.009 0.005 0.092 0.048 0.16 0.125 0.197 0.215 0.007 0.017 0.012 0.035 0.017 0.053 0.009 0.037 0.013 0.074 0.013 0.112v4.606c0 0.23-0.187 0.417-0.417 0.417s-0.417-0.187-0.417-0.417v-3.946l-3.006 1.471c0.395 0.843 0.596 1.774 0.596 2.774 0 1.624-0.524 3.045-1.561 4.231 1.056 0.539 2.043 1.266 2.941 2.166 2.257 2.253 3.402 5.011 3.402 8.199 0 0.23-0.187 0.417-0.417 0.417h-3.37v2.953c0 0.111-0.044 0.219-0.124 0.297s-0.185 0.124-0.299 0.12c-0.040-0.001-0.081-0.001-0.122-0.001-1.963 0-4.334 0.681-7.052 2.024-0.055 0.029-0.117 0.045-0.183 0.047-0.002 0-0.005 0-0.009 0zM16.304 21.705v8.383c2.461-1.151 4.655-1.762 6.537-1.819v-8.165c-2.001-0.347-4.197 0.191-6.537 1.601zM8.933 28.279c2.171 0.106 4.366 0.705 6.537 1.786v-8.369c-2.012-1.296-4.209-1.822-6.537-1.567v8.15zM23.675 24.895h2.946c-0.096-2.782-1.154-5.199-3.15-7.192-0.901-0.903-1.895-1.616-2.958-2.125-1.208 1.093-2.666 1.647-4.34 1.647-1.761 0-3.287-0.616-4.538-1.831-1.222 0.514-2.355 1.29-3.373 2.309-1.986 1.992-3.039 4.41-3.134 7.192h2.971v-5.135c0-0.207 0.152-0.384 0.358-0.413 2.656-0.379 5.157 0.169 7.438 1.63 2.65-1.592 5.158-2.138 7.455-1.624 0.19 0.043 0.326 0.212 0.326 0.407v5.135h0zM12.026 14.61c0.041 0.038 0.082 0.078 0.123 0.119 1.118 1.118 2.434 1.662 4.024 1.662 1.553 0 2.841-0.516 3.936-1.577 0.022-0.030 0.046-0.058 0.074-0.086 1.12-1.11 1.665-2.422 1.665-4.011 0-0.872-0.172-1.68-0.512-2.409l-4.967 2.412c-0.115 0.056-0.25 0.056-0.365-0l-4.996-2.429c-0.348 0.731-0.524 1.545-0.524 2.426-0.001 1.53 0.503 2.803 1.542 3.893zM11.008 7.364c0 0 0 0 0 0l5.177 2.517 5.15-2.501 3.222-1.576-8.373-4.092-8.372 4.092 3.195 1.56zM25.508 14.113c-0.23 0-0.417-0.187-0.417-0.417v-1.489c0-0.23 0.187-0.417 0.417-0.417s0.417 0.187 0.417 0.417v1.489c-0 0.23-0.187 0.417-0.417 0.417z"></path>
</svg>
