<!-- Generated by IcoMoon.io -->
<svg version="1.1" xmlns="http://www.w3.org/2000/svg" width="32" height="32" viewBox="0 0 32 32">
<title>education-reimbursement</title>
<path d="M31.376 8.769l-15.3-5.737c-0.13-0.049-0.273-0.049-0.403 0l-15.3 5.737c-0.224 0.084-0.372 0.298-0.372 0.537s0.148 0.454 0.372 0.537l3.461 1.298c-0.003 0.026-0.008 0.051-0.008 0.078v5.207c0 0.238 0.147 0.452 0.37 0.536l11.475 4.355c0.065 0.025 0.135 0.037 0.204 0.037s0.138-0.012 0.204-0.037l6.809-2.585v-1.227l-7.012 2.662-10.902-4.138v-4.461l10.7 4.012c0.065 0.024 0.133 0.037 0.202 0.037s0.137-0.012 0.201-0.037l6.811-2.554v-0.245l-1.307-0.49-5.705 2.14-13.666-5.125 13.666-5.124 13.666 5.124-4.781 1.793c0.273 0.224 0.426 0.565 0.417 0.919 0.001 0.018 0.005 0.035 0.005 0.053v0.096l1.594-0.598v4.462l-1.594 0.605v1.227l2.371-0.9c0.223-0.084 0.37-0.298 0.37-0.536v-5.207c0-0.026-0.004-0.052-0.008-0.078l3.461-1.298c0.224-0.084 0.372-0.297 0.372-0.537s-0.148-0.453-0.372-0.537zM25.303 22.592c0.165-0.244 0.261-0.538 0.261-0.854 0-0.641-0.396-1.188-0.956-1.416v-8.251c0-0.014-0.003-0.028-0.004-0.041 0.018-0.248-0.124-0.488-0.368-0.58l-6.566-2.463c-0.264-0.37-0.964-0.637-1.795-0.637-1.056 0-1.912 0.428-1.912 0.956s0.857 0.956 1.912 0.956c0.491 0 0.933-0.095 1.271-0.247l6.315 2.368v7.938c-0.56 0.228-0.956 0.775-0.956 1.416 0 0.316 0.096 0.61 0.261 0.854-0.733 0.592-1.218 1.687-1.218 2.971 0 1.534 0 3.442 2.486 3.442s2.486-1.909 2.486-3.442c0-1.282-0.484-2.378-1.218-2.97zM23.652 21.738c0-0.211 0.171-0.383 0.383-0.383s0.383 0.171 0.383 0.383c0 0.211-0.171 0.383-0.383 0.383s-0.383-0.171-0.383-0.383zM24.034 27.858c-1.216 0-1.339-0.435-1.339-2.295 0-1.223 0.626-2.295 1.339-2.295s1.339 1.072 1.339 2.295c0 1.86-0.123 2.295-1.339 2.295z"></path>
</svg>
