<!-- Generated by IcoMoon.io -->
<svg version="1.1" xmlns="http://www.w3.org/2000/svg" width="33" height="32" viewBox="0 0 33 32">
<title>embed</title>
<path d="M16.964 21.050c-0.207 0.207-0.207 0.528 0 0.735 0.092 0.092 0.23 0.161 0.367 0.161s0.275-0.046 0.367-0.161l5.923-5.923c0.207-0.207 0.207-0.528 0-0.735l-5.739-5.739c-0.207-0.207-0.528-0.207-0.735 0s-0.207 0.528 0 0.735l4.935 4.935h-19.099c-0.298 0-0.528 0.23-0.528 0.528s0.23 0.528 0.528 0.528h18.915l-4.935 4.935zM29.681 2.41h-25.113c-0.298 0-0.528 0.23-0.528 0.528v7.254c0 0.298 0.23 0.528 0.528 0.528s0.528-0.23 0.528-0.528v-6.726h24.080v24.080h-24.080v-6.749c0-0.298-0.23-0.528-0.528-0.528s-0.528 0.23-0.528 0.528v7.254c0 0.298 0.23 0.528 0.528 0.528h25.113c0.298 0 0.528-0.23 0.528-0.528v-25.113c0-0.298-0.23-0.528-0.528-0.528z"></path>
</svg>
