<!-- Generated by IcoMoon.io -->
<svg version="1.1" xmlns="http://www.w3.org/2000/svg" width="32" height="32" viewBox="0 0 32 32">
<title>enterprise</title>
<path d="M4.139 11.671h2.11v-2.11h-2.11v2.11zM12.579 9.562h2.11v-2.11h-2.11v2.11zM16.798 9.562h2.11v-2.11h-2.11v2.11zM21.018 9.562h2.11v-2.11h-2.11v2.11zM12.579 5.342h2.11v-2.11h-2.11v2.11zM16.798 5.342h2.11v-2.11h-2.11v2.11zM21.018 5.342h2.11v-2.11h-2.11v2.11zM12.579 18.001h2.11v-2.11h-2.11v2.11zM16.798 18.001h2.11v-2.11h-2.11v2.11zM21.018 18.001h2.11v-2.11h-2.11v2.11zM12.579 22.22h2.11v-2.11h-2.11v2.11zM21.018 22.22h2.11v-2.11h-2.11v2.11zM12.579 26.44h2.11v-2.11h-2.11v2.11zM21.018 26.44h2.11v-2.11h-2.11v2.11zM12.579 13.781h2.11v-2.11h-2.11v2.11zM16.798 13.781h2.11v-2.11h-2.11v2.11zM21.018 13.781h2.11v-2.11h-2.11v2.11zM4.139 15.891h2.11v-2.11h-2.11v2.11zM4.139 20.11h2.11v-2.11h-2.11v2.11zM4.139 24.33h2.11v-2.11h-2.11v2.11zM4.139 28.55h2.11v-2.11h-2.11v2.11zM16.798 22.22h2.11v-2.11h-2.11v2.11zM29.742 14.502h-2.776v-12.442c0-1.066-0.868-1.934-1.934-1.934h-14.3c-1.066 0-1.934 0.867-1.934 1.934v4.088h-6.568c-0.99 0-1.795 0.805-1.795 1.794v23.932h30.876v-15.802c0.001-0.866-0.704-1.57-1.569-1.57zM8.799 30.755h-7.25v-22.813c0-0.376 0.306-0.682 0.682-0.682h6.568v23.494zM25.853 14.502v16.253h-6.974v-6.424h-2.078v6.424h-6.889v-28.695c0-0.453 0.368-0.821 0.821-0.821h14.3c0.452 0 0.821 0.368 0.821 0.821v12.442zM30.199 30.755h-3.233v-15.14h2.776c0.252 0 0.457 0.205 0.457 0.457v14.683z"></path>
</svg>
