<!-- Generated by IcoMoon.io -->
<svg version="1.1" xmlns="http://www.w3.org/2000/svg" width="32" height="32" viewBox="0 0 32 32">
<title>events-webinars</title>
<path d="M29.661 1.2h-27.323c-1.257 0-2.277 1.020-2.277 2.277v20.492c0 1.258 1.020 2.277 2.277 2.277h11.385v3.415h-2.277c-0.315 0-0.569 0.255-0.569 0.569s0.255 0.569 0.569 0.569h9.108c0.315 0 0.569-0.255 0.569-0.569s-0.255-0.569-0.569-0.569h-2.277v-3.415h11.385c1.257 0 2.277-1.020 2.277-2.277v-20.492c-0-1.257-1.020-2.277-2.277-2.277zM17.139 29.661h-2.277v-3.415h2.277v3.415zM30.8 23.969c0 0.629-0.51 1.139-1.139 1.139h-27.323c-0.629 0-1.139-0.51-1.139-1.139v-2.277h29.6v2.277zM30.8 20.554h-29.6v-17.077c0-0.629 0.51-1.139 1.139-1.139h27.323c0.629 0 1.139 0.51 1.139 1.139v17.077zM13.116 7.944v9.382c0 0.387 0.431 0.618 0.753 0.404l7.075-4.691c0.289-0.192 0.289-0.617 0-0.809l-7.075-4.691c-0.322-0.213-0.753 0.018-0.753 0.405z"></path>
</svg>
