<!-- Generated by IcoMoon.io -->
<svg version="1.1" xmlns="http://www.w3.org/2000/svg" width="32" height="32" viewBox="0 0 32 32">
<title>event</title>
<path d="M19.693 3.693h-11.488c0.005 0.293 0.036 0.576 0.088 0.85l-0.005-0.031h11.446c-0.028-0.201-0.044-0.433-0.044-0.669 0-0.053 0.001-0.105 0.002-0.157l-0 0.008zM8.614 0.819c0.493 0 0.986 0.822 1.19 2.061h0.822c-0.208-1.68-0.986-2.88-2.013-2.88-1.187 0-2.051 1.6-2.051 3.693-0.001 0.045-0.002 0.097-0.002 0.15 0 0.236 0.016 0.468 0.047 0.696l-0.003-0.027c0.205 1.683 0.986 2.88 2.010 2.88v-0.829c-0.493 0-0.982-0.819-1.187-2.051-0.028-0.201-0.044-0.433-0.044-0.669 0-0.053 0.001-0.105 0.002-0.157l-0 0.008c0-1.642 0.656-2.874 1.229-2.874zM22.563 0.819c0.493 0 0.986 0.822 1.19 2.051h0.819c-0.205-1.68-0.982-2.88-2.010-2.88-1.19 0.010-2.051 1.61-2.051 3.702-0.001 0.045-0.002 0.097-0.002 0.15 0 0.236 0.016 0.468 0.047 0.696l-0.003-0.027c0.205 1.683 0.986 2.88 2.010 2.88v-0.829c-0.493 0-0.982-0.819-1.19-2.051-0.026-0.201-0.040-0.433-0.040-0.669 0-0.053 0.001-0.105 0.002-0.158l-0 0.008c0-1.642 0.656-2.874 1.229-2.874zM11.898 15.59c0 0.68-0.552 1.232-1.232 1.232s-1.232-0.552-1.232-1.232c0-0.68 0.552-1.232 1.232-1.232s1.232 0.552 1.232 1.232zM20.925 15.59c0 0.68-0.552 1.232-1.232 1.232s-1.232-0.552-1.232-1.232c0-0.68 0.552-1.232 1.232-1.232s1.232 0.552 1.232 1.232zM25.437 15.59c0 0.68-0.552 1.232-1.232 1.232s-1.232-0.552-1.232-1.232c0-0.68 0.552-1.232 1.232-1.232s1.232 0.552 1.232 1.232zM16.413 15.59c0 0.68-0.552 1.232-1.232 1.232s-1.232-0.552-1.232-1.232c0-0.68 0.552-1.232 1.232-1.232s1.232 0.552 1.232 1.232zM7.386 20.102c0 0.68-0.552 1.232-1.232 1.232s-1.232-0.552-1.232-1.232c0-0.68 0.552-1.232 1.232-1.232s1.232 0.552 1.232 1.232zM11.898 20.102c0 0.68-0.552 1.232-1.232 1.232s-1.232-0.552-1.232-1.232c0-0.68 0.552-1.232 1.232-1.232s1.232 0.552 1.232 1.232zM16.413 20.102c0 0.68-0.552 1.232-1.232 1.232s-1.232-0.552-1.232-1.232c0-0.68 0.552-1.232 1.232-1.232s1.232 0.552 1.232 1.232zM7.386 24.614c0 0.68-0.552 1.232-1.232 1.232s-1.232-0.552-1.232-1.232c0-0.68 0.552-1.232 1.232-1.232s1.232 0.552 1.232 1.232zM11.898 24.614c0 0.68-0.552 1.232-1.232 1.232s-1.232-0.552-1.232-1.232c0-0.68 0.552-1.232 1.232-1.232s1.232 0.552 1.232 1.232zM16.413 24.614c0 0.68-0.552 1.232-1.232 1.232s-1.232-0.552-1.232-1.232c0-0.68 0.552-1.232 1.232-1.232s1.232 0.552 1.232 1.232zM2.461 29.539c-0.453-0.002-0.819-0.369-0.819-0.822 0 0 0 0 0 0v0-18.051h27.075v8.32c0.313 0.166 0.582 0.343 0.833 0.543l-0.011-0.008v-14.186c-0.004-0.905-0.736-1.638-1.641-1.642h-5.76c0.005 0.293 0.035 0.576 0.088 0.85l-0.005-0.031h5.677c0.453 0.002 0.819 0.369 0.819 0.822 0 0 0 0 0 0v0 4.512h-27.075v-4.512c0 0 0 0 0 0 0-0.453 0.366-0.821 0.819-0.822h3.325c-0.020-0.171-0.032-0.369-0.032-0.57 0-0.088 0.002-0.175 0.007-0.262l-0 0.012h-3.299c-0.905 0.004-1.638 0.736-1.642 1.641v23.383c0.004 0.905 0.736 1.638 1.641 1.642h16.205c-0.188-0.239-0.364-0.507-0.517-0.79l-0.015-0.029zM28.717 20.922c-1.004-0.767-2.278-1.229-3.659-1.229-0.011 0-0.022 0-0.033 0h0.002c-3.395 0-6.147 2.752-6.147 6.147 0 0.002 0 0.005 0 0.007v-0c-0 0.010-0 0.021-0 0.033 0 1.382 0.463 2.655 1.243 3.674l-0.011-0.015c0.219 0.309 0.462 0.578 0.734 0.815l0.005 0.005c1.084 1.017 2.547 1.642 4.155 1.642 0.007 0 0.015 0 0.022-0h-0.001c0 0 0.001 0 0.001 0 3.399 0 6.154-2.755 6.154-6.154 0-1.618-0.625-3.091-1.646-4.189l0.003 0.004c-0.246-0.246-0.534-0.493-0.822-0.739zM29.539 28.678c-0.416 0.698-0.984 1.265-1.661 1.668l-0.022 0.012c-0.802 0.516-1.78 0.822-2.83 0.822s-2.029-0.306-2.851-0.835l0.021 0.013c-0.386-0.252-0.721-0.521-1.029-0.821l0.001 0.001c-0.892-0.952-1.44-2.236-1.44-3.648 0-2.95 2.391-5.341 5.341-5.341 1.412 0 2.696 0.548 3.651 1.443l-0.003-0.003c0.312 0.299 0.584 0.635 0.81 1.002l0.012 0.022c0.514 0.803 0.819 1.782 0.819 2.832s-0.305 2.029-0.832 2.853l0.013-0.021zM24.371 27.712c-0.006 0-0.013 0-0.020 0-0.139 0-0.264-0.061-0.351-0.157l-0-0-1.568-1.565c-0.087-0.093-0.141-0.218-0.141-0.355 0-0.286 0.232-0.518 0.518-0.518 0.138 0 0.263 0.054 0.356 0.141l-0-0 1.2 1.203 2.515-2.509c0.096-0.111 0.236-0.18 0.393-0.18 0.286 0 0.518 0.232 0.518 0.518 0 0.156-0.069 0.296-0.178 0.391l-0.001 0.001-2.88 2.88c-0.087 0.093-0.211 0.151-0.348 0.151-0.005 0-0.010-0-0.015-0l0.001 0z"></path>
</svg>
