<!-- Generated by IcoMoon.io -->
<svg version="1.1" xmlns="http://www.w3.org/2000/svg" width="32" height="32" viewBox="0 0 32 32">
<title>executive-brief</title>
<path d="M8.442 1.275c0-0.264 0.215-0.479 0.479-0.479h9.988v4.983h4.596v13.869l0.804-0.236 0.046-14.204-4.751-5.156-10.737-0.054c-0.674 0-1.221 0.548-1.221 1.221v17.965l0.796 0.266v-18.177zM19.705 1.43l3.27 3.553h-3.27v-3.553zM20.942 14.996h-9.885c-0.152 0-0.275 0.163-0.275 0.363s0.123 0.363 0.275 0.363h9.885c0.152 0 0.275-0.162 0.275-0.363s-0.123-0.363-0.275-0.363zM20.942 12.093h-9.885c-0.152 0-0.275 0.163-0.275 0.363s0.123 0.363 0.275 0.363h9.885c0.152 0 0.275-0.162 0.275-0.363s-0.123-0.363-0.275-0.363zM11.058 9.916h9.885c0.152 0 0.275-0.162 0.275-0.363s-0.123-0.363-0.275-0.363h-9.885c-0.152 0-0.275 0.162-0.275 0.363s0.123 0.363 0.275 0.363zM27.741 11.204h-2.126v1.086h2.126c0.619 0 1.122 0.503 1.122 1.121v4.377l-4.455 1.33-0-0.005-8.436 2.524-12.835-3.866v-4.359c0-0.618 0.503-1.121 1.122-1.121h2.221v-1.086h-2.221c-1.217 0-2.207 0.991-2.207 2.208v16.38c0 1.218 0.99 2.209 2.207 2.209h23.482c1.217 0 2.208-0.991 2.208-2.209v-16.38c0-1.217-0.99-2.208-2.208-2.208zM28.863 29.791c0 0.619-0.504 1.122-1.122 1.122h-23.482c-0.619 0-1.122-0.503-1.122-1.122v-10.887l12.835 3.846 12.892-3.829v10.87z"></path>
</svg>
