<!-- Generated by IcoMoon.io -->
<svg version="1.1" xmlns="http://www.w3.org/2000/svg" width="32" height="32" viewBox="0 0 32 32">
<title>executive-summary</title>
<path d="M29.468 6.111h-8.828c-0.108-0.772-0.411-1.911-1.268-2.801-0.815-0.846-1.936-1.275-3.333-1.275-3.248 0-4.487 2.335-4.798 4.076h-8.709c-1.396 0-2.532 1.137-2.532 2.532v18.789c0 1.397 1.136 2.533 2.532 2.533h26.936c1.396 0 2.532-1.137 2.532-2.533v-18.789c0-1.396-1.136-2.532-2.532-2.532zM16.038 3.281c1.042 0 1.86 0.299 2.431 0.887 0.573 0.591 0.807 1.363 0.907 1.943h-6.862c0.248-1.089 1.033-2.83 3.524-2.83zM30.755 27.432c0 0.71-0.578 1.287-1.287 1.287h-26.936c-0.709 0-1.287-0.577-1.287-1.287v-12.488l11.872 3.56v1.414c0 0.963 0.783 1.747 1.746 1.747h2.14c0.963 0 1.746-0.784 1.746-1.747v-1.371l12.006-3.584v12.468zM14.362 19.919v-2.991c0-0.276 0.225-0.5 0.501-0.5h2.14c0.276 0 0.5 0.225 0.5 0.5v2.991c0 0.276-0.225 0.5-0.5 0.5h-2.14c-0.276 0-0.501-0.224-0.501-0.5zM30.755 13.664l-12.006 3.584v-0.32c0-0.963-0.783-1.747-1.746-1.747h-2.14c-0.963 0-1.746 0.784-1.746 1.747v0.276l-11.872-3.56v-5c0-0.709 0.577-1.286 1.287-1.286h26.936c0.709 0 1.287 0.577 1.287 1.286v5.020z"></path>
</svg>
