<!-- Generated by IcoMoon.io -->
<svg version="1.1" xmlns="http://www.w3.org/2000/svg" width="32" height="32" viewBox="0 0 32 32">
<title>faq</title>
<path d="M15.974 21.481c-0.396 0-0.736 0.152-1.021 0.457s-0.429 0.668-0.429 1.089c0 0.422 0.143 0.784 0.429 1.089s0.626 0.457 1.021 0.457 0.736-0.153 1.022-0.457c0.285-0.305 0.428-0.667 0.428-1.089s-0.143-0.785-0.428-1.089c-0.286-0.305-0.627-0.457-1.022-0.457zM14.701 0.051c-7.755 0.612-14.039 6.895-14.65 14.651-0.777 9.859 7.388 18.024 17.247 17.247 7.756-0.612 14.039-6.895 14.651-14.65 0.777-9.859-7.388-18.025-17.247-17.247zM14.794 30.81c-7.201-0.568-13.036-6.403-13.604-13.604-0.722-9.155 6.861-16.737 16.015-16.015 7.201 0.568 13.036 6.403 13.604 13.604 0.722 9.154-6.861 16.737-16.015 16.015zM19.336 8.563c-0.395-0.366-0.861-0.648-1.395-0.843s-1.109-0.293-1.724-0.293c-1.289 0-2.369 0.386-3.241 1.16-0.728 0.645-1.218 1.494-1.471 2.547-0.082 0.34 0.152 0.678 0.5 0.715l1.137 0.119c0.257 0.027 0.499-0.139 0.555-0.391 0.127-0.581 0.37-1.067 0.73-1.456 0.446-0.484 1.029-0.726 1.746-0.726 0.323 0 0.627 0.062 0.912 0.187s0.531 0.297 0.737 0.516c0.205 0.218 0.37 0.48 0.494 0.784s0.187 0.637 0.187 0.996c0 0.359-0.062 0.683-0.187 0.972s-0.282 0.562-0.472 0.82c-0.191 0.258-0.403 0.508-0.637 0.749s-0.469 0.48-0.703 0.715c-0.293 0.297-0.538 0.55-0.736 0.761s-0.356 0.429-0.473 0.656c-0.117 0.226-0.205 0.48-0.263 0.761s-0.088 0.632-0.088 1.054v0.964c0 0.257 0.208 0.465 0.465 0.465h1.15c0.273 0 0.493-0.221 0.493-0.493v-0.537c0-0.328 0.015-0.601 0.044-0.82s0.084-0.417 0.164-0.597c0.080-0.179 0.19-0.351 0.33-0.515s0.326-0.363 0.56-0.597l0.22-0.211 1.318-1.452c0.293-0.39 0.52-0.808 0.681-1.253s0.242-0.964 0.242-1.557c0-0.688-0.113-1.3-0.34-1.839s-0.538-0.991-0.933-1.358z"></path>
</svg>
