<!-- Generated by IcoMoon.io -->
<svg version="1.1" xmlns="http://www.w3.org/2000/svg" width="32" height="32" viewBox="0 0 32 32">
<title>featured-customer-stories</title>
<path d="M16.572 0.572c0-0.315-0.256-0.572-0.572-0.572s-0.572 0.257-0.572 0.572v1.714h1.143v-1.714zM30.857 3.428h-29.715c-0.631 0-1.143 0.512-1.143 1.143v18.286c0 0.632 0.512 1.143 1.143 1.143h10.255l-4.453 7.126 0.008 0.006c-0.055 0.088-0.095 0.185-0.095 0.297 0 0.316 0.256 0.572 0.572 0.572 0.204 0 0.375-0.113 0.476-0.273l0.008 0.006 4.833-7.733h6.509l4.833 7.732 0.008-0.006c0.101 0.161 0.272 0.273 0.476 0.273 0.316 0 0.572-0.256 0.572-0.572 0-0.112-0.040-0.209-0.095-0.297l0.008-0.006-4.453-7.125h10.254c0.631 0 1.143-0.511 1.143-1.143v-18.286c0-0.631-0.511-1.143-1.142-1.143zM30.857 22.857h-29.715v-18.286h29.714v18.286zM5.143 19.428c0.158 0 0.301-0.064 0.404-0.167l7.596-7.596 5.31 5.31c0.103 0.104 0.246 0.167 0.404 0.167s0.301-0.064 0.404-0.167l7.024-7.024v3.191c0 0.316 0.256 0.572 0.572 0.572s0.572-0.256 0.572-0.572v-4.571c0-0.315-0.256-0.572-0.572-0.572h-4.572c-0.316 0-0.572 0.257-0.572 0.572s0.256 0.572 0.572 0.572h3.192l-6.62 6.62-5.31-5.31c-0.103-0.103-0.246-0.167-0.404-0.167s-0.301 0.065-0.404 0.167l-8 8c-0.103 0.104-0.167 0.247-0.167 0.404 0 0.316 0.256 0.572 0.572 0.572z"></path>
</svg>
