<!-- Generated by IcoMoon.io -->
<svg version="1.1" xmlns="http://www.w3.org/2000/svg" width="32" height="32" viewBox="0 0 32 32">
<title>fingerprint</title>
<path d="M0.96 18.685h0.096c0.432-0.050 0.765-0.414 0.765-0.855 0-0.037-0.002-0.073-0.007-0.109l0 0.004c-0.051-0.455-0.081-0.983-0.081-1.518 0-7.914 6.416-14.33 14.33-14.33 7.259 0 13.257 5.397 14.2 12.398l0.008 0.074c0.038 0.447 0.41 0.796 0.864 0.796 0.479 0 0.867-0.388 0.867-0.867 0-0.046-0.004-0.091-0.011-0.135l0.001 0.005c-1.048-7.943-7.776-14.010-15.921-14.010-8.865 0-16.051 7.186-16.051 16.051 0 0.61 0.034 1.212 0.1 1.804l-0.007-0.073c0.047 0.43 0.407 0.762 0.845 0.765h0zM13.062 31.763c0.112 0.058 0.245 0.091 0.386 0.091 0.335 0 0.625-0.191 0.767-0.47l0.002-0.005c1.812-3.551 2.873-7.745 2.873-12.187 0-1.147-0.071-2.278-0.208-3.389l0.013 0.133c-0.064-0.422-0.424-0.741-0.858-0.741-0.479 0-0.867 0.388-0.867 0.867 0 0.028 0.001 0.055 0.004 0.082l-0-0.003c0.115 0.913 0.181 1.969 0.181 3.041 0 4.166-0.995 8.099-2.76 11.575l0.067-0.146c-0.055 0.11-0.087 0.24-0.087 0.378 0 0.338 0.195 0.631 0.479 0.772l0.005 0.002zM26.707 27.52c0.050 0.010 0.108 0.016 0.167 0.016 0.417 0 0.764-0.296 0.844-0.689l0.001-0.006c0.483-2.294 0.759-4.929 0.759-7.629 0-1.626-0.1-3.229-0.295-4.802l0.019 0.188c-0.272-2.211-1.096-4.189-2.33-5.844l0.023 0.032c-0.159-0.199-0.402-0.325-0.674-0.325-0.475 0-0.861 0.385-0.861 0.861 0 0.187 0.059 0.36 0.16 0.501l-0.002-0.003c1.041 1.395 1.752 3.095 1.985 4.943l0.005 0.052c0.166 1.318 0.261 2.844 0.261 4.391 0 2.586-0.265 5.111-0.77 7.548l0.042-0.24c-0.010 0.050-0.016 0.107-0.016 0.165 0 0.411 0.29 0.755 0.676 0.838l0.006 0.001zM3.382 25.702c0.096 0.040 0.208 0.063 0.325 0.063 0.358 0 0.665-0.218 0.796-0.528l0.002-0.006c0.753-1.793 1.19-3.878 1.19-6.064 0-0.665-0.040-1.321-0.119-1.965l0.008 0.077c-0.046-0.37-0.072-0.797-0.072-1.231 0-5.816 4.715-10.531 10.531-10.531 1.801 0 3.497 0.452 4.98 1.249l-0.056-0.028c0.131 0.086 0.292 0.136 0.465 0.136 0.475 0 0.861-0.385 0.861-0.861 0-0.357-0.217-0.663-0.527-0.793l-0.006-0.002c-1.668-0.906-3.652-1.439-5.76-1.439-6.764 0-12.246 5.483-12.246 12.246 0 0.513 0.032 1.018 0.093 1.515l-0.006-0.059c0.064 0.508 0.1 1.095 0.1 1.691 0 1.949-0.39 3.807-1.095 5.501l0.035-0.095c-0.039 0.095-0.062 0.206-0.062 0.322 0 0.36 0.22 0.668 0.533 0.796l0.006 0.002zM17.226 31.93c0.1 0.044 0.217 0.070 0.34 0.070 0.351 0 0.654-0.211 0.787-0.512l0.002-0.006c1.6-3.626 2.531-7.853 2.531-12.298 0-1.305-0.080-2.59-0.236-3.853l0.015 0.151c-0.263-2.347-2.236-4.155-4.632-4.155-2.573 0-4.659 2.086-4.659 4.659 0 0.178 0.010 0.353 0.029 0.525l-0.002-0.021c-0.001 0.013-0.001 0.029-0.001 0.045s0 0.031 0.001 0.047l-0-0.002c0.097 0.782 0.152 1.686 0.152 2.604 0 0.248-0.004 0.495-0.012 0.741l0.001-0.036c-0 0.008-0 0.018-0 0.027 0 0.476 0.386 0.861 0.861 0.861 0.466 0 0.846-0.37 0.861-0.833l0-0.001c0.009-0.245 0.014-0.532 0.014-0.821 0-0.963-0.057-1.913-0.169-2.847l0.011 0.113c-0.017-0.118-0.026-0.254-0.026-0.392 0-1.623 1.316-2.938 2.938-2.938 1.485 0 2.712 1.101 2.91 2.531l0.002 0.015c0 0.032 0 0.064 0 0.096 0.131 1.041 0.205 2.247 0.205 3.469 0 4.202-0.88 8.198-2.465 11.815l0.074-0.189c-0.045 0.101-0.072 0.22-0.072 0.344 0 0.351 0.21 0.653 0.511 0.787l0.005 0.002zM9.354 30.618c0.119 0.066 0.261 0.105 0.412 0.105 0.323 0 0.605-0.179 0.751-0.443l0.002-0.004c0.798-1.462 1.48-3.157 1.959-4.936l0.038-0.165c0.018-0.065 0.028-0.14 0.028-0.218 0-0.476-0.386-0.862-0.862-0.862-0.398 0-0.734 0.27-0.832 0.638l-0.001 0.006c-0.48 1.801-1.113 3.372-1.91 4.841l0.057-0.115c-0.060 0.114-0.095 0.25-0.095 0.394 0 0.326 0.182 0.61 0.449 0.756l0.005 0.002zM22.72 15.27c0.067 0.416 0.424 0.73 0.854 0.73 0.003 0 0.005 0 0.008-0h0.099c0.426-0.056 0.752-0.417 0.752-0.854 0-0.037-0.002-0.074-0.007-0.11l0 0.004c-0.526-4.218-4.088-7.449-8.406-7.449-0.345 0-0.686 0.021-1.020 0.061l0.040-0.004c-0.621 0.077-1.182 0.208-1.719 0.389l0.061-0.018c-0.369 0.104-0.634 0.438-0.634 0.833 0 0.477 0.387 0.864 0.864 0.864 0.115 0 0.226-0.023 0.326-0.064l-0.006 0.002c0.63-0.215 1.357-0.34 2.112-0.34 2.96 0 5.474 1.908 6.379 4.561l0.014 0.047c0.134 0.385 0.238 0.836 0.294 1.303l0.003 0.032zM21.798 30.794c0.077 0.025 0.166 0.040 0.258 0.040 0.379 0 0.7-0.244 0.815-0.584l0.002-0.006c1.021-2.961 1.66-6.377 1.765-9.926l0.001-0.051c-0.011-0.468-0.394-0.844-0.864-0.844-0.452 0-0.823 0.347-0.861 0.789l-0 0.003c-0.103 3.428-0.712 6.68-1.755 9.73l0.069-0.232c-0.026 0.079-0.042 0.17-0.042 0.264 0 0.381 0.249 0.704 0.592 0.816l0.006 0.002zM6.134 28.614c0.114 0.060 0.25 0.095 0.393 0.095 0.331 0 0.619-0.187 0.763-0.462l0.002-0.005c1.391-2.632 2.208-5.752 2.208-9.063 0-0.827-0.051-1.643-0.15-2.444l0.010 0.096c-0.030-0.239-0.047-0.516-0.047-0.797 0-1.361 0.403-2.627 1.097-3.686l-0.016 0.026c0.058-0.113 0.092-0.247 0.092-0.388 0-0.475-0.385-0.861-0.861-0.861-0.267 0-0.506 0.122-0.664 0.313l-0.001 0.001c-0.857 1.3-1.366 2.893-1.366 4.606 0 0.347 0.021 0.689 0.061 1.024l-0.004-0.040c0.081 0.64 0.127 1.382 0.127 2.134 0 3.027-0.746 5.88-2.065 8.384l0.047-0.099c-0.062 0.116-0.098 0.253-0.098 0.398 0 0.33 0.186 0.616 0.458 0.761l0.005 0.002z"></path>
</svg>
