<!-- Generated by IcoMoon.io -->
<svg version="1.1" xmlns="http://www.w3.org/2000/svg" width="32" height="32" viewBox="0 0 32 32">
<title>firewall</title>
<path d="M31.748 14.536c0-0.263-0.214-0.477-0.477-0.477h-15.147l-0.009 0.127c-0.017 0.233-0.022 0.466-0.019 0.692l0.002 0.134h6.652v3.663h-5.521l0.091 0.194c0.112 0.238 0.224 0.485 0.332 0.745l0.035 0.084h13.071v3.628h-12.362l-0.001 0.136c-0.001 0.232-0.011 0.468-0.031 0.741l-0.011 0.147h4.397v3.663h-5.737l-0.041 0.054c-0.18 0.237-0.377 0.461-0.584 0.666l-0.236 0.233h15.116c0.263 0 0.477-0.214 0.477-0.477v-13.954zM30.795 24.351v3.663h-7.090v-3.663h7.090zM30.795 15.013v3.663h-7.090v-3.663h7.090zM10.444 0.92l-2.118 2.076c-1.525 1.495-4.048 4.661-3.832 9.083-0.009 0.236-0.050 2.217 0.851 4.569 0.261 0.682 0.118 1.219-0.093 1.588-0.121-0.901-0.478-2.339-1.525-3.586l-1.478-1.761 0.221 2.289c0.082 0.846-0.061 1.683-0.423 2.488-0.099 0.22-0.199 0.439-0.3 0.659-0.859 1.876-1.746 3.814-1.746 6.153 0 2.412 2.017 5.059 3.821 5.815l1.878 0.787-0.975-1.787c-0.368-0.674-0.806-1.742-0.806-3.006 0-1.449 0.751-1.878 2.077-2.511 0.343-0.163 0.697-0.332 1.053-0.539 0.156-0.091 0.309-0.177 0.457-0.262 1.172-0.665 2.202-1.25 2.733-2.591 0.133 0.332 0.252 0.81 0.252 1.459 0 0.763-0.51 1.647-1.003 2.503-0.387 0.671-0.787 1.364-0.887 1.966l-0.127 0.759 0.766 0.070c0.047 0.004 0.098 0.007 0.152 0.007 0.222 0 0.441-0.044 0.651-0.13 0.59-0.244 1.086-0.804 1.477-1.669 0.571 0.495 1.615 1.732 1.009 3.817l-0.465 1.602 1.48-0.77c1.083-0.563 3.602-2.329 3.602-6.554 0-2.383-0.684-3.799-1.287-5.048-0.746-1.545-1.389-2.877-0.765-5.748l0.369-1.699-1.457 0.949c-0.875 0.57-2.263 1.86-2.425 4.363-0.497-0.572-1.223-1.54-1.819-2.865-1.329-2.952-1.415-6.204-0.257-9.665l0.942-2.813z"></path>
</svg>
