<!-- Generated by IcoMoon.io -->
<svg version="1.1" xmlns="http://www.w3.org/2000/svg" width="32" height="32" viewBox="0 0 32 32">
<title>fitness</title>
<path d="M29.434 5.64l-3.609 2.112-1.69-2.887c-0.35-0.598-1.118-0.799-1.716-0.449l-1.444 0.845c-0.123 0.073-0.232 0.166-0.323 0.276l-0.46-0.787c-0.35-0.598-1.118-0.799-1.716-0.449l-1.444 0.845c-0.598 0.35-0.799 1.118-0.449 1.716l2.746 4.692-9.022 5.281-2.746-4.692c-0.35-0.598-1.118-0.799-1.716-0.449l-1.444 0.845c-0.598 0.35-0.799 1.118-0.449 1.716l0.46 0.787c-0.14 0.026-0.275 0.075-0.399 0.146l-1.444 0.845c-0.598 0.35-0.799 1.118-0.449 1.716l1.69 2.887-3.609 2.113 2.112 3.609 3.609-2.113 1.69 2.887c0.35 0.598 1.118 0.799 1.716 0.449l1.444-0.845c0.123-0.073 0.232-0.166 0.323-0.276l0.46 0.787c0.35 0.598 1.118 0.799 1.716 0.449l1.444-0.845c0.598-0.35 0.799-1.118 0.449-1.716l-2.746-4.692 9.022-5.281 2.746 4.692c0.35 0.598 1.118 0.799 1.716 0.449l1.444-0.845c0.598-0.35 0.799-1.118 0.449-1.716l-0.46-0.787c0.14-0.026 0.275-0.075 0.399-0.146l1.444-0.845c0.598-0.35 0.799-1.118 0.449-1.716l-1.69-2.887 3.609-2.112-2.112-3.609zM2.614 25.215l-1.267-2.165 2.887-1.69 1.267 2.165-2.887 1.69zM10.35 26.016l-1.444 0.845c-0.199 0.116-0.456 0.050-0.572-0.15l-5.492-9.383c-0.116-0.199-0.050-0.456 0.15-0.572l1.444-0.845c0.199-0.117 0.456-0.050 0.572 0.15l5.492 9.383c0.117 0.199 0.050 0.455-0.15 0.572zM14.443 25.559c0.117 0.199 0.050 0.456-0.15 0.572l-1.444 0.845c-0.199 0.116-0.456 0.050-0.572-0.15l-7.605-12.992c-0.117-0.199-0.050-0.456 0.15-0.572l1.444-0.845c0.199-0.117 0.456-0.050 0.572 0.15l7.605 12.992zM11.997 19.723l-1.267-2.165 9.022-5.281 1.267 2.165-9.022 5.281zM27.075 18.166c0.116 0.199 0.050 0.456-0.15 0.572l-1.444 0.845c-0.199 0.116-0.456 0.050-0.572-0.15l-7.605-12.992c-0.116-0.199-0.050-0.456 0.15-0.572l1.444-0.845c0.199-0.117 0.456-0.050 0.572 0.15l7.605 12.992zM28.906 14.671c0.116 0.199 0.050 0.456-0.15 0.572l-1.444 0.845c-0.199 0.116-0.456 0.050-0.572-0.15l-5.492-9.383c-0.116-0.199-0.050-0.456 0.15-0.572l1.444-0.845c0.199-0.117 0.456-0.050 0.572 0.15l5.492 9.383zM30.402 8.95l-2.887 1.69-1.267-2.165 2.887-1.69 1.267 2.165z"></path>
</svg>
