<!-- Generated by IcoMoon.io -->
<svg version="1.1" xmlns="http://www.w3.org/2000/svg" width="32" height="32" viewBox="0 0 32 32">
<title>flexibility</title>
<path d="M22.894 0l-0.071 0.001c-4.999 0.045-9.055 4.122-9.055 9.115v3.688h4.467v-3.688c0-2.558 2.091-4.643 4.659-4.648 2.557 0.005 4.638 2.091 4.638 4.648 0 2.563-2.085 4.648-4.649 4.648h-13.765c-5.026 0-9.115 4.089-9.115 9.116 0 5.012 4.078 9.1 9.077 9.114l0.138 0.007 0.016-0.008c4.505-0.068 8.222-3.413 8.884-7.738h1.445c0.391 0 0.741-0.234 0.891-0.595s0.068-0.773-0.209-1.051l-3.624-3.623c-0.181-0.182-0.424-0.283-0.681-0.283-0 0-0 0-0.001 0-0.257 0-0.5 0.1-0.682 0.282l-3.624 3.625c-0.276 0.277-0.358 0.69-0.208 1.050s0.499 0.595 0.891 0.595h1.243c-0.59 1.889-2.362 3.268-4.45 3.273-2.557-0.006-4.639-2.092-4.639-4.648 0-2.564 2.085-4.649 4.649-4.649h13.765c5.026 0 9.115-4.089 9.115-9.115-0-5.012-4.079-9.101-9.104-9.116zM22.883 17.308h-13.765c-3.072 0-5.571 2.5-5.571 5.572 0 3.065 2.494 5.564 5.563 5.571 2.456-0.005 4.598-1.581 5.328-3.921l0.374-1.198h-2.497c-0.018 0-0.031-0.009-0.038-0.026s-0.004-0.032 0.009-0.044l0.079-0.079 3.573-3.573 0.031 0.029 3.623 3.622c0.010 0.009 0.019 0.025 0.010 0.047-0.007 0.017-0.020 0.026-0.038 0.026h-2.237l-0.12 0.783c-0.608 3.969-3.966 6.894-7.986 6.955l-0.066 0.003-0.051-0.002h-0.021c-4.498-0.013-8.157-3.687-8.157-8.192 0-4.518 3.675-8.193 8.193-8.193h13.765c3.072 0 5.571-2.499 5.571-5.571 0-3.066-2.494-5.565-5.563-5.571-3.076 0.006-5.58 2.505-5.58 5.571v2.766h-2.622v-2.766c0-4.476 3.652-8.152 8.143-8.192l0.065-0.001c4.509 0.016 8.177 3.69 8.177 8.193 0 4.517-3.675 8.192-8.193 8.192z"></path>
</svg>
