<!-- Generated by IcoMoon.io -->
<svg version="1.1" xmlns="http://www.w3.org/2000/svg" width="32" height="32" viewBox="0 0 32 32">
<title>flexible-schedule</title>
<path d="M28.428 17.899c0-7.109-5.784-12.893-12.893-12.893s-12.893 5.784-12.893 12.893c0 3.808 1.661 7.235 4.295 9.597-0.61 1.504-1.28 3.377-1.052 3.87 0.079 0.157 0.233 0.25 0.408 0.25 0.032 0 0.065-0.003 0.099-0.010 0.584-0.113 1.981-1.826 2.46-2.685 1.95 1.187 4.239 1.871 6.684 1.871 2.491 0 4.817-0.712 6.79-1.939 0.45 0.832 1.94 2.646 2.52 2.748 0.030 0.005 0.059 0.008 0.087 0.008 0.173 0 0.324-0.093 0.397-0.252 0.225-0.488-0.46-2.391-1.074-3.901l-0.141 0.057c2.645-2.363 4.314-5.796 4.314-9.614zM6.575 30.684c0.141-0.608 0.525-1.713 0.922-2.714 0.253 0.203 0.513 0.397 0.781 0.58-0.228 0.455-1.154 1.622-1.703 2.134zM24.635 30.659c-0.602-0.565-1.629-1.853-1.743-2.181 0.269-0.188 0.532-0.384 0.785-0.591 0.406 1.017 0.806 2.158 0.958 2.772zM15.534 30.095c-6.725 0-12.196-5.471-12.196-12.196s5.471-12.197 12.196-12.197 12.196 5.471 12.196 12.196-5.471 12.197-12.196 12.197zM15.534 6.992c-6.014 0-10.907 4.893-10.907 10.907s4.893 10.907 10.907 10.907 10.907-4.893 10.907-10.907-4.893-10.907-10.907-10.907zM15.534 28.109c-5.63 0-10.21-4.58-10.21-10.21s4.58-10.21 10.21-10.21c5.63 0 10.21 4.58 10.21 10.21s-4.58 10.21-10.21 10.21zM15.776 16.891l-2.277-7.63c-0.055-0.184-0.249-0.29-0.434-0.234-0.184 0.055-0.289 0.249-0.234 0.434l2.284 7.653c-0.231 0.185-0.382 0.466-0.382 0.785 0 0.249 0.093 0.473 0.242 0.649l-2.8 4.318c-0.105 0.162-0.059 0.377 0.103 0.482 0.058 0.038 0.124 0.056 0.189 0.056 0.114 0 0.226-0.056 0.293-0.159l2.822-4.353c0.053 0.009 0.106 0.016 0.162 0.016 0.558 0 1.011-0.452 1.011-1.011-0-0.547-0.436-0.99-0.979-1.007zM13.168 3.396c-0.040-0.087-0.996-2.126-3.182-2.801-1.557-0.48-3.315-0.141-5.225 1.010-2.009 1.21-3.202 2.65-3.547 4.281-0.433 2.044 0.643 3.609 0.689 3.675l0.179 0.255 11.222-6.125-0.135-0.295zM2.318 8.893c-0.253-0.486-0.698-1.58-0.421-2.873 0.307-1.43 1.391-2.714 3.223-3.818 1.238-0.746 2.392-1.12 3.446-1.12 0.418 0 0.821 0.059 1.207 0.177 1.433 0.439 2.278 1.602 2.604 2.144l-10.059 5.49zM30.531 6.208c-0.351-1.634-1.549-3.077-3.561-4.289-1.909-1.15-3.668-1.49-5.225-1.010-2.186 0.675-3.142 2.714-3.182 2.801l-0.136 0.296 11.258 6.124 0.178-0.257c0.045-0.066 1.105-1.626 0.667-3.665zM29.445 9.206l-10.093-5.49c0.324-0.54 1.163-1.698 2.598-2.141 1.358-0.419 2.927-0.103 4.66 0.941 1.836 1.106 2.926 2.394 3.237 3.828 0.28 1.287-0.153 2.376-0.402 2.862z"></path>
</svg>
