<!-- Generated by IcoMoon.io -->
<svg version="1.1" xmlns="http://www.w3.org/2000/svg" width="32" height="32" viewBox="0 0 32 32">
<title>flexible-deployment</title>
<path d="M25.898 24.794h1.251v1.251h-1.251v-1.251zM25.898 19.792h1.251v1.251h-1.251v-1.251zM25.898 22.291h1.251v1.251h-1.251v-1.251zM25.898 17.29h1.251v1.251h-1.251v-1.251zM20.893 19.792h1.251v1.251h-1.251v-1.251zM20.893 17.29h1.251v1.251h-1.251v-1.251zM25.898 14.787h1.251v1.251h-1.251v-1.251zM20.893 22.291h1.251v1.251h-1.251v-1.251zM20.893 24.794h1.251v1.251h-1.251v-1.251zM23.395 14.787h1.251v1.251h-1.251v-1.251zM23.395 17.29h1.251v1.251h-1.251v-1.251zM23.395 22.291h1.251v1.251h-1.251v-1.251zM20.896 16.038h1.248v-1.251h-1.181l-0.067 0.070v1.181zM23.395 19.792h1.251v1.251h-1.251v-1.251zM23.395 13.536h1.251v-1.251h-1.181l-0.070 0.070v1.181zM15.891 26.045h1.251v1.251h-1.251v-1.251zM25.898 12.285h1.251v1.251h-1.251v-1.251zM15.891 23.542h1.251v1.251h-1.251v-1.251zM15.891 21.040h1.251v1.251h-1.251v-1.251zM17.142 18.611l-1.181 1.181h1.181v-1.181zM18.653 29.267h13.347v-9.37c0-0.514-0.417-0.931-0.931-0.931v0h-1.629v-7.376c-0.002-0.632-0.514-1.144-1.145-1.146h-2.989l-0.666 0.659h3.638c0.268 0.002 0.485 0.219 0.486 0.486v17.011h-4.125v-3.808h-1.242v3.808h-4.086v-12.16l-0.659 0.659v11.501h-4.298v-7.206l-0.659 0.662v7.21h4.957zM29.44 19.626h1.645c0.15 0 0.272 0.122 0.272 0.272v8.704h-1.917zM17.533 8.874h-0.093v-0.093c0.041-0.231 0.067-0.5 0.073-0.775l0-0.006c0.001-0.034 0.001-0.073 0.001-0.113 0-2.852-2.312-5.165-5.165-5.165-2.269 0-4.196 1.463-4.89 3.497l-0.011 0.036-0.038 0.112-0.096-0.070c-0.432-0.312-0.971-0.5-1.555-0.502h-0.001c-1.376 0.016-2.509 1.035-2.702 2.359l-0.002 0.015v0.058l-0.058 0.016c-1.736 0.514-2.981 2.094-2.981 3.965 0 2.254 1.806 4.085 4.049 4.127l0.004 0h9.632l0.589-0.589h-10.24c-0.067 0.005-0.146 0.007-0.226 0.007-1.948 0-3.527-1.579-3.527-3.527 0-1.869 1.453-3.398 3.291-3.519l0.011-0.001c-0.002-0.020-0.002-0.044-0.002-0.067s0.001-0.047 0.003-0.070l-0 0.003c0.004-1.194 0.967-2.162 2.159-2.173h0.001c0.786 0.027 1.472 0.431 1.886 1.035l0.005 0.008c0.37-2.303 2.312-4.051 4.675-4.118l0.007-0c2.549 0.025 4.605 2.097 4.605 4.649 0 0.009-0 0.018-0 0.027v-0.001c-0.001 0.535-0.091 1.049-0.256 1.527l0.010-0.033c0.159-0.033 0.343-0.051 0.53-0.051 0.001 0 0.003 0 0.004 0h-0c0.914 0.006 1.732 0.41 2.291 1.046l0.003 0.003 0.41-0.41c-0.6-0.672-1.439-1.12-2.382-1.209l-0.015-0.001zM26.016 7.11c-0.228-0.006-0.411-0.193-0.411-0.422 0-0.112 0.043-0.213 0.114-0.288l-0 0 0.496-0.496c0.073-0.062 0.168-0.099 0.272-0.099 0.233 0 0.422 0.189 0.422 0.422 0 0.104-0.038 0.199-0.1 0.273l0-0.001-0.496 0.499c-0.076 0.069-0.178 0.112-0.29 0.112-0.003 0-0.005-0-0.008-0h0zM10.758 22.368c-0.232-0.001-0.42-0.19-0.42-0.422 0-0.116 0.047-0.221 0.123-0.298l0.979-0.979c0.076-0.076 0.181-0.123 0.298-0.123s0.221 0.047 0.298 0.123l-0-0c0.077 0.076 0.125 0.181 0.125 0.298s-0.048 0.222-0.125 0.298l-0 0-0.96 0.979c-0.077 0.077-0.184 0.125-0.301 0.125-0.005 0-0.011-0-0.016-0l0.001 0zM13.318 19.808c-0.232-0.001-0.42-0.19-0.42-0.422 0-0.116 0.047-0.221 0.123-0.298l-0 0 0.979-0.976c0.076-0.077 0.181-0.125 0.298-0.125s0.222 0.048 0.298 0.125l0 0c0.076 0.076 0.123 0.181 0.123 0.298s-0.047 0.221-0.123 0.298l0-0-0.995 0.992c-0.073 0.083-0.179 0.137-0.297 0.141l-0.001 0zM15.878 17.248c-0.002 0-0.004 0-0.006 0-0.114 0-0.217-0.047-0.291-0.122l-0-0c-0.077-0.076-0.125-0.181-0.125-0.298s0.048-0.222 0.125-0.298l0-0 0.96-0.979c0.076-0.076 0.181-0.123 0.298-0.123s0.221 0.047 0.298 0.123l-0-0c0.077 0.076 0.125 0.181 0.125 0.298s-0.048 0.222-0.125 0.298l-0 0-0.96 0.979c-0.077 0.094-0.194 0.154-0.324 0.154-0.002 0-0.004 0-0.006-0h0zM18.419 14.707c-0 0-0 0-0.001 0-0.116 0-0.222-0.048-0.297-0.125l-0-0c-0.076-0.076-0.123-0.181-0.123-0.298s0.047-0.221 0.123-0.298l-0 0 0.979-0.976c0.076-0.077 0.181-0.125 0.298-0.125s0.222 0.048 0.298 0.125l0 0c0.076 0.076 0.123 0.181 0.123 0.298s-0.047 0.221-0.123 0.298l0-0-0.979 0.976c-0.077 0.096-0.194 0.157-0.325 0.157-0.001 0-0.003 0-0.004-0h0zM20.963 12.147c-0 0-0.001 0-0.001 0-0.116 0-0.22-0.046-0.297-0.122l0 0c-0.077-0.076-0.125-0.181-0.125-0.298s0.048-0.222 0.125-0.298l0-0 0.96-0.979c0.076-0.076 0.181-0.123 0.298-0.123s0.221 0.047 0.298 0.123l-0-0c0.077 0.076 0.125 0.181 0.125 0.298s-0.048 0.222-0.125 0.298l-0 0-0.96 0.979c-0.077 0.1-0.195 0.165-0.329 0.17l-0.001 0zM23.504 9.606c-0.232-0.001-0.42-0.19-0.42-0.422 0-0.116 0.047-0.221 0.123-0.298l0.979-0.979c0.075-0.068 0.175-0.11 0.285-0.11 0.233 0 0.422 0.189 0.422 0.422 0 0.111-0.043 0.211-0.112 0.287l0-0-0.979 0.976c-0.075 0.104-0.194 0.171-0.329 0.173h-0zM8.698 24.429c-0.232-0.001-0.42-0.19-0.42-0.422 0-0.116 0.047-0.221 0.123-0.298l0.496-0.496c0.078-0.085 0.189-0.138 0.312-0.138 0.233 0 0.422 0.189 0.422 0.422 0 0.123-0.052 0.233-0.136 0.31l-0 0-0.499 0.512c-0.073 0.068-0.172 0.109-0.28 0.109-0.006 0-0.013-0-0.019-0l0.001 0z"></path>
</svg>
