<!-- Generated by IcoMoon.io -->
<svg version="1.1" xmlns="http://www.w3.org/2000/svg" width="32" height="32" viewBox="0 0 32 32">
<title>free-healthcare</title>
<path d="M4.393 22.407c0.195 0 0.353-0.158 0.353-0.353 0-0.081 0.066-0.146 0.146-0.146 0.195 0 0.353-0.158 0.353-0.353s-0.158-0.353-0.353-0.353c-0.47 0-0.852 0.382-0.852 0.852 0 0.195 0.158 0.353 0.353 0.353zM9.376 5.12h0.479v0.479c0 0.195 0.158 0.353 0.353 0.353s0.353-0.158 0.353-0.353v-0.479h0.479c0.195 0 0.353-0.158 0.353-0.353s-0.158-0.353-0.353-0.353h-0.479v-0.479c0-0.195-0.158-0.353-0.353-0.353s-0.353 0.158-0.353 0.353v0.479h-0.479c-0.195 0-0.353 0.158-0.353 0.353s0.158 0.353 0.353 0.353zM2.075 20.055c-0.195-0.017-0.367 0.122-0.386 0.316-0.010 0.096-0.015 0.192-0.016 0.289-0.003 0.195 0.154 0.355 0.349 0.357 0.001 0 0.003 0 0.004 0 0.193 0 0.35-0.155 0.353-0.349 0.001-0.076 0.005-0.151 0.013-0.226 0.019-0.194-0.122-0.367-0.316-0.386zM4.173 17.292c0.164-0.105 0.212-0.323 0.108-0.487s-0.322-0.211-0.486-0.109c-0.061 0.039-1.488 0.96-1.771 2.458-0.036 0.191 0.090 0.376 0.281 0.412 0.022 0.004 0.044 0.006 0.066 0.006 0.166 0 0.314-0.118 0.346-0.287 0.226-1.193 1.445-1.986 1.457-1.994zM11.13 13.196c-0.803 0.347-1.817-0.004-1.828-0.009-0.184-0.065-0.385 0.030-0.45 0.213s0.030 0.385 0.213 0.451c0.034 0.012 0.575 0.202 1.244 0.202 0.351 0 0.737-0.052 1.102-0.21 0.179-0.077 0.261-0.285 0.184-0.464s-0.284-0.262-0.464-0.184zM21.817 7.286h0.393v0.393c0 0.195 0.158 0.353 0.353 0.353s0.353-0.158 0.353-0.353v-0.393h0.393c0.195 0 0.353-0.158 0.353-0.353s-0.158-0.353-0.353-0.353h-0.393v-0.393c0-0.195-0.158-0.353-0.353-0.353s-0.353 0.158-0.353 0.353v0.393h-0.393c-0.195 0-0.353 0.158-0.353 0.353s0.158 0.353 0.353 0.353zM31.745 27.196l-0.109-5.964c-0.084-1.841-1.034-3.499-2.75-4.795-0.771-0.583-1.526-0.966-2.016-1.184 0.939-0.62 1.918-1.678 1.918-3.4 0-2.764-1.992-4.686-2.593-5.204l0.15-0.466c0.125-0.391-0.042-0.822-0.397-1.024-0.623-0.353-1.893-0.944-3.405-0.944s-2.76 0.592-3.369 0.944c-0.356 0.206-0.516 0.625-0.39 1.020l0.151 0.47c-0.6 0.516-2.594 2.44-2.594 5.205 0 1.722 0.98 2.78 1.919 3.401-0.219 0.097-0.49 0.228-0.794 0.395-0.181-0.151-0.367-0.3-0.564-0.446-1.172-0.864-2.316-1.398-2.856-1.626 0.63-1.125 1.013-2.517 1.013-4.009v-5.33c0-0.907-0.676-1.686-1.572-1.813-0.799-0.113-2.016-0.248-3.276-0.248-1.253 0-2.454 0.134-3.241 0.246-0.894 0.127-1.569 0.907-1.569 1.813v5.332c0 1.52 0.373 2.918 0.994 4.041-0.574 0.243-1.686 0.766-2.824 1.593-2.16 1.569-3.35 3.478-3.443 5.532l-0.121 6.189c-0.039 0.763 0.229 1.488 0.756 2.042s1.237 0.859 2.001 0.859h26.478c0.695 0 1.341-0.277 1.819-0.781s0.723-1.163 0.687-1.846zM23.373 10.239c0.604 0.456 1.598 0.915 2.832 1.071l0.001 0.077c0 2.841-1.634 5.152-3.643 5.152-1.975 0-3.584-2.234-3.638-5.009 0.299 0.053 0.59 0.081 0.871 0.081 1.532 0 2.77-0.721 3.579-1.372zM22.563 17.245c0.711 0 1.381-0.236 1.975-0.645-0.467 0.96-1.598 1.5-1.972 1.656-0.339-0.156-1.307-0.665-1.849-1.573 0.561 0.357 1.185 0.562 1.846 0.562zM17.044 11.854c0-2.167 1.439-3.804 2.126-4.463l0.348 1.085c0.059 0.185 0.256 0.288 0.443 0.228 0.186-0.059 0.288-0.258 0.228-0.444l-0.736-2.297c-0.024-0.076 0.005-0.156 0.072-0.194 0.548-0.317 1.669-0.85 3.016-0.85 1.35 0 2.495 0.534 3.057 0.853 0.068 0.038 0.098 0.118 0.073 0.195l-0.734 2.293c-0.060 0.186 0.043 0.384 0.228 0.444 0.036 0.011 0.072 0.017 0.108 0.017 0.15 0 0.288-0.096 0.336-0.245l0.348-1.085c0.688 0.658 2.125 2.29 2.125 4.463 0 1.729-1.183 2.652-2.080 3.105 0.568-0.99 0.91-2.227 0.91-3.573l-0-0.024c0.052 0.001 0.102 0.007 0.155 0.007 0.090 0 0.183-0.002 0.275-0.005 0.195-0.008 0.346-0.171 0.339-0.366s-0.187-0.344-0.366-0.339c-1.407 0.053-2.66-0.386-3.401-0.897 0.317-0.31 0.493-0.538 0.5-0.547 0.117-0.156 0.086-0.377-0.070-0.494s-0.377-0.086-0.494 0.070c-0.022 0.029-2.26 2.934-5.441 1.886-0.186-0.061-0.385 0.039-0.446 0.224s0.040 0.384 0.224 0.445c0.009 0.003 0.018 0.005 0.027 0.008 0 0.011-0 0.022-0 0.033 0 1.345 0.342 2.583 0.91 3.573-0.898-0.453-2.081-1.377-2.081-3.106zM10.216 21.186c-0.755-0.924-2.872-3.749-2.609-6.021 0.751 0.672 1.643 1.067 2.601 1.067 0.938 0 1.821-0.394 2.573-1.058 0.191 2.448-1.829 5.126-2.565 6.012zM10.209 15.527c-2.073 0-3.846-2.371-4.077-5.307 1.863-0.44 2.559-1.929 2.783-2.612 0.96 0.911 2.487 1.968 4.411 1.968 0.33 0 0.672-0.031 1.025-0.1v0.093c-0 3.23-1.897 5.958-4.142 5.958zM14.35 8.749c-2.125 0.471-3.845-0.627-4.885-1.593 1.448-0.037 3.173-0 4.885 0.227v1.366zM6.104 7.388c0.403-0.047 1.183-0.128 2.195-0.184-0.088 0.351-0.557 1.835-2.195 2.295v-2.111zM7.067 3.121c0.764-0.109 1.93-0.239 3.142-0.239 1.219 0 2.4 0.131 3.177 0.242 0.55 0.078 0.965 0.557 0.965 1.115v2.433c-3.523-0.454-7.077-0.128-8.247 0.006v-2.441c0-0.557 0.414-1.036 0.963-1.115zM17.454 29.118h-14.694c-0.569 0-1.098-0.227-1.49-0.639s-0.591-0.952-0.562-1.531l0.121-6.191c0.141-3.114 3.112-5.119 4.89-6.045-0.462 0.971-1.155 2.885-1.178 5.635-0.794 0.162-1.393 0.866-1.393 1.707 0 0.961 0.782 1.743 1.743 1.743s1.743-0.782 1.743-1.743c0-0.839-0.596-1.541-1.387-1.706 0.033-3.81 1.444-5.954 1.458-5.975 0.032-0.047 0.047-0.099 0.054-0.152 0.003-0.001 0.005-0.002 0.008-0.003 0.077 0.109 0.158 0.212 0.241 0.314-0.861 3.153 2.783 7.258 2.941 7.434 0.066 0.073 0.161 0.116 0.26 0.117 0.001 0 0.002 0 0.003 0 0.098 0 0.192-0.041 0.258-0.113 0.152-0.163 3.664-3.999 2.93-7.443 0.046-0.056 0.092-0.112 0.137-0.171 0.109 0.23 0.885 1.902 1.057 3.104-0.665 0.255-1.145 0.879-1.186 1.612l-0.157 2.741c-0.026 0.459 0.138 0.913 0.448 1.252-0.018 0.1-0.025 0.203-0.009 0.309 0.037 0.255 0.171 0.48 0.378 0.633 0.168 0.125 0.368 0.191 0.574 0.191 0.047 0 0.094-0.003 0.142-0.010 0.526-0.077 0.891-0.568 0.814-1.093s-0.567-0.89-1.093-0.814c-0.149 0.022-0.283 0.079-0.399 0.159-0.107-0.175-0.161-0.38-0.149-0.588l0.157-2.741c0.031-0.537 0.439-0.983 0.971-1.061 0.53-0.076 1.051 0.232 1.234 0.738l0.936 2.581c0.074 0.203 0.077 0.419 0.018 0.623-0.133-0.042-0.274-0.056-0.416-0.036-0.25 0.036-0.47 0.168-0.621 0.37s-0.214 0.451-0.177 0.701c0.069 0.469 0.473 0.807 0.934 0.807 0.045 0 0.091-0.003 0.137-0.010 0.515-0.076 0.872-0.556 0.797-1.071v-0c-0.015-0.101-0.049-0.196-0.094-0.284 0.010-0.016 0.024-0.028 0.032-0.045 0.187-0.411 0.205-0.871 0.051-1.295l-0.936-2.581c-0.261-0.721-0.943-1.195-1.691-1.213-0.146-0.978-0.621-2.169-0.907-2.825 1.662 0.814 5.052 2.878 5.204 6.236l0.121 6.211c0.029 0.568-0.171 1.108-0.562 1.52s-0.921 0.639-1.49 0.639h-0.203zM4.892 21.017c0.572 0 1.037 0.465 1.037 1.037s-0.465 1.037-1.037 1.037-1.037-0.465-1.037-1.037 0.465-1.037 1.037-1.037zM14.388 23.273c-0.021-0.141 0.077-0.273 0.218-0.293 0.013-0.002 0.025-0.003 0.038-0.003 0.055 0 0.109 0.017 0.154 0.051 0.055 0.041 0.091 0.101 0.101 0.17 0.021 0.141-0.077 0.273-0.218 0.293-0.068 0.009-0.137-0.007-0.192-0.049s-0.091-0.101-0.101-0.17zM17.229 22.857c0.019 0.13-0.072 0.251-0.202 0.271-0.128 0.018-0.252-0.071-0.271-0.202-0.009-0.063 0.007-0.126 0.045-0.177s0.094-0.084 0.157-0.094c0.012-0.002 0.023-0.003 0.035-0.003 0.051 0 0.1 0.016 0.142 0.047 0.051 0.038 0.084 0.094 0.094 0.157zM30.546 28.556c-0.344 0.362-0.809 0.562-1.308 0.562h-9.742c0.055-0.049 0.11-0.099 0.161-0.153 0.526-0.554 0.794-1.279 0.756-2.031l-0.121-6.209c-0.075-1.649-0.853-3.209-2.268-4.575 0.583-0.301 1.003-0.447 1.008-0.448s0.010-0.007 0.015-0.009c0.258 0.119 0.482 0.202 0.643 0.255 0.394 2.089 2.646 2.982 2.742 3.019 0.041 0.016 0.084 0.024 0.127 0.024 0.039 0 0.078-0.007 0.116-0.020 0.107-0.037 2.586-0.925 2.76-3.023 0.161-0.053 0.386-0.136 0.644-0.255 0.006 0.002 0.010 0.007 0.016 0.009 0.047 0.016 4.658 1.613 4.836 5.554l0.109 5.966c0.025 0.498-0.15 0.972-0.494 1.335zM22.917 19.803c0 0.197-0.16 0.357-0.357 0.357s-0.357-0.16-0.357-0.357c0-0.197 0.16-0.357 0.357-0.357s0.357 0.16 0.357 0.357zM22.917 21.18c0 0.197-0.16 0.357-0.357 0.357s-0.357-0.16-0.357-0.357c0-0.197 0.16-0.357 0.357-0.357s0.357 0.16 0.357 0.357zM22.917 22.425c0 0.197-0.16 0.357-0.357 0.357s-0.357-0.16-0.357-0.357c0-0.197 0.16-0.357 0.357-0.357s0.357 0.16 0.357 0.357zM29.849 20.598c-0.194 0.019-0.336 0.192-0.316 0.386 0.007 0.066 0.010 0.133 0.011 0.199 0.002 0.194 0.159 0.35 0.353 0.35 0.001 0 0.002 0 0.003 0 0.195-0.002 0.351-0.161 0.35-0.356-0.001-0.088-0.006-0.175-0.015-0.263-0.019-0.193-0.184-0.333-0.386-0.316zM29.653 20.233c0.191-0.036 0.317-0.22 0.281-0.412-0.257-1.358-1.548-2.192-1.603-2.227-0.164-0.104-0.382-0.056-0.486 0.108s-0.056 0.382 0.107 0.487c0.011 0.007 1.090 0.709 1.289 1.763 0.032 0.17 0.18 0.287 0.346 0.287 0.022 0 0.044-0.002 0.066-0.006zM21.676 15.404c0.304 0.131 0.624 0.175 0.915 0.175 0.551 0 0.998-0.157 1.026-0.167 0.183-0.066 0.278-0.267 0.213-0.45s-0.266-0.278-0.45-0.214c-0.008 0.003-0.802 0.277-1.424 0.009-0.179-0.077-0.386 0.005-0.464 0.184s0.005 0.387 0.184 0.464zM20.449 7.054c0.186-0.058 0.29-0.256 0.232-0.442-0.037-0.119-0.041-0.215-0.012-0.265s0.106-0.076 0.132-0.081c0.19-0.032 0.319-0.21 0.289-0.401-0.029-0.193-0.207-0.327-0.402-0.295-0.041 0.006-0.41 0.071-0.616 0.402-0.101 0.161-0.193 0.439-0.065 0.851 0.047 0.151 0.186 0.248 0.337 0.248 0.035 0 0.070-0.005 0.105-0.016zM6.954 4.877c0.012 0 0.024-0.001 0.035-0.002 0.194-0.019 0.336-0.192 0.316-0.386-0.012-0.124 0.003-0.219 0.042-0.262s0.119-0.053 0.145-0.053c0.195 0.013 0.355-0.142 0.364-0.335 0.010-0.195-0.14-0.361-0.335-0.37-0.041-0.002-0.415-0.013-0.684 0.269-0.131 0.137-0.278 0.391-0.235 0.82 0.018 0.182 0.172 0.318 0.351 0.318z"></path>
</svg>
