<!-- Generated by IcoMoon.io -->
<svg version="1.1" xmlns="http://www.w3.org/2000/svg" width="32" height="32" viewBox="0 0 32 32">
<title>frictionless</title>
<path d="M16.467 10.79c-0.001 0-0.002 0-0.003 0-1.631 0-2.954-1.322-2.954-2.954 0-0.382 0.073-0.747 0.205-1.082l-0.007 0.020c0.006-0.025 0.014-0.046 0.023-0.066l-0.001 0.002 2.422-5.357c0.050-0.116 0.163-0.196 0.295-0.196 0.009 0 0.017 0 0.026 0.001l-0.001-0c0.007-0.001 0.016-0.001 0.025-0.001 0.132 0 0.245 0.080 0.294 0.194l0.001 0.002 2.406 5.366c0.009 0.019 0.017 0.042 0.022 0.065l0 0.002c0.124 0.311 0.195 0.672 0.195 1.049 0 0.003 0 0.007-0 0.010v-0.001c-0.007 1.625-1.325 2.94-2.95 2.944h-0zM14.362 6.95c0.001 0.006 0.001 0.012 0.001 0.019s-0 0.013-0.001 0.020l0-0.001c-0.107 0.256-0.17 0.553-0.17 0.864 0 1.264 1.024 2.288 2.288 2.288s2.288-1.024 2.288-2.288c0-0.312-0.062-0.609-0.175-0.88l0.006 0.015c-0.001-0.006-0.001-0.012-0.001-0.019s0-0.013 0.001-0.020l-0 0.001-2.141-4.65zM16.39 9.462h-0.022c-0.692-0.060-1.256-0.546-1.431-1.192l-0.003-0.011c-0.32-0.96 0.432-1.968 0.464-2.010 0.048-0.045 0.113-0.073 0.184-0.073 0.148 0 0.269 0.12 0.269 0.269 0 0.045-0.011 0.088-0.031 0.125l0.001-0.001s-0.618 0.81-0.381 1.507c0.105 0.456 0.487 0.797 0.956 0.841l0.004 0c0.132 0.019 0.232 0.131 0.232 0.266 0 0.142-0.11 0.258-0.25 0.268l-0.001 0zM11.274 30.842h-2.179c-0.003 0-0.007 0-0.011 0-0.282 0-0.524-0.171-0.627-0.415l-0.002-0.004c-0.015-0.022-0.027-0.048-0.035-0.075l-0.001-0.002-0.698-2.368c-0.381-0.134-0.698-0.272-1.003-0.43l0.043 0.020-2.176 1.184c-0.023 0.014-0.050 0.025-0.078 0.032l-0.002 0c-0.075 0.030-0.161 0.047-0.252 0.047-0.192 0-0.365-0.078-0.491-0.204l-0-0-1.552-1.539c-0.125-0.124-0.202-0.295-0.202-0.485 0-0.094 0.019-0.184 0.054-0.265l-0.002 0.004c0.006-0.029 0.016-0.055 0.030-0.078l-0.001 0.001 1.187-2.179c-0.136-0.261-0.273-0.578-0.389-0.905l-0.017-0.055-2.374-0.71c-0.030-0.009-0.057-0.021-0.081-0.036l0.001 0.001c-0.244-0.106-0.412-0.343-0.416-0.62v-2.192c0-0.001 0-0.003 0-0.005 0-0.283 0.171-0.527 0.415-0.634l0.004-0.002c0.022-0.014 0.048-0.025 0.075-0.032l0.002-0 2.384-0.698c0.132-0.381 0.269-0.698 0.426-1.003l-0.020 0.043-1.197-2.198c-0.014-0.024-0.025-0.052-0.032-0.081l-0-0.002c-0.030-0.075-0.047-0.162-0.047-0.253 0-0.191 0.077-0.364 0.201-0.49l-0 0 1.542-1.539c0.124-0.126 0.296-0.204 0.486-0.204 0.092 0 0.181 0.018 0.261 0.052l-0.005-0.002c0.030 0.007 0.057 0.017 0.082 0.030l-0.002-0.001 2.179 1.21c0.288-0.149 0.633-0.296 0.989-0.416l0.054-0.016 0.672-2.346c0.008-0.030 0.020-0.057 0.036-0.081l-0.001 0.001c0.102-0.246 0.341-0.416 0.619-0.416 0.007 0 0.015 0 0.022 0l-0.001-0h2.112c0.269 0.002 0.5 0.161 0.606 0.389l0.002 0.004c0.015 0.022 0.027 0.048 0.035 0.075l0.001 0.002 0.669 2.346c0.438 0.148 0.806 0.306 1.159 0.489l-0.045-0.021 2.138-1.187c0.023-0.013 0.050-0.024 0.078-0.031l0.002-0.001c0.077-0.034 0.168-0.053 0.262-0.053 0.186 0 0.355 0.075 0.477 0.197v0l1.491 1.494c0.124 0.121 0.201 0.291 0.201 0.477 0 0.095-0.020 0.184-0.055 0.266l0.002-0.004c-0.007 0.030-0.018 0.057-0.033 0.081l0.001-0.001-1.19 2.154c0.166 0.31 0.324 0.677 0.452 1.058l0.015 0.052 2.349 0.672c0.029 0.007 0.055 0.018 0.078 0.033l-0.001-0.001c0.248 0.103 0.419 0.343 0.419 0.623 0 0.006-0 0.012-0 0.018l0-0.001v2.112c0 0.004 0 0.009 0 0.014 0 0.282-0.173 0.523-0.418 0.625l-0.005 0.002c-0.021 0.013-0.046 0.024-0.071 0.031l-0.002 0.001-2.349 0.64c-0.146 0.437-0.303 0.804-0.485 1.155l0.021-0.045 1.181 2.144c0.015 0.024 0.026 0.052 0.032 0.081l0 0.002c0.032 0.076 0.050 0.164 0.050 0.256 0 0.187-0.075 0.356-0.197 0.48l0-0-1.485 1.491c-0.122 0.122-0.291 0.198-0.478 0.198-0.096 0-0.187-0.020-0.269-0.056l0.004 0.002c-0.029-0.008-0.055-0.017-0.079-0.030l0.002 0.001-2.134-1.2c-0.287 0.152-0.632 0.302-0.988 0.428l-0.055 0.017-0.701 2.368c-0.008 0.030-0.020 0.057-0.036 0.081l0.001-0.001c-0.102 0.253-0.346 0.429-0.631 0.429-0.001 0-0.002 0-0.003 0h0zM9.050 30.099c0.008 0.016 0.016 0.035 0.022 0.055l0.001 0.002 2.202 0.016c0.014-0.041 0.033-0.076 0.058-0.106l-0.001 0.001 0.72-2.448c0.034-0.106 0.115-0.189 0.218-0.223l0.002-0.001c0.484-0.154 0.9-0.335 1.293-0.553l-0.036 0.018c0.046-0.025 0.101-0.040 0.16-0.040s0.114 0.015 0.162 0.041l-0.002-0.001 2.24 1.245 0.054 0.026 1.514-1.491c-0.014-0.025-0.026-0.053-0.035-0.084l-0.001-0.003-1.238-2.24c-0.027-0.046-0.043-0.101-0.043-0.16s0.016-0.114 0.044-0.162l-0.001 0.002c0.21-0.377 0.398-0.816 0.54-1.275l0.013-0.050c0.035-0.109 0.12-0.192 0.228-0.223l0.002-0.001 2.461-0.685c0.017-0.010 0.036-0.017 0.056-0.022l0.001-0v-2.125c-0.032-0.008-0.059-0.020-0.084-0.036l0.001 0.001-2.435-0.698c-0.11-0.032-0.196-0.115-0.23-0.222l-0.001-0.002c-0.155-0.509-0.343-0.947-0.572-1.361l0.018 0.036c-0.027-0.046-0.043-0.101-0.043-0.16s0.016-0.114 0.044-0.162l-0.001 0.002 1.245-2.24c0.007-0.023 0.016-0.044 0.026-0.063l-0.001 0.002-1.488-1.51c-0.025 0.014-0.054 0.025-0.084 0.032l-0.002 0-2.24 1.242c-0.046 0.025-0.101 0.040-0.16 0.040s-0.114-0.015-0.162-0.041l0.002 0.001c-0.378-0.212-0.818-0.401-1.279-0.544l-0.049-0.013c-0.11-0.031-0.194-0.117-0.223-0.225l-0.001-0.002-0.694-2.49c-0.008-0.016-0.015-0.035-0.022-0.055l-0.001-0.003h-2.122c-0.010 0.033-0.023 0.062-0.039 0.088l0.001-0.002-0.698 2.445c-0.033 0.11-0.118 0.196-0.225 0.23l-0.002 0.001c-0.486 0.148-0.903 0.324-1.298 0.537l0.037-0.018c-0.046 0.027-0.101 0.043-0.16 0.043s-0.114-0.016-0.162-0.044l0.002 0.001-2.282-1.242-0.054-0.026-1.565 1.542c0.018 0.033 0.031 0.072 0.035 0.114l0 0.001 1.226 2.24c0.027 0.046 0.043 0.101 0.043 0.16s-0.016 0.114-0.044 0.162l0.001-0.002c-0.182 0.336-0.349 0.729-0.479 1.138l-0.013 0.049c-0.034 0.106-0.117 0.188-0.222 0.22l-0.002 0.001-2.486 0.739-0.058 0.026-0.016 2.214c0.041 0.011 0.076 0.030 0.106 0.055l-0-0 2.454 0.723c0.106 0.034 0.189 0.115 0.223 0.218l0.001 0.002c0.143 0.458 0.311 0.851 0.514 1.223l-0.018-0.035c0.026 0.046 0.041 0.101 0.041 0.16s-0.015 0.114-0.041 0.162l0.001-0.002-1.245 2.266c-0.006 0.021-0.014 0.039-0.023 0.056l0.001-0.001 1.542 1.574c0.034-0.018 0.074-0.031 0.117-0.035l0.001-0 2.24-1.226c0.046-0.025 0.101-0.040 0.16-0.040s0.114 0.015 0.162 0.041l-0.002-0.001c0.338 0.185 0.733 0.354 1.145 0.486l0.049 0.014c0.106 0.035 0.187 0.118 0.22 0.222l0.001 0.002zM10.186 25.040c-0.001 0-0.002 0-0.003 0-2.421 0-4.384-1.963-4.384-4.384s1.963-4.384 4.384-4.384c2.421 0 4.384 1.963 4.384 4.384v0c-0.002 2.419-1.962 4.38-4.38 4.384h-0zM10.186 16.941c-2.052 0-3.715 1.663-3.715 3.715s1.663 3.715 3.715 3.715c2.052 0 3.715-1.663 3.715-3.715v0c-0.002-2.051-1.664-3.713-3.715-3.715h-0zM27.171 21.149c-0.15-0.001-0.287-0.061-0.387-0.157l0 0c-0.022-0.016-0.041-0.035-0.057-0.057l-0-0.001-0.925-1.184c-0.084 0.005-0.181 0.008-0.28 0.008s-0.196-0.003-0.293-0.009l0.013 0.001-0.96 1.158c-0.016 0.020-0.034 0.036-0.054 0.051l-0.001 0.001c-0.099 0.092-0.232 0.149-0.379 0.149-0.081 0-0.157-0.017-0.226-0.048l0.004 0.001-1.28-0.55c-0.201-0.083-0.339-0.277-0.339-0.504 0-0.001 0-0.001 0-0.002v0c-0.001-0.012-0.002-0.025-0.002-0.038s0.001-0.027 0.002-0.040l-0 0.002 0.182-1.501c-0.137-0.125-0.263-0.253-0.383-0.388l-0.005-0.005-1.504 0.134c-0.012 0.001-0.025 0.002-0.038 0.002s-0.027-0.001-0.040-0.002l0.002 0c-0.224-0.009-0.414-0.151-0.491-0.348l-0.001-0.004-0.509-1.28c-0.025-0.061-0.040-0.133-0.040-0.207 0-0.151 0.061-0.288 0.159-0.388l-0 0c0.016-0.021 0.034-0.039 0.054-0.054l0.001-0.001 1.187-0.928c-0.005-0.083-0.007-0.18-0.007-0.278s0.003-0.195 0.008-0.292l-0.001 0.014-1.158-0.96c-0.021-0.016-0.039-0.034-0.054-0.054l-0-0.001c-0.091-0.099-0.146-0.232-0.146-0.377 0-0.081 0.017-0.158 0.048-0.228l-0.001 0.004 0.547-1.28c0.090-0.191 0.281-0.32 0.502-0.32 0.002 0 0.005 0 0.007 0h0.073l1.501 0.182c0.136-0.151 0.278-0.289 0.429-0.417l0.006-0.005-0.147-1.475c-0.001-0.012-0.002-0.025-0.002-0.038s0.001-0.027 0.002-0.040l-0 0.002c0.006-0.225 0.147-0.416 0.345-0.495l0.004-0.001 1.245-0.493c0.060-0.024 0.129-0.038 0.202-0.038 0.152 0 0.29 0.061 0.39 0.16l-0-0c0.020 0.017 0.038 0.036 0.054 0.057l0.001 0.001 0.902 1.174c0.096-0.007 0.207-0.010 0.32-0.010s0.224 0.004 0.335 0.011l-0.015-0.001 0.96-1.149c0.016-0.021 0.034-0.039 0.054-0.054l0.001-0.001c0.098-0.094 0.23-0.151 0.377-0.151 0.079 0 0.154 0.017 0.222 0.047l-0.003-0.001 1.245 0.509c0.191 0.091 0.32 0.282 0.32 0.504 0 0.001 0 0.001 0 0.002v-0c0.002 0.012 0.003 0.026 0.003 0.040s-0.001 0.028-0.003 0.042l0-0.002-0.195 1.475c0.164 0.146 0.313 0.299 0.452 0.461l0.005 0.006 1.478-0.147h0.077c0.225 0.007 0.415 0.148 0.495 0.345l0.001 0.004 0.493 1.245c0.025 0.060 0.040 0.131 0.040 0.204 0 0.153-0.063 0.292-0.164 0.391l-0 0-0.054 0.051-1.178 0.906c0.007 0.096 0.010 0.207 0.010 0.32s-0.004 0.224-0.011 0.335l0.001-0.015 1.152 0.941c0.020 0.016 0.036 0.034 0.051 0.054l0.001 0.001c0.094 0.098 0.152 0.231 0.152 0.378 0 0.080-0.017 0.156-0.048 0.224l0.001-0.003-0.541 1.242c-0.089 0.19-0.279 0.32-0.5 0.32-0.002 0-0.004 0-0.006-0h-0.076l-1.472-0.192c-0.136 0.154-0.277 0.294-0.427 0.424l-0.005 0.005 0.134 1.498c0.002 0.012 0.003 0.026 0.003 0.040s-0.001 0.028-0.003 0.042l0-0.002c-0.013 0.224-0.154 0.412-0.351 0.491l-0.004 0.001-1.28 0.509c-0.059 0.028-0.128 0.047-0.2 0.051l-0.002 0zM25.955 19.072c0.106 0 0.201 0.050 0.262 0.127l0.001 0.001 0.982 1.261 1.142-0.454-0.144-1.6c-0.001-0.009-0.001-0.020-0.001-0.031 0-0.104 0.048-0.198 0.122-0.259l0.001-0c0.222-0.18 0.419-0.374 0.596-0.585l0.005-0.007c0.059-0.074 0.15-0.122 0.251-0.122 0.016 0 0.032 0.001 0.048 0.004l-0.002-0 1.568 0.205 0.464-1.075-1.222-1.005c-0.076-0.059-0.124-0.15-0.124-0.253 0-0.015 0.001-0.029 0.003-0.043l-0 0.002c0.020-0.163 0.032-0.351 0.032-0.542 0-0.121-0.005-0.241-0.014-0.36l0.001 0.016c-0.001-0.009-0.001-0.019-0.001-0.030 0-0.107 0.050-0.203 0.129-0.264l0.001-0.001 1.251-0.96-0.432-1.088-1.568 0.154c-0.008 0.001-0.018 0.001-0.028 0.001-0.107 0-0.203-0.049-0.266-0.125l-0-0.001c-0.187-0.238-0.389-0.447-0.611-0.635l-0.006-0.005c-0.075-0.059-0.122-0.15-0.122-0.252 0-0.017 0.001-0.034 0.004-0.051l-0 0.002 0.205-1.555-1.075-0.464-1.002 1.226c-0.059 0.074-0.15 0.122-0.251 0.122-0.016 0-0.032-0.001-0.048-0.004l0.002 0c-0.156-0.020-0.337-0.031-0.521-0.031-0.129 0-0.256 0.006-0.382 0.017l0.016-0.001c-0.007 0.001-0.016 0.001-0.024 0.001-0.109 0-0.207-0.051-0.27-0.131l-0.001-0.001-0.96-1.251-1.091 0.432 0.166 1.571c0.001 0.010 0.002 0.021 0.002 0.032 0 0.106-0.049 0.2-0.126 0.262l-0.001 0.001c-0.224 0.178-0.422 0.37-0.6 0.58l-0.005 0.006c-0.062 0.070-0.153 0.114-0.254 0.114-0.014 0-0.028-0.001-0.042-0.003l0.002 0-1.6-0.192-0.486 1.13 1.232 1.027c0.074 0.059 0.121 0.149 0.121 0.251 0 0.014-0.001 0.028-0.003 0.042l0-0.002c-0.011 0.119-0.018 0.257-0.018 0.397s0.006 0.278 0.019 0.414l-0.001-0.017c0.001 0.009 0.002 0.020 0.002 0.031 0 0.105-0.051 0.198-0.129 0.257l-0.001 0.001-1.28 0.989 0.454 1.142 1.6-0.144c0.009-0.001 0.020-0.001 0.031-0.001 0.104 0 0.198 0.048 0.259 0.122l0 0.001c0.17 0.209 0.352 0.395 0.548 0.565l0.006 0.005c0.072 0.059 0.118 0.148 0.118 0.248 0 0.015-0.001 0.030-0.003 0.045l0-0.002-0.195 1.6 1.13 0.49 1.027-1.232c0.059-0.072 0.148-0.118 0.248-0.118 0.015 0 0.030 0.001 0.045 0.003l-0.002-0c0.119 0.011 0.258 0.018 0.398 0.018s0.279-0.006 0.416-0.019l-0.018 0.001zM25.6 17.635c-0.003 0-0.006 0-0.010 0-1.601 0-2.899-1.298-2.899-2.899 0-1.219 0.752-2.262 1.818-2.691l0.020-0.007c0.317-0.129 0.684-0.204 1.068-0.204 1.218 0 2.26 0.75 2.691 1.813l0.007 0.019c0.128 0.316 0.203 0.683 0.203 1.067 0 1.218-0.749 2.261-1.812 2.693l-0.019 0.007c-0.315 0.128-0.68 0.202-1.062 0.202-0.001 0-0.002 0-0.004 0h0zM25.6 12.515c-0.002 0-0.004 0-0.006 0-1.237 0-2.24 1.003-2.24 2.24s1.003 2.24 2.24 2.24c1.237 0 2.24-1.003 2.24-2.24 0-0.914-0.548-1.701-1.333-2.049l-0.014-0.006c-0.26-0.121-0.564-0.195-0.884-0.202l-0.002-0z"></path>
</svg>
