<!-- Generated by IcoMoon.io -->
<svg version="1.1" xmlns="http://www.w3.org/2000/svg" width="32" height="32" viewBox="0 0 32 32">
<title>globe</title>
<path d="M21.534 1.986c-1.371-0.557-2.815-0.839-4.294-0.839-6.308 0-11.439 5.131-11.439 11.439s5.131 11.439 11.439 11.439c6.307 0 11.439-5.131 11.439-11.439 0-4.565-2.704-8.679-6.894-10.497l-0.252-0.103zM23.458 20.947l-0.079 0.004c-0.001 0-0.076-0.006-0.277-0.093-0.232-0.099-0.607-0.317-1.078-0.785l-0.044-0.032c-0.719-0.648-0.978-1.334-0.711-1.886 0.289-0.597 1.197-0.956 2.429-0.96l-0.001-0.171 0.011 0.17c1.167 0.072 2.122 0.25 2.616 0.485-0.717 1.277-1.703 2.4-2.865 3.267zM23.696 17.025v0 0 0 0zM23.717 16.171c-1.673 0-2.903 0.56-3.376 1.537-0.44 0.909-0.118 2.031 0.839 2.961l-0.006 0.007 0.161 0.155 0.007 0.002c0.41 0.401 0.764 0.653 1.040 0.812-1.565 0.888-3.335 1.356-5.141 1.356-5.743 0-10.415-4.672-10.415-10.415 0-3.708 1.953-7.1 5.13-8.97-0.232 0.615-0.349 1.332-0.349 2.141 0 1.007 0.592 1.675 1.025 2.162l0.068 0.077c0.45 0.505 0.838 0.941 0.97 1.614 0.116 0.592 0.107 1.164 0.098 1.769-0.003 0.204-0.006 0.41-0.005 0.621 0.006 0.856 0.086 1.796 0.627 2.861 0.254 0.501 0.514 0.859 0.818 1.128 0.385 0.341 0.852 0.522 1.351 0.523 0.555 0 1.058-0.184 1.457-0.533 0.328-0.287 0.587-0.682 0.794-1.208 0.264-0.675 0.4-1.446 0.52-2.127 0.039-0.223 0.077-0.439 0.118-0.644 0.059-0.295 0.64-0.804 0.831-0.972l0.099-0.087c0.472-0.413 1.007-0.881 1.396-1.51l0.144-0.231c0.462-0.735 0.985-1.567 0.959-2.775l-0.003-0.229c-0.008-0.644-0.019-1.575-0.342-2.585 3.173 1.87 5.126 5.268 5.126 8.975 0 1.445-0.296 2.849-0.88 4.178-0.833-0.427-1.994-0.53-3.057-0.592zM21.046 8.672l-0.143 0.228c-0.294 0.476-0.769 0.893-1.229 1.296l-0.136 0.119c-0.473 0.414-0.963 0.843-1.090 1.479-0.044 0.219-0.085 0.447-0.126 0.677-0.122 0.68-0.249 1.384-0.463 1.93-0.14 0.358-0.315 0.63-0.519 0.809-0.223 0.195-0.456 0.278-0.78 0.278-0.001 0-0.003 0-0.004 0-0.263 0-0.465-0.080-0.677-0.266-0.187-0.166-0.368-0.428-0.569-0.825-0.429-0.845-0.52-1.57-0.526-2.399-0.001-0.181 0.001-0.364 0.004-0.55 0.009-0.644 0.019-1.311-0.124-2.043-0.188-0.96-0.751-1.592-1.203-2.1l-0.064-0.072c-0.476-0.536-0.768-0.895-0.768-1.476 0-1.432 0.355-2.358 1.151-2.997 2.346-0.825 4.957-0.783 7.312 0.157 0.72 1.204 0.739 2.421 0.753 3.313l0.004 0.214c0.021 0.913-0.343 1.493-0.803 2.229zM22.889 24.621c-0.13-0.050-0.273-0.048-0.392 0.005-1.679 0.734-3.447 1.106-5.256 1.106-7.249 0-13.146-5.898-13.146-13.146 0-4.58 2.323-8.758 6.207-11.172 0.204-0.112 0.309-0.365 0.241-0.602-0.056-0.148-0.146-0.251-0.268-0.306-0.134-0.061-0.3-0.057-0.479 0.012l-0.029 0.015c-4.193 2.606-6.697 7.112-6.697 12.054 0 7.567 6.112 13.882 13.659 14.155v1.382h-3.589c-0.228 0.005-0.391 0.123-0.491 0.369l-0.683 2.389c-0.043 0.147-0.009 0.314 0.091 0.447s0.255 0.21 0.404 0.21h9.558c0.003 0 0.005 0 0.008 0 0.151 0 0.298-0.077 0.397-0.206 0.102-0.133 0.137-0.302 0.093-0.449l-0.683-2.391c-0.063-0.216-0.281-0.377-0.495-0.368h-3.585v-1.382c1.791-0.064 3.525-0.458 5.158-1.172 0.121-0.052 0.219-0.157 0.27-0.286s0.050-0.273-0.003-0.393c-0.053-0.12-0.158-0.218-0.288-0.269zM13.134 30.513l0.393-1.366h7.426l0.393 1.366h-8.211z"></path>
</svg>
