<!-- Generated by IcoMoon.io -->
<svg version="1.1" xmlns="http://www.w3.org/2000/svg" width="32" height="32" viewBox="0 0 32 32">
<title>governance</title>
<path d="M19.215 19.654h-10.937c-0.212 0-0.385-0.172-0.385-0.385s0.172-0.385 0.385-0.385h10.937c0.212 0 0.385 0.172 0.385 0.385s-0.172 0.385-0.385 0.385zM4.585 26.972c-0.567 0-1.027-0.461-1.027-1.027v-23.605c0-0.566 0.461-1.027 1.027-1.027h18.322c0.567 0 1.027 0.461 1.027 1.027v16.827c0.21 0.018 0.417 0.045 0.621 0.082v-16.909c0-0.909-0.739-1.648-1.648-1.648h-18.322c-0.909 0-1.648 0.739-1.648 1.648v23.605c0 0.909 0.739 1.648 1.648 1.648h12.286c-0.054-0.203-0.099-0.41-0.134-0.621h-12.152zM7.893 22.257c0 0.212 0.172 0.385 0.385 0.385h9.183c0.146-0.268 0.311-0.525 0.491-0.769h-9.675c-0.213 0-0.385 0.172-0.385 0.384zM14.021 3.739c-3.502 0-6.341 2.839-6.341 6.341s2.839 6.341 6.341 6.341 6.341-2.839 6.341-6.341-2.839-6.341-6.341-6.341zM18.010 14.144c-0.936-0.759-1.954-1.101-2.193-1.172-0.725-0.608-0.432-1.286 0.098-2.244 0.080-0.145 0.158-0.287 0.227-0.424 0.393-0.786 0.324-1.283 0.265-1.483 0.153-0.565 0.289-2.134-0.503-2.988-0.471-0.509-1.162-0.657-2.056-0.44-0.943 0.006-1.628 0.297-2.039 0.867-0.708 0.982-0.336 2.453-0.233 2.798-0.199 0.708 0.207 1.198 0.292 1.291 0.097 0.134 1.176 1.682 0.272 2.64l-0.309 0.137c-0.801 0.354-1.389 0.617-1.877 0.94-1.007-1.027-1.629-2.433-1.629-3.985 0-3.146 2.551-5.697 5.697-5.697s5.697 2.551 5.697 5.697c0.001 1.592-0.654 3.030-1.708 4.064zM23.358 31.309c-3.007 0-5.453-2.447-5.453-5.453s2.446-5.453 5.453-5.453 5.453 2.447 5.453 5.453-2.447 5.453-5.453 5.453zM23.358 21.059c-2.645 0-4.796 2.152-4.796 4.796s2.152 4.796 4.796 4.796c2.645 0 4.796-2.152 4.796-4.796s-2.152-4.796-4.796-4.796zM26.862 25.398l0.001-0.002-0.913-0.261c-0.053-0.176-0.124-0.343-0.21-0.502l0.463-0.832-0.002-0.001c0.027-0.048 0.022-0.11-0.019-0.151l-0.54-0.54c-0.041-0.041-0.103-0.046-0.151-0.019l-0.001-0.002-0.831 0.462c-0.159-0.086-0.327-0.158-0.503-0.21l-0.261-0.912-0.002 0.001c-0.015-0.053-0.062-0.093-0.12-0.093h-0.764c-0.058 0-0.105 0.040-0.12 0.093l-0.002-0.001-0.26 0.912c-0.167 0.050-0.327 0.117-0.478 0.197l-0.845-0.46-0.001 0.002c-0.049-0.026-0.111-0.020-0.154 0.022l-0.558 0.558c-0.043 0.043-0.049 0.105-0.022 0.154l-0.002 0.001 0.46 0.846c-0.075 0.143-0.14 0.293-0.189 0.45l-0.921 0.272 0.001 0.002c-0.053 0.016-0.093 0.064-0.093 0.124v0.789c0 0.060 0.040 0.109 0.093 0.124l-0.001 0.002 0.921 0.272c0.049 0.157 0.113 0.307 0.189 0.45l-0.46 0.845 0.002 0.001c-0.026 0.049-0.020 0.111 0.022 0.154l0.558 0.558c0.043 0.043 0.105 0.049 0.154 0.022l0.001 0.002 0.844-0.459c0.144 0.076 0.295 0.141 0.452 0.19l0.271 0.919 0.002-0.001c0.016 0.053 0.064 0.093 0.124 0.093h0.789c0.060 0 0.109-0.040 0.124-0.093l0.002 0.001 0.271-0.919c0.167-0.052 0.326-0.121 0.477-0.203l0.831 0.462 0.001-0.002c0.048 0.027 0.11 0.022 0.151-0.019l0.54-0.541c0.041-0.041 0.046-0.103 0.019-0.151l0.002-0.001-0.462-0.832c0.086-0.159 0.157-0.326 0.21-0.502l0.913-0.261-0.001-0.002c0.053-0.015 0.093-0.062 0.093-0.12v-0.764c-0-0.059-0.040-0.106-0.093-0.122zM24.321 26.834c-1.363 1.038-2.904-0.502-1.866-1.866 1.364-1.040 2.906 0.502 1.866 1.866z"></path>
</svg>
