<!-- Generated by IcoMoon.io -->
<svg version="1.1" xmlns="http://www.w3.org/2000/svg" width="32" height="32" viewBox="0 0 32 32">
<title>healthcare-plan</title>
<path d="M15.874 3.976c-0.569 0-1.031-0.463-1.031-1.031s0.463-1.031 1.031-1.031c0.568 0 1.031 0.463 1.031 1.031s-0.462 1.031-1.031 1.031zM15.874 2.513c-0.238 0-0.432 0.194-0.432 0.432s0.194 0.432 0.432 0.432 0.432-0.194 0.432-0.432-0.194-0.432-0.432-0.432zM26.058 4.342h-3.063c-0.132-0.809-0.831-1.43-1.676-1.43h-2.628c-0.018-1.539-1.274-2.786-2.817-2.786s-2.8 1.247-2.818 2.786h-2.573c-0.857 0-1.571 0.617-1.725 1.43h-3.069c-0.764 0-1.387 0.622-1.387 1.387v24.758c0 0.765 0.622 1.387 1.387 1.387h20.369c0.765 0 1.387-0.622 1.387-1.387v-24.758c0.001-0.765-0.622-1.387-1.387-1.387zM9.323 4.94v-0.27c0-0.115 0.022-0.224 0.053-0.329 0.143-0.479 0.582-0.831 1.107-0.831h3.246c-0.048-0.181-0.076-0.37-0.076-0.565 0-0.011 0.002-0.022 0.002-0.033 0.018-1.209 1.006-2.187 2.219-2.187s2.201 0.978 2.219 2.187c0 0.011 0.002 0.022 0.002 0.033 0 0.196-0.028 0.384-0.076 0.565h3.3c0.514 0 0.944 0.355 1.067 0.831 0.023 0.088 0.039 0.179 0.039 0.274v1.621h-13.101v-1.297zM23.023 6.835v-0.399h2.128v23.181h-18.554v-23.18h2.128v0.399h14.298zM26.847 30.487c0 0.435-0.354 0.789-0.789 0.789h-20.369c-0.435 0-0.788-0.354-0.788-0.789v-24.758c0-0.435 0.354-0.789 0.788-0.789h3.035v0.898h-2.726v24.378h19.751v-24.378h-2.727v-0.898h3.035c0.435 0 0.789 0.354 0.789 0.789v24.758zM20.463 15.883h-2.563v-3.162h-4.050v3.162h-3.162v4.050h3.162v3.162h4.050v-3.162h3.162v-4.050h-0.598zM20.463 19.335h-3.162v3.162h-2.854v-3.162h-3.162v-2.854h3.162v-3.162h2.854v3.162h3.162v2.854z"></path>
</svg>
