<!-- Generated by IcoMoon.io -->
<svg version="1.1" xmlns="http://www.w3.org/2000/svg" width="32" height="32" viewBox="0 0 32 32">
<title>healthcare-doctor</title>
<path d="M25.264 11.611c-1.441 0-2.62 1.179-2.62 2.62s1.179 2.62 2.62 2.62 2.62-1.179 2.62-2.62-1.179-2.62-2.62-2.62zM25.264 15.978c-0.961 0-1.747-0.786-1.747-1.747s0.786-1.747 1.747-1.747 1.747 0.786 1.747 1.747-0.786 1.747-1.747 1.747zM29.632 14.231c0-2.402-1.965-4.368-4.368-4.368s-4.368 1.965-4.368 4.368c0 2.271 1.747 4.105 3.931 4.324v5.285c0 3.843-3.145 6.988-6.988 6.988s-6.988-3.145-6.988-6.988v-5.241c2.184-0.218 4.368-1.878 6.158-4.804 0.087-0.175 0.087-0.393-0.044-0.524l-0.35-0.35c1.31-2.271 2.096-4.979 2.096-7.119 0-3.756-2.533-4.498-5.328-4.629-0.175-0.524-0.655-0.873-1.223-0.873-0.743 0-1.31 0.568-1.31 1.31s0.568 1.31 1.31 1.31c0.568 0 1.048-0.35 1.223-0.873 2.839 0.175 4.455 0.873 4.455 3.756 0 1.922-0.699 4.411-1.834 6.507l-0.437-0.437c-0.087-0.087-0.218-0.131-0.35-0.131s-0.262 0.087-0.306 0.218c-1.31 2.271-2.926 3.581-4.498 3.581s-3.188-1.31-4.455-3.581c-0.087-0.131-0.175-0.218-0.306-0.218s-0.262 0.044-0.35 0.131l-0.437 0.437c-1.179-2.14-1.878-4.586-1.878-6.507 0-2.882 1.616-3.581 4.455-3.756 0.175 0.48 0.655 0.873 1.223 0.873 0.743 0 1.31-0.568 1.31-1.31s-0.568-1.31-1.31-1.31c-0.568 0-1.048 0.393-1.223 0.873-2.794 0.131-5.328 0.873-5.328 4.629 0 2.184 0.786 4.848 2.096 7.119l-0.306 0.306c-0.131 0.131-0.175 0.35-0.044 0.524 1.747 2.926 3.931 4.629 6.114 4.848v5.241c0 4.324 3.538 7.861 7.861 7.861s7.862-3.538 7.862-7.861v-5.285c2.184-0.218 3.931-2.052 3.931-4.324zM12.162 2.002c-0.262 0-0.437-0.175-0.437-0.437s0.175-0.437 0.437-0.437c0.262 0 0.437 0.175 0.437 0.437s-0.175 0.437-0.437 0.437zM8.668 1.129c0.262 0 0.437 0.175 0.437 0.437s-0.175 0.437-0.437 0.437c-0.262 0-0.437-0.175-0.437-0.437s0.175-0.437 0.437-0.437zM4.781 13.62l0.699-0.699c1.398 2.227 3.188 3.494 4.935 3.494s3.538-1.266 4.935-3.538l0.699 0.699c-1.66 2.62-3.712 4.105-5.634 4.105s-3.975-1.441-5.634-4.061zM25.264 17.725c-1.922 0-3.494-1.572-3.494-3.494s1.572-3.494 3.494-3.494 3.494 1.572 3.494 3.494-1.572 3.494-3.494 3.494z"></path>
</svg>
