<!-- Generated by IcoMoon.io -->
<svg version="1.1" xmlns="http://www.w3.org/2000/svg" width="32" height="32" viewBox="0 0 32 32">
<title>holiday</title>
<path d="M11.080 24.949h3.303v2.77c0 0.235 0.191 0.426 0.426 0.426h2.131c0.235 0 0.426-0.191 0.426-0.426v-2.77h3.303c0.151 0 0.29-0.079 0.366-0.209s0.080-0.289 0.008-0.421l-2.852-5.23h1.413c0.15 0 0.289-0.079 0.366-0.208s0.081-0.289 0.009-0.421l-3.729-6.925c-0.149-0.276-0.602-0.276-0.751 0l-3.729 6.925c-0.071 0.132-0.067 0.292 0.009 0.421s0.216 0.208 0.366 0.208h1.413l-2.852 5.229c-0.072 0.132-0.069 0.292 0.008 0.421s0.216 0.209 0.366 0.209zM16.513 27.293h-1.279v-2.344h1.279v2.344zM15.874 12.637l3.015 5.6h-6.031l3.015-5.6zM14.529 19.089h2.69l2.731 5.008h-8.153l2.731-5.008zM30.257 3.322h-0.15c-0.204-1.207-1.25-2.131-2.514-2.131s-2.309 0.924-2.514 2.131h-0.832c-0.204-1.207-1.25-2.131-2.514-2.131s-2.309 0.924-2.514 2.131h-0.832c-0.204-1.207-1.25-2.131-2.514-2.131s-2.309 0.924-2.514 2.131h-0.832c-0.204-1.207-1.25-2.131-2.514-2.131s-2.309 0.924-2.514 2.131h-0.832c-0.204-1.207-1.25-2.131-2.514-2.131s-2.309 0.924-2.514 2.131h-0.149c-0.823 0-1.492 0.669-1.492 1.492v24.504c0 0.823 0.669 1.492 1.492 1.492h28.765c0.823 0 1.492-0.669 1.492-1.492v-24.504c0-0.823-0.669-1.492-1.492-1.492zM27.593 2.043c0.792 0 1.454 0.545 1.644 1.279h-3.288c0.191-0.733 0.852-1.279 1.644-1.279zM21.734 2.043c0.792 0 1.454 0.545 1.644 1.279h-3.288c0.191-0.733 0.852-1.279 1.644-1.279zM15.874 2.043c0.792 0 1.454 0.545 1.644 1.279h-3.288c0.191-0.733 0.852-1.279 1.644-1.279zM10.015 2.043c0.792 0 1.454 0.545 1.644 1.279h-3.288c0.191-0.733 0.852-1.279 1.644-1.279zM4.155 2.043c0.792 0 1.454 0.545 1.644 1.279h-3.288c0.191-0.733 0.852-1.279 1.644-1.279zM0.852 4.814c0-0.352 0.287-0.639 0.639-0.639h4.308c-0.191 0.733-0.852 1.279-1.644 1.279-0.235 0-0.426 0.191-0.426 0.426s0.191 0.426 0.426 0.426c1.264 0 2.309-0.924 2.514-2.131h4.99c-0.191 0.733-0.852 1.279-1.644 1.279-0.235 0-0.426 0.191-0.426 0.426s0.191 0.426 0.426 0.426c1.264 0 2.309-0.924 2.514-2.131h4.99c-0.191 0.733-0.852 1.279-1.644 1.279-0.235 0-0.426 0.191-0.426 0.426s0.191 0.426 0.426 0.426c1.264 0 2.309-0.924 2.514-2.131h4.99c-0.191 0.733-0.852 1.279-1.644 1.279-0.235 0-0.426 0.191-0.426 0.426s0.191 0.426 0.426 0.426c1.264 0 2.309-0.924 2.514-2.131h4.99c-0.191 0.733-0.852 1.279-1.644 1.279-0.235 0-0.426 0.191-0.426 0.426s0.191 0.426 0.426 0.426c1.264 0 2.309-0.924 2.514-2.131h0.15c0.353 0 0.639 0.287 0.639 0.639v3.835h-30.045v-3.837zM30.896 29.317c0 0.353-0.287 0.639-0.639 0.639h-28.765c-0.352 0-0.639-0.287-0.639-0.639v-19.816h30.044v19.816zM7.782 19.622h0.736c0.473 0 0.857-0.385 0.857-0.858v-0.735c0-0.473-0.385-0.858-0.857-0.858h-0.736c-0.473 0-0.857 0.385-0.857 0.858v0.735c0 0.473 0.384 0.858 0.857 0.858zM7.782 18.024l0.741 0.005v0.735c0 0.003-0.003 0.005-0.005 0.005l-0.74-0.005 0.005-0.74zM4.054 14.295h0.736c0.473 0 0.857-0.385 0.857-0.857v-0.735c0-0.473-0.385-0.857-0.857-0.857h-0.736c-0.473 0-0.857 0.385-0.857 0.857v0.735c0 0.473 0.384 0.857 0.857 0.857zM4.054 12.697l0.741 0.005v0.735c0 0.004-0.003 0.005-0.005 0.005l-0.74-0.005 0.005-0.74zM21.632 15.361h0.736c0.473 0 0.857-0.385 0.857-0.857v-0.735c0-0.473-0.384-0.857-0.857-0.857h-0.736c-0.473 0-0.857 0.385-0.857 0.857v0.735c-0 0.473 0.384 0.857 0.857 0.857zM21.632 13.762l0.741 0.005v0.735c0 0.004-0.003 0.005-0.005 0.005l-0.741-0.005 0.005-0.74zM25.894 20.688h0.736c0.473 0 0.857-0.384 0.857-0.858v-0.735c0-0.473-0.384-0.858-0.857-0.858h-0.736c-0.473 0-0.857 0.385-0.857 0.858v0.735c0 0.473 0.384 0.858 0.857 0.858zM25.894 19.089l0.741 0.005v0.735c0 0.004-0.003 0.005-0.005 0.005l-0.741-0.005 0.005-0.74zM22.906 25.487v0.736c0 0.473 0.384 0.857 0.857 0.857h0.736c0.473 0 0.857-0.384 0.857-0.857v-0.736c0-0.473-0.384-0.857-0.857-0.857h-0.736c-0.473-0-0.857 0.384-0.857 0.857zM23.763 25.482l0.741 0.005v0.736c0 0.003-0.002 0.005-0.005 0.005l-0.741-0.005 0.005-0.741zM4.795 25.487v0.736c0 0.473 0.384 0.857 0.857 0.857h0.736c0.473 0 0.857-0.384 0.857-0.857v-0.736c0-0.473-0.385-0.857-0.857-0.857h-0.736c-0.472-0-0.857 0.384-0.857 0.857zM5.652 25.482l0.741 0.005v0.736c0 0.003-0.003 0.005-0.005 0.005l-0.74-0.005 0.005-0.741z"></path>
</svg>
