<!-- Generated by IcoMoon.io -->
<svg version="1.1" xmlns="http://www.w3.org/2000/svg" width="32" height="32" viewBox="0 0 32 32">
<title>honey-pot</title>
<path d="M4.624 17.501h0.374v12.218c0.004 1.259 1.023 2.278 2.281 2.282h13.44c1.259-0.004 2.278-1.023 2.282-2.281v-12.218h0.374c0.621-0.002 1.123-0.505 1.123-1.126 0 0 0 0 0 0v0-2.749c0 0 0 0 0 0 0-0.621-0.503-1.125-1.123-1.126h-11.875v-8.499h16.499c0.276 0 0.499-0.224 0.499-0.499s-0.224-0.499-0.499-0.499v0h-16.499v-1.501c0-0.002 0-0.005 0-0.007 0-0.825-0.669-1.494-1.494-1.494-0.389 0-0.743 0.149-1.009 0.392l0.001-0.001c-0.263-0.233-0.612-0.376-0.993-0.376-0.685 0-1.262 0.458-1.442 1.085l-0.003 0.011c-0.166-0.069-0.358-0.108-0.56-0.108-0.828 0-1.499 0.67-1.501 1.497v0.503h-0.499c-0.276 0-0.499 0.224-0.499 0.499s0.224 0.499 0.499 0.499h0.499v0.499c0.002 0.828 0.673 1.499 1.501 1.501h0c0.202-0.003 0.394-0.042 0.571-0.113l-0.011 0.004c0.139 0.467 0.485 0.833 0.93 0.995l0.010 0.003v5.61h-2.88c-0.621 0.002-1.123 0.505-1.123 1.126 0 0 0 0 0 0v0 2.749c0 0.622 0.504 1.126 1.126 1.126v0zM22 29.718c0 0.707-0.573 1.28-1.28 1.28v0h-13.44c-0.707 0-1.28-0.573-1.28-1.28v0 0-12.218h1.501v0.499c0 1.105 0.895 2 2 2s2-0.895 2-2v-0.499h10.499zM8.998 6.611c0.265 0.239 0.615 0.386 1.001 0.39h0.001c0.18-0.002 0.351-0.036 0.509-0.096l-0.010 0.003v11.091c0.001 0.017 0.002 0.037 0.002 0.057 0 0.553-0.448 1.002-1.002 1.002s-1.002-0.448-1.002-1.002c0-0.020 0.001-0.040 0.002-0.059l-0 0.003v-11.091c0.193-0.071 0.358-0.172 0.501-0.299l-0.002 0.001zM23.376 13.501c0.069 0 0.125 0.056 0.125 0.125v0 2.749c0 0.069-0.056 0.125-0.125 0.125h-11.875v-2.998zM10 0.998c0 0 0 0 0 0 0.276 0 0.499 0.223 0.499 0.499 0 0.001 0 0.002 0 0.003v-0 4c0 0.276-0.223 0.499-0.499 0.499s-0.499-0.223-0.499-0.499v0-4c0-0.001 0-0.002 0-0.003 0-0.276 0.223-0.499 0.499-0.499 0 0 0 0 0 0v0zM7.501 1.501c0-0.276 0.223-0.499 0.499-0.499s0.499 0.224 0.499 0.499v0 4c0 0.276-0.223 0.499-0.499 0.499s-0.499-0.223-0.499-0.499v0zM6 4.998c-0.276 0-0.499-0.223-0.499-0.499v-2c0-0.276 0.223-0.499 0.499-0.499s0.499 0.224 0.499 0.499v0 2c0 0.276-0.223 0.499-0.499 0.499v0zM4.499 13.638c0-0.069 0.056-0.125 0.125-0.125v0h2.88v2.998h-2.88c-0.069 0-0.125-0.056-0.125-0.125v0z"></path>
</svg>
