<!-- Generated by IcoMoon.io -->
<svg version="1.1" xmlns="http://www.w3.org/2000/svg" width="32" height="32" viewBox="0 0 32 32">
<title>icons_private-cloud</title>
<path d="M30.549 20.544h-29.104c-0.004-0-0.009-0-0.015-0-0.584 0-1.058 0.468-1.068 1.049v9.084c0.010 0.582 0.484 1.050 1.068 1.050 0.005 0 0.010-0 0.015-0h29.11c0.004 0 0.009 0 0.015 0 0.584 0 1.058-0.468 1.068-1.049v-9.084c-0.010-0.582-0.484-1.050-1.068-1.050-0.007 0-0.015 0-0.022 0l0.001-0zM30.869 30.678c-0.003 0.172-0.143 0.31-0.316 0.31-0.002 0-0.003 0-0.005-0h-29.104c-0.001 0-0.003 0-0.004 0-0.172 0-0.312-0.138-0.315-0.31v-9.084c0.003-0.172 0.143-0.31 0.316-0.31 0.002 0 0.003 0 0.005 0h29.111c0.001-0 0.003-0 0.005-0 0.172 0 0.312 0.138 0.316 0.31v0zM24.787 7.983l-0.111-0.010 0.017-0.111c0.046-0.288 0.073-0.621 0.076-0.96v-0.002c0-3.634-2.907-6.591-6.479-6.591-2.742 0-5.197 1.771-6.111 4.408l-0.048 0.139-0.12-0.086c-0.544-0.397-1.226-0.636-1.963-0.637h-0c-1.682 0-3.134 1.278-3.38 2.97l-0.010 0.071-0.069 0.020c-2.17 0.638-3.727 2.612-3.727 4.949 0 0.006 0 0.013 0 0.019v-0.001c0 2.842 2.273 5.154 5.068 5.154h16.474c2.534 0 4.597-2.098 4.597-4.677 0-2.411-1.85-4.457-4.213-4.656zM24.403 16.579h-16.474c-2.397 0-4.347-1.982-4.347-4.418-0-0.013-0-0.028-0-0.044 0-2.207 1.632-4.033 3.756-4.337l0.023-0.003c-0.007-0.050-0.012-0.108-0.013-0.167l-0-0.001c-0-0.004-0-0.009-0-0.015 0-1.496 1.205-2.71 2.698-2.724h0.001c0.902 0 1.818 0.516 2.368 1.309 0.426-2.861 2.993-5.138 5.87-5.138 3.174 0 5.758 2.626 5.758 5.853-0.001 0.668-0.113 1.309-0.318 1.907l0.012-0.041c0.2-0.038 0.43-0.060 0.666-0.061h0.001c2.137 0 3.876 1.768 3.876 3.939s-1.739 3.94-3.876 3.94zM15.899 21.044h0.901v5.481h-0.901zM15.898 8.791h0.898v7.839h-0.898zM17.672 8.189c0 0.75-0.608 1.358-1.358 1.358s-1.358-0.608-1.358-1.358c0-0.75 0.608-1.358 1.358-1.358s1.358 0.608 1.358 1.358zM17.672 26.714c0 0.75-0.608 1.358-1.358 1.358s-1.358-0.608-1.358-1.358c0-0.75 0.608-1.358 1.358-1.358s1.358 0.608 1.358 1.358zM17.103 17.98h-0.539v1.914h0.539c0.572 0 0.958-0.386 0.958-0.949v-0.009c0.001-0.014 0.001-0.030 0.001-0.046 0-0.504-0.408-0.912-0.912-0.912-0.016 0-0.033 0-0.049 0.001l0.002-0zM16.344 15.111c-0 0-0.001 0-0.001 0-2.050 0-3.711 1.662-3.711 3.711s1.662 3.711 3.711 3.711c2.050 0 3.711-1.662 3.711-3.711v0c0-0 0-0.001 0-0.001 0-2.049-1.661-3.71-3.71-3.71v0zM15.071 20.528h-0.699v-3.179h0.699zM18.791 18.94c0 0.889-0.689 1.588-1.688 1.588h-1.238v-3.179h1.238c1 0 1.688 0.686 1.688 1.579z"></path>
</svg>
