<!-- Generated by IcoMoon.io -->
<svg version="1.1" xmlns="http://www.w3.org/2000/svg" width="32" height="32" viewBox="0 0 32 32">
<title>icons_cloud</title>
<path d="M30.546 20.544h-29.111c-0.004-0-0.009-0-0.015-0-0.584 0-1.058 0.468-1.068 1.049v9.084c0.010 0.582 0.484 1.050 1.068 1.050 0.005 0 0.010-0 0.015-0h29.11c0.004 0 0.009 0 0.015 0 0.584 0 1.058-0.468 1.068-1.049v-9.084c-0.010-0.582-0.484-1.050-1.068-1.050-0.005 0-0.010 0-0.015 0h0.001zM30.866 30.678c-0.003 0.172-0.143 0.31-0.316 0.31-0.002 0-0.003 0-0.005-0h-29.111c-0.001 0-0.003 0-0.004 0-0.172 0-0.312-0.138-0.315-0.31v-9.084c0.003-0.172 0.143-0.31 0.316-0.31 0.002 0 0.003 0 0.005 0h29.111c0.001-0 0.003-0 0.005-0 0.172 0 0.312 0.138 0.316 0.31v0zM24.784 7.983l-0.118-0.010 0.017-0.111c0.046-0.287 0.074-0.621 0.077-0.96v-0.003c0-3.634-2.907-6.591-6.48-6.591-2.742 0-5.197 1.771-6.111 4.408l-0.049 0.139-0.119-0.086c-0.543-0.396-1.222-0.634-1.957-0.637h-0.001c-1.681 0-3.134 1.278-3.377 2.97l-0.011 0.071-0.069 0.020c-2.17 0.638-3.727 2.612-3.727 4.949 0 0.006 0 0.013 0 0.019v-0.001c0 2.842 2.273 5.154 5.068 5.154h16.472c2.534 0 4.598-2.098 4.598-4.677 0.002-2.411-1.851-4.457-4.213-4.656zM24.4 16.579h-16.474c-2.397 0-4.347-1.982-4.347-4.418-0-0.013-0-0.028-0-0.044 0-2.207 1.632-4.033 3.756-4.337l0.023-0.003c-0.007-0.050-0.012-0.108-0.013-0.167l-0-0.001c-0-0.004-0-0.009-0-0.015 0-1.496 1.205-2.71 2.698-2.724h0.001c0.902 0 1.819 0.516 2.369 1.309 0.424-2.861 2.993-5.138 5.869-5.138 3.176 0 5.758 2.626 5.758 5.853-0.001 0.668-0.112 1.309-0.317 1.907l0.012-0.042c0.2-0.038 0.431-0.060 0.666-0.061h0.001c2.137 0 3.876 1.768 3.876 3.939s-1.74 3.94-3.877 3.94zM15.894 12.862h0.898v14.191h-0.898zM17.669 27.322c0 0.75-0.608 1.358-1.358 1.358s-1.358-0.608-1.358-1.358c0-0.75 0.608-1.358 1.358-1.358s1.358 0.608 1.358 1.358zM17.101 8.767h-0.54v1.914h0.54c0.571 0 0.957-0.387 0.957-0.949v-0.009c0.001-0.014 0.001-0.030 0.001-0.047 0-0.503-0.408-0.911-0.911-0.911-0.016 0-0.033 0-0.049 0.001l0.002-0zM16.342 5.894c-0 0-0.001 0-0.001 0-2.050 0-3.711 1.662-3.711 3.711s1.662 3.711 3.711 3.711c2.050 0 3.711-1.662 3.711-3.711 0-0 0-0.001 0-0.001v0c0-2.049-1.661-3.71-3.71-3.71v0zM15.068 11.311h-0.699v-3.176h0.699zM18.788 9.723c0 0.889-0.689 1.588-1.687 1.588h-1.239v-3.176h1.239c1 0 1.687 0.686 1.687 1.579z"></path>
</svg>
