<!-- Generated by IcoMoon.io -->
<svg version="1.1" xmlns="http://www.w3.org/2000/svg" width="32" height="32" viewBox="0 0 32 32">
<title>icons_software</title>
<path d="M30.506 20.544h-29.111c-0.004-0-0.009-0-0.015-0-0.584 0-1.058 0.468-1.068 1.049v9.084c0.010 0.582 0.484 1.050 1.068 1.050 0.005 0 0.010-0 0.015-0h29.11c0.004 0 0.009 0 0.015 0 0.584 0 1.058-0.468 1.068-1.049v-9.084c-0.010-0.582-0.484-1.050-1.068-1.050-0.005 0-0.010 0-0.015 0h0.001zM30.826 30.678c-0.003 0.172-0.143 0.31-0.316 0.31-0.002 0-0.003 0-0.005-0h-29.111c-0 0-0.001 0-0.001 0-0.172 0-0.312-0.138-0.315-0.31v-9.084c0.003-0.172 0.143-0.31 0.316-0.31 0.002 0 0.003 0 0.005 0h29.111c0.001-0 0.003-0 0.005-0 0.172 0 0.312 0.138 0.316 0.31v0zM24.743 7.983l-0.111-0.010 0.016-0.111c0.047-0.288 0.075-0.621 0.077-0.96v-0.002c0-3.634-2.907-6.591-6.479-6.591-2.742 0-5.197 1.771-6.111 4.408l-0.048 0.139-0.12-0.086c-0.545-0.398-1.228-0.637-1.967-0.637h-0c-1.682 0-3.134 1.278-3.38 2.97l-0.010 0.071-0.069 0.020c-2.17 0.638-3.728 2.612-3.728 4.95 0 0.006 0 0.012 0 0.018v-0.001c0 2.842 2.274 5.154 5.068 5.154h16.479c2.534 0 4.597-2.098 4.597-4.677 0-2.411-1.846-4.457-4.213-4.656zM24.36 16.579h-16.471c-2.396 0-4.346-1.982-4.346-4.418-0-0.013-0-0.029-0-0.044 0-2.206 1.63-4.031 3.751-4.336l0.024-0.003c-0.007-0.050-0.012-0.108-0.013-0.167l-0-0.001c-0-0.004-0-0.009-0-0.015 0-1.495 1.203-2.708 2.694-2.724h0.002c0.902 0 1.818 0.516 2.368 1.309 0.426-2.861 2.993-5.138 5.87-5.138 3.178 0 5.762 2.624 5.762 5.853-0.001 0.668-0.113 1.309-0.318 1.907l0.012-0.041c0.2-0.038 0.43-0.060 0.666-0.061h0.001c2.137 0 3.876 1.768 3.876 3.939s-1.74 3.94-3.877 3.94zM15.854 8.791h0.898v14.191h-0.898zM17.629 8.189c0 0.75-0.608 1.358-1.358 1.358s-1.358-0.608-1.358-1.358c0-0.75 0.608-1.358 1.358-1.358s1.358 0.608 1.358 1.358zM17.060 25.303h-0.539v1.919h0.539c0.572 0 0.958-0.386 0.958-0.948v-0.009c0.001-0.015 0.001-0.033 0.001-0.051 0-0.504-0.408-0.912-0.912-0.912-0.017 0-0.033 0-0.049 0.001l0.002-0zM16.301 22.432c-0 0-0.001 0-0.001 0-2.050 0-3.711 1.662-3.711 3.711s1.662 3.711 3.711 3.711c2.050 0 3.711-1.662 3.711-3.711 0-0 0-0.001 0-0.001v0c0-2.049-1.661-3.71-3.71-3.71v0zM15.028 27.849h-0.694v-3.176h0.699zM18.748 26.261c0 0.889-0.689 1.588-1.688 1.588h-1.238v-3.176h1.238c1 0 1.688 0.684 1.688 1.579z"></path>
</svg>
