<!-- Generated by IcoMoon.io -->
<svg version="1.1" xmlns="http://www.w3.org/2000/svg" width="32" height="32" viewBox="0 0 32 32">
<title>identities</title>
<path d="M31.738 26.881c-0.053-2.987-2.293-4.007-3.929-4.753-0.451-0.205-0.878-0.4-1.178-0.601-0.284-0.191-0.551-0.346-0.797-0.49-0.973-0.566-1.376-0.8-1.376-2.453 0-2.087 1.702-3.44 1.717-3.453l0.107-0.083 0.059-0.121c0.581-1.196 0.319-2.213 0.119-2.698 1.245-2.826-0.26-5.165-0.607-5.646-0.841-2.421-2.629-2.933-3.99-2.933-1.601 0-3.025 0.707-3.041 0.718-0.022 0.009-0.038 0.021-0.059 0.030 0.116 0.235 0.23 0.473 0.325 0.732 0.054 0.079 0.118 0.181 0.186 0.292 0.005-0.002 0.009-0.004 0.014-0.006 0.012-0.007 1.239-0.616 2.574-0.616 1.478 0 2.439 0.732 2.938 2.238l0.032 0.097 0.062 0.079c0.070 0.089 1.69 2.207 0.422 4.761l-0.137 0.287 0.16 0.269c0.019 0.033 0.452 0.785 0.023 1.783-0.454 0.391-2.050 1.933-2.050 4.269 0 2.317 0.903 2.841 1.947 3.448 0.226 0.132 0.472 0.275 0.735 0.451 0.378 0.253 0.846 0.467 1.34 0.692 1.37 0.624 2.906 1.325 3.207 3.141h-5.155c0.18 0.349 0.33 0.731 0.443 1.149h5.914l-0.010-0.584zM20.415 23.714c-0.531-0.241-1.033-0.468-1.391-0.706-0.331-0.221-0.64-0.399-0.925-0.564-1.138-0.657-1.657-0.958-1.657-2.933 0-2.473 2.027-4.071 2.046-4.085l0.106-0.082 0.059-0.12c0.679-1.39 0.347-2.561 0.121-3.089 1.477-3.274-0.311-5.983-0.69-6.501-0.961-2.766-3.012-3.351-4.571-3.351-1.848 0-3.491 0.811-3.517 0.825-1.71 0.684-2.877 1.776-3.466 3.245-0.952 2.372-0.089 4.977 0.224 5.777-0.767 1.853 0.118 3.119 0.157 3.174l0.119 0.122c0.020 0.015 2.042 1.578 2.042 4.082 0 2.426-1.33 2.87-3.014 3.431l-0.221 0.073c-1.895 0.623-5.837 1.919-5.837 6.134v0.567h24.956l-0.010-0.577c-0.061-3.401-2.644-4.571-4.53-5.424zM1.166 28.582c0.344-2.95 3.36-3.942 5.025-4.49l0.225-0.075c1.688-0.562 3.789-1.263 3.789-4.506 0-2.784-1.952-4.547-2.404-4.918-0.121-0.219-0.481-1.033 0.081-2.207l0.115-0.239-0.11-0.241c-0.012-0.028-1.245-2.79-0.307-5.129 0.471-1.17 1.424-2.050 2.878-2.633 0.014-0.008 1.479-0.726 3.053-0.726 1.774 0 2.928 0.871 3.527 2.665l0.032 0.096 0.063 0.079c0.020 0.025 2.023 2.587 0.503 5.629l-0.142 0.285 0.17 0.27c0.006 0.010 0.571 0.934 0.021 2.176-0.494 0.418-2.376 2.191-2.376 4.893 0 2.503 0.845 3.118 2.224 3.915 0.266 0.154 0.555 0.32 0.864 0.525 0.435 0.29 0.978 0.536 1.552 0.796 1.654 0.749 3.512 1.59 3.821 3.835h-22.603z"></path>
</svg>
