<!-- Generated by IcoMoon.io -->
<svg version="1.1" xmlns="http://www.w3.org/2000/svg" width="32" height="32" viewBox="0 0 32 32">
<title>identify-platform</title>
<path d="M15.979 32c-4.123 0-8.203-1.605-11.303-4.705-6.236-6.236-6.236-16.382 0-22.618s16.382-6.236 22.618 0c5.291 5.291 6.226 13.415 2.276 19.756l-0.269-0.168c3.872-6.216 2.955-14.179-2.231-19.365-6.113-6.112-16.058-6.112-22.17 0s-6.112 16.058 0 22.17c5.169 5.168 13.114 6.097 19.321 2.258l0.166 0.269c-2.609 1.614-5.519 2.402-8.408 2.402zM21.137 25.681h-13.684c-0.435 0-0.788-0.354-0.788-0.789v-17.406c0-0.435 0.354-0.788 0.788-0.788h17.406c0.435 0 0.789 0.354 0.789 0.788v13.684h-0.317v-13.684c0-0.26-0.212-0.472-0.472-0.472h-17.406c-0.26 0-0.472 0.212-0.472 0.472v17.406c0 0.26 0.212 0.472 0.472 0.472h13.684v0.317zM14.778 24.095h-5.796c-0.281 0-0.51-0.229-0.51-0.51v-5.795c0-0.282 0.229-0.51 0.51-0.51h5.796c0.281 0 0.51 0.229 0.51 0.51v5.795c0 0.281-0.229 0.51-0.51 0.51zM8.982 17.596c-0.107 0-0.193 0.087-0.193 0.194v5.795c0 0.107 0.087 0.193 0.193 0.193h5.796c0.107 0 0.193-0.087 0.193-0.193v-5.795c0-0.107-0.087-0.194-0.193-0.194h-5.796zM14.778 15.197h-5.796c-0.281 0-0.51-0.229-0.51-0.51v-5.796c0-0.281 0.229-0.51 0.51-0.51h5.796c0.281 0 0.51 0.229 0.51 0.51v5.796c0 0.281-0.229 0.51-0.51 0.51zM8.982 8.698c-0.107 0-0.193 0.087-0.193 0.193v5.796c0 0.107 0.087 0.193 0.193 0.193h5.796c0.107 0 0.193-0.087 0.193-0.193v-5.796c0-0.107-0.087-0.193-0.193-0.193h-5.796zM21.437 24.095h-0.158c-0.088 0-0.158-0.071-0.158-0.158s0.071-0.158 0.158-0.158h0.158c0.088 0 0.158 0.071 0.158 0.158s-0.071 0.158-0.158 0.158zM20.658 24.095h-0.31c-0.088 0-0.158-0.071-0.158-0.158s0.071-0.158 0.158-0.158h0.31c0.088 0 0.158 0.071 0.158 0.158s-0.071 0.158-0.158 0.158zM19.726 24.095h-0.31c-0.088 0-0.158-0.071-0.158-0.158s0.071-0.158 0.158-0.158h0.31c0.088 0 0.158 0.071 0.158 0.158s-0.071 0.158-0.158 0.158zM18.795 24.095h-0.31c-0.088 0-0.158-0.071-0.158-0.158s0.071-0.158 0.158-0.158h0.31c0.088 0 0.158 0.071 0.158 0.158s-0.071 0.158-0.158 0.158zM17.863 24.095h-0.133c-0.080 0-0.159-0.015-0.233-0.046-0.081-0.033-0.12-0.125-0.087-0.206s0.126-0.12 0.206-0.087c0.036 0.015 0.075 0.022 0.114 0.022h0.133c0.088 0 0.158 0.071 0.158 0.158s-0.071 0.158-0.158 0.158zM17.275 23.557c-0.088 0-0.158-0.071-0.158-0.158v-0.31c0-0.088 0.071-0.158 0.158-0.158s0.158 0.071 0.158 0.158v0.31c0 0.087-0.071 0.158-0.158 0.158zM17.275 22.626c-0.088 0-0.158-0.071-0.158-0.158v-0.31c0-0.088 0.071-0.158 0.158-0.158s0.158 0.071 0.158 0.158v0.31c0 0.087-0.071 0.158-0.158 0.158zM17.275 21.694c-0.088 0-0.158-0.071-0.158-0.158v-0.31c0-0.088 0.071-0.158 0.158-0.158s0.158 0.071 0.158 0.158v0.31c0 0.087-0.071 0.158-0.158 0.158zM17.275 20.763c-0.088 0-0.158-0.071-0.158-0.158v-0.31c0-0.088 0.071-0.158 0.158-0.158s0.158 0.071 0.158 0.158v0.31c0 0.087-0.071 0.158-0.158 0.158zM23.774 20.742c-0.088 0-0.158-0.071-0.158-0.158v-0.31c0-0.088 0.071-0.158 0.158-0.158s0.158 0.071 0.158 0.158v0.31c0 0.087-0.071 0.158-0.158 0.158zM17.275 19.831c-0.088 0-0.158-0.071-0.158-0.158v-0.31c0-0.088 0.071-0.158 0.158-0.158s0.158 0.071 0.158 0.158v0.31c0 0.088-0.071 0.158-0.158 0.158zM23.774 19.811c-0.088 0-0.158-0.071-0.158-0.158v-0.31c0-0.088 0.071-0.158 0.158-0.158s0.158 0.071 0.158 0.158v0.31c0 0.087-0.071 0.158-0.158 0.158zM17.275 18.899c-0.088 0-0.158-0.071-0.158-0.158v-0.31c0-0.088 0.071-0.158 0.158-0.158s0.158 0.071 0.158 0.158v0.31c0 0.088-0.071 0.158-0.158 0.158zM23.774 18.879c-0.088 0-0.158-0.071-0.158-0.158v-0.31c0-0.088 0.071-0.158 0.158-0.158s0.158 0.071 0.158 0.158v0.31c0 0.087-0.071 0.158-0.158 0.158zM17.283 17.968c-0.010 0-0.020-0.001-0.029-0.003-0.086-0.016-0.143-0.099-0.126-0.185 0.025-0.138 0.098-0.263 0.205-0.355 0.066-0.057 0.166-0.049 0.223 0.018s0.049 0.166-0.018 0.223c-0.052 0.044-0.087 0.105-0.1 0.172-0.014 0.076-0.081 0.13-0.156 0.13zM23.762 17.949c-0.072 0-0.137-0.049-0.154-0.123-0.015-0.066-0.053-0.125-0.107-0.167-0.069-0.054-0.081-0.153-0.028-0.222s0.153-0.082 0.222-0.028c0.111 0.086 0.189 0.209 0.221 0.346 0.020 0.085-0.033 0.17-0.118 0.19-0.012 0.003-0.024 0.004-0.036 0.004zM22.998 17.596h-0.31c-0.088 0-0.158-0.071-0.158-0.158s0.071-0.158 0.158-0.158h0.31c0.088 0 0.158 0.071 0.158 0.158s-0.071 0.158-0.158 0.158zM22.067 17.596h-0.31c-0.088 0-0.158-0.071-0.158-0.158s0.071-0.158 0.158-0.158h0.31c0.088 0 0.158 0.071 0.158 0.158s-0.071 0.158-0.158 0.158zM21.135 17.596h-0.31c-0.088 0-0.158-0.071-0.158-0.158s0.071-0.158 0.158-0.158h0.31c0.088 0 0.158 0.071 0.158 0.158s-0.071 0.158-0.158 0.158zM20.204 17.596h-0.31c-0.088 0-0.158-0.071-0.158-0.158s0.071-0.158 0.158-0.158h0.31c0.088 0 0.158 0.071 0.158 0.158s-0.071 0.158-0.158 0.158zM19.272 17.596h-0.31c-0.088 0-0.158-0.071-0.158-0.158s0.071-0.158 0.158-0.158h0.31c0.088 0 0.158 0.071 0.158 0.158s-0.071 0.158-0.158 0.158zM18.34 17.596h-0.31c-0.088 0-0.158-0.071-0.158-0.158s0.071-0.158 0.158-0.158h0.31c0.088 0 0.158 0.071 0.158 0.158s-0.071 0.158-0.158 0.158zM23.774 21.526c-0.088 0-0.158-0.071-0.158-0.158v-0.158c0-0.088 0.071-0.158 0.158-0.158s0.158 0.071 0.158 0.158v0.158c0 0.088-0.071 0.158-0.158 0.158zM28.243 28.492h-5.796c-0.281 0-0.51-0.229-0.51-0.51v-5.796c0-0.281 0.229-0.51 0.51-0.51h5.796c0.281 0 0.51 0.229 0.51 0.51v5.796c-0 0.281-0.229 0.51-0.51 0.51zM22.447 21.993c-0.107 0-0.193 0.087-0.193 0.193v5.796c0 0.107 0.087 0.193 0.193 0.193h5.796c0.107 0 0.193-0.087 0.193-0.193v-5.796c0-0.107-0.087-0.193-0.193-0.193h-5.796zM23.422 15.197h-5.796c-0.281 0-0.51-0.229-0.51-0.51v-5.796c0-0.281 0.229-0.51 0.51-0.51h5.796c0.281 0 0.51 0.229 0.51 0.51v5.796c0 0.281-0.229 0.51-0.51 0.51zM17.627 8.698c-0.107 0-0.193 0.087-0.193 0.193v5.796c0 0.107 0.087 0.193 0.193 0.193h5.796c0.107 0 0.193-0.087 0.193-0.193v-5.796c0-0.107-0.087-0.193-0.193-0.193h-5.796z"></path>
</svg>
