<!-- Generated by IcoMoon.io -->
<svg version="1.1" xmlns="http://www.w3.org/2000/svg" width="32" height="32" viewBox="0 0 32 32">
<title>identify-lightbulb</title>
<path d="M20.64 12.008c-1.361-1.309-3.153-1.991-5.045-1.915-3.506 0.138-6.401 2.989-6.593 6.49-0.11 2.020 0.666 3.977 2.131 5.369 0.389 0.369 0.678 0.881 0.86 1.52 0.1 0.35 0.256 0.678 0.446 0.989-0.232 0.132-0.39 0.378-0.39 0.663v3.058c0 0.421 0.343 0.764 0.764 0.764h0.255v2.289c0 0.421 0.343 0.764 0.764 0.764h4.077c0.421 0 0.764-0.343 0.764-0.764v-2.289h0.255c0.421 0 0.764-0.343 0.764-0.764v-3.058c0-0.281-0.154-0.524-0.381-0.657 0.19-0.31 0.337-0.643 0.437-0.994 0.182-0.64 0.47-1.149 0.853-1.513 1.386-1.313 2.149-3.085 2.149-4.99 0-1.889-0.75-3.651-2.113-4.961zM18.165 31.236c0 0.14-0.114 0.255-0.255 0.255h-4.077c-0.14 0-0.255-0.114-0.255-0.255v-2.289h4.587v2.289zM19.185 28.182c0 0.14-0.114 0.255-0.255 0.255h-6.116c-0.14 0-0.255-0.114-0.255-0.255v-3.058c0-0.14 0.114-0.255 0.255-0.255h6.116c0.14 0 0.255 0.114 0.255 0.255v3.058zM14.598 24.359v-6.268c0-0.164 0.127-0.224 0.166-0.239s0.175-0.052 0.282 0.073l0.226 0.263c0.15 0.175 0.359 0.276 0.599 0.267 0.231-0.006 0.444-0.114 0.586-0.296l0.233-0.302c0.103-0.134 0.243-0.1 0.284-0.085s0.172 0.072 0.172 0.241v6.345h-2.548zM20.253 21.589c-0.451 0.428-0.785 1.014-0.993 1.743-0.105 0.369-0.276 0.711-0.493 1.027h-1.111v-6.346c0-0.332-0.203-0.616-0.517-0.724s-0.649-0.007-0.852 0.255l-0.233 0.301c-0.047 0.061-0.118 0.097-0.196 0.099-0.075-0.001-0.15-0.031-0.2-0.089l-0.226-0.263c-0.21-0.246-0.542-0.331-0.846-0.22s-0.499 0.394-0.499 0.717v6.268h-1.132l0.007-0.005c-0.215-0.314-0.377-0.658-0.48-1.022-0.208-0.728-0.544-1.316-1-1.749-1.356-1.289-2.075-3.101-1.973-4.972 0.177-3.242 2.858-5.881 6.104-6.009 1.752-0.071 3.412 0.56 4.673 1.773s1.956 2.844 1.956 4.593c0 1.764-0.707 3.405-1.989 4.621zM8.227 16.969c0-0.141-0.114-0.255-0.255-0.255h-3.058c-0.141 0-0.255 0.114-0.255 0.255s0.114 0.255 0.255 0.255h3.058c0.141 0 0.255-0.114 0.255-0.255zM26.83 16.714h-3.058c-0.141 0-0.255 0.114-0.255 0.255s0.114 0.255 0.255 0.255h3.058c0.141 0 0.255-0.114 0.255-0.255s-0.114-0.255-0.255-0.255zM15.872 9.324c0.141 0 0.255-0.114 0.255-0.255v-3.058c0-0.141-0.114-0.255-0.255-0.255s-0.255 0.114-0.255 0.255v3.058c-0 0.141 0.114 0.255 0.255 0.255zM10.106 22.375l-2.163 2.163c-0.1 0.1-0.1 0.261 0 0.36 0.050 0.050 0.115 0.075 0.18 0.075s0.131-0.025 0.18-0.075l2.163-2.163c0.1-0.1 0.1-0.261 0-0.36s-0.261-0.1-0.36 0zM21.458 11.637c0.065 0 0.131-0.025 0.18-0.075l2.163-2.163c0.1-0.1 0.1-0.261 0-0.36s-0.261-0.1-0.36 0l-2.163 2.163c-0.1 0.1-0.1 0.261 0 0.36 0.050 0.050 0.115 0.075 0.18 0.075zM21.638 22.375c-0.1-0.1-0.261-0.1-0.36 0s-0.1 0.261 0 0.36l2.163 2.163c0.050 0.050 0.115 0.075 0.18 0.075s0.131-0.025 0.18-0.075c0.1-0.1 0.1-0.261 0-0.36l-2.163-2.163zM10.106 11.563c0.050 0.050 0.115 0.075 0.18 0.075s0.131-0.025 0.18-0.075c0.1-0.1 0.1-0.261 0-0.36l-2.163-2.163c-0.1-0.1-0.261-0.1-0.36 0s-0.1 0.261 0 0.36l2.163 2.163zM8.829 19.945c-0.054-0.129-0.204-0.19-0.334-0.135l-2.817 1.19c-0.13 0.055-0.19 0.204-0.135 0.334 0.041 0.097 0.135 0.156 0.235 0.156 0.033 0 0.067-0.006 0.099-0.020l2.817-1.19c0.13-0.055 0.19-0.204 0.136-0.334zM22.914 13.993c0.041 0.097 0.135 0.156 0.235 0.156 0.033 0 0.067-0.006 0.099-0.020l2.817-1.19c0.13-0.055 0.19-0.204 0.135-0.334s-0.204-0.19-0.334-0.135l-2.817 1.19c-0.129 0.055-0.19 0.204-0.135 0.334zM12.562 9.791c0.041 0.097 0.135 0.156 0.235 0.156 0.033 0 0.067-0.006 0.099-0.020 0.13-0.055 0.19-0.204 0.135-0.334l-1.19-2.817c-0.055-0.129-0.203-0.191-0.334-0.135-0.13 0.055-0.19 0.204-0.135 0.334l1.191 2.817zM18.747 9.885c0.031 0.013 0.064 0.019 0.096 0.019 0.1 0 0.196-0.060 0.236-0.159l1.15-2.834c0.053-0.131-0.010-0.279-0.14-0.332-0.129-0.053-0.279 0.010-0.332 0.14l-1.15 2.834c-0.053 0.13 0.010 0.279 0.14 0.332zM26.121 20.854l-2.834-1.15c-0.13-0.053-0.279 0.010-0.332 0.14s0.010 0.279 0.14 0.332l2.834 1.15c0.031 0.013 0.064 0.019 0.096 0.019 0.1 0 0.196-0.060 0.236-0.159 0.053-0.13-0.010-0.279-0.14-0.332zM5.622 13.084l2.834 1.15c0.031 0.013 0.064 0.019 0.096 0.019 0.1 0 0.196-0.060 0.236-0.159 0.053-0.131-0.010-0.279-0.14-0.332l-2.834-1.15c-0.13-0.053-0.279 0.010-0.332 0.14s0.010 0.279 0.14 0.332zM19.5 30.423l-0.072-0.31c6.868-1.595 11.665-7.641 11.665-14.702 0-8.322-6.771-15.093-15.093-15.093s-15.093 6.771-15.093 15.093c0 7.037 4.777 13.078 11.616 14.691l-0.073 0.31c-6.983-1.647-11.861-7.815-11.861-15 0-8.498 6.914-15.412 15.412-15.412s15.412 6.914 15.412 15.412c0 7.21-4.898 13.383-11.911 15.012z"></path>
</svg>
