<!-- Generated by IcoMoon.io -->
<svg version="1.1" xmlns="http://www.w3.org/2000/svg" width="32" height="32" viewBox="0 0 32 32">
<title>identify-enterprise</title>
<path d="M17.863 17.163c-0.173 0-0.289 0.116-0.289 0.289v0.578c0 0.173 0.116 0.289 0.289 0.289s0.289-0.116 0.289-0.289v-0.578c0-0.145-0.116-0.289-0.289-0.289zM16.447 17.163c-0.173 0-0.289 0.116-0.289 0.289v0.578c0 0.173 0.116 0.289 0.289 0.289s0.289-0.116 0.289-0.289v-0.578c0-0.145-0.144-0.289-0.289-0.289zM15.002 17.163c-0.173 0-0.289 0.116-0.289 0.289v0.578c0 0.173 0.116 0.289 0.289 0.289s0.289-0.116 0.289-0.289v-0.578c0-0.145-0.144-0.289-0.289-0.289zM17.863 19.562c-0.173 0-0.289 0.116-0.289 0.289v0.578c0 0.173 0.116 0.289 0.289 0.289s0.289-0.116 0.289-0.289v-0.578c0-0.173-0.116-0.289-0.289-0.289zM16.447 19.562c-0.173 0-0.289 0.116-0.289 0.289v0.578c0 0.173 0.116 0.289 0.289 0.289s0.289-0.116 0.289-0.289v-0.578c0-0.173-0.144-0.289-0.289-0.289zM15.002 19.562c-0.173 0-0.289 0.116-0.289 0.289v0.578c0 0.173 0.116 0.289 0.289 0.289s0.289-0.116 0.289-0.289v-0.578c0-0.173-0.144-0.289-0.289-0.289zM17.863 21.932c-0.173 0-0.289 0.116-0.289 0.289v0.578c0 0.173 0.116 0.289 0.289 0.289s0.289-0.116 0.289-0.289v-0.578c0-0.173-0.116-0.289-0.289-0.289zM16.447 21.932c-0.173 0-0.289 0.116-0.289 0.289v0.578c0 0.173 0.116 0.289 0.289 0.289s0.289-0.116 0.289-0.289v-0.578c0-0.173-0.144-0.289-0.289-0.289zM15.002 21.932c-0.173 0-0.289 0.116-0.289 0.289v0.578c0 0.173 0.116 0.289 0.289 0.289s0.289-0.116 0.289-0.289v-0.578c0-0.173-0.144-0.289-0.289-0.289zM17.863 24.302c-0.173 0-0.289 0.116-0.289 0.289v0.578c0 0.173 0.116 0.289 0.289 0.289s0.289-0.116 0.289-0.289v-0.578c0-0.145-0.116-0.289-0.289-0.289zM16.447 24.302c-0.173 0-0.289 0.116-0.289 0.289v0.578c0 0.173 0.116 0.289 0.289 0.289s0.289-0.116 0.289-0.289v-0.578c0-0.145-0.144-0.289-0.289-0.289zM15.002 24.302c-0.173 0-0.289 0.116-0.289 0.289v0.578c0 0.173 0.116 0.289 0.289 0.289s0.289-0.116 0.289-0.289v-0.578c0-0.145-0.144-0.289-0.289-0.289zM17.863 26.701c-0.173 0-0.289 0.116-0.289 0.289v0.578c0 0.173 0.116 0.289 0.289 0.289s0.289-0.116 0.289-0.289v-0.578c0-0.173-0.116-0.289-0.289-0.289zM16.447 26.701c-0.173 0-0.289 0.116-0.289 0.289v0.578c0 0.173 0.116 0.289 0.289 0.289s0.289-0.116 0.289-0.289v-0.578c0-0.173-0.144-0.289-0.289-0.289zM15.002 26.701c-0.173 0-0.289 0.116-0.289 0.289v0.578c0 0.173 0.116 0.289 0.289 0.289s0.289-0.116 0.289-0.289v-0.578c0-0.173-0.144-0.289-0.289-0.289zM11.505 9.85c-0.173 0-0.289 0.116-0.289 0.289v0.607c0 0.173 0.116 0.289 0.289 0.289s0.289-0.116 0.289-0.289v-0.607c0-0.144-0.116-0.289-0.289-0.289zM10.060 9.85c-0.173 0-0.289 0.116-0.289 0.289v0.607c0 0.173 0.116 0.289 0.289 0.289s0.289-0.116 0.289-0.289v-0.607c0-0.144-0.116-0.289-0.289-0.289zM11.505 12.365c-0.173 0-0.289 0.116-0.289 0.289v0.607c0 0.173 0.116 0.289 0.289 0.289s0.289-0.116 0.289-0.289v-0.607c0-0.173-0.116-0.289-0.289-0.289zM13.008 11.035c0.173 0 0.289-0.116 0.289-0.289v-0.607c0-0.173-0.116-0.289-0.289-0.289s-0.289 0.116-0.289 0.289v0.607c0 0.173 0.116 0.289 0.289 0.289zM13.008 13.55c0.173 0 0.289-0.116 0.289-0.289v-0.607c0-0.173-0.116-0.289-0.289-0.289s-0.289 0.116-0.289 0.289v0.607c0 0.145 0.116 0.289 0.289 0.289zM10.060 12.365c-0.173 0-0.289 0.116-0.289 0.289v0.607c0 0.173 0.116 0.289 0.289 0.289s0.289-0.116 0.289-0.289v-0.607c0-0.173-0.116-0.289-0.289-0.289zM11.505 14.851c-0.173 0-0.289 0.116-0.289 0.289v0.607c0 0.173 0.116 0.289 0.289 0.289s0.289-0.116 0.289-0.289v-0.607c0-0.144-0.116-0.289-0.289-0.289zM10.060 14.851c-0.173 0-0.289 0.116-0.289 0.289v0.607c0 0.173 0.116 0.289 0.289 0.289s0.289-0.116 0.289-0.289v-0.607c0-0.144-0.116-0.289-0.289-0.289zM11.505 17.365c-0.173 0-0.289 0.116-0.289 0.289v0.607c0 0.173 0.116 0.289 0.289 0.289s0.289-0.116 0.289-0.289v-0.607c0-0.173-0.116-0.289-0.289-0.289zM10.060 17.365c-0.173 0-0.289 0.116-0.289 0.289v0.607c0 0.173 0.116 0.289 0.289 0.289s0.289-0.116 0.289-0.289v-0.607c0-0.173-0.116-0.289-0.289-0.289zM11.505 19.851c-0.173 0-0.289 0.116-0.289 0.289v0.607c0 0.173 0.116 0.289 0.289 0.289s0.289-0.116 0.289-0.289v-0.607c0-0.145-0.116-0.289-0.289-0.289zM10.060 19.851c-0.173 0-0.289 0.116-0.289 0.289v0.607c0 0.173 0.116 0.289 0.289 0.289s0.289-0.116 0.289-0.289v-0.607c0-0.145-0.116-0.289-0.289-0.289zM26.419 29.996h-0.694v-9.914c0-0.173-0.116-0.289-0.289-0.289h-1.33v-9.972c0-0.173-0.116-0.289-0.289-0.289h-6.012c-0.173 0-0.289 0.116-0.289 0.289v3.526l-2.515 1.33v-6.214c0-0.173-0.116-0.289-0.289-0.289h-6.359c-0.173 0-0.289 0.116-0.289 0.289v13.758h-1.416c-0.173 0-0.289 0.116-0.289 0.289v7.486h-0.809zM13.441 29.996v-13.845l5.781-3.006v16.851h-5.781zM25.147 25.776h-5.347v-1.503h5.376v1.503h-0.029zM19.8 26.354h5.376v1.503h-5.376v-1.503zM25.147 23.695h-5.347v-1.416h5.376v1.416h-0.029zM19.8 28.464h5.376v1.532h-5.376v-1.532zM25.147 21.7h-5.347v-1.329h5.376v1.33h-0.029zM18.095 10.11h5.434v9.683h-3.757v-7.139c0-0.087-0.058-0.202-0.145-0.26s-0.202-0.058-0.289 0l-1.243 0.665v-2.948zM8.643 8.752h5.781v6.214l-1.416 0.751c-0.087 0.058-0.145 0.145-0.145 0.26v6.243h-4.22v-13.469zM6.909 22.799h5.925v7.197h-1.041v-2.804c0-1.069-0.838-1.937-1.879-1.937s-1.879 0.867-1.879 1.937v2.804h-1.127l0-7.197zM11.244 29.996h-2.63v-2.804c0-0.751 0.578-1.358 1.301-1.358s1.301 0.607 1.301 1.358v2.804h0.028zM26.326 28.371l-0.205-0.242c3.535-2.989 5.562-7.356 5.562-11.98 0-8.648-7.036-15.683-15.683-15.683s-15.683 7.036-15.683 15.683c0 4.524 1.954 8.828 5.362 11.809l-0.209 0.238c-3.476-3.041-5.47-7.432-5.47-12.047 0-8.822 7.178-16 16-16s16 7.178 16 16c0 4.718-2.068 9.173-5.674 12.222zM26.463 31.851h-20.981c-0.19 0-0.345-0.154-0.345-0.344v-1.331c0-0.19 0.155-0.344 0.345-0.344h20.981c0.19 0 0.345 0.154 0.345 0.344v1.331c0 0.19-0.155 0.344-0.345 0.344zM5.482 30.149c-0.015 0-0.028 0.012-0.028 0.028v1.331c0 0.015 0.012 0.028 0.028 0.028h20.981c0.015 0 0.028-0.012 0.028-0.028v-1.331c0-0.015-0.012-0.028-0.028-0.028h-20.981z"></path>
</svg>
