<!-- Generated by IcoMoon.io -->
<svg version="1.1" xmlns="http://www.w3.org/2000/svg" width="32" height="32" viewBox="0 0 32 32">
<title>identify-key</title>
<path d="M5.084 22.652c-0.044 0-0.088-0.016-0.121-0.049-0.069-0.067-0.070-0.177-0.003-0.246l3.397-3.486c0.067-0.069 0.177-0.070 0.246-0.003s0.070 0.177 0.003 0.246l-3.397 3.486c-0.034 0.035-0.079 0.052-0.125 0.052zM17.393 13.652c-0.826 0-1.498-0.672-1.498-1.498s0.672-1.498 1.498-1.498c0.826 0 1.498 0.672 1.498 1.498s-0.672 1.498-1.498 1.498zM17.393 11.004c-0.634 0-1.15 0.516-1.15 1.15s0.516 1.15 1.15 1.15c0.634 0 1.15-0.516 1.15-1.15s-0.516-1.15-1.15-1.15zM16.467 31.3c-0.096 0-0.174-0.078-0.174-0.174v-8.383c0-0.096 0.078-0.174 0.174-0.174s0.174 0.078 0.174 0.174v8.383c0 0.096-0.077 0.174-0.174 0.174zM17.349 32l-2.38-1.666v-11.495c-1.88-0.898-3.089-2.817-3.089-4.92 0-3.015 2.453-5.468 5.468-5.468 2.157 0 4.172 1.319 5.013 3.282 0.307 0.767 0.455 1.481 0.455 2.187 0 2.103-1.208 4.022-3.088 4.92v1.77l-1.252 1.252 1.324 1.324-1.324 1.324 1.324 1.324-1.324 1.324 1.252 1.252v1.927l-2.38 1.666zM15.317 30.153l2.032 1.422 2.032-1.422v-1.603l-1.396-1.396 1.324-1.324-1.324-1.324 1.324-1.324-1.324-1.324 1.396-1.396v-1.849l0.102-0.046c1.814-0.821 2.986-2.646 2.986-4.651 0-0.66-0.14-1.332-0.429-2.053-0.786-1.833-2.672-3.068-4.692-3.068-2.824 0-5.121 2.297-5.121 5.121 0 2.004 1.172 3.83 2.986 4.651l0.102 0.046v11.538zM6.921 22.696h-3.158v-3.285l1.024-1.121h1.712v-1.853h1.809v-1.75l1.438-1.481c-0.429-1.808 0.1-3.721 1.393-5.013 0.476-0.476 1.071-0.863 1.819-1.184 2.005-0.764 4.225-0.298 5.664 1.186 0.175 0.175 0.315 0.315 0.456 0.502 0.058 0.077 0.042 0.186-0.035 0.244s-0.186 0.042-0.244-0.035c-0.126-0.168-0.252-0.293-0.425-0.467-1.344-1.385-3.419-1.819-5.286-1.108-0.7 0.3-1.26 0.663-1.704 1.107-1.228 1.228-1.718 3.059-1.278 4.775l0.024 0.094-1.475 1.519v1.956h-1.809v1.853h-1.906l-0.829 0.908v2.803h2.666l5.861-5.861c0.068-0.068 0.178-0.068 0.246 0s0.068 0.178 0 0.246l-5.963 5.964zM16.908 12.196c-0.289 0-0.571-0.049-0.784-0.092-0.094-0.019-0.156-0.11-0.136-0.204s0.111-0.155 0.204-0.136c0.197 0.040 0.457 0.085 0.716 0.085 2.030 0 3.62-1.59 3.62-3.62 0-1.996-1.624-3.62-3.62-3.62-1.565 0-2.985 1.039-3.452 2.525-0.029 0.092-0.125 0.142-0.218 0.114-0.092-0.029-0.142-0.126-0.114-0.218 0.513-1.63 2.068-2.769 3.784-2.769 2.188 0 3.968 1.78 3.968 3.968 0 2.225-1.743 3.968-3.968 3.968zM14.131 30.278c-7.597-0.932-13.327-7.416-13.327-15.082 0-8.379 6.817-15.196 15.196-15.196s15.196 6.817 15.196 15.196c0 6.568-4.186 12.367-10.417 14.429l-0.1-0.3c6.101-2.020 10.2-7.697 10.2-14.129 0-8.205-6.675-14.88-14.88-14.88s-14.88 6.675-14.88 14.88c0 7.507 5.61 13.855 13.049 14.768l-0.039 0.314z"></path>
</svg>
