<!-- Generated by IcoMoon.io -->
<svg version="1.1" xmlns="http://www.w3.org/2000/svg" width="32" height="32" viewBox="0 0 32 32">
<title>idp-many</title>
<path d="M29.156 9.124c-1.568 0-2.844 1.264-2.844 2.817 0 0.159 0.022 0.313 0.048 0.466l-4.854 1.683c-0.856-2.172-2.985-3.718-5.477-3.718-1.42 0-2.724 0.501-3.741 1.334l-3.663-3.628c0.756-0.857 1.219-1.976 1.219-3.201 0-2.688-2.208-4.875-4.921-4.875s-4.921 2.187-4.921 4.875 2.208 4.875 4.921 4.875c1.127 0 2.164-0.381 2.994-1.015l3.679 3.645c-0.9 1.024-1.449 2.357-1.449 3.818 0 2.039 1.064 3.834 2.67 4.875l-2.448 4.098c-0.353-0.117-0.73-0.184-1.122-0.184-1.952 0-3.54 1.573-3.54 3.506s1.588 3.507 3.54 3.507c1.952 0 3.54-1.573 3.54-3.506 0-1.201-0.613-2.261-1.545-2.894l2.43-4.067c0.723 0.315 1.52 0.492 2.359 0.492 3.244 0 5.882-2.614 5.882-5.828 0-0.407-0.043-0.804-0.124-1.187l4.9-1.699c0.488 0.858 1.406 1.445 2.469 1.445 1.568 0 2.844-1.264 2.844-2.817s-1.276-2.816-2.844-2.816zM11.813 28.494c0 1.403-1.152 2.544-2.568 2.544s-2.569-1.141-2.569-2.544 1.152-2.544 2.569-2.544c1.416-0 2.568 1.141 2.568 2.544zM0.972 4.875c0-2.157 1.772-3.913 3.95-3.913s3.95 1.756 3.95 3.913-1.772 3.913-3.95 3.913-3.95-1.756-3.95-3.913zM16.028 21.063c-2.708 0-4.911-2.183-4.911-4.865s2.203-4.865 4.911-4.865c2.708 0 4.911 2.182 4.911 4.865s-2.203 4.865-4.911 4.865zM29.156 13.796c-1.032 0-1.873-0.832-1.873-1.855s0.84-1.854 1.873-1.854 1.872 0.832 1.872 1.854c0 1.023-0.84 1.855-1.872 1.855z"></path>
</svg>
