<!-- Generated by IcoMoon.io -->
<svg version="1.1" xmlns="http://www.w3.org/2000/svg" width="32" height="32" viewBox="0 0 32 32">
<title>in-the-news</title>
<path d="M7.7 20.266h13.28c0.306 0 0.553-0.247 0.553-0.553 0-0.305-0.247-0.553-0.553-0.553h-13.28c-0.306 0-0.553 0.249-0.553 0.553s0.248 0.553 0.553 0.553zM24.3 22.479h-16.6c-0.306 0-0.553 0.247-0.553 0.553s0.247 0.553 0.553 0.553h16.6c0.306 0 0.553-0.247 0.553-0.553s-0.247-0.553-0.553-0.553zM24.3 12.519h-16.6c-0.306 0-0.553 0.249-0.553 0.553 0 0.306 0.247 0.553 0.553 0.553h16.6c0.306 0 0.553-0.247 0.553-0.553 0-0.305-0.247-0.553-0.553-0.553zM24.3 15.839h-16.6c-0.306 0-0.553 0.249-0.553 0.553 0 0.306 0.247 0.553 0.553 0.553h16.6c0.306 0 0.553-0.247 0.553-0.553 0-0.305-0.247-0.553-0.553-0.553zM27.067 3.666h-2.213v-2.767c0-0.306-0.247-0.553-0.553-0.553s-0.553 0.247-0.553 0.553v2.767h-2.213v-2.767c0-0.306-0.247-0.553-0.553-0.553s-0.553 0.247-0.553 0.553v2.767h-2.213v-2.767c0-0.306-0.247-0.553-0.553-0.553s-0.553 0.247-0.553 0.553v2.767h-2.213v-2.767c0-0.306-0.247-0.553-0.553-0.553s-0.553 0.247-0.553 0.553v2.767h-2.213v-2.767c0-0.306-0.247-0.553-0.553-0.553s-0.553 0.247-0.553 0.553v2.767h-2.213v-2.767c0-0.306-0.247-0.553-0.553-0.553s-0.553 0.247-0.553 0.553v2.767h-2.213c-1.222 0-2.213 0.991-2.213 2.213v23.24c0 1.222 0.991 2.213 2.213 2.213h22.133c1.222 0 2.213-0.991 2.213-2.213v-23.24c0-1.222-0.991-2.213-2.213-2.213zM28.173 29.119c0 0.612-0.496 1.107-1.107 1.107h-22.133c-0.611 0-1.107-0.495-1.107-1.107v-23.24c0-0.611 0.495-1.107 1.107-1.107h2.213v2.767c0 0.306 0.247 0.553 0.553 0.553s0.553-0.247 0.553-0.553v-2.767h2.213v2.767c0 0.306 0.247 0.553 0.553 0.553s0.553-0.247 0.553-0.553v-2.767h2.213v2.767c0 0.306 0.248 0.553 0.553 0.553s0.553-0.247 0.553-0.553v-2.767h2.213v2.767c0 0.306 0.247 0.553 0.553 0.553s0.553-0.247 0.553-0.553v-2.767h2.213v2.767c0 0.306 0.247 0.553 0.553 0.553s0.553-0.247 0.553-0.553v-2.767h2.213v2.767c0 0.306 0.247 0.553 0.553 0.553s0.553-0.247 0.553-0.553v-2.767h2.213c0.611 0 1.107 0.496 1.107 1.107v23.24z"></path>
</svg>
