<!-- Generated by IcoMoon.io -->
<svg version="1.1" xmlns="http://www.w3.org/2000/svg" width="32" height="32" viewBox="0 0 32 32">
<title>infosheet</title>
<path d="M20.934 0h-14.811c-0.943 0-1.71 0.767-1.71 1.71v28.579c0 0.943 0.767 1.711 1.71 1.711h19.753c0.943 0 1.71-0.768 1.71-1.711v-23.069l-6.652-7.22zM21.226 1.852l4.655 5.051h-4.655v-5.051zM25.876 30.96h-19.753c-0.37 0-0.67-0.301-0.67-0.671v-28.579c0-0.37 0.301-0.67 0.67-0.67h14.062v6.903h6.361v22.346c0 0.37-0.301 0.671-0.67 0.671zM22.729 21.942h-13.843c-0.212 0-0.385-0.227-0.385-0.508s0.172-0.508 0.385-0.508h13.843c0.212 0 0.385 0.228 0.385 0.508s-0.172 0.508-0.385 0.508zM22.729 17.877h-13.843c-0.212 0-0.385-0.227-0.385-0.508s0.172-0.508 0.385-0.508h13.843c0.212 0 0.385 0.228 0.385 0.508s-0.172 0.508-0.385 0.508zM22.729 13.812h-13.843c-0.212 0-0.385-0.227-0.385-0.508s0.172-0.508 0.385-0.508h13.843c0.212 0 0.385 0.227 0.385 0.508s-0.172 0.508-0.385 0.508z"></path>
</svg>
