<!-- Generated by IcoMoon.io -->
<svg version="1.1" xmlns="http://www.w3.org/2000/svg" width="32" height="32" viewBox="0 0 32 32">
<title>infographic1</title>
<path d="M21.916 21.506l-5.556-2.967v-7.313c-0.169-0.011-0.337-0.026-0.508-0.026s-0.34 0.015-0.508 0.026c-3.978 0.264-7.135 3.575-7.135 7.618 0 4.215 3.429 7.644 7.644 7.644 2.732 0 5.127-1.445 6.478-3.607 0.179-0.287 0.341-0.585 0.482-0.895l-0.896-0.479zM15.852 25.47c-3.655 0-6.628-2.973-6.628-6.628 0-3.483 2.702-6.34 6.119-6.602v6.906l6.090 3.253c-1.178 1.843-3.237 3.070-5.582 3.070zM20.934 0h-14.811c-0.943 0-1.71 0.767-1.71 1.71v28.579c0 0.943 0.767 1.711 1.71 1.711h19.753c0.943 0 1.71-0.768 1.71-1.711v-23.069l-6.652-7.22zM21.226 1.852l4.655 5.051h-4.655v-5.051zM25.876 30.96h-19.753c-0.37 0-0.67-0.301-0.67-0.671v-28.579c0-0.37 0.301-0.67 0.67-0.67h14.062v6.903h6.361v22.346c0 0.37-0.301 0.671-0.67 0.671zM23.121 21.045l-5.736-3.014-0.011-6.444 0.635 0.162c0.056 0.014 5.545 1.495 5.156 8.506l-0.044 0.79zM18.4 17.416l3.767 1.98c-0.060-4.234-2.564-5.877-3.775-6.425l0.007 4.445z"></path>
</svg>
