<!-- Generated by IcoMoon.io -->
<svg version="1.1" xmlns="http://www.w3.org/2000/svg" width="32" height="32" viewBox="0 0 32 32">
<title>internet-scale</title>
<path d="M7.622 20.371c1.010-0.353 2.182-0.6 3.397-0.692l0.047-0.003v-0.883c-1.357 0.1-2.618 0.365-3.811 0.777l0.105-0.032c-0.449-1.556-0.72-3.348-0.745-5.198l-0-0.015h4.64c0.145-0.347 0.349-0.642 0.604-0.886l0.001-0.001h-5.242c0.025-1.863 0.295-3.652 0.778-5.351l-0.035 0.145c1.346 0.468 2.899 0.754 4.514 0.79l0.017 0v4.39c0.247-0.228 0.539-0.41 0.862-0.532l0.018-0.006v-3.84c1.631-0.036 3.183-0.323 4.635-0.822l-0.107 0.032c0.102 0.358 0.195 0.73 0.278 1.11 0.232-0.154 0.502-0.274 0.792-0.345l0.018-0.004c-0.086-0.368-0.179-0.73-0.282-1.078 1.053-0.44 1.961-0.993 2.771-1.66l-0.019 0.015c0.685 0.764 1.275 1.633 1.74 2.576l0.030 0.067h0.989c-1.957-4.377-6.273-7.372-11.289-7.372-6.809 0-12.33 5.52-12.33 12.33 0 6.365 4.823 11.604 11.014 12.26l0.054 0.005v-1.11c-1.421-0.646-2.643-2.346-3.443-4.669zM20.253 5.651c-0.696 0.568-1.492 1.053-2.352 1.419l-0.064 0.024c-0.64-1.818-1.546-3.299-2.605-4.266 1.966 0.524 3.659 1.503 5.024 2.819l-0.003-0.003zM12.771 2.48c1.773 0.272 3.315 2.157 4.269 4.922-1.268 0.439-2.731 0.708-4.252 0.742l-0.017 0zM11.891 2.48v5.664c-1.537-0.035-3-0.304-4.371-0.773l0.102 0.030c0.954-2.765 2.496-4.65 4.269-4.922zM9.43 2.822c-1.059 0.96-1.958 2.448-2.605 4.266-0.924-0.391-1.72-0.875-2.434-1.457l0.018 0.014c1.361-1.316 3.054-2.296 4.941-2.804l0.080-0.018zM3.805 6.272c0.792 0.651 1.699 1.204 2.68 1.618l0.072 0.027c-0.495 1.648-0.793 3.545-0.822 5.507l-0 0.016h-4.835c0.111-2.77 1.194-5.267 2.915-7.178l-0.009 0.010zM0.899 14.326h4.835c0.028 1.98 0.327 3.88 0.86 5.678l-0.038-0.148c-1.053 0.441-1.96 0.994-2.771 1.66l0.019-0.015c-1.713-1.903-2.796-4.403-2.905-7.153l-0.001-0.022zM4.419 22.125c0.696-0.566 1.493-1.049 2.351-1.415l0.065-0.025c0.64 1.818 1.546 3.296 2.605 4.266-1.97-0.527-3.666-1.509-5.034-2.829l0.003 0.003zM14.819 17.67h1.334v-1.331h-1.334zM20.16 16.339h1.331v-1.334h-1.331zM22.826 16.339h1.334v-1.334h-1.338zM25.494 16.339h1.334v-1.334h-1.338zM20.16 13.67h1.331v-1.334h-1.331zM22.826 13.67h1.334v-1.334h-1.338zM25.494 13.67h1.334v-1.334h-1.338zM20.16 21.674h1.331v-1.334h-1.331zM22.826 21.674h1.334v-1.334h-1.338zM25.494 21.674h1.334v-1.334h-1.338zM20.16 24.342h1.331v-1.334h-1.331zM25.494 24.342h1.334v-1.334h-1.338zM20.16 27.011h1.331v-1.334h-1.331zM25.494 27.011h1.334v-1.334h-1.338zM20.16 19.005h1.331v-1.334h-1.331zM22.826 19.005h1.334v-1.334h-1.338zM25.494 19.005h1.334v-1.334h-1.338zM14.819 20.339h1.334v-1.334h-1.334zM14.819 23.008h1.334v-1.334h-1.334zM14.819 25.677h1.334v-1.334h-1.334zM14.819 28.342h1.334v-1.331h-1.334zM22.819 24.342h1.334v-1.334h-1.331zM31.008 19.462h-1.757v-7.869c-0.002-0.674-0.548-1.221-1.222-1.222h-9.040c-0.674 0.002-1.221 0.548-1.222 1.222v2.586h-4.16c-0.623 0.005-1.126 0.512-1.126 1.136 0 0 0 0 0 0v0 15.13h19.52v-9.99c0-0.548-0.444-0.992-0.992-0.992v0zM17.766 29.738h-4.586v-14.422c0-0.239 0.193-0.432 0.432-0.432h4.16zM28.547 19.462v10.275h-4.41v-4.061h-1.312v4.061h-4.355v-18.144c0-0.286 0.232-0.518 0.518-0.518v0h9.040c0.286 0 0.518 0.232 0.518 0.518v0zM31.296 29.738h-2.045v-9.578h1.757c0.159 0 0.288 0.129 0.288 0.288v0z"></path>
</svg>
