<!-- Generated by IcoMoon.io -->
<svg version="1.1" xmlns="http://www.w3.org/2000/svg" width="32" height="32" viewBox="0 0 32 32">
<title>intelligence</title>
<path d="M18.467 0.189c-0.121-0.020-0.26-0.031-0.402-0.031-0.644 0-1.233 0.236-1.685 0.626l0.003-0.003c-0.284 0.247-0.512 0.55-0.669 0.892l-0.007 0.016c-0.757-1.029-1.963-1.689-3.324-1.689-1.519 0-2.845 0.823-3.558 2.047l-0.011 0.020h-0.042c-2.238 0.003-4.059 1.784-4.125 4.007l-0 0.006c-0.713 0.42-1.238 1.096-1.451 1.898l-0.005 0.022c-1.577 0.597-2.679 2.095-2.679 3.85 0 0.678 0.165 1.318 0.456 1.882l-0.011-0.023c-0.593 0.77-0.95 1.748-0.95 2.809 0 1.235 0.484 2.357 1.272 3.187l-0.002-0.002c-0.15 0.437-0.237 0.94-0.237 1.463 0 2.309 1.688 4.224 3.897 4.578l0.027 0.003c0.438 0.956 1.255 1.674 2.253 1.971l0.025 0.006c0.197 2.397 2.191 4.268 4.622 4.268 1.537 0 2.9-0.748 3.743-1.9l0.009-0.013c0.358 1.029 1.32 1.754 2.45 1.754 0 0 0.001 0 0.001 0h-0c0.14-0 0.278-0.011 0.412-0.031l-0.015 0.002c7.705-1.195 13.533-7.782 13.533-15.729 0-0.027-0-0.053-0-0.080l0 0.004c0-0.024 0-0.053 0-0.082 0-7.947-5.828-14.534-13.444-15.718l-0.089-0.011zM11.872 30.966c-1.995 0-3.613-1.617-3.613-3.613s1.617-3.613 3.613-3.613v0-1.021c-2.309 0.004-4.222 1.689-4.582 3.896l-0.004 0.027c-0.955-0.391-1.616-1.314-1.616-2.39 0-1.423 1.153-2.576 2.576-2.576v0-1.030c-1.989 0.009-3.598 1.623-3.6 3.613v0c-0 0.004-0 0.009-0 0.015 0 0.129 0.007 0.256 0.021 0.382l-0.001-0.016c-1.511-0.455-2.592-1.834-2.592-3.466 0-1.992 1.612-3.607 3.603-3.613h0v-1.046c-1.643 0.002-3.086 0.858-3.909 2.148l-0.011 0.019c-0.451-0.595-0.723-1.348-0.723-2.164 0-0.928 0.351-1.774 0.927-2.412l0.253-0.285-0.202-0.32c-0.293-0.462-0.467-1.026-0.467-1.629 0-1.15 0.631-2.152 1.565-2.68l0.015-0.008c0.21 1.523 1.502 2.684 3.065 2.688h0v-1.034c-1.139-0.002-2.061-0.925-2.061-2.064 0-1.14 0.924-2.064 2.064-2.064s2.064 0.924 2.064 2.064v0h1.021c-0.002-1.71-1.388-3.096-3.097-3.098h-0c-0.168 0.001-0.332 0.016-0.491 0.044l0.017-0.003c0.219-1.36 1.298-2.414 2.653-2.594l0.016-0.002c-0.080 0.301-0.126 0.647-0.128 1.004v0.001c0.002 2.28 1.848 4.128 4.128 4.131h0v-1.034c-1.711 0-3.098-1.387-3.098-3.098s1.387-3.098 3.098-3.098c1.711 0 3.098 1.387 3.098 3.098v0 23.226c-0.002 1.991-1.613 3.606-3.602 3.613h-0.001zM18.31 30.79c-0.073 0.012-0.157 0.019-0.243 0.019-0.857 0-1.552-0.695-1.552-1.552v0-26.515c0 0 0 0 0 0 0-0.857 0.695-1.552 1.552-1.552 0.001 0 0.002 0 0.003 0h-0c0.085 0 0.168 0.007 0.249 0.020l-0.009-0.001c7.215 1.158 12.66 7.338 12.66 14.79s-5.446 13.633-12.575 14.779l-0.086 0.011zM21.162 12.387v-3.613h-1.034v3.613c0 0.285-0.231 0.515-0.515 0.515v0h-2.064v1.034h2.064c0.855 0 1.549-0.693 1.549-1.549v0zM20.646 7.741c0.855 0 1.549-0.693 1.549-1.549s-0.693-1.549-1.549-1.549c-0.855 0-1.549 0.693-1.549 1.549v0c0 0.855 0.693 1.549 1.549 1.549v0zM20.646 5.677c0.286 0 0.518 0.232 0.518 0.518s-0.232 0.518-0.518 0.518c-0.286 0-0.518-0.232-0.518-0.518 0-0.001 0-0.002 0-0.003v0c0 0 0 0 0 0 0-0.285 0.231-0.515 0.515-0.515 0.001 0 0.002 0 0.003 0h-0zM20.128 19.613v3.613h1.034v-3.613c0-0.855-0.693-1.549-1.549-1.549v0h-2.064v1.034h2.064c0.285 0 0.515 0.231 0.515 0.515v0zM20.646 24.259c-0.001 0-0.002 0-0.003 0-0.855 0-1.549 0.693-1.549 1.549s0.693 1.549 1.549 1.549c0.855 0 1.549-0.693 1.549-1.549v0c0 0 0 0 0 0 0-0.854-0.692-1.547-1.545-1.549h-0zM20.646 26.323c-0.001 0-0.002 0-0.003 0-0.286 0-0.518-0.232-0.518-0.518s0.232-0.518 0.518-0.518c0.286 0 0.518 0.232 0.518 0.518 0 0.001 0 0.002 0 0.003v-0c-0.002 0.284-0.231 0.513-0.515 0.515h-0zM24.259 13.936c0 0 0 0 0 0 0 0.852-0.688 1.543-1.539 1.549h-5.172v1.030h5.171c1.415-0.013 2.558-1.162 2.56-2.579v-1.549h-1.021zM24.774 8.259c-0.855 0-1.549 0.693-1.549 1.549s0.693 1.549 1.549 1.549c0.855 0 1.549-0.693 1.549-1.549v0c0-0.855-0.693-1.549-1.549-1.549v0zM24.774 10.323c-0.004 0-0.008 0-0.013 0-0.286 0-0.518-0.232-0.518-0.518s0.232-0.518 0.518-0.518c0.286 0 0.518 0.232 0.518 0.518 0 0.001 0 0.002 0 0.003v-0c0 0 0 0 0 0 0 0.281-0.225 0.51-0.505 0.515h-0zM24.259 18.064h1.034v5.162h-1.034v-5.162zM26.838 10.838h1.034v8.259h-1.034v-8.259zM26.838 20.128h1.034v1.034h-1.034v-1.034zM12.387 3.613h1.034v1.034h-1.034v-1.034zM9.808 15.485h1.034v1.034h-1.034v-1.034zM12.902 26.838h1.034v1.034h-1.034v-1.034zM4.128 19.098h1.034v1.034h-1.034v-1.034zM13.421 11.872h1.034v1.034h-1.034v-1.034zM3.613 12.902h1.034v1.034h-1.034v-1.034z"></path>
</svg>
