<!-- Generated by IcoMoon.io -->
<svg version="1.1" xmlns="http://www.w3.org/2000/svg" width="32" height="32" viewBox="0 0 32 32">
<title>invitation</title>
<path d="M11.188 19.796l0.352 0.939-0.648 0.243-0.352-0.939 0.648-0.243zM8.753 15.271l-0.352-0.939 0.648-0.243 0.352 0.939-0.648 0.243zM9.108 16.242l0.648-0.243 0.352 0.939-0.648 0.243-0.352-0.939zM9.84 18.133l0.648-0.243 0.352 0.939-0.648 0.243-0.352-0.939zM19.16 15.395l0.795 2.11 4.496-1.695-0.795-2.11-4.496 1.695zM20.37 16.64l-0.311-0.795 3.216-1.211 0.311 0.795-3.216 1.211zM24.866 12.386l-1.937-5.118-11.758 4.427 1.937 5.118 11.758-4.427zM22.549 8.167l1.418 3.839-10.479 3.942-1.418-3.839 10.479-3.942zM18.747 17.271l0.243 0.648-4.825 1.809-0.243-0.648 4.825-1.809zM18.429 16.476l-4.824 1.809-0.243-0.648 4.824-1.809 0.243 0.648zM17.792 19.319l0.243 0.648-3.336 1.25-0.243-0.648 3.336-1.25zM6.211 21.732l-1.809-4.824 0.648-0.243 1.809 4.824-0.648 0.243zM7.356 20.298l-1.251-3.335 0.648-0.243 1.251 3.335-0.648 0.243zM20.232 24.732l4.807 0.069 0.035-2.248-4.807-0.069-0.035 2.248zM20.958 23.211l3.424 0.069v0.864l-3.424-0.069v-0.864zM14.033 24.025l5.153 0.078-0.011 0.692-5.152-0.078 0.011-0.692zM14.016 25.597l3.562 0.054-0.011 0.692-3.562-0.054 0.011-0.692zM27.010 4.051l-18.572 6.986 0.138 0.311c0.069 0.208 0.069 0.45-0.035 0.623-0.104 0.208-0.242 0.346-0.45 0.45-0.415 0.173-0.899-0.069-1.072-0.484l-0.138-0.311-6.882 2.559 2.767 7.366-0.104 5.949 7.332 0.104v-0.346c0-0.45 0.38-0.83 0.83-0.83v0c0.45 0 0.83 0.38 0.83 0.83v0.346l19.886 0.346 0.208-13.142h-0.692l-4.046-10.756zM0.899 14.599l5.603-2.11c0.277 0.415 0.761 0.692 1.28 0.692 0.069 0 0.138 0 0.208-0.035l0.069 0.208 0.657-0.242-0.069-0.208c0.242-0.173 0.415-0.38 0.553-0.623 0.104-0.277 0.173-0.553 0.138-0.83l15.632-5.845 4.115 11.032-15.666 5.845c-0.277-0.415-0.761-0.692-1.28-0.692-0.069 0-0.138 0-0.208 0.035l-0.069-0.138-0.657 0.242 0.035 0.138c-0.242 0.173-0.415 0.38-0.553 0.623-0.104 0.277-0.173 0.553-0.138 0.83l-5.603 2.11-4.046-11.032zM26.042 18.473l-0.035 2.594-6.64-0.104 6.675-2.49zM29.016 27.222l-16.704-0.242c-0.138-0.553-0.553-1.003-1.107-1.141v-0.138h-0.692v0.138c-0.553 0.138-1.003 0.553-1.141 1.107l-5.983-0.104 0.035-3.493 1.176 3.147 5.914-2.213v0.346h0.692v-0.623l0.242-0.104-0.138-0.311c-0.069-0.208-0.069-0.45 0.035-0.623s0.242-0.346 0.45-0.45c0.415-0.173 0.899 0.069 1.072 0.484l0.138 0.311 1.003-0.38v0.173l5.153 0.069v-0.692l-3.804-0.069 2.179-0.83 9.095 0.138 0.069-3.562 2.455-0.899-0.138 9.96zM25.558 5.365l1.072-0.415 4.115 11.032-1.072 0.415-4.115-11.032zM30.849 27.257l-1.141-0.035 0.138-10.202 1.141-0.415-0.138 10.652z"></path>
</svg>
