<!-- Generated by IcoMoon.io -->
<svg version="1.1" xmlns="http://www.w3.org/2000/svg" width="32" height="32" viewBox="0 0 32 32">
<title>key</title>
<path d="M24.325 10.174c-0.68 0-1.36-0.259-1.877-0.777-1.035-1.035-1.035-2.72 0-3.755v0c1.035-1.035 2.72-1.035 3.755 0 0.501 0.501 0.778 1.168 0.778 1.877s-0.276 1.376-0.778 1.878c-0.517 0.517-1.197 0.776-1.877 0.776zM23.125 6.32c-0.661 0.661-0.661 1.737 0 2.399s1.738 0.661 2.399 0c0.32-0.32 0.497-0.746 0.497-1.199s-0.176-0.879-0.497-1.199c-0.661-0.661-1.738-0.661-2.399-0v0zM6.547 31.36h-6.034v-5.997l13.031-12.982c-1.059-3.243-0.195-6.862 2.243-9.301 1.728-1.727 4.028-2.679 6.48-2.679s4.752 0.951 6.479 2.679c2.595 2.595 3.395 6.46 2.040 9.848-0.492 1.202-1.178 2.247-2.040 3.11-2.399 2.399-5.877 3.261-9.145 2.287l-2.449 2.543h-2.819v3.094h-3.094v3.094h-3.094v2.824l-1.598 1.479zM1.472 30.4h4.699l1.013-0.939v-3.364h3.094v-3.094h3.094v-3.094h3.37l2.582-2.682 0.287 0.096c3.003 1 6.242 0.249 8.454-1.963 0.772-0.772 1.387-1.711 1.829-2.792 1.212-3.028 0.494-6.488-1.829-8.811-3.199-3.199-8.404-3.199-11.603 0-2.249 2.249-3.002 5.619-1.919 8.586l0.105 0.288-13.178 13.129v4.64zM13.853 16.613c-0.123 0-0.245-0.047-0.339-0.14-0.187-0.187-0.187-0.491 0-0.678l1.402-1.402c0.187-0.187 0.491-0.187 0.678 0s0.187 0.491-0 0.678l-1.402 1.402c-0.094 0.094-0.217 0.14-0.339 0.14zM3.41 27.008c-0.123 0-0.246-0.047-0.34-0.141-0.187-0.188-0.186-0.492 0.002-0.678l8.751-8.703c0.187-0.187 0.492-0.186 0.678 0.002s0.186 0.492-0.002 0.678l-8.751 8.703c-0.093 0.093-0.216 0.14-0.338 0.14z"></path>
</svg>
