<!-- Generated by IcoMoon.io -->
<svg version="1.1" xmlns="http://www.w3.org/2000/svg" width="32" height="32" viewBox="0 0 32 32">
<title>kiosk</title>
<path d="M28.824 31.874h-25.9c-1.612 0-2.924-1.312-2.924-2.924v-25.9c0-1.612 1.312-2.924 2.924-2.924h25.9c1.613 0 2.924 1.312 2.924 2.924v25.9c0 1.612-1.311 2.924-2.924 2.924zM2.924 1.244c-0.996 0-1.806 0.811-1.806 1.806v25.9c0 0.996 0.81 1.806 1.806 1.806h25.9c0.996 0 1.806-0.811 1.806-1.806v-25.9c0-0.996-0.811-1.806-1.806-1.806h-25.9zM28.299 15.967h-25.21v-12.855h25.21v12.855zM4.207 14.849h22.974v-10.62h-22.974v10.62zM17.032 18.045h2.468v2.468h-2.468v-2.468zM21.117 18.045h2.468v2.468h-2.468v-2.468zM25.201 18.045h2.468v2.468h-2.468v-2.468zM17.032 21.993h2.468v2.468h-2.468v-2.468zM21.117 21.993h2.468v2.468h-2.468v-2.468zM25.201 21.993h2.468v2.468h-2.468v-2.468zM17.032 25.942h2.468v2.468h-2.468v-2.468zM21.117 25.942h2.468v2.468h-2.468v-2.468zM25.201 25.942h2.468v2.468h-2.468v-2.468zM14.407 20.319h-10.955c-0.282 0-0.51-0.228-0.51-0.511s0.228-0.511 0.51-0.511h10.955c0.282 0 0.511 0.228 0.511 0.511s-0.228 0.511-0.511 0.511zM14.407 22.459h-10.956c-0.282 0-0.51 0.228-0.51 0.511s0.228 0.511 0.51 0.511h1.725v4.742h7.779v-4.742h1.452c0.282 0 0.511-0.228 0.511-0.511s-0.228-0.511-0.51-0.511zM6.197 23.48h3.626v3.721h-3.626v-3.721zM11.934 27.201h-1.118v-3.721h1.118v3.721z"></path>
</svg>
