<!-- Generated by IcoMoon.io -->
<svg version="1.1" xmlns="http://www.w3.org/2000/svg" width="32" height="32" viewBox="0 0 32 32">
<title>law</title>
<path d="M21.568 21.76h-5.661c-2.135 0.002-3.865 1.731-3.869 3.865v0c0 0.295 0.239 0.534 0.534 0.534v0h12.326c0.295 0 0.534-0.239 0.534-0.534v0c-0.004-2.133-1.732-3.862-3.865-3.866h-0zM13.158 25.091c0.262-1.299 1.392-2.263 2.749-2.266h5.661c0.001 0 0.002 0 0.003 0 1.357 0 2.489 0.966 2.746 2.248l0.003 0.018zM16 0c-8.837 0-16 7.163-16 16s7.163 16 16 16c8.837 0 16-7.163 16-16v0c-0.011-8.832-7.168-15.989-15.999-16h-0.001zM16 30.931c-8.246 0-14.931-6.685-14.931-14.931s6.685-14.931 14.931-14.931c8.246 0 14.931 6.685 14.931 14.931v0c-0.009 8.243-6.689 14.922-14.93 14.931h-0.001zM25.629 11.99l-1.238-0.87-5.568-5.568-0.96-1.347c-0.184-0.259-0.483-0.426-0.822-0.426-0.276 0-0.526 0.111-0.708 0.292l0-0-4.294 4.31c-0.182 0.18-0.295 0.43-0.295 0.706 0 0.031 0.001 0.061 0.004 0.092l-0-0.004c0.021 0.307 0.178 0.574 0.41 0.744l0.003 0.002 1.373 0.96 1.459 1.456-9.814 9.184c-0.323 0.3-0.526 0.726-0.528 1.2v0c-0 0.010-0 0.021-0 0.033 0 0.464 0.189 0.883 0.493 1.186l0.906 0.906c0.303 0.304 0.722 0.493 1.185 0.493 0.002 0 0.004 0 0.006 0h0.029c0.47-0.005 0.893-0.207 1.189-0.527l0.001-0.001 9.19-9.83 1.446 1.443 0.864 1.235c0.191 0.27 0.493 0.451 0.838 0.477l0.004 0h0.099c0.004 0 0.008 0 0.013 0 0.305 0 0.582-0.122 0.784-0.32l4.096-4.096c0.205-0.204 0.331-0.486 0.331-0.798 0-0.381-0.189-0.717-0.478-0.921l-0.004-0.002zM7.68 24.070c-0.111 0.113-0.266 0.184-0.437 0.184s-0.326-0.070-0.437-0.184l-0-0-0.909-0.906c-0.111-0.111-0.179-0.264-0.179-0.433 0-0.004 0-0.009 0-0.013v0.001c0.002-0.169 0.074-0.321 0.189-0.428l0-0 9.821-9.171 1.136 1.136zM17.046 4.87l0.669 0.96-3.914 3.917-0.96-0.669zM18.41 6.64l4.893 4.902-3.782 3.789-4.899-4.89zM25.021 12.944l-4.093 4.109c-0.010 0.010-0.024 0.017-0.039 0.017-0.003 0-0.006-0-0.009-0.001l0 0c-0 0-0 0-0 0-0.019 0-0.035-0.010-0.044-0.025l-0-0-0.64-0.893 3.926-3.914 0.893 0.64c0.015 0.010 0.025 0.026 0.026 0.045v0c-0.002 0.014-0.009 0.027-0.019 0.035l-0 0z"></path>
</svg>
