<!-- Generated by IcoMoon.io -->
<svg version="1.1" xmlns="http://www.w3.org/2000/svg" width="32" height="32" viewBox="0 0 32 32">
<title>legacy-app</title>
<path d="M4.426 3.93c0 0.504-0.408 0.912-0.912 0.912s-0.912-0.408-0.912-0.912c0-0.504 0.408-0.912 0.912-0.912s0.912 0.408 0.912 0.912zM9.896 3.93c0 0.504-0.408 0.912-0.912 0.912s-0.912-0.408-0.912-0.912c0-0.504 0.408-0.912 0.912-0.912s0.912 0.408 0.912 0.912zM7.161 3.93c0 0.504-0.408 0.912-0.912 0.912s-0.912-0.408-0.912-0.912c0-0.504 0.408-0.912 0.912-0.912s0.912 0.408 0.912 0.912zM2.16 25.419c-0.595 0-1.077-0.481-1.077-1.077l-0.005-17.227 27.995-0.008 0.001 4.893c0.37 0.152 0.729 0.323 1.077 0.513l-0.003-9.714c-0-1.189-0.965-2.153-2.154-2.153l-25.842 0.008c-1.189 0-2.153 0.965-2.152 2.154l0.006 21.535c0 1.189 0.965 2.153 2.154 2.153l14.346-0.004-0-1.077-14.346 0.004zM1.080 2.804c0-0.594 0.482-1.077 1.077-1.077h25.842c0.595 0 1.077 0.483 1.077 1.077v3.23h-27.995v-3.23zM31.728 15.573h-0.007c-0.275-1.934-3.23-3.328-7.101-3.328s-6.826 1.393-7.101 3.328h-0.030l0.001 12.244 0.019 0.14c0.215 1.941 3.249 3.397 7.111 3.397 3.906 0 6.965-1.489 7.118-3.473l0.010-12.021-0.020-0.287zM18.31 15.86c0-1.299 2.535-2.691 6.311-2.691 3.746 0 6.286 1.382 6.308 2.671v0.034c-0.022 1.291-2.562 2.675-6.308 2.675-3.775 0-6.311-1.391-6.311-2.69zM18.306 20.589v-3.021c1.205 1.182 3.583 1.905 6.314 1.905 2.726 0 5.101-0.722 6.308-1.9v3.093c-0.804 0.712-2.677 1.862-6.373 1.862-3.715-0-5.5-1.199-6.248-1.939zM18.306 24.898v-3.094c1.057 0.8 2.967 1.681 6.248 1.681 3.295 0 5.266-0.867 6.373-1.649v3.139c-0.804 0.712-2.677 1.862-6.373 1.862-3.715 0-5.5-1.199-6.248-1.939zM30.928 26.145v1.611c-0.023 1.291-2.563 2.674-6.308 2.674-3.775 0-6.311-1.391-6.311-2.695l-0.003-1.622c1.057 0.8 2.967 1.681 6.248 1.681 3.294 0 5.266-0.866 6.373-1.649z"></path>
</svg>
