<!-- Generated by IcoMoon.io -->
<svg version="1.1" xmlns="http://www.w3.org/2000/svg" width="32" height="32" viewBox="0 0 32 32">
<title>lightbulb</title>
<path d="M27.515 12.306c0-6.419-5.222-11.642-11.641-11.642s-11.641 5.223-11.641 11.642c0 4.204 2.258 8.051 5.906 10.121l0.564 5.639c0.028 0.283 0.267 0.499 0.552 0.499h1.344c0.265 1.571 1.631 2.772 3.276 2.772s3.011-1.201 3.276-2.772h1.344c0.285 0 0.523-0.216 0.551-0.499l0.564-5.639c3.648-2.069 5.905-5.916 5.905-10.121zM15.874 30.228c-1.031 0-1.9-0.708-2.147-1.663h4.295c-0.247 0.955-1.116 1.663-2.147 1.663zM19.992 27.456h-8.236l-0.481-4.813h9.199l-0.482 4.813zM20.946 21.535h-3.131v-7.153l1.686-1.685c0.108-0.108 0.163-0.25 0.163-0.392s-0.054-0.284-0.163-0.392c-0.217-0.217-0.567-0.216-0.784-0l-1.848 1.847c-0.104 0.104-0.163 0.245-0.163 0.392v7.383h-1.663v-7.382c0-0.147-0.058-0.288-0.163-0.392l-1.848-1.847c-0.217-0.217-0.568-0.217-0.784 0-0.108 0.108-0.163 0.25-0.163 0.392s0.054 0.284 0.163 0.392l1.685 1.685v7.153h-3.131c-3.372-1.855-5.461-5.379-5.461-9.229 0-5.808 4.725-10.533 10.532-10.533s10.532 4.725 10.532 10.533c0 3.85-2.089 7.374-5.461 9.229zM15.874 3.435c-0.306 0-0.554 0.248-0.554 0.554s0.248 0.554 0.554 0.554c4.279 0 7.76 3.481 7.76 7.761 0 0.306 0.248 0.554 0.554 0.554s0.554-0.248 0.554-0.554c0-4.891-3.979-8.87-8.869-8.87z"></path>
</svg>
