<!-- Generated by IcoMoon.io -->
<svg version="1.1" xmlns="http://www.w3.org/2000/svg" width="32" height="32" viewBox="0 0 32 32">
<title>like</title>
<path d="M7.423 31.884h-4.94c-1.369 0-2.483-1.114-2.483-2.484v-14.888c0-1.369 1.114-2.484 2.483-2.484h4.94c1.369 0 2.484 1.115 2.484 2.484v14.888c0 1.37-1.115 2.484-2.484 2.484zM2.483 14.014c-0.274 0-0.498 0.223-0.498 0.498v14.888c0 0.274 0.224 0.498 0.498 0.498h4.94c0.275 0 0.498-0.224 0.498-0.498v-14.888c0-0.275-0.223-0.498-0.498-0.498h-4.94zM25.62 31.884h-12.032c-0.612 0-1.225-0.145-1.774-0.419l-3.344-1.672c-0.49-0.245-0.689-0.842-0.444-1.332s0.841-0.689 1.332-0.444l3.344 1.672c0.274 0.137 0.58 0.21 0.885 0.21h12.032c0.362 0 0.7-0.196 0.881-0.511l1.121-1.962c1.401-2.451 2.141-5.241 2.141-8.064v-3.36c0-1.096-0.892-1.987-1.987-1.987h-7.473c-0.659 0-1.272-0.326-1.641-0.871s-0.443-1.236-0.198-1.846c0.911-2.275 1.372-4.673 1.372-7.126v-1.151c0-0.506-0.412-0.919-0.919-0.919h-0.617c-0.408 0-0.771 0.274-0.884 0.666l-0.388 1.361c-0.834 2.916-2.217 5.594-4.111 7.963-0.977 1.222-2.434 1.923-4 1.923h-2.978c-0.548 0-0.993-0.445-0.993-0.993s0.445-0.993 0.993-0.993h2.978c0.958 0 1.852-0.43 2.45-1.178 1.728-2.162 2.991-4.608 3.752-7.268l0.389-1.361c0.354-1.239 1.503-2.106 2.793-2.106h0.617c1.602 0 2.905 1.303 2.905 2.905v1.151c0 2.707-0.51 5.353-1.515 7.864l7.47-0.006c2.191 0 3.973 1.782 3.973 3.973v3.36c0 3.169-0.831 6.299-2.404 9.050l-1.121 1.962c-0.533 0.932-1.531 1.511-2.604 1.511zM4.943 25.928c0.548 0 0.993 0.444 0.993 0.993s-0.445 0.993-0.993 0.993c-0.548 0-0.993-0.444-0.993-0.993s0.445-0.993 0.993-0.993z"></path>
</svg>
