<!-- Generated by IcoMoon.io -->
<svg version="1.1" xmlns="http://www.w3.org/2000/svg" width="32" height="32" viewBox="0 0 32 32">
<title>lock</title>
<path d="M15.874 1.471c4.124 0 7.467 3.343 7.467 7.467v2.692h3.247c0.769 0 1.393 0.624 1.393 1.392v16.115c0 0.77-0.624 1.393-1.393 1.393h-21.427c-0.769 0-1.393-0.623-1.393-1.393v-16.115c0-0.769 0.624-1.392 1.393-1.392h3.247v-2.692c0-4.123 3.343-7.466 7.466-7.466zM11.772 11.629h8.204v-2.858c0-2.265-1.837-4.101-4.102-4.101s-4.102 1.836-4.102 4.101v2.858zM15.874 26.876c0.707 0 1.279-0.573 1.279-1.279v-4.449c0.931-0.47 1.575-1.424 1.575-2.538 0-1.576-1.278-2.854-2.854-2.854s-2.854 1.278-2.854 2.854c0 1.113 0.644 2.067 1.575 2.538v4.449c0 0.706 0.572 1.279 1.279 1.279zM15.874 0.126c-4.859 0-8.811 3.953-8.811 8.811v1.347h-1.902c-1.51 0-2.738 1.228-2.738 2.737v16.115c0 1.51 1.228 2.738 2.738 2.738h21.427c1.51 0 2.738-1.228 2.738-2.738v-16.115c0-1.51-1.228-2.737-2.738-2.737h-1.902v-1.347c0-4.858-3.952-8.811-8.812-8.811zM13.117 10.284v-1.513c0-1.52 1.237-2.757 2.757-2.757s2.757 1.237 2.757 2.757v1.513h-5.515zM15.874 20.288l-0.672-0.34c-0.517-0.261-0.837-0.773-0.837-1.337 0-0.832 0.677-1.509 1.509-1.509s1.509 0.677 1.509 1.509c0 0.564-0.32 1.077-0.837 1.337l-0.672 0.34z"></path>
</svg>
