<!-- Generated by IcoMoon.io -->
<svg version="1.1" xmlns="http://www.w3.org/2000/svg" width="32" height="32" viewBox="0 0 32 32">
<title>messaging</title>
<path d="M22.29 22.141c-0.423-0.192-0.822-0.372-1.108-0.562-0.263-0.175-0.509-0.318-0.736-0.449-0.906-0.523-1.319-0.762-1.319-2.335 0-1.969 1.613-3.24 1.628-3.252l0.084-0.065 0.047-0.095c0.541-1.106 0.276-2.039 0.096-2.459 1.176-2.606-0.247-4.763-0.549-5.175-0.765-2.203-2.398-2.668-3.639-2.668-1.472 0-2.779 0.645-2.8 0.657-1.362 0.545-2.29 1.414-2.759 2.583-0.758 1.888-0.070 3.962 0.179 4.599-0.611 1.475 0.093 2.483 0.125 2.527l0.095 0.097c0.016 0.012 1.626 1.256 1.626 3.25 0 1.931-1.059 2.284-2.399 2.731l-0.175 0.058c-1.509 0.497-4.647 1.529-4.647 4.884v0.451h19.866l-0.008-0.459c-0.049-2.708-2.105-3.639-3.607-4.318zM6.967 26.016c0.274-2.349 2.674-3.139 4-3.574l0.179-0.060c1.344-0.448 3.016-1.005 3.016-3.587 0-2.217-1.554-3.62-1.914-3.915-0.097-0.174-0.383-0.822 0.064-1.757l0.004-0.382c-0.010-0.022-0.991-2.221-0.244-4.083 0.374-0.932 1.133-1.632 2.291-2.096 0.012-0.006 1.178-0.578 2.431-0.578 1.412 0 2.331 0.694 2.807 2.122l0.025 0.076 0.050 0.063c0.016 0.020 1.611 2.059 0.4 4.481l-0.113 0.227 0.135 0.215c0.005 0.007 0.455 0.743 0.017 1.732-0.394 0.333-1.891 1.744-1.891 3.895 0 1.993 0.673 2.482 1.771 3.116 0.212 0.122 0.442 0.255 0.687 0.418 0.347 0.231 0.778 0.427 1.236 0.634 1.317 0.596 2.796 1.265 3.042 3.052h-17.992zM4.198 21.712c0.394-0.18 0.766-0.349 1.067-0.551 0.209-0.14 0.404-0.254 0.585-0.359 0.831-0.484 1.55-0.901 1.55-2.745 0-1.86-1.27-3.087-1.631-3.398-0.342-0.795 0.003-1.393 0.019-1.419l0.127-0.215-0.108-0.229c-1.009-2.033 0.28-3.719 0.336-3.79l0.049-0.063 0.026-0.077c0.397-1.199 1.162-1.781 2.339-1.781 1.063 0 2.040 0.485 2.050 0.491 0.004 0.001 0.007 0.004 0.011 0.005 0.054-0.089 0.105-0.17 0.148-0.233 0.076-0.206 0.167-0.396 0.259-0.583-0.017-0.007-0.029-0.017-0.047-0.024-0.013-0.008-1.146-0.571-2.421-0.571-1.083 0-2.507 0.408-3.176 2.335-0.276 0.383-1.475 2.245-0.483 4.494-0.159 0.386-0.368 1.195 0.095 2.148l0.047 0.096 0.085 0.066c0.012 0.010 1.367 1.086 1.367 2.748 0 1.316-0.32 1.502-1.095 1.953-0.196 0.114-0.408 0.237-0.634 0.39-0.239 0.16-0.579 0.315-0.938 0.479-1.301 0.594-3.085 1.406-3.127 3.784l-0.008 0.465h4.708c0.090-0.332 0.209-0.637 0.353-0.915h-4.104c0.239-1.446 1.462-2.004 2.553-2.501zM31.304 24.662c-0.042-2.378-1.826-3.19-3.127-3.783-0.359-0.164-0.699-0.318-0.938-0.479-0.227-0.152-0.438-0.276-0.634-0.39-0.775-0.451-1.095-0.637-1.095-1.953 0-1.662 1.355-2.739 1.367-2.748l0.085-0.066 0.047-0.096c0.462-0.952 0.253-1.762 0.095-2.148 0.992-2.25-0.207-4.112-0.483-4.494-0.669-1.927-2.093-2.335-3.176-2.335-1.275 0-2.408 0.563-2.421 0.571-0.017 0.007-0.030 0.017-0.047 0.024 0.092 0.187 0.183 0.377 0.259 0.583 0.043 0.063 0.094 0.145 0.148 0.233 0.004-0.002 0.007-0.004 0.011-0.005 0.010-0.005 0.987-0.491 2.050-0.491 1.177 0 1.942 0.583 2.339 1.781l0.026 0.077 0.049 0.063c0.055 0.071 1.345 1.757 0.336 3.79l-0.108 0.229 0.127 0.215c0.015 0.026 0.361 0.625 0.019 1.419-0.361 0.312-1.631 1.539-1.631 3.398 0 1.844 0.718 2.261 1.55 2.745 0.18 0.105 0.376 0.219 0.585 0.359 0.301 0.202 0.673 0.372 1.067 0.551 1.091 0.497 2.314 1.054 2.553 2.501h-4.104c0.144 0.278 0.263 0.582 0.353 0.915h4.708l-0.008-0.466z"></path>
</svg>
