<!-- Generated by IcoMoon.io -->
<svg version="1.1" xmlns="http://www.w3.org/2000/svg" width="32" height="32" viewBox="0 0 32 32">
<title>messenger</title>
<path d="M26.267 4.377c0.775 0 0.775 1.179 0 1.179-3.268 0-6.536 0-9.803 0-0.775 0-0.775-1.179 0-1.179 3.268 0 6.536 0 9.803 0zM26.267 7.039c0.775 0 0.775 1.179 0 1.179-3.268 0-6.536 0-9.803 0-0.775 0-0.775-1.179 0-1.179 3.268 0 6.536 0 9.803 0zM24.178 9.667c0.741 0 0.741 1.179 0 1.179-2.56 0-5.121 0-7.681 0-0.775 0-0.775-1.179 0-1.179 2.56 0 5.121 0 7.681 0zM19.529 21.457c0 0.977 0.809 1.785 1.785 1.785 1.011 0 1.785-0.809 1.785-1.785s-0.809-1.785-1.785-1.785c-0.977 0-1.785 0.809-1.785 1.785zM18.35 21.457c0-1.617 1.314-2.965 2.965-2.965s2.965 1.347 2.965 2.965-1.314 2.965-2.965 2.965c-1.617 0-2.965-1.348-2.965-2.965zM21.281 26.511c-0.472 0-0.91-0.169-1.314-0.303-0.505-0.202-0.809-0.27-1.011-0.169-0.842 0.472-1.314 1.213-1.449 2.19h6.401c0.303 0 0.674 0.101 1.112 0.27-0.067-0.91-0.573-1.954-1.415-2.426-0.202-0.135-0.539-0.034-1.011 0.135-0.37 0.135-0.842 0.303-1.314 0.303zM7.401 28.229h8.86c0.135-1.415 0.842-2.526 2.089-3.2 0.674-0.37 1.381-0.135 1.954 0.067 0.337 0.135 0.674 0.236 0.943 0.236 0.303 0 0.606-0.135 0.943-0.236 0.573-0.202 1.28-0.438 1.988-0.067 1.449 0.775 2.122 2.56 2.021 3.942 0.101 0.034 0.236 0.067 0.337 0.135 0.539 0.236 1.415 0.606 2.055 0.809-1.449-2.695-1.112-3.032-0.91-3.268 1.011-1.011 1.583-2.358 1.583-3.807 0-2.965-2.426-5.39-5.39-5.39h-16.473c-2.965 0-5.39 2.426-5.39 5.39s2.426 5.39 5.39 5.39zM30.141 30.25l0.303 0.505-0.505 0.303c-0.202 0.101-0.404 0.169-0.674 0.169-0.741 0-1.785-0.404-3.2-1.044-0.775-0.337-1.785-0.775-2.122-0.775h-16.473c-3.638 0-6.569-2.931-6.569-6.569s2.965-6.569 6.569-6.569h16.474c3.605 0 6.569 2.931 6.569 6.536 0 1.685-0.64 3.268-1.785 4.481 0.101 0.505 0.775 1.886 1.415 2.964zM15.251 19.874c0.775 0 0.775 1.179 0 1.179-3.268 0-6.536 0-9.803 0-0.775 0-0.775-1.179 0-1.179 3.268 0 6.536 0 9.803 0zM15.251 22.535c0.775 0 0.775 1.179 0 1.179-3.268 0-6.536 0-9.803 0-0.775 0-0.775-1.179 0-1.179 3.268 0 6.536 0 9.803 0zM15.251 25.163c0.775 0 0.775 1.179 0 1.179-2.56 0-5.121 0-7.681 0-0.775 0-0.775-1.179 0-1.179 2.56 0 5.121 0 7.681 0zM10.4 7.746c1.011 0 1.786-0.809 1.786-1.785s-0.809-1.785-1.786-1.785c-0.977 0-1.786 0.809-1.786 1.785s0.809 1.785 1.786 1.785zM13.364 5.961c0 1.617-1.314 2.965-2.965 2.965-1.617 0-2.965-1.314-2.965-2.965 0-1.617 1.314-2.965 2.965-2.965s2.998 1.314 2.965 2.965zM10.433 10.98c-0.472 0-0.91-0.169-1.314-0.303-0.472-0.169-0.775-0.27-1.011-0.135-0.842 0.472-1.347 1.516-1.415 2.426 0.438-0.169 0.809-0.236 1.078-0.27h6.434c-0.135-1.011-0.606-1.718-1.449-2.19-0.236-0.101-0.539 0-1.011 0.169-0.37 0.135-0.842 0.303-1.314 0.303zM7.503 9.532c0.707-0.37 1.415-0.135 1.988 0.067 0.337 0.135 0.64 0.236 0.943 0.236s0.606-0.101 0.943-0.236c0.573-0.202 1.28-0.438 1.954-0.067 1.246 0.674 1.954 1.752 2.089 3.2h8.86c2.965 0 5.323-2.426 5.323-5.39s-2.426-5.39-5.39-5.39h-16.473c-2.965 0-5.39 2.426-5.39 5.39 0 1.449 0.573 2.796 1.583 3.807 0.27 0.236 0.606 0.606-0.842 3.301 0.64-0.236 1.516-0.606 2.055-0.842 0.101-0.034 0.236-0.101 0.337-0.135-0.101-1.381 0.606-3.167 2.021-3.942zM24.279 0.773c3.605 0 6.569 2.965 6.569 6.603s-2.965 6.569-6.569 6.569h-16.473c-0.337 0-1.314 0.438-2.122 0.775-1.415 0.606-2.459 1.044-3.2 1.044-0.27 0-0.472-0.067-0.674-0.169l-0.505-0.303 0.303-0.505c0.64-1.112 1.314-2.459 1.415-2.965-1.145-1.213-1.786-2.796-1.786-4.481 0-3.638 2.965-6.569 6.569-6.569l16.473 0z"></path>
</svg>
