<!-- Generated by IcoMoon.io -->
<svg version="1.1" xmlns="http://www.w3.org/2000/svg" width="32" height="32" viewBox="0 0 32 32">
<title>mfa</title>
<path d="M24.557 12.674c0.123-1.363-0.164-4.553-2.137-6.875-1.441-1.696-3.496-2.651-6.106-2.837-4.149-0.296-6.534 1.976-7.804 3.934-1.405 2.166-1.783 4.386-1.787 4.408-0.063 0.378 0.193 0.737 0.571 0.8s0.737-0.192 0.801-0.57c0.053-0.313 1.367-7.667 8.12-7.183 2.223 0.159 3.954 0.949 5.145 2.35 1.737 2.044 1.897 4.915 1.812 5.848-0.002 0.022-0.19 2.226 0.135 3.764l0.029 0.137 0.14 0.003c0.347 0.008 0.694 0.040 1.061 0.098l0.276 0.044-0.080-0.268c-0.215-0.72-0.294-2.358-0.176-3.652zM21.777 13.344l-0.176-0.009 0.177 0.003c0.025-0.479 0.052-0.975 0.070-1.524 0.092-2.708-1.351-5.765-5.675-6.22-4.141-0.435-5.434 2.884-6.378 5.308l-0.215 0.548c-0.597 1.492-1.968 1.53-2.13 1.53-0.269-0.092-0.569-0.010-0.753 0.209-0.248 0.292-0.212 0.732 0.081 0.98 0.401 0.34 1.254 0.16 1.506 0.097 0.692-0.172 1.948-0.699 2.589-2.302l0.219-0.559c0.867-2.228 1.85-4.754 4.936-4.429 1.376 0.145 4.563 0.901 4.43 4.79-0.017 0.504-0.041 0.965-0.065 1.411l-0.005 0.093c-0.076 1.414-0.135 2.532 0.123 3.478l0.049 0.181 0.177-0.060c0.354-0.12 0.674-0.208 0.978-0.269l0.185-0.037-0.049-0.182c-0.197-0.729-0.143-1.748-0.074-3.038zM16.248 8.309c-1.185-0.185-2.783 0.122-3.679 2.63-0.094 0.264-0.181 0.519-0.264 0.764-0.429 1.258-0.738 2.168-1.511 2.664-2.033 1.307-3.76 1.247-3.776 1.246-0.382-0.023-0.71 0.272-0.732 0.654s0.271 0.713 0.654 0.735c0.088 0.005 2.167 0.103 4.606-1.465 1.18-0.759 1.595-1.976 2.076-3.388 0.081-0.238 0.165-0.485 0.257-0.742 0.614-1.719 1.434-1.836 2.154-1.724 1.385 0.217 1.943 1.096 1.758 2.769-0.384 3.454-1.856 5.724-4.376 6.744-3.080 1.248-5.681 1.789-5.79 1.811-0.182 0.037-0.339 0.142-0.443 0.297s-0.14 0.34-0.103 0.522c0.065 0.324 0.351 0.559 0.681 0.559 0.045 0 0.091-0.004 0.137-0.014 0.112-0.023 2.783-0.566 6.040-1.886 2.987-1.21 4.798-3.935 5.236-7.88 0.365-3.284-1.676-4.101-2.926-4.297zM7.159 18.324c-0.383 0.015-0.683 0.339-0.668 0.722 0.014 0.375 0.319 0.669 0.695 0.669 0.010 0 0.019 0 0.026-0 0.024-0.001 2.377-0.098 4.725-1.16 3.055-1.382 4.621-3.756 4.529-6.867v0c-0.005-0.186-0.083-0.358-0.218-0.486s-0.316-0.193-0.498-0.189c-0.383 0.011-0.686 0.332-0.675 0.716 0.182 6.21-7.586 6.584-7.917 6.597zM15.439 23.149c0.068-0.428 0.149-0.791 0.249-1.112l0.094-0.301-7.494 1.908c-0.372 0.095-0.597 0.474-0.503 0.846 0.078 0.309 0.356 0.524 0.674 0.524 0.058 0 0.117-0.007 0.172-0.022l6.79-1.728 0.018-0.115zM15.455 25.757c-0.056-0.328-0.092-0.672-0.107-1.022l-0.009-0.217-5.409 1.386c-0.371 0.095-0.596 0.475-0.501 0.846 0.079 0.308 0.356 0.523 0.673 0.523 0.058 0 0.117-0.008 0.173-0.022l5.207-1.334-0.027-0.16zM15.819 27.125l-0.053-0.147-3.683 0.853c-0.181 0.042-0.335 0.152-0.433 0.309s-0.129 0.344-0.088 0.525c0.073 0.317 0.352 0.539 0.677 0.539 0.053 0 0.105-0.006 0.157-0.018l3.941-0.912-0.105-0.202c-0.152-0.291-0.287-0.601-0.413-0.947zM0.696 7.022c0.383 0 0.696-0.312 0.696-0.696v-3.462c0-0.788 0.641-1.429 1.429-1.429h3.257c0.383 0 0.696-0.312 0.696-0.696s-0.312-0.696-0.696-0.696h-3.257c-1.555 0-2.82 1.265-2.82 2.82v3.462c0 0.383 0.312 0.696 0.695 0.696zM6.077 30.565h-3.257c-0.788 0-1.429-0.641-1.429-1.429v-3.462c0-0.384-0.312-0.696-0.696-0.696s-0.696 0.312-0.696 0.696v3.462c0 1.555 1.265 2.82 2.82 2.82h3.257c0.383 0 0.696-0.312 0.696-0.696s-0.312-0.696-0.696-0.696zM28.928 0.044h-3.257c-0.384 0-0.696 0.312-0.696 0.696s0.312 0.696 0.696 0.696h3.257c0.788 0 1.429 0.641 1.429 1.429v3.462c0 0.383 0.312 0.696 0.696 0.696s0.696-0.312 0.696-0.696v-3.462c-0-1.555-1.265-2.82-2.82-2.82zM24.289 31.868c-3.906 0-7.084-3.178-7.084-7.085s3.178-7.085 7.084-7.085 7.085 3.178 7.085 7.085-3.178 7.085-7.085 7.085zM24.289 18.928c-3.228 0-5.854 2.627-5.854 5.855s2.627 5.855 5.854 5.855c3.229 0 5.855-2.627 5.855-5.855s-2.626-5.855-5.855-5.855zM28.022 23.659l-4.245 4.245c-0.142 0.141-0.372 0.141-0.514 0-0.003-0.003-0.006-0.003-0.008-0.006l-2.49-2.445c-0.142-0.139-0.145-0.37-0.003-0.513l0.707-0.721c0.139-0.142 0.372-0.145 0.514-0.004l1.528 1.501 3.286-3.286c0.142-0.14 0.372-0.14 0.514 0l0.713 0.714c0.142 0.141 0.142 0.372 0 0.514z"></path>
</svg>
