<!-- Generated by IcoMoon.io -->
<svg version="1.1" xmlns="http://www.w3.org/2000/svg" width="32" height="32" viewBox="0 0 32 32">
<title>misc</title>
<path d="M32 16c0-0.676-0.376-1.284-0.981-1.588l-2.383-1.191 2.383-1.191c0 0 0 0 0 0 0.605-0.303 0.981-0.911 0.981-1.587s-0.376-1.284-0.981-1.587l-13.452-6.725c-0.982-0.491-2.154-0.491-3.137 0l-13.451 6.726c-0.605 0.303-0.981 0.911-0.981 1.587s0.376 1.284 0.981 1.588l2.383 1.191-2.383 1.191c-0.605 0.303-0.98 0.911-0.98 1.587s0.376 1.284 0.981 1.587l2.383 1.191-2.382 1.191c-0.605 0.302-0.981 0.91-0.981 1.587s0.375 1.285 0.981 1.588l13.451 6.725c0.491 0.245 1.029 0.368 1.568 0.368s1.077-0.123 1.568-0.368l13.451-6.725c0.605-0.303 0.981-0.911 0.981-1.588s-0.376-1.284-0.981-1.586l-2.383-1.191 2.383-1.191c0.605-0.303 0.98-0.911 0.98-1.588zM1.639 10.715c-0.146-0.073-0.168-0.202-0.168-0.272s0.022-0.198 0.168-0.271l13.451-6.725c0.285-0.142 0.598-0.214 0.911-0.214s0.626 0.071 0.91 0.213l13.451 6.725c0.146 0.073 0.168 0.202 0.168 0.272s-0.022 0.198-0.168 0.272l-13.45 6.725c-0.57 0.285-1.251 0.285-1.821 0l-13.451-6.725zM30.361 21.286c0.146 0.073 0.167 0.201 0.167 0.271s-0.022 0.199-0.168 0.272l-13.45 6.725c-0.57 0.285-1.251 0.285-1.821 0l-13.451-6.725c-0.146-0.073-0.168-0.202-0.168-0.272s0.022-0.198 0.168-0.271l3.37-1.685 9.423 4.712c0.491 0.245 1.029 0.368 1.568 0.368s1.077-0.123 1.568-0.368l9.423-4.712 3.37 1.685zM30.361 16.272l-13.45 6.725c-0.57 0.285-1.251 0.285-1.821 0l-13.451-6.725c-0.146-0.073-0.168-0.202-0.168-0.272s0.022-0.198 0.168-0.271l3.37-1.685 9.423 4.712c0.491 0.245 1.029 0.368 1.568 0.368s1.077-0.123 1.568-0.368l9.423-4.712 3.369 1.684c0.146 0.073 0.168 0.202 0.168 0.272s-0.022 0.198-0.168 0.272z"></path>
</svg>
