<!-- Generated by IcoMoon.io -->
<svg version="1.1" xmlns="http://www.w3.org/2000/svg" width="32" height="32" viewBox="0 0 32 32">
<title>mobile-download</title>
<path d="M22.287 0.819h-12.826c-1.453 0-2.635 1.182-2.635 2.635v25.090c0 1.453 1.182 2.635 2.635 2.635h12.826c1.453 0 2.635-1.182 2.635-2.635v-25.090c0-1.453-1.182-2.635-2.635-2.635zM23.964 28.545c0 0.924-0.752 1.676-1.677 1.676h-12.826c-0.925 0-1.677-0.752-1.677-1.676v-2.758h16.179v2.758zM23.964 24.828h-16.179v-17.657h16.179v17.657zM23.964 6.212h-16.179v-2.758c0-0.925 0.752-1.676 1.677-1.676h12.826c0.924 0 1.677 0.752 1.677 1.676v2.758zM17.298 3.516h-2.847c-0.265 0-0.479 0.215-0.479 0.479s0.215 0.479 0.479 0.479h2.847c0.265 0 0.479-0.215 0.479-0.479s-0.215-0.479-0.479-0.479zM15.874 29.638c0.897 0 1.627-0.73 1.627-1.627s-0.73-1.627-1.627-1.627c-0.897 0-1.627 0.73-1.627 1.627s0.73 1.627 1.627 1.627zM15.874 27.343c0.369 0 0.668 0.3 0.668 0.668s-0.3 0.668-0.668 0.668c-0.369 0-0.669-0.3-0.669-0.668s0.3-0.668 0.669-0.668zM13.867 19.662h0.27c0.265 0 0.479-0.215 0.479-0.479s-0.215-0.479-0.479-0.479h-0.27c-1.089 0-1.974-0.885-1.974-1.974v-4.015c0-1.088 0.885-1.974 1.974-1.974h4.015c1.089 0 1.974 0.885 1.974 1.974v4.015c0 1.088-0.885 1.974-1.974 1.974h-0.39c-0.265 0-0.479 0.215-0.479 0.479s0.215 0.479 0.479 0.479h0.39c1.617 0 2.933-1.316 2.933-2.933v-4.015c0-1.617-1.316-2.933-2.933-2.933h-4.015c-1.617 0-2.933 1.316-2.933 2.933v4.015c0 1.617 1.316 2.933 2.933 2.933zM17.057 20.544l-0.657 0.658v-4.962c0-0.265-0.215-0.479-0.479-0.479s-0.479 0.215-0.479 0.479v5.052l-0.748-0.748c-0.187-0.187-0.491-0.187-0.678 0s-0.187 0.491 0 0.678l1.521 1.521c0.090 0.090 0.212 0.14 0.339 0.14s0.249-0.050 0.339-0.14l1.521-1.521c0.187-0.187 0.187-0.491 0-0.678s-0.491-0.187-0.678 0z"></path>
</svg>
