<!-- Generated by IcoMoon.io -->
<svg version="1.1" xmlns="http://www.w3.org/2000/svg" width="32" height="32" viewBox="0 0 32 32">
<title>mobile-apps</title>
<path d="M22.861 30.731c0.421 0 0.762-0.341 0.762-0.762s-0.341-0.762-0.762-0.762c-0.421 0-0.762 0.341-0.762 0.762s0.341 0.762 0.762 0.762zM28.194 10.542h-10.666c-0.841 0-1.524 0.682-1.524 1.524v18.285c0 0.841 0.682 1.524 1.524 1.524h10.666c0.841 0 1.524-0.682 1.524-1.524v-18.284c0-0.842-0.682-1.524-1.524-1.524zM28.956 30.35c0 0.421-0.341 0.762-0.762 0.762h-10.666c-0.421 0-0.762-0.341-0.762-0.762v-1.524h12.19v1.524zM28.956 28.065h-12.19v-13.713h12.19v13.713zM28.956 13.589h-12.19v-1.524c0-0.421 0.341-0.762 0.762-0.762h10.666c0.421 0 0.762 0.341 0.762 0.762v1.524zM23.623 12.066h-1.524c-0.21 0-0.381 0.171-0.381 0.381s0.171 0.381 0.381 0.381h1.524c0.21 0 0.381-0.171 0.381-0.381s-0.171-0.381-0.381-0.381zM5.565 2.748c0 0.402-0.326 0.728-0.728 0.728s-0.728-0.326-0.728-0.728c0-0.402 0.326-0.728 0.728-0.728s0.728 0.326 0.728 0.728zM9.933 2.748c0 0.402-0.326 0.728-0.728 0.728s-0.728-0.326-0.728-0.728c0-0.402 0.326-0.728 0.728-0.728s0.728 0.326 0.728 0.728zM7.749 2.748c0 0.402-0.326 0.728-0.728 0.728s-0.728-0.326-0.728-0.728c0-0.402 0.326-0.728 0.728-0.728s0.728 0.326 0.728 0.728zM3.755 19.909c-0.475 0-0.86-0.384-0.86-0.86l-0.004-13.758 22.357-0.006 0.001 4.317 0.86 0-0.003-7.757c-0-0.95-0.771-1.719-1.72-1.719l-20.637 0.006c-0.95 0-1.719 0.771-1.719 1.72l0.005 17.198c0 0.95 0.771 1.719 1.72 1.719l11.457-0.003-0-0.86-11.457 0.003zM2.893 1.849c0-0.474 0.385-0.86 0.86-0.86h20.637c0.475 0 0.86 0.385 0.86 0.86v2.58h-22.357v-2.58zM20.003 18.38h-1.49c-0.141 0-0.255-0.114-0.255-0.255v-1.49c0-0.141 0.114-0.255 0.255-0.255h1.49c0.141 0 0.255 0.114 0.255 0.255v1.49c0 0.141-0.114 0.255-0.255 0.255zM23.66 18.38h-1.49c-0.141 0-0.255-0.114-0.255-0.255v-1.49c0-0.141 0.114-0.255 0.255-0.255h1.49c0.141 0 0.255 0.114 0.255 0.255v1.49c-0 0.141-0.114 0.255-0.255 0.255zM27.317 18.38h-1.49c-0.141 0-0.255-0.114-0.255-0.255v-1.49c0-0.141 0.114-0.255 0.255-0.255h1.49c0.141 0 0.255 0.114 0.255 0.255v1.49c0 0.141-0.114 0.255-0.255 0.255zM20.003 21.962h-1.49c-0.141 0-0.255-0.114-0.255-0.255v-1.49c0-0.141 0.114-0.255 0.255-0.255h1.49c0.141 0 0.255 0.114 0.255 0.255v1.49c0 0.141-0.114 0.255-0.255 0.255zM23.66 21.962h-1.49c-0.141 0-0.255-0.114-0.255-0.255v-1.49c0-0.141 0.114-0.255 0.255-0.255h1.49c0.141 0 0.255 0.114 0.255 0.255v1.49c-0 0.141-0.114 0.255-0.255 0.255zM27.317 21.962h-1.49c-0.141 0-0.255-0.114-0.255-0.255v-1.49c0-0.141 0.114-0.255 0.255-0.255h1.49c0.141 0 0.255 0.114 0.255 0.255v1.49c0 0.141-0.114 0.255-0.255 0.255zM20.003 25.544h-1.49c-0.141 0-0.255-0.114-0.255-0.255v-1.49c0-0.141 0.114-0.255 0.255-0.255h1.49c0.141 0 0.255 0.114 0.255 0.255v1.49c0 0.141-0.114 0.255-0.255 0.255zM23.66 25.544h-1.49c-0.141 0-0.255-0.114-0.255-0.255v-1.49c0-0.141 0.114-0.255 0.255-0.255h1.49c0.141 0 0.255 0.114 0.255 0.255v1.49c-0 0.141-0.114 0.255-0.255 0.255z"></path>
</svg>
