<!-- Generated by IcoMoon.io -->
<svg version="1.1" xmlns="http://www.w3.org/2000/svg" width="32" height="32" viewBox="0 0 32 32">
<title>mobile</title>
<path d="M15.874 30.173c0.626 0 1.134-0.508 1.134-1.134s-0.508-1.134-1.134-1.134c-0.626 0-1.134 0.508-1.134 1.134s0.507 1.134 1.134 1.134zM23.811 0.126h-15.874c-1.252 0-2.268 1.015-2.268 2.268v27.212c0 1.252 1.015 2.268 2.268 2.268h15.874c1.252 0 2.268-1.015 2.268-2.268v-27.212c-0-1.252-1.016-2.268-2.268-2.268zM24.945 29.606c0 0.626-0.508 1.134-1.134 1.134h-15.874c-0.626 0-1.134-0.508-1.134-1.134v-2.268h18.142v2.268zM24.945 26.205h-18.142v-20.409h18.142v20.409zM24.945 4.661h-18.142v-2.267c0-0.626 0.508-1.134 1.134-1.134h15.874c0.626 0 1.134 0.508 1.134 1.134v2.267zM17.008 2.394h-2.268c-0.313 0-0.567 0.254-0.567 0.567s0.254 0.567 0.567 0.567h2.268c0.313 0 0.567-0.254 0.567-0.567s-0.254-0.567-0.567-0.567z"></path>
</svg>
