<!-- Generated by IcoMoon.io -->
<svg version="1.1" xmlns="http://www.w3.org/2000/svg" width="32" height="32" viewBox="0 0 32 32">
<title>mobile-auth</title>
<path d="M9.283 26.675c0 0.513-0.416 0.928-0.928 0.928s-0.928-0.416-0.928-0.928c0-0.513 0.416-0.928 0.928-0.928s0.928 0.416 0.928 0.928zM9.283 4.861h-1.857c-0.257 0-0.464 0.208-0.464 0.464s0.208 0.464 0.464 0.464h1.857c0.257 0 0.464-0.208 0.464-0.464s-0.208-0.464-0.464-0.464zM15.78 24.354h-14.852v-16.709h14.852v1.407c0.315 0.007 0.625 0.034 0.928 0.081v-4.272c0-1.025-0.831-1.857-1.857-1.857h-12.995c-1.025 0-1.857 0.831-1.857 1.857v22.278c0 1.025 0.831 1.857 1.857 1.857h12.995c1.025 0 1.857-0.831 1.857-1.857v-3.987c-0.303 0.047-0.613 0.073-0.928 0.081v1.122zM0.928 4.861c0-0.513 0.416-0.928 0.928-0.928h12.995c0.513 0 0.928 0.416 0.928 0.928v1.857h-14.852v-1.857zM15.78 27.139c0 0.513-0.416 0.928-0.928 0.928h-12.995c-0.513 0-0.928-0.416-0.928-0.928v-1.857h14.852v1.857zM31.621 15.707l-2.122-2.122c-0.035-0.035-0.074-0.063-0.117-0.083l-0.041-0.017c-0.047-0.017-0.097-0.026-0.148-0.026l-8.672 0c-0.039-0.073-0.080-0.145-0.122-0.217-0.028-0.049-0.056-0.097-0.086-0.145-0.050-0.080-0.101-0.158-0.155-0.236-0.050-0.072-0.102-0.143-0.157-0.213l-0.034-0.045c-0.032-0.042-0.064-0.085-0.099-0.126-0.117-0.142-0.229-0.265-0.34-0.377-2.158-2.158-5.668-2.157-7.826 0s-2.157 5.668 0 7.826c1.079 1.079 2.496 1.618 3.913 1.618s2.834-0.539 3.913-1.618c0.113-0.113 0.225-0.237 0.341-0.377 0.033-0.039 0.063-0.079 0.094-0.119l0.038-0.049c0.055-0.071 0.108-0.143 0.158-0.216 0.054-0.077 0.105-0.155 0.155-0.235 0.029-0.048 0.058-0.096 0.086-0.145 0.042-0.072 0.083-0.144 0.122-0.217l3.58-0c0.001 0 0.002 0 0.002 0 0.049 0 0.097-0.009 0.145-0.026l0.017-0.006c0.053-0.022 0.101-0.054 0.143-0.095l0.966-0.966 0.966 0.966c0.164 0.164 0.45 0.164 0.613 0l0.966-0.966 0.966 0.966c0.169 0.169 0.444 0.169 0.613 0l2.121-2.121c0.082-0.082 0.127-0.191 0.127-0.306s-0.045-0.224-0.126-0.306zM30.702 16.014l-1.509 1.509-0.967-0.967c-0.169-0.169-0.444-0.169-0.612 0l-0.966 0.967-0.967-0.967c-0.163-0.164-0.449-0.164-0.612 0l-1.146 1.146-3.742 0.006-0.001 0.004c-0.087 0.015-0.167 0.055-0.229 0.116-0.015 0.015-0.029 0.031-0.042 0.049l-0.016-0.004-0.048 0.103c-0.234 0.505-0.547 0.956-0.929 1.338-1.819 1.819-4.781 1.82-6.6 0s-1.82-4.781 0-6.6c0.882-0.882 2.053-1.367 3.3-1.367s2.419 0.485 3.3 1.367c0.383 0.383 0.696 0.834 0.93 1.34l0.059 0.103 0.007-0.002c0.012 0.016 0.024 0.030 0.038 0.044 0.057 0.057 0.129 0.095 0.208 0.113l0.001 0.012 8.855 0.002 1.688 1.688zM13.919 14.080v0c-0.517 0-1.002 0.201-1.367 0.566s-0.566 0.851-0.566 1.367c0 0.517 0.201 1.002 0.566 1.367 0.377 0.377 0.872 0.565 1.367 0.565s0.99-0.189 1.367-0.565c0.365-0.365 0.566-0.851 0.566-1.367s-0.201-1.002-0.566-1.367c-0.365-0.365-0.851-0.566-1.367-0.566zM14.673 16.768c-0.416 0.416-1.093 0.416-1.509 0-0.201-0.202-0.312-0.47-0.312-0.754s0.111-0.553 0.313-0.754c0.201-0.202 0.469-0.312 0.754-0.312s0.553 0.111 0.754 0.312c0.416 0.416 0.416 1.093 0 1.509z"></path>
</svg>
