<!-- Generated by IcoMoon.io -->
<svg version="1.1" xmlns="http://www.w3.org/2000/svg" width="32" height="32" viewBox="0 0 32 32">
<title>mobile-interaction</title>
<path d="M8.365 0c-1.203 0.005-2.177 0.979-2.182 2.182v27.636c0.005 1.203 0.979 2.177 2.182 2.182h15.271c1.203-0.005 2.177-0.979 2.182-2.182v-27.636c-0.005-1.203-0.979-2.177-2.182-2.182h-0.001zM8.365 1.456h15.27c0.006-0 0.013-0 0.019-0 0.392 0 0.71 0.318 0.71 0.71 0 0.006-0 0.011-0 0.017l0-0.001v1.453h-16.73v-1.453c-0-0.005-0-0.011-0-0.016 0-0.392 0.318-0.71 0.71-0.71 0.007 0 0.014 0 0.020 0l-0.001-0zM7.635 5.091h16.73v20.365h-16.73zM15.978 8.365c-0.127 0.004-0.245 0.041-0.345 0.104l0.003-0.002-5.075 2.909c-0.218 0.127-0.362 0.359-0.362 0.625 0 0.005 0 0.011 0 0.016v-0.001 5.802c-0 0.003-0 0.008-0 0.012 0 0.267 0.144 0.5 0.358 0.626l0.003 0.002 5.091 2.909c0.111 0.064 0.245 0.102 0.387 0.102h0c0.127-0.007 0.244-0.044 0.346-0.104l-0.004 0.002 5.091-2.909c0.218-0.128 0.362-0.361 0.362-0.628 0-0.004-0-0.008-0-0.012v0.001-5.818c0-0.005 0-0.010 0-0.015 0-0.266-0.144-0.498-0.358-0.623l-0.003-0.002-5.107-2.893c-0.106-0.064-0.234-0.103-0.371-0.103-0.006 0-0.011 0-0.017 0h0.001zM16 9.92l3.626 2.080-3.626 2.080-3.626-2.080zM11.635 13.251l3.638 2.077v4.16l-3.638-2.080zM20.365 13.251v4.16l-3.638 2.080v-4.16zM7.635 26.909h16.73v2.909c0 0.005 0 0.011 0 0.016 0 0.392-0.318 0.71-0.71 0.71-0.007 0-0.014-0-0.020-0l0.001 0h-15.27c-0.006 0-0.013 0-0.019 0-0.392 0-0.71-0.318-0.71-0.71 0-0.006 0-0.011 0-0.017l-0 0.001zM16 27.635c-0.603 0-1.091 0.489-1.091 1.091s0.489 1.091 1.091 1.091c0.603 0 1.091-0.489 1.091-1.091v0c0-0.603-0.489-1.091-1.091-1.091v0z"></path>
</svg>
