<!-- Generated by IcoMoon.io -->
<svg version="1.1" xmlns="http://www.w3.org/2000/svg" width="32" height="32" viewBox="0 0 32 32">
<title>mobile-apps-alt</title>
<path d="M16 30.285c0.631 0 1.142-0.511 1.142-1.142s-0.511-1.142-1.142-1.142c-0.631 0-1.142 0.511-1.142 1.142v0c0 0.631 0.511 1.142 1.142 1.142v0zM17.142 2.285h-2.285c-0.013-0.001-0.028-0.002-0.043-0.002-0.316 0-0.573 0.256-0.573 0.573s0.256 0.573 0.573 0.573c0.015 0 0.030-0.001 0.045-0.002l-0.002 0h2.285c0.013 0.001 0.028 0.002 0.043 0.002 0.316 0 0.573-0.256 0.573-0.573s-0.256-0.573-0.573-0.573c-0.015 0-0.030 0.001-0.045 0.002l0.002-0zM24 0h-16c-1.262 0-2.285 1.023-2.285 2.285v0 27.43c0 1.262 1.023 2.285 2.285 2.285v0h16c1.262 0 2.285-1.023 2.285-2.285v-27.43c0-1.262-1.023-2.285-2.285-2.285v0zM25.142 29.715c0 0.631-0.511 1.142-1.142 1.142v0h-16c-0.631 0-1.142-0.511-1.142-1.142v0-2.288h18.285zM25.142 26.285h-18.285v-20.57h18.285zM25.142 4.573h-18.285v-2.288c0-0.631 0.511-1.142 1.142-1.142v0h16c0.631 0 1.142 0.511 1.142 1.142v0zM9.354 8.758h2.486c0.141 0 0.256 0.115 0.256 0.256v2.486c0 0.141-0.115 0.256-0.256 0.256h-2.486c-0.141 0-0.256-0.115-0.256-0.256v-2.486c0-0.141 0.115-0.256 0.256-0.256zM14.838 8.758h2.486c0.141 0 0.256 0.115 0.256 0.256v2.486c0 0.141-0.115 0.256-0.256 0.256h-2.486c-0.141 0-0.256-0.115-0.256-0.256v-2.486c0-0.141 0.115-0.256 0.256-0.256zM20.323 8.758h2.486c0.141 0 0.256 0.115 0.256 0.256v2.486c0 0.141-0.115 0.256-0.256 0.256h-2.486c-0.141 0-0.256-0.115-0.256-0.256v-2.486c0-0.141 0.115-0.256 0.256-0.256zM9.354 14.131h2.486c0.141 0 0.256 0.115 0.256 0.256v2.486c0 0.141-0.115 0.256-0.256 0.256h-2.486c-0.141 0-0.256-0.115-0.256-0.256v-2.486c0-0.141 0.115-0.256 0.256-0.256zM14.838 14.131h2.486c0.141 0 0.256 0.115 0.256 0.256v2.486c0 0.141-0.115 0.256-0.256 0.256h-2.486c-0.141 0-0.256-0.115-0.256-0.256v-2.486c0-0.141 0.115-0.256 0.256-0.256zM20.323 14.131h2.486c0.141 0 0.256 0.115 0.256 0.256v2.486c0 0.141-0.115 0.256-0.256 0.256h-2.486c-0.141 0-0.256-0.115-0.256-0.256v-2.486c0-0.141 0.115-0.256 0.256-0.256zM9.354 19.507h2.486c0.141 0 0.256 0.115 0.256 0.256v2.486c0 0.141-0.115 0.256-0.256 0.256h-2.486c-0.141 0-0.256-0.115-0.256-0.256v-2.486c0-0.141 0.115-0.256 0.256-0.256zM14.838 19.507h2.486c0.141 0 0.256 0.115 0.256 0.256v2.486c0 0.141-0.115 0.256-0.256 0.256h-2.486c-0.141 0-0.256-0.115-0.256-0.256v-2.486c0-0.141 0.115-0.256 0.256-0.256z"></path>
</svg>
