<!-- Generated by IcoMoon.io -->
<svg version="1.1" xmlns="http://www.w3.org/2000/svg" width="32" height="32" viewBox="0 0 32 32">
<title>mobile-sdk</title>
<path d="M15.874 30.178c0.624 0 1.131-0.506 1.131-1.131s-0.506-1.131-1.131-1.131c-0.624 0-1.131 0.506-1.131 1.131s0.506 1.131 1.131 1.131zM17.005 2.478h-2.261c-0.312 0-0.565 0.253-0.565 0.565s0.253 0.565 0.565 0.565h2.261c0.312 0 0.565-0.253 0.565-0.565s-0.253-0.565-0.565-0.565zM23.788 0.216h-15.829c-1.249 0-2.261 1.012-2.261 2.261v27.135c0 1.249 1.012 2.261 2.261 2.261h15.829c1.249 0 2.261-1.012 2.261-2.261v-27.135c0-1.249-1.012-2.261-2.261-2.261zM24.919 29.613c0 0.624-0.506 1.131-1.131 1.131h-15.829c-0.624 0-1.131-0.506-1.131-1.131v-2.261h18.090v2.261zM24.919 26.221h-18.090v-20.351h18.090v20.351zM24.919 4.739h-18.090v-2.261c0-0.624 0.506-1.131 1.131-1.131h15.829c0.624 0 1.131 0.506 1.131 1.131v2.261zM21.684 13.265c0-0.14-0.073-0.267-0.189-0.343-0.005-0.004-0.009-0.008-0.015-0.012-0.001-0.001-0.003-0.001-0.004-0.002-0.005-0.003-0.009-0.007-0.014-0.010l-5.185-2.739c-0.121-0.064-0.266-0.064-0.387 0l-5.186 2.739c-0.004 0.002-0.006 0.005-0.010 0.007s-0.007 0.003-0.011 0.005c-0.015 0.009-0.026 0.021-0.039 0.031s-0.026 0.019-0.038 0.030c-0.015 0.015-0.027 0.032-0.040 0.050-0.009 0.012-0.019 0.023-0.027 0.036-0.012 0.021-0.020 0.043-0.028 0.065-0.004 0.012-0.011 0.022-0.014 0.034-0.010 0.035-0.015 0.072-0.015 0.109v6.371c0 0.154 0.085 0.295 0.221 0.366l5.146 2.717c0.005 0.003 0.009 0.008 0.014 0.011 0.038 0.023 0.080 0.037 0.123 0.047 0.005 0.001 0.011 0.001 0.017 0.002 0.025 0.004 0.050 0.010 0.075 0.010 0.001 0 0.003-0.001 0.004-0.001s0.003 0.001 0.004 0.001c0.025 0 0.050-0.005 0.075-0.010 0.005-0.001 0.011-0.001 0.017-0.002 0.043-0.010 0.084-0.024 0.123-0.047 0.005-0.003 0.009-0.008 0.014-0.011l5.146-2.717c0.136-0.072 0.221-0.213 0.221-0.366v-6.352c0-0.006 0.002-0.012 0.002-0.019zM16.084 10.995l4.297 2.27-4.298 2.27-4.297-2.269 4.298-2.27zM11.313 13.953l4.351 2.299v5.433l-4.351-2.298v-5.434zM16.501 21.685v-5.432l4.351-2.299v5.433l-4.351 2.298z"></path>
</svg>
