<!-- Generated by IcoMoon.io -->
<svg version="1.1" xmlns="http://www.w3.org/2000/svg" width="33" height="32" viewBox="0 0 33 32">
<title>multiple-environments</title>
<path d="M27.551 21.684c-0.611 0-1.198 0.171-1.711 0.44l-1.149-1.271c1.076-0.978 1.736-2.396 1.736-3.96 0-1.907-1.002-3.594-2.494-4.547l2.714-4.278c0.342 0.122 0.709 0.171 1.1 0.171 1.931 0 3.496-1.565 3.496-3.496s-1.565-3.496-3.496-3.496-3.496 1.565-3.496 3.496c0 1.149 0.562 2.151 1.393 2.787l-2.689 4.327c-0.587-0.22-1.222-0.342-1.907-0.342-1.516 0-2.909 0.636-3.887 1.662l-6.087-5.134c0.269-0.489 0.44-1.076 0.44-1.687 0-1.931-1.565-3.496-3.496-3.496s-3.447 1.565-3.447 3.496 1.54 3.471 3.471 3.471c0.905 0 1.736-0.342 2.347-0.929l6.087 5.134c-0.513 0.831-0.831 1.809-0.831 2.86 0 1.027 0.293 2.005 0.782 2.811l-8.898 5.329c-0.636-0.782-1.613-1.271-2.689-1.271-1.931 0-3.496 1.565-3.496 3.496s1.565 3.496 3.496 3.496 3.496-1.565 3.496-3.496c0-0.44-0.098-0.88-0.244-1.271l9.021-5.403c0.978 1.051 2.371 1.687 3.911 1.687 1.002 0 1.956-0.269 2.762-0.758l1.173 1.296c-0.562 0.611-0.904 1.442-0.904 2.347 0 1.931 1.565 3.496 3.496 3.496s3.496-1.565 3.496-3.496-1.565-3.471-3.496-3.471zM27.722 2.396c1.32 0 2.371 1.076 2.371 2.371s-1.076 2.371-2.371 2.371-2.371-1.076-2.371-2.371 1.076-2.371 2.371-2.371zM8.043 8.727c-1.32 0-2.371-1.076-2.371-2.371s1.076-2.371 2.371-2.371 2.371 1.076 2.371 2.371-1.051 2.371-2.371 2.371zM4.889 29.653c-1.32 0-2.371-1.076-2.371-2.371s1.076-2.371 2.371-2.371 2.371 1.076 2.371 2.371-1.076 2.371-2.371 2.371zM16.77 16.892c0-2.371 1.931-4.278 4.278-4.278s4.278 1.931 4.278 4.278-1.931 4.278-4.278 4.278-4.278-1.907-4.278-4.278zM27.551 27.526c-1.32 0-2.371-1.076-2.371-2.371s1.076-2.371 2.371-2.371 2.371 1.076 2.371 2.371-1.051 2.371-2.371 2.371z"></path>
</svg>
