<!-- Generated by IcoMoon.io -->
<svg version="1.1" xmlns="http://www.w3.org/2000/svg" width="32" height="32" viewBox="0 0 32 32">
<title>on-prem</title>
<path d="M6.751 14.691h1.638v-1.638h-1.638v1.638zM13.301 13.053h1.638v-1.638h-1.638v1.638zM16.577 13.053h1.638v-1.638h-1.638v1.638zM19.852 13.053h1.638v-1.638h-1.638v1.638zM13.301 9.778h1.638v-1.638h-1.638v1.638zM16.577 9.778h1.638v-1.638h-1.638v1.638zM19.852 9.778h1.638v-1.638h-1.638v1.638zM13.301 19.604h1.638v-1.638h-1.638v1.638zM16.577 19.604h1.638v-1.638h-1.638v1.638zM19.852 19.604h1.638v-1.638h-1.638v1.638zM13.301 22.879h1.638v-1.638h-1.638v1.638zM19.852 22.879h1.638v-1.638h-1.638v1.638zM13.301 26.155h1.638v-1.638h-1.638v1.638zM19.852 26.155h1.638v-1.638h-1.638v1.638zM13.301 16.329h1.638v-1.638h-1.638v1.638zM16.577 16.329h1.638v-1.638h-1.638v1.638zM19.852 16.329h1.638v-1.638h-1.638v1.638zM6.751 17.966h1.638v-1.638h-1.638v1.638zM6.751 21.242h1.638v-1.638h-1.638v1.638zM6.751 24.517h1.638v-1.638h-1.638v1.638zM6.751 27.792h1.638v-1.638h-1.638v1.638zM16.577 22.879h1.638v-1.638h-1.638v1.638zM26.625 16.888h-2.155v-9.658c0-0.828-0.673-1.501-1.501-1.501h-11.1c-0.828 0-1.501 0.673-1.501 1.501v3.173h-5.099c-0.768 0-1.393 0.625-1.393 1.393v18.577h23.967v-12.266c0-0.672-0.546-1.218-1.218-1.218zM10.368 29.504h-5.628v-17.708c0-0.292 0.237-0.529 0.529-0.529h5.098v18.237zM23.606 16.888v12.616h-5.413v-4.987h-1.613v4.987h-5.348v-22.274c0-0.351 0.286-0.637 0.637-0.637h11.1c0.351 0 0.637 0.286 0.637 0.637v9.658zM26.979 29.504h-2.51v-11.752h2.155c0.196 0 0.355 0.159 0.355 0.355v11.398zM31.748 30.383h-1.668v-0.931h0.737v-0.737h0.931zM1.668 30.394h-1.667v-1.667h0.931v0.737h0.737zM0 25.232h0.931v2.495h-0.931v-2.495zM2.739 29.498h2.495v0.863h-2.495v-0.863zM26.338 29.509h2.495v0.863h-2.495v-0.863zM0 21.739h0.931v2.495h-0.931v-2.495zM0 18.245h0.931v2.496h-0.931v-2.496zM0 14.752h0.931v2.495h-0.931v-2.495zM0 11.258h0.931v2.495h-0.931v-2.495zM0 7.765h0.931v2.496h-0.931v-2.496zM0 4.272h0.931v2.495h-0.931v-2.495zM0.931 3.274h-0.931v-1.667h1.667v0.931h-0.737zM29.101 2.537h-2.449v-0.931h2.449v0.931zM25.672 2.537h-2.449v-0.931h2.449v0.931zM22.243 2.537h-2.449v-0.931h2.449v0.931zM18.814 2.537h-2.449v-0.931h2.449v0.931zM15.384 2.537h-2.449v-0.931h2.449v0.931zM11.955 2.537h-2.449v-0.931h2.449v0.931zM8.526 2.537h-2.449v-0.931h2.449v0.931zM5.097 2.537h-2.449v-0.931h2.449v0.931zM31.748 3.274h-0.931v-0.737h-0.737v-0.931h1.668zM31.748 27.727h-0.931v-2.495h0.931v2.495zM31.748 24.234h-0.931v-2.496h0.931v2.496zM31.748 20.741h-0.931v-2.495h0.931v2.495zM31.748 17.247h-0.931v-2.495h0.931v2.495zM31.748 13.754h-0.931v-2.496h0.931v2.496zM31.748 10.261h-0.931v-2.495h0.931v2.495zM31.748 6.767h-0.931v-2.495h0.931v2.495z"></path>
</svg>
