<!-- Generated by IcoMoon.io -->
<svg version="1.1" xmlns="http://www.w3.org/2000/svg" width="32" height="32" viewBox="0 0 32 32">
<title>open-pto</title>
<path d="M14.66 14.91c-0.114-0.076-0.114-0.19-0.114-0.303v0c0.076-0.379 0.152-0.759 0.228-1.176 0.038-0.19 0.038-0.379 0.038-0.569 0-0.152-0.038-0.265-0.114-0.417-0.038-0.114-0.152-0.19-0.303-0.19-0.114 0-0.19 0.038-0.228 0.114-0.152 0.152-0.265 0.341-0.303 0.569-0.076 0.228-0.114 0.493-0.152 0.721s-0.076 0.455-0.114 0.645c0 0.114-0.076 0.19-0.19 0.265-0.038 0.038-0.114 0.038-0.152 0.076-0.797 0.265-1.631 0.531-2.428 0.797-0.076 0.038-0.152 0.076-0.228 0.076-0.076 0.038-0.152 0.114-0.19 0.19-0.038 0.152-0.038 0.303-0.038 0.455 0 0.114 0.076 0.152 0.19 0.152 0.038 0 0.114 0 0.152 0 0.531-0.038 1.062-0.076 1.593-0.114 0.19 0 0.417-0.038 0.607 0 0.076 0 0.152 0.038 0.228 0.076 0 0.038 0 0.038 0 0.038-0.038 0.341-0.114 0.721-0.152 1.062-0.038 0.19-0.038 0.379-0.076 0.569 0 0.038 0 0.038-0.038 0.038s-0.076 0-0.114 0.038c-0.152 0.038-0.341 0.076-0.493 0.114-0.114 0.038-0.152 0.076-0.19 0.19 0 0.076-0.038 0.152-0.038 0.228 0 0.114 0.038 0.152 0.114 0.19 0.038 0 0.114 0.038 0.152 0.038 0.569 0.152 1.138 0.265 1.707 0.417 0.038 0 0.076 0 0.114 0 0.076 0 0.114-0.038 0.152-0.076 0.076-0.114 0.076-0.228 0.038-0.341s-0.114-0.19-0.19-0.265c-0.114-0.114-0.265-0.19-0.379-0.303-0.038 0-0.038-0.038-0.038-0.038 0.114-0.531 0.265-1.1 0.379-1.631v-0.038c0.076 0.038 0.114 0.038 0.19 0.076 0.152 0.076 0.341 0.114 0.493 0.228 0.455 0.265 0.872 0.531 1.328 0.759 0.114 0.076 0.228 0.114 0.303 0.19 0.152 0.076 0.228 0.038 0.303-0.076 0-0.038 0.038-0.076 0.038-0.076 0.076-0.152 0.076-0.303 0.038-0.455-0.038-0.114-0.114-0.19-0.19-0.265-0.493-0.493-1.024-0.948-1.518-1.442-0.076-0.227-0.228-0.378-0.418-0.53zM14.85 22.877c0.076 0.114 0.19 0.19 0.303 0.19 0.076 0 0.152-0.038 0.19-0.076l4.059-2.656c0.19-0.114 0.228-0.341 0.114-0.531s-0.341-0.228-0.531-0.114l-4.021 2.618c-0.189 0.152-0.227 0.38-0.113 0.569zM16.026 24.622c0.076 0.114 0.19 0.19 0.303 0.19 0.076 0 0.152-0.038 0.19-0.076l4.021-2.618c0.19-0.114 0.228-0.341 0.114-0.531s-0.341-0.228-0.531-0.114l-3.983 2.656c-0.19 0.114-0.228 0.341-0.114 0.493zM24.031 5.16c0.038 0 0.076 0.038 0.114 0.038 0.341 0.076 0.721 0.19 1.062 0.265 0.114 0.038 0.265 0.076 0.379 0.152 0.038 0.038 0.076 0.076 0.152 0.076 0 0 0 0 0 0.038-0.114 0.228-0.228 0.455-0.341 0.645-0.038 0.114-0.114 0.228-0.152 0.341 0 0 0 0-0.038 0s-0.038 0-0.076 0c-0.114 0-0.228-0.038-0.341-0.038-0.076 0-0.114 0.038-0.152 0.076s-0.038 0.114-0.076 0.152c-0.038 0.076 0 0.114 0.038 0.152s0.076 0.038 0.076 0.076c0.341 0.19 0.683 0.417 1.024 0.607 0.038 0 0.038 0.038 0.076 0.038s0.076 0 0.114 0c0.076-0.038 0.114-0.114 0.114-0.19s-0.038-0.152-0.076-0.228c-0.076-0.076-0.114-0.19-0.19-0.265v-0.038c0.19-0.303 0.417-0.645 0.607-0.948 0 0 0 0 0-0.038 0.038 0.038 0.076 0.076 0.114 0.076 0.076 0.076 0.19 0.152 0.265 0.228 0.228 0.265 0.455 0.531 0.683 0.797 0.038 0.076 0.114 0.114 0.152 0.19 0.076 0.076 0.152 0.076 0.228 0l0.038-0.038c0.076-0.076 0.114-0.19 0.114-0.303 0-0.076-0.038-0.152-0.076-0.228-0.228-0.417-0.455-0.835-0.683-1.252-0.076-0.152-0.152-0.303-0.228-0.417-0.038-0.076-0.038-0.152 0-0.228v0c0.114-0.228 0.265-0.455 0.379-0.683 0.076-0.114 0.114-0.228 0.152-0.341 0-0.076 0.038-0.19 0.038-0.304 0-0.076-0.076-0.152-0.152-0.19-0.076 0-0.114 0-0.19 0.038-0.114 0.076-0.228 0.152-0.303 0.304s-0.19 0.265-0.265 0.417c-0.076 0.114-0.152 0.265-0.228 0.417-0.038 0.076-0.076 0.114-0.152 0.114-0.038 0-0.076 0-0.114 0-0.569 0-1.176 0-1.745 0-0.038 0-0.114 0-0.152 0-0.076 0-0.114 0.038-0.152 0.076-0.038 0.076-0.076 0.19-0.114 0.303-0.038 0.038-0 0.076 0.076 0.114zM3.388 19.058c0.037 0.147 0.183 0.257 0.367 0.257 0.037 0 0.073 0 0.11 0l2.644-0.698 8.227 12.597c0.073 0.11 0.184 0.183 0.294 0.183 0.073 0 0.147-0.037 0.184-0.073l11.973-7.86c0.183-0.11 0.22-0.331 0.11-0.514l-5.509-8.41 9.181-2.424c0.11-0.037 0.183-0.073 0.22-0.184 0.037-0.073 0.073-0.184 0.037-0.294l-2.865-10.761c-0.037-0.183-0.257-0.331-0.441-0.257l-27.14 7.235c-0.11 0.037-0.183 0.073-0.22 0.184-0.037 0.073-0.073 0.184-0.037 0.294l2.865 10.724zM15.14 30.516l-10.614-16.196 11.348-7.455 10.65 16.196-11.385 7.455zM30.417 11.492l-6.317 1.689-2.681-10.063 6.317-1.653 2.681 10.026zM20.722 3.302l2.644 10.063-2.020 0.551-1.175-1.799 0.294-0.073c0.183-0.037 0.331-0.257 0.257-0.441-0.037-0.184-0.257-0.331-0.441-0.257l-0.551 0.147-0.698-1.028 0.918-0.257c0.183-0.037 0.331-0.257 0.257-0.441-0.037-0.184-0.257-0.331-0.441-0.257l-1.138 0.294-0.698-1.102 1.543-0.404c0.183-0.037 0.331-0.257 0.257-0.441-0.037-0.184-0.257-0.33-0.441-0.257l-1.8 0.477-0.661-0.992 2.167-0.588c0.183-0.037 0.331-0.257 0.257-0.441-0.037-0.184-0.257-0.33-0.441-0.257l-2.387 0.624-0.147-0.257c-0.037-0.073-0.147-0.147-0.22-0.147-0.11-0.037-0.184 0-0.294 0.037l-1.396 0.918c-0.037 0-0.037 0-0.073 0l-10.063 2.681c-0.184 0.037-0.33 0.257-0.257 0.441 0.037 0.147 0.183 0.257 0.367 0.257 0.037 0 0.073 0 0.11 0l8.043-2.13-3.158 2.057-4.591 1.212c-0.184 0.037-0.33 0.257-0.257 0.441 0.037 0.147 0.184 0.257 0.367 0.257 0.037 0 0.073 0 0.11 0l2.497-0.661-3.599 2.387c-0.073 0.037-0.147 0.147-0.147 0.22-0.037 0.11 0 0.184 0.037 0.294l2.35 3.562-2.057 0.551-2.718-10.063 19.391-5.178zM25.245 10.281c0.038 0.152 0.19 0.265 0.379 0.265 0.038 0 0.076 0 0.114 0l3.149-0.835c0.19-0.038 0.341-0.265 0.265-0.455-0.038-0.19-0.265-0.341-0.455-0.265l-3.187 0.835c-0.19 0.038-0.303 0.265-0.265 0.455z"></path>
</svg>
