<!-- Generated by IcoMoon.io -->
<svg version="1.1" xmlns="http://www.w3.org/2000/svg" width="32" height="32" viewBox="0 0 32 32">
<title>opportunity</title>
<path d="M3.957 18.887c0.432 0 0.783-0.351 0.783-0.783s-0.351-0.783-0.783-0.783-0.783 0.351-0.783 0.783 0.351 0.783 0.783 0.783zM28.041 17.321c-0.432 0-0.783 0.351-0.783 0.783s0.351 0.783 0.783 0.783 0.783-0.351 0.783-0.783-0.351-0.783-0.783-0.783zM31.431 10.705l-0.009-0.080c-0.059-0.553-0.148-1.389-1.569-1.389-0.741 0-2.826 0.060-4.002 0.095-0.485 0.015-0.923 0.254-1.195 0.646l-2.671-1.905c-0.185-0.178-1.171-1.066-2.456-1.066l-2.576 0.002-0.085 0.013c-0.043 0.012-1.070 0.293-1.966 1.12-0.217 0.2-0.525 0.539-0.917 1.007-0.826 0.024-1.69 0.090-2.069 0.159-0.653 0.119-1.583 0.793-1.984 1.103h-2.381c-0.183-0.629-0.736-1.059-1.403-1.079-1.176-0.036-3.26-0.095-4.002-0.095-1.421 0-1.51 0.836-1.569 1.388l-0.009 0.080c-0.067 0.605 0.26 7.332 0.512 9.033 0.094 0.632 0.349 1.105 0.759 1.405 0.382 0.28 0.81 0.339 1.101 0.339 0.145 0 0.267-0.015 0.344-0.027 0.039-0.006 0.075-0.009 0.109-0.009h2.707c0.797 0 1.452-0.619 1.509-1.402l1.246-0c0.418 0.839 1.709 3.331 2.776 4.342 0.426 0.404 0.944 0.609 1.54 0.609 0.742 0 1.38-0.324 1.663-0.493 0.814 0.348 1.563 0.408 2.227 0.179 0.601-0.209 0.982-0.612 1.176-0.87 1.515 0.354 2.254-0.469 2.532-0.913 0.433 0.060 1.183 0.107 1.833-0.143 0.047-0.019 0.461-0.197 0.679-0.723 0.163-0.391 0.173-0.866 0.033-1.413h1.233c0.256 0.506 0.778 0.828 1.348 0.828h2.707c0.035 0 0.070 0.003 0.108 0.009 0.077 0.012 0.2 0.027 0.345 0.027 0.292 0 0.719-0.059 1.101-0.339 0.41-0.3 0.665-0.773 0.759-1.405 0.253-1.703 0.579-8.428 0.512-9.032zM29.648 20.444c-0.285 0.209-0.652 0.178-0.797 0.155-0.085-0.013-0.165-0.020-0.245-0.020h-2.707c-0.356 0-0.646-0.29-0.646-0.646v-9.090c0-0.352 0.275-0.635 0.625-0.645 1.167-0.036 3.235-0.095 3.976-0.095 0.642 0 0.653 0.106 0.708 0.614l0.009 0.083c0.055 0.493-0.241 7.010-0.508 8.81-0.059 0.395-0.199 0.676-0.415 0.834zM18.599 18.285v0c-0.238 0.117-0.336 0.405-0.22 0.643l1.696 3.452c-0.133 0.257-0.568 0.846-1.671 0.577-0.003-0.006-0.006-0.013-0.009-0.019l-1.651-3.36c-0.057-0.115-0.154-0.201-0.276-0.243s-0.252-0.033-0.367 0.023c-0.115 0.057-0.201 0.155-0.243 0.276s-0.033 0.252 0.023 0.367l1.634 3.325c-0.146 0.186-0.385 0.411-0.739 0.534-0.457 0.159-1.004 0.102-1.627-0.17l-1.248-2.541c-0.117-0.238-0.405-0.336-0.643-0.219-0.115 0.057-0.201 0.155-0.243 0.276s-0.033 0.252 0.023 0.367l1.13 2.3c-0.488 0.24-1.307 0.485-1.944-0.117-1.133-1.073-2.696-4.301-2.711-4.334l-0.118-0.245h-1.785v-7.9h2.622l0.12-0.097c0.467-0.379 1.307-0.946 1.716-1.020 0.221-0.040 0.671-0.083 1.184-0.112-0.598 0.756-1.157 1.5-1.254 1.633-0.146 0.16-0.87 0.984-0.87 1.621 0 0.414 0.364 0.887 0.927 1.206 0.763 0.432 1.617 0.43 2.343-0.005 0.513-0.308 0.969-0.774 1.411-1.226 0.666-0.681 1.297-1.323 1.916-1.205 0.22 0.042 1.726 1.643 4.577 8.256 0.557 1.332-0.003 1.612-0.020 1.62-0.433 0.166-0.981 0.14-1.303 0.102l-1.741-3.544c-0.116-0.237-0.404-0.336-0.642-0.22zM15.192 12.67l0.078 0.080-0.079-0.078-0.002 0.002c-0.402 0.41-0.817 0.835-1.235 1.085-0.639 0.384-1.24 0.124-1.469-0.005-0.356-0.202-0.479-0.429-0.487-0.451 0-0.2 0.344-0.712 0.658-1.053l0.024-0.029c0.209-0.28 2.064-2.751 2.811-3.441 0.635-0.586 1.374-0.847 1.554-0.905h2.485c0.942 0 1.724 0.698 1.871 0.838l2.984 2.138v8.901h-1.385c-0.37-0.848-1.267-2.863-2.229-4.692-1.311-2.494-2.227-3.714-2.881-3.839-1.075-0.206-1.901 0.636-2.699 1.451zM1.43 10.8l0.009-0.083c0.054-0.508 0.066-0.614 0.707-0.614 0.74 0 2.809 0.059 3.976 0.095 0.35 0.011 0.625 0.294 0.625 0.645v9.089c0 0.356-0.29 0.646-0.646 0.646h-2.707c-0.080 0-0.16 0.007-0.246 0.020-0.145 0.023-0.512 0.053-0.796-0.155-0.216-0.158-0.356-0.439-0.414-0.834-0.267-1.8-0.563-8.317-0.508-8.811z"></path>
</svg>
