<!-- Generated by IcoMoon.io -->
<svg version="1.1" xmlns="http://www.w3.org/2000/svg" width="32" height="32" viewBox="0 0 32 32">
<title>parental-leave</title>
<path d="M29.719 6.896c-0.194-0.116-0.426-0.039-0.542 0.155l-3.061 5.617h-10.305c0.232-0.31 0.387-0.697 0.387-1.124 0-0.62-0.31-1.162-0.775-1.511 0.465-0.349 0.775-0.891 0.775-1.511s-0.31-1.162-0.775-1.511c0.465-0.349 0.775-0.891 0.775-1.511s-0.31-1.162-0.775-1.511c0.465-0.349 0.775-0.891 0.775-1.511 0-1.046-0.852-1.898-1.898-1.898-6.857 0-12.474 5.579-12.474 12.474 0 4.997 2.944 9.298 7.206 11.274l-0.31 1.588c-0.039 0-0.077 0-0.116 0-1.511 0-2.751 1.24-2.751 2.751s1.24 2.751 2.751 2.751 2.751-1.24 2.751-2.751c0-1.201-0.775-2.247-1.859-2.596l0.271-1.433c1.395 0.542 2.944 0.852 4.533 0.852 1.705 0 3.332-0.349 4.843-0.969l0.271 1.511c-1.124 0.349-1.937 1.395-1.937 2.634 0 1.511 1.24 2.751 2.751 2.751s2.751-1.24 2.751-2.751c0-1.511-1.24-2.751-2.751-2.751h-0.039l-0.31-1.743c4.068-2.014 6.857-6.198 6.896-11.041l3.138-5.734c0.038-0.194-0.039-0.426-0.194-0.504zM10.581 28.668c0 1.085-0.891 1.976-1.976 1.976s-1.976-0.891-1.976-1.976c0-1.085 0.852-1.937 1.937-1.976l-0.349 1.898c-0.039 0.194 0.116 0.426 0.31 0.465 0.039 0 0.039 0 0.077 0 0.194 0 0.349-0.116 0.387-0.31l0.349-1.898c0.736 0.271 1.24 1.007 1.24 1.821zM22.165 28.668c0 1.085-0.891 1.976-1.976 1.976s-1.976-0.891-1.976-1.976c0-0.852 0.542-1.588 1.317-1.859l0.349 1.937c0.039 0.194 0.194 0.31 0.387 0.31 0.039 0 0.039 0 0.077 0 0.194-0.039 0.349-0.232 0.31-0.465l-0.349-1.898c1.046 0.077 1.859 0.93 1.859 1.976zM14.688 10.46c0.426 0.155 0.736 0.581 0.736 1.046s-0.31 0.891-0.736 1.046v-2.092zM14.688 7.477c0.426 0.155 0.736 0.581 0.736 1.046s-0.31 0.891-0.736 1.046v-2.092zM14.688 4.455c0.426 0.155 0.736 0.581 0.736 1.046s-0.31 0.891-0.736 1.046v-2.092zM15.385 2.479c0 0.465-0.31 0.891-0.736 1.046v-2.092c0.464 0.155 0.736 0.542 0.736 1.046zM13.913 1.356v11.312h-11.312c0.194-6.16 5.153-11.119 11.312-11.312zM14.3 24.717c-6.315 0-11.467-5.036-11.661-11.312h23.361c-0.232 6.276-5.385 11.312-11.7 11.312z"></path>
</svg>
