<!-- Generated by IcoMoon.io -->
<svg version="1.1" xmlns="http://www.w3.org/2000/svg" width="32" height="32" viewBox="0 0 32 32">
<title>partner-story</title>
<path d="M30.117 2.53h-11.54c-0.668 0-1.212 0.544-1.212 1.212v7.84c0 0.668 0.544 1.212 1.212 1.212h0.953v3.404l3.404-3.404h7.183c0.668 0 1.212-0.544 1.212-1.212v-7.84c0-0.668-0.544-1.212-1.212-1.212zM30.616 11.582c0 0.276-0.224 0.5-0.499 0.5h-7.478l-2.396 2.396v-2.396h-1.666c-0.276 0-0.5-0.224-0.5-0.5v-7.84c0-0.276 0.224-0.499 0.5-0.499h11.54c0.276 0 0.499 0.224 0.499 0.499v7.84zM28.462 6.023h-8.269c-0.157 0-0.285-0.128-0.285-0.285s0.128-0.285 0.285-0.285h8.269c0.157 0 0.285 0.128 0.285 0.285s-0.127 0.285-0.285 0.285zM28.462 7.829h-8.269c-0.157 0-0.285-0.128-0.285-0.285s0.128-0.285 0.285-0.285h8.269c0.157 0 0.285 0.128 0.285 0.285s-0.127 0.285-0.285 0.285zM28.462 9.635h-8.269c-0.157 0-0.285-0.128-0.285-0.285s0.128-0.285 0.285-0.285h8.269c0.157 0 0.285 0.128 0.285 0.285s-0.127 0.285-0.285 0.285zM4.195 25.46c2.34 2.467 5.644 4.011 9.304 4.011 2.086 0 4.055-0.504 5.798-1.391l0.804-0.443c3.728-2.247 6.227-6.334 6.227-10.995 0-0.997-0.118-1.966-0.334-2.899h-0.86c0.231 0.929 0.356 1.899 0.356 2.899 0 4.279-2.255 8.039-5.636 10.161-0.611-1.388-1.979-2.011-3.048-2.495-0.395-0.179-0.768-0.348-1.035-0.525-0.246-0.164-0.476-0.297-0.688-0.42-0.846-0.489-1.232-0.712-1.232-2.18 0-1.839 1.507-3.027 1.521-3.038l0.079-0.060 0.044-0.089c0.505-1.033 0.258-1.904 0.090-2.297 1.098-2.435-0.231-4.448-0.513-4.833-0.715-2.057-2.239-2.492-3.399-2.492-1.374 0-2.596 0.603-2.615 0.614-1.272 0.509-2.139 1.321-2.577 2.413-0.708 1.764-0.066 3.701 0.167 4.296-0.571 1.378 0.087 2.319 0.116 2.36l0.089 0.091c0.015 0.011 1.519 1.173 1.519 3.036 0 1.804-0.989 2.134-2.241 2.551l-0.164 0.054c-0.431 0.142-1.005 0.332-1.594 0.615-1.782-2.093-2.862-4.803-2.862-7.761 0-6.611 5.379-11.99 11.99-11.99 0.925 0 1.825 0.109 2.691 0.308v-0.86c-0.868-0.186-1.768-0.286-2.691-0.286-7.073 0-12.828 5.755-12.828 12.828 0 3.105 1.109 5.955 2.952 8.177l0.572 0.642zM6.228 24.589l0.167-0.056c1.255-0.418 2.818-0.939 2.818-3.351 0-2.070-1.451-3.38-1.788-3.657-0.090-0.163-0.358-0.768 0.060-1.641l0.085-0.177-0.082-0.179c-0.009-0.020-0.926-2.074-0.228-3.813 0.349-0.87 1.059-1.524 2.14-1.958 0.011-0.006 1.1-0.54 2.27-0.54 1.319 0 2.177 0.648 2.622 1.982l0.023 0.071 0.047 0.059c0.015 0.019 1.505 1.923 0.374 4.185l-0.106 0.212 0.126 0.201c0.004 0.007 0.425 0.694 0.016 1.618-0.368 0.311-1.766 1.629-1.766 3.638 0 1.861 0.628 2.318 1.654 2.911 0.197 0.114 0.412 0.238 0.642 0.391 0.324 0.216 0.727 0.398 1.154 0.592 1.041 0.471 2.188 0.994 2.656 2.156-1.676 0.892-3.586 1.399-5.613 1.399-3.335 0-6.355-1.37-8.531-3.575 0.456-0.202 0.901-0.35 1.26-0.468z"></path>
</svg>
