<!-- Generated by IcoMoon.io -->
<svg version="1.1" xmlns="http://www.w3.org/2000/svg" width="32" height="32" viewBox="0 0 32 32">
<title>partner</title>
<path d="M4.298 18.163c0 0.445-0.36 0.805-0.805 0.805s-0.805-0.36-0.805-0.805c0-0.445 0.36-0.805 0.805-0.805s0.805 0.36 0.805 0.805zM29.059 18.163c0 0.445-0.36 0.805-0.805 0.805s-0.805-0.36-0.805-0.805c0-0.445 0.36-0.805 0.805-0.805s0.805 0.36 0.805 0.805zM31.739 10.556l-0.009-0.082c-0.060-0.569-0.152-1.428-1.613-1.428-0.762 0-2.905 0.061-4.114 0.097-0.499 0.015-0.949 0.261-1.228 0.664l-2.746-1.959c-0.19-0.183-1.204-1.096-2.525-1.096l-2.648 0.002-0.087 0.013c-0.044 0.012-1.101 0.301-2.021 1.152-0.223 0.206-0.54 0.554-0.943 1.036-0.849 0.024-1.737 0.092-2.128 0.164-0.672 0.123-1.628 0.815-2.040 1.134h-2.448c-0.188-0.647-0.757-1.088-1.442-1.109-1.209-0.037-3.351-0.097-4.114-0.097-1.461 0-1.552 0.859-1.613 1.428l-0.009 0.083c-0.069 0.622 0.267 7.538 0.526 9.287 0.096 0.65 0.359 1.136 0.78 1.445 0.392 0.288 0.832 0.348 1.132 0.348 0.149 0 0.275-0.015 0.353-0.028 0.040-0.006 0.077-0.010 0.112-0.010h2.783c0.819 0 1.492-0.637 1.551-1.441l1.282-0c0.43 0.863 1.757 3.425 2.854 4.464 0.438 0.415 0.971 0.626 1.584 0.626 0.763 0 1.418-0.333 1.71-0.507 0.837 0.358 1.607 0.42 2.29 0.183 0.618-0.215 1.010-0.629 1.21-0.895 1.558 0.364 2.318-0.482 2.603-0.938 0.445 0.062 1.216 0.11 1.885-0.147 0.048-0.019 0.474-0.203 0.698-0.743 0.167-0.402 0.178-0.89 0.034-1.453h1.268c0.264 0.52 0.8 0.852 1.386 0.852h2.783c0.036 0 0.072 0.003 0.111 0.010 0.080 0.013 0.205 0.028 0.355 0.028 0.3 0 0.74-0.060 1.132-0.348 0.421-0.309 0.684-0.795 0.781-1.445 0.259-1.752 0.595-8.666 0.526-9.287zM29.906 20.569c-0.293 0.215-0.671 0.183-0.82 0.159-0.087-0.014-0.17-0.021-0.252-0.021h-2.783c-0.366 0-0.664-0.298-0.664-0.664v-9.345c0-0.361 0.282-0.653 0.643-0.664 1.2-0.037 3.326-0.097 4.087-0.097 0.66 0 0.671 0.109 0.727 0.632l0.009 0.086c0.056 0.507-0.248 7.207-0.522 9.057-0.061 0.406-0.204 0.694-0.426 0.857zM18.547 18.349v0c-0.244 0.12-0.346 0.417-0.226 0.661l1.744 3.549c-0.137 0.264-0.584 0.87-1.718 0.593-0.003-0.007-0.006-0.013-0.009-0.020l-1.697-3.454c-0.058-0.118-0.159-0.207-0.284-0.25s-0.259-0.034-0.377 0.024c-0.118 0.058-0.207 0.159-0.249 0.284s-0.034 0.259 0.024 0.377l1.679 3.419c-0.151 0.191-0.396 0.423-0.76 0.549-0.47 0.163-1.032 0.104-1.672-0.175l-1.284-2.613c-0.12-0.244-0.417-0.345-0.661-0.225-0.118 0.058-0.207 0.159-0.249 0.284s-0.034 0.259 0.024 0.377l1.162 2.365c-0.501 0.246-1.344 0.499-1.998-0.121-1.165-1.103-2.772-4.422-2.787-4.456l-0.121-0.252h-1.835v-8.122h2.695l0.123-0.099c0.48-0.39 1.344-0.972 1.764-1.049 0.228-0.041 0.69-0.085 1.218-0.116-0.615 0.777-1.19 1.543-1.289 1.679-0.15 0.164-0.894 1.011-0.894 1.667 0 0.425 0.374 0.912 0.953 1.239 0.784 0.444 1.662 0.442 2.408-0.005 0.527-0.317 0.996-0.796 1.451-1.26 0.685-0.7 1.333-1.36 1.97-1.239 0.226 0.043 1.775 1.689 4.706 8.488 0.573 1.37-0.003 1.657-0.020 1.665-0.445 0.171-1.008 0.144-1.34 0.105l-1.79-3.643c-0.12-0.244-0.416-0.345-0.661-0.225zM15.044 12.576l0.080 0.082-0.082-0.080-0.002 0.002c-0.413 0.422-0.84 0.858-1.269 1.116-0.657 0.395-1.275 0.128-1.51-0.005-0.366-0.208-0.492-0.441-0.501-0.464 0-0.205 0.354-0.732 0.677-1.083l0.024-0.030c0.215-0.287 2.122-2.828 2.89-3.538 0.652-0.602 1.413-0.871 1.598-0.93h2.555c0.969 0 1.773 0.718 1.924 0.862l3.068 2.198v9.152h-1.424c-0.38-0.872-1.303-2.944-2.292-4.824-1.348-2.565-2.289-3.819-2.962-3.947-1.105-0.212-1.954 0.654-2.775 1.492zM0.895 10.654l0.009-0.085c0.056-0.523 0.068-0.631 0.727-0.631 0.761 0 2.887 0.061 4.088 0.097 0.36 0.011 0.643 0.302 0.643 0.664v9.345c0 0.366-0.298 0.664-0.664 0.664h-2.783c-0.082 0-0.165 0.007-0.252 0.021-0.149 0.024-0.526 0.055-0.819-0.159-0.222-0.163-0.365-0.451-0.426-0.857-0.274-1.851-0.578-8.551-0.522-9.058z"></path>
</svg>
