<!-- Generated by IcoMoon.io -->
<svg version="1.1" xmlns="http://www.w3.org/2000/svg" width="32" height="32" viewBox="0 0 32 32">
<title>pingone</title>
<path d="M12.958 21.126h-7.48c-2.478 0-4.494-2.049-4.494-4.568 0-2.307 1.672-4.233 3.908-4.529-0.007-0.057-0.014-0.114-0.014-0.173 0-1.564 1.252-2.836 2.79-2.836 0.932 0 1.88 0.533 2.449 1.353 0.44-2.958 3.095-5.312 6.069-5.312 3.034 0 5.544 2.32 5.907 5.306h0.752c-0.367-3.408-3.213-6.068-6.659-6.068-2.835 0-5.373 1.831-6.316 4.557l-0.050 0.144-0.124-0.088c-0.598-0.428-1.3-0.654-2.028-0.654-1.739 0-3.241 1.32-3.494 3.071l-0.011 0.074-0.071 0.020c-2.269 0.632-3.854 2.744-3.854 5.135 0 2.939 2.351 5.331 5.24 5.331h7.48v-0.763zM17.214 13.208h11.722c0.277 0 0.524 0.157 0.646 0.41l0.017 0.036h0.671l-0.021-0.080c-0.16-0.594-0.7-1.008-1.313-1.008h-11.722c-0.75 0-1.361 0.611-1.361 1.361v9.687c0 0.671 0.481 1.235 1.144 1.342l0.073 0.012v-0.652l-0.046-0.013c-0.311-0.086-0.529-0.37-0.529-0.69v-9.687c0-0.396 0.323-0.719 0.719-0.719zM15.459 11.69h11.722c0.277 0 0.524 0.157 0.646 0.41l0.017 0.036h0.671l-0.021-0.080c-0.16-0.594-0.7-1.008-1.313-1.008h-11.722c-0.75 0-1.361 0.611-1.361 1.361v9.687c0 0.671 0.481 1.236 1.144 1.342l0.073 0.012v-0.652l-0.046-0.013c-0.311-0.086-0.529-0.37-0.529-0.69v-9.687c-0-0.396 0.322-0.719 0.719-0.719zM30.639 14.096h-11.722c-0.75 0-1.361 0.611-1.361 1.361v9.687c0 0.75 0.611 1.361 1.361 1.361h11.722c0.75 0 1.361-0.611 1.361-1.361v-9.687c0-0.75-0.611-1.361-1.361-1.361zM18.198 15.457c0-0.396 0.323-0.719 0.719-0.719h11.722c0.396 0 0.719 0.323 0.719 0.719v1.237h-13.159v-1.237zM31.358 17.336v7.808c0 0.396-0.323 0.719-0.719 0.719h-11.722c-0.396 0-0.719-0.323-0.719-0.719v-7.808h13.159zM19.716 15.74c0 0.244-0.198 0.441-0.441 0.441s-0.441-0.198-0.441-0.441c0-0.244 0.198-0.441 0.441-0.441s0.441 0.198 0.441 0.441zM20.991 15.74c0 0.244-0.198 0.441-0.441 0.441s-0.441-0.198-0.441-0.441c0-0.244 0.198-0.441 0.441-0.441s0.441 0.198 0.441 0.441zM22.265 15.74c0 0.244-0.198 0.441-0.441 0.441s-0.441-0.198-0.441-0.441c0-0.244 0.198-0.441 0.441-0.441s0.441 0.198 0.441 0.441z"></path>
</svg>
