<!-- Generated by IcoMoon.io -->
<svg version="1.1" xmlns="http://www.w3.org/2000/svg" width="32" height="32" viewBox="0 0 32 32">
<title>pingone-cloud</title>
<path d="M18.549 17.193c1.065 0 1.688 0.798 1.688 1.87 0 1.098-0.618 1.87-1.688 1.87s-1.688-0.772-1.688-1.87c0-1.072 0.623-1.87 1.688-1.87zM18.549 20.478c0.809 0 1.156-0.694 1.156-1.414 0-0.736-0.382-1.419-1.156-1.414-0.774-0.005-1.156 0.678-1.156 1.414 0 0.72 0.347 1.414 1.156 1.414zM20.503 18.23h0.457v0.42h0.010c0.141-0.3 0.482-0.482 0.839-0.482 0.663 0 0.96 0.425 0.96 1.134v1.57h-0.472v-1.368c0-0.617-0.13-0.917-0.543-0.943-0.538 0-0.779 0.445-0.779 1.088v1.223h-0.472v-2.642zM25.136 20.763c-0.181 0.067-0.387 0.171-0.809 0.171-0.91 0-1.326-0.57-1.326-1.43 0-0.782 0.477-1.337 1.201-1.337 0.854 0 1.131 0.642 1.131 1.492h-1.829c0 0.523 0.397 0.881 0.844 0.881 0.311 0 0.673-0.166 0.789-0.264v0.487zM24.83 19.297c0-0.404-0.231-0.736-0.638-0.736-0.462 0-0.653 0.394-0.688 0.736h1.326zM8.243 17.071c0.645 0 0.842 0.066 1.056 0.186 0.356 0.197 0.546 0.547 0.546 0.985 0 0.503-0.24 0.907-0.656 1.104-0.175 0.082-0.339 0.125-0.76 0.125h-0.421v1.4h-0.765v-3.801h1zM8.008 18.848h0.399c0.312 0 0.405-0.039 0.508-0.197 0.066-0.105 0.093-0.214 0.093-0.395 0-0.355-0.191-0.568-0.514-0.568h-0.486v1.159zM10.923 17.301c0 0.252-0.203 0.454-0.454 0.454-0.246 0-0.448-0.202-0.448-0.454s0.208-0.454 0.459-0.454c0.246 0 0.444 0.202 0.444 0.454zM10.835 18.005v2.866h-0.732v-2.751l0.732-0.116zM11.825 18.001c0.066 0.115 0.104 0.235 0.104 0.35 0.11-0.076 0.203-0.142 0.323-0.208 0.147-0.076 0.339-0.119 0.503-0.119 0.312 0 0.585 0.163 0.673 0.404 0.038 0.104 0.055 0.225 0.055 0.399v2.046h-0.722v-1.821c0-0.317-0.055-0.41-0.247-0.41-0.147 0-0.338 0.098-0.508 0.251v1.98h-0.733v-2.029c0-0.241-0.033-0.471-0.098-0.657l0.65-0.186zM16.675 18.378c-0.159 0.148-0.312 0.208-0.514 0.208-0.071 0-0.148-0.011-0.191-0.016 0.109 0.13 0.164 0.273 0.164 0.458 0 0.481-0.438 0.832-1.034 0.832-0.033 0-0.055 0-0.11-0.006-0.185 0.088-0.289 0.154-0.289 0.23 0 0.038 0.044 0.066 0.12 0.066l0.394 0.005c0.426 0.005 0.651 0.071 0.847 0.251 0.163 0.154 0.241 0.344 0.241 0.597 0 0.235-0.071 0.415-0.224 0.579-0.246 0.263-0.668 0.361-1.105 0.361-0.398 0-0.809-0.065-1.060-0.3-0.153-0.143-0.23-0.307-0.23-0.498 0-0.152 0.038-0.229 0.065-0.284h0.678c-0.028 0.066-0.033 0.104-0.033 0.181 0 0.224 0.186 0.343 0.525 0.343 0.186 0 0.344-0.021 0.459-0.092 0.109-0.066 0.181-0.17 0.181-0.284 0-0.252-0.225-0.328-0.514-0.333l-0.312-0.006c-0.328-0.005-0.541-0.033-0.673-0.087-0.131-0.050-0.213-0.176-0.213-0.366 0-0.181 0.055-0.351 0.514-0.471-0.405-0.104-0.602-0.361-0.602-0.777 0-0.574 0.465-0.945 1.181-0.945 0.159 0 0.301 0.022 0.503 0.070 0.153 0.038 0.252 0.061 0.344 0.061 0.202 0 0.41-0.087 0.58-0.241l0.306 0.465zM14.498 18.974c0 0.284 0.176 0.398 0.433 0.398 0.289 0 0.448-0.142 0.448-0.398 0-0.262-0.164-0.416-0.444-0.416-0.278-0-0.438 0.153-0.438 0.416zM26.234 17.957c0 0.249-0.195 0.444-0.45 0.444-0.252 0-0.452-0.196-0.452-0.444 0-0.244 0.201-0.439 0.452-0.439 0.255 0 0.45 0.195 0.45 0.439zM25.444 17.957c0 0.196 0.145 0.351 0.343 0.351 0.193 0 0.335-0.155 0.335-0.348 0-0.196-0.142-0.354-0.337-0.354s-0.34 0.158-0.34 0.351zM25.715 18.187h-0.102v-0.439c0.040-0.008 0.096-0.013 0.169-0.013 0.083 0 0.12 0.013 0.153 0.032 0.024 0.019 0.043 0.054 0.043 0.096 0 0.048-0.037 0.086-0.091 0.102v0.005c0.043 0.016 0.067 0.048 0.080 0.107 0.014 0.067 0.021 0.094 0.032 0.11h-0.11c-0.013-0.016-0.021-0.056-0.035-0.107-0.008-0.048-0.035-0.070-0.091-0.070h-0.048v0.177zM25.717 17.939h0.048c0.056 0 0.102-0.019 0.102-0.064 0-0.040-0.030-0.067-0.094-0.067-0.027 0-0.046 0.003-0.056 0.005v0.126zM26.631 14.995l-0.141-0.012 0.020-0.14c0.064-0.443 0.093-0.814 0.093-1.169 0-4.414-3.531-8.005-7.87-8.005-3.33 0-6.311 2.151-7.419 5.353l-0.058 0.169-0.145-0.104c-0.703-0.503-1.526-0.768-2.382-0.768-2.042 0-3.807 1.551-4.105 3.607l-0.012 0.086-0.084 0.023c-2.666 0.744-4.527 3.224-4.527 6.033 0 3.452 2.761 6.261 6.155 6.261h20.009c3.079 0 5.584-2.548 5.584-5.68 0-2.93-2.248-5.414-5.117-5.656zM26.164 25.435h-20.009c-2.911 0-5.279-2.407-5.279-5.366 0-2.71 1.964-4.972 4.59-5.319-0.009-0.067-0.016-0.134-0.016-0.204 0-1.837 1.47-3.331 3.278-3.331 1.095 0 2.208 0.626 2.876 1.589 0.517-3.474 3.636-6.24 7.129-6.24 3.856 0 6.994 3.189 6.994 7.11 0 0.764-0.125 1.525-0.371 2.266 0.272-0.049 0.543-0.074 0.809-0.074 2.596 0 4.707 2.146 4.707 4.784s-2.112 4.784-4.707 4.784z"></path>
</svg>
