<!-- Generated by IcoMoon.io -->
<svg version="1.1" xmlns="http://www.w3.org/2000/svg" width="32" height="32" viewBox="0 0 32 32">
<title>pingfed</title>
<path d="M4.467 5.596c0 0.378-0.306 0.684-0.684 0.684s-0.684-0.306-0.684-0.684c0-0.378 0.306-0.684 0.684-0.684s0.684 0.306 0.684 0.684zM8.568 5.596c0 0.378-0.306 0.684-0.684 0.684s-0.684-0.306-0.684-0.684c0-0.378 0.306-0.684 0.684-0.684s0.684 0.306 0.684 0.684zM6.517 5.596c0 0.378-0.306 0.684-0.684 0.684s-0.684-0.306-0.684-0.684c0-0.378 0.306-0.684 0.684-0.684s0.684 0.306 0.684 0.684zM30.132 17.31c0.456 0 0.828-0.371 0.828-0.827v-3.407c0-0.456-0.371-0.827-0.828-0.827h-15.998c-0.456 0-0.827 0.371-0.827 0.827v3.406c0 0.456 0.371 0.827 0.827 0.827h2.641v0.753h-2.641c-0.456 0-0.827 0.371-0.827 0.827v3.406c0 0.456 0.371 0.827 0.827 0.827h2.641v0.753h-2.641c-0.456 0-0.827 0.371-0.827 0.827v3.406c0 0.456 0.371 0.827 0.827 0.827h15.998c0.456 0 0.828-0.371 0.828-0.827v-3.406c0-0.456-0.371-0.827-0.828-0.827h-2.332v-0.753h2.332c0.456 0 0.828-0.371 0.828-0.827v-3.407c0-0.456-0.371-0.827-0.828-0.827h-2.332v-0.753h2.332zM14.043 16.482v-3.406c0-0.050 0.041-0.092 0.092-0.092h15.998c0.051 0 0.092 0.041 0.092 0.092v3.406c0 0.050-0.041 0.092-0.092 0.092h-15.998c-0.051 0-0.092-0.041-0.092-0.092zM30.224 24.704v3.406c0 0.050-0.041 0.092-0.092 0.092h-15.998c-0.051 0-0.092-0.041-0.092-0.092v-3.406c0-0.050 0.041-0.092 0.092-0.092h15.998c0.051 0 0.092 0.041 0.092 0.092zM27.064 23.877h-9.553v-0.753h9.553v0.753zM30.224 18.89v3.406c0 0.050-0.041 0.092-0.092 0.092h-15.998c-0.051 0-0.092-0.041-0.092-0.092v-3.406c0-0.050 0.041-0.092 0.092-0.092h15.998c0.051 0 0.092 0.041 0.092 0.092zM27.064 18.063h-9.553v-0.753h9.553v0.753zM1.958 20.898v-12.917h20.99v3.298h0.807v-6.527c0-0.892-0.723-1.615-1.615-1.615h-19.375c-0.892 0-1.615 0.723-1.615 1.615v16.146c0 0.892 0.723 1.615 1.615 1.615h9.099v-0.807h-9.099c-0.446 0-0.807-0.361-0.807-0.807zM1.958 4.752c0-0.445 0.362-0.807 0.807-0.807h19.375c0.446 0 0.807 0.362 0.807 0.807v2.422h-20.99v-2.422zM29.12 14.789c0 0.363-0.294 0.657-0.657 0.657s-0.657-0.294-0.657-0.657c0-0.363 0.294-0.657 0.657-0.657s0.657 0.294 0.657 0.657zM26.26 14.421h-10.597c-0.203 0-0.368 0.165-0.368 0.368s0.165 0.368 0.368 0.368h10.597c0.203 0 0.368-0.165 0.368-0.368s-0.165-0.368-0.368-0.368zM29.12 20.593c0 0.363-0.294 0.657-0.657 0.657s-0.657-0.294-0.657-0.657c0-0.363 0.294-0.657 0.657-0.657s0.657 0.294 0.657 0.657zM15.662 20.961h10.597c0.203 0 0.368-0.165 0.368-0.368s-0.165-0.368-0.368-0.368h-10.597c-0.203 0-0.368 0.165-0.368 0.368s0.165 0.368 0.368 0.368zM29.12 26.397c0 0.363-0.294 0.657-0.657 0.657s-0.657-0.294-0.657-0.657c0-0.363 0.294-0.657 0.657-0.657s0.657 0.294 0.657 0.657zM15.662 26.765h10.597c0.203 0 0.368-0.165 0.368-0.368s-0.165-0.368-0.368-0.368h-10.597c-0.203 0-0.368 0.165-0.368 0.368s0.165 0.368 0.368 0.368z"></path>
</svg>
