<!-- Generated by IcoMoon.io -->
<svg version="1.1" xmlns="http://www.w3.org/2000/svg" width="32" height="32" viewBox="0 0 32 32">
<title>plan</title>
<path d="M28.333 0h-24.666c-1.104 0-2 0.896-2 2v28c0 1.105 0.896 2 2 2h24.667c1.105 0 2-0.895 2-2v-28c-0-1.104-0.895-2-2-2zM29.186 29.648c0 0.579-0.468 1.047-1.047 1.047h-23.882c-0.579 0-1.047-0.468-1.047-1.047v-27.216c0-0.579 0.468-1.047 1.047-1.047h23.882c0.579 0 1.047 0.468 1.047 1.047v27.216zM26.196 19.266h-12.895c-0.198 0-0.358-0.28-0.358-0.626 0-0.345 0.16-0.626 0.358-0.626h12.894c0.198 0 0.358 0.281 0.358 0.626 0 0.346-0.16 0.626-0.358 0.626zM26.196 14.26h-12.895c-0.198 0-0.358-0.28-0.358-0.626 0-0.345 0.16-0.626 0.358-0.626h12.894c0.198 0 0.358 0.281 0.358 0.626 0 0.346-0.16 0.626-0.358 0.626zM26.196 9.255h-12.895c-0.198 0-0.358-0.28-0.358-0.626s0.16-0.626 0.358-0.626h12.894c0.198 0 0.358 0.28 0.358 0.626s-0.16 0.626-0.358 0.626zM26.196 24.263h-12.895c-0.198 0-0.358-0.28-0.358-0.626 0-0.345 0.16-0.626 0.358-0.626h12.894c0.198 0 0.358 0.281 0.358 0.626s-0.16 0.626-0.358 0.626zM7.652 9.64c0.1 0.1 0.234 0.156 0.376 0.156s0.276-0.055 0.376-0.156l2.695-2.695c0.207-0.207 0.207-0.545 0-0.752-0.201-0.201-0.552-0.201-0.752 0l-2.316 2.317-1.076-1.094c-0.201-0.201-0.552-0.201-0.752 0-0.1 0.1-0.156 0.234-0.156 0.376s0.055 0.276 0.155 0.375l1.45 1.474zM7.652 14.686c0.1 0.1 0.234 0.156 0.376 0.156s0.276-0.055 0.376-0.156l2.695-2.695c0.207-0.207 0.207-0.545 0-0.752-0.201-0.201-0.552-0.201-0.752 0l-2.316 2.317-1.076-1.094c-0.201-0.201-0.552-0.201-0.752 0-0.1 0.1-0.156 0.234-0.156 0.376s0.055 0.276 0.155 0.375l1.45 1.474zM7.652 19.732c0.1 0.1 0.234 0.156 0.376 0.156s0.276-0.055 0.376-0.156l2.695-2.695c0.207-0.207 0.207-0.545 0-0.752-0.201-0.201-0.552-0.201-0.752 0l-2.316 2.317-1.076-1.094c-0.201-0.201-0.552-0.201-0.752 0-0.1 0.1-0.156 0.234-0.156 0.376s0.055 0.276 0.155 0.375l1.45 1.474zM11.099 21.282c-0.201-0.201-0.551-0.201-0.752 0l-2.316 2.316-1.076-1.094c-0.207-0.207-0.545-0.207-0.752 0s-0.207 0.545-0.001 0.751l1.45 1.474c0.104 0.103 0.24 0.156 0.376 0.156s0.272-0.052 0.376-0.156l2.695-2.696c0.1-0.1 0.156-0.234 0.156-0.376s-0.055-0.276-0.156-0.376z"></path>
</svg>
