<!-- Generated by IcoMoon.io -->
<svg version="1.1" xmlns="http://www.w3.org/2000/svg" width="32" height="32" viewBox="0 0 32 32">
<title>plugin</title>
<path d="M27.11 14.288c-0.487 0-0.947 0.096-1.388 0.236v-8.174c0-0.275-0.222-0.498-0.498-0.498h-7.907c0.107-0.39 0.182-0.792 0.182-1.215 0-2.557-2.081-4.638-4.638-4.638s-4.639 2.081-4.639 4.638c0 0.423 0.075 0.825 0.182 1.215h-7.907c-0.275 0-0.498 0.222-0.498 0.498v10.124c0.284-0.31 0.621-0.564 0.996-0.761 0.505-0.265 1.071-0.43 1.68-0.43 2.008 0 3.643 1.634 3.643 3.642s-1.635 3.642-3.643 3.642c-0.609 0-1.175-0.164-1.68-0.43-0.375-0.197-0.711-0.451-0.996-0.761v10.124c0 0.275 0.222 0.498 0.498 0.498h9.397c-0.214-0.301-0.372-0.637-0.487-0.996-0.112-0.351-0.19-0.717-0.19-1.104 0-2.008 1.635-3.643 3.643-3.643s3.642 1.635 3.642 3.643c0 0.387-0.077 0.753-0.19 1.104-0.115 0.358-0.273 0.695-0.486 0.996h9.396c0.275 0 0.498-0.222 0.498-0.498v-8.174c0.441 0.14 0.901 0.236 1.388 0.236 2.557 0 4.638-2.081 4.638-4.638s-2.080-4.638-4.637-4.638zM27.11 22.568c-0.491 0-0.96-0.1-1.388-0.278-0.369-0.153-0.699-0.374-0.996-0.632v9.346h-7.375c0.088-0.356 0.147-0.721 0.147-1.104 0-2.558-2.081-4.639-4.638-4.639s-4.639 2.081-4.639 4.639c0 0.382 0.060 0.748 0.147 1.104h-7.375v-7.767c0.523 0.204 1.086 0.327 1.68 0.327 2.558 0 4.639-2.081 4.639-4.638s-2.080-4.638-4.639-4.638c-0.594 0-1.158 0.122-1.68 0.327v-7.767h8.99c-0.231-0.3-0.414-0.633-0.544-0.996-0.137-0.382-0.224-0.787-0.224-1.215 0-2.008 1.635-3.642 3.643-3.642s3.642 1.634 3.642 3.642c0 0.428-0.088 0.833-0.224 1.215-0.13 0.363-0.312 0.696-0.544 0.996h8.99v9.346c0.297-0.259 0.626-0.48 0.996-0.632 0.428-0.177 0.897-0.278 1.388-0.278 2.008 0 3.642 1.634 3.642 3.642s-1.633 3.642-3.642 3.642z"></path>
</svg>
