<!-- Generated by IcoMoon.io -->
<svg version="1.1" xmlns="http://www.w3.org/2000/svg" width="32" height="32" viewBox="0 0 32 32">
<title>preference-settings</title>
<path d="M26.646 12.598h-1.701v-6.803c0-0.313-0.254-0.567-0.567-0.567s-0.567 0.254-0.567 0.567v6.803h-1.701c-0.626 0-1.134 0.508-1.134 1.134v1.134c0 0.626 0.508 1.134 1.134 1.134h1.701v10.205c0 0.313 0.254 0.567 0.567 0.567s0.567-0.254 0.567-0.567v-10.205h1.701c0.626 0 1.134-0.508 1.134-1.134v-1.134c0-0.626-0.508-1.134-1.134-1.134zM26.646 14.866h-4.535v-1.134h4.535v1.134zM9.638 10.331h-1.701v-4.535c0-0.313-0.254-0.567-0.567-0.567s-0.567 0.254-0.567 0.567v4.535h-1.701c-0.626 0-1.134 0.508-1.134 1.134v1.134c0 0.626 0.508 1.134 1.134 1.134h1.701v12.473c0 0.313 0.254 0.567 0.567 0.567s0.567-0.254 0.567-0.567v-12.473h1.701c0.626 0 1.134-0.508 1.134-1.134v-1.134c0-0.626-0.508-1.134-1.134-1.134zM9.638 12.598h-4.535v-1.134h4.535v1.134zM18.142 18.268h-1.701v-12.473c0-0.313-0.254-0.567-0.567-0.567s-0.567 0.254-0.567 0.567v12.473h-1.701c-0.626 0-1.134 0.508-1.134 1.134v1.134c0 0.626 0.508 1.134 1.134 1.134h1.701v4.536c0 0.313 0.254 0.567 0.567 0.567s0.567-0.254 0.567-0.567v-4.535h1.701c0.626 0 1.134-0.508 1.134-1.134v-1.134c0-0.626-0.507-1.134-1.134-1.134zM18.142 20.535h-4.535v-1.134h4.535v1.134zM29.48 0.126h-27.213c-1.252 0-2.268 1.015-2.268 2.268v27.212c0 1.252 1.015 2.268 2.268 2.268h27.212c1.252 0 2.268-1.015 2.268-2.268v-27.212c0-1.252-1.015-2.268-2.267-2.268zM30.614 29.606c0 0.626-0.508 1.134-1.134 1.134h-27.213c-0.626 0-1.134-0.508-1.134-1.134v-27.212c0-0.626 0.508-1.134 1.134-1.134h27.212c0.626 0 1.134 0.508 1.134 1.134v27.212z"></path>
</svg>
