<!-- Generated by IcoMoon.io -->
<svg version="1.1" xmlns="http://www.w3.org/2000/svg" width="32" height="32" viewBox="0 0 32 32">
<title>presentation</title>
<path d="M29.605 20.48h-0.62v-14.971h0.62c0.92 0 1.667-0.748 1.667-1.668s-0.748-1.667-1.667-1.667h-13.207v-1.193c0-0.289-0.234-0.524-0.524-0.524s-0.524 0.234-0.524 0.524v1.193h-13.207c-0.919 0-1.667 0.748-1.667 1.667s0.748 1.668 1.667 1.668h0.621v14.972h-0.621c-0.919 0-1.667 0.747-1.667 1.667s0.748 1.667 1.667 1.667h12.388l-7.216 6.821c-0.213 0.197-0.227 0.528-0.031 0.739 0.104 0.112 0.244 0.169 0.385 0.169 0.127 0 0.254-0.046 0.354-0.138l7.326-6.922v5.49c0 0.289 0.234 0.524 0.524 0.524s0.524-0.234 0.524-0.524v-5.49l7.326 6.922c0.101 0.093 0.228 0.138 0.355 0.138 0.141 0 0.282-0.057 0.385-0.169 0.196-0.212 0.182-0.544-0.031-0.739l-7.216-6.82h12.388c0.92 0 1.667-0.748 1.667-1.668s-0.749-1.668-1.667-1.668zM2.144 4.462c-0.342 0-0.621-0.279-0.621-0.621s0.278-0.621 0.621-0.621h27.46c0.342 0 0.621 0.278 0.621 0.621s-0.279 0.621-0.621 0.621h-27.46zM27.937 5.508v14.971h-24.125v-14.971h24.125zM29.605 22.768h-27.461c-0.342 0-0.621-0.279-0.621-0.621s0.278-0.62 0.621-0.62h27.46c0.342 0 0.621 0.278 0.621 0.62s-0.278 0.621-0.62 0.621zM7.994 19.17h15.76c0.289 0 0.524-0.234 0.524-0.524v-11.248c0-0.289-0.234-0.524-0.524-0.524h-15.76c-0.289 0-0.524 0.234-0.524 0.524v11.248c0 0.288 0.234 0.523 0.524 0.523zM8.517 7.922h14.713v4.754l-3.98 1.681-4.459-4.955c-0.169-0.187-0.448-0.228-0.662-0.096l-5.612 3.435v-4.819zM8.517 13.969l5.787-3.543 4.418 4.909c0.102 0.113 0.244 0.173 0.389 0.173 0.069 0 0.138-0.013 0.204-0.041l3.916-1.655v4.311h-14.714v-4.154z"></path>
</svg>
