<!-- Generated by IcoMoon.io -->
<svg version="1.1" xmlns="http://www.w3.org/2000/svg" width="32" height="32" viewBox="0 0 32 32">
<title>press-release</title>
<path d="M7.225 7.935h6.364c0.098 0 0.177 0.2 0.177 0.448s-0.079 0.448-0.177 0.448h-6.364c-0.098 0-0.177-0.2-0.177-0.448s0.079-0.448 0.177-0.448zM7.387 10.719h12.206c0.188 0 0.339 0.2 0.339 0.448s-0.152 0.448-0.339 0.448h-12.206c-0.188 0-0.339-0.2-0.339-0.448s0.152-0.448 0.339-0.448zM11.658 19.969h-4.271c-0.188 0-0.339-0.2-0.339-0.448s0.152-0.448 0.339-0.448h4.271c0.188 0 0.339 0.201 0.339 0.448s-0.152 0.448-0.339 0.448zM19.593 17.184h-12.206c-0.188 0-0.339-0.2-0.339-0.448s0.152-0.448 0.339-0.448h12.206c0.188 0 0.339 0.201 0.339 0.448s-0.152 0.448-0.339 0.448zM19.593 14.4h-12.206c-0.188 0-0.339-0.2-0.339-0.448s0.152-0.448 0.339-0.448h12.206c0.188 0 0.339 0.201 0.339 0.448s-0.152 0.448-0.339 0.448zM18.010 0h-13.060c-0.832 0-1.508 0.676-1.508 1.508v25.199c0 0.832 0.676 1.508 1.508 1.508h4.871c-0.239-0.274-0.439-0.582-0.591-0.917h-4.28c-0.326 0-0.591-0.266-0.591-0.592v-25.199c0-0.326 0.265-0.591 0.591-0.591h12.4v6.087h5.609v10.963l0.917-0.262v-11.339l-5.866-6.366zM18.267 6.087v-4.454l4.104 4.454h-4.104zM19.593 16.288h-12.206c-0.188 0-0.339 0.201-0.339 0.448s0.152 0.448 0.339 0.448h12.206c0.188 0 0.339-0.2 0.339-0.448s-0.152-0.448-0.339-0.448zM11.658 19.073h-4.271c-0.188 0-0.339 0.201-0.339 0.448s0.152 0.448 0.339 0.448h4.271c0.188 0 0.339-0.2 0.339-0.448s-0.152-0.448-0.339-0.448zM19.593 13.504h-12.206c-0.188 0-0.339 0.201-0.339 0.448s0.152 0.448 0.339 0.448h12.206c0.188 0 0.339-0.2 0.339-0.448s-0.152-0.448-0.339-0.448zM7.387 11.615h12.206c0.188 0 0.339-0.2 0.339-0.448s-0.152-0.448-0.339-0.448h-12.206c-0.188 0-0.339 0.2-0.339 0.448s0.152 0.448 0.339 0.448zM7.225 8.831h6.364c0.098 0 0.177-0.2 0.177-0.448s-0.079-0.448-0.177-0.448h-6.364c-0.098 0-0.177 0.2-0.177 0.448s0.079 0.448 0.177 0.448zM27.195 18.338c-0.714 0-1.3 0.551-1.357 1.25l-12.193 3.484c-0.258-0.302-0.637-0.48-1.034-0.48-0.751 0-1.362 0.611-1.362 1.362v1.823c0 0.751 0.611 1.362 1.362 1.362 0.393 0 0.758-0.167 1.018-0.463l2.207 0.736-0.267 0.8c-0.115 0.345-0.089 0.714 0.073 1.040s0.442 0.568 0.788 0.684l2.306 0.77c0.345 0.115 0.714 0.089 1.040-0.074s0.568-0.442 0.683-0.788l0.268-0.802 5.11 1.703c0.055 0.701 0.643 1.255 1.358 1.255 0.751 0 1.362-0.611 1.362-1.362v-10.938c0-0.751-0.611-1.362-1.362-1.362zM13.072 25.776c0 0.254-0.207 0.461-0.461 0.461s-0.461-0.207-0.461-0.461v-1.823c0-0.254 0.207-0.461 0.461-0.461s0.461 0.207 0.461 0.461v1.823zM19.604 29.558c-0.039 0.117-0.121 0.211-0.231 0.266s-0.235 0.064-0.352 0.025l-2.306-0.77c-0.241-0.081-0.372-0.342-0.291-0.583l0.267-0.801 3.18 1.060-0.268 0.802zM25.833 29.827l-11.865-3.955c0.003-0.031 0.005-0.063 0.005-0.095v-1.823c0-0.021-0.001-0.041-0.003-0.062l11.862-3.389v9.324zM27.656 30.638c0 0.254-0.207 0.461-0.461 0.461s-0.461-0.207-0.461-0.461v-10.939c0-0.254 0.207-0.461 0.461-0.461s0.461 0.207 0.461 0.461v10.939z"></path>
</svg>
