<!-- Generated by IcoMoon.io -->
<svg version="1.1" xmlns="http://www.w3.org/2000/svg" width="32" height="32" viewBox="0 0 32 32">
<title>present</title>
<path d="M30.267 7.762h-3.253c0.72-1.079 0.937-2.652 0.517-3.876-0.683-1.99-2.66-3.435-4.7-3.435-0.804 0-1.578 0.211-2.3 0.628-0.952 0.55-3.581 3.137-4.884 5.213-1.304-2.076-3.932-4.663-4.885-5.213-0.721-0.417-1.495-0.628-2.299-0.628-2.040 0-4.016 1.445-4.7 3.435-0.42 1.224-0.203 2.797 0.517 3.875h-2.798v5.794h3.253v17.994h22.278v-17.995h3.253v-5.793zM21.256 2.333c0.498-0.288 1.028-0.434 1.575-0.434 1.44 0 2.84 1.033 3.328 2.457 0.28 0.816 0.116 1.958-0.383 2.657-0.351 0.493-0.837 0.744-1.441 0.745l-7.894 0.004c0.601-1.325 3.523-4.683 4.815-5.429zM6.959 7.758c-0.605-0-1.090-0.251-1.442-0.744-0.498-0.698-0.663-1.841-0.383-2.658 0.489-1.424 1.889-2.457 3.329-2.457 0.546 0 1.076 0.146 1.574 0.434 1.291 0.746 4.214 4.104 4.814 5.429l-7.892-0.003zM2.931 12.106v-2.895l12.219 0.004v2.891h-12.219zM6.184 13.555h8.965v16.545h-8.965v-16.545zM25.564 30.101h-8.966v-16.545h8.965l0 16.545zM28.817 12.106h-12.218v-2.892l12.219-0.004-0 2.895z"></path>
</svg>
