<!-- Generated by IcoMoon.io -->
<svg version="1.1" xmlns="http://www.w3.org/2000/svg" width="32" height="32" viewBox="0 0 32 32">
<title>product</title>
<path d="M28.412 8.779h-18.668c-1.14 0-2.067 0.927-2.067 2.067v15.428c0 1.14 0.927 2.067 2.067 2.067h18.668c1.14 0 2.067-0.927 2.067-2.067v-15.428c0-1.14-0.927-2.067-2.067-2.067zM9.744 9.601h18.668c0.687 0 1.245 0.559 1.245 1.245v2.071h-21.158v-2.071c-0-0.687 0.558-1.245 1.245-1.245zM28.412 27.519h-18.668c-0.687 0-1.245-0.559-1.245-1.245v-12.534h21.158v12.534c0 0.687-0.558 1.245-1.245 1.245zM11.016 11.298c0 0.388-0.315 0.703-0.703 0.703s-0.703-0.315-0.703-0.703c0-0.388 0.315-0.703 0.703-0.703s0.703 0.315 0.703 0.703zM13.046 11.298c0 0.388-0.315 0.703-0.703 0.703s-0.703-0.315-0.703-0.703c0-0.388 0.315-0.703 0.703-0.703s0.703 0.315 0.703 0.703zM15.076 11.298c0 0.388-0.315 0.703-0.703 0.703s-0.703-0.315-0.703-0.703c0-0.388 0.315-0.703 0.703-0.703s0.703 0.315 0.703 0.703zM27.481 7.713c-0.135-0.91-0.925-1.597-1.838-1.597h-19.211c-1.028 0-1.865 0.84-1.865 1.872v15.955c0 1.032 0.837 1.872 1.865 1.872h0.255v-0.939h-0.255c-0.512 0-0.929-0.418-0.929-0.933v-15.955c0-0.515 0.417-0.933 0.929-0.933h19.212c0.423 0 0.792 0.29 0.897 0.705l0.022 0.089h0.938l-0.020-0.135zM2.458 21.486v-15.955c0-0.515 0.417-0.933 0.929-0.933h19.212c0.423 0 0.792 0.29 0.897 0.705l0.022 0.089h0.938l-0.020-0.135c-0.135-0.91-0.925-1.597-1.838-1.597h-19.212c-1.028 0-1.865 0.84-1.865 1.872v15.955c0 1.032 0.837 1.872 1.865 1.872h0.254v-0.94h-0.254c-0.512 0-0.929-0.418-0.929-0.933z"></path>
</svg>
