<!-- Generated by IcoMoon.io -->
<svg version="1.1" xmlns="http://www.w3.org/2000/svg" width="32" height="32" viewBox="0 0 32 32">
<title>provisioning</title>
<path d="M15.874 31.874c-0.573 0-1.111-0.223-1.516-0.628v0 0l-13.73-13.73c-0.405-0.405-0.628-0.943-0.628-1.516s0.223-1.111 0.628-1.516l13.73-13.73c0.405-0.405 0.943-0.628 1.516-0.628s1.111 0.223 1.516 0.628l13.73 13.73c0.405 0.405 0.628 0.943 0.628 1.516s-0.223 1.111-0.628 1.516l-13.73 13.73c-0.405 0.405-0.943 0.628-1.516 0.628zM15.874 1.231c-0.277 0-0.538 0.108-0.735 0.304l-13.73 13.73c-0.196 0.196-0.304 0.457-0.304 0.735s0.108 0.538 0.304 0.735l13.73 13.73c0.196 0.196 0.457 0.304 0.735 0.304s0.538-0.108 0.735-0.304l13.73-13.73c0.196-0.196 0.304-0.457 0.304-0.735s-0.108-0.538-0.304-0.735l-13.73-13.73c-0.196-0.197-0.457-0.304-0.735-0.304zM19.036 8.818l-2.727-3.678c-0.16-0.216-0.482-0.216-0.643-0.001l-2.737 3.678c-0.197 0.264-0.008 0.639 0.321 0.639h1.739v17.361c0 0.549 0.445 0.993 0.993 0.993s0.993-0.445 0.993-0.993v-17.361h1.739c0.329 0 0.517-0.374 0.322-0.638zM25.164 11.614l-4.536 0.665c-0.326 0.048-0.457 0.446-0.225 0.679l1.229 1.229-3.865 3.866v2.809l5.27-5.27 1.23 1.23c0.232 0.232 0.631 0.101 0.679-0.224l0.673-4.529c0.039-0.265-0.189-0.494-0.454-0.455zM6.812 11.614l4.536 0.665c0.326 0.048 0.457 0.446 0.225 0.679l-1.229 1.229 3.865 3.865v2.809l-5.27-5.269-1.23 1.23c-0.232 0.232-0.63 0.101-0.679-0.224l-0.673-4.529c-0.039-0.266 0.189-0.494 0.454-0.455z"></path>
</svg>
