<!-- Generated by IcoMoon.io -->
<svg version="1.1" xmlns="http://www.w3.org/2000/svg" width="21" height="32" viewBox="0 0 21 32">
<title>push-notification-icon-r2</title>
<path d="M18.447 32h-15.992c-0.001 0-0.002 0-0.003 0-1.357 0-2.457-1.099-2.459-2.456v-27.088c0.002-1.356 1.1-2.454 2.456-2.456h15.998c1.356 0.002 2.454 1.1 2.456 2.456v27.088c-0.002 1.356-1.1 2.454-2.456 2.456h-0zM2.456 0.842c-0.89 0.002-1.612 0.723-1.614 1.613v27.088c0.002 0.89 0.723 1.612 1.613 1.614h15.992c0.89-0.002 1.612-0.723 1.614-1.613v-27.088c-0.002-0.89-0.723-1.612-1.613-1.614h-0zM12.373 3.19h-3.84c-0.233 0-0.421-0.189-0.421-0.421s0.189-0.421 0.421-0.421v0h3.84c0.233 0 0.421 0.189 0.421 0.421s-0.189 0.421-0.421 0.421v0zM11.302 29.231c0 0.471-0.382 0.852-0.852 0.852s-0.852-0.382-0.852-0.852c0-0.471 0.382-0.852 0.852-0.852s0.852 0.382 0.852 0.852zM20.489 27.772h-20.064c-0.003 0-0.007 0-0.010 0-0.233 0-0.421-0.189-0.421-0.421 0-0 0-0 0-0v0-22.53c0-0.233 0.189-0.421 0.421-0.421v0h20.075c0.233 0 0.421 0.189 0.421 0.421v0 22.53c0 0.233-0.189 0.421-0.421 0.421v0zM0.846 26.93h19.222v-21.688h-19.222zM4.71 16.861h0.040c0.172-0.016 0.306-0.16 0.306-0.335 0-0.016-0.001-0.032-0.003-0.047l0 0.002c-0.008-0.115-0.013-0.25-0.013-0.386 0-3.163 2.564-5.727 5.727-5.727 2.823 0 5.169 2.043 5.641 4.731l0.005 0.034c0.016 0.173 0.16 0.307 0.336 0.307 0.017 0 0.034-0.001 0.050-0.004l-0.002 0c0.173-0.016 0.307-0.16 0.307-0.336 0-0.017-0.001-0.034-0.004-0.050l0 0.002c-0.39-3.2-3.090-5.654-6.364-5.654-3.539 0-6.408 2.869-6.408 6.408 0 0.266 0.016 0.528 0.048 0.785l-0.003-0.031c0.019 0.169 0.162 0.3 0.335 0.3 0.001 0 0.001 0 0.002 0h-0zM9.554 22.086c0.045 0.023 0.098 0.037 0.154 0.037 0.133 0 0.249-0.078 0.303-0.19l0.001-0.002c0.724-1.419 1.149-3.095 1.149-4.87 0-0.457-0.028-0.908-0.083-1.351l0.005 0.053c-0.016-0.173-0.16-0.307-0.336-0.307-0.017 0-0.034 0.001-0.050 0.004l0.002-0c-0.173 0.016-0.307 0.16-0.307 0.336 0 0.017 0.001 0.034 0.004 0.050l-0-0.002c0.045 0.361 0.071 0.779 0.071 1.203 0 1.669-0.4 3.244-1.108 4.636l0.027-0.058c-0.024 0.045-0.038 0.099-0.038 0.155 0 0.135 0.079 0.252 0.194 0.305l0.002 0.001zM14.998 20.388c0.022 0.005 0.047 0.008 0.073 0.008 0.165 0 0.302-0.119 0.331-0.275l0-0.002c0.194-0.919 0.304-1.975 0.304-3.056 0-0.647-0.040-1.284-0.117-1.91l0.008 0.075c-0.108-0.883-0.438-1.673-0.932-2.334l0.009 0.013c-0.060-0.096-0.166-0.16-0.287-0.16-0.186 0-0.337 0.151-0.337 0.337 0 0.089 0.035 0.17 0.091 0.231l-0-0c0.417 0.559 0.701 1.24 0.793 1.981l0.002 0.020c0.066 0.527 0.104 1.136 0.104 1.754 0 1.034-0.105 2.043-0.305 3.018l0.017-0.096c-0.005 0.021-0.008 0.046-0.008 0.071 0 0.156 0.107 0.288 0.251 0.326l0.002 0.001zM5.69 19.664c0.039 0.017 0.085 0.028 0.133 0.028 0.143 0 0.265-0.089 0.314-0.214l0.001-0.002c0.299-0.714 0.473-1.545 0.473-2.415 0-0.268-0.016-0.533-0.049-0.792l0.003 0.031c-0.019-0.149-0.030-0.322-0.030-0.497 0-2.32 1.881-4.201 4.201-4.201 0.721 0 1.399 0.182 1.992 0.502l-0.022-0.011c0.049 0.027 0.107 0.043 0.168 0.043 0.192 0 0.348-0.156 0.348-0.348 0-0.131-0.072-0.244-0.178-0.304l-0.002-0.001c-0.667-0.364-1.461-0.577-2.306-0.577-2.701 0-4.891 2.19-4.891 4.891 0 0.206 0.013 0.409 0.037 0.608l-0.002-0.024c0.025 0.202 0.039 0.435 0.039 0.672 0 0.78-0.156 1.524-0.438 2.203l0.014-0.038c-0.017 0.039-0.028 0.085-0.028 0.134 0 0.143 0.089 0.265 0.214 0.314l0.002 0.001zM11.215 22.153c0.041 0.019 0.089 0.030 0.14 0.030 0.14 0 0.26-0.085 0.311-0.207l0.001-0.002c0.639-1.452 1.011-3.144 1.011-4.924 0-0.521-0.032-1.034-0.094-1.538l0.006 0.060c-0.105-0.939-0.894-1.663-1.853-1.663-1.029 0-1.864 0.834-1.864 1.864 0 0.071 0.004 0.14 0.012 0.209l-0.001-0.008s0 0.024 0 0.037c0.040 0.31 0.062 0.669 0.062 1.034 0 0.101-0.002 0.201-0.005 0.301l0-0.015c-0 0.003-0 0.007-0 0.010 0 0.186 0.151 0.337 0.337 0.337 0.183 0 0.331-0.145 0.337-0.326v-0.001c0.004-0.097 0.006-0.21 0.006-0.324 0-0.387-0.024-0.768-0.071-1.142l0.005 0.045c-0.007-0.047-0.011-0.101-0.011-0.157 0-0.648 0.525-1.173 1.173-1.173 0.592 0 1.082 0.439 1.162 1.010l0.001 0.006s0 0.024 0 0.037c0.052 0.417 0.082 0.9 0.082 1.39 0 1.677-0.35 3.272-0.981 4.716l0.030-0.076c-0.020 0.041-0.031 0.090-0.031 0.141 0 0.139 0.084 0.258 0.204 0.31l0.002 0.001zM8.078 21.628c0.048 0.028 0.106 0.044 0.167 0.044 0.128 0 0.24-0.072 0.297-0.177l0.001-0.002c0.317-0.579 0.59-1.25 0.783-1.955l0.015-0.066c0.007-0.026 0.011-0.056 0.011-0.088 0-0.192-0.156-0.348-0.348-0.348-0.161 0-0.297 0.109-0.336 0.258l-0.001 0.002c-0.19 0.72-0.442 1.348-0.76 1.936l0.023-0.046c-0.020 0.042-0.032 0.091-0.032 0.143 0 0.129 0.072 0.241 0.178 0.297l0.002 0.001zM13.411 15.496c0.022 0.166 0.163 0.293 0.334 0.293 0.001 0 0.002 0 0.003 0h0.057c0.17-0.019 0.3-0.162 0.3-0.335 0-0.017-0.001-0.034-0.004-0.051l0 0.002c-0.203-1.684-1.623-2.977-3.346-2.977-0.148 0-0.294 0.010-0.437 0.028l0.017-0.002c-0.251 0.029-0.48 0.080-0.698 0.152l0.024-0.007c-0.138 0.047-0.235 0.176-0.235 0.327 0 0.19 0.154 0.345 0.345 0.345 0.039 0 0.077-0.007 0.112-0.019l-0.002 0.001c0.252-0.086 0.543-0.136 0.845-0.136 1.184 0 2.19 0.764 2.551 1.825l0.006 0.019c0.054 0.154 0.095 0.334 0.117 0.52l0.001 0.012zM13.041 21.698c0.032 0.011 0.068 0.017 0.106 0.017 0.15 0 0.277-0.098 0.321-0.234l0.001-0.002c0.411-1.186 0.668-2.555 0.71-3.978l0-0.020c0-0.186-0.151-0.337-0.337-0.337v0c-0.186 0-0.337 0.151-0.337 0.337v0c-0.043 1.371-0.287 2.67-0.702 3.891l0.028-0.094c-0.011 0.032-0.018 0.070-0.018 0.108 0 0.152 0.1 0.28 0.238 0.322l0.002 0.001zM6.788 20.826c0.046 0.026 0.102 0.041 0.161 0.041 0.131 0 0.244-0.075 0.3-0.184l0.001-0.002c0.557-1.051 0.884-2.297 0.884-3.619 0-0.327-0.020-0.65-0.059-0.967l0.004 0.038c-0.012-0.096-0.019-0.207-0.019-0.32 0-0.543 0.162-1.047 0.44-1.469l-0.006 0.010c0.031-0.050 0.050-0.111 0.050-0.176 0-0.127-0.070-0.237-0.173-0.294l-0.002-0.001c-0.050-0.030-0.11-0.048-0.174-0.048-0.115 0-0.216 0.057-0.277 0.145l-0.001 0.001c-0.336 0.515-0.536 1.145-0.536 1.823 0 0.14 0.009 0.278 0.025 0.414l-0.002-0.016c0.033 0.26 0.053 0.562 0.053 0.867 0 1.204-0.296 2.339-0.819 3.336l0.019-0.039c-0.026 0.046-0.041 0.102-0.041 0.161 0 0.131 0.075 0.244 0.184 0.3l0.002 0.001z"></path>
</svg>
