<!-- Generated by IcoMoon.io -->
<svg version="1.1" xmlns="http://www.w3.org/2000/svg" width="32" height="32" viewBox="0 0 32 32">
<title>quick-guide</title>
<path d="M9.124 0c-2.841 0-5.156 2.314-5.156 5.156s2.314 5.156 5.156 5.156 5.156-2.314 5.156-5.156-2.314-5.156-5.156-5.156zM11.464 5.798h-2.456c-0.219 0-0.412-0.193-0.412-0.412v-2.854c0-0.219 0.193-0.412 0.412-0.412s0.412 0.193 0.412 0.412v2.443h2.044c0.219 0 0.412 0.193 0.412 0.412-0 0.244-0.167 0.411-0.412 0.411zM8.427 32h18.042c0.861 0 1.562-0.701 1.562-1.563v-21.071l-6.076-6.595h-7.189c0.096 0.321 0.177 0.638 0.246 0.95h6.26v6.305h5.81v20.41c0 0.338-0.275 0.613-0.612 0.613h-18.042c-0.338 0-0.612-0.275-0.612-0.613v-19.319c-0.347-0.041-0.666-0.094-0.95-0.153v19.472c0 0.861 0.7 1.563 1.562 1.563zM22.221 9.077v-4.613l4.252 4.614h-4.252zM10.95 22.813h12.644c0.194 0 0.351-0.208 0.351-0.464s-0.157-0.464-0.351-0.464h-12.644c-0.194 0-0.351 0.208-0.351 0.464s0.157 0.464 0.351 0.464zM10.95 19.1h12.644c0.194 0 0.351-0.208 0.351-0.464s-0.157-0.464-0.351-0.464h-12.644c-0.194 0-0.351 0.209-0.351 0.464s0.157 0.464 0.351 0.464zM10.95 15.387h12.644c0.194 0 0.351-0.208 0.351-0.464s-0.157-0.464-0.351-0.464h-12.644c-0.194 0-0.351 0.208-0.351 0.464s0.157 0.464 0.351 0.464z"></path>
</svg>
