<!-- Generated by IcoMoon.io -->
<svg version="1.1" xmlns="http://www.w3.org/2000/svg" width="32" height="32" viewBox="0 0 32 32">
<title>reduce</title>
<path d="M31.253 32h-30.506c-0.412 0-0.747-0.334-0.747-0.747v-30.507c0-0.412 0.334-0.747 0.747-0.747s0.747 0.334 0.747 0.747v29.76h29.76c0.412 0 0.747 0.334 0.747 0.747s-0.335 0.746-0.747 0.746zM27.385 24.213c-0.189 0-0.378-0.071-0.524-0.214l-8.579-8.437-4.163 3.491c-0.271 0.227-0.664 0.233-0.942 0.015l-9.214-7.251c-0.324-0.255-0.38-0.724-0.125-1.049s0.724-0.38 1.049-0.125l8.737 6.875 4.218-3.538c0.295-0.246 0.729-0.23 1.004 0.040l9.063 8.912c0.294 0.289 0.298 0.762 0.009 1.056-0.146 0.149-0.339 0.223-0.532 0.223zM27.989 24.906h-4.954c-0.412 0-0.747-0.334-0.747-0.747s0.334-0.747 0.747-0.747h4.208v-4.449c0-0.412 0.334-0.747 0.747-0.747s0.747 0.334 0.747 0.747v5.196c-0 0.412-0.335 0.747-0.747 0.747z"></path>
</svg>
