<!-- Generated by IcoMoon.io -->
<svg version="1.1" xmlns="http://www.w3.org/2000/svg" width="32" height="32" viewBox="0 0 32 32">
<title>safe</title>
<path d="M28.71 31.874h-25.672c-1.304 0-2.364-1.107-2.364-2.469v-26.811c0-1.361 1.060-2.469 2.364-2.469h25.672c1.304 0 2.364 1.107 2.364 2.469v26.811c0 1.361-1.060 2.469-2.363 2.469zM3.038 0.971c-0.857 0-1.555 0.729-1.555 1.624v26.811c0 0.895 0.697 1.624 1.555 1.624h25.672c0.857 0 1.555-0.729 1.555-1.624v-26.811c0-0.895-0.698-1.624-1.555-1.624h-25.672zM27.51 13.248c0.447 0 0.809-0.378 0.809-0.845v-4.771c0-0.467-0.362-0.845-0.809-0.845h-0.426v-2.469h-22.747v23.756h22.747v-2.541h0.426c0.447 0 0.809-0.378 0.809-0.845v-4.645c0-0.467-0.362-0.845-0.809-0.845h-0.426v-5.951h0.426zM26.275 27.23h-21.129v-22.066h21.129v1.624h-0.495c-0.447 0-0.809 0.378-0.809 0.845v4.771c0 0.467 0.362 0.845 0.809 0.845h0.495v5.951h-0.495c-0.447 0-0.809 0.378-0.809 0.845v4.645c0 0.467 0.362 0.845 0.809 0.845h0.495v1.696zM27.51 20.044v0 4.645h-1.73v-4.645h1.73zM26.275 12.404h-0.495v-4.771h1.73v4.771h-1.235zM15.78 24.172c-4.211 0-7.636-3.577-7.636-7.975s3.426-7.975 7.636-7.975 7.636 3.577 7.636 7.975-3.426 7.975-7.636 7.975zM15.78 9.067c-3.764 0-6.827 3.199-6.827 7.13s3.063 7.13 6.827 7.13 6.827-3.199 6.827-7.13-3.063-7.13-6.827-7.13zM17.052 18.232v0 0zM16.847 18.356c-0.004 0.002-0.008 0.004-0.012 0.006 0.004-0.002 0.008-0.004 0.012-0.006zM13.571 16.964c-0.003-0.010-0.007-0.018-0.010-0.028 0.003 0.010 0.007 0.018 0.010 0.028zM16.626 18.46c-0.002 0.001-0.005 0.002-0.007 0.003 0.002-0.001 0.005-0.002 0.007-0.003zM13.654 17.187c-0.002-0.004-0.004-0.009-0.006-0.013 0.002 0.004 0.004 0.009 0.006 0.013zM16.149 18.594v0zM18.059 16.691v0l-0 0.001zM17.995 16.943c-0.004 0.014-0.010 0.028-0.015 0.043 0.005-0.014 0.010-0.028 0.015-0.043zM17.641 17.652v0zM17.784 17.429c-0.002 0.004-0.004 0.008-0.007 0.012 0.002-0.004 0.004-0.008 0.007-0.012zM17.903 17.19c-0.004 0.010-0.010 0.020-0.014 0.030 0.005-0.010 0.010-0.020 0.014-0.030zM17.133 14.221v0 0zM17.943 15.303c0.002 0.004 0.003 0.009 0.005 0.014-0.002-0.004-0.003-0.009-0.005-0.014zM18.026 15.567c0.001 0.003 0.001 0.006 0.002 0.009-0.001-0.003-0.002-0.006-0.002-0.009zM17.7 14.824v0 0zM13.602 15.342c0.002-0.005 0.004-0.011 0.006-0.017-0.002 0.005-0.004 0.011-0.006 0.017zM13.528 15.587c0.001-0.002 0.001-0.005 0.002-0.007-0 0.002-0.001 0.004-0.002 0.007zM13.7 15.107c0.003-0.007 0.006-0.013 0.009-0.020-0.003 0.007-0.006 0.013-0.009 0.020zM14.602 14.102c0 0 0-0 0.001-0s-0 0-0.001 0zM13.831 14.868l-0 0.001v-0zM21.177 15.846h-2.279c-0.062-0.607-0.285-1.162-0.621-1.624l1.595-1.666c0.158-0.165 0.158-0.432 0-0.598s-0.414-0.165-0.572 0l-1.59 1.661c-0.441-0.361-0.976-0.602-1.561-0.674v-2.35c0-0.233-0.181-0.423-0.404-0.423s-0.404 0.189-0.404 0.423v2.361c-0.575 0.085-1.1 0.33-1.531 0.694l-1.62-1.692c-0.158-0.165-0.414-0.165-0.572 0s-0.158 0.432 0 0.598l1.635 1.708c-0.319 0.454-0.531 0.994-0.591 1.583h-2.349c-0.223 0-0.404 0.189-0.404 0.423s0.181 0.423 0.404 0.423h2.37c0.083 0.568 0.304 1.088 0.63 1.521l-1.694 1.769c-0.158 0.165-0.158 0.432 0 0.598 0.079 0.083 0.183 0.124 0.286 0.124s0.207-0.041 0.286-0.124l1.699-1.775c0.416 0.33 0.911 0.553 1.451 0.632v2.506c0 0.233 0.181 0.423 0.404 0.423s0.404-0.189 0.404-0.423v-2.494c0.55-0.068 1.056-0.286 1.481-0.612l1.67 1.744c0.079 0.083 0.183 0.124 0.286 0.124s0.207-0.041 0.286-0.124c0.158-0.165 0.158-0.432 0-0.598l-1.655-1.728c0.342-0.441 0.574-0.977 0.659-1.563h2.3c0.224 0 0.404-0.189 0.404-0.423s-0.181-0.423-0.404-0.423zM18.059 16.691c0 0-0 0.001-0 0.001-0.017 0.085-0.039 0.169-0.064 0.25-0.004 0.014-0.010 0.028-0.015 0.043-0.023 0.070-0.048 0.138-0.077 0.204-0.004 0.010-0.010 0.020-0.014 0.030-0.032 0.071-0.067 0.141-0.105 0.209-0.002 0.004-0.004 0.008-0.007 0.012-0.042 0.073-0.087 0.143-0.136 0.211l-0 0.001c-0.163 0.227-0.362 0.424-0.589 0.579v0 0c-0.066 0.045-0.134 0.086-0.204 0.124-0.004 0.002-0.008 0.004-0.012 0.006-0.068 0.036-0.138 0.069-0.209 0.098-0.002 0.001-0.005 0.002-0.007 0.003-0.15 0.061-0.307 0.105-0.469 0.132h-0c-0.121 0.020-0.243 0.034-0.37 0.034-0.948 0-1.762-0.592-2.125-1.442-0.002-0.004-0.004-0.009-0.006-0.013-0.029-0.068-0.054-0.138-0.077-0.21-0.003-0.010-0.007-0.018-0.010-0.028-0.071-0.233-0.11-0.481-0.11-0.739 0-0.211 0.028-0.414 0.077-0.61 0.001-0.002 0.001-0.005 0.002-0.007 0.020-0.081 0.044-0.161 0.072-0.238 0.002-0.005 0.004-0.011 0.006-0.017 0.028-0.075 0.058-0.148 0.092-0.218 0.003-0.007 0.006-0.013 0.009-0.020 0.037-0.075 0.077-0.148 0.121-0.218l0-0v-0c0.197-0.314 0.461-0.576 0.771-0.766 0 0 0-0 0.001-0 0.346-0.212 0.747-0.336 1.177-0.336 0.506 0 0.972 0.17 1.354 0.456v0 0c0.221 0.165 0.413 0.369 0.567 0.603v0 0c0.097 0.148 0.178 0.309 0.242 0.478 0.002 0.004 0.003 0.009 0.005 0.014 0.030 0.082 0.056 0.165 0.078 0.251 0.001 0.003 0.002 0.006 0.002 0.009 0.050 0.199 0.080 0.406 0.080 0.621-0.001 0.168-0.017 0.334-0.049 0.493v0z"></path>
</svg>
