<!-- Generated by IcoMoon.io -->
<svg version="1.1" xmlns="http://www.w3.org/2000/svg" width="32" height="32" viewBox="0 0 32 32">
<title>scale</title>
<path d="M31.385 32h-30.769c-0.34 0-0.615-0.276-0.615-0.615v-30.769c0-0.34 0.276-0.615 0.615-0.615h30.769c0.34 0 0.615 0.276 0.615 0.615v30.769c0 0.34-0.276 0.615-0.615 0.615zM1.231 30.769h29.539v-29.539h-29.539v29.539zM6.658 25.957c-0.157 0-0.315-0.060-0.435-0.18-0.24-0.24-0.24-0.63 0-0.87l18.684-18.684c0.24-0.24 0.63-0.24 0.87 0s0.24 0.63 0 0.87l-18.683 18.683c-0.12 0.12-0.278 0.18-0.435 0.18zM18.899 5.983l0.044 1.231 6.064-0.222-0.221 6.065 1.231 0.044 0.268-7.387zM5.983 18.899l1.231 0.044-0.222 6.064 6.065-0.221 0.044 1.231-7.387 0.268z"></path>
</svg>
