<!-- Generated by IcoMoon.io -->
<svg version="1.1" xmlns="http://www.w3.org/2000/svg" width="32" height="32" viewBox="0 0 32 32">
<title>search-settings</title>
<path d="M12.262 0.126c-6.764 0-12.262 5.498-12.262 12.262s5.498 12.262 12.262 12.262c3.124 0 5.97-1.182 8.137-3.111l2.389 2.389-0.935 0.935c-0.283 0.28-0.286 0.737-0.005 1.020 0.002 0.002 0.003 0.003 0.005 0.005l5.759 5.77c0.28 0.283 0.737 0.286 1.020 0.005 0.002-0.002 0.003-0.003 0.005-0.005l2.896-2.896c0.283-0.28 0.286-0.737 0.005-1.020-0.002-0.002-0.003-0.003-0.005-0.005l-5.77-5.759c-0.262-0.273-0.689-0.297-0.98-0.056-0.016 0.018-0.031 0.037-0.045 0.056l-0.935 0.935-2.378-2.389c1.926-2.166 3.099-5.016 3.099-8.137-0-6.763-5.499-12.262-12.262-12.262zM12.262 1.569c5.984 0 10.819 4.836 10.819 10.819s-4.836 10.819-10.819 10.819-10.819-4.836-10.819-10.819c0-5.984 4.836-10.819 10.819-10.819zM10.391 4.454c-0.372 0.035-0.655 0.348-0.654 0.721v1.657c-0.361 0.164-0.706 0.358-1.025 0.586l-1.431-0.823c-0.343-0.197-0.78-0.081-0.98 0.259l-1.803 3.133c-0.197 0.343-0.081 0.78 0.259 0.98l1.431 0.834c-0.019 0.194-0.056 0.386-0.056 0.586s0.037 0.392 0.056 0.586l-1.431 0.834c-0.34 0.201-0.456 0.638-0.259 0.98l1.803 3.133c0.201 0.34 0.638 0.456 0.98 0.259l1.431-0.823c0.32 0.228 0.665 0.422 1.025 0.586v1.657c0 0.398 0.323 0.721 0.721 0.721h3.607c0.398 0 0.721-0.323 0.721-0.721v-1.657c0.361-0.164 0.706-0.358 1.025-0.586l1.431 0.823c0.343 0.197 0.78 0.081 0.98-0.259l1.803-3.133c0.197-0.343 0.081-0.78-0.259-0.98l-1.431-0.834c0.019-0.194 0.056-0.386 0.056-0.586s-0.037-0.392-0.056-0.586l1.431-0.834c0.34-0.201 0.456-0.638 0.259-0.98l-1.803-3.133c-0.201-0.34-0.638-0.456-0.98-0.259l-1.431 0.823c-0.32-0.228-0.665-0.422-1.025-0.586v-1.657c0-0.398-0.323-0.721-0.721-0.721h-3.607c-0.023-0.001-0.045-0.001-0.068 0zM11.18 5.896h2.164v1.398c0.002 0.305 0.196 0.576 0.484 0.676 0.549 0.195 1.033 0.488 1.465 0.857 0.235 0.198 0.57 0.225 0.834 0.068l1.217-0.699 1.082 1.893-1.206 0.699c-0.264 0.152-0.404 0.455-0.349 0.755 0.051 0.277 0.079 0.557 0.079 0.845s-0.028 0.568-0.079 0.845c-0.055 0.3 0.085 0.603 0.349 0.755l1.206 0.699-1.082 1.893-1.217-0.699c-0.264-0.157-0.599-0.13-0.834 0.068-0.432 0.369-0.917 0.662-1.465 0.857-0.288 0.1-0.483 0.371-0.484 0.676v1.398h-2.164v-1.398c-0.002-0.305-0.196-0.576-0.484-0.676-0.549-0.195-1.033-0.488-1.465-0.857-0.235-0.198-0.57-0.225-0.834-0.068l-1.217 0.699-1.082-1.893 1.206-0.699c0.264-0.152 0.404-0.455 0.349-0.755-0.051-0.277-0.079-0.557-0.079-0.845s0.028-0.568 0.079-0.845c0.055-0.3-0.085-0.603-0.349-0.755l-1.206-0.699 1.082-1.893 1.217 0.699c0.264 0.157 0.599 0.13 0.834-0.068 0.432-0.369 0.917-0.662 1.465-0.857 0.288-0.1 0.483-0.371 0.484-0.676v-1.398zM12.262 8.781c-1.983 0-3.607 1.623-3.607 3.607s1.623 3.607 3.607 3.607 3.607-1.623 3.607-3.607c0-1.983-1.623-3.607-3.607-3.607zM12.262 10.224c1.204 0 2.164 0.96 2.164 2.164s-0.96 2.164-2.164 2.164c-1.204 0-2.164-0.96-2.164-2.164s0.96-2.164 2.164-2.164zM25.245 23.5l4.756 4.756-1.871 1.871-4.756-4.756 1.871-1.871z"></path>
</svg>
