<!-- Generated by IcoMoon.io -->
<svg version="1.1" xmlns="http://www.w3.org/2000/svg" width="32" height="32" viewBox="0 0 32 32">
<title>secure-access</title>
<path d="M27.382 5.008c-5.661-0.182-9.517-3.626-10.566-4.688-0.204-0.198-0.483-0.32-0.791-0.32-0.009 0-0.018 0-0.027 0l0.001-0c-0.007-0-0.014-0-0.022-0-0.307 0-0.586 0.122-0.791 0.321l0-0c-1.050 1.050-4.906 4.48-10.56 4.675-0.612 0.004-1.107 0.501-1.107 1.114 0 0.006 0 0.011 0 0.017v-0.001 10.685c0 0.262 0.221 6.080 4.374 9.802 4.285 3.84 7.226 5.12 7.773 5.334 0.076 0.030 0.163 0.048 0.255 0.051l0.001 0h0.138c0.092-0.003 0.178-0.022 0.258-0.053l-0.005 0.002c0.547-0.218 3.488-1.498 7.773-5.334 4.163-3.722 4.394-9.539 4.394-9.802v-10.685c0-0.002 0-0.004 0-0.006 0-0.609-0.49-1.103-1.097-1.11h-0.001zM27.27 16.826c0 0.054-0.214 5.533-3.962 8.89 0 0-5.485 5.030-7.213 5.030h-0.192c-1.728 0-7.213-5.030-7.213-5.030-3.747-3.357-3.962-8.835-3.962-8.89v-10.541c5.901-0.234 9.99-3.773 11.232-5.005l0.038-0.026c1.238 1.219 5.366 4.8 11.27 5.030zM16 10.352c-0.001 0-0.002 0-0.003 0-0.963 0-1.744 0.781-1.744 1.744 0 0.001 0 0.002 0 0.003v-0 1.219h3.494v-1.219c0-0.001 0-0.002 0-0.003 0-0.963-0.781-1.744-1.744-1.744-0.001 0-0.002 0-0.003 0h0zM16.819 12.39h-1.638v-0.291c0-0.452 0.367-0.819 0.819-0.819s0.819 0.367 0.819 0.819v0zM20.566 12.39h-0.454v-0.23c0-2.271-1.841-4.112-4.112-4.112s-4.112 1.841-4.112 4.112v0 0.221h-0.454c-0.837 0.005-1.514 0.685-1.514 1.523 0 0.002 0 0.005 0 0.007v-0 6.87c0.002 0.84 0.683 1.52 1.523 1.52 0 0 0 0 0 0h9.123c0.836-0.005 1.512-0.683 1.514-1.52v-6.871c-0.002-0.837-0.678-1.515-1.513-1.52h-0.001zM21.162 20.781c0 0 0 0 0 0 0 0.327-0.265 0.592-0.592 0.592-0.001 0-0.002 0-0.003 0h-9.133c-0.001 0-0.002 0-0.003 0-0.327 0-0.592-0.265-0.592-0.592 0 0 0 0 0 0v0-6.87c0 0 0 0 0 0 0-0.327 0.265-0.592 0.592-0.592 0.001 0 0.002 0 0.003 0h1.382v-1.158c0.122-1.667 1.504-2.974 3.192-2.974s3.070 1.307 3.191 2.963l0.001 0.010v1.149h1.382c0.001 0 0.002 0 0.003 0 0.327 0 0.592 0.265 0.592 0.592 0 0 0 0 0 0v0zM16.602 17.114v1.725c0 0.274-0.222 0.496-0.496 0.496s-0.496-0.222-0.496-0.496v0-1.728c-0.365-0.183-0.611-0.553-0.611-0.982 0-0 0-0 0-0v0c0-0.002 0-0.004 0-0.006 0-0.611 0.496-1.107 1.107-1.107s1.107 0.496 1.107 1.107c0 0.432-0.247 0.806-0.608 0.989l-0.006 0.003z"></path>
</svg>
