<!-- Generated by IcoMoon.io -->
<svg version="1.1" xmlns="http://www.w3.org/2000/svg" width="32" height="32" viewBox="0 0 32 32">
<title>secure-auth</title>
<path d="M27.028 5.226c-5.547-0.177-9.327-3.551-10.353-4.581-0.211-0.212-0.5-0.327-0.8-0.326h-0.003c-0.299-0.001-0.589 0.114-0.799 0.326-1.026 1.030-4.806 4.404-10.353 4.581-0.6 0.018-1.069 0.5-1.069 1.094v10.472c0.007 0.259 0.218 5.959 4.288 9.607 4.199 3.761 7.081 5.015 7.617 5.228 0.073 0.029 0.163 0.046 0.251 0.050v0.003h0.135v-0.003c0.088-0.003 0.177-0.020 0.251-0.050 0.535-0.213 3.417-1.467 7.616-5.228 4.070-3.647 4.282-9.348 4.288-9.607v-10.472c-0-0.595-0.47-1.076-1.070-1.094zM26.92 16.808c-0.001 0.054-0.21 5.425-3.881 8.714 0 0-5.378 4.93-7.071 4.93h-0.187c-1.692 0-7.071-4.93-7.071-4.93-3.672-3.289-3.88-8.66-3.881-8.714v-10.33c5.784-0.227 9.793-3.698 11.008-4.893l0.036-0.037c1.216 1.195 5.261 4.703 11.046 4.93v10.33zM15.874 10.464c-0.946 0-1.714 0.767-1.714 1.714v1.194h3.427v-1.194c0-0.947-0.767-1.714-1.713-1.714zM16.678 12.461h-1.608v-0.284c0-0.443 0.361-0.804 0.804-0.804s0.804 0.361 0.804 0.804v0.284zM20.35 12.461h-0.446v-0.215c0-2.222-1.807-4.029-4.029-4.029s-4.029 1.807-4.029 4.029v0.215h-0.446c-0.823 0-1.492 0.669-1.492 1.492v6.732c0 0.823 0.669 1.492 1.492 1.492h8.951c0.823 0 1.492-0.669 1.492-1.492v-6.732c-0-0.823-0.669-1.492-1.492-1.492zM20.932 20.685c0 0.321-0.261 0.582-0.582 0.582h-8.951c-0.321 0-0.582-0.261-0.582-0.582v-6.732c0-0.321 0.261-0.582 0.582-0.582h1.356v-1.124c0-1.723 1.397-3.12 3.12-3.12s3.12 1.397 3.12 3.12v1.124h1.356c0.321 0 0.582 0.261 0.582 0.582v6.732zM16.464 17.090v1.69c0 0.269-0.217 0.486-0.486 0.486s-0.486-0.217-0.486-0.486v-1.691c-0.353-0.179-0.598-0.541-0.598-0.965 0-0.599 0.485-1.085 1.084-1.085s1.085 0.485 1.085 1.085c0 0.424-0.245 0.786-0.598 0.965z"></path>
</svg>
