<!-- Generated by IcoMoon.io -->
<svg version="1.1" xmlns="http://www.w3.org/2000/svg" width="32" height="32" viewBox="0 0 32 32">
<title>self-service</title>
<path d="M19.213 21.794h-1.17c-0.188 0-0.352-0.109-0.426-0.276-0.010-0.018-0.019-0.037-0.025-0.057l-0.361-1.225c-0.148-0.052-0.297-0.115-0.444-0.187l-1.125 0.612c-0.019 0.010-0.039 0.018-0.059 0.024-0.17 0.065-0.363 0.026-0.496-0.106l-0.827-0.827c-0.133-0.132-0.172-0.325-0.106-0.497 0.005-0.020 0.013-0.039 0.023-0.058l0.614-1.128c-0.071-0.146-0.133-0.294-0.185-0.441l-1.229-0.363c-0.021-0.006-0.041-0.015-0.060-0.025-0.166-0.075-0.274-0.238-0.274-0.425v-1.171c0-0.188 0.109-0.352 0.277-0.426 0.017-0.010 0.037-0.018 0.056-0.024l1.229-0.363c0.052-0.147 0.114-0.295 0.185-0.441l-0.614-1.128c-0.010-0.019-0.018-0.039-0.024-0.060-0.065-0.171-0.026-0.363 0.107-0.495l0.827-0.827c0.132-0.133 0.326-0.171 0.496-0.106 0.020 0.005 0.039 0.013 0.058 0.024l1.127 0.614c0.159-0.077 0.32-0.144 0.481-0.199l0.346-1.212c0.006-0.021 0.015-0.041 0.025-0.060 0.073-0.167 0.235-0.276 0.42-0.276h1.133c0.186 0 0.349 0.11 0.421 0.279 0.010 0.018 0.018 0.037 0.024 0.057l0.346 1.212c0.175 0.060 0.348 0.133 0.518 0.217l1.105-0.614c0.019-0.010 0.039-0.019 0.059-0.024 0.169-0.066 0.364-0.028 0.493 0.102l0.801 0.801c0.131 0.131 0.169 0.323 0.102 0.494-0.005 0.020-0.013 0.040-0.024 0.058l-0.615 1.105c0.084 0.17 0.157 0.343 0.217 0.517l1.214 0.347c0.020 0.006 0.039 0.014 0.057 0.024 0.169 0.073 0.279 0.235 0.279 0.421v1.133c0 0.186-0.11 0.349-0.278 0.421-0.018 0.010-0.037 0.018-0.058 0.024l-1.213 0.347c-0.059 0.174-0.132 0.347-0.216 0.517l0.614 1.106c0.010 0.019 0.019 0.040 0.025 0.061 0.065 0.169 0.026 0.363-0.103 0.492l-0.801 0.801c-0.13 0.13-0.326 0.167-0.495 0.101-0.019-0.005-0.038-0.013-0.056-0.023l-1.103-0.613c-0.159 0.079-0.32 0.148-0.482 0.205l-0.361 1.225c-0.006 0.021-0.015 0.041-0.026 0.059-0.074 0.166-0.237 0.274-0.424 0.274zM18.1 21.246h1.055l0.384-1.303c0.026-0.088 0.094-0.157 0.182-0.184 0.22-0.069 0.442-0.163 0.658-0.281 0.082-0.045 0.182-0.044 0.264 0.001l1.176 0.653 0.711-0.711-0.654-1.178c-0.045-0.082-0.046-0.181-0.002-0.263 0.122-0.227 0.22-0.46 0.29-0.693 0.027-0.090 0.097-0.159 0.187-0.185l1.293-0.369v-1.005l-1.293-0.37c-0.090-0.026-0.16-0.095-0.187-0.185-0.070-0.233-0.168-0.467-0.29-0.693-0.044-0.082-0.044-0.182 0.002-0.263l0.655-1.178-0.711-0.711-1.177 0.654c-0.082 0.046-0.182 0.046-0.264 0.002-0.226-0.123-0.46-0.221-0.694-0.291-0.090-0.027-0.159-0.097-0.185-0.187l-0.369-1.291h-1.006l-0.369 1.291c-0.026 0.090-0.096 0.16-0.185 0.187-0.22 0.066-0.442 0.157-0.659 0.272-0.081 0.043-0.179 0.042-0.259-0.002l-1.199-0.653-0.746 0.746 0.653 1.2c0.044 0.081 0.044 0.177 0.002 0.259-0.109 0.206-0.196 0.415-0.26 0.622-0.027 0.087-0.097 0.155-0.184 0.181l-1.307 0.385v1.054l1.307 0.385c0.088 0.026 0.157 0.094 0.184 0.181 0.064 0.207 0.152 0.416 0.26 0.622 0.043 0.081 0.042 0.178-0.002 0.259l-0.653 1.199 0.745 0.746 1.198-0.652c0.080-0.044 0.178-0.044 0.259-0.002 0.208 0.11 0.418 0.198 0.624 0.262 0.088 0.027 0.156 0.096 0.182 0.184l0.384 1.303zM14.682 19.46v0 0zM18.628 18.964c-1.507 0-2.733-1.226-2.733-2.733s1.226-2.733 2.733-2.733c1.507 0 2.734 1.226 2.734 2.733s-1.226 2.733-2.734 2.733zM18.628 14.045c-1.205 0-2.186 0.98-2.186 2.186s0.981 2.186 2.186 2.186c1.205 0 2.186-0.981 2.186-2.186s-0.981-2.186-2.186-2.186zM10.199 23.406c-0.115 0-0.223-0.052-0.295-0.143-0.012-0.013-0.023-0.028-0.032-0.044l-0.391-0.663c-0.075-0.008-0.15-0.020-0.226-0.035l-0.567 0.523c-0.014 0.013-0.030 0.024-0.046 0.034-0.122 0.083-0.279 0.089-0.409 0.011l-0.638-0.382c-0.13-0.077-0.2-0.221-0.183-0.368 0.001-0.018 0.003-0.036 0.008-0.053l0.193-0.748c-0.049-0.059-0.094-0.12-0.136-0.181l-0.771-0.031c-0.019-0.001-0.037-0.003-0.055-0.008-0.145-0.027-0.261-0.134-0.298-0.281l-0.181-0.721c-0.037-0.147 0.016-0.298 0.132-0.39 0.013-0.012 0.027-0.023 0.043-0.032l0.665-0.392c0.008-0.074 0.019-0.149 0.034-0.224l-0.524-0.568c-0.013-0.014-0.024-0.029-0.033-0.045-0.083-0.121-0.090-0.279-0.012-0.409l0.382-0.638c0.077-0.13 0.219-0.199 0.366-0.183 0.018 0.001 0.037 0.003 0.055 0.008l0.748 0.193c0.066-0.054 0.134-0.104 0.204-0.151l0.024-0.757c0.001-0.019 0.004-0.038 0.008-0.056 0.026-0.146 0.132-0.262 0.278-0.299l0.698-0.176c0.146-0.036 0.295 0.016 0.387 0.133 0.012 0.013 0.024 0.028 0.033 0.045l0.379 0.656c0.092 0.009 0.184 0.023 0.277 0.042l0.554-0.519c0.013-0.012 0.028-0.023 0.043-0.033 0.121-0.086 0.279-0.094 0.409-0.016l0.618 0.37c0.13 0.078 0.197 0.221 0.18 0.367-0.001 0.018-0.004 0.037-0.009 0.055l-0.196 0.734c0.060 0.072 0.116 0.147 0.167 0.223l0.758 0.024c0.019 0.001 0.037 0.003 0.055 0.008 0.146 0.025 0.263 0.132 0.299 0.278l0.176 0.698c0.036 0.144-0.018 0.296-0.133 0.387-0.013 0.012-0.028 0.023-0.044 0.032l-0.657 0.38c-0.009 0.091-0.023 0.183-0.042 0.276l0.52 0.554c0.014 0.015 0.025 0.030 0.035 0.047 0.082 0.12 0.089 0.28 0.013 0.406l-0.37 0.617c-0.078 0.13-0.223 0.199-0.371 0.179-0.017-0.001-0.034-0.003-0.051-0.008l-0.732-0.196c-0.066 0.055-0.134 0.107-0.204 0.154l-0.031 0.768c-0.001 0.019-0.004 0.037-0.008 0.055-0.027 0.145-0.134 0.261-0.281 0.298l-0.721 0.181c-0.032 0.009-0.063 0.013-0.095 0.013zM9.178 21.984c0.021 0 0.041 0.003 0.062 0.007 0.14 0.034 0.277 0.056 0.41 0.063 0.086 0.005 0.164 0.052 0.208 0.126l0.407 0.69 0.528-0.132 0.033-0.8c0.004-0.086 0.050-0.165 0.123-0.21 0.121-0.074 0.238-0.163 0.349-0.265 0.065-0.060 0.157-0.082 0.242-0.060l0.764 0.204 0.263-0.439-0.542-0.578c-0.060-0.064-0.084-0.155-0.062-0.24 0.039-0.153 0.062-0.306 0.069-0.455 0.004-0.088 0.053-0.168 0.129-0.211l0.684-0.396-0.124-0.497-0.79-0.026c-0.088-0.003-0.168-0.050-0.213-0.126-0.077-0.129-0.17-0.253-0.276-0.369-0.060-0.065-0.082-0.156-0.059-0.241l0.205-0.766-0.44-0.262-0.578 0.542c-0.064 0.060-0.155 0.084-0.241 0.062-0.153-0.039-0.306-0.063-0.456-0.069-0.088-0.004-0.168-0.052-0.212-0.129l-0.395-0.684-0.497 0.124-0.025 0.789c-0.003 0.088-0.050 0.168-0.126 0.213-0.121 0.072-0.239 0.16-0.351 0.26-0.065 0.058-0.154 0.080-0.237 0.058l-0.779-0.201-0.28 0.467 0.545 0.592c0.058 0.064 0.081 0.152 0.061 0.236-0.034 0.139-0.055 0.277-0.062 0.409-0.005 0.086-0.052 0.164-0.126 0.208l-0.691 0.408 0.132 0.528 0.802 0.033c0.086 0.003 0.165 0.050 0.21 0.123 0.068 0.112 0.152 0.224 0.247 0.33 0.058 0.064 0.079 0.153 0.058 0.237l-0.201 0.779 0.467 0.28 0.591-0.544c0.049-0.044 0.111-0.068 0.175-0.068zM10.786 22.839v0zM7.922 22.415c0 0 0 0 0 0s0 0 0 0zM12.635 21.245c0 0 0 0 0 0s0 0 0 0zM6.728 20.808v0 0zM6.611 20.339c0 0-0 0 0 0s0 0 0 0zM12.933 19.234v0 0zM12.823 18.796c0 0 0 0 0 0s-0 0-0 0zM6.903 18.358c0 0 0 0 0 0s0 0 0 0zM11.611 17.163v0zM8.774 16.744v0zM9.77 21.525c-0.309 0-0.614-0.084-0.886-0.246-0.397-0.237-0.677-0.615-0.79-1.063-0.232-0.925 0.331-1.867 1.257-2.1s1.867 0.331 2.1 1.257c0.112 0.448 0.044 0.914-0.194 1.31s-0.615 0.677-1.063 0.79v0c-0.141 0.035-0.283 0.053-0.424 0.053zM9.773 18.58c-0.098 0-0.197 0.012-0.296 0.037-0.649 0.163-1.045 0.824-0.882 1.473s0.825 1.045 1.473 0.882v0c0.315-0.079 0.58-0.276 0.746-0.554s0.215-0.605 0.136-0.919c-0.138-0.55-0.634-0.919-1.178-0.919zM26.675 15.065l-0.22-0.018 0.031-0.219c0.063-0.441 0.093-0.811 0.093-1.164 0-4.394-3.514-7.968-7.833-7.968-3.314 0-6.281 2.141-7.383 5.328l-0.091 0.264-0.227-0.162c-0.693-0.496-1.506-0.758-2.35-0.758-2.015 0-3.756 1.531-4.050 3.56l-0.019 0.135-0.131 0.037c-2.646 0.737-4.494 3.2-4.494 5.988 0 3.428 2.741 6.216 6.11 6.216h20.103c3.052 0 5.535-2.526 5.535-5.632 0-2.905-2.228-5.368-5.073-5.607zM26.213 25.554h-20.103c-2.966 0-5.378-2.452-5.378-5.465 0-2.712 1.974-5.023 4.603-5.408-0.005-0.048-0.008-0.094-0.008-0.14 0-1.886 1.511-3.421 3.367-3.421 1.068 0 2.143 0.564 2.845 1.483 0.606-3.466 3.737-6.155 7.207-6.155 3.915 0 7.101 3.238 7.101 7.218 0 0.735-0.114 1.468-0.338 2.183 0.237-0.037 0.473-0.055 0.704-0.055 2.649 0 4.804 2.19 4.804 4.881s-2.155 4.881-4.803 4.881z"></path>
</svg>
