<!-- Generated by IcoMoon.io -->
<svg version="1.1" xmlns="http://www.w3.org/2000/svg" width="32" height="32" viewBox="0 0 32 32">
<title>server</title>
<path d="M5.091 5.468c0 0.576-0.467 1.043-1.043 1.043s-1.043-0.467-1.043-1.043c0-0.576 0.467-1.043 1.043-1.043s1.043 0.467 1.043 1.043zM5.091 18.090c0 0.576-0.467 1.043-1.043 1.043s-1.043-0.467-1.043-1.043c0-0.576 0.467-1.043 1.043-1.043s1.043 0.467 1.043 1.043zM5.091 11.593c0 0.576-0.467 1.043-1.043 1.043s-1.043-0.467-1.043-1.043c0-0.576 0.467-1.043 1.043-1.043s1.043 0.467 1.043 1.043zM30.061 1.729h-28.373c-0.932 0-1.688 0.756-1.688 1.688v16.59c0 0.932 0.756 1.688 1.688 1.688h28.373c0.932 0 1.687-0.755 1.687-1.687v-16.591c0-0.932-0.756-1.688-1.688-1.688zM1.219 3.417c0-0.259 0.21-0.468 0.468-0.468h28.373c0.258 0 0.468 0.21 0.468 0.468v4.455h-29.309v-4.454zM30.529 9.091v5.006h-29.309v-5.006h29.309zM30.061 20.476h-28.373c-0.259 0-0.468-0.21-0.468-0.468v-4.81h29.309v4.81c0 0.258-0.21 0.468-0.468 0.468zM23.892 26.289h-6.475v-2.911c0-0.481-0.39-0.871-0.871-0.871s-0.871 0.39-0.871 0.871v2.911h-6.28c-0.481 0-0.871 0.39-0.871 0.871s0.39 0.871 0.871 0.871h6.279v1.369c0 0.481 0.39 0.871 0.871 0.871s0.871-0.39 0.871-0.871v-1.369h6.475c0.481 0 0.871-0.39 0.871-0.871s-0.39-0.871-0.871-0.871z"></path>
</svg>
