<!-- Generated by IcoMoon.io -->
<svg version="1.1" xmlns="http://www.w3.org/2000/svg" width="32" height="32" viewBox="0 0 32 32">
<title>server-checkmark</title>
<path d="M4.864 4.64c-0.001 0-0.002 0-0.003 0-1.124 0-2.035 0.911-2.035 2.035s0.911 2.035 2.035 2.035c1.124 0 2.035-0.911 2.035-2.035v0c0 0 0 0 0 0 0-1.123-0.909-2.033-2.032-2.035h-0zM5.904 6.675c0 0.576-0.467 1.043-1.043 1.043s-1.043-0.467-1.043-1.043c0-0.576 0.467-1.043 1.043-1.043 0.001 0 0.002 0 0.003 0h-0c0.575 0.002 1.040 0.468 1.040 1.043 0 0 0 0 0 0v0zM4.864 16.986c1.124 0 2.035-0.911 2.035-2.035s-0.911-2.035-2.035-2.035c-1.124 0-2.035 0.911-2.035 2.035v0c0 1.124 0.911 2.035 2.035 2.035v0zM3.821 14.95c0.004-0.573 0.469-1.037 1.043-1.037 0.576 0 1.043 0.467 1.043 1.043s-0.467 1.043-1.043 1.043v0c0 0 0 0-0 0-0.576 0-1.043-0.467-1.043-1.043 0-0.002 0-0.005 0-0.007v0zM4.864 25.261c1.124 0 2.035-0.911 2.035-2.035s-0.911-2.035-2.035-2.035c-1.124 0-2.035 0.911-2.035 2.035v0c0 1.124 0.911 2.035 2.035 2.035v0zM3.821 23.226c0-0.576 0.467-1.043 1.043-1.043s1.043 0.467 1.043 1.043c0 0.576-0.467 1.043-1.043 1.043v0c-0.576 0-1.043-0.467-1.043-1.043v0zM12.8 5.683c-0.083 0.081-0.134 0.194-0.134 0.319 0 0 0 0.001 0 0.002v-0c0 0.125 0.052 0.238 0.134 0.32l0 0c0.082 0.082 0.195 0.133 0.32 0.134h0c0.002 0 0.004 0 0.006 0 0.253 0 0.458-0.205 0.458-0.458 0-0.002-0-0.005-0-0.007v0c-0.001-0.125-0.052-0.238-0.134-0.32v0c-0.084-0.077-0.196-0.124-0.32-0.124-0.128 0-0.245 0.051-0.33 0.134l0-0zM14.33 5.683c-0.078 0.084-0.126 0.196-0.126 0.32s0.048 0.236 0.126 0.32l-0-0c0.082 0.083 0.195 0.134 0.32 0.134h0c0.002 0 0.004 0 0.007 0 0.251 0 0.454-0.203 0.454-0.454 0-0.003-0-0.007-0-0.010v0c0-0 0-0 0-0.001 0-0.125-0.050-0.237-0.131-0.319l0 0c-0.084-0.076-0.196-0.123-0.32-0.123-0.128 0-0.244 0.051-0.33 0.133l0-0zM15.853 5.683c-0.082 0.082-0.133 0.195-0.134 0.32v0c0.002 0.125 0.053 0.238 0.134 0.32l-0-0c0.082 0.082 0.195 0.133 0.32 0.134h0c0.125-0.001 0.238-0.052 0.32-0.134v0c0.083-0.082 0.134-0.195 0.134-0.32v-0c0-0 0-0.001 0-0.001 0-0.125-0.051-0.238-0.134-0.319l-0-0c-0.084-0.077-0.196-0.124-0.32-0.124s-0.236 0.047-0.32 0.125l0-0zM17.376 5.683c-0.083 0.081-0.134 0.194-0.134 0.319 0 0 0 0.001 0 0.002v-0c0 0.125 0.052 0.238 0.134 0.32l0 0c0.082 0.082 0.195 0.133 0.32 0.134h0c0.002 0 0.004 0 0.006 0 0.253 0 0.458-0.205 0.458-0.458 0-0.002-0-0.005-0-0.007v0c-0.001-0.125-0.052-0.238-0.134-0.32v0c-0.084-0.077-0.196-0.124-0.32-0.124-0.128 0-0.245 0.051-0.33 0.134l0-0zM18.896 5.683c-0.085 0.084-0.137 0.201-0.137 0.33 0 0.256 0.208 0.464 0.464 0.464s0.464-0.208 0.464-0.464c0-0.003-0-0.007-0-0.010v0c0-0 0-0.001 0-0.001 0-0.125-0.051-0.238-0.134-0.319l-0-0c-0.085-0.082-0.201-0.132-0.328-0.132s-0.243 0.050-0.328 0.132l0-0zM20.419 5.683c-0.082 0.082-0.133 0.195-0.134 0.32v0c-0 0.002-0 0.004-0 0.006 0 0.253 0.205 0.458 0.458 0.458 0.002 0 0.005-0 0.007-0h-0c0.125-0.001 0.238-0.052 0.32-0.134v0c0.083-0.082 0.134-0.195 0.134-0.32v-0c0-0 0-0.001 0-0.001 0-0.125-0.051-0.238-0.134-0.319l-0-0c-0.085-0.083-0.202-0.134-0.33-0.134-0.123 0-0.236 0.047-0.32 0.125l0-0zM21.942 5.683c-0.083 0.081-0.134 0.194-0.134 0.319 0 0 0 0.001 0 0.002v-0c0 0.125 0.052 0.238 0.134 0.32l0 0c0.082 0.082 0.195 0.133 0.32 0.134h0c0 0 0 0 0 0 0.249 0 0.452-0.199 0.457-0.447v-0c-0.001-0.125-0.052-0.238-0.134-0.32v0c-0.085-0.080-0.199-0.129-0.325-0.129-0.123 0-0.234 0.047-0.319 0.123l0-0zM23.462 5.683c-0.081 0.082-0.131 0.195-0.131 0.319 0 0 0 0 0 0.001v-0c0 0.255 0.206 0.461 0.461 0.461s0.461-0.206 0.461-0.461v0c0-0 0-0.001 0-0.001 0-0.125-0.051-0.238-0.134-0.319l-0-0c-0.085-0.082-0.201-0.132-0.328-0.132s-0.243 0.050-0.328 0.132l0-0zM12.8 7.184c-0.079 0.083-0.128 0.196-0.128 0.32s0.049 0.237 0.128 0.32l-0-0c0.081 0.083 0.194 0.134 0.319 0.134 0.001 0 0.001 0 0.002 0h-0c0.252-0.003 0.456-0.208 0.456-0.461 0-0.128-0.052-0.243-0.136-0.326v0c-0.083-0.073-0.193-0.118-0.313-0.118-0.127 0-0.242 0.050-0.327 0.131l0-0zM14.333 7.184c-0.079 0.083-0.128 0.196-0.128 0.32s0.049 0.237 0.128 0.32l-0-0c0.083 0.079 0.196 0.128 0.32 0.128 0.256 0 0.464-0.208 0.464-0.464 0-0.124-0.049-0.237-0.128-0.32l0 0c-0.084-0.077-0.196-0.124-0.32-0.124-0.132 0-0.25 0.054-0.336 0.14l-0 0zM15.853 7.184c-0.079 0.083-0.128 0.196-0.128 0.32s0.049 0.237 0.128 0.32l-0-0c0.083 0.081 0.195 0.131 0.32 0.131h0c0 0 0.001 0 0.001 0 0.125 0 0.238-0.051 0.319-0.134l0-0c0.079-0.083 0.128-0.196 0.128-0.32s-0.049-0.237-0.128-0.32l0 0c-0.084-0.076-0.196-0.123-0.318-0.123-0.124 0-0.238 0.048-0.322 0.126l0-0zM17.376 7.184c-0.079 0.083-0.128 0.196-0.128 0.32s0.049 0.237 0.128 0.32l-0-0c0.082 0.081 0.195 0.131 0.319 0.131 0 0 0 0 0.001 0h-0c0.003 0 0.006 0 0.010 0 0.251 0 0.454-0.203 0.454-0.454 0-0.002-0-0.005-0-0.007v0c-0-0.125-0.052-0.238-0.134-0.32l-0-0c-0.084-0.077-0.196-0.124-0.32-0.124-0.128 0-0.245 0.051-0.33 0.134l0-0zM18.899 7.181c-0.087 0.084-0.141 0.201-0.141 0.332 0 0.255 0.206 0.461 0.461 0.461s0.461-0.206 0.461-0.461c0-0.13-0.054-0.248-0.141-0.331l-0-0c-0.084-0.077-0.197-0.123-0.32-0.123s-0.236 0.047-0.32 0.124l0-0zM20.419 7.181c-0.086 0.084-0.139 0.2-0.139 0.33 0 0.254 0.205 0.46 0.459 0.461h0c0.002 0 0.004 0 0.006 0 0.251 0 0.454-0.203 0.454-0.454 0-0.002-0-0.005-0-0.007v0c0-0.001 0-0.003 0-0.004 0-0.124-0.052-0.236-0.134-0.316l-0-0c-0.085-0.081-0.201-0.131-0.328-0.131-0.122 0-0.234 0.046-0.318 0.122l0-0zM21.942 7.184c-0.079 0.083-0.128 0.196-0.128 0.32s0.049 0.237 0.128 0.32l-0-0c0.081 0.083 0.194 0.134 0.319 0.134 0 0 0.001 0 0.002 0h-0c0.252-0.003 0.456-0.208 0.456-0.461 0-0.128-0.052-0.243-0.136-0.326v0c-0.083-0.073-0.193-0.118-0.313-0.118-0.127 0-0.242 0.050-0.327 0.131l0-0zM23.462 7.184c-0.081 0.083-0.131 0.197-0.131 0.322 0 0.255 0.206 0.461 0.461 0.461s0.461-0.206 0.461-0.461c0-0.125-0.050-0.239-0.131-0.322l0 0c-0.085-0.082-0.202-0.132-0.33-0.132s-0.244 0.050-0.33 0.132l0-0zM12.8 14.528c0.081 0.083 0.194 0.134 0.319 0.134 0.001 0 0.001 0 0.002 0h-0c0.125-0 0.238-0.052 0.32-0.134l0-0c0.082-0.082 0.133-0.195 0.134-0.32v-0c-0.002-0.125-0.053-0.238-0.134-0.32l0 0c-0.084-0.076-0.197-0.123-0.32-0.123s-0.236 0.047-0.32 0.124l0-0c-0.083 0.082-0.134 0.195-0.134 0.32v0c0 0 0 0.001 0 0.001 0 0.125 0.051 0.238 0.134 0.319l0 0zM14.333 14.528c0.080 0.083 0.192 0.134 0.316 0.134 0.001 0 0.003 0 0.004-0h-0c0.002 0 0.004 0 0.006 0 0.251 0 0.454-0.203 0.454-0.454 0-0.002-0-0.005-0-0.007v0c-0.001-0.125-0.051-0.237-0.131-0.32l0 0c-0.085-0.082-0.201-0.132-0.328-0.132s-0.243 0.050-0.328 0.132l0-0c-0.078 0.084-0.126 0.196-0.126 0.32s0.048 0.236 0.126 0.32l-0-0zM15.853 14.528c0.082 0.083 0.195 0.134 0.32 0.134h0c0.003 0 0.006 0 0.010 0 0.253 0 0.458-0.205 0.458-0.458 0-0.001 0-0.002 0-0.003v0c-0-0.125-0.052-0.238-0.134-0.32l-0-0c-0.085-0.082-0.201-0.132-0.328-0.132s-0.243 0.050-0.328 0.132l0-0c-0.082 0.082-0.133 0.195-0.134 0.32v0c0.001 0.125 0.052 0.238 0.134 0.32v0zM17.376 14.528c0.081 0.083 0.194 0.134 0.319 0.134 0 0 0.001 0 0.002 0h-0c0.125-0 0.238-0.052 0.32-0.134l0-0c0.079-0.083 0.127-0.196 0.127-0.32s-0.048-0.237-0.127-0.32l0 0c-0.085-0.082-0.201-0.132-0.328-0.132s-0.243 0.050-0.328 0.132l0-0c-0.083 0.082-0.134 0.195-0.134 0.32v0c0 0 0 0.001 0 0.001 0 0.125 0.051 0.238 0.134 0.319l0 0zM18.899 14.528c0.083 0.079 0.196 0.128 0.32 0.128s0.237-0.049 0.32-0.128l-0 0c0.083-0.081 0.134-0.194 0.134-0.319 0-0.001 0-0.001 0-0.002v0c-0-0.125-0.050-0.238-0.131-0.32l0 0c-0.084-0.077-0.196-0.124-0.32-0.124s-0.236 0.047-0.32 0.125l0-0c-0.083 0.081-0.134 0.195-0.134 0.32 0 0 0 0 0 0v0c0 0 0 0 0 0.001 0 0.125 0.050 0.237 0.131 0.319l-0-0zM20.419 14.528c0.082 0.083 0.195 0.134 0.32 0.134h0c0.252-0.005 0.454-0.211 0.454-0.464 0-0.127-0.051-0.243-0.134-0.327l0 0c-0.084-0.076-0.197-0.123-0.32-0.123s-0.236 0.047-0.32 0.124l0-0c-0.079 0.083-0.127 0.196-0.127 0.32s0.048 0.237 0.127 0.32l-0-0zM21.942 14.528c0.081 0.083 0.194 0.134 0.319 0.134 0 0 0.001 0 0.002 0h-0c0.125-0 0.238-0.052 0.32-0.134l0-0c0.082-0.082 0.133-0.195 0.134-0.32v-0c-0.002-0.125-0.053-0.238-0.134-0.32l0 0c-0.085-0.081-0.201-0.131-0.328-0.131s-0.243 0.050-0.328 0.131l0-0c-0.083 0.082-0.134 0.195-0.134 0.32v0c0 0 0 0.001 0 0.001 0 0.125 0.051 0.238 0.134 0.319l0 0zM23.466 14.528c0.080 0.083 0.192 0.134 0.316 0.134 0.001 0 0.003 0 0.004-0h-0c0.002 0 0.004 0 0.006 0 0.251 0 0.454-0.203 0.454-0.454 0-0.002-0-0.005-0-0.007v0c-0.001-0.125-0.051-0.237-0.131-0.32l0 0c-0.086-0.081-0.202-0.131-0.33-0.131s-0.244 0.050-0.33 0.131l0-0c-0.081 0.083-0.131 0.195-0.131 0.32v0c0 0 0 0 0 0.001 0 0.125 0.050 0.237 0.131 0.319l-0-0zM12.8 16.029c0.082 0.082 0.195 0.133 0.32 0.134h0c0.002 0 0.004 0 0.006 0 0.253 0 0.458-0.205 0.458-0.458 0-0.002-0-0.005-0-0.007v0c-0.001-0.125-0.052-0.238-0.134-0.32v0c-0.084-0.077-0.196-0.124-0.32-0.124s-0.236 0.047-0.32 0.125l0-0c-0.083 0.081-0.134 0.194-0.134 0.319 0 0.001 0 0.001 0 0.002v-0c0 0.125 0.052 0.238 0.134 0.32l0 0zM14.333 16.029c0.082 0.083 0.195 0.134 0.32 0.134h0c0.002 0 0.004 0 0.007 0 0.251 0 0.454-0.203 0.454-0.454 0-0.003-0-0.007-0-0.010v0.001c0-0 0-0 0-0.001 0-0.125-0.050-0.237-0.131-0.319l0 0c-0.085-0.082-0.201-0.132-0.328-0.132s-0.243 0.050-0.328 0.132l0-0c-0.083 0.081-0.134 0.194-0.134 0.319 0 0.001 0 0.001 0 0.002v-0c0.001 0.125 0.051 0.237 0.131 0.32l-0-0zM15.853 16.029c0.082 0.082 0.195 0.133 0.32 0.134h0c0.125-0.001 0.238-0.052 0.32-0.134v0c0.083-0.082 0.134-0.195 0.134-0.32v-0c0-0 0-0.001 0-0.001 0-0.125-0.051-0.238-0.134-0.319l-0-0c-0.085-0.082-0.201-0.132-0.328-0.132s-0.243 0.050-0.328 0.132l0-0c-0.082 0.082-0.133 0.195-0.134 0.32v0c0.002 0.125 0.053 0.238 0.134 0.32l-0-0zM17.376 16.029c0.082 0.082 0.195 0.133 0.32 0.134h0c0.125-0.002 0.238-0.053 0.32-0.134l-0 0c0.083-0.084 0.134-0.2 0.134-0.328s-0.051-0.244-0.135-0.328l0 0c-0.085-0.082-0.201-0.132-0.328-0.132s-0.243 0.050-0.328 0.132l0-0c-0.083 0.081-0.134 0.194-0.134 0.319 0 0.001 0 0.001 0 0.002v-0c0 0.125 0.052 0.238 0.134 0.32l0 0zM18.899 16.029c0.083 0.079 0.196 0.128 0.32 0.128s0.237-0.049 0.32-0.128l-0 0c0.083-0.081 0.134-0.195 0.134-0.32 0-0 0-0 0-0v0c0-0 0-0 0-0.001 0-0.125-0.050-0.237-0.131-0.319l0 0c-0.084-0.077-0.196-0.124-0.32-0.124s-0.236 0.047-0.32 0.125l0-0c-0.083 0.081-0.134 0.194-0.134 0.319 0 0.001 0 0.001 0 0.002v-0c0 0.125 0.050 0.238 0.131 0.32l-0-0zM20.419 16.029c0.082 0.082 0.195 0.133 0.32 0.134h0c0.125-0.001 0.238-0.052 0.32-0.134v0c0.083-0.084 0.134-0.2 0.134-0.328s-0.051-0.244-0.135-0.328l0 0c-0.084-0.077-0.196-0.124-0.32-0.124s-0.236 0.047-0.32 0.125l0-0c-0.083 0.084-0.134 0.2-0.134 0.328s0.051 0.244 0.135 0.328l-0-0zM21.942 16.029c0.082 0.082 0.195 0.133 0.32 0.134h0c0 0 0 0 0 0 0.253 0 0.458-0.205 0.458-0.458 0-0.002-0-0.005-0-0.007v0c-0.001-0.125-0.052-0.238-0.134-0.32v0c-0.085-0.082-0.201-0.132-0.328-0.132s-0.243 0.050-0.328 0.132l0-0c-0.083 0.081-0.134 0.194-0.134 0.319 0 0.001 0 0.001 0 0.002v-0c0 0.125 0.052 0.238 0.134 0.32l0 0zM23.466 16.029c0.082 0.083 0.195 0.134 0.32 0.134h0c0.002 0 0.004 0 0.006 0 0.251 0 0.454-0.203 0.454-0.454 0-0.003-0-0.007-0-0.010v0.001c0-0 0-0 0-0.001 0-0.125-0.050-0.237-0.131-0.319l0 0c-0.085-0.082-0.202-0.132-0.33-0.132s-0.244 0.050-0.33 0.132l0-0c-0.081 0.082-0.131 0.195-0.131 0.319 0 0 0 0 0 0.001v-0c0.001 0.125 0.051 0.237 0.131 0.32l-0-0zM12.8 22.72c0.082 0.081 0.195 0.131 0.319 0.131 0 0 0 0 0.001 0h-0c0.252-0.005 0.454-0.211 0.454-0.464 0-0.127-0.051-0.243-0.134-0.327l0 0c-0.084-0.076-0.197-0.123-0.32-0.123s-0.236 0.047-0.32 0.124l0-0c-0.083 0.080-0.134 0.192-0.134 0.316 0 0.001 0 0.003 0 0.004v-0c-0 0.005-0 0.011-0 0.018 0 0.126 0.052 0.24 0.135 0.322l0 0zM14.333 22.72c0.081 0.081 0.193 0.131 0.317 0.131 0.001 0 0.002 0 0.003 0h-0c0.006 0 0.012 0 0.019 0 0.247 0 0.448-0.201 0.448-0.448 0-0.001 0-0.003-0-0.004v0c0-0.001 0-0.002 0-0.003 0-0.124-0.050-0.236-0.131-0.317v0c-0.085-0.082-0.202-0.132-0.33-0.132s-0.244 0.050-0.33 0.132l0-0c-0.078 0.084-0.126 0.196-0.126 0.32s0.048 0.236 0.126 0.32l-0-0zM15.853 22.72c0.083 0.081 0.195 0.131 0.32 0.131h0c0.004 0 0.008 0 0.013 0 0.25 0 0.453-0.202 0.454-0.451v-0c0-0.001 0-0.003 0-0.004 0-0.124-0.052-0.236-0.134-0.316l-0-0c-0.085-0.082-0.201-0.132-0.328-0.132s-0.243 0.050-0.328 0.132l0-0c-0.083 0.082-0.134 0.195-0.134 0.32v0c0.002 0.125 0.053 0.238 0.134 0.32l-0-0zM17.376 22.72c0.082 0.081 0.195 0.131 0.319 0.131 0 0 0 0 0.001 0h-0c0.005 0 0.010 0 0.016 0 0.25 0 0.453-0.202 0.454-0.451v-0c-0-0.125-0.052-0.238-0.134-0.32l-0-0c-0.085-0.082-0.201-0.132-0.328-0.132s-0.243 0.050-0.328 0.132l0-0c-0.083 0.080-0.134 0.192-0.134 0.316 0 0.001 0 0.003 0 0.004v-0c0 0.125 0.052 0.238 0.134 0.32l0 0zM12.8 24.218c0.081 0.083 0.194 0.134 0.319 0.134 0.001 0 0.001 0 0.002 0h-0c0.125-0 0.238-0.052 0.32-0.134l0-0c0.082-0.082 0.133-0.195 0.134-0.32v-0c-0.002-0.125-0.053-0.238-0.134-0.32l0 0c-0.085-0.076-0.197-0.122-0.32-0.122s-0.235 0.046-0.32 0.123l0-0c-0.083 0.082-0.134 0.195-0.134 0.32v0c0 0 0 0.001 0 0.001 0 0.125 0.051 0.238 0.134 0.319l0 0zM14.333 24.218c0.080 0.083 0.192 0.134 0.316 0.134 0.001 0 0.003 0 0.004-0h-0c0.002 0 0.004 0 0.006 0 0.251 0 0.454-0.203 0.454-0.454 0-0.002-0-0.005-0-0.007v0c-0.001-0.125-0.051-0.237-0.131-0.32l0 0c-0.086-0.080-0.202-0.13-0.33-0.13s-0.244 0.049-0.33 0.13l0-0c-0.081 0.083-0.131 0.195-0.131 0.32v0c0 0 0 0.001 0 0.001 0 0.125 0.051 0.238 0.134 0.319l0 0zM15.853 24.218c0.082 0.083 0.195 0.134 0.32 0.134h0c0.003 0 0.006 0 0.010 0 0.253 0 0.458-0.205 0.458-0.458 0-0.001 0-0.002 0-0.003v0c-0-0.125-0.052-0.238-0.134-0.32l-0-0c-0.086-0.080-0.201-0.13-0.328-0.13s-0.242 0.049-0.328 0.13l0-0c-0.082 0.082-0.133 0.195-0.134 0.32v0c0.001 0.125 0.052 0.238 0.134 0.32v0zM17.376 24.218c0.081 0.083 0.194 0.134 0.319 0.134 0 0 0.001 0 0.002 0h-0c0.002 0 0.004 0 0.006 0 0.253 0 0.458-0.205 0.458-0.458 0-0.001 0-0.002 0-0.003v0c-0.002-0.125-0.053-0.238-0.134-0.32l0 0c-0.086-0.080-0.201-0.13-0.328-0.13s-0.242 0.049-0.328 0.13l0-0c-0.083 0.082-0.134 0.195-0.134 0.32v0c0 0 0 0.001 0 0.001 0 0.125 0.051 0.238 0.134 0.319l0 0zM27.872 17.037v-4.291c0-0.001 0-0.001 0-0.002 0-0.805-0.387-1.52-0.986-1.968l-0.006-0.005c0.605-0.452 0.992-1.165 0.992-1.97 0-0.001 0-0.001 0-0.002v0-4.41c-0.002-1.364-1.107-2.469-2.47-2.47h-22.931c-1.364 0-2.47 1.106-2.47 2.47v4.41c0 0.002 0 0.005 0 0.007 0 0.802 0.386 1.514 0.982 1.959l0.006 0.005c-0.603 0.451-0.989 1.163-0.989 1.966 0 0.003 0 0.006 0 0.009v-0 4.41c0 0.003-0 0.006-0 0.009 0 0.802 0.386 1.515 0.982 1.961l0.006 0.005c-0.603 0.45-0.989 1.162-0.989 1.964 0 0.009 0 0.018 0 0.028v-0.001 4.39c0 1.364 1.106 2.47 2.47 2.47h17.834c1.227 1.294 2.959 2.099 4.879 2.099 0.007 0 0.014 0 0.021-0h-0.001c0.002 0 0.003 0 0.005 0 3.752 0 6.794-3.042 6.794-6.794 0-2.79-1.681-5.187-4.086-6.233l-0.044-0.017zM2.47 19.626h17.014c-0.675 1.033-1.077 2.299-1.077 3.658 0 1.378 0.413 2.659 1.122 3.727l-0.016-0.025h-17.043c-0.815-0.002-1.475-0.661-1.478-1.475v-4.391c-0-0.004-0-0.008-0-0.013 0-0.817 0.662-1.48 1.478-1.482h0zM2.47 11.27h22.931c0 0 0 0 0 0 0.815 0 1.477 0.66 1.478 1.475v3.959c-0.502-0.133-1.077-0.209-1.671-0.209-1.945 0-3.698 0.817-4.937 2.125l-0.003 0.003h-17.798c-0.812-0.002-1.471-0.657-1.478-1.468v-4.41c0.004-0.814 0.664-1.473 1.478-1.475h0zM20.752 19.568c0.2-0.239 0.41-0.455 0.634-0.654l0.006-0.005c1.008-0.887 2.339-1.428 3.796-1.428 0.614 0 1.206 0.096 1.762 0.274l-0.041-0.011c0.248 0.077 0.454 0.157 0.652 0.25l-0.032-0.013c2.063 0.919 3.474 2.951 3.474 5.312 0 3.202-2.596 5.798-5.798 5.798-1.441 0-2.759-0.526-3.773-1.396l0.008 0.007c-0.232-0.203-0.441-0.419-0.632-0.65l-0.008-0.009c-0.865-1.004-1.392-2.322-1.392-3.762 0-1.418 0.511-2.716 1.358-3.722l-0.007 0.009zM25.402 10.288h-22.931c-0.817-0.002-1.478-0.664-1.478-1.482 0-0.002 0-0.005 0-0.007v0-4.41c0.002-0.816 0.663-1.477 1.478-1.478h22.931c0.817 0 1.478 0.662 1.478 1.478v4.41c-0.002 0.815-0.663 1.475-1.478 1.475 0 0 0 0 0 0v0zM23.424 25.958c0.089 0.091 0.213 0.148 0.35 0.148s0.261-0.057 0.35-0.148l4.765-4.762c0.089-0.090 0.145-0.214 0.145-0.35 0-0.274-0.222-0.497-0.497-0.497-0.138 0-0.262 0.056-0.352 0.146l-0 0-4.48 4.419-1.485-1.555c-0.088-0.081-0.206-0.131-0.335-0.131-0.274 0-0.496 0.222-0.496 0.496 0 0.129 0.050 0.247 0.131 0.336l-0-0z"></path>
</svg>
