<!-- Generated by IcoMoon.io -->
<svg version="1.1" xmlns="http://www.w3.org/2000/svg" width="32" height="32" viewBox="0 0 32 32">
<title>setup-config</title>
<path d="M19.138 26.536c-0.16 0.050-0.284 0.176-0.331 0.337l-1.124 3.809c-0.050 0.056-0.088 0.121-0.108 0.19l-3.455-0.041c-0.009-0.032-0.022-0.062-0.037-0.090l-1.141-3.867c-0.047-0.161-0.171-0.287-0.331-0.337-0.621-0.193-1.248-0.457-1.865-0.783-0.149-0.078-0.327-0.077-0.474 0.003l-3.501 1.905c-0.075 0.004-0.147 0.023-0.21 0.058l-2.414-2.473c0.015-0.028 0.028-0.058 0.037-0.088l1.939-3.561c0.080-0.147 0.082-0.325 0.003-0.473-0.324-0.616-0.585-1.24-0.777-1.856-0.050-0.16-0.177-0.284-0.337-0.331l-3.819-1.126c-0.056-0.050-0.121-0.088-0.191-0.109l0.041-3.455c0.031-0.009 0.062-0.022 0.090-0.037l3.878-1.144c0.16-0.047 0.287-0.171 0.337-0.331 0.191-0.616 0.453-1.24 0.777-1.856 0.078-0.149 0.077-0.326-0.003-0.473l-1.909-3.506c-0.004-0.076-0.023-0.149-0.057-0.212l2.474-2.414c0.028 0.016 0.057 0.028 0.087 0.037l3.559 1.938c0.147 0.081 0.325 0.082 0.474 0.003 0.649-0.343 1.311-0.617 1.97-0.813 0.164-0.049 0.292-0.178 0.339-0.343l1.086-3.803c0.037-0.050 0.066-0.106 0.082-0.162l3.332 0.038c0.009 0.030 0.020 0.059 0.035 0.087l1.098 3.842c0.047 0.164 0.174 0.293 0.338 0.342 0.699 0.21 1.396 0.502 2.074 0.868 0.151 0.082 0.332 0.081 0.482-0.003l3.468-1.926c0.062-0.009 0.122-0.028 0.173-0.057l2.329 2.383c-0.016 0.028-0.028 0.058-0.038 0.087l-1.947 3.504c-0.084 0.15-0.084 0.331-0.003 0.482 0.364 0.674 0.656 1.37 0.866 2.070 0.049 0.164 0.178 0.291 0.342 0.337l3.808 1.089c0.049 0.037 0.104 0.065 0.163 0.082l-0.037 3.331c-0.031 0.009-0.061 0.020-0.089 0.035l-3.845 1.099c-0.164 0.047-0.293 0.174-0.342 0.338-0.114 0.379-0.257 0.758-0.418 1.132l0.755 0.755c0.206-0.441 0.393-0.886 0.54-1.336l3.675-1.051c0.041-0.011 0.079-0.028 0.114-0.049 0.392-0.161 0.648-0.533 0.648-0.961v-3.294c0-0.426-0.255-0.798-0.645-0.959-0.036-0.021-0.075-0.038-0.116-0.050l-3.676-1.051c-0.194-0.591-0.439-1.178-0.733-1.75l1.861-3.35c0.021-0.038 0.037-0.078 0.047-0.119 0.161-0.391 0.078-0.833-0.223-1.134l-2.329-2.329c-0.301-0.302-0.744-0.385-1.135-0.223-0.041 0.011-0.080 0.026-0.118 0.047l-3.347 1.859c-0.575-0.296-1.163-0.542-1.754-0.735l-1.050-3.672c-0.011-0.040-0.028-0.077-0.049-0.113-0.161-0.392-0.534-0.649-0.961-0.649h-3.294c-0.424 0-0.795 0.253-0.958 0.642-0.022 0.037-0.040 0.077-0.052 0.12l-1.049 3.671c-0.552 0.18-1.103 0.409-1.646 0.681l-3.41-1.857c-0.038-0.021-0.079-0.036-0.12-0.046-0.392-0.156-0.837-0.068-1.14 0.236l-2.405 2.404c-0.304 0.305-0.392 0.749-0.236 1.14 0.010 0.041 0.026 0.082 0.047 0.122l1.857 3.412c-0.254 0.507-0.468 1.018-0.641 1.528l-3.717 1.095c-0.042 0.012-0.082 0.030-0.117 0.052-0.387 0.165-0.64 0.542-0.64 0.973v3.401c0 0.43 0.251 0.805 0.637 0.972 0.037 0.023 0.077 0.041 0.121 0.054l3.717 1.096c0.172 0.509 0.387 1.021 0.641 1.528l-1.857 3.412c-0.021 0.038-0.036 0.077-0.046 0.118-0.158 0.392-0.070 0.838 0.235 1.143l2.404 2.405c0.304 0.304 0.748 0.392 1.139 0.236 0.042-0.010 0.083-0.026 0.122-0.047l3.405-1.853c0.509 0.256 1.024 0.472 1.538 0.647l1.093 3.706c0.012 0.043 0.030 0.082 0.053 0.118 0.166 0.387 0.543 0.64 0.973 0.64h3.401c0.43 0 0.807-0.252 0.972-0.639 0.022-0.036 0.040-0.076 0.052-0.118l1.094-3.706c0.313-0.106 0.625-0.232 0.937-0.368l-0.771-0.771c-0.24 0.095-0.48 0.191-0.721 0.265zM15.874 23.994c-4.409 0-7.995-3.586-7.995-7.995s3.586-7.994 7.995-7.994c4.408 0 7.994 3.586 7.994 7.994 0 0.657-0.088 1.292-0.238 1.903l0.818 0.818c0.274-0.859 0.423-1.772 0.423-2.721 0-4.961-4.036-8.996-8.996-8.996s-8.997 4.036-8.997 8.996c0 4.961 4.036 8.997 8.997 8.997 0.825 0 1.621-0.122 2.38-0.33l-0.826-0.827c-0.503 0.1-1.022 0.154-1.554 0.154zM28.565 30.074c-1.103 1.103-2.43-0.321-2.43-0.321l-8.56-8.56c-0.063-0.063-0.152-0.090-0.238-0.068-0.585 0.148-2.986 0.604-4.865-1.275-1.658-1.658-1.687-4.292-1.613-5.42 0.015-0.219 0.281-0.314 0.436-0.159l2.232 2.232c0 0 0.822 0.874 1.696 0l1.283-1.283c0.874-0.874 0-1.696 0-1.696l-2.232-2.232c-0.155-0.155-0.060-0.422 0.159-0.436 1.127-0.075 3.762-0.045 5.42 1.613 1.879 1.879 1.423 4.28 1.275 4.865-0.022 0.086 0.006 0.175 0.068 0.238l8.56 8.56c0 0 1.424 1.327 0.321 2.43l-1.512 1.512z"></path>
</svg>
