<!-- Generated by IcoMoon.io -->
<svg version="1.1" xmlns="http://www.w3.org/2000/svg" width="32" height="32" viewBox="0 0 32 32">
<title>smart-watch</title>
<path d="M19.92 8.656h-10.086c-1.16 0.002-2.101 0.942-2.102 2.102v10.493c0 0.001 0 0.002 0 0.003 0 1.162 0.941 2.104 2.102 2.106h10.087c1.16-0.002 2.101-0.942 2.102-2.102v-10.499c-0.002-1.16-0.942-2.101-2.102-2.102h-0zM20.88 21.251c0 0.53-0.43 0.96-0.96 0.96v0h-10.086c-0.53 0-0.96-0.43-0.96-0.96v0-10.493c0-0.53 0.43-0.96 0.96-0.96v0h10.086c0.53 0 0.96 0.43 0.96 0.96v0zM24.72 15.395c0.005 0 0.010 0 0.016 0 1.006 0 1.822-0.815 1.824-1.821v-3.066c-0.004-1.005-0.819-1.819-1.824-1.821h-0.448c-0.131-1.336-1.246-2.372-2.604-2.378h-0.541l-1.354-4.506c-0.318-1.052-1.279-1.805-2.415-1.805-0.004 0-0.007 0-0.011 0h-4.972c-0.004-0-0.008-0-0.012-0-1.135 0-2.095 0.753-2.406 1.787l-0.005 0.018-1.354 4.506h-0.525c-1.455 0.002-2.634 1.182-2.634 2.637 0 0.005 0 0.009 0 0.014v-0.001 14.106c0.002 1.454 1.18 2.632 2.633 2.634h0.528l1.35 4.499c0.317 1.050 1.275 1.802 2.409 1.802 0.005 0 0.009 0 0.014-0h4.972c0.003 0 0.007 0 0.011 0 1.135 0 2.095-0.751 2.41-1.784l0.005-0.018 1.35-4.499h0.528c1.4-0.005 2.543-1.104 2.617-2.486l0-0.007h0.435c1.007-0.002 1.822-0.817 1.824-1.824v-3.063c-0.002-1.006-0.818-1.821-1.824-1.821 0 0 0 0 0 0h-0.422v-1.104zM24.32 9.837h0.4c0.001 0 0.002 0 0.003 0 0.371 0 0.672 0.301 0.672 0.672 0 0 0 0 0 0v0 3.066c0 0.373-0.302 0.675-0.675 0.675v0h-0.4zM11.066 2.134c0.173-0.576 0.698-0.989 1.32-0.989 0.002 0 0.003 0 0.005 0h4.973c0.002 0 0.004-0 0.007-0 0.621 0 1.146 0.413 1.316 0.979l0.003 0.010 1.254 4.176h-10.131zM18.688 29.869c-0.173 0.574-0.697 0.986-1.317 0.986-0.003 0-0.005 0-0.008-0h-4.972c-0.002 0-0.003 0-0.005 0-0.621 0-1.146-0.411-1.317-0.976l-0.003-0.010-1.251-4.16h10.128zM23.152 23.066c0 0 0 0 0 0 0 0.821-0.664 1.486-1.485 1.488h-13.581c-0.82-0.002-1.485-0.667-1.485-1.488 0 0 0 0 0 0v0-14.106c0 0 0 0 0 0 0-0.821 0.664-1.486 1.485-1.488h13.581c0.82 0.002 1.485 0.667 1.485 1.488 0 0 0 0 0 0v0zM24.32 17.645h0.4c0.373 0 0.675 0.302 0.675 0.675v0 3.062c0 0.001 0 0.002 0 0.003 0 0.371-0.301 0.672-0.672 0.672-0.001 0-0.002 0-0.003 0h-0.4z"></path>
</svg>
