<!-- Generated by IcoMoon.io -->
<svg version="1.1" xmlns="http://www.w3.org/2000/svg" width="32" height="32" viewBox="0 0 32 32">
<title>smart-house</title>
<path d="M20.637 5.085c-1.263-0.99-2.874-1.587-4.625-1.587-1.663 0-3.2 0.539-4.446 1.451l0.021-0.015-0.592-0.816c1.389-1.018 3.131-1.629 5.017-1.629 1.985 0 3.811 0.677 5.261 1.812l-0.019-0.014zM22.23 3.024c-0.020 0.026-0.051 0.043-0.086 0.043-0.026 0-0.049-0.009-0.068-0.023l0 0c-1.665-1.27-3.775-2.035-6.063-2.035-2.172 0-4.183 0.689-5.827 1.861l0.031-0.021c-0.018 0.013-0.040 0.021-0.064 0.021-0.037 0-0.069-0.018-0.089-0.046l-0-0-0.464-0.634c-0.013-0.019-0.021-0.042-0.021-0.067 0-0.040 0.019-0.075 0.049-0.096l0-0c1.776-1.268 3.991-2.028 6.383-2.028 2.52 0 4.843 0.843 6.703 2.262l-0.027-0.020c0.028 0.022 0.045 0.055 0.045 0.093 0 0.026-0.009 0.051-0.023 0.070l0-0zM18.979 6.989c-0.019 0.026-0.049 0.042-0.083 0.042-0.025 0-0.047-0.009-0.065-0.023l0 0c-0.777-0.582-1.757-0.931-2.819-0.931-1.008 0-1.942 0.315-2.71 0.852l0.015-0.010c-0.017 0.012-0.037 0.019-0.059 0.019-0.035 0-0.066-0.018-0.084-0.044l-0-0-0.467-0.64c-0.012-0.017-0.020-0.039-0.020-0.063 0-0.038 0.019-0.071 0.048-0.090l0-0c0.916-0.647 2.055-1.035 3.285-1.035 1.295 0 2.49 0.43 3.45 1.154l-0.015-0.010c0.027 0.021 0.044 0.054 0.044 0.090 0 0.025-0.008 0.048-0.021 0.067l0-0zM20.698 5.005c-0.018 0.024-0.047 0.040-0.080 0.040-0.023 0-0.044-0.008-0.061-0.021l0 0c-1.247-0.953-2.829-1.526-4.544-1.526-1.628 0-3.134 0.517-4.366 1.395l0.023-0.016c-0.017 0.012-0.038 0.019-0.060 0.019-0.034 0-0.064-0.016-0.084-0.041l-0-0-0.467-0.64c-0.012-0.017-0.020-0.039-0.020-0.062 0-0.036 0.018-0.068 0.045-0.088l0-0c1.371-0.979 3.081-1.565 4.928-1.565 1.946 0 3.74 0.651 5.176 1.747l-0.021-0.015c0.026 0.020 0.043 0.051 0.043 0.087 0 0.024-0.008 0.046-0.021 0.064l0-0zM27.309 8.32h-22.618c-0.29 0.003-0.524 0.236-0.531 0.524v8.618c0 0.297 0.241 0.538 0.538 0.538v0h1.616v12.922c0 0 0 0 0 0 0 0.593 0.479 1.075 1.072 1.078h17.229c0.596 0 1.078-0.483 1.078-1.078v0-12.922h1.6c0.003 0 0.006 0 0.010 0 0.297 0 0.538-0.241 0.538-0.538 0-0 0-0 0-0v0-8.618c-0.007-0.289-0.241-0.521-0.531-0.525h-0zM17.069 30.934h-2.147v-6.474c0-0.596 0.483-1.078 1.078-1.078s1.078 0.483 1.078 1.078v0zM24.605 30.934h-6.451v-6.474c0-1.189-0.964-2.154-2.154-2.154s-2.154 0.964-2.154 2.154v0 6.461h-6.461v-12.922h5.382c0.165-0.002 0.312-0.078 0.409-0.197l0.001-0.001 2.822-3.75 2.816 3.754c0.098 0.12 0.244 0.197 0.409 0.198h5.389zM26.758 16.934h-7.261l-3.085-4.134c-0.096-0.121-0.244-0.199-0.41-0.199s-0.313 0.077-0.409 0.198l-0.001 0.001-3.091 4.122h-7.27v-7.536h21.536zM8.998 26.614h3.232v-4.307h-3.232zM10.077 23.386h1.078v2.154h-1.078zM23.002 22.307h-3.232v4.307h3.232zM21.923 25.539h-1.078v-2.154h1.078z"></path>
</svg>
