<!-- Generated by IcoMoon.io -->
<svg version="1.1" xmlns="http://www.w3.org/2000/svg" width="32" height="32" viewBox="0 0 32 32">
<title>smart-lights</title>
<path d="M20.685 5.28c-1.311-1.029-2.984-1.65-4.802-1.65-1.725 0-3.319 0.559-4.612 1.505l0.022-0.015-0.614-0.848c1.442-1.056 3.251-1.689 5.208-1.689 2.060 0 3.956 0.702 5.462 1.88l-0.020-0.015zM22.339 3.139c-0.021 0.027-0.053 0.044-0.089 0.044-0.027 0-0.052-0.010-0.071-0.025l0 0c-1.728-1.318-3.918-2.112-6.293-2.112-2.255 0-4.343 0.716-6.049 1.932l0.032-0.022c-0.019 0.013-0.042 0.022-0.067 0.022-0.038 0-0.072-0.018-0.093-0.047l-0-0-0.474-0.659c-0.016-0.020-0.025-0.045-0.025-0.073 0-0.040 0.020-0.075 0.050-0.097l0-0c1.843-1.315 4.141-2.103 6.623-2.103 2.615 0 5.027 0.875 6.957 2.347l-0.028-0.020c0.029 0.022 0.048 0.056 0.048 0.096 0 0.028-0.010 0.054-0.026 0.074l0-0zM18.963 7.254c-0.019 0.026-0.050 0.042-0.084 0.042-0.025 0-0.048-0.009-0.066-0.023l0 0c-0.807-0.604-1.825-0.967-2.927-0.967-1.046 0-2.016 0.327-2.814 0.884l0.016-0.011c-0.017 0.012-0.039 0.020-0.062 0.020-0.036 0-0.068-0.018-0.088-0.045l-0-0-0.48-0.666c-0.014-0.019-0.023-0.043-0.023-0.069 0-0.039 0.019-0.073 0.048-0.094l0-0c0.949-0.669 2.129-1.069 3.402-1.069 1.342 0 2.581 0.445 3.577 1.195l-0.015-0.011c0.028 0.022 0.045 0.055 0.045 0.093 0 0.026-0.009 0.051-0.023 0.070l0-0zM20.749 5.197c-0.020 0.025-0.050 0.041-0.083 0.041-0.024 0-0.046-0.008-0.064-0.022l0 0c-1.295-0.989-2.937-1.584-4.718-1.584-1.689 0-3.253 0.536-4.532 1.447l0.024-0.016c-0.017 0.012-0.039 0.019-0.062 0.019-0.035 0-0.065-0.016-0.085-0.041l-0-0-0.486-0.675c-0.013-0.018-0.020-0.040-0.020-0.064 0-0.038 0.019-0.072 0.049-0.092l0-0c1.424-1.015 3.199-1.622 5.115-1.622 2.020 0 3.882 0.675 5.374 1.811l-0.022-0.016c0.026 0.021 0.043 0.052 0.043 0.088 0 0.026-0.009 0.050-0.024 0.069l0-0zM16 8.387c-0.001 0-0.002 0-0.003 0-4.006 0-7.254 3.241-7.267 7.244v0.001c0.017 0.823 0.156 1.607 0.4 2.344l-0.016-0.056c0.398 0.892 0.803 1.641 1.257 2.355l-0.044-0.074c1.062 1.853 2.666 4.653 2.666 5.696 0.002 0.287 0.235 0.518 0.522 0.518 0 0 0 0 0 0h4.973c0 0 0 0 0 0 0.287 0 0.52-0.232 0.522-0.518v-0c0-1.043 1.6-3.84 2.666-5.696 0.41-0.641 0.815-1.39 1.167-2.168l0.046-0.114c0.228-0.681 0.367-1.465 0.384-2.28l0-0.008c-0.013-4.004-3.261-7.245-7.267-7.245-0.001 0-0.002 0-0.003 0h0zM21.904 17.6c-0.398 0.84-0.775 1.526-1.185 2.188l0.055-0.096c-1.341 2.336-2.477 4.397-2.746 5.696h-4.054c-0.269-1.299-1.408-3.36-2.746-5.693-0.357-0.569-0.735-1.256-1.075-1.964l-0.057-0.132c-0.188-0.582-0.303-1.254-0.32-1.95l-0-0.008c0-3.441 2.789-6.23 6.23-6.23s6.23 2.789 6.23 6.23v0c-0.021 0.706-0.141 1.377-0.347 2.009l0.014-0.051zM13.062 27.773c0 0.286 0.232 0.518 0.518 0.518v0h4.838c0.286 0 0.518-0.232 0.518-0.518s-0.232-0.518-0.518-0.518h-4.838c-0.286 0-0.518 0.232-0.518 0.518v0zM13.062 29.629c0 0.286 0.232 0.518 0.518 0.518v0h4.838c0.286 0 0.518-0.232 0.518-0.518s-0.232-0.518-0.518-0.518h-4.838c-0.286 0-0.518 0.232-0.518 0.518v0zM14.49 31.482c0 0.286 0.232 0.518 0.518 0.518h1.83c0.012 0.001 0.026 0.002 0.041 0.002 0.288 0 0.522-0.234 0.522-0.522s-0.234-0.522-0.522-0.522c-0.014 0-0.029 0.001-0.043 0.002l0.002-0h-1.83c0 0 0 0 0 0-0.286 0-0.518 0.232-0.518 0.518 0 0.001 0 0.002 0 0.003v-0zM18.95 16.576l-2.95 0.986-2.95-0.986c-0.049-0.017-0.106-0.027-0.165-0.027-0.226 0-0.419 0.143-0.492 0.343l-0.001 0.004c-0.016 0.048-0.024 0.103-0.024 0.16s0.009 0.112 0.026 0.164l-0.001-0.004 2.074 6.755c0.070 0.212 0.266 0.363 0.498 0.363 0.289 0 0.523-0.234 0.523-0.523 0-0.057-0.009-0.112-0.026-0.164l0.001 0.004-1.782-5.77 2.16 0.72c0.048 0.016 0.103 0.025 0.16 0.025s0.112-0.009 0.164-0.026l-0.004 0.001 2.16-0.72-1.776 5.798c-0.016 0.048-0.025 0.103-0.025 0.16 0 0.289 0.234 0.523 0.523 0.523 0.232 0 0.428-0.151 0.497-0.359l0.001-0.004 2.077-6.749c0.013-0.043 0.020-0.092 0.020-0.142 0-0.232-0.152-0.429-0.362-0.497l-0.004-0.001c-0.048-0.016-0.103-0.024-0.16-0.024s-0.112 0.009-0.164 0.026l0.004-0.001z"></path>
</svg>
