<!-- Generated by IcoMoon.io -->
<svg version="1.1" xmlns="http://www.w3.org/2000/svg" width="32" height="32" viewBox="0 0 32 32">
<title>smart-car</title>
<path d="M27.722 17.936c0-9.376-4.688-9.376-8.205-9.376h-7.037c-3.52 0-8.205 0-8.205 9.376-0.647 0-1.171 0.524-1.171 1.171v0 9.962c-0.001 0.029-0.002 0.063-0.002 0.097 0 1.619 1.312 2.931 2.931 2.931s2.931-1.312 2.931-2.931c0-0.034-0.001-0.068-0.002-0.102l0 0.005v-1.757h14.077v1.757c-0.001 0.029-0.002 0.063-0.002 0.097 0 1.619 1.312 2.931 2.931 2.931s2.931-1.312 2.931-2.931c0-0.034-0.001-0.068-0.002-0.102l0 0.005v-9.962c0 0 0 0 0-0 0-0.647-0.524-1.171-1.171-1.171-0.002 0-0.005 0-0.007 0h0zM12.48 9.731h7.040c2.931 0 7.040 0 7.040 8.205h-21.12c0-8.205 4.112-8.205 7.040-8.205zM7.795 29.069c0 0.972-0.788 1.76-1.76 1.76s-1.76-0.788-1.76-1.76v0-1.757h3.52zM27.722 29.069c0 0.972-0.788 1.76-1.76 1.76s-1.76-0.788-1.76-1.76v0-1.757h3.52zM27.722 26.141h-23.443v-7.040h23.443zM25.376 22.624c0 0.647-0.524 1.171-1.171 1.171s-1.171-0.524-1.171-1.171c0-0.647 0.524-1.171 1.171-1.171s1.171 0.524 1.171 1.171zM8.966 22.624c0 0.647-0.524 1.171-1.171 1.171s-1.171-0.524-1.171-1.171c0-0.647 0.524-1.171 1.171-1.171s1.171 0.524 1.171 1.171zM11.309 24.381h9.382c0.323 0 0.586-0.262 0.586-0.586s-0.262-0.586-0.586-0.586h-9.382c-0.323 0-0.586 0.262-0.586 0.586s0.262 0.586 0.586 0.586v0zM11.309 22.381h9.382c0.306-0.023 0.545-0.277 0.545-0.587s-0.239-0.564-0.543-0.587l-0.002-0h-9.382c-0.306 0.023-0.545 0.277-0.545 0.587s0.239 0.564 0.543 0.587l0.002 0zM21.056 5.152c-1.279-1.003-2.911-1.609-4.684-1.609-1.684 0-3.24 0.546-4.502 1.471l0.021-0.015-0.598-0.838c1.406-1.032 3.171-1.651 5.080-1.651 2.011 0 3.861 0.687 5.329 1.839l-0.019-0.014zM22.672 3.062c-0.021 0.026-0.054 0.043-0.090 0.043-0.027 0-0.051-0.009-0.070-0.024l0 0c-1.687-1.287-3.824-2.062-6.143-2.062-2.198 0-4.234 0.697-5.898 1.882l0.031-0.021c-0.018 0.014-0.040 0.022-0.065 0.022-0.037 0-0.069-0.019-0.088-0.048l-0-0-0.464-0.64c-0.011-0.018-0.018-0.040-0.018-0.063 0-0.041 0.021-0.078 0.052-0.1l0-0c1.798-1.283 4.039-2.051 6.46-2.051 2.553 0 4.906 0.854 6.789 2.292l-0.027-0.020c0.028 0.022 0.045 0.055 0.045 0.093 0 0.026-0.009 0.051-0.023 0.070l0-0zM19.376 7.078c-0.019 0.026-0.049 0.042-0.083 0.042-0.025 0-0.047-0.009-0.065-0.023l0 0c-0.788-0.589-1.781-0.943-2.857-0.943-1.020 0-1.965 0.318-2.743 0.86l0.016-0.010c-0.017 0.014-0.039 0.022-0.063 0.022-0.035 0-0.065-0.017-0.084-0.044l-0-0-0.47-0.64c-0.013-0.018-0.021-0.041-0.021-0.066 0-0.037 0.018-0.071 0.047-0.091l0-0c0.927-0.653 2.080-1.044 3.325-1.044 1.304 0 2.508 0.429 3.478 1.154l-0.015-0.011c0.028 0.021 0.046 0.054 0.046 0.091 0 0.026-0.009 0.050-0.024 0.069l0-0zM21.12 5.069c-0.019 0.025-0.048 0.040-0.082 0.040-0.024 0-0.045-0.008-0.063-0.021l0 0c-1.263-0.965-2.864-1.546-4.601-1.546-1.649 0-3.176 0.524-4.423 1.414l0.023-0.016c-0.017 0.012-0.037 0.019-0.059 0.019-0.035 0-0.066-0.018-0.084-0.044l-0-0-0.474-0.64c-0.012-0.018-0.020-0.040-0.020-0.064 0-0.037 0.018-0.069 0.045-0.090l0-0c1.388-0.993 3.12-1.588 4.991-1.588 1.972 0 3.79 0.661 5.244 1.773l-0.021-0.015c0.025 0.021 0.040 0.053 0.040 0.087 0 0.025-0.008 0.048-0.021 0.067l0-0z"></path>
</svg>
