<!-- Generated by IcoMoon.io -->
<svg version="1.1" xmlns="http://www.w3.org/2000/svg" width="32" height="32" viewBox="0 0 32 32">
<title>sms</title>
<path d="M21.010 3.114h2.147c0.297 0 0.537 0.24 0.537 0.537s-0.24 0.537-0.537 0.537h-2.147c-0.297 0-0.537-0.24-0.537-0.537s0.24-0.537 0.537-0.537zM29.601 0.967h-15.033c-1.059 0-1.934 0.768-2.11 1.777 0.358 0.039 0.712 0.086 1.060 0.148 0.103-0.486 0.533-0.851 1.050-0.851h15.033c0.593 0 1.074 0.481 1.074 1.074v2.147h-11.283c0.479 0.335 0.936 0.688 1.347 1.074h9.936v19.328h-17.181v-2.911c-0.352 0.062-0.711 0.108-1.074 0.147v5.985c0 1.186 0.962 2.147 2.147 2.147h15.033c1.186 0 2.147-0.962 2.147-2.147v-25.77c0-1.186-0.961-2.147-2.147-2.147zM30.674 28.885c0 0.593-0.481 1.074-1.074 1.074h-15.033c-0.593 0-1.074-0.481-1.074-1.074v-2.147h17.18v2.147zM23.158 28.348c0 0.593-0.481 1.074-1.074 1.074s-1.074-0.481-1.074-1.074c0-0.593 0.481-1.074 1.074-1.074s1.074 0.481 1.074 1.074zM21.010 4.189h2.147c0.297 0 0.537-0.24 0.537-0.537s-0.24-0.537-0.537-0.537h-2.147c-0.297 0-0.537 0.24-0.537 0.537s0.24 0.537 0.537 0.537zM19.644 23.909l-1.546-0.205c-0.122-0.017-2.887-0.406-4.626-2.525-0.803 0.139-1.603 0.21-2.383 0.21-6.114 0-11.089-3.888-11.089-8.668s4.975-8.668 11.089-8.668 11.089 3.888 11.089 8.668c0 2.875-1.789 5.52-4.807 7.14 0.108 1.054 0.53 2.016 1.258 2.865l1.015 1.184zM13.982 19.866l0.224 0.312c0.72 1.004 1.748 1.592 2.589 1.928-0.396-0.799-0.61-1.661-0.64-2.577l-0.013-0.384 0.344-0.17c2.818-1.393 4.5-3.732 4.5-6.255 0-4.122-4.44-7.476-9.897-7.476s-9.897 3.354-9.897 7.476 4.441 7.476 9.898 7.476c0.821 0 1.668-0.086 2.517-0.255l0.377-0.075zM5.182 12.476c0-0.811 0.549-1.381 1.317-1.381s1.295 0.57 1.295 1.381c0 0.792-0.505 1.383-1.317 1.383-0.767-0-1.295-0.592-1.295-1.383zM9.728 12.476c0-0.811 0.549-1.381 1.317-1.381s1.295 0.57 1.295 1.381c0 0.792-0.505 1.383-1.317 1.383-0.768-0-1.295-0.592-1.295-1.383zM14.273 12.476c0-0.811 0.549-1.381 1.317-1.381s1.295 0.57 1.295 1.381c0 0.792-0.505 1.383-1.317 1.383-0.768-0-1.295-0.592-1.295-1.383z"></path>
</svg>
