<!-- Generated by IcoMoon.io -->
<svg version="1.1" xmlns="http://www.w3.org/2000/svg" width="32" height="32" viewBox="0 0 32 32">
<title>snacks</title>
<path d="M31.748 8.562c0-0.73 0-1.459 0-2.148 0-0.162-0.122-0.284-0.284-0.284h-2.716v-2.392c0-0.162-0.122-0.284-0.284-0.284h-13.012c-0.162 0-0.284 0.122-0.284 0.284v2.392h-2.432c-0.162 0-0.284 0.122-0.284 0.284v4.135c-1.459-0.527-3-0.689-4.58-0.446-2.635 0.405-4.742 1.743-6.283 4.013-2.675 3.891-1.905 9.161 1.784 12.282 1.662 1.419 3.648 2.148 5.837 2.148 0.446 0 0.892-0.041 1.338-0.081 2.513-0.324 4.621-1.581 6.242-3.729l0.567 3.121c0.041 0.122 0.162 0.243 0.284 0.243h9.485c0.122 0 0.243-0.081 0.284-0.203v-0.041c0-0.041 0.041-0.122 0.041-0.162 0.324-1.945 0.649-3.932 1.013-5.878l0.608-3.486c0.122-0.689 0.243-1.419 0.365-2.108l0.162-0.932c0.243-1.378 0.486-2.837 0.73-4.256v0c0.041 0 0.041 0 0.081 0 0.243 0 0.486 0 0.689 0 0.122 0 0.243 0 0.324 0 0.162 0 0.284-0.122 0.284-0.284 0.041-0.73 0.041-1.459 0.041-2.189zM15.777 4.022h12.404v2.108h-12.404v-2.108zM2.32 14.237c0.041-0.041 0.041-0.122 0.041-0.162 1.419-1.905 3.324-3.040 5.634-3.405 2.473-0.365 4.702 0.203 6.85 1.865 4.256 3.364 2.229 7.053 2.148 7.215-1.257 2.067-3.121 3.283-5.634 3.729-1.378 0.243-2.797 0.122-4.378-0.405-0.081-0.041-0.162 0-0.243 0.041s-0.122 0.122-0.122 0.203c0 0.081-0.041 0.122-0.041 0.203 0 0.122-0.041 0.243-0.041 0.324-0.041 0.284-0.243 0.405-0.567 0.405-0.243 0-0.405-0.203-0.446-0.446 0-0.486 0-0.973 0-1.5 0-0.122 0-0.324-0.162-0.486-0.122-0.122-0.324-0.162-0.405-0.162-0.041 0-0.041 0-0.041 0-0.041 0-0.081 0-0.122 0-0.243 0-0.649 0-0.811 0.527l-0.041 0.041c-0.041 0-0.081 0-0.081 0-0.122-0.081-0.203-0.203-0.243-0.284-0.041-0.203-0.041-0.405-0.041-0.608 0-0.122 0-0.243 0-0.365 0-0.162-0.041-0.324-0.162-0.446-0.567-0.608-0.932-1.378-1.216-2.392-0.122-0.446-0.203-0.892-0.203-1.297 0-0.364 0.203-2.31 0.324-2.594zM13.467 10.994h1.054l0.122 0.689c-0.406-0.284-0.811-0.487-1.176-0.689zM16.831 23.762c-0.041 0.041-0.041 0.041-0.081 0.081-1.622 2.392-3.648 3.729-6.243 4.054s-4.864-0.324-6.729-1.905c-3.202-2.716-4.054-7.134-2.189-10.661-0.081 0.649-0.122 1.297-0.122 1.459 0.041 0.446 0.081 0.932 0.243 1.419 0.284 1.135 0.73 1.945 1.338 2.635 0 0 0 0.041 0 0.122 0 0.122 0 0.203 0 0.324 0 0.243 0 0.486 0.041 0.73 0.041 0.284 0.284 0.567 0.527 0.689 0.162 0.122 0.405 0.122 0.608 0.041s0.324-0.203 0.405-0.405c0.041-0.122 0.041-0.122 0.284-0.122 0.041 0 0.081 0 0.122 0v0c0 0.567 0 1.054 0 1.54 0 0.567 0.446 1.013 0.973 1.013 0.567 0.041 1.054-0.324 1.176-0.851 0-0.081 0.041-0.122 0.041-0.203 1.54 0.446 2.959 0.567 4.337 0.324 2.635-0.486 4.662-1.824 6.040-4.013 0-0.041 0.162-0.324 0.324-0.811-0.244 2.311-1.095 4.499-1.095 4.54v0zM29.032 15.209l-0.162 0.932c-0.122 0.689-0.243 1.419-0.365 2.108l-0.608 3.486c-0.122 0.73-0.243 1.419-0.365 2.148h-4.378l0.932-9.607h5.107c-0.041 0.284-0.122 0.608-0.162 0.932zM29.275 13.669h-5.472c-0.162 0-0.284 0.122-0.284 0.284l-0.973 10.215c0 0.081 0 0.162 0.081 0.243 0.041 0.081 0.122 0.081 0.203 0.081h4.621c-0.162 1.013-0.365 2.067-0.527 3.081h-8.998l-0.608-3.445c0.041-0.041 0.041-0.081 0.081-0.122 0-0.041 0.446-1.094 0.73-2.513 0.405-1.905 0.405-3.567 0.041-4.823 0-0.041-0.041-0.122-0.081-0.162-0.324-1.945-1.621-3.405-2.756-4.337l-0.203-1.176 14.633 0.081c-0.162 0.851-0.324 1.743-0.487 2.594zM31.1 10.467c-0.243 0-0.446 0-0.649 0-0.081 0-0.203 0-0.365 0.041l-17.065-0.081v-3.689h2.432c0.041 0 0.081 0 0.081 0h15.606c0 0.608 0 1.257 0 1.865s0 1.257 0 1.865c-0 0-0 0-0.041 0zM6.373 19.263c0 1.621 1.297 2.959 2.919 2.959v0c1.662 0 2.919-1.297 2.919-2.919 0-0.77-0.324-1.54-0.851-2.067-0.567-0.567-1.297-0.851-2.067-0.851v0c-1.581-0.041-2.919 1.297-2.919 2.878zM9.292 16.912v0c0.608 0 1.216 0.243 1.662 0.689s0.689 1.054 0.689 1.662c0 1.297-1.013 2.351-2.351 2.351v0c-1.297 0-2.351-1.054-2.351-2.351 0-1.257 1.094-2.351 2.351-2.351zM24.127 4.752h-3.486c-0.162 0-0.284 0.122-0.284 0.284s0.122 0.284 0.284 0.284h3.486c0.162 0 0.284-0.122 0.284-0.284s-0.122-0.284-0.284-0.284zM14.481 16.588c0.041 0.041 0.122 0.081 0.203 0.081s0.162-0.041 0.203-0.081c0.122-0.122 0.122-0.284 0-0.405l-0.73-0.73c-0.122-0.122-0.284-0.122-0.405 0s-0.122 0.284 0 0.405l0.73 0.73zM10.873 13.953c0.081 0 0.162-0.041 0.203-0.081l0.567-0.567c0.122-0.122 0.122-0.284 0-0.405s-0.284-0.122-0.405 0l-0.567 0.567c-0.122 0.122-0.122 0.284 0 0.405 0.081 0.040 0.163 0.081 0.203 0.081zM7.671 13.507c0.041 0.081 0.162 0.122 0.243 0.122 0.041 0 0.122 0 0.162-0.041 0.122-0.081 0.162-0.284 0.081-0.405l-0.567-0.892c-0.081-0.122-0.284-0.162-0.405-0.081s-0.162 0.284-0.081 0.405l0.567 0.892zM5.36 15.736h1.054c0.162 0 0.284-0.122 0.284-0.284s-0.122-0.284-0.284-0.284h-1.054c-0.162 0-0.284 0.122-0.284 0.284s0.122 0.284 0.284 0.284zM3.901 17.763c0.041 0.041 0.122 0.081 0.203 0.081s0.162-0.041 0.203-0.081c0.122-0.122 0.122-0.284 0-0.405l-0.608-0.608c-0.122-0.122-0.284-0.122-0.405 0s-0.122 0.284 0 0.405l0.608 0.608zM13.062 21.209c0.081 0 0.162-0.041 0.203-0.081l0.811-0.811c0.122-0.122 0.122-0.284 0-0.405s-0.284-0.122-0.405 0l-0.811 0.811c-0.122 0.122-0.122 0.284 0 0.405 0.041 0.040 0.122 0.081 0.203 0.081z"></path>
</svg>
