<!-- Generated by IcoMoon.io -->
<svg version="1.1" xmlns="http://www.w3.org/2000/svg" width="39" height="32" viewBox="0 0 39 32">
<title>social-login-icons-r2</title>
<path d="M26.641 20.608c-0.545 0.248-1.177 0.429-1.84 0.511l-0.032 0.003c0.674-0.41 1.18-1.037 1.427-1.782l0.007-0.023c-0.599 0.361-1.295 0.635-2.038 0.785l-0.042 0.007c-0.597-0.636-1.442-1.032-2.38-1.032-1.801 0-3.262 1.46-3.262 3.262v0c0 0.001 0 0.003 0 0.005 0 0.262 0.031 0.517 0.088 0.762l-0.004-0.022c-2.717-0.141-5.107-1.432-6.709-3.392l-0.013-0.017c-0.278 0.473-0.442 1.041-0.442 1.648 0 1.116 0.555 2.103 1.404 2.7l0.011 0.007c-0.557-0.036-1.072-0.182-1.534-0.418l0.022 0.010v0.040c0.016 1.578 1.14 2.89 2.63 3.196l0.021 0.004c-0.252 0.073-0.541 0.114-0.839 0.114-0.214 0-0.424-0.021-0.626-0.062l0.020 0.003c0.431 1.305 1.626 2.236 3.043 2.266l0.003 0c-1.105 0.87-2.517 1.396-4.051 1.396-0.273 0-0.542-0.017-0.806-0.049l0.032 0.003c1.411 0.919 3.138 1.466 4.992 1.466 0.003 0 0.006 0 0.009 0h-0c6 0 9.28-4.97 9.28-9.282 0-0.141 0-0.282 0-0.421 0.642-0.467 1.183-1.027 1.615-1.666l0.015-0.023zM14.010 0h-13.45c-0.309 0-0.56 0.251-0.56 0.56v0 13.45c0 0.001 0 0.001 0 0.002 0 0.308 0.25 0.558 0.558 0.558 0.001 0 0.001 0 0.002 0h7.027v-5.599h-2.055v-2.314h2.055v-1.714c0-1.986 1.238-3.062 3.047-3.062 0.026-0 0.057-0 0.088-0 0.613 0 1.218 0.031 1.815 0.092l-0.075-0.006v2.076h-1.255c-0.985 0.002-1.175 0.461-1.175 1.133v1.482h2.338l-0.305 2.314h-2.034v5.599h3.97c0.309 0 0.56-0.251 0.56-0.56v0-13.45c0 0 0-0 0-0 0-0.307-0.246-0.556-0.552-0.56h-0zM24.023 13.854h3.195v-9.592h-3.195zM35.74 4.262c-2.601 0-3.195 1.598-3.195 1.598v-1.598h-3.195v9.592h3.197v-5.332s-0.048-1.773 1.742-1.773c1.101 0 1.453 0.587 1.453 1.773v5.332h3.197v-5.332c0-2.708-1.194-4.26-3.199-4.26zM25.621 0c-0.001 0-0.001 0-0.002 0-0.883 0-1.6 0.716-1.6 1.6s0.716 1.6 1.6 1.6c0.883 0 1.6-0.716 1.6-1.6 0-0.001 0-0.001 0-0.002v0c0-0.882-0.715-1.598-1.598-1.598v0z"></path>
</svg>
