<!-- Generated by IcoMoon.io -->
<svg version="1.1" xmlns="http://www.w3.org/2000/svg" width="32" height="32" viewBox="0 0 32 32">
<title>solution-accelerator</title>
<path d="M8.798 11.012h1.634v2.476h1.636v-2.476h1.634l-2.452-3.635zM15.11 13.488h1.636v-4.123h1.633l-2.452-3.634-2.452 3.634h1.634zM19.939 13.488h1.636v-5.644h1.634l-2.452-3.635-2.452 3.635h1.633zM9.756 21.734c1.18 0 2.138-0.957 2.138-2.138h-2.138v-2.138c-1.18 0-2.138 0.957-2.138 2.138s0.957 2.138 2.138 2.138zM10.196 17.019v2.138h2.138c0-1.181-0.957-2.138-2.138-2.138zM9.756 23.018c-1.18 0-2.138 0.957-2.138 2.138s0.957 2.138 2.138 2.138c1.18 0 2.138-0.957 2.138-2.138h-2.138v-2.138zM10.196 22.578v2.138h2.138c0-1.181-0.957-2.138-2.138-2.138zM13.938 18.36h10.444v0.7h-10.444v-0.7zM13.938 20.114h10.444v0.7h-10.444v-0.7zM13.938 23.715h10.444v0.7h-10.444v-0.7zM13.938 25.469h10.444v0.7h-10.444v-0.7zM25.615 0h-19.231c-1.317 0-2.385 1.068-2.385 2.385v27.231c0 1.317 1.068 2.385 2.385 2.385h19.231c1.317 0 2.385-1.068 2.385-2.385v-27.231c-0-1.317-1.068-2.385-2.385-2.385zM27.3 29.615c0 0.929-0.756 1.684-1.684 1.684h-19.231c-0.929 0-1.684-0.756-1.684-1.684v-27.231c0-0.929 0.756-1.684 1.684-1.684h19.231c0.929 0 1.684 0.756 1.684 1.684v27.231z"></path>
</svg>
