<!-- Generated by IcoMoon.io -->
<svg version="1.1" xmlns="http://www.w3.org/2000/svg" width="32" height="32" viewBox="0 0 32 32">
<title>solution</title>
<path d="M18.827 25.126c-0.139 0.043-0.246 0.152-0.287 0.292l-0.974 3.299c-0.043 0.049-0.076 0.105-0.094 0.164l-2.993-0.036c-0.008-0.028-0.019-0.054-0.032-0.078l-0.988-3.35c-0.041-0.14-0.148-0.248-0.287-0.292-0.538-0.167-1.081-0.396-1.615-0.678-0.129-0.068-0.283-0.067-0.411 0.002l-3.032 1.65c-0.065 0.004-0.127 0.020-0.182 0.050l-2.091-2.142c0.013-0.025 0.024-0.050 0.032-0.076l1.68-3.085c0.069-0.127 0.071-0.282 0.003-0.41-0.281-0.533-0.507-1.074-0.673-1.608-0.043-0.138-0.153-0.246-0.292-0.287l-3.308-0.976c-0.049-0.044-0.105-0.076-0.165-0.094l0.035-2.993c0.027-0.008 0.053-0.019 0.078-0.032l3.359-0.991c0.139-0.041 0.249-0.148 0.292-0.287 0.166-0.534 0.392-1.074 0.673-1.607 0.068-0.129 0.067-0.283-0.003-0.41l-1.653-3.037c-0.004-0.065-0.020-0.129-0.050-0.184l2.143-2.091c0.024 0.013 0.050 0.024 0.075 0.032l3.083 1.678c0.127 0.070 0.282 0.071 0.411 0.003 0.562-0.297 1.136-0.534 1.706-0.705 0.142-0.043 0.253-0.154 0.293-0.297l0.941-3.294c0.032-0.044 0.057-0.092 0.071-0.14l2.886 0.033c0.008 0.026 0.018 0.052 0.030 0.075l0.951 3.328c0.041 0.142 0.151 0.254 0.292 0.296 0.605 0.182 1.21 0.435 1.796 0.752 0.131 0.071 0.288 0.070 0.417-0.002l3.004-1.669c0.054-0.008 0.106-0.025 0.15-0.049l2.017 2.064c-0.013 0.025-0.025 0.050-0.033 0.076l-1.686 3.035c-0.072 0.129-0.073 0.287-0.002 0.417 0.316 0.584 0.568 1.187 0.75 1.793 0.043 0.142 0.154 0.252 0.296 0.292l3.298 0.943c0.043 0.032 0.090 0.056 0.141 0.071l-0.032 2.885c-0.027 0.008-0.052 0.018-0.077 0.030l-3.331 0.952c-0.142 0.041-0.254 0.151-0.296 0.292-0.099 0.329-0.222 0.656-0.362 0.981l0.654 0.654c0.179-0.382 0.34-0.768 0.468-1.157l3.184-0.91c0.035-0.010 0.069-0.025 0.099-0.043 0.34-0.14 0.561-0.462 0.561-0.832v-2.853c0-0.369-0.221-0.691-0.559-0.831-0.031-0.019-0.065-0.033-0.101-0.044l-3.184-0.91c-0.168-0.512-0.38-1.020-0.635-1.516l1.612-2.902c0.019-0.033 0.032-0.068 0.040-0.103 0.14-0.339 0.068-0.722-0.193-0.982l-2.017-2.017c-0.261-0.262-0.644-0.334-0.983-0.193-0.035 0.009-0.069 0.023-0.102 0.041l-2.899 1.611c-0.498-0.256-1.008-0.469-1.519-0.637l-0.909-3.181c-0.010-0.035-0.024-0.067-0.043-0.098-0.14-0.34-0.462-0.562-0.832-0.562h-2.854c-0.367 0-0.688 0.219-0.829 0.556-0.019 0.032-0.035 0.067-0.045 0.104l-0.908 3.18c-0.478 0.156-0.956 0.354-1.426 0.59l-2.954-1.608c-0.033-0.018-0.069-0.031-0.104-0.040-0.34-0.135-0.725-0.059-0.988 0.205l-2.083 2.082c-0.263 0.264-0.34 0.649-0.205 0.987 0.009 0.036 0.022 0.071 0.041 0.105l1.609 2.956c-0.22 0.439-0.405 0.882-0.555 1.323l-3.219 0.95c-0.036 0.011-0.071 0.027-0.102 0.045-0.336 0.143-0.555 0.469-0.555 0.843v2.945c0 0.372 0.217 0.698 0.551 0.842 0.032 0.020 0.067 0.035 0.105 0.046l3.22 0.949c0.149 0.441 0.335 0.884 0.555 1.323l-1.609 2.955c-0.018 0.033-0.031 0.067-0.040 0.102-0.137 0.34-0.061 0.726 0.204 0.99l2.082 2.083c0.263 0.263 0.648 0.34 0.987 0.205 0.036-0.009 0.071-0.022 0.105-0.041l2.949-1.605c0.441 0.221 0.887 0.409 1.332 0.56l0.947 3.21c0.011 0.037 0.027 0.071 0.046 0.102 0.144 0.336 0.47 0.554 0.843 0.554h2.945c0.373 0 0.699-0.219 0.843-0.554 0.019-0.031 0.035-0.066 0.045-0.102l0.948-3.21c0.271-0.092 0.542-0.201 0.811-0.319l-0.668-0.668c-0.207 0.083-0.415 0.166-0.624 0.231zM16 22.924c-3.819 0-6.925-3.106-6.925-6.925s3.106-6.924 6.925-6.924c3.818 0 6.924 3.106 6.924 6.924 0 0.569-0.076 1.119-0.207 1.648l0.708 0.708c0.237-0.744 0.366-1.535 0.366-2.357 0-4.297-3.496-7.793-7.793-7.793s-7.793 3.496-7.793 7.793c0 4.297 3.496 7.793 7.793 7.793 0.715 0 1.404-0.105 2.062-0.286l-0.716-0.716c-0.436 0.087-0.885 0.134-1.346 0.134zM26.993 28.191c-0.955 0.955-2.105-0.278-2.105-0.278l-7.415-7.415c-0.054-0.054-0.132-0.078-0.206-0.059-0.507 0.128-2.587 0.523-4.214-1.104-1.436-1.436-1.462-3.718-1.397-4.694 0.012-0.19 0.243-0.272 0.378-0.138l1.933 1.933c0 0 0.712 0.757 1.469 0l1.112-1.112c0.757-0.757 0-1.469 0-1.469l-1.933-1.933c-0.134-0.134-0.052-0.365 0.138-0.378 0.977-0.065 3.259-0.039 4.694 1.397 1.627 1.627 1.232 3.707 1.104 4.214-0.019 0.074 0.005 0.152 0.059 0.206l7.415 7.415c0 0 1.233 1.15 0.278 2.105l-1.31 1.31z"></path>
</svg>
