<!-- Generated by IcoMoon.io -->
<svg version="1.1" xmlns="http://www.w3.org/2000/svg" width="32" height="32" viewBox="0 0 32 32">
<title>solution-brief</title>
<path d="M28.196 0h-24.392c-1.104 0-2 0.896-2 2v28c0 1.105 0.896 2 2 2h24.391c1.105 0 2-0.895 2-2v-28c0-1.104-0.894-2-2-2zM29.048 29.648c0 0.579-0.468 1.047-1.047 1.047h-23.607c-0.579 0-1.047-0.468-1.047-1.047v-27.216c0-0.579 0.468-1.047 1.047-1.047h23.607c0.579 0 1.047 0.468 1.047 1.047v27.216zM25.621 20.993l-4.574 4.574-2.239-2.278c-0.268-0.268-0.702-0.268-0.97 0s-0.268 0.702 0 0.97l2.721 2.766c0.268 0.268 0.702 0.268 0.97 0l5.063-5.063c0.268-0.268 0.268-0.702 0-0.97s-0.702-0.268-0.97 0zM25.457 17.266h-18.915c-0.346 0-0.626-0.28-0.626-0.626 0-0.345 0.28-0.626 0.626-0.626h18.915c0.346 0 0.626 0.281 0.626 0.626s-0.28 0.626-0.626 0.626zM25.457 12.26h-18.915c-0.346 0-0.626-0.28-0.626-0.626 0-0.345 0.28-0.626 0.626-0.626h18.915c0.346 0 0.626 0.281 0.626 0.626s-0.28 0.626-0.626 0.626zM25.457 7.255h-18.915c-0.346 0-0.626-0.28-0.626-0.626s0.28-0.626 0.626-0.626h18.915c0.346 0 0.626 0.28 0.626 0.626s-0.28 0.626-0.626 0.626z"></path>
</svg>
