<!-- Generated by IcoMoon.io -->
<svg version="1.1" xmlns="http://www.w3.org/2000/svg" width="32" height="32" viewBox="0 0 32 32">
<title>speedometer</title>
<path d="M7.244 20.328l-1.964 1.134c-0.271 0.156-0.364 0.503-0.208 0.774s0.503 0.364 0.775 0.208l1.964-1.134c0.271-0.157 0.364-0.504 0.208-0.775s-0.503-0.363-0.775-0.207zM6.803 16c0-0.313-0.254-0.567-0.567-0.567h-2.268c-0.313 0-0.567 0.254-0.567 0.567s0.254 0.567 0.567 0.567h2.268c0.313-0 0.567-0.254 0.567-0.567zM7.811 10.69l-1.964-1.134c-0.271-0.156-0.618-0.063-0.775 0.207s-0.064 0.618 0.208 0.775l1.964 1.134c0.271 0.156 0.618 0.063 0.775-0.208s0.064-0.617-0.208-0.774zM24.504 11.673l1.964-1.134c0.271-0.157 0.364-0.504 0.208-0.775s-0.503-0.363-0.775-0.207l-1.964 1.134c-0.271 0.156-0.364 0.503-0.208 0.774s0.503 0.364 0.775 0.208zM15.874 6.929c0.313 0 0.567-0.254 0.567-0.567v-2.268c0-0.312-0.254-0.567-0.567-0.567s-0.567 0.255-0.567 0.567v2.268c0 0.314 0.254 0.567 0.567 0.567zM26.468 21.462l-1.964-1.134c-0.271-0.156-0.618-0.064-0.775 0.207s-0.064 0.618 0.208 0.775l1.964 1.134c0.271 0.156 0.618 0.063 0.775-0.208s0.064-0.617-0.208-0.774zM15.874 0.126c-8.767 0-15.874 7.108-15.874 15.874 0 8.767 7.107 15.874 15.874 15.874s15.874-7.106 15.874-15.874c0-8.767-7.107-15.874-15.874-15.874zM15.874 30.74c-3.352 0-6.433-1.131-8.909-3.016 2.264-2.324 5.408-3.787 8.909-3.787s6.645 1.463 8.909 3.787c-2.477 1.885-5.557 3.016-8.909 3.016zM25.668 26.995c-2.475-2.575-5.94-4.192-9.794-4.192s-7.319 1.617-9.794 4.192c-3.028-2.7-4.946-6.619-4.946-10.995 0-8.141 6.599-14.74 14.74-14.74s14.74 6.599 14.74 14.74c-0 4.376-1.918 8.296-4.947 10.995zM27.78 15.433h-2.268c-0.313 0-0.567 0.254-0.567 0.567s0.254 0.567 0.567 0.567h2.268c0.313 0 0.567-0.254 0.567-0.567s-0.254-0.567-0.567-0.567zM10.412 5.407c-0.157-0.271-0.503-0.364-0.775-0.208-0.271 0.157-0.364 0.504-0.208 0.775l1.134 1.964c0.157 0.27 0.503 0.363 0.775 0.207s0.364-0.504 0.208-0.774l-1.134-1.964zM22.11 5.198c-0.271-0.156-0.618-0.063-0.775 0.208l-1.134 1.964c-0.157 0.27-0.064 0.617 0.208 0.774s0.618 0.063 0.775-0.207l1.134-1.964c0.157-0.271 0.064-0.618-0.208-0.775zM21.154 9.919l-4.135 4.135c-0.337-0.199-0.725-0.321-1.145-0.321-1.252 0-2.268 1.015-2.268 2.268s1.015 2.268 2.268 2.268 2.268-1.015 2.268-2.268c0-0.42-0.122-0.807-0.321-1.145l4.135-4.135c0.222-0.222 0.222-0.581 0-0.802-0.221-0.222-0.58-0.222-0.802-0zM15.874 17.134c-0.626 0-1.134-0.507-1.134-1.134s0.508-1.134 1.134-1.134 1.134 0.508 1.134 1.134c0 0.627-0.508 1.134-1.134 1.134z"></path>
</svg>
