<!-- Generated by IcoMoon.io -->
<svg version="1.1" xmlns="http://www.w3.org/2000/svg" width="32" height="32" viewBox="0 0 32 32">
<title>speed-stopwatch</title>
<path d="M20.561 14.373l-2.258 2.258-0.212-0.112c-0.354-0.186-0.743-0.279-1.131-0.279s-0.777 0.093-1.131 0.279c-1.184 0.624-1.64 2.094-1.017 3.279s2.094 1.64 3.279 1.017c1.184-0.624 1.64-2.094 1.017-3.279l-0.112-0.212 2.258-2.258c0.191-0.191 0.191-0.502 0-0.693-0.185-0.184-0.508-0.185-0.693 0zM18.408 18.666c-0.002 0.793-0.649 1.44-1.442 1.442-0.797 0-1.444-0.647-1.444-1.443s0.647-1.443 1.443-1.443c0.796 0 1.443 0.647 1.443 1.443v0.001zM10.696 24.452c-0.125 0-0.248 0.048-0.343 0.142-0.191 0.191-0.191 0.502 0 0.693 1.765 1.77 4.113 2.745 6.611 2.746h0.001c0.005 0 0.010 0 0.015 0 2.497 0 4.846-0.971 6.615-2.734 1.773-1.767 2.751-4.119 2.755-6.622s-0.967-4.857-2.734-6.63c-1.767-1.773-4.119-2.751-6.622-2.755-0.005 0-0.010 0-0.015 0-2.467 0-4.882 1-6.627 2.746-0.191 0.191-0.191 0.502 0 0.693s0.502 0.191 0.693 0c3.271-3.276 8.597-3.281 11.873-0.010 1.587 1.584 2.462 3.692 2.464 5.935s-0.87 4.352-2.454 5.939c-1.585 1.587-3.692 2.463-5.935 2.465-0.002 0-0.005 0-0.007 0-2.24 0-4.346-0.871-5.932-2.454-0.102-0.102-0.231-0.152-0.36-0.152zM3.959 18.44c0 0.27 0.219 0.489 0.489 0.489h5.653c0.27 0 0.489-0.219 0.489-0.489s-0.219-0.489-0.489-0.489h-5.653c-0.269 0-0.489 0.219-0.489 0.489zM8.126 21.904h-5.653c-0.27 0-0.489 0.219-0.489 0.489s0.219 0.489 0.489 0.489h5.653c0.27 0 0.489-0.219 0.489-0.489s-0.219-0.489-0.488-0.489zM2.47 14.981h5.656c0.27 0 0.489-0.219 0.489-0.489s-0.219-0.489-0.489-0.489h-5.653c-0.268 0-0.488 0.218-0.489 0.487l-0 0.057c0.028 0.243 0.235 0.433 0.486 0.433zM27.205 10.983l-0.169-0.225 0.825-0.833-0.011-0.008 0.282-0.282c0.355-0.355 0.55-0.827 0.55-1.33s-0.196-0.974-0.552-1.329c-0.355-0.355-0.827-0.55-1.328-0.55-0.001 0-0.001 0-0.001 0-0.502 0-0.974 0.196-1.329 0.551l-1.166 1.166-0.223-0.149c-1.508-1.007-3.179-1.671-4.966-1.973l-0.271-0.046v-1.677l0.296-0.027c0.932-0.085 1.65-0.825 1.706-1.76 0.062-1.035-0.73-1.927-1.765-1.989l-4.255 0.001c-0.915 0.055-1.655 0.773-1.74 1.705-0.046 0.5 0.106 0.988 0.428 1.374s0.774 0.624 1.274 0.669l0.296 0.027v1.69l-0.271 0.046c-2.685 0.458-5.11 1.729-7.016 3.676-0.092 0.094-0.142 0.218-0.141 0.349s0.054 0.254 0.147 0.345c0.094 0.092 0.223 0.14 0.348 0.14 0.131-0.001 0.254-0.054 0.346-0.147 1.897-1.944 4.429-3.185 7.129-3.494 0.248-0.028 0.434-0.236 0.434-0.485v-2.639c0-0.27-0.219-0.489-0.489-0.489h-0.746c-0.498 0-0.902-0.405-0.902-0.902-0-0.241 0.094-0.468 0.264-0.638s0.397-0.264 0.638-0.264h4.275c0.497 0 0.902 0.405 0.903 0.902s-0.405 0.903-0.903 0.903h-0.746c-0.277 0.004-0.493 0.227-0.489 0.497v2.631c0.001 0.249 0.188 0.457 0.436 0.484 2.087 0.236 4.078 1.026 5.757 2.285 0.194 0.145 0.469 0.126 0.64-0.045l1.476-1.476c0.357-0.323 0.877-0.324 1.223-0.011 0.179 0.162 0.284 0.383 0.296 0.624s-0.070 0.472-0.232 0.65l-1.431 1.432c-0.18 0.179-0.192 0.47-0.028 0.663 4.143 4.904 3.657 12.115-1.107 16.418-4.841 4.373-12.339 3.993-16.713-0.849-0.093-0.098-0.22-0.148-0.348-0.148-0.113 0-0.228 0.039-0.321 0.12-0.204 0.176-0.227 0.485-0.051 0.689 2.411 2.679 5.865 4.217 9.476 4.217 0.296 0.001 0.598-0.009 0.901-0.029 2.471-0.17 4.826-1.046 6.809-2.533 5.649-4.239 6.795-12.283 2.557-17.932z"></path>
</svg>
