<!-- Generated by IcoMoon.io -->
<svg version="1.1" xmlns="http://www.w3.org/2000/svg" width="32" height="32" viewBox="0 0 32 32">
<title>spotlight</title>
<path d="M31.294 30.864h-2.422v-1.286l0.87-0.643c0.795-0.568 1.325-1.4 1.476-2.346s-0.038-1.93-0.605-2.686l-1.816-2.573 0.076-0.038c0.189-0.114 0.227-0.341 0.076-0.53-0.114-0.189-0.341-0.227-0.53-0.076l-1.93 1.362-3.897-10.066 8.022-7c0.151-0.151 0.189-0.378 0.038-0.53s-0.378-0.189-0.53-0.038l-7.833 6.849-4.162-10.633c-0.076-0.189-0.303-0.303-0.492-0.227s-0.303 0.303-0.227 0.492l4.238 10.898-5.827 5.108-5.827-5.109 4.238-10.898c0.076-0.189-0.038-0.416-0.227-0.492s-0.416 0.038-0.492 0.227l-4.163 10.633-7.795-6.849c-0.151-0.151-0.378-0.114-0.53 0.038s-0.114 0.378 0.038 0.53l8.022 7-3.897 10.065-1.93-1.362c-0.189-0.114-0.416-0.076-0.53 0.076-0.114 0.189-0.076 0.416 0.076 0.53l0.076 0.038-1.816 2.573c-0.568 0.795-0.757 1.741-0.605 2.686s0.681 1.779 1.476 2.346l0.87 0.643v1.286h-2.421c-0.227 0-0.378 0.151-0.378 0.378s0.151 0.379 0.378 0.379h5.638c0.227 0 0.378-0.151 0.378-0.378s-0.151-0.378-0.378-0.378h-2.459v-0.795c0.492 0.227 1.022 0.341 1.514 0.341 1.135 0 2.27-0.53 2.952-1.514l1.816-2.573 0.076 0.038c0.076 0.038 0.151 0.076 0.227 0.076 0.114 0 0.227-0.038 0.303-0.151 0.114-0.189 0.076-0.416-0.076-0.53l-0.378-0.265-1.552-1.097 7.379-6.471 7.417 6.433-1.552 1.097-0.378 0.265c-0.189 0.114-0.227 0.341-0.076 0.53 0.076 0.114 0.189 0.151 0.303 0.151 0.076 0 0.151-0.038 0.227-0.076l0.076-0.038 1.816 2.573c0.719 0.984 1.816 1.514 2.952 1.514 0.53 0 1.059-0.114 1.552-0.341v0.795h-2.422c-0.227 0-0.378 0.151-0.378 0.378s0.151 0.378 0.378 0.378h5.638c0.227 0 0.378-0.151 0.378-0.378s-0.227-0.341-0.454-0.341zM7.417 28.442c-0.908 1.286-2.686 1.589-4.011 0.681l-1.097-0.757c-0.643-0.454-1.059-1.097-1.173-1.854s0.038-1.514 0.492-2.157l1.816-2.573 5.752 4.087-1.779 2.573zM7.833 23.901l-1.022-0.719-0.984-0.681 3.898-9.952 5.563 4.881-7.455 6.471zM16.423 17.393l5.563-4.882 3.898 9.952-0.984 0.719-1.022 0.719-7.455-6.509zM24.218 28.442l-1.816-2.573 5.752-4.087 1.816 2.573c0.454 0.643 0.605 1.4 0.492 2.157s-0.53 1.4-1.173 1.854l-1.097 0.757c-1.249 0.908-3.027 0.605-3.973-0.681z"></path>
</svg>
