<!-- Generated by IcoMoon.io -->
<svg version="1.1" xmlns="http://www.w3.org/2000/svg" width="32" height="32" viewBox="0 0 32 32">
<title>sso</title>
<path d="M28.129 9.787c0.063 0 0.125-0.002 0.188-0.006 0.812-0.050 1.556-0.413 2.095-1.022s0.808-1.392 0.758-2.204c-0.098-1.603-1.432-2.859-3.037-2.859-0.063 0-0.125 0.002-0.189 0.006-1.676 0.103-2.956 1.55-2.853 3.226 0.030 0.49 0.177 0.947 0.41 1.346l-1.984 1.617c-1.53-1.851-3.843-3.032-6.426-3.032-2.279 0-4.347 0.92-5.853 2.407l-3.494-3.26c0.534-0.728 0.744-1.685 0.483-2.62-0.366-1.312-1.572-2.227-2.932-2.227v0c-0.276 0-0.552 0.038-0.819 0.112-0.784 0.218-1.435 0.729-1.834 1.438s-0.499 1.53-0.28 2.314c0.366 1.311 1.572 2.227 2.932 2.227 0.276 0 0.552-0.038 0.819-0.112 0.361-0.101 0.687-0.266 0.973-0.475l3.529 3.292c-1.162 1.433-1.859 3.256-1.859 5.241 0 1.976 0.693 3.793 1.846 5.223l-5.107 4.162c-0.543-0.497-1.264-0.8-2.051-0.8-0.063 0-0.125 0.002-0.188 0.006-1.676 0.103-2.956 1.55-2.853 3.226 0.098 1.603 1.432 2.859 3.037 2.859 0.063 0 0.125-0.002 0.188-0.006 0.812-0.050 1.556-0.413 2.095-1.022s0.808-1.392 0.758-2.204c-0.030-0.485-0.174-0.938-0.404-1.335l5.146-4.195c1.508 1.496 3.581 2.422 5.868 2.422 2.191 0 4.186-0.851 5.676-2.239l2.030 1.894c-0.486 0.716-0.668 1.632-0.418 2.53 0.366 1.311 1.572 2.227 2.932 2.227 0.276 0 0.552-0.038 0.819-0.112 0.784-0.218 1.435-0.729 1.834-1.438s0.499-1.53 0.28-2.314c-0.366-1.311-1.572-2.227-2.932-2.227v0c-0.276 0-0.552 0.038-0.819 0.112-0.4 0.111-0.758 0.299-1.065 0.541l-2.019-1.883c1.256-1.46 2.017-3.356 2.017-5.428 0-1.68-0.501-3.244-1.359-4.554l2.019-1.646c0.543 0.492 1.259 0.792 2.042 0.792zM5.296 6.367c-1.219 0-2.207-0.988-2.207-2.207s0.988-2.207 2.207-2.207 2.208 0.988 2.208 2.207-0.989 2.207-2.208 2.207zM3.453 29.025c-1.219 0-2.207-0.988-2.207-2.208s0.988-2.207 2.207-2.207 2.207 0.988 2.207 2.207c0 1.219-0.988 2.208-2.207 2.208zM27.324 22.67c1.219 0 2.207 0.988 2.207 2.207s-0.988 2.207-2.207 2.207c-1.219 0-2.207-0.988-2.207-2.207s0.988-2.207 2.207-2.207zM24.499 15.195c0 1.83-0.665 3.504-1.765 4.796v0c-0.094 0.11-0.191 0.218-0.291 0.323-0.012 0.013-0.024 0.025-0.036 0.038-0.022 0.022-0.045 0.043-0.066 0.065-1.232-1.053-2.626-1.516-2.943-1.611-0.925-0.776-0.55-1.64 0.125-2.863 0.102-0.185 0.202-0.366 0.289-0.54 0.502-1.003 0.414-1.637 0.338-1.892 0.195-0.721 0.368-2.722-0.642-3.812-0.601-0.649-1.482-0.838-2.623-0.562-1.203 0.007-2.077 0.379-2.601 1.106-0.903 1.253-0.428 3.128-0.298 3.569-0.254 0.903 0.264 1.528 0.373 1.647 0.123 0.171 1.5 2.146 0.347 3.367l-0.394 0.174c-1.116 0.494-1.908 0.849-2.564 1.318-0.15-0.156-0.295-0.316-0.43-0.484-1.022-1.27-1.634-2.882-1.634-4.639 0-1.742 0.603-3.343 1.61-4.608 0.193-0.243 0.401-0.473 0.622-0.69 1.335-1.305 3.161-2.11 5.176-2.11 2.298 0 4.351 1.046 5.71 2.688 0.096 0.116 0.187 0.235 0.276 0.356 0.008 0.010 0.015 0.021 0.023 0.032 0.086 0.119 0.168 0.241 0.247 0.365 0.728 1.147 1.152 2.507 1.152 3.966zM28.114 4.531c1.228 0 2.223 0.995 2.223 2.223s-0.995 2.223-2.223 2.223c-1.228 0-2.223-0.995-2.223-2.223s0.995-2.223 2.223-2.223z"></path>
</svg>
