<!-- Generated by IcoMoon.io -->
<svg version="1.1" xmlns="http://www.w3.org/2000/svg" width="32" height="32" viewBox="0 0 32 32">
<title>stack</title>
<path d="M0.283 13.645l-0.005 0.009 15.312 9.062c0.085 0.051 0.178 0.088 0.284 0.088s0.199-0.037 0.284-0.088l0.005 0.009 15.302-9.080c0.166-0.098 0.283-0.272 0.283-0.479s-0.117-0.38-0.283-0.479l0.005-0.008-15.312-9.064c-0.085-0.050-0.178-0.088-0.284-0.088s-0.199 0.038-0.284 0.088l-0.005-0.008-15.302 9.079c-0.166 0.1-0.283 0.272-0.283 0.479s0.117 0.381 0.283 0.479zM15.874 4.753l14.195 8.412-14.195 8.412-14.195-8.412 14.195-8.412zM31.181 18.268c-0.106 0-0.199 0.038-0.284 0.088l-0.005-0.008-15.018 8.899-15.023-8.892c-0.085-0.050-0.178-0.088-0.284-0.088-0.313 0-0.567 0.255-0.567 0.567 0 0.207 0.117 0.381 0.283 0.479l-0.005 0.009 15.312 9.062c0.085 0.051 0.178 0.088 0.284 0.088s0.199-0.037 0.284-0.088l0.005 0.009 15.302-9.080c0.166-0.098 0.283-0.272 0.283-0.479 0-0.312-0.254-0.567-0.567-0.567zM31.181 15.433c-0.106 0-0.199 0.038-0.284 0.088l-0.005-0.008-15.018 8.899-15.023-8.892c-0.085-0.050-0.178-0.088-0.284-0.088-0.313 0-0.567 0.254-0.567 0.567 0 0.208 0.117 0.381 0.283 0.479l-0.005 0.009 15.312 9.062c0.085 0.051 0.178 0.088 0.284 0.088s0.199-0.037 0.284-0.088l0.005 0.009 15.302-9.080c0.166-0.098 0.283-0.271 0.283-0.479 0-0.313-0.254-0.567-0.567-0.567z"></path>
</svg>
