<!-- Generated by IcoMoon.io -->
<svg version="1.1" xmlns="http://www.w3.org/2000/svg" width="32" height="32" viewBox="0 0 32 32">
<title>support-ticket</title>
<path d="M25.713 3.43c-1.578 0-2.857 1.279-2.857 2.857s1.279 2.857 2.857 2.857c1.578 0 2.857-1.279 2.857-2.857s-1.279-2.857-2.857-2.857zM25.713 8.001c-0.947 0-1.714-0.767-1.714-1.714s0.767-1.714 1.714-1.714 1.714 0.768 1.714 1.714c0 0.947-0.767 1.714-1.714 1.714zM31.997 2.288c0-1.273-1.012-2.285-2.285-2.285l-11.278-0.003c-0.594-0.006-1.189 0.211-1.641 0.664l-16.124 16.123c-0.892 0.893-0.892 2.339 0 3.232l11.311 11.311c0.893 0.893 2.339 0.893 3.232 0l16.124-16.124c0.45-0.45 0.657-1.039 0.651-1.628l0.012-0.001-0.002-11.29zM30.863 13.592c0 0.292-0.112 0.585-0.334 0.807l-16.124 16.124c-0.446 0.446-1.17 0.446-1.616 0l-11.312-11.311c-0.446-0.446-0.446-1.17 0-1.616l16.124-16.123c0.229-0.23 0.532-0.336 0.832-0.33l0.001-0.002 11.278 0.005c0.636 0 1.143 0.506 1.143 1.143l0.005 11.303h0.004l-0.001 0z"></path>
</svg>
