<!-- Generated by IcoMoon.io -->
<svg version="1.1" xmlns="http://www.w3.org/2000/svg" width="32" height="32" viewBox="0 0 32 32">
<title>swipe</title>
<path d="M15.982 29.252h-12.203c-0.583 0-1.056-0.473-1.056-1.056v-2.112h10.34l-0.977-1.056h-9.364v-19.009h16.897v6.907c0.138 0.048 0.273 0.107 0.403 0.178 0.193-0.162 0.408-0.297 0.642-0.402 0.004-0.002 0.008-0.003 0.011-0.005v-9.846c0-1.166-0.946-2.112-2.112-2.112h-14.785c-1.166 0-2.112 0.946-2.112 2.112v25.345c0 1.166 0.946 2.112 2.112 2.112h13.359c-0.413-0.312-0.799-0.665-1.156-1.056zM2.723 2.851c0-0.583 0.473-1.056 1.056-1.056h14.785c0.583 0 1.056 0.473 1.056 1.056v2.112h-16.897v-2.112zM12.227 27.668c0 0.583-0.473 1.056-1.056 1.056s-1.056-0.473-1.056-1.056c0-0.583 0.473-1.056 1.056-1.056s1.056 0.473 1.056 1.056zM12.227 2.851h-2.112c-0.292 0-0.528 0.236-0.528 0.528s0.236 0.528 0.528 0.528h2.112c0.292 0 0.528-0.236 0.528-0.528s-0.236-0.528-0.528-0.528zM10.925 24.253c-1.868-0.063-3.331-1.577-3.331-3.446v-10.244c0-1.902 1.547-3.449 3.449-3.449 1.018 0 1.979 0.447 2.636 1.226l-0.777 0.655c-0.464-0.55-1.142-0.865-1.86-0.865-1.342 0-2.433 1.091-2.433 2.433v10.244c0 1.319 1.032 2.386 2.349 2.431l-0.034 1.015zM12.011 9.397c0.012-0.005 0.025-0.010 0.037-0.016-0.304-0.257-0.697-0.413-1.127-0.413-0.966 0-1.75 0.784-1.75 1.75s0.784 1.75 1.75 1.75c0.103 0 0.203-0.011 0.301-0.028l-0.2-0.446c-0.443-0.989 0.001-2.154 0.989-2.597zM29.399 20.303l-0-0-2.784-6.208c-0.439-0.979-1.59-1.418-2.569-0.978-0.368 0.165-0.659 0.43-0.857 0.749-0.552-0.583-1.427-0.79-2.202-0.443-0.368 0.165-0.659 0.43-0.857 0.749-0.552-0.583-1.427-0.79-2.202-0.443-0.325 0.146-0.583 0.374-0.777 0.644l-1.701-3.793c-0.439-0.979-1.589-1.418-2.569-0.978s-1.418 1.59-0.978 2.569l4.556 10.161-1.912-1.517c-0.87-0.713-2.011-0.701-2.748 0.079s-0.701 2.011 0.079 2.748l4.449 4.811c2.175 2.618 5.898 3.588 9.156 2.127 3.918-1.757 5.671-6.358 3.914-10.276zM25.088 29.693c-2.623 1.176-5.592 0.55-7.533-1.342l-0.008 0.005-0.001-0.001 0.007-0.008-5.006-5.412c-0.39-0.369-0.408-0.984-0.040-1.374s0.897-0.415 1.374-0.039l3.513 2.785c0.139 0.123 0.341 0.163 0.521 0.082 0.245-0.11 0.355-0.397 0.244-0.642l-5.368-11.973c-0.22-0.49-0.001-1.065 0.489-1.285s1.065-0.001 1.285 0.489l3.38 7.538c0.11 0.245 0.397 0.354 0.642 0.244s0.355-0.397 0.244-0.642l-0.994-2.217c-0.22-0.49-0.001-1.065 0.489-1.285s1.065-0.001 1.285 0.489l1.392 3.104c0.11 0.245 0.397 0.354 0.642 0.244s0.355-0.397 0.244-0.642l-0.994-2.217c-0.22-0.49-0.001-1.065 0.489-1.285s1.065-0.001 1.285 0.489l1.392 3.104c0.11 0.245 0.397 0.354 0.642 0.244s0.355-0.397 0.244-0.642l-0.994-2.217c-0.22-0.49-0.001-1.065 0.489-1.285s1.065-0.001 1.285 0.489l2.784 6.208c1.538 3.429 0.005 7.455-3.423 8.992z"></path>
</svg>
