<!-- Generated by IcoMoon.io -->
<svg version="1.1" xmlns="http://www.w3.org/2000/svg" width="32" height="32" viewBox="0 0 32 32">
<title>temp</title>
<path d="M23.834 9.494c-2.138-1.668-4.863-2.675-7.823-2.675-2.812 0-5.412 0.908-7.522 2.447l0.036-0.025-0.752-1.040c2.282-1.666 5.142-2.666 8.236-2.666 3.257 0 6.256 1.108 8.64 2.968l-0.031-0.023zM19.702 14.838c-1.007-0.79-2.293-1.266-3.69-1.266-1.328 0-2.555 0.431-3.549 1.16l0.017-0.012-0.752-1.040c1.185-0.867 2.672-1.388 4.28-1.388 1.693 0 3.251 0.577 4.488 1.544l-0.016-0.012zM21.891 12.006c-1.607-1.261-3.658-2.022-5.888-2.022-2.117 0-4.074 0.687-5.659 1.849l0.027-0.019-0.752-1.040c1.767-1.293 3.984-2.068 6.382-2.068 2.523 0 4.846 0.859 6.692 2.301l-0.024-0.018zM16 32c-8.837 0-16-7.163-16-16s7.163-16 16-16c8.837 0 16 7.163 16 16v0c-0.011 8.832-7.168 15.989-15.999 16h-0.001zM16 1.28c-8.13 0-14.72 6.59-14.72 14.72s6.59 14.72 14.72 14.72c8.13 0 14.72-6.59 14.72-14.72v0c0-8.13-6.59-14.72-14.72-14.72v0zM15.456 19.862c-0.264 0.288-0.513 0.601-0.737 0.932l-0.018 0.028c-0.291 0.407-0.561 0.87-0.787 1.357l-0.022 0.054c-0.17 0.388-0.325 0.851-0.439 1.33l-0.012 0.059c-0.117 0.402-0.192 0.866-0.208 1.345l-0 0.009h-1.267c0.080-1.28 0.473-2.454 1.103-3.465l-0.018 0.031c0.331-0.584 0.699-1.088 1.119-1.545l-0.005 0.006h-3.056v-1.082h4.349zM16.259 23.77c0.291-0.539 0.705-0.978 1.205-1.291l0.014-0.008c0.405-0.272 0.758-0.553 1.087-0.859l-0.005 0.005c0.229-0.224 0.372-0.535 0.378-0.879v-0.001c0-0.010 0.001-0.022 0.001-0.035 0-0.23-0.081-0.442-0.216-0.607l0.001 0.002c-0.14-0.158-0.344-0.258-0.571-0.258-0.018 0-0.035 0.001-0.052 0.002l0.002-0c-0.023-0.003-0.050-0.004-0.077-0.004-0.292 0-0.545 0.166-0.67 0.409l-0.002 0.004c-0.087 0.219-0.138 0.473-0.138 0.738 0 0.005 0 0.010 0 0.015v-0.001h-1.171c-0-0.009-0-0.019-0-0.029 0-0.452 0.102-0.88 0.283-1.262l-0.008 0.018q0.48-0.915 1.715-0.918c0.034-0.002 0.073-0.003 0.113-0.003 0.552 0 1.055 0.206 1.438 0.546l-0.002-0.002c0.356 0.34 0.578 0.818 0.578 1.348 0 0.028-0.001 0.055-0.002 0.083l0-0.004c0 0.008 0 0.018 0 0.028 0 0.447-0.153 0.859-0.41 1.186l0.003-0.004c-0.252 0.3-0.54 0.559-0.859 0.775l-0.015 0.009-0.483 0.342c-0.304 0.214-0.509 0.368-0.621 0.464-0.11 0.091-0.203 0.197-0.278 0.315l-0.003 0.005h2.678v1.062h-4.195c0.008-0.434 0.111-0.842 0.289-1.207l-0.008 0.017zM21.075 18.218c0.167-0.168 0.399-0.271 0.654-0.271s0.487 0.104 0.654 0.271v0c0.167 0.167 0.27 0.398 0.27 0.653 0 0.511-0.414 0.925-0.925 0.925s-0.925-0.414-0.925-0.925c0-0.255 0.103-0.486 0.27-0.653v0zM21.373 19.219c0.089 0.089 0.212 0.144 0.348 0.144 0.002 0 0.005-0 0.007-0h-0c0.003 0 0.006 0 0.009 0 0.134 0 0.256-0.055 0.343-0.144l0-0c0.091-0.086 0.147-0.207 0.147-0.342 0-0.004-0-0.007-0-0.011v0.001c0 0 0 0 0 0 0-0.276-0.223-0.501-0.499-0.502h-0c-0.001 0-0.002 0-0.003 0-0.138 0-0.263 0.056-0.353 0.147l-0 0c-0.093 0.089-0.151 0.214-0.151 0.352 0 0.006 0 0.011 0 0.017l-0-0.001c0.002 0.134 0.059 0.254 0.15 0.339l0 0z"></path>
</svg>
