<!-- Generated by IcoMoon.io -->
<svg version="1.1" xmlns="http://www.w3.org/2000/svg" width="30" height="32" viewBox="0 0 30 32">
<title>tenant-in-tenant</title>
<path d="M27.872 17.716v-0.123c-0.143-1.471-2.452-2.575-5.415-2.575-2.983 0-5.292 1.103-5.415 2.575h-0.020v9.441c0.102 1.471 2.473 2.595 5.415 2.595s5.313-1.144 5.415-2.595l0.020-9.318c0 0 0 0 0 0zM27.402 24.828c-0.633 0.572-2.105 1.492-5.027 1.492-2.943 0-4.352-0.96-4.925-1.553v-2.616c0.797 0.654 2.289 1.39 4.925 1.39 2.656 0 4.189-0.715 5.027-1.369v2.656zM27.402 18.82v2.656c-0.633 0.572-2.105 1.492-5.027 1.492-2.943 0-4.352-0.96-4.925-1.553v-2.595c0.838 0.981 2.759 1.614 4.986 1.614 2.207 0 4.128-0.633 4.966-1.614zM17.471 17.737c0-1.042 2.003-2.166 4.966-2.166s4.945 1.124 4.966 2.166v0.020c-0.020 1.042-2.023 2.166-4.966 2.166-2.983-0.020-4.966-1.144-4.966-2.186zM27.402 25.522v1.43c-0.020 1.042-2.023 2.166-4.966 2.166-2.983 0-4.966-1.124-4.966-2.166v-1.451c0.797 0.654 2.289 1.39 4.925 1.39 2.636-0.020 4.169-0.736 5.006-1.369zM22.437 29.814c-2.963 0-5.313-1.103-5.579-2.595v0l-0.020-0.245v-9.543h0.041c0.286-1.512 2.575-2.575 5.579-2.575s5.292 1.083 5.579 2.575h0.020l0.020 0.306v9.298c-0.163 1.594-2.575 2.779-5.64 2.779zM17.185 26.912l0.020 0.102c0.102 1.369 2.411 2.432 5.252 2.432s5.149-1.063 5.252-2.432v-9.277l-0.020-0.123c-0.123-1.369-2.37-2.411-5.252-2.411-2.861 0-5.109 1.042-5.252 2.411l-0.020 0.143v9.155zM22.437 29.262c-3.188 0-5.149-1.226-5.149-2.35v-1.819l0.286 0.245c0.756 0.613 2.186 1.349 4.822 1.349s4.128-0.715 4.925-1.328l0.286-0.204v1.778c-0.041 1.124-2.023 2.329-5.17 2.329zM17.635 25.829v1.083c0 0.96 1.962 2.003 4.802 2.003 2.799 0 4.782-1.042 4.802-1.982v-1.083c-0.899 0.593-2.411 1.206-4.843 1.206s-3.903-0.633-4.761-1.226zM22.396 26.483c-3.024 0-4.455-1.001-5.047-1.614l-0.041-0.041v-3.065l0.286 0.245c0.756 0.613 2.186 1.349 4.822 1.349s4.128-0.715 4.925-1.328l0.286-0.204v3.086l-0.061 0.061c-0.674 0.552-2.186 1.512-5.17 1.512zM17.635 24.685c0.593 0.572 1.941 1.451 4.761 1.451 2.8 0 4.23-0.858 4.843-1.39v-2.227c-0.899 0.593-2.411 1.206-4.843 1.206s-3.903-0.613-4.761-1.226v2.186zM22.396 23.152c-3.024 0-4.455-1.001-5.047-1.614l-0.041-0.041v-3.147l0.306 0.347c0.817 0.94 2.718 1.553 4.843 1.553s4.026-0.613 4.843-1.553l0.306-0.347v3.208l-0.061 0.061c-0.654 0.572-2.166 1.533-5.149 1.533zM17.635 21.354c0.593 0.572 1.941 1.451 4.761 1.451 2.8 0 4.23-0.858 4.843-1.39v-2.166c-0.981 0.858-2.779 1.369-4.802 1.369s-3.821-0.511-4.802-1.369v2.105zM22.437 20.066c-3.188 0-5.149-1.226-5.149-2.35s1.962-2.35 5.149-2.35c3.147 0 5.129 1.206 5.149 2.329v0.041c-0.020 1.124-2.003 2.329-5.149 2.329zM22.437 15.734c-2.82 0-4.802 1.063-4.802 2.003s1.962 2.003 4.802 2.003c2.799 0 4.782-1.042 4.802-1.982v-0.020c-0.020-0.96-2.003-2.003-4.802-2.003zM22.948 12.015l0.061-0.061 0.041-0.082c0.368-0.777 0.204-1.43 0.082-1.757 0.817-1.839-0.163-3.351-0.388-3.658-0.552-1.573-1.716-1.9-2.595-1.9-1.042 0-1.962 0.45-1.982 0.47-0.020 0-0.020 0.020-0.041 0.020 0.082 0.143 0.143 0.306 0.204 0.47 0.041 0.061 0.082 0.123 0.123 0.184 0 0 0 0 0 0s0.797-0.409 1.676-0.409c0.96 0 1.573 0.47 1.9 1.451l0.020 0.061 0.041 0.041c0.041 0.061 1.103 1.43 0.266 3.086l-0.082 0.184 0.102 0.184c0.020 0.020 0.286 0.511 0.020 1.165-0.286 0.245-1.308 1.246-1.328 2.738 0.245-0.041 0.49-0.061 0.756-0.102 0.082-1.267 1.124-2.084 1.124-2.084zM21.006 14.304v-0.102c0.020-1.492 1.022-2.493 1.349-2.779 0.245-0.593 0-1.042-0.020-1.063l-0.123-0.225 0.102-0.225c0.797-1.614-0.225-2.943-0.266-3.004l-0.061-0.082-0.020-0.061c-0.306-0.94-0.899-1.39-1.819-1.39-0.838 0-1.614 0.388-1.635 0.388l-0.082 0.041-0.041-0.041c-0.041-0.061-0.082-0.143-0.123-0.184v-0.020c-0.061-0.163-0.143-0.327-0.204-0.47l-0.041-0.082 0.082-0.041c0.020-0.020 0.020-0.020 0.041-0.020v0c0 0 0.94-0.47 2.003-0.47 0.899 0 2.105 0.347 2.677 1.941 0.225 0.327 1.206 1.86 0.409 3.699 0.143 0.347 0.286 1.001-0.102 1.798l-0.061 0.102-0.061 0.061c-0.020 0.020-1.001 0.817-1.083 2.043v0.082h-0.082c-0.245 0.020-0.49 0.061-0.736 0.082l-0.102 0.020zM22.396 10.135l0.082 0.143c0.020 0.020 0.306 0.552 0.020 1.226l-0.020 0.041c-0.286 0.245-1.226 1.165-1.287 2.554 0.184-0.020 0.388-0.041 0.572-0.061 0.102-1.267 1.124-2.084 1.144-2.105l0.061-0.041 0.020-0.061c0.368-0.736 0.204-1.369 0.082-1.676l-0.020-0.041 0.020-0.041c0.797-1.798-0.184-3.29-0.388-3.576l-0.020-0.020c-0.531-1.533-1.655-1.839-2.513-1.839-0.899 0-1.716 0.347-1.9 0.429 0.061 0.123 0.123 0.266 0.163 0.388 0.020 0.041 0.041 0.082 0.082 0.123 0.225-0.102 0.899-0.388 1.655-0.388 1.001 0 1.655 0.49 1.982 1.512l0.020 0.041 0.041 0.041c0.041 0.061 1.124 1.471 0.286 3.188l-0.082 0.163zM18.166 5.027v0 0zM6.723 20.741c0.225-1.921 2.186-2.554 3.269-2.922l0.143-0.041c1.103-0.368 2.452-0.817 2.452-2.922 0-1.798-1.267-2.943-1.553-3.188-0.082-0.143-0.306-0.674 0.061-1.43v-0.306c0-0.020-0.817-1.819-0.204-3.331 0.306-0.756 0.92-1.328 1.86-1.716 0 0 0.96-0.47 1.982-0.47 1.144 0 1.9 0.572 2.289 1.737l0.020 0.061 0.041 0.061c0.020 0.020 1.308 1.676 0.327 3.658l-0.102 0.184 0.102 0.184c0 0 0.368 0.613 0.020 1.41-0.327 0.266-1.533 1.43-1.533 3.167 0 0.838 0.143 1.349 0.409 1.716 0.143-0.204 0.306-0.409 0.511-0.593-0.123-0.245-0.184-0.593-0.184-1.124 0-1.614 1.308-2.636 1.328-2.656l0.061-0.061 0.041-0.082c0.45-0.899 0.225-1.655 0.082-2.003 0.96-2.125-0.204-3.883-0.45-4.23-0.633-1.798-1.962-2.166-2.963-2.166-1.206 0-2.268 0.531-2.289 0.531-1.103 0.45-1.86 1.144-2.248 2.105-0.613 1.533-0.061 3.229 0.143 3.76-0.49 1.206 0.082 2.023 0.102 2.064l0.082 0.082c0.020 0 1.328 1.022 1.328 2.656 0 1.573-0.858 1.86-1.962 2.227l-0.143 0.041c-1.226 0.409-3.78 1.247-3.78 3.985v0.368h9.972v-0.736h-9.216zM16.020 21.558h-10.156v-0.45c0-2.799 2.595-3.658 3.842-4.066l0.143-0.041c1.103-0.368 1.9-0.633 1.9-2.146 0-1.594-1.287-2.575-1.287-2.575l-0.082-0.082c-0.082-0.102-0.613-0.92-0.143-2.125-0.204-0.531-0.756-2.227-0.143-3.78 0.388-0.981 1.165-1.696 2.289-2.146 0 0 1.083-0.552 2.309-0.552 1.042 0 2.411 0.388 3.045 2.227 0.266 0.368 1.41 2.125 0.47 4.271 0.163 0.388 0.347 1.144-0.102 2.043l-0.061 0.102-0.041 0.020c-0.061 0.041-1.287 1.042-1.287 2.575 0 0.49 0.061 0.838 0.163 1.083l0.020 0.061-0.041 0.041c-0.204 0.184-0.368 0.388-0.49 0.593l-0.061 0.102-0.082-0.102c-0.286-0.409-0.429-0.96-0.429-1.757 0-1.757 1.165-2.902 1.553-3.229 0.327-0.756-0.020-1.308-0.020-1.308l-0.143-0.225 0.123-0.225c0.96-1.921-0.306-3.535-0.306-3.556l-0.041-0.082-0.020-0.061c-0.388-1.124-1.103-1.676-2.207-1.676-1.001 0-1.941 0.45-1.941 0.47-0.92 0.368-1.533 0.92-1.819 1.655-0.593 1.451 0.163 3.188 0.204 3.269v0.041l-0.020 0.347c-0.327 0.695-0.143 1.185-0.061 1.349 0.286 0.225 1.573 1.39 1.573 3.229 0 2.166-1.39 2.636-2.513 3.004l-0.143 0.041c-1.022 0.327-2.922 0.96-3.188 2.738h9.216v0.92zM6.049 21.395h9.808v-0.572h-9.236l0.020-0.102c0.225-1.962 2.248-2.636 3.331-2.983l0.143-0.041c1.063-0.347 2.391-0.797 2.391-2.84 0-1.778-1.267-2.922-1.533-3.126l-0.020-0.020c-0.082-0.143-0.327-0.715 0.041-1.492v-0.266c-0.082-0.204-0.777-1.921-0.184-3.372 0.306-0.776 0.96-1.369 1.921-1.757 0 0 0.96-0.47 2.023-0.47 1.185 0 1.962 0.593 2.37 1.798l0.020 0.041 0.041 0.041c0.020 0.020 1.349 1.737 0.327 3.739l-0.061 0.143 0.082 0.143c0 0 0.388 0.654 0.020 1.492l-0.020 0.041c-0.347 0.306-1.512 1.41-1.512 3.106 0 0.695 0.102 1.185 0.327 1.553 0.102-0.163 0.245-0.306 0.388-0.47-0.102-0.266-0.163-0.613-0.163-1.103 0-1.635 1.308-2.677 1.369-2.718l0.061-0.041 0.020-0.061c0.429-0.858 0.225-1.573 0.082-1.941l-0.020-0.041 0.020-0.041c0.94-2.084-0.204-3.801-0.429-4.128l-0.020-0.020c-0.613-1.757-1.9-2.125-2.881-2.125-1.185 0-2.227 0.511-2.248 0.531-1.103 0.45-1.839 1.124-2.207 2.064-0.613 1.512-0.041 3.208 0.143 3.678l0.020 0.041-0.061 0.020c-0.47 1.144 0.061 1.941 0.102 1.982l0.061 0.061c0 0 1.349 1.022 1.349 2.718 0 1.635-0.94 1.941-2.023 2.309l-0.143 0.041c-1.206 0.388-3.719 1.226-3.719 3.903v0.286zM4.393 17.165c0.306-0.143 0.613-0.286 0.858-0.45 0.163-0.102 0.327-0.204 0.47-0.286 0.674-0.388 1.247-0.715 1.247-2.186 0-1.492-1.022-2.473-1.308-2.718-0.266-0.633 0-1.124 0.020-1.144l0.102-0.163-0.082-0.184c-0.817-1.635 0.225-2.983 0.266-3.024l0.041-0.041 0.020-0.061c0.327-0.96 0.94-1.43 1.88-1.43 0.858 0 1.635 0.388 1.635 0.388s0 0 0 0c0.041-0.061 0.082-0.143 0.123-0.184 0.061-0.163 0.143-0.306 0.204-0.47-0.020 0-0.020-0.020-0.041-0.020 0 0-0.92-0.45-1.941-0.45-0.858 0-2.003 0.327-2.534 1.859-0.225 0.306-1.185 1.798-0.388 3.596-0.123 0.306-0.286 0.96 0.082 1.716l0.041 0.082 0.061 0.061c0 0 1.103 0.879 1.103 2.207 0 1.063-0.266 1.206-0.879 1.553-0.163 0.082-0.327 0.184-0.511 0.306s-0.47 0.245-0.756 0.388c-1.063 0.47-2.473 1.124-2.513 3.024v0.368h3.76c0.082-0.266 0.163-0.511 0.286-0.736h-3.29c0.204-1.165 1.165-1.594 2.043-2.003zM5.415 19.985h-3.923v-0.47c0.041-1.962 1.492-2.616 2.554-3.106 0.286-0.123 0.552-0.245 0.736-0.368s0.347-0.225 0.511-0.306c0.613-0.347 0.838-0.49 0.838-1.492 0-1.287-1.042-2.125-1.063-2.125l-0.102-0.082-0.041-0.082c-0.368-0.756-0.225-1.41-0.102-1.757-0.777-1.819 0.184-3.331 0.409-3.637 0.552-1.573 1.737-1.921 2.616-1.921 1.063 0 1.982 0.47 1.982 0.47s0 0 0.020 0l0.082 0.041-0.041 0.082c-0.082 0.163-0.143 0.306-0.204 0.45v0.020c-0.041 0.041-0.082 0.123-0.123 0.184l-0.041 0.061-0.061-0.020c-0.020-0.020-0.777-0.388-1.614-0.388-0.899 0-1.492 0.45-1.798 1.369l-0.041 0.082-0.041 0.041c-0.041 0.061-1.042 1.369-0.266 2.943l0.102 0.225-0.123 0.204c-0.020 0.020-0.266 0.45-0.020 1.042 0.327 0.286 1.328 1.287 1.328 2.779 0 1.533-0.613 1.88-1.287 2.268-0.143 0.082-0.306 0.184-0.47 0.286-0.245 0.163-0.552 0.306-0.858 0.45v0c-0.817 0.368-1.757 0.797-1.982 1.839h3.331v0.143c-0.123 0.225-0.204 0.47-0.266 0.715l-0.041 0.061zM1.676 19.821h3.617c0.061-0.204 0.123-0.388 0.204-0.552h-3.249l0.020-0.102c0.204-1.206 1.206-1.655 2.084-2.064v0c0.306-0.143 0.613-0.266 0.838-0.429 0.163-0.102 0.327-0.204 0.47-0.286 0.674-0.388 1.206-0.695 1.206-2.125 0-1.451-0.981-2.391-1.267-2.656l-0.020-0.041c-0.286-0.674 0-1.185 0.020-1.206l0.082-0.123-0.061-0.143c-0.838-1.676 0.225-3.065 0.286-3.126l0.041-0.082c0.327-1.001 0.96-1.492 1.962-1.492 0.736 0 1.41 0.286 1.614 0.368 0.020-0.041 0.061-0.082 0.082-0.123 0.041-0.123 0.102-0.245 0.163-0.388-0.163-0.082-0.981-0.429-1.859-0.429-0.838 0-1.941 0.306-2.452 1.819l-0.020 0.020c-0.204 0.286-1.165 1.737-0.368 3.515l0.020 0.041-0.020 0.041c-0.123 0.306-0.286 0.92 0.082 1.655l0.020 0.061 0.061 0.041c0.020 0 1.124 0.899 1.124 2.268 0 1.103-0.286 1.267-0.92 1.635-0.163 0.102-0.327 0.184-0.511 0.307-0.204 0.143-0.47 0.266-0.756 0.388-1.022 0.47-2.411 1.103-2.452 2.943l-0.041 0.266z"></path>
</svg>
