<!-- Generated by IcoMoon.io -->
<svg version="1.1" xmlns="http://www.w3.org/2000/svg" width="32" height="32" viewBox="0 0 32 32">
<title>threat</title>
<path d="M7.913 11.32c0.368 1.051 0.329 1.192 0.245 1.502-0.073 0.266-0.171 0.63-0.171 1.417 0 1.731 1.697 2.417 2.627 2.545l0.103 0.031 0.001 1.227c-0.004 0.086-0.025 0.851 0.467 1.367 0.271 0.284 0.647 0.433 1.088 0.433h7.001c0.442 0 0.817-0.15 1.088-0.433 0.492-0.516 0.472-1.281 0.468-1.348v-1.246l0.103-0.031c0.93-0.128 2.627-0.814 2.627-2.545 0-0.787-0.099-1.151-0.171-1.417-0.084-0.31-0.123-0.451 0.245-1.502 0.19-0.542 0.344-0.933 0.467-1.245 0.322-0.816 0.455-1.154 0.455-2.194 0-1.631-1.486-7.715-8.75-7.753v-0.002h-0.057v0.001c-7.269 0.033-8.756 6.122-8.756 7.753 0 1.040 0.133 1.378 0.455 2.194 0.123 0.312 0.277 0.703 0.467 1.245zM15.772 0.927c6.628 0.017 7.983 5.489 7.983 6.953 0 0.888-0.093 1.123-0.399 1.901-0.126 0.319-0.283 0.719-0.477 1.275-0.413 1.18-0.401 1.464-0.262 1.976 0.064 0.235 0.143 0.527 0.143 1.207 0 1.483-1.883 1.744-1.963 1.755l-0.767 0.23 0.001 1.855c0.005 0.14-0.030 0.553-0.25 0.78-0.119 0.123-0.285 0.183-0.507 0.183h-7.001c-0.222 0-0.388-0.060-0.507-0.183-0.22-0.227-0.255-0.641-0.249-0.797v-1.838l-0.701-0.215-0.067-0.014c-0.080-0.010-1.962-0.271-1.962-1.755 0-0.68 0.079-0.972 0.143-1.207 0.139-0.512 0.151-0.796-0.262-1.976-0.195-0.556-0.351-0.956-0.477-1.275-0.307-0.778-0.399-1.013-0.399-1.901 0-1.465 1.355-6.936 7.98-6.953zM17.341 12.8c0.451 0.285 0.988 0.435 1.547 0.435 0.142 0 0.286-0.010 0.43-0.030 1.491-0.203 2.561-1.416 2.386-2.705-0.086-0.638-0.458-1.194-1.045-1.565-0.565-0.358-1.267-0.5-1.977-0.405-0.709 0.096-1.348 0.422-1.797 0.918-0.467 0.515-0.676 1.15-0.589 1.787 0.086 0.639 0.458 1.194 1.044 1.566zM17.479 9.985c0.323-0.357 0.789-0.592 1.312-0.663 0.109-0.014 0.217-0.022 0.323-0.022 0.408 0 0.796 0.106 1.118 0.31 0.384 0.243 0.625 0.597 0.68 0.997 0.115 0.851-0.648 1.661-1.701 1.804-0.526 0.070-1.035-0.031-1.441-0.288-0.384-0.243-0.625-0.598-0.68-0.997s0.084-0.805 0.389-1.142zM12.196 13.205c0.144 0.019 0.288 0.030 0.43 0.030 0.559 0 1.097-0.15 1.547-0.435 0.587-0.372 0.958-0.927 1.045-1.565s-0.123-1.272-0.589-1.787c-0.45-0.495-1.088-0.822-1.797-0.918s-1.412 0.048-1.977 0.405c-0.587 0.371-0.958 0.927-1.045 1.565-0.176 1.288 0.895 2.501 2.386 2.704zM10.603 10.608c0.054-0.399 0.296-0.753 0.68-0.997 0.322-0.204 0.71-0.31 1.118-0.31 0.106 0 0.215 0.008 0.323 0.022 0.523 0.071 0.988 0.306 1.311 0.662 0.305 0.337 0.444 0.743 0.389 1.142s-0.296 0.753-0.68 0.997c-0.405 0.257-0.913 0.359-1.441 0.288-1.053-0.143-1.816-0.953-1.7-1.804zM14.849 13.299l-0.955 1.528c-0.086 0.135-0.352 0.607-0.163 1.004 0.059 0.124 0.215 0.338 0.584 0.38 0.431 0.047 0.762-0.068 1.030-0.161 0.145-0.051 0.27-0.094 0.363-0.094 0.128 0 0.345 0.076 0.537 0.143 0.249 0.088 0.507 0.178 0.748 0.178 0.29 0 0.547-0.161 0.687-0.429 0.164-0.315 0.137-0.709-0.071-1.005l-1.2-1.705c-0.175-0.367-0.389-0.552-0.637-0.552-0.201 0-0.587 0.093-0.924 0.712zM15.548 13.69c0.051-0.095 0.099-0.163 0.137-0.21 0.005 0.010 0.010 0.018 0.013 0.027l1.257 1.797c0.052 0.074 0.028 0.166 0.039 0.173-0.104 0-0.306-0.071-0.483-0.133-0.264-0.093-0.537-0.189-0.802-0.189-0.228 0-0.43 0.070-0.625 0.137-0.191 0.066-0.354 0.125-0.592 0.125 0.020-0.054 0.050-0.115 0.080-0.164l0.963-1.542 0.013-0.023zM26.147 25.232c-1-0.438-2.156-0.013-2.632 0.971l-3.516-1.544 3.442-1.4 0.131-0.049 0.009 0.013c0.464 0.955 1.6 1.389 2.58 0.99 1.033-0.42 1.532-1.603 1.112-2.637-0.223-0.548-0.66-0.956-1.194-1.144 0.25-0.507 0.279-1.105 0.057-1.653-0.42-1.033-1.605-1.53-2.636-1.112-1.012 0.412-1.511 1.537-1.138 2.565l-6.464 2.626-6.097-2.677c-0.054-0.053-0.123-0.097-0.206-0.135l-0.065-0.046h-0.001c0.361-0.998-0.117-2.114-1.088-2.54-0.494-0.217-1.044-0.228-1.548-0.032-0.503 0.197-0.9 0.578-1.117 1.072-0.238 0.542-0.225 1.14 0.011 1.653-0.538 0.174-0.986 0.57-1.224 1.111-0.217 0.495-0.229 1.044-0.032 1.548s0.577 0.9 1.072 1.117c0.992 0.436 2.138 0.019 2.629-0.928l3.514 1.541-3.263 1.326c-0.085 0.004-0.182 0.026-0.297 0.068-0.004-0.001-0.022-0.013-0.017 0.001-0.464-0.956-1.598-1.391-2.579-0.99-0.5 0.203-0.892 0.589-1.102 1.088s-0.214 1.048-0.010 1.548c0.223 0.548 0.661 0.956 1.194 1.144-0.251 0.507-0.28 1.105-0.057 1.653 0.204 0.5 0.59 0.892 1.088 1.102 0.253 0.107 0.52 0.16 0.786 0.16 0.258 0 0.516-0.050 0.762-0.15 1.005-0.409 1.504-1.52 1.167-2.532l6.435-2.617 6.248 2.74 0.109 0.063c0.002 0.003 0.007 0.025 0.012 0.012-0.361 0.998 0.117 2.114 1.088 2.54 0.26 0.114 0.536 0.172 0.813 0.172 0.248 0 0.497-0.047 0.736-0.139 0.503-0.197 0.9-0.578 1.117-1.072 0.238-0.542 0.225-1.14-0.011-1.653 0.538-0.174 0.986-0.57 1.224-1.111 0.217-0.495 0.229-1.045 0.032-1.548-0.197-0.504-0.578-0.901-1.072-1.118zM8.415 22.211l-0.151-0.034c-0.007 0-0.013 0-0.020 0-0.273 0-0.518 0.131-0.692 0.372l-0.037 0.061c-0.286 0.597-0.984 0.857-1.591 0.59-0.617-0.271-0.899-0.993-0.628-1.611 0.203-0.463 0.643-0.758 1.167-0.729l1.018 0.041-0.719-0.723c-0.357-0.359-0.457-0.891-0.254-1.354 0.131-0.299 0.371-0.529 0.676-0.647 0.304-0.119 0.636-0.111 0.935 0.019 0.587 0.258 0.875 0.931 0.643 1.585-0.090 0.413 0.079 0.777 0.449 0.971l5.687 2.514-2.119 0.861-4.365-1.915zM14.829 25.899l-5.853 2.38-0.129 0.084c-0.2 0.195-0.282 0.467-0.233 0.766l0.019 0.073c0.228 0.621-0.073 1.302-0.686 1.552-0.625 0.255-1.339-0.048-1.593-0.672-0.191-0.468-0.076-0.996 0.291-1.345l0.737-0.703-1.017 0.011c-0.487 0.010-0.958-0.293-1.148-0.761-0.123-0.302-0.121-0.635 0.006-0.936s0.364-0.534 0.666-0.657c0.595-0.241 1.278 0.021 1.584 0.645 0.235 0.351 0.615 0.484 1.009 0.353l0.053 0.024 14.058-5.715c0.407-0.166 0.614-0.537 0.54-0.967l-0.019-0.070c-0.228-0.621 0.074-1.303 0.686-1.552 0.624-0.255 1.339 0.048 1.593 0.672 0.19 0.469 0.076 0.997-0.291 1.345l-0.738 0.703 1.018-0.012c0.491-0.012 0.957 0.293 1.147 0.761 0.254 0.624-0.048 1.339-0.672 1.593-0.593 0.242-1.278-0.022-1.585-0.645-0.248-0.372-0.657-0.498-1.097-0.323l-8.35 3.395zM26.454 27.576c-0.203 0.463-0.639 0.748-1.168 0.729l-1.019-0.041 0.72 0.723c0.357 0.359 0.457 0.89 0.254 1.353-0.131 0.299-0.371 0.529-0.676 0.647s-0.636 0.111-0.935-0.019c-0.587-0.257-0.875-0.931-0.642-1.586 0.094-0.436-0.102-0.819-0.534-1.010l-5.571-2.445 2.101-0.855 4.143 1.832c0.4 0.175 0.811 0.065 1.069-0.286l0.038-0.063c0.286-0.598 0.987-0.855 1.591-0.589 0.299 0.131 0.529 0.371 0.647 0.675s0.112 0.636-0.019 0.935z"></path>
</svg>
