<!-- Generated by IcoMoon.io -->
<svg version="1.1" xmlns="http://www.w3.org/2000/svg" width="32" height="32" viewBox="0 0 32 32">
<title>token</title>
<path d="M15.874 0.126c-8.753 0-15.874 7.12-15.874 15.873s7.121 15.874 15.874 15.874 15.874-7.121 15.874-15.874-7.121-15.873-15.874-15.873zM30.91 15.526h-3.168c-0.117-2.958-1.314-5.637-3.214-7.657l2.237-2.237c2.471 2.594 4.026 6.065 4.145 9.894zM16.287 0.962c3.822 0.104 7.291 1.638 9.893 4.087l-2.238 2.238c-2.027-1.879-4.703-3.057-7.654-3.159v-3.167zM15.461 0.962v3.166c-2.951 0.102-5.627 1.28-7.654 3.159l-2.238-2.238c2.601-2.449 6.071-3.983 9.893-4.087zM4.983 5.632l2.237 2.237c-1.9 2.021-3.097 4.7-3.214 7.657h-3.167c0.119-3.828 1.674-7.299 4.145-9.894zM0.835 16.352h3.165c0.088 2.975 1.271 5.674 3.162 7.715l-2.238 2.238c-2.462-2.615-4-6.108-4.089-9.954zM15.461 31.037c-3.853-0.104-7.347-1.663-9.955-4.147l2.237-2.237c2.035 1.913 4.736 3.114 7.718 3.217v3.166zM4.726 15.947c0-6.147 5.001-11.148 11.149-11.148s11.149 5.001 11.149 11.148c0 6.148-5.001 11.149-11.149 11.149s-11.149-5.001-11.149-11.149zM16.287 31.037v-3.166c2.982-0.103 5.684-1.304 7.718-3.217l2.237 2.237c-2.608 2.484-6.102 4.042-9.955 4.147zM26.825 26.305l-2.238-2.238c1.892-2.041 3.074-4.74 3.162-7.715h3.165c-0.089 3.846-1.626 7.338-4.089 9.954zM21.311 13.305h-1.647v-1.366c0-2.093-1.697-3.789-3.789-3.789s-3.789 1.697-3.789 3.789v1.366h-1.647c-0.39 0-0.707 0.317-0.707 0.707v8.178c0 0.39 0.317 0.707 0.707 0.707h10.873c0.39 0 0.707-0.317 0.707-0.707v-8.178c0-0.39-0.316-0.707-0.707-0.707zM16.523 18.135v2.257c0 0.358-0.291 0.649-0.649 0.649s-0.649-0.291-0.649-0.649v-2.257c-0.472-0.239-0.799-0.723-0.799-1.288 0-0.8 0.648-1.448 1.448-1.448s1.448 0.648 1.448 1.448c0 0.565-0.327 1.049-0.799 1.288zM17.956 13.305h-4.163v-1.45c0-1.15 0.932-2.082 2.081-2.082s2.082 0.932 2.082 2.082v1.45z"></path>
</svg>
