<!-- Generated by IcoMoon.io -->
<svg version="1.1" xmlns="http://www.w3.org/2000/svg" width="32" height="32" viewBox="0 0 32 32">
<title>ultimate-guide</title>
<path d="M18.502 26.706c-0.253 0-0.482-0.176-0.538-0.434-0.022-0.099-0.502-2.451 1.946-4.827 2.165-2.102 2.619-4.228 2.619-5.643 0.002-0.052 0.094-3.085-1.848-5.103-1.177-1.223-2.877-1.844-5.052-1.844-6.707 0-6.901 6.235-6.901 6.946 0 1.414 0.454 3.541 2.62 5.643 2.448 2.376 1.968 4.728 1.946 4.827-0.065 0.297-0.357 0.487-0.657 0.421-0.297-0.065-0.486-0.359-0.421-0.657 0.014-0.071 0.348-1.872-1.637-3.799-2.442-2.371-2.955-4.808-2.955-6.435 0-2.99 1.686-8.050 8.004-8.050 2.492 0 4.461 0.737 5.855 2.19 2.267 2.364 2.154 5.74 2.148 5.883 0.001 1.604-0.512 4.041-2.954 6.412-2.012 1.953-1.641 3.781-1.637 3.799 0.065 0.298-0.123 0.592-0.421 0.657-0.040 0.008-0.079 0.013-0.118 0.013zM19.147 29.131h-7.233c-0.305 0-0.552-0.247-0.552-0.552s0.247-0.552 0.552-0.552h7.233c0.305 0 0.552 0.247 0.552 0.552s-0.247 0.552-0.552 0.552zM18.085 31.779h-5.109c-0.305 0-0.552-0.247-0.552-0.552s0.247-0.552 0.552-0.552h5.109c0.305 0 0.552 0.247 0.552 0.552s-0.247 0.552-0.552 0.552zM18.564 17.602c-0.216-0.215-0.565-0.214-0.78 0.002l-2.246 2.255-2.164-2.248c-0.212-0.22-0.561-0.228-0.78-0.015-0.22 0.211-0.226 0.56-0.015 0.78l2.4 2.494v2.764c0 0.305 0.247 0.552 0.552 0.552s0.552-0.247 0.552-0.552v-2.758l2.483-2.493c0.215-0.216 0.214-0.565-0.002-0.78zM5.738 17.781h-5.186c-0.305 0-0.552-0.247-0.552-0.552s0.247-0.552 0.552-0.552h5.186c0.305 0 0.552 0.247 0.552 0.552s-0.247 0.552-0.552 0.552zM31.448 17.781h-5.186c-0.305 0-0.552-0.247-0.552-0.552s0.247-0.552 0.552-0.552h5.186c0.305 0 0.552 0.247 0.552 0.552s-0.247 0.552-0.552 0.552zM15.448 6.511c-0.305 0-0.552-0.247-0.552-0.552v-5.186c0-0.305 0.247-0.552 0.552-0.552s0.552 0.247 0.552 0.552v5.186c0 0.305-0.247 0.552-0.552 0.552zM23.448 9.779c-0.141 0-0.282-0.054-0.39-0.162-0.215-0.215-0.215-0.564 0-0.78l3.668-3.668c0.215-0.215 0.564-0.215 0.78 0s0.215 0.564 0 0.78l-3.668 3.668c-0.108 0.108-0.249 0.162-0.39 0.162zM8.145 9.768c-0.141 0-0.282-0.054-0.39-0.162l-3.668-3.667c-0.215-0.215-0.215-0.564 0-0.78s0.564-0.215 0.78 0l3.668 3.668c0.215 0.215 0.215 0.564 0 0.78-0.108 0.108-0.249 0.162-0.39 0.162z"></path>
</svg>
