<!-- Generated by IcoMoon.io -->
<svg version="1.1" xmlns="http://www.w3.org/2000/svg" width="32" height="32" viewBox="0 0 32 32">
<title>unified</title>
<path d="M0.539 8.658c-1.58 4.027 0.43 8.539 4.479 10.060l7.311 2.746c0.456 0.171 0.919 0.291 1.383 0.374 3.66 0.655 7.423-1.346 8.824-4.92 0.203-0.514 0.344-1.037 0.432-1.559l-1.597-0.6c-0.057 0.528-0.178 1.058-0.382 1.578-1.067 2.721-3.87 4.285-6.659 3.927-0.469-0.060-0.937-0.168-1.396-0.341l-7.311-2.745c-3.196-1.2-4.781-4.762-3.535-7.94s4.86-4.787 8.056-3.587l7.311 2.746c0.862 0.323 1.603 0.823 2.206 1.438l2.519 0.661c-0.85-1.616-2.269-2.943-4.122-3.639l-7.311-2.745c-4.048-1.521-8.627 0.518-10.207 4.544zM19.022 10.33c-3.878-1.086-8.063 0.939-9.559 4.752-0.315 0.803-0.481 1.625-0.523 2.438l1.653 0.621c-0.033-0.82 0.098-1.661 0.418-2.477 1.247-3.178 4.86-4.787 8.056-3.588l7.311 2.745c3.196 1.2 4.781 4.762 3.535 7.94s-4.86 4.787-8.056 3.587l-7.311-2.746c-0.69-0.259-1.299-0.633-1.826-1.084l-2.947-1.107c0.844 1.658 2.28 3.021 4.169 3.731l7.31 2.745c4.050 1.521 8.628-0.518 10.208-4.545s-0.43-8.54-4.479-10.060l-7.311-2.746c-0.214-0.079-0.431-0.145-0.649-0.206z"></path>
</svg>
