<!-- Generated by IcoMoon.io -->
<svg version="1.1" xmlns="http://www.w3.org/2000/svg" width="32" height="32" viewBox="0 0 32 32">
<title>user-devices</title>
<path d="M11.208 18.399h-9.531v-6.043h9.531v6.043zM2.038 18.038h8.808v-5.321h-8.808v5.321zM12.823 18.952l-0.020-0.158h-0.731v-6.623c0-0.339-0.276-0.615-0.615-0.615h-10.058c-0.339 0-0.615 0.276-0.615 0.615v6.624h-0.783v0.181c0 0.398 0.101 0.69 0.299 0.867 0.17 0.152 0.357 0.17 0.429 0.17 0.018 0 0.029-0.001 0.030-0.001h11.244c0.257 0 0.461-0.084 0.606-0.249 0.273-0.31 0.216-0.789 0.214-0.81zM1.144 12.17c0-0.14 0.114-0.254 0.254-0.254h10.058c0.14 0 0.254 0.114 0.254 0.254v6.624h-10.566v-6.624zM12.338 19.522c-0.075 0.085-0.185 0.127-0.336 0.127l-11.264 0.001c-0.003-0.001-0.105 0.006-0.198-0.077-0.090-0.081-0.148-0.224-0.169-0.418h4.794c0.003 0.092 0.078 0.167 0.171 0.167h2.154c0.093 0 0.168-0.074 0.171-0.167h4.805c-0.007 0.114-0.036 0.264-0.128 0.367zM16.855 8.069c2.413 0 4.572 1.079 6.027 2.779h0.784c-1.559-2.059-4.030-3.389-6.811-3.389s-5.252 1.331-6.811 3.389h0.784c1.454-1.7 3.614-2.779 6.027-2.779zM22.464 21.607c-1.311-1.167-2.843-1.675-3.184-1.776-0.966-0.81-0.575-1.712 0.131-2.989 0.107-0.193 0.211-0.382 0.302-0.564 0.524-1.047 0.432-1.709 0.353-1.976 0.204-0.752 0.384-2.842-0.67-3.98-0.628-0.678-1.548-0.874-2.739-0.586-1.256 0.008-2.169 0.396-2.716 1.155-0.943 1.308-0.447 3.266-0.311 3.726-0.265 0.943 0.275 1.596 0.389 1.719 0.128 0.178 1.566 2.24 0.363 3.516l-0.411 0.182c-1.244 0.55-2.104 0.934-2.815 1.475-0.212-0.22-0.411-0.453-0.597-0.695h-0.76c1.538 2.251 4.124 3.728 7.056 3.728s5.517-1.478 7.056-3.728h-0.753c-0.214 0.279-0.444 0.545-0.693 0.794zM24.254 18.286c-0.158 0-0.285 0.128-0.285 0.285s0.128 0.285 0.285 0.285c0.158 0 0.285-0.128 0.285-0.285s-0.127-0.285-0.285-0.285zM22.192 18.056h4.123v-5.498h-4.123v5.498zM22.536 12.901h3.436v4.811h-3.436v-4.811zM26.316 11.87h-4.123c-0.379 0-0.687 0.308-0.687 0.687v6.185c0 0.379 0.308 0.687 0.687 0.687h4.123c0.379 0 0.687-0.308 0.687-0.687v-6.185c0-0.379-0.308-0.687-0.687-0.687zM26.659 18.743c0 0.19-0.154 0.343-0.343 0.343h-4.124c-0.19 0-0.344-0.154-0.344-0.343v-6.185c0-0.19 0.154-0.344 0.344-0.344h4.123c0.19 0 0.343 0.154 0.343 0.344v6.185zM29.71 18.9c0.142 0 0.257-0.115 0.257-0.257s-0.115-0.257-0.257-0.257c-0.142 0-0.257 0.115-0.257 0.257s0.115 0.257 0.257 0.257zM29.967 13.611h-0.514c-0.071 0-0.129 0.057-0.129 0.129s0.057 0.129 0.129 0.129h0.514c0.071 0 0.129-0.057 0.129-0.129s-0.057-0.129-0.129-0.129zM31.166 12.97h-2.911c-0.322 0-0.582 0.261-0.582 0.582v5.24c0 0.322 0.261 0.582 0.582 0.582h2.911c0.322 0 0.582-0.261 0.582-0.582v-5.24c0-0.322-0.261-0.582-0.582-0.582zM31.457 18.793c0 0.161-0.13 0.291-0.291 0.291h-2.911c-0.161 0-0.291-0.13-0.291-0.291v-0.582h3.493v0.582zM31.457 17.919h-3.494v-3.493h3.493v3.493zM31.457 14.135h-3.494v-0.582c0-0.161 0.13-0.291 0.291-0.291h2.911c0.161 0 0.291 0.13 0.291 0.291v0.582z"></path>
</svg>
