<!-- Generated by IcoMoon.io -->
<svg version="1.1" xmlns="http://www.w3.org/2000/svg" width="32" height="32" viewBox="0 0 32 32">
<title>username-password</title>
<path d="M7.893 21.377l-0.979-0.568 0.975-0.575c0.078-0.046 0.133-0.119 0.156-0.207s0.010-0.178-0.037-0.256c-0.045-0.078-0.119-0.133-0.206-0.156s-0.178-0.010-0.256 0.036l-0.964 0.568v-1.118c0-0.186-0.152-0.338-0.338-0.338s-0.338 0.152-0.338 0.338v1.123l-0.971-0.563c-0.078-0.046-0.169-0.058-0.256-0.035s-0.161 0.079-0.206 0.157c-0.045 0.078-0.057 0.169-0.034 0.256s0.079 0.161 0.157 0.206l0.979 0.568-0.975 0.575c-0.078 0.046-0.133 0.119-0.156 0.207s-0.010 0.178 0.036 0.256c0.091 0.155 0.309 0.211 0.463 0.12l0.964-0.568v1.119c0 0.186 0.152 0.338 0.338 0.338s0.338-0.152 0.338-0.338v-1.123l0.971 0.563c0.154 0.090 0.371 0.033 0.463-0.122 0.045-0.078 0.057-0.169 0.034-0.257s-0.079-0.16-0.157-0.205zM12.708 21.377l-0.979-0.568 0.975-0.575c0.078-0.046 0.133-0.119 0.155-0.207s0.010-0.178-0.036-0.256c-0.046-0.078-0.119-0.133-0.207-0.156s-0.178-0.010-0.256 0.036l-0.964 0.568v-1.118c0-0.186-0.152-0.338-0.338-0.338s-0.338 0.152-0.338 0.338v1.123l-0.971-0.563c-0.078-0.046-0.169-0.058-0.256-0.035s-0.161 0.079-0.206 0.157c-0.045 0.078-0.058 0.169-0.034 0.256s0.079 0.161 0.157 0.206l0.979 0.568-0.976 0.575c-0.078 0.046-0.133 0.119-0.155 0.207s-0.010 0.178 0.036 0.256c0.091 0.155 0.309 0.211 0.463 0.12l0.963-0.568v1.119c0 0.186 0.152 0.338 0.338 0.338s0.338-0.152 0.338-0.338v-1.123l0.97 0.563c0.154 0.090 0.372 0.034 0.463-0.122 0.045-0.078 0.058-0.169 0.034-0.257s-0.079-0.16-0.157-0.205zM17.523 21.377l-0.979-0.568 0.975-0.575c0.078-0.046 0.133-0.119 0.156-0.207s0.010-0.178-0.037-0.256c-0.045-0.078-0.119-0.133-0.206-0.156s-0.179-0.010-0.257 0.036l-0.964 0.568v-1.118c0-0.186-0.152-0.338-0.338-0.338s-0.338 0.152-0.338 0.338v1.123l-0.971-0.563c-0.078-0.046-0.169-0.058-0.257-0.035s-0.16 0.079-0.206 0.157-0.058 0.169-0.035 0.256c0.024 0.087 0.079 0.161 0.157 0.206l0.979 0.568-0.975 0.575c-0.078 0.046-0.133 0.119-0.156 0.207s-0.010 0.178 0.036 0.256c0.091 0.155 0.309 0.211 0.463 0.12l0.963-0.568v1.119c0 0.186 0.152 0.338 0.338 0.338s0.338-0.152 0.338-0.338v-1.123l0.971 0.563c0.154 0.090 0.371 0.033 0.463-0.122 0.094-0.161 0.038-0.368-0.123-0.462zM22.338 21.377l-0.979-0.568 0.975-0.575c0.078-0.046 0.133-0.119 0.156-0.207s0.010-0.178-0.036-0.256c-0.046-0.078-0.119-0.133-0.207-0.156s-0.178-0.010-0.256 0.036l-0.963 0.568v-1.118c0-0.186-0.152-0.338-0.338-0.338s-0.338 0.152-0.338 0.338v1.123l-0.971-0.563c-0.078-0.046-0.168-0.058-0.256-0.035s-0.161 0.079-0.206 0.157c-0.045 0.078-0.058 0.169-0.034 0.256s0.079 0.161 0.157 0.206l0.979 0.568-0.976 0.575c-0.078 0.046-0.133 0.119-0.155 0.207s-0.010 0.178 0.037 0.255c0.091 0.155 0.309 0.211 0.463 0.12l0.963-0.568v1.119c0 0.186 0.152 0.338 0.338 0.338s0.338-0.152 0.338-0.338v-1.123l0.971 0.563c0.154 0.090 0.371 0.033 0.463-0.122 0.045-0.078 0.058-0.169 0.034-0.257s-0.079-0.16-0.157-0.205zM27.153 21.377l-0.979-0.568 0.975-0.575c0.078-0.046 0.133-0.119 0.156-0.207s0.010-0.178-0.036-0.256c-0.046-0.078-0.119-0.133-0.206-0.156s-0.178-0.010-0.257 0.036l-0.963 0.568v-1.118c0-0.186-0.152-0.338-0.338-0.338s-0.338 0.152-0.338 0.338v1.123l-0.971-0.563c-0.078-0.045-0.169-0.058-0.256-0.035s-0.161 0.079-0.206 0.157c-0.045 0.078-0.058 0.169-0.034 0.256s0.079 0.161 0.157 0.206l0.979 0.568-0.975 0.575c-0.078 0.046-0.133 0.119-0.156 0.207s-0.010 0.178 0.036 0.256c0.091 0.155 0.309 0.211 0.463 0.12l0.963-0.568v1.119c0 0.186 0.152 0.338 0.338 0.338s0.338-0.152 0.338-0.338v-1.123l0.971 0.563c0.154 0.090 0.371 0.033 0.463-0.122 0.094-0.161 0.039-0.368-0.123-0.462zM5.283 12.748c-0.372 0-0.665-0.103-0.879-0.309s-0.321-0.513-0.321-0.923v-1.584h0.61v1.568c0 0.227 0.053 0.398 0.158 0.513s0.252 0.172 0.44 0.172c0.187 0 0.334-0.056 0.44-0.166s0.158-0.277 0.158-0.499v-1.588h0.61v1.564c0 0.211-0.029 0.395-0.085 0.55s-0.138 0.286-0.244 0.39c-0.106 0.104-0.234 0.182-0.384 0.234s-0.318 0.077-0.504 0.077zM8.209 12.745c-0.211 0-0.418-0.036-0.622-0.109s-0.388-0.184-0.554-0.335l0.36-0.432c0.127 0.103 0.257 0.185 0.39 0.245s0.279 0.091 0.438 0.091c0.127 0 0.225-0.023 0.295-0.069s0.105-0.11 0.105-0.192v-0.008c0-0.040-0.007-0.075-0.022-0.105s-0.042-0.059-0.084-0.085c-0.041-0.026-0.098-0.053-0.171-0.079s-0.167-0.054-0.284-0.083c-0.14-0.034-0.267-0.073-0.381-0.115s-0.21-0.094-0.29-0.157c-0.079-0.062-0.141-0.139-0.185-0.232s-0.065-0.207-0.065-0.344v-0.008c0-0.127 0.024-0.241 0.071-0.343s0.113-0.19 0.199-0.264c0.085-0.074 0.187-0.131 0.305-0.17s0.249-0.059 0.391-0.059c0.203 0 0.39 0.030 0.56 0.091s0.327 0.148 0.469 0.261l-0.317 0.459c-0.124-0.084-0.246-0.151-0.364-0.2s-0.237-0.073-0.356-0.073-0.208 0.023-0.267 0.069c-0.059 0.046-0.089 0.104-0.089 0.172v0.008c0 0.045 0.009 0.084 0.026 0.117s0.048 0.063 0.093 0.089c0.045 0.026 0.107 0.051 0.185 0.075s0.177 0.051 0.296 0.083c0.14 0.037 0.265 0.079 0.375 0.125s0.203 0.102 0.278 0.166c0.076 0.065 0.132 0.141 0.171 0.228s0.057 0.191 0.057 0.313v0.008c0 0.137-0.025 0.259-0.075 0.366s-0.119 0.197-0.209 0.269-0.196 0.128-0.319 0.166c-0.123 0.038-0.261 0.058-0.411 0.058zM9.853 9.933h2.087v0.543h-1.485v0.562h1.307v0.543h-1.307v0.582h1.505v0.543h-2.107v-2.772zM12.605 9.933h1.267c0.351 0 0.62 0.094 0.808 0.281 0.158 0.158 0.237 0.37 0.237 0.634v0.008c0 0.224-0.055 0.407-0.164 0.549s-0.253 0.245-0.43 0.311l0.677 0.99h-0.713l-0.594-0.887h-0.479v0.887h-0.61v-2.772zM13.833 11.279c0.15 0 0.266-0.036 0.346-0.107s0.121-0.166 0.121-0.285v-0.008c0-0.132-0.042-0.231-0.127-0.297s-0.202-0.099-0.352-0.099h-0.606v0.796h0.618zM15.567 9.933h0.562l1.299 1.707v-1.707h0.602v2.772h-0.519l-1.342-1.762v1.762h-0.602v-2.772zM19.745 9.913h0.562l1.188 2.792h-0.637l-0.253-0.622h-1.172l-0.253 0.622h-0.622l1.188-2.792zM20.387 11.544l-0.368-0.899-0.368 0.899h0.737zM22.022 9.933h0.657l0.729 1.172 0.729-1.172h0.657v2.772h-0.602v-1.81l-0.78 1.184h-0.016l-0.772-1.172v1.798h-0.602v-2.772zM25.558 9.933h2.087v0.543h-1.485v0.562h1.307v0.543h-1.307v0.582h1.505v0.543h-2.107v-2.772zM29.769 5.326h-27.79c-1.091 0-1.979 0.888-1.979 1.979v17.391c0 1.091 0.888 1.979 1.979 1.979h27.79c1.091 0 1.979-0.888 1.979-1.979v-17.392c0-1.091-0.888-1.979-1.979-1.979zM1.979 6.532h27.79c0.426 0 0.773 0.347 0.773 0.773v8.323h-29.336v-8.323c0-0.426 0.347-0.773 0.773-0.773zM29.769 25.468h-27.79c-0.426 0-0.773-0.347-0.773-0.773v-7.914h29.336v7.914c-0 0.426-0.347 0.773-0.773 0.773z"></path>
</svg>
