<!-- Generated by IcoMoon.io -->
<svg version="1.1" xmlns="http://www.w3.org/2000/svg" width="32" height="32" viewBox="0 0 32 32">
<title>user-desktop</title>
<path d="M30.319 4.603h-17.154c-0.79 0-1.43 0.64-1.43 1.43v3.655c0.243 0.086 0.481 0.183 0.715 0.287v-3.942c0-0.395 0.32-0.715 0.715-0.715h17.154c0.395 0 0.715 0.32 0.715 0.715v10.721h-12.948c0.056 0.235 0.105 0.473 0.144 0.715h12.805v1.43c0 0.395-0.32 0.715-0.715 0.715h-11.973c-0.013 0.241-0.037 0.479-0.066 0.715h2.033v2.144h-1.43c-0.197 0-0.357 0.16-0.357 0.357s0.16 0.357 0.357 0.357h5.718c0.197 0 0.357-0.16 0.357-0.357s-0.16-0.357-0.357-0.357h-1.43v-2.144h7.147c0.79 0 1.43-0.64 1.43-1.43v-12.865c0-0.79-0.64-1.43-1.429-1.43zM22.457 22.471h-1.43v-2.144h1.43v2.144zM8.475 10.448c-4.68 0-8.475 3.794-8.475 8.475s3.794 8.475 8.475 8.475c4.68 0 8.475-3.794 8.475-8.475s-3.794-8.475-8.475-8.475zM14.041 24.486c-1.301-1.158-2.821-1.662-3.159-1.762-0.959-0.804-0.57-1.699 0.13-2.966 0.106-0.192 0.209-0.379 0.3-0.56 0.52-1.039 0.429-1.696 0.351-1.96 0.202-0.747 0.381-2.82-0.665-3.949-0.623-0.673-1.536-0.867-2.718-0.582-1.246 0.008-2.152 0.393-2.695 1.146-0.936 1.298-0.444 3.241-0.309 3.697-0.263 0.936 0.273 1.583 0.386 1.706 0.127 0.177 1.554 2.223 0.36 3.488l-0.408 0.181c-1.234 0.546-2.088 0.927-2.793 1.463-1.369-1.416-2.215-3.341-2.215-5.465 0-4.346 3.523-7.869 7.869-7.869s7.869 3.523 7.869 7.869c0 2.172-0.88 4.139-2.303 5.563z"></path>
</svg>
