<!-- Generated by IcoMoon.io -->
<svg version="1.1" xmlns="http://www.w3.org/2000/svg" width="37" height="32" viewBox="0 0 37 32">
<title>user-selfservice</title>
<path d="M27.371 16.997c-0.261 0-0.522 0.071-0.76 0.19-0.261-0.57-0.831-0.926-1.448-0.926-0.261 0-0.522 0.071-0.76 0.19-0.261-0.57-0.831-0.926-1.448-0.926-0.214 0-0.404 0.047-0.617 0.119v-2.967c0-0.902-0.736-1.614-1.614-1.614-0.902 0-1.614 0.736-1.614 1.614v7.953l-0.641-1.163c-0.427-0.831-1.306-1.211-2.113-0.855-0.831 0.332-1.211 1.282-0.878 2.113l1.59 4.724c0.736 2.611 3.134 4.439 5.84 4.439 3.347 0 6.077-2.73 6.077-6.077v-5.199c0-0.878-0.736-1.614-1.614-1.614zM21.792 19.49c0.285 0 0.499-0.237 0.499-0.499v-1.852c0-0.332 0.285-0.617 0.617-0.617s0.617 0.285 0.617 0.617v2.588c0 0.285 0.237 0.499 0.499 0.499 0.285 0 0.499-0.237 0.499-0.499v-1.852c0-0.332 0.285-0.617 0.617-0.617s0.617 0.285 0.617 0.617v2.588c0 0.285 0.237 0.499 0.499 0.499s0.499-0.237 0.499-0.499v-1.852c0-0.332 0.285-0.617 0.617-0.617s0.617 0.285 0.617 0.617v5.199c0 2.801-2.279 5.056-5.056 5.056-2.089 0-3.917-1.258-4.7-3.181l-1.804-5.365c-0.071-0.142-0.071-0.309 0-0.475s0.19-0.261 0.332-0.332c0.332-0.142 0.617 0 0.807 0.332l1.567 3.039 0.071 0.119c0.095 0.119 0.237 0.19 0.38 0.19 0.285 0 0.499-0.237 0.499-0.499v-10.018c0-0.332 0.285-0.617 0.617-0.617s0.617 0.285 0.617 0.617v6.315c-0.024 0.285 0.19 0.499 0.475 0.499zM32.736 2.754h-29.579c-0.309 0-0.546 0.237-0.546 0.546v19.252c0 0.309 0.237 0.546 0.546 0.546h10.944c0.309 0 0.546-0.237 0.546-0.546s-0.237-0.546-0.546-0.546h-10.421v-18.184h28.51v18.184h-1.757c-0.309 0-0.546 0.237-0.546 0.546s0.237 0.546 0.546 0.546h2.303c0.309 0 0.546-0.237 0.546-0.546v-19.252c0-0.309-0.237-0.546-0.546-0.546zM21.199 9.78v-2.92c0-0.309-0.237-0.546-0.546-0.546s-0.546 0.237-0.546 0.546v2.92c0 0.309 0.237 0.546 0.546 0.546s0.546-0.237 0.546-0.546zM22.979 12.653c0 0.309 0.237 0.546 0.546 0.546h2.92c0.309 0 0.546-0.237 0.546-0.546s-0.237-0.546-0.546-0.546h-2.92c-0.285 0.024-0.546 0.261-0.546 0.546zM14.315 12.653c0 0.309 0.237 0.546 0.546 0.546h2.92c0.309 0 0.546-0.237 0.546-0.546s-0.237-0.546-0.546-0.546h-2.944c-0.285 0.024-0.522 0.261-0.522 0.546zM24.38 8.19l-2.065 2.065c-0.214 0.214-0.214 0.546 0 0.76 0.095 0.095 0.237 0.166 0.38 0.166s0.285-0.047 0.38-0.166l2.065-2.065c0.214-0.214 0.214-0.546 0-0.76s-0.546-0.214-0.76 0zM18.611 11.157c0.142 0 0.285-0.047 0.38-0.166 0.214-0.214 0.214-0.546 0-0.76l-2.065-2.065c-0.214-0.214-0.546-0.214-0.76 0s-0.214 0.546 0 0.76l2.065 2.065c0.119 0.119 0.237 0.166 0.38 0.166z"></path>
</svg>
