<!-- Generated by IcoMoon.io -->
<svg version="1.1" xmlns="http://www.w3.org/2000/svg" width="32" height="32" viewBox="0 0 32 32">
<title>userpass-laptop</title>
<path d="M27.569 22.258h-23.389v-14.774h23.389v14.774zM4.918 21.519h21.911v-13.296h-21.911v13.296zM31.733 23.558l-0.039-0.345h-2.137v-16.128c0-0.796-0.648-1.444-1.444-1.444h-24.417c-0.796 0-1.444 0.648-1.444 1.444v16.129h-2.252v0.389c0 2.555 1.767 2.754 1.822 2.758h27.931c0.586 0 1.058-0.197 1.405-0.584 0.723-0.808 0.58-2.16 0.574-2.217zM3.029 7.085c0-0.367 0.299-0.666 0.666-0.666h24.417c0.367 0 0.666 0.299 0.666 0.666v16.129h-25.75v-16.129zM30.579 25.257c-0.196 0.219-0.465 0.325-0.825 0.325l-27.888 0.003c-0.041-0.005-0.935-0.137-1.071-1.594h11.818c-0 0.008-0.004 0.014-0.004 0.022v0.32c0 0.249 0.201 0.45 0.45 0.45h5.632c0.249 0 0.45-0.202 0.45-0.45v-0.32c0-0.008-0.004-0.014-0.004-0.022h11.833c-0.010 0.36-0.079 0.919-0.39 1.267zM11.837 17.591l-0.495-0.287 0.493-0.291c0.039-0.023 0.067-0.060 0.079-0.104s0.005-0.090-0.018-0.13c-0.023-0.039-0.060-0.067-0.104-0.079s-0.090-0.005-0.13 0.018l-0.487 0.287v-0.566c0-0.094-0.077-0.171-0.171-0.171s-0.171 0.077-0.171 0.171v0.568l-0.491-0.285c-0.039-0.023-0.085-0.029-0.13-0.018s-0.081 0.040-0.104 0.080c-0.023 0.039-0.029 0.086-0.017 0.13s0.040 0.081 0.080 0.104l0.495 0.287-0.493 0.291c-0.039 0.023-0.068 0.060-0.079 0.104s-0.005 0.090 0.018 0.13c0.046 0.078 0.156 0.107 0.234 0.061l0.487-0.287v0.566c0 0.094 0.077 0.171 0.171 0.171s0.171-0.077 0.171-0.171v-0.568l0.491 0.285c0.078 0.046 0.188 0.017 0.234-0.062 0.023-0.039 0.029-0.086 0.017-0.13s-0.040-0.081-0.080-0.104zM14.273 17.591l-0.495-0.287 0.493-0.291c0.039-0.023 0.067-0.060 0.079-0.104s0.005-0.090-0.018-0.13c-0.023-0.039-0.060-0.067-0.104-0.079s-0.090-0.005-0.13 0.018l-0.487 0.287v-0.566c0-0.094-0.077-0.171-0.171-0.171s-0.171 0.077-0.171 0.171v0.568l-0.491-0.285c-0.039-0.023-0.085-0.029-0.13-0.018s-0.081 0.040-0.104 0.080c-0.023 0.039-0.029 0.086-0.017 0.13s0.040 0.081 0.079 0.104l0.495 0.287-0.493 0.291c-0.039 0.023-0.067 0.060-0.079 0.104s-0.005 0.090 0.018 0.13c0.046 0.078 0.156 0.107 0.234 0.061l0.487-0.287v0.566c0 0.094 0.077 0.171 0.171 0.171s0.171-0.077 0.171-0.171v-0.568l0.491 0.285c0.078 0.046 0.188 0.017 0.234-0.062 0.023-0.039 0.029-0.086 0.017-0.13s-0.040-0.081-0.079-0.104zM16.708 17.591l-0.495-0.287 0.493-0.291c0.039-0.023 0.067-0.060 0.079-0.104s0.005-0.090-0.018-0.13c-0.023-0.039-0.060-0.067-0.104-0.079s-0.090-0.005-0.13 0.018l-0.487 0.287v-0.566c0-0.094-0.077-0.171-0.171-0.171s-0.171 0.077-0.171 0.171v0.568l-0.491-0.285c-0.039-0.023-0.086-0.029-0.13-0.018s-0.081 0.040-0.104 0.080c-0.023 0.039-0.029 0.086-0.017 0.13s0.040 0.081 0.080 0.104l0.495 0.287-0.493 0.291c-0.039 0.023-0.067 0.060-0.079 0.104s-0.005 0.090 0.018 0.13c0.046 0.078 0.156 0.107 0.234 0.061l0.487-0.287v0.566c0 0.094 0.077 0.171 0.171 0.171s0.171-0.077 0.171-0.171v-0.568l0.491 0.285c0.078 0.046 0.188 0.017 0.234-0.062 0.048-0.081 0.020-0.186-0.062-0.233zM19.143 17.591l-0.495-0.287 0.493-0.291c0.039-0.023 0.067-0.060 0.079-0.104s0.005-0.090-0.018-0.13c-0.023-0.039-0.060-0.067-0.104-0.079s-0.090-0.005-0.13 0.018l-0.487 0.287v-0.566c0-0.094-0.077-0.171-0.171-0.171s-0.171 0.077-0.171 0.171v0.568l-0.491-0.285c-0.039-0.023-0.085-0.029-0.13-0.018s-0.081 0.040-0.104 0.080c-0.023 0.039-0.029 0.086-0.017 0.13s0.040 0.081 0.079 0.104l0.495 0.287-0.493 0.291c-0.039 0.023-0.067 0.060-0.079 0.105s-0.005 0.090 0.018 0.129c0.046 0.078 0.156 0.107 0.234 0.061l0.487-0.287v0.566c0 0.094 0.077 0.171 0.171 0.171s0.171-0.077 0.171-0.171v-0.568l0.491 0.285c0.078 0.046 0.188 0.017 0.234-0.062 0.023-0.039 0.029-0.086 0.017-0.13s-0.040-0.081-0.080-0.104zM21.579 17.591l-0.495-0.287 0.493-0.291c0.039-0.023 0.068-0.060 0.079-0.104s0.005-0.090-0.018-0.13c-0.023-0.039-0.060-0.067-0.104-0.079s-0.090-0.005-0.13 0.018l-0.487 0.287v-0.566c0-0.094-0.077-0.171-0.171-0.171s-0.171 0.077-0.171 0.171v0.568l-0.491-0.285c-0.039-0.023-0.085-0.029-0.13-0.018s-0.081 0.040-0.104 0.080c-0.023 0.039-0.029 0.086-0.017 0.13s0.040 0.081 0.079 0.104l0.495 0.287-0.493 0.291c-0.039 0.023-0.067 0.060-0.079 0.104s-0.005 0.090 0.018 0.13c0.046 0.078 0.156 0.107 0.234 0.061l0.487-0.287v0.566c0 0.094 0.077 0.171 0.171 0.171s0.171-0.077 0.171-0.171v-0.568l0.491 0.285c0.078 0.046 0.188 0.017 0.234-0.062 0.047-0.081 0.019-0.186-0.062-0.233zM10.517 13.227c-0.188 0-0.337-0.052-0.445-0.156s-0.162-0.26-0.162-0.467v-0.801h0.309v0.793c0 0.115 0.027 0.201 0.080 0.259s0.128 0.087 0.222 0.087c0.095 0 0.169-0.028 0.222-0.084s0.080-0.14 0.080-0.252v-0.803h0.309v0.791c0 0.107-0.014 0.2-0.043 0.278s-0.070 0.144-0.123 0.197-0.118 0.092-0.194 0.118c-0.076 0.026-0.161 0.039-0.254 0.039zM11.997 13.225c-0.107 0-0.212-0.018-0.314-0.055s-0.196-0.093-0.28-0.169l0.182-0.218c0.064 0.052 0.13 0.093 0.197 0.124s0.141 0.046 0.221 0.046c0.064 0 0.114-0.012 0.149-0.035s0.053-0.056 0.053-0.097v-0.004c0-0.020-0.004-0.038-0.011-0.053s-0.021-0.030-0.042-0.043c-0.021-0.013-0.050-0.027-0.086-0.040s-0.085-0.027-0.143-0.042c-0.071-0.017-0.135-0.037-0.193-0.058s-0.106-0.048-0.147-0.079c-0.040-0.031-0.071-0.070-0.093-0.117s-0.033-0.105-0.033-0.174v-0.004c0-0.064 0.012-0.122 0.036-0.173s0.057-0.096 0.1-0.133c0.043-0.037 0.095-0.066 0.155-0.086s0.126-0.030 0.198-0.030c0.103 0 0.197 0.015 0.284 0.046s0.165 0.075 0.237 0.132l-0.16 0.232c-0.063-0.043-0.124-0.076-0.184-0.101s-0.12-0.037-0.18-0.037-0.105 0.012-0.135 0.035c-0.030 0.024-0.045 0.052-0.045 0.087v0.004c0 0.023 0.004 0.043 0.013 0.059s0.024 0.032 0.047 0.045 0.054 0.026 0.093 0.038c0.039 0.012 0.090 0.026 0.15 0.042 0.071 0.019 0.134 0.040 0.19 0.063s0.103 0.051 0.141 0.084c0.038 0.033 0.067 0.071 0.086 0.115s0.029 0.097 0.029 0.158v0.004c0 0.070-0.013 0.131-0.038 0.185s-0.060 0.099-0.105 0.136-0.099 0.065-0.162 0.084c-0.063 0.020-0.132 0.030-0.208 0.030zM12.828 11.803h1.056v0.274h-0.751v0.284h0.661v0.274h-0.661v0.295h0.761v0.274h-1.065v-1.402zM14.221 11.803h0.641c0.177 0 0.314 0.047 0.409 0.142 0.080 0.080 0.12 0.187 0.12 0.321v0.004c0 0.114-0.028 0.206-0.083 0.277s-0.128 0.124-0.217 0.157l0.343 0.501h-0.361l-0.3-0.449h-0.242v0.449h-0.309v-1.402zM14.842 12.484c0.076 0 0.135-0.018 0.175-0.054s0.061-0.084 0.061-0.144v-0.004c0-0.067-0.021-0.117-0.064-0.15s-0.102-0.050-0.178-0.050h-0.306v0.403h0.313zM15.719 11.803h0.284l0.657 0.863v-0.863h0.304v1.402h-0.262l-0.679-0.891v0.891h-0.304v-1.402zM17.832 11.792h0.284l0.601 1.412h-0.323l-0.128-0.315h-0.593l-0.128 0.315h-0.314l0.601-1.412zM18.157 12.618l-0.186-0.455-0.186 0.455h0.373zM18.984 11.803h0.332l0.369 0.593 0.369-0.593h0.332v1.402h-0.304v-0.915l-0.395 0.599h-0.008l-0.39-0.593v0.909h-0.304v-1.402zM20.773 11.803h1.056v0.274h-0.751v0.284h0.661v0.274h-0.661v0.295h0.761v0.274h-1.065v-1.402zM22.903 9.472h-14.057c-0.552 0-1.001 0.449-1.001 1.001v8.797c0 0.552 0.449 1.001 1.001 1.001h14.057c0.552 0 1.001-0.449 1.001-1.001v-8.797c-0-0.552-0.449-1.001-1.001-1.001zM8.846 10.082h14.057c0.216 0 0.391 0.175 0.391 0.391v4.21h-14.839v-4.21c0-0.216 0.175-0.391 0.391-0.391zM22.903 19.661h-14.057c-0.216 0-0.391-0.175-0.391-0.391v-4.003h14.839v4.003c0 0.216-0.175 0.391-0.391 0.391z"></path>
</svg>
