<!-- Generated by IcoMoon.io -->
<svg version="1.1" xmlns="http://www.w3.org/2000/svg" width="32" height="32" viewBox="0 0 32 32">
<title>user-profile</title>
<path d="M29.563 5.566h-9.901v-0.373c0-0.65-0.529-1.179-1.179-1.179h-5.217c-0.65 0-1.179 0.529-1.179 1.179v0.373h-9.901c-1.205 0-2.185 0.98-2.185 2.185v18.050c0 1.205 0.98 2.185 2.185 2.185h27.377c1.205 0 2.185-0.98 2.185-2.185v-18.050c0-1.205-0.98-2.185-2.186-2.185zM12.999 5.193c0-0.147 0.12-0.267 0.267-0.267h5.217c0.147 0 0.267 0.12 0.267 0.267v1.861c0 0.147-0.12 0.267-0.267 0.267h-5.217c-0.147 0-0.267-0.12-0.267-0.267v-1.861zM30.835 25.801c0 0.702-0.571 1.273-1.273 1.273h-27.377c-0.702 0-1.273-0.571-1.273-1.273v-18.050c0-0.702 0.571-1.273 1.273-1.273h9.901v0.576c0 0.65 0.529 1.179 1.179 1.179h5.217c0.65 0 1.179-0.529 1.179-1.179v-0.576h9.901c0.702 0 1.273 0.571 1.273 1.273v18.050zM9.984 10.672c-3.84 0-6.964 3.124-6.964 6.964s3.124 6.964 6.964 6.964c3.84 0 6.964-3.124 6.964-6.964s-3.124-6.964-6.964-6.964zM14.221 21.954l-0.024 0.023-0.026-0.021c-1.036-0.84-2.176-1.193-2.302-1.231l-0.013-0.007c-0.789-0.662-0.474-1.386 0.095-2.416 0.082-0.148 0.166-0.302 0.239-0.446 0.415-0.83 0.332-1.352 0.277-1.538l-0.003-0.010 0.003-0.010c0.175-0.645 0.277-2.257-0.522-3.12-0.487-0.526-1.205-0.679-2.135-0.454-0.991 0.007-1.705 0.31-2.131 0.901-0.745 1.033-0.332 2.615-0.241 2.921l0.003 0.010-0.003 0.010c-0.205 0.729 0.214 1.234 0.3 1.328 0.063 0.086 0.369 0.526 0.548 1.081 0.233 0.722 0.143 1.329-0.261 1.757l-0.012 0.009-0.326 0.144c-0.899 0.397-1.475 0.658-1.976 0.99l-0.026 0.017-0.022-0.022c-1.116-1.139-1.731-2.642-1.731-4.233 0-3.337 2.715-6.052 6.052-6.052s6.051 2.715 6.051 6.052c0.001 1.635-0.644 3.168-1.814 4.317zM28.257 13.44h-8.348c-0.301 0-0.545 0.244-0.545 0.545v0.11c0 0.301 0.244 0.545 0.545 0.545h8.348c0.301 0 0.545-0.244 0.545-0.545v-0.11c0-0.301-0.244-0.545-0.545-0.545zM28.257 16.51h-8.348c-0.301 0-0.545 0.244-0.545 0.545v0.11c0 0.301 0.244 0.545 0.545 0.545h8.348c0.301 0 0.545-0.244 0.545-0.545v-0.11c0-0.301-0.244-0.545-0.545-0.545zM28.257 19.58h-8.348c-0.301 0-0.545 0.244-0.545 0.545v0.11c0 0.301 0.244 0.545 0.545 0.545h8.348c0.301 0 0.545-0.244 0.545-0.545v-0.11c0-0.301-0.244-0.545-0.545-0.545z"></path>
</svg>
