<!-- Generated by IcoMoon.io -->
<svg version="1.1" xmlns="http://www.w3.org/2000/svg" width="32" height="32" viewBox="0 0 32 32">
<title>user</title>
<path d="M15.874 0.126c-8.767 0-15.874 7.107-15.874 15.874s7.107 15.874 15.874 15.874c8.767 0 15.874-7.107 15.874-15.874s-7.107-15.874-15.874-15.874zM26.299 26.421c-2.438-2.17-5.284-3.113-5.917-3.301-1.796-1.506-1.069-3.183 0.244-5.555 0.198-0.359 0.392-0.71 0.561-1.049 0.973-1.945 0.803-3.176 0.657-3.672 0.379-1.399 0.714-5.282-1.245-7.398-1.166-1.26-2.877-1.625-5.090-1.090-2.333 0.014-4.031 0.736-5.048 2.146-1.753 2.432-0.831 6.071-0.578 6.926-0.493 1.752 0.511 2.965 0.723 3.196 0.239 0.331 2.911 4.164 0.674 6.534l-0.764 0.338c-2.312 1.023-3.911 1.737-5.232 2.74-2.564-2.652-4.149-6.257-4.149-10.237 0-8.141 6.599-14.74 14.74-14.74s14.74 6.599 14.74 14.74c-0 4.069-1.649 7.753-4.315 10.421z"></path>
</svg>
