<!-- Generated by IcoMoon.io -->
<svg version="1.1" xmlns="http://www.w3.org/2000/svg" width="32" height="32" viewBox="0 0 32 32">
<title>value-card</title>
<path d="M7.484 23.013h7.013c0.277 0 0.501-0.224 0.501-0.501s-0.224-0.501-0.501-0.501h-7.013c-0.277 0-0.501 0.225-0.501 0.501s0.224 0.501 0.501 0.501zM10.99 5.981c-0.553 0-1.002 0.449-1.002 1.002s0.449 1.002 1.002 1.002 1.002-0.448 1.002-1.002c0-0.553-0.449-1.002-1.002-1.002zM7.484 14.998h7.013c0.277 0 0.501-0.224 0.501-0.501s-0.224-0.501-0.501-0.501h-7.013c-0.277 0-0.501 0.224-0.501 0.501s0.224 0.501 0.501 0.501zM7.484 19.006h7.013c0.277 0 0.501-0.224 0.501-0.501s-0.224-0.501-0.501-0.501h-7.013c-0.277 0-0.501 0.225-0.501 0.501s0.224 0.501 0.501 0.501zM7.985 5.981c-0.553 0-1.002 0.449-1.002 1.002s0.449 1.002 1.002 1.002 1.002-0.448 1.002-1.002c0-0.553-0.449-1.002-1.002-1.002zM28.023 3.977h-24.045c-1.107 0-2.004 0.897-2.004 2.004v20.038c0 1.107 0.897 2.004 2.004 2.004h24.046c1.107 0 2.004-0.897 2.004-2.004v-20.038c-0-1.107-0.897-2.004-2.004-2.004zM29.025 26.019c0 0.554-0.449 1.002-1.002 1.002h-24.045c-0.553 0-1.002-0.448-1.002-1.002v-16.031h26.050v16.031zM29.025 8.987h-26.049v-3.006c0-0.553 0.449-1.002 1.002-1.002h24.046c0.553 0 1.002 0.449 1.002 1.002v3.006zM4.979 5.981c-0.553 0-1.002 0.449-1.002 1.002s0.449 1.002 1.002 1.002 1.002-0.448 1.002-1.002c-0-0.553-0.449-1.002-1.002-1.002zM24.925 23.514h-7.013c-0.552 0-1.002-0.449-1.002-1.002v-8.015c0-0.553 0.45-1.002 1.002-1.002h7.013c0.552 0 1.002 0.449 1.002 1.002v8.015c-0 0.553-0.45 1.002-1.002 1.002zM24.925 22.512v0.501l0.001-0.501c-0 0-0.001 0-0.001 0zM17.912 14.497v8.015h7.013v-8.015h-7.013z"></path>
</svg>
