<!-- Generated by IcoMoon.io -->
<svg version="1.1" xmlns="http://www.w3.org/2000/svg" width="32" height="32" viewBox="0 0 32 32">
<title>videos-and-whiteboard</title>
<path d="M28.961 1.959h-25.923c-1.193 0-2.16 0.967-2.16 2.16v19.442c0 1.193 0.967 2.16 2.16 2.16h10.801v3.24h-2.16c-0.299 0-0.54 0.242-0.54 0.54s0.242 0.54 0.54 0.54h8.641c0.299 0 0.54-0.242 0.54-0.54s-0.242-0.54-0.54-0.54h-2.16v-3.241h10.801c1.193 0 2.16-0.967 2.16-2.16v-19.442c0-1.193-0.967-2.16-2.16-2.16zM17.080 28.961h-2.16v-3.24h2.16v3.24zM30.041 23.561c0 0.596-0.484 1.080-1.080 1.080h-25.923c-0.596 0-1.080-0.484-1.080-1.080v-2.16h28.083v2.16zM30.041 20.32h-28.083v-16.202c0-0.596 0.484-1.080 1.080-1.080h25.923c0.596 0 1.080 0.484 1.080 1.080v16.202zM13.264 8.357v8.901c0 0.367 0.409 0.586 0.715 0.384l6.712-4.451c0.275-0.182 0.275-0.585 0-0.767l-6.712-4.451c-0.306-0.203-0.715 0.017-0.715 0.384z"></path>
</svg>
