<!-- Generated by IcoMoon.io -->
<svg version="1.1" xmlns="http://www.w3.org/2000/svg" width="32" height="32" viewBox="0 0 32 32">
<title>video</title>
<path d="M13.165 10.977v10.211c0 0.421 0.469 0.673 0.82 0.44l7.7-5.106c0.315-0.209 0.315-0.671 0-0.88l-7.7-5.106c-0.351-0.233-0.82 0.019-0.82 0.44zM16 32c-8.822 0-16-7.177-16-16s7.178-16 16-16 16 7.177 16 16c0 8.823-7.177 16-16 16zM16 1.737c-7.865 0-14.263 6.398-14.263 14.263s6.398 14.263 14.263 14.263c7.864 0 14.263-6.398 14.263-14.263s-6.398-14.263-14.263-14.263z"></path>
</svg>
