<!-- Generated by IcoMoon.io -->
<svg version="1.1" xmlns="http://www.w3.org/2000/svg" width="32" height="32" viewBox="0 0 32 32">
<title>vpn</title>
<path d="M13.646 27.732v-6.051c0.344 0.010 0.682 0.035 1.018 0.065 0.009-0.316 0.031-0.629 0.069-0.937-0.358-0.032-0.719-0.058-1.086-0.068v-4.725h3.061c0.254-0.329 0.521-0.647 0.814-0.941h-3.874v-4.725c1.735-0.047 3.376-0.34 4.839-0.845 0.364 1.279 0.614 2.702 0.729 4.216 0.289-0.184 0.589-0.353 0.897-0.507-0.139-1.443-0.397-2.808-0.766-4.047 1.121-0.472 2.112-1.066 2.94-1.758 1.213 1.356 2.122 2.986 2.636 4.783 0.346 0.015 0.688 0.047 1.024 0.096-1.45-5.702-6.616-9.919-12.769-9.919-7.277 0-13.175 5.899-13.175 13.175s5.899 13.175 13.175 13.175c1.269 0 2.495-0.183 3.656-0.518-0.401-0.497-0.753-1.034-1.052-1.604-0.655 0.62-1.374 1.018-2.133 1.133zM21.639 6.741c-0.729 0.6-1.597 1.121-2.582 1.54-0.691-1.942-1.651-3.523-2.781-4.558 2.050 0.537 3.882 1.597 5.363 3.019zM13.646 3.358c1.894 0.289 3.542 2.305 4.56 5.258-1.37 0.472-2.919 0.746-4.56 0.793v-6.051zM10.075 3.722c-1.131 1.035-2.090 2.616-2.781 4.558-0.986-0.419-1.854-0.94-2.582-1.54 1.481-1.422 3.314-2.482 5.364-3.019zM4.067 7.409c0.829 0.692 1.819 1.286 2.94 1.758-0.524 1.76-0.84 3.767-0.88 5.907h-5.165c0.112-2.945 1.27-5.614 3.105-7.665zM0.962 16.015h5.165c0.041 2.14 0.356 4.147 0.88 5.908-1.121 0.471-2.112 1.065-2.941 1.758-1.835-2.051-2.993-4.721-3.105-7.665zM4.712 24.349c0.729-0.6 1.597-1.121 2.582-1.54 0.691 1.942 1.651 3.523 2.781 4.558-2.050-0.536-3.882-1.596-5.364-3.019zM12.705 27.732c-1.894-0.289-3.542-2.305-4.56-5.258 1.371-0.472 2.919-0.746 4.56-0.793v6.051zM12.705 20.74c-1.735 0.047-3.376 0.34-4.839 0.845-0.471-1.654-0.758-3.546-0.796-5.569h5.635v4.725zM12.705 15.074h-5.635c0.038-2.023 0.325-3.915 0.796-5.569 1.463 0.504 3.104 0.798 4.839 0.845v4.725zM12.705 9.409c-1.641-0.046-3.189-0.321-4.56-0.793 1.018-2.954 2.666-4.969 4.56-5.258v6.051zM24.122 15.324c3.689 0 6.681 2.991 6.681 6.681s-2.991 6.681-6.681 6.681c-3.69 0-6.681-2.991-6.681-6.681s2.991-6.681 6.681-6.681zM24.122 14.378c-4.205 0-7.626 3.421-7.626 7.626s3.421 7.626 7.626 7.626c4.205 0 7.626-3.421 7.626-7.626s-3.421-7.626-7.626-7.626v0zM27.51 20.039h-1.020v-0.846c0-1.296-1.051-2.347-2.347-2.347s-2.347 1.051-2.347 2.347v0.846h-1.020c-0.242 0-0.438 0.196-0.438 0.438v5.065c0 0.242 0.196 0.438 0.438 0.438h6.734c0.242 0 0.438-0.196 0.438-0.438v-5.065c0-0.242-0.196-0.438-0.438-0.438zM24.583 22.961v1.272c0 0.202-0.164 0.366-0.366 0.366s-0.366-0.164-0.366-0.366v-1.272c-0.266-0.134-0.45-0.407-0.45-0.725 0-0.451 0.365-0.816 0.816-0.816s0.816 0.365 0.816 0.816c0 0.318-0.184 0.591-0.45 0.725zM25.432 20.039h-2.578v-0.898c0-0.712 0.577-1.289 1.289-1.289s1.289 0.577 1.289 1.289v0.898z"></path>
</svg>
