<!-- Generated by IcoMoon.io -->
<svg version="1.1" xmlns="http://www.w3.org/2000/svg" width="32" height="32" viewBox="0 0 32 32">
<title>web-apps</title>
<path d="M25.61 5.912c-0.133-0.895-0.912-1.57-1.813-1.57h-18.953c-1.015 0-1.84 0.825-1.84 1.84v15.681c0 1.015 0.825 1.84 1.84 1.84h0.251v-0.923h-0.251c-0.505 0-0.917-0.411-0.917-0.917v-15.681c0-0.506 0.411-0.917 0.917-0.917h18.953c0.418 0 0.781 0.285 0.885 0.692l0.022 0.087h0.925l-0.020-0.133zM0.924 19.45v-15.681c0-0.506 0.411-0.917 0.917-0.917h18.953c0.418 0 0.781 0.285 0.885 0.692l0.022 0.087h0.925l-0.020-0.132c-0.133-0.895-0.912-1.57-1.813-1.57h-18.953c-1.015 0-1.84 0.825-1.84 1.84v15.681c0 1.015 0.825 1.84 1.84 1.84h0.251v-0.923h-0.251c-0.506 0-0.917-0.411-0.917-0.917zM9.188 9.244c0 0.374-0.303 0.678-0.678 0.678s-0.678-0.303-0.678-0.678c0-0.374 0.303-0.678 0.678-0.678s0.678 0.303 0.678 0.678zM13.255 9.244c0 0.374-0.303 0.678-0.678 0.678s-0.678-0.303-0.678-0.678c0-0.374 0.303-0.678 0.678-0.678s0.678 0.303 0.678 0.678zM11.221 9.244c0 0.374-0.303 0.678-0.678 0.678s-0.678-0.303-0.678-0.678c0-0.374 0.303-0.678 0.678-0.678s0.678 0.303 0.678 0.678zM7.501 25.218c-0.442 0-0.801-0.358-0.801-0.801v-12.809h20.815v3.638c0.275 0.113 0.542 0.24 0.801 0.382v-7.222c0-0.884-0.717-1.601-1.601-1.601h-19.214c-0.884 0-1.601 0.717-1.601 1.601v16.011c0 0.884 0.717 1.601 1.601 1.601h9.5c-0.115-0.26-0.217-0.527-0.304-0.801h-9.196zM6.7 8.407c0-0.442 0.358-0.801 0.801-0.801h19.214c0.442 0 0.801 0.359 0.801 0.801v2.402h-20.815v-2.402zM26.072 24.473c-0.369-0.272-0.117-0.393-1.075-0.817-1.326-0.587-2.151 0-2.151 0.817 0 1.635 1.076 1.907 1.076 1.907-0.269 1.363 0 1.907 0.269 2.18s0.452 0.678 0.695 0.545c0.242-0.133 0.381-1.907 1.187-2.725s0.484-1.549-0-1.907zM24.426 15.427c-4.044 0-7.322 3.278-7.322 7.322s3.278 7.322 7.322 7.322 7.322-3.278 7.322-7.322-3.278-7.322-7.322-7.322zM24.426 29.406c-3.676 0-6.657-2.98-6.657-6.657 0-1.498 0.501-2.875 1.335-3.987 0.186 0.115 0.381 0.26 0.578 0.454 0.863 0.851 0.288 1.701 0 2.268s0.863 1.418 0.863 1.418 0.863 0.567 1.725 0.851c0 0 0.575-0.284-0.575-0.851 0 0-0.863-0.851 0.288-1.134 0.862-0.284 0.287 0.567 0.862 0.567s0-0.851 1.15-1.418c1.151-0.567 0.863-0.851 1.438-0.851s0.575-1.134-0.575-1.134c-1.15 0-0.575 1.418-1.438 0.567s0.288-0.567 0.863-1.134c0.575-0.567-0.575-0.851-0.863-0.284 0 0-0.862-0.851-1.438 0.567 0 0-1.018-0.603-1.479-1.27 1.101-0.805 2.453-1.286 3.921-1.286 0.794 0 1.552 0.146 2.257 0.401-0.019 0.062-0.049 0.121-0.099 0.17-0.288 0.284-0.863 1.134 0.288 1.134 0 0-0.575 1.701 0.288 1.701s1.726-1.575 2.467-0.73c0.941 1.071-1.317 0.73-1.317 2.715 0 1.37 1.504 2.467 2.532 3.016-0.77 2.825-3.347 4.905-6.416 4.905z"></path>
</svg>
