<!-- Generated by IcoMoon.io -->
<svg version="1.1" xmlns="http://www.w3.org/2000/svg" width="32" height="32" viewBox="0 0 32 32">
<title>web-app</title>
<path d="M4.039 4.707c0 0.46-0.373 0.832-0.832 0.832s-0.832-0.373-0.832-0.832c0-0.46 0.373-0.832 0.832-0.832s0.832 0.373 0.832 0.832zM9.034 4.707c0 0.46-0.373 0.832-0.832 0.832s-0.832-0.373-0.832-0.832c0-0.46 0.373-0.832 0.832-0.832s0.832 0.373 0.832 0.832zM6.536 4.707c0 0.46-0.373 0.832-0.832 0.832s-0.832-0.373-0.832-0.832c0-0.46 0.373-0.832 0.832-0.832s0.832 0.373 0.832 0.832zM1.967 24.327c-0.543 0-0.983-0.44-0.983-0.983v-15.732h25.565v4.469c0.337 0.139 0.666 0.295 0.983 0.469v-8.87c0-1.086-0.88-1.966-1.966-1.966h-23.599c-1.086 0-1.966 0.881-1.966 1.966v19.665c0 1.086 0.88 1.966 1.966 1.966h11.669c-0.141-0.319-0.266-0.647-0.374-0.983h-11.295zM0.984 3.678c0-0.543 0.44-0.983 0.983-0.983h23.599c0.543 0 0.983 0.441 0.983 0.983v2.95h-25.565v-2.95zM24.776 23.411c-0.453-0.335-0.144-0.483-1.321-1.004-1.629-0.721-2.642 0-2.642 1.004 0 2.008 1.321 2.343 1.321 2.343-0.331 1.673 0 2.342 0.33 2.677s0.555 0.832 0.853 0.67c0.298-0.163 0.468-2.343 1.458-3.347s0.595-1.902 0-2.343zM22.755 12.301c-4.967 0-8.993 4.026-8.993 8.993s4.026 8.993 8.993 8.993 8.993-4.026 8.993-8.993-4.026-8.993-8.993-8.993zM22.755 29.47c-4.515 0-8.176-3.66-8.176-8.176 0-1.839 0.615-3.531 1.64-4.897 0.229 0.141 0.468 0.319 0.71 0.558 1.060 1.045 0.353 2.090 0 2.786s1.060 1.741 1.060 1.741 1.060 0.697 2.119 1.045c0 0 0.706-0.348-0.706-1.045 0 0-1.060-1.045 0.353-1.393 1.059-0.348 0.353 0.697 1.059 0.697s0-1.045 1.413-1.741c1.413-0.696 1.060-1.045 1.766-1.045s0.706-1.393-0.706-1.393c-1.413 0-0.706 1.741-1.766 0.696s0.354-0.696 1.060-1.393c0.706-0.696-0.706-1.045-1.060-0.348 0 0-1.059-1.045-1.765 0.696 0 0-1.25-0.741-1.816-1.56 1.352-0.989 3.013-1.579 4.816-1.579 0.975 0 1.905 0.179 2.772 0.492-0.024 0.076-0.060 0.148-0.122 0.209-0.353 0.349-1.060 1.393 0.353 1.393 0 0-0.706 2.089 0.353 2.089s2.119-1.934 3.031-0.897c1.155 1.315-1.618 0.897-1.618 3.335 0 1.683 1.847 3.030 3.11 3.705-0.946 3.47-4.111 6.025-7.881 6.025z"></path>
</svg>
