<!-- Generated by IcoMoon.io -->
<svg version="1.1" xmlns="http://www.w3.org/2000/svg" width="32" height="32" viewBox="0 0 32 32">
<title>webinar</title>
<path d="M29.714 1.143h-27.428c-1.262 0-2.286 1.024-2.286 2.286v20.572c0 1.262 1.023 2.286 2.286 2.286h11.428v3.428h-2.286c-0.316 0-0.572 0.256-0.572 0.572s0.256 0.572 0.572 0.572h9.143c0.316 0 0.572-0.256 0.572-0.572s-0.256-0.572-0.572-0.572h-2.286v-3.428h11.428c1.262 0 2.286-1.023 2.286-2.286v-20.572c0-1.262-1.023-2.286-2.285-2.286zM17.143 29.714h-2.286v-3.428h2.286v3.428zM30.857 24c0 0.631-0.512 1.143-1.143 1.143h-27.429c-0.631 0-1.143-0.512-1.143-1.143v-2.286h29.714v2.286zM30.857 20.572h-29.715v-17.143c0-0.631 0.512-1.143 1.143-1.143h27.428c0.631 0 1.143 0.512 1.143 1.143v17.143zM13.105 7.913v9.419c0 0.388 0.432 0.62 0.756 0.406l7.103-4.709c0.291-0.193 0.291-0.619 0-0.812l-7.102-4.709c-0.324-0.215-0.756 0.018-0.756 0.406z"></path>
</svg>
