<!-- Generated by IcoMoon.io -->
<svg version="1.1" xmlns="http://www.w3.org/2000/svg" width="32" height="32" viewBox="0 0 32 32">
<title>website</title>
<path d="M15.874 0.126c-6.81 0-12.331 5.521-12.331 12.331 0 6.621 5.219 12.022 11.767 12.317v3.432c-0.768 0.234-1.327 0.948-1.327 1.793 0 1.035 0.839 1.875 1.875 1.875s1.875-0.839 1.875-1.875c0-0.836-0.547-1.543-1.302-1.785v-3.441c6.552-0.291 11.775-5.693 11.775-12.317-0-6.81-5.521-12.331-12.331-12.331zM27.305 12.017h-4.834c-0.038-2.003-0.333-3.881-0.824-5.529 1.049-0.442 1.976-0.998 2.752-1.646 1.718 1.92 2.802 4.418 2.907 7.174zM23.796 4.217c-0.682 0.561-1.494 1.049-2.417 1.441-0.646-1.818-1.545-3.297-2.603-4.266 1.918 0.502 3.634 1.494 5.020 2.825zM16.315 1.052c1.773 0.27 3.315 2.157 4.268 4.921-1.283 0.442-2.732 0.698-4.268 0.742v-5.663zM16.315 7.595c1.624-0.044 3.16-0.318 4.529-0.791 0.441 1.549 0.709 3.319 0.745 5.212h-5.274v-4.422zM16.315 12.897h5.274c-0.036 1.893-0.304 3.664-0.745 5.212-1.369-0.472-2.905-0.747-4.529-0.791v-4.422zM15.434 12.897v4.422c-1.624 0.044-3.16 0.318-4.529 0.791-0.441-1.548-0.709-3.319-0.745-5.212h5.274zM10.16 12.017c0.036-1.893 0.304-3.664 0.745-5.212 1.369 0.472 2.905 0.747 4.529 0.791v4.422h-5.274zM15.434 1.052v5.663c-1.536-0.043-2.985-0.3-4.268-0.742 0.952-2.764 2.495-4.65 4.268-4.921zM12.973 1.392c-1.058 0.969-1.956 2.448-2.603 4.266-0.923-0.392-1.735-0.88-2.417-1.441 1.386-1.331 3.101-2.323 5.020-2.825zM7.349 4.843c0.775 0.648 1.703 1.204 2.752 1.646-0.491 1.648-0.786 3.526-0.824 5.529h-4.834c0.105-2.756 1.189-5.254 2.907-7.174zM4.443 12.897h4.834c0.038 2.003 0.333 3.882 0.824 5.529-1.049 0.441-1.976 0.997-2.752 1.645-1.718-1.919-2.801-4.418-2.906-7.174zM7.953 20.697c0.682-0.561 1.494-1.049 2.417-1.441 0.646 1.818 1.545 3.297 2.603 4.266-1.918-0.502-3.634-1.494-5.020-2.825zM11.166 18.942c1.283-0.442 2.732-0.698 4.268-0.742v5.663c-1.773-0.27-3.315-2.157-4.268-4.921zM16.315 23.863v-5.663c1.536 0.044 2.986 0.3 4.268 0.742-0.952 2.764-2.495 4.651-4.268 4.921zM18.776 23.522c1.058-0.969 1.956-2.448 2.603-4.266 0.923 0.392 1.735 0.88 2.417 1.441-1.386 1.331-3.101 2.323-5.020 2.825zM24.4 20.071c-0.776-0.648-1.703-1.204-2.752-1.645 0.491-1.648 0.786-3.526 0.824-5.529h4.834c-0.105 2.756-1.189 5.254-2.906 7.174zM9.121 29.365c-0.309 0-0.56 0.251-0.56 0.56s0.251 0.56 0.56 0.56h4.283c-0.031-0.157-0.049-0.319-0.049-0.486 0-0.22 0.037-0.43 0.091-0.634h-4.325zM22.618 29.365h-4.35c0.054 0.203 0.091 0.414 0.091 0.634 0 0.167-0.018 0.329-0.049 0.486h4.308c0.31 0 0.561-0.251 0.561-0.56s-0.251-0.56-0.561-0.56z"></path>
</svg>
