<!-- Generated by IcoMoon.io -->
<svg version="1.1" xmlns="http://www.w3.org/2000/svg" width="32" height="32" viewBox="0 0 32 32">
<title>white-paper1</title>
<path d="M30.172 0.982h-24.105c-1.008 0-1.828 0.82-1.828 1.828v6.252h-2.453c-0.967 0-1.754 0.787-1.754 1.754l-0.010 14.336c-0.012 0.090-0.023 0.179-0.023 0.272 0 3.085 2.509 5.594 5.594 5.594 0.078 0 0.154-0.008 0.285-0.024l24.292 0.024c1.008 0 1.828-0.82 1.828-1.828v-26.381c0-1.008-0.82-1.828-1.828-1.828zM30.802 29.19c0 0.347-0.283 0.629-0.629 0.629l-24.036 0.005-0.164-0.042-0.102 0.006c-0.059 0.004-0.116 0.012-0.277 0.030-2.424 0-4.396-1.972-4.384-4.504 0.008-0.060 0.016-0.12 0.021-0.22v-14.28c0-0.307 0.249-0.556 0.555-0.556h2.453v14.753c0 0.331 0.268 0.599 0.599 0.599s0.599-0.268 0.599-0.599v-22.203c0-0.347 0.283-0.629 0.629-0.629h24.104c0.347 0 0.629 0.283 0.629 0.629v26.381zM16.281 14.109h-5.471c-0.975 0-1.769-0.794-1.769-1.769v-5.471c0-0.975 0.794-1.769 1.769-1.769h5.471c0.975 0 1.769 0.794 1.769 1.769v5.471c0 0.976-0.794 1.77-1.769 1.77zM10.81 6.298c-0.315 0-0.571 0.256-0.571 0.571v5.471c0 0.315 0.256 0.571 0.571 0.571h5.471c0.315 0 0.571-0.256 0.571-0.571v-5.471c0-0.315-0.256-0.571-0.571-0.571h-5.471zM27.167 6.298h-6.836c-0.331 0-0.599-0.268-0.599-0.599s0.268-0.599 0.599-0.599h6.836c0.331 0 0.599 0.268 0.599 0.599s-0.268 0.599-0.599 0.599zM27.167 10.369h-6.836c-0.331 0-0.599-0.268-0.599-0.599s0.268-0.599 0.599-0.599h6.836c0.331 0 0.599 0.268 0.599 0.599s-0.268 0.599-0.599 0.599zM27.167 14.441h-6.836c-0.331 0-0.599-0.268-0.599-0.599s0.268-0.599 0.599-0.599h6.836c0.331 0 0.599 0.268 0.599 0.599s-0.268 0.599-0.599 0.599zM27.167 18.512h-17.527c-0.331 0-0.599-0.268-0.599-0.599s0.268-0.599 0.599-0.599h17.527c0.331 0 0.599 0.268 0.599 0.599s-0.268 0.599-0.599 0.599zM27.167 22.584h-17.527c-0.331 0-0.599-0.268-0.599-0.599s0.268-0.599 0.599-0.599h17.527c0.331 0 0.599 0.268 0.599 0.599s-0.268 0.599-0.599 0.599zM27.167 26.655h-17.527c-0.331 0-0.599-0.268-0.599-0.599s0.268-0.599 0.599-0.599h17.527c0.331 0 0.599 0.268 0.599 0.599s-0.268 0.599-0.599 0.599z"></path>
</svg>
