<!-- Generated by IcoMoon.io -->
<svg version="1.1" xmlns="http://www.w3.org/2000/svg" width="32" height="32" viewBox="0 0 32 32">
<title>wireless</title>
<path d="M30.662 21.997h-13.994v-10.778c0.784-0.281 1.334-1.018 1.334-1.884 0-1.103-0.894-1.997-1.997-1.997s-1.997 0.894-1.997 1.997c0 0.865 0.551 1.602 1.32 1.879l0.014 0.004v10.778h-14.006c0 0 0 0 0 0-0.738 0-1.336 0.597-1.338 1.334v6.669c0.002 0.737 0.6 1.334 1.338 1.334 0 0 0 0 0 0h29.325c0 0 0 0 0 0 0.738 0 1.336-0.597 1.338-1.334v-6.669c0-0.001 0-0.002 0-0.003 0-0.735-0.596-1.331-1.331-1.331-0.002 0-0.005 0-0.007 0h0zM16 8.662c0.369 0 0.669 0.299 0.669 0.669s-0.299 0.669-0.669 0.669c-0.369 0-0.669-0.299-0.669-0.669 0-0.001 0-0.002 0-0.003v0c0.002-0.368 0.301-0.666 0.669-0.666 0 0 0 0 0 0v0zM30.662 29.994h-29.325v-6.669h29.325zM19.334 27.328c0.369 0 0.669-0.299 0.669-0.669s-0.299-0.669-0.669-0.669c-0.369 0-0.669 0.299-0.669 0.669v0c0.002 0.369 0.3 0.667 0.669 0.669h0zM15.331 27.328c0.369 0 0.669-0.299 0.669-0.669s-0.299-0.669-0.669-0.669c-0.369 0-0.669 0.299-0.669 0.669v0c0.002 0.369 0.3 0.667 0.669 0.669h0zM23.334 27.328c0.001 0 0.002 0 0.003 0 0.369 0 0.669-0.299 0.669-0.669s-0.299-0.669-0.669-0.669c-0.369 0-0.669 0.299-0.669 0.669v0c0.002 0.368 0.298 0.665 0.665 0.669h0zM27.331 27.328c0.369 0 0.669-0.299 0.669-0.669s-0.299-0.669-0.669-0.669c-0.369 0-0.669 0.299-0.669 0.669v0c0 0.369 0.299 0.669 0.669 0.669v0zM6 28.662c1.103 0 1.997-0.894 1.997-1.997s-0.894-1.997-1.997-1.997c-1.101 0-1.993 0.89-1.997 1.99v0c0 0.002 0 0.004 0 0.006 0 1.103 0.894 1.997 1.997 1.997 0 0 0 0 0 0v0zM6 25.997c0.369 0 0.669 0.299 0.669 0.669s-0.299 0.669-0.669 0.669c-0.369 0-0.669-0.299-0.669-0.669v0c0.002-0.369 0.3-0.667 0.669-0.669h0zM19.866 12.16c0.017 0.356 0.31 0.639 0.669 0.64h0c0.238-0.004 0.446-0.129 0.565-0.317l0.002-0.003c0.568-0.9 0.906-1.995 0.906-3.17s-0.337-2.269-0.92-3.194l0.015 0.025c-0.121-0.189-0.33-0.312-0.568-0.312-0.371 0-0.672 0.301-0.672 0.672 0 0.143 0.045 0.276 0.121 0.385l-0.001-0.002c0.428 0.693 0.682 1.534 0.682 2.434s-0.254 1.74-0.693 2.454l0.012-0.020c-0.073 0.099-0.117 0.224-0.117 0.359 0 0.018 0.001 0.035 0.002 0.053l-0-0.002zM23.104 14.298c-0.072 0.104-0.115 0.233-0.115 0.371 0 0.002 0 0.004 0 0.007v-0c0 0.368 0.298 0.666 0.666 0.666v0c0.004 0 0.008 0 0.012 0 0.236 0 0.442-0.127 0.553-0.317l0.002-0.003c1.117-1.59 1.786-3.567 1.786-5.699s-0.668-4.109-1.807-5.731l0.021 0.032c-0.119-0.191-0.328-0.316-0.566-0.316-0.368 0-0.666 0.298-0.666 0.666 0 0.002 0 0.004 0 0.006v-0c-0 0.005-0 0.011-0 0.017 0 0.134 0.043 0.258 0.117 0.359l-0.001-0.002c0.986 1.389 1.576 3.118 1.576 4.986 0 1.216-0.25 2.373-0.701 3.423l0.022-0.056c-0.268 0.61-0.568 1.134-0.915 1.621l0.019-0.028zM26.15 1.747c1.57 2.085 2.515 4.718 2.515 7.572 0 0.003 0 0.006 0 0.009v-0.001c0 0.010 0 0.021 0 0.033 0 1.769-0.366 3.453-1.027 4.979l0.031-0.081c-0.433 1.012-0.942 1.883-1.543 2.682l0.023-0.032s0 0 0 0c-0.090 0.109-0.144 0.251-0.144 0.404 0 0.001 0 0.001 0 0.002v-0c0.002 0.369 0.3 0.667 0.669 0.669h0c0.224-0 0.423-0.112 0.543-0.283l0.001-0.002c1.728-2.303 2.767-5.208 2.767-8.357 0-3.16-1.046-6.075-2.812-8.418l0.026 0.036c-0.122-0.174-0.321-0.287-0.547-0.287-0.368 0-0.666 0.298-0.666 0.666 0 0.001 0 0.001 0 0.002v-0c0 0.002-0 0.003-0 0.005 0 0.154 0.054 0.295 0.145 0.406l-0.001-0.001cl0.019-0.003zM11.472 12.8c0.37-0.001 0.67-0.302 0.67-0.672 0-0.141-0.043-0.272-0.118-0.38l0.001 0.002c-0.428-0.693-0.682-1.534-0.682-2.434s0.254-1.74 0.693-2.454l-0.012 0.020c0.073-0.106 0.116-0.237 0.116-0.378 0-0.37-0.3-0.671-0.67-0.672h-0c-0.238 0.003-0.445 0.129-0.562 0.317l-0.002 0.003c-0.57 0.9-0.909 1.995-0.909 3.17s0.339 2.27 0.923 3.194l-0.014-0.025c0.114 0.186 0.316 0.307 0.547 0.307 0.006 0 0.012-0 0.017-0l-0.001 0zM7.786 15.040v0c0.113 0.193 0.319 0.32 0.554 0.32 0.004 0 0.008-0 0.013-0h-0.001c0.368 0 0.666-0.298 0.666-0.666v0c0-0.005 0-0.011 0-0.017 0-0.135-0.043-0.26-0.117-0.362l0.001 0.002c-0.327-0.462-0.624-0.987-0.864-1.543l-0.022-0.057c-0.431-0.996-0.682-2.156-0.682-3.374s0.251-2.378 0.703-3.431l-0.022 0.057c0.259-0.612 0.556-1.138 0.904-1.625l-0.017 0.025c0.072-0.102 0.115-0.229 0.115-0.366 0-0.003-0-0.006-0-0.008v0c0-0.002 0-0.004 0-0.006 0-0.368-0.298-0.666-0.666-0.666-0.238 0-0.447 0.125-0.565 0.313l-0.002 0.003c-1.117 1.59-1.786 3.567-1.786 5.699s0.668 4.109 1.807 5.731l-0.021-0.032zM4.8 17.709c0.122 0.174 0.321 0.287 0.547 0.287 0.368 0 0.666-0.298 0.666-0.666 0-0.002 0-0.004-0-0.005v0c0-0.001 0-0.001 0-0.002 0-0.154-0.054-0.295-0.145-0.406l0.001 0.001s0 0 0 0c-0.584-0.766-1.093-1.638-1.49-2.57l-0.030-0.080c-0.629-1.455-0.995-3.15-0.995-4.93s0.366-3.474 1.027-5.012l-0.032 0.083c0.431-1.013 0.94-1.886 1.543-2.685l-0.023 0.032c0.090-0.111 0.144-0.254 0.144-0.41v-0c0-0.002 0-0.005 0-0.008 0-0.368-0.298-0.666-0.666-0.666-0.226 0-0.426 0.113-0.546 0.285l-0.001 0.002c-1.738 2.307-2.784 5.221-2.784 8.379s1.046 6.072 2.809 8.415l-0.026-0.036z"></path>
</svg>
