<?xml version="1.0" encoding="UTF-8"?>
<svg width="18px" height="18px" viewBox="0 0 18 18" version="1.1" xmlns="http://www.w3.org/2000/svg" xmlns:xlink="http://www.w3.org/1999/xlink">
    <!-- Generator: Sketch 52.4 (67378) - http://www.bohemiancoding.com/sketch -->
    <title>alert</title>
    <desc>Created with Sketch.</desc>
    <g id="alert" stroke="none" stroke-width="1" fill="none" fill-rule="evenodd">
        <g id="Icons-/-Alert">
            <g id="alert" transform="translate(2.000000, 2.000000)">
                <path d="M6.61,10.22 L6.44,5.5 L7.55,5.5 L7.38,10.22 L6.61,10.22 Z M6.38,11.65 C6.38,11.31 6.65,11.03 6.99,11.03 C7.33,11.03 7.62,11.31 7.62,11.65 C7.62,11.98 7.33,12.27 6.99,12.27 C6.65,12.27 6.38,11.98 6.38,11.65 Z" id="!" fill="#FFFFFF" fill-rule="nonzero"></path>
                <g id="Icons-/-State-Icons-/-Warning-/-Yellow">
                    <circle id="Oval-2" fill="#EEB91C" cx="7" cy="7" r="7"></circle>
                    <path d="M6.57533327,8.16199887 L7.42466639,8.16199887 L7.59266634,3.84066667 L6.39799999,3.84066667 L6.57533327,8.16199887 Z M6.35133333,9.51533184 C6.35133333,9.86066509 6.64066659,10.1593316 6.99533316,10.1593316 C7.34999974,10.1593316 7.64866633,9.86066509 7.64866633,9.51533184 C7.64866633,9.16066528 7.34999974,8.86199868 6.99533316,8.86199868 C6.64066659,8.86199868 6.35133333,9.16066528 6.35133333,9.51533184 Z" id="!" fill="#FFFFFF" fill-rule="nonzero"></path>
                </g>
            </g>
        </g>
    </g>
</svg>