<?xml version="1.0" encoding="utf-8"?>
<!-- Generator: Adobe Illustrator 23.0.3, SVG Export Plug-In . SVG Version: 6.00 Build 0)  -->
<svg version="1.1" id="Layer_1" xmlns="http://www.w3.org/2000/svg" xmlns:xlink="http://www.w3.org/1999/xlink" x="0px" y="0px"
	 viewBox="0 0 44 36" style="enable-background:new 0 0 44 36;" xml:space="preserve">
<style type="text/css">
	.st0{fill:#FFFFFF;}
</style>
<g id="_x37_14-camera-toolbar_x40_2x.png_6_">
	<g>
		<path class="st0" d="M40,4h-7c-2,0-4-4-6-4h-2c0,0-2.8,0-6,0h-2c-2,0-4,4-6,4H4C1.8,4,0,5.8,0,8v24c0,2.2,1.8,4,4,4h36
			c2.2,0,4-1.8,4-4V8C44,5.8,42.2,4,40,4z M42,32c0,1.1-0.9,2-2,2H4c-1.1,0-2-0.9-2-2V8c0-1.1,0.9-2,2-2h7c3,0,5-4,6-4h2
			c0,0,5,0,8,0c1,0,3,4,6,4h7c1.1,0,2,0.9,2,2V32z M22,8c-5.5,0-10,4.5-10,10s4.5,10,10,10s10-4.5,10-10S27.5,8,22,8z M22,26
			c-4.4,0-8-3.6-8-8s3.6-8,8-8s8,3.6,8,8S26.4,26,22,26z"/>
	</g>
</g>
</svg>
