<?xml version="1.0" encoding="UTF-8"?>
<svg width="18px" height="18px" viewBox="0 0 18 18" version="1.1" xmlns="http://www.w3.org/2000/svg" xmlns:xlink="http://www.w3.org/1999/xlink">
    <!-- Generator: Sketch 48.2 (47327) - http://www.bohemiancoding.com/sketch -->
    <title>error</title>
    <desc>Created with Sketch.</desc>
    <defs></defs>
    <g id="Page-1" stroke="none" stroke-width="1" fill="none" fill-rule="evenodd">
        <g id="error" fill-rule="nonzero">
            <path d="M9.0004016,16.5 L2.26415119,16.5 C0.908387427,16.5 0.0602318976,15.0500886 0.738916956,13.8904767 L4.10583739,8.12969622 L7.47436419,2.36970891 C8.15224607,1.21009703 9.84775395,1.21009703 10.5256358,2.36970891 L13.8941626,8.12969622 L17.261083,13.8904767 C17.9397681,15.0500886 17.0916126,16.5 15.7358488,16.5 L9.0004016,16.5 Z" id="Stroke-3" fill="#DE3602"></path>
            <path d="M8.61,12.22 L8.44,7.5 L9.55,7.5 L9.38,12.22 L8.61,12.22 Z M8.38,13.65 C8.38,13.31 8.65,13.03 8.99,13.03 C9.33,13.03 9.62,13.31 9.62,13.65 C9.62,13.98 9.33,14.27 8.99,14.27 C8.65,14.27 8.38,13.98 8.38,13.65 Z" id="!" fill="#FFFFFF"></path>
        </g>
    </g>
</svg>