<?xml version="1.0" encoding="UTF-8"?>
<svg width="52px" height="70px" viewBox="0 0 52 70" version="1.1" xmlns="http://www.w3.org/2000/svg" xmlns:xlink="http://www.w3.org/1999/xlink">
    <!-- Generator: Sketch 57.1 (83088) - https://sketch.com -->
    <title>Group 17</title>
    <desc>Created with Sketch.</desc>
    <g id="Page-1" stroke="none" stroke-width="1" fill="none" fill-rule="evenodd">
        <g id="Group-17" transform="translate(1.000000, 1.000000)">
            <path d="M50,7.99282051 L50,2.80512821 C50,1.81230769 49.1942157,1 48.2093683,1 L1.79063174,1 C0.805784283,1 0,1.81230769 0,2.80512821 L0,7.99282051 C0,8.98564103 0.805784283,9.79794872 1.79063174,9.79794872 L3.66604718,9.79794872 C3.4781665,12.517265 3.32487757,22.4386325 10.4087253,28.2806838 C10.4087253,28.2806838 13.3395282,31.2044444 20.010988,33.8410256 C20.010988,33.8410256 21.596104,35.9401709 20.010988,36.7340171 C18.4258719,37.5278632 10.1577655,40.0482051 6.51003161,47.2331624 C2.86297598,54.4174359 3.73048279,59.7993162 3.73048279,59.7993162 L3.73048279,60.202735 L1.79063174,60.202735 C0.805784283,60.202735 0,61.0150427 0,62.0078632 L0,67.1948718 C0,68.1876923 0.805784283,69 1.79063174,69 L48.2093683,69 C49.1942157,69 50,68.1876923 50,67.1948718 L50,62.0078632 C50,61.0150427 49.1942157,60.202735 48.2093683,60.202735 L45.7587802,60.202735 L45.6604311,60.202735 C45.9798961,58.0933333 46.7212448,49.528547 39.2460355,42.3018803 C39.2460355,42.3018803 35.4918133,38.6560684 30.6421857,37.2905983 C30.6421857,37.2905983 27.9196115,35.6892308 29.7651831,33.8410256 C31.6107546,31.9921368 35.6857984,32.2711111 38.9333532,28.5405128 C42.1802298,24.8099145 46.2159339,20.585641 45.6895967,9.79794872 L48.2093683,9.79794872 C49.1942157,9.79794872 50,8.98564103 50,7.99282051" id="Fill-1" fill="#FFFFFF"></path>
            <path d="M26.4054697,37 L24.5945303,37 C24.2675386,37 24,37.2675917 24,37.5946482 L24,39.4053518 C24,39.733003 24.2675386,40 24.5945303,40 L26.4054697,40 C26.7324614,40 27,39.733003 27,39.4053518 L27,37.5946482 C27,37.2675917 26.7324614,37 26.4054697,37" id="Fill-3" fill="#FF6161"></path>
            <path d="M26.4054697,42 L24.5945303,42 C24.2675386,42 24,42.2675917 24,42.5946482 L24,44.4053518 C24,44.733003 24.2675386,45 24.5945303,45 L26.4054697,45 C26.7324614,45 27,44.733003 27,44.4053518 L27,42.5946482 C27,42.2675917 26.7324614,42 26.4054697,42" id="Fill-5" fill="#FF6161"></path>
            <path d="M26.4054697,48 L24.5945303,48 C24.2675386,48 24,48.2675917 24,48.5946482 L24,50.4053518 C24,50.733003 24.2675386,51 24.5945303,51 L26.4054697,51 C26.7324614,51 27,50.733003 27,50.4053518 L27,48.5946482 C27,48.2675917 26.7324614,48 26.4054697,48" id="Fill-7" fill="#FF6161"></path>
            <path d="M26.4054697,53 L24.5945303,53 C24.2675386,53 24,53.2675917 24,53.5946482 L24,55.4053518 C24,55.733003 24.2675386,56 24.5945303,56 L26.4054697,56 C26.7324614,56 27,55.733003 27,55.4053518 L27,53.5946482 C27,53.2675917 26.7324614,53 26.4054697,53" id="Fill-9" fill="#FF6161"></path>
            <path d="M49.0232918,8 L0.976708222,8 C0.4395187,8 0,7.59707757 0,7.10461682 L0,0.89538318 C0,0.402922431 0.4395187,0 0.976708222,0 L49.0232918,0 C49.5604813,0 50,0.402922431 50,0.89538318 L50,7.10461682 C50,7.59707757 49.5604813,8 49.0232918,8 Z" id="Stroke-11" stroke="#FF6161" stroke-width="1.5"></path>
            <path d="M48.2093683,68 L1.78995347,68 C0.805784283,68 0,67.2613089 0,66.3584642 L0,61.640914 C0,60.7386911 0.805784283,60 1.78995347,60 L3.86478017,60 L45.7581019,60 L48.2093683,60 C49.1942157,60 50,60.7386911 50,61.640914 L50,66.3584642 C50,67.2613089 49.1942157,68 48.2093683,68 Z" id="Stroke-13" stroke="#FF6161" stroke-width="1.5"></path>
            <path d="M32.2772228,31.9557232 C30.9110564,32.3626794 29.9426347,33.0382268 29.9426347,34.2523129 C29.9426347,35.4670772 31.0653122,36.2409724 32.243328,36.5807808 M18.9877097,36.5075287 C20.3268986,36.169755 21.2309895,35.4725033 21.2309895,34.2774085 C21.2309895,33.0829919 20.2217557,32.3436881 19.0520406,32.0601753 M19.373695,36.3908679 C10.4842752,38.9777531 4,47.0483735 4,56.603706 C4,57.4142272 4.0463459,58.2132179 4.13765423,59 M46.8623458,59 C46.9529624,58.2132179 47,57.4142272 47,56.603706 C47,47.2498169 40.7861911,39.3182398 32.1859145,36.5624678 M32.1859145,31.9855666 C40.7861911,29.2284381 47,21.2975393 47,11.9436501 C47,10.9445726 46.9287518,9.9624515 46.7917893,9 M19.4055145,32.1659839 C10.4994933,29.5892726 4,21.510513 4,11.9436501 C4,10.9445726 4.07124817,9.9624515 4.20821067,9" id="Stroke-15" stroke="#FF6161" stroke-width="1.5"></path>
        </g>
    </g>
</svg>