<?xml version="1.0" encoding="utf-8"?>
<!-- Generator: Adobe Illustrator 23.0.3, SVG Export Plug-In . SVG Version: 6.00 Build 0)  -->
<svg version="1.1" id="Layer_1" xmlns="http://www.w3.org/2000/svg" xmlns:xlink="http://www.w3.org/1999/xlink" x="0px" y="0px"
	 viewBox="0 0 12.8 12.8" style="enable-background:new 0 0 12.8 12.8;" xml:space="preserve">
<style type="text/css">
	.st0{fill:#3d88ae;}
</style>
<g id="_x38_30-pencil-toolbar_x40_2x.png_2_">
	<g>
		<path class="st0" d="M12.7,3L12.7,3L9.8,0.1l0,0C9.8,0,9.7,0,9.6,0S9.5,0,9.4,0.1L1.3,8.2c0,0-0.1,0.1-0.1,0.1l0,0L0,12.5l0,0
			c0,0,0,0.1,0,0.1c0,0.2,0.1,0.3,0.3,0.3c0,0,0.1,0,0.1,0l0,0l4.1-1.2l0,0c0.1,0,0.1,0,0.1-0.1l8.1-8.1c0.1,0,0.1-0.1,0.1-0.2
			C12.8,3.1,12.8,3,12.7,3z M4.1,11.1l-3.4,1l1-3.4h1v1.2c0,0,0,0,0,0c0,0.2,0.1,0.3,0.3,0.3c0,0,0,0,0,0h1.1V11.1z M4.7,10.7V9.9
			l0,0c0-0.2-0.1-0.3-0.3-0.3l0,0H3.2V8.4l0,0c0-0.2-0.1-0.3-0.3-0.3l0,0H2.2l5.7-5.7l2.5,2.5L4.7,10.7z M10.8,4.5L8.3,2l1.3-1.3
			l2.5,2.5L10.8,4.5z"/>
	</g>
</g>
</svg>
