<?xml version="1.0" encoding="UTF-8"?>
<svg width="24px" height="24px" viewBox="0 0 24 24" version="1.1" xmlns="http://www.w3.org/2000/svg" xmlns:xlink="http://www.w3.org/1999/xlink">
    <!-- Generator: Sketch 49.3 (51167) - http://www.bohemiancoding.com/sketch -->
    <title>sms</title>
    <desc>Created with Sketch.</desc>
    <defs></defs>
    <g id="sms" stroke="none" stroke-width="1" fill="none" fill-rule="evenodd">
        <path d="M11.9284286,20.00726 C10.9667143,20.00726 10.0384286,19.902425 9.14914286,19.724075 C7.479,22.06742 4.44642857,22.472405 4.44642857,22.472405 C5.568,21.15566 5.91514286,19.77758 5.952,18.64484 C2.88728571,17.119295 0.852,14.462315 0.852,11.432105 C0.852,6.69626 5.811,2.857385 11.9284286,2.857385 C18.0458571,2.857385 23.0048571,6.69626 23.0048571,11.432105 C23.0048571,16.16795 18.0458571,20.00726 11.9284286,20.00726 M11.9284286,2 C5.34042857,2 0,6.22298 0,11.432105 C0,14.64893 2.03914286,17.486 5.148,19.188155 C4.947,20.40572 4.26771429,21.886895 2.556,23.437235 C2.556,23.437235 7.02385714,23.43506 9.489,20.66585 C10.2767143,20.795045 11.0922857,20.864645 11.9284286,20.864645 C18.5164286,20.864645 23.8568571,16.641665 23.8568571,11.432105 C23.8568571,6.22298 18.5164286,2 11.9284286,2" id="Icon-SMS" fill="#757575"></path>
    </g>
</svg>