<?xml version="1.0" encoding="UTF-8"?>
<svg width="50px" height="50px" viewBox="0 0 50 50" version="1.1" xmlns="http://www.w3.org/2000/svg" xmlns:xlink="http://www.w3.org/1999/xlink">
    <!-- Generator: Sketch 48.2 (47327) - http://www.bohemiancoding.com/sketch -->
    <title>spinner</title>
    <desc>Created with Sketch.</desc>
    <defs></defs>
    <g id="Page-1" stroke="none" stroke-width="1" fill="none" fill-rule="evenodd" opacity="0.857336957">
        <g id="spinner" fill="#21934C">
            <path d="M49.3162816,19.1686842 L46.6380353,23.817997 L42.693429,21.6745091 C41.1333411,13.3220652 33.8049693,7 25,7 C15.0588745,7 7,15.0588745 7,25 C7,34.9411255 15.0588745,43 25,43 C33.0914483,43 39.9359181,37.6610506 42.2028036,30.3137577 L45.2228719,33.0139671 L49.3275444,30.7839724 C46.7177209,41.8023161 36.8161963,50 25,50 C11.1928813,50 0,38.8071187 0,25 C0,11.1928813 11.1928813,0 25,0 C36.7992694,0 46.6893488,8.17421412 49.3162821,19.1686863 Z" id="Combined-Shape"></path>
        </g>
    </g>
</svg>