<?xml version="1.0" encoding="UTF-8"?>
<svg width="18px" height="18px" viewBox="0 0 18 18" version="1.1" xmlns="http://www.w3.org/2000/svg" xmlns:xlink="http://www.w3.org/1999/xlink">
    <!-- Generator: Sketch 48.2 (47327) - http://www.bohemiancoding.com/sketch -->
    <title>warning</title>
    <desc>Created with Sketch.</desc>
    <defs></defs>
    <g id="Page-1" stroke="none" stroke-width="1" fill="none" fill-rule="evenodd">
        <g id="warning">
            <path d="M8.61,12.22 L8.44,7.5 L9.55,7.5 L9.38,12.22 L8.61,12.22 Z M8.38,13.65 C8.38,13.31 8.65,13.03 8.99,13.03 C9.33,13.03 9.62,13.31 9.62,13.65 C9.62,13.98 9.33,14.27 8.99,14.27 C8.65,14.27 8.38,13.98 8.38,13.65 Z" id="!" fill="#FFFFFF" fill-rule="nonzero"></path>
            <g id="Icons-/-State-Icons-/-Warning-/-Yellow" transform="translate(2.000000, 2.000000)">
                <path d="M6.57533333,8.162 L7.42466667,8.162 L7.59266667,3.84066667 L6.398,3.84066667 L6.57533333,8.162 Z M6.35133333,9.51533333 C6.35133333,9.86066667 6.64066667,10.1593333 6.99533333,10.1593333 C7.35,10.1593333 7.64866667,9.86066667 7.64866667,9.51533333 C7.64866667,9.16066667 7.35,8.862 6.99533333,8.862 C6.64066667,8.862 6.35133333,9.16066667 6.35133333,9.51533333 Z" id="!" fill="#EEB91C"></path>
                <circle id="Oval-2" stroke="#EEB91C" cx="7" cy="7" r="6.5"></circle>
            </g>
        </g>
    </g>
</svg>