<?xml version="1.0" encoding="UTF-8"?>
<svg width="24px" height="24px" viewBox="0 0 24 24" version="1.1" xmlns="http://www.w3.org/2000/svg" xmlns:xlink="http://www.w3.org/1999/xlink">
    <!-- Generator: Sketch 49.3 (51167) - http://www.bohemiancoding.com/sketch -->
    <title>email</title>
    <desc>Created with Sketch.</desc>
    <defs></defs>
    <g id="email" stroke="none" stroke-width="1" fill="none" fill-rule="evenodd">
        <path d="M23.1405957,18.3731613 L16.541617,11.7403871 L23.1405957,5.11535484 L23.1405957,18.3731613 Z M1.77497872,18.6286452 L8.03540426,12.336 L10.7964255,15.1086452 C11.4571915,15.7708387 12.5269787,15.7708387 13.187234,15.1086452 L15.948766,12.336 L22.2086809,18.6286452 L1.77497872,18.6286452 Z M0.856851064,5.12877419 L7.44204255,11.7403871 L0.856851064,18.3602581 L0.856851064,5.12877419 Z M22.2081702,4.8603871 L12.605617,14.5016774 C12.2670638,14.8423226 11.7171064,14.8423226 11.3780426,14.5016774 L1.77548936,4.8603871 L22.2081702,4.8603871 Z M23.1405957,4 L0.856851064,4 C0.384,4 0,4.38503226 0,4.8603871 L0,18.6286452 C0,19.104 0.384,19.4890323 0.856851064,19.4890323 L23.1405957,19.4890323 C23.6139574,19.4890323 23.9974468,19.104 23.9974468,18.6286452 L23.9974468,4.8603871 C23.9974468,4.38503226 23.6139574,4 23.1405957,4 Z" id="Icon-Email" fill="#757575"></path>
    </g>
</svg>