<?xml version="1.0" encoding="UTF-8"?>
<svg width="100px" height="100px" viewBox="0 0 100 100" version="1.1" xmlns="http://www.w3.org/2000/svg" xmlns:xlink="http://www.w3.org/1999/xlink">
    <!-- Generator: Sketch 49.2 (51160) - http://www.bohemiancoding.com/sketch -->
    <title>ghost-timed-out</title>
    <desc>Created with Sketch.</desc>
    <defs></defs>
    <g id="ghost-timed-out" stroke="none" stroke-width="1" fill="none" fill-rule="evenodd">
        <g>
            <rect id="Rectangle-6" x="0" y="0" width="100" height="100"></rect>
            <g id="Icon-Timeout" transform="translate(14.000000, 14.000000)" fill="#EEB91C">
                <path d="M36,69.3674731 C17.5378204,69.3674731 2.57130539,54.4138922 2.57130539,35.9685269 C2.57130539,17.5227305 17.5378204,2.5691497 36,2.5691497 C54.4621796,2.5691497 69.4286946,17.5227305 69.4286946,35.9685269 C69.4286946,54.4138922 54.4621796,69.3674731 36,69.3674731 M36,0 C16.1176527,0 0,16.1038563 0,35.9685269 C0,55.8327665 16.1176527,71.9366228 36,71.9366228 C55.8819162,71.9366228 72,55.8327665 72,35.9685269 C72,16.1038563 55.8819162,0 36,0 M36,8.99223952 C35.289485,8.99223952 34.7143473,9.56780838 34.7143473,10.2765988 L34.7143473,34.6837365 L19.2856527,34.6837365 C18.5751377,34.6837365 18,35.2597365 18,35.9685269 C18,36.6786108 18.5751377,37.2533174 19.2856527,37.2533174 L36,37.2533174 C36.710515,37.2533174 37.2856527,36.6786108 37.2856527,35.9685269 L37.2856527,10.2765988 C37.2856527,9.56780838 36.710515,8.99223952 36,8.99223952" id="Page-1"></path>
            </g>
        </g>
    </g>
</svg>