<?xml version="1.0" encoding="UTF-8"?>
<svg width="100px" height="100px" viewBox="0 0 100 100" version="1.1" xmlns="http://www.w3.org/2000/svg" xmlns:xlink="http://www.w3.org/1999/xlink">
    <!-- Generator: Sketch 49.2 (51160) - http://www.bohemiancoding.com/sketch -->
    <title>ghost-error</title>
    <desc>Created with Sketch.</desc>
    <defs></defs>
    <g id="ghost-error" stroke="none" stroke-width="1" fill="none" fill-rule="evenodd">
        <g>
            <rect id="Rectangle-6" x="0" y="0" width="100" height="100"></rect>
            <path d="M52.5714286,57.7142857 C52.5714286,59.135 51.4194286,60.2857143 50,60.2857143 C48.5805714,60.2857143 47.4285714,59.135 47.4285714,57.7142857 L44.8571429,39.7142857 C44.8571429,38.2948571 46.0091429,37.1428571 47.4285714,37.1428571 L52.5714286,37.1428571 C53.9908571,37.1428571 55.1428571,38.2948571 55.1428571,39.7142857 L52.5714286,57.7142857 Z M50,70.5714286 C48.5805714,70.5714286 47.4285714,69.4207143 47.4285714,68 C47.4285714,66.5805714 48.5805714,65.4285714 50,65.4285714 C51.4194286,65.4285714 52.5714286,66.5805714 52.5714286,68 C52.5714286,69.4207143 51.4194286,70.5714286 50,70.5714286 Z M85.6657143,77.0398571 L85.6837143,77.0295714 L52.2152857,15.2355714 L52.1934286,15.2484286 C51.7434286,14.5052857 50.9347143,14 50,14 C49.0665714,14 48.2565714,14.5052857 47.8052857,15.2484286 L47.7847143,15.2355714 L14.3162857,77.0295714 L14.3342857,77.0398571 C14.1285714,77.4114286 14,77.8305714 14,78.2857143 C14,79.7064286 15.152,80.8571429 16.5714286,80.8571429 L83.4285714,80.8571429 C84.848,80.8571429 86,79.7064286 86,78.2857143 C86,77.8305714 85.8714286,77.4114286 85.6657143,77.0398571 Z" id="Page-1-Copy-5" stroke="#DE3602" stroke-width="2"></path>
        </g>
    </g>
</svg>