<?xml version="1.0" encoding="UTF-8"?>
<svg width="100px" height="100px" viewBox="0 0 100 100" version="1.1" xmlns="http://www.w3.org/2000/svg" xmlns:xlink="http://www.w3.org/1999/xlink">
    <!-- Generator: Sketch 52.4 (67378) - http://www.bohemiancoding.com/sketch -->
    <title>ghost-success</title>
    <desc>Created with Sketch.</desc>
    <g id="ghost-success" stroke="none" stroke-width="1" fill="none" fill-rule="evenodd">
        <g id="Rectangle-6">
            <rect x="0" y="0" width="100" height="100"></rect>
        </g>
        <polyline id="Page-1" stroke="#21934C" stroke-width="4" stroke-linecap="round" stroke-linejoin="round" points="31 52.0799504 42.7206263 63.8005767 67.6934932 40.8675727"></polyline>
        <path d="M50,83.3674731 C31.5378204,83.3674731 16.5713054,68.4138922 16.5713054,49.9685269 C16.5713054,31.5227305 31.5378204,16.5691497 50,16.5691497 C68.4621796,16.5691497 83.4286946,31.5227305 83.4286946,49.9685269 C83.4286946,68.4138922 68.4621796,83.3674731 50,83.3674731 M50,14 C30.1176527,14 14,30.1038563 14,49.9685269 C14,69.8327665 30.1176527,85.9366228 50,85.9366228 C69.8819162,85.9366228 86,69.8327665 86,49.9685269 C86,30.1038563 69.8819162,14 50,14" id="Page-1" fill="#21934C"></path>
    </g>
</svg>