<?xml version="1.0" encoding="UTF-8"?>
<svg width="100px" height="100px" viewBox="0 0 100 100" version="1.1" xmlns="http://www.w3.org/2000/svg" xmlns:xlink="http://www.w3.org/1999/xlink">
    <!-- Generator: Sketch 49.2 (51160) - http://www.bohemiancoding.com/sketch -->
    <title>ghost-disabled</title>
    <desc>Created with Sketch.</desc>
    <defs></defs>
    <g id="ghost-disabled" stroke="none" stroke-width="1" fill="none" fill-rule="evenodd">
        <g>
            <rect id="Rectangle-6" x="0" y="0" width="100" height="100"></rect>
            <g id="Icon-Blocked" transform="translate(14.000000, 14.000000)" fill="#DE3602">
                <g id="Page-1">
                    <path d="M59.6286,58.9095111 C46.881,71.5032889 26.4015,71.7904 13.293,59.7850667 L60.5142,13.1317333 C72.666,26.0828444 72.3762,46.3157333 59.6286,58.9095111 M12.3597,12.2117333 C25.1082,-0.382933333 45.5868,-0.669155556 58.6962,11.3361778 L11.475,57.9886222 C-0.6777,45.0384 -0.387,24.8055111 12.3597,12.2117333 M61.4466,10.4152889 C47.3895,-3.47182222 24.5988,-3.47182222 10.5426,10.4152889 C-3.5136,24.3024 -3.5145,46.8179556 10.5426,60.7059556 C24.5988,74.5930667 47.3895,74.5930667 61.4466,60.7059556 C75.5037,46.8179556 75.5037,24.3024 61.4466,10.4152889" id="Fill-1"></path>
                </g>
            </g>
        </g>
    </g>
</svg>