<?xml version="1.0" encoding="UTF-8"?>
<svg width="100px" height="100px" viewBox="0 0 100 100" version="1.1" xmlns="http://www.w3.org/2000/svg" xmlns:xlink="http://www.w3.org/1999/xlink">
    <!-- Generator: Sketch 49.2 (51160) - http://www.bohemiancoding.com/sketch -->
    <title>ghost-blocked</title>
    <desc>Created with Sketch.</desc>
    <defs></defs>
    <g id="ghost-blocked" stroke="none" stroke-width="1" fill="none" fill-rule="evenodd">
        <g>
            <rect id="Rectangle-6" x="0" y="0" width="100" height="100"></rect>
            <g id="Icon-Blocked" transform="translate(14.000000, 14.000000)" fill="#DE3602">
                <path d="M71.4754757,68.8813692 L38.5346225,35.9689503 L71.4754757,3.0565314 C72.1748389,2.35837818 72.1754439,1.22463544 71.4754757,0.525272247 C70.7755075,-0.174695928 69.6411598,-0.173485957 68.9417966,0.525272247 L36.0003384,33.4370862 L3.05948522,0.525272247 C2.35891205,-0.174695928 1.22456432,-0.173485957 0.525201131,0.525272247 C-0.174767044,1.22463544 -0.174767044,2.35716821 0.525201131,3.0565314 L33.4666593,35.9689503 L0.525201131,68.8813692 C-0.174767044,69.5807324 -0.174767044,70.7126602 0.525201131,71.4132333 C1.22577429,72.1125965 2.35891205,72.1125965 3.05948522,71.4132333 L36.0003384,38.5008144 L68.9417966,71.4132333 C69.6417648,72.1125965 70.7755075,72.1125965 71.4754757,71.4132333 C72.1748389,70.7144751 72.1754439,69.5807324 71.4754757,68.8813692" id="Fill-1"></path>
            </g>
        </g>
    </g>
</svg>