<!-- Generated by IcoMoon.io -->
<svg version="1.1" xmlns="http://www.w3.org/2000/svg" width="32" height="32" viewBox="0 0 32 32">
<title>account</title>
<path d="M16 0c-8.793 0-16 7.207-16 16s7.207 16 16 16c8.793 0 16-7.207 16-16s-7.207-16-16-16zM26.234 26.378c-2.306-2.306-5.333-3.315-5.91-3.459-1.73-1.441-1.009-3.027 0.288-5.189 0.144-0.288 0.432-0.721 0.577-1.009 0.865-1.874 0.721-3.027 0.577-3.459 0.288-1.297 0.721-4.901-1.153-6.919-1.153-1.153-2.739-1.586-4.757-1.009-2.162 0-3.748 0.721-4.757 2.018-1.73 2.306-0.865 5.622-0.577 6.486-0.432 1.586 0.432 2.739 0.721 3.027s2.739 3.892 0.577 6.054l-0.721 0.288c-2.45 1.009-4.036 1.874-5.333 3.027-2.739-2.595-4.324-6.198-4.324-10.234 0-8.072 6.486-14.559 14.559-14.559s14.559 6.486 14.559 14.559c0 4.036-1.73 7.64-4.324 10.378z"></path>
</svg>
