<!-- Generated by IcoMoon.io -->
<svg version="1.1" xmlns="http://www.w3.org/2000/svg" width="32" height="32" viewBox="0 0 32 32">
<title>admin-account</title>
<path d="M30.391 1.609h-28.782c-0.894 0-1.609 0.715-1.609 1.609v6.436c0 0.894 0.715 1.609 1.609 1.609v19.128h28.782v-19.128c0.894 0 1.609-0.715 1.609-1.609v-6.436c0-0.894-0.715-1.609-1.609-1.609zM28.782 28.782h-25.564v-17.52h25.564v17.52zM30.391 9.654h-28.782v-6.436h28.782v6.436zM12.693 20.737h6.436c1.788 0 3.218-1.43 3.218-3.218s-1.43-3.218-3.218-3.218h-6.436c-1.788 0-3.218 1.43-3.218 3.218s1.609 3.218 3.218 3.218zM12.693 15.911h6.436c0.894 0 1.609 0.715 1.609 1.609s-0.715 1.609-1.609 1.609h-6.436c-0.894 0-1.609-0.715-1.609-1.609s0.894-1.609 1.609-1.609z"></path>
</svg>
