<!-- Generated by IcoMoon.io -->
<svg version="1.1" xmlns="http://www.w3.org/2000/svg" width="32" height="32" viewBox="0 0 32 32">
<title>alert</title>
<path d="M15.929 32c-8.818 0-15.929-7.253-15.929-16.071s7.111-15.929 15.929-15.929 15.929 7.111 15.929 15.929c0.142 8.818-7.111 16.071-15.929 16.071zM15.929 2.844c-7.253 0-13.084 5.831-13.084 13.084s5.831 13.084 13.084 13.084c7.253 0 13.084-5.831 13.084-13.084s-5.831-13.084-13.084-13.084zM14.649 21.049c0-0.711 0.569-1.422 1.422-1.422s1.422 0.569 1.422 1.422c0 0.711-0.569 1.422-1.422 1.422s-1.422-0.711-1.422-1.422zM15.076 18.062l-0.427-9.244h2.56l-0.427 9.244h-1.707z"></path>
</svg>
