<!-- Generated by IcoMoon.io -->
<svg version="1.1" xmlns="http://www.w3.org/2000/svg" width="32" height="32" viewBox="0 0 32 32">
<title>approve</title>
<path d="M31.788 4.821c-0.256-0.256-0.641-0.256-0.897 0l-19.476 21.013-10.25-10.635c-0.256-0.256-0.641-0.256-0.897 0s-0.384 0.641-0.128 0.897l10.763 11.147c0 0 0 0 0 0s0 0 0 0 0.128 0 0.128 0.128c0 0 0 0 0.128 0s0.128 0 0.256 0 0.128 0 0.256 0c0 0 0 0 0.128 0 0 0 0.128 0 0.128-0.128 0 0 0 0 0 0s0 0 0 0l19.988-21.526c0.128-0.256 0.128-0.641-0.128-0.897z"></path>
</svg>
