<!-- Generated by IcoMoon.io -->
<svg version="1.1" xmlns="http://www.w3.org/2000/svg" width="32" height="32" viewBox="0 0 32 32">
<title>apps</title>
<path d="M10.302 4.683c-0.624 0-1.093 0.468-1.093 1.093s0.468 1.093 1.093 1.093c0.624 0 1.093-0.468 1.093-1.093s-0.468-1.093-1.093-1.093zM6.868 4.683c-0.624 0-1.249 0.468-1.249 1.093s0.468 1.093 1.093 1.093c0.624 0 1.093-0.468 1.093-1.093 0.156-0.624-0.312-1.093-0.937-1.093zM3.434 4.683c-0.624 0-1.093 0.468-1.093 1.093s0.468 1.093 1.093 1.093c0.624 0 1.093-0.468 1.093-1.093s-0.468-1.093-1.093-1.093zM26.224 21.698v-17.015c0-1.249-1.093-2.341-2.341-2.341h-21.541c-1.249 0-2.341 1.093-2.341 2.341v17.015c0 1.249 1.093 2.341 2.341 2.341h21.698c1.093 0 2.185-1.093 2.185-2.341zM1.093 4.683c0-0.624 0.468-1.093 1.093-1.093h21.698c0.624 0 1.093 0.468 1.093 1.093v3.434h-23.883v-3.434zM1.093 21.698v-12.488h23.883v12.488c0 0.624-0.468 1.093-1.093 1.093h-21.541c-0.624 0-1.249-0.468-1.249-1.093zM29.659 7.961h-1.717c-0.312 0-0.624 0.312-0.624 0.624s0.312 0.624 0.624 0.624h1.717c0.624 0 1.093 0.468 1.093 1.093v3.434h-2.81c-0.312 0-0.624 0.312-0.624 0.624s0.312 0.624 0.624 0.624h2.81v12.488c0 0.624-0.468 1.093-1.093 1.093h-21.698c-0.624 0-1.093-0.468-1.093-1.093v-1.717c0-0.312-0.312-0.624-0.624-0.624s-0.624 0.312-0.624 0.624v1.561c0 1.249 1.093 2.341 2.341 2.341h21.698c1.249 0 2.341-1.093 2.341-2.341v-17.015c-0.156-1.249-1.093-2.341-2.341-2.341z"></path>
</svg>
