<!-- Generated by IcoMoon.io -->
<svg version="1.1" xmlns="http://www.w3.org/2000/svg" width="32" height="32" viewBox="0 0 32 32">
<title>as</title>
<path d="M4.473 1.5c-1.425 0.383-2.667 1.609-3.035 3.020-0.107 0.383-0.153 4.583-0.123 11.818 0.046 10.668 0.061 11.266 0.337 11.772 0.552 1.027 1.18 1.671 2.054 2.1l0.874 0.429h22.839l0.782-0.414c0.858-0.46 1.564-1.18 2.085-2.161l0.353-0.644v-11.496c0-10.975-0.015-11.527-0.291-12.033-0.552-1.027-1.18-1.671-2.054-2.1l-0.874-0.429-11.113-0.031c-8.63-0.031-11.266 0.015-11.833 0.169zM27.419 3.308c0.628 0.337 1.088 0.858 1.38 1.533 0.199 0.506 0.23 1.947 0.23 11.189 0 9.979-0.031 10.653-0.291 11.235-0.307 0.705-1.058 1.395-1.671 1.579-0.536 0.138-21.597 0.138-22.134 0-0.613-0.184-1.364-0.874-1.671-1.579-0.261-0.582-0.291-1.257-0.291-11.266s0.031-10.684 0.291-11.266c0.322-0.72 1.073-1.41 1.671-1.548 0.23-0.046 0.49-0.107 0.567-0.138 0.092-0.031 4.951-0.046 10.806-0.031 9.595 0.031 10.699 0.061 11.113 0.291zM21.043 10.175c-2.054 0.353-3.173 1.778-2.836 3.602 0.169 0.904 1.18 1.778 2.713 2.361 0.705 0.276 1.471 0.567 1.686 0.644 1.088 0.429 1.395 1.38 0.644 1.977-0.368 0.291-0.582 0.322-1.41 0.276-0.828-0.061-1.027-0.123-1.334-0.491-0.199-0.23-0.368-0.582-0.368-0.797 0-0.353-0.031-0.368-1.15-0.368h-1.15v0.414c0.015 1.18 1.15 2.483 2.514 2.882 0.904 0.276 2.453 0.291 3.372 0.061 0.828-0.199 1.747-0.95 2.023-1.61 0.521-1.242 0.046-2.805-1.058-3.571-0.353-0.245-1.288-0.674-2.085-0.95-0.782-0.291-1.594-0.674-1.793-0.858-0.812-0.751-0.153-1.793 1.15-1.793 0.92 0 1.533 0.368 1.655 0.981 0.077 0.46 0.092 0.46 1.211 0.46 1.073 0 1.134-0.015 1.134-0.353-0.015-0.506-0.521-1.517-1.012-1.977-0.843-0.782-2.437-1.15-3.909-0.889zM8.658 15.264c-1.042 2.805-1.931 5.196-1.962 5.288-0.061 0.153 0.23 0.199 1.15 0.199h1.242l0.337-1.073 0.353-1.088 3.663 0.092 0.674 1.993 2.498 0.092-0.23-0.582c-0.123-0.322-1.012-2.682-1.977-5.257l-1.747-4.675-2.1-0.092-1.901 5.104zM12.72 16.491c0.077 0.245-0.031 0.276-1.073 0.276-0.644 0-1.165-0.046-1.165-0.107 0-0.077 0.245-0.874 0.567-1.809l0.552-1.686 0.521 1.533c0.276 0.828 0.536 1.64 0.598 1.793z"></path>
</svg>
