<!-- Generated by IcoMoon.io -->
<svg version="1.1" xmlns="http://www.w3.org/2000/svg" width="32" height="32" viewBox="0 0 32 32">
<title>bar-line-chart</title>
<path d="M5.526 21.139c0 0.964-0.742 1.745-1.658 1.745s-1.658-0.781-1.658-1.745c0-0.964 0.742-1.745 1.658-1.745s1.658 0.781 1.658 1.745zM14.643 9.891c0 0.964-0.742 1.745-1.658 1.745s-1.658-0.781-1.658-1.745c0-0.964 0.742-1.745 1.658-1.745s1.658 0.781 1.658 1.745zM19.155 14.351c0 0.964-0.742 1.745-1.658 1.745s-1.658-0.781-1.658-1.745c0-0.964 0.742-1.745 1.658-1.745s1.658 0.781 1.658 1.745zM27.996 4.945c0 0.964-0.742 1.745-1.658 1.745s-1.658-0.781-1.658-1.745c0-0.964 0.742-1.745 1.658-1.745s1.658 0.781 1.658 1.745zM3.814 21.806l-0.896-0.728 9.937-12.242 0.896 0.728zM12.215 9.627l0.837-0.795 5.739 6.043-0.837 0.795zM16.92 15.701l-0.837-0.795 10.557-11.116 0.837 0.795zM24.623 14.219h5.733c0.884 0 1.6 0.716 1.6 1.6v10.023c0 0.884-0.716 1.6-1.6 1.6h-5.733c-0.884 0-1.6-0.716-1.6-1.6v-10.023c0-0.884 0.716-1.6 1.6-1.6zM13.111 19.729h5.733c0.884 0 1.6 0.716 1.6 1.6v4.514c0 0.884-0.716 1.6-1.6 1.6h-5.733c-0.884 0-1.6-0.716-1.6-1.6v-4.514c0-0.884 0.716-1.6 1.6-1.6zM1.309 24.824h6.315c0.723 0 1.309 0.586 1.309 1.309v0c0 0.723-0.586 1.309-1.309 1.309h-6.315c-0.723 0-1.309-0.586-1.309-1.309v0c0-0.723 0.586-1.309 1.309-1.309z"></path>
</svg>
