<!-- Generated by IcoMoon.io -->
<svg version="1.1" xmlns="http://www.w3.org/2000/svg" width="32" height="32" viewBox="0 0 32 32">
<title>bar-chart</title>
<path d="M20.571 24h4.571v-12h-4.571v12zM21.714 13.143h2.286v9.714h-2.286v-9.714zM0 24h4.571v-8h-4.571v8zM1.143 17.143h2.286v5.714h-2.286v-5.714zM27.429 8v16h4.571v-16h-4.571zM30.857 22.857h-2.286v-13.714h2.286v13.714zM6.857 24h4.571v-14.286h-4.571v14.286zM8 10.857h2.286v12h-2.286v-12zM13.714 24h4.571v-6.286h-4.571v6.286zM14.857 18.857h2.286v4h-2.286v-4z"></path>
</svg>
