<!-- Generated by IcoMoon.io -->
<svg version="1.1" xmlns="http://www.w3.org/2000/svg" width="32" height="32" viewBox="0 0 32 32">
<title>beaker</title>
<path d="M13.143 19.429c-1.262 0-2.286 1.023-2.286 2.286s1.023 2.286 2.286 2.286 2.286-1.023 2.286-2.286-1.023-2.286-2.286-2.286zM13.143 22.857c-0.631 0-1.143-0.512-1.143-1.143s0.512-1.143 1.143-1.143 1.143 0.512 1.143 1.143-0.512 1.143-1.143 1.143zM22.857 12.907v-9.479h1.714c0.316 0 0.571-0.255 0.571-0.571v-2.286c0-0.316-0.255-0.571-0.571-0.571h-17.143c-0.316 0-0.571 0.255-0.571 0.571v2.286c0 0.316 0.255 0.571 0.571 0.571h1.714v9.479c-1.332 1.321-9.143 9.294-9.143 14.521 0 2.525 2.047 4.571 4.571 4.571h22.857c2.525 0 4.571-2.047 4.571-4.571 0-5.227-7.811-13.2-9.143-14.521zM8 2.286v-1.143h16v1.143h-16zM21.714 3.429v4.39c-2.851 1.723-5.178 0.069-5.386-0.088-0.274-0.242-2.051-1.605-6.043-0.373v-3.93h11.429zM27.428 30.857h-22.857c-1.893 0-3.429-1.535-3.429-3.429 0-5.005 8.503-13.422 8.96-13.871 0.111-0.105 0.183-0.25 0.183-0.415v-4.592c3.791-1.277 5.262 0.004 5.27 0.011l0.047 0.042c0.021 0.016 1.452 1.119 3.512 1.119 0.789 0 1.67-0.165 2.6-0.611v4.031c0 0.165 0.071 0.31 0.183 0.415 0.455 0.448 8.959 8.866 8.959 13.871 0 1.893-1.535 3.429-3.429 3.429zM18.286 24c-0.947 0-1.714 0.768-1.714 1.714s0.767 1.714 1.714 1.714 1.714-0.767 1.714-1.714c0-0.946-0.767-1.714-1.714-1.714zM18.286 26.286c-0.316 0-0.571-0.255-0.571-0.571s0.255-0.571 0.571-0.571 0.571 0.256 0.571 0.571c0 0.316-0.255 0.571-0.571 0.571zM16.571 11.429c-1.893 0-3.429 1.535-3.429 3.429s1.535 3.429 3.429 3.429 3.429-1.535 3.429-3.429-1.535-3.429-3.429-3.429zM16.571 17.143c-1.262 0-2.286-1.023-2.286-2.286s1.023-2.286 2.286-2.286 2.286 1.023 2.286 2.286-1.023 2.286-2.286 2.286z"></path>
</svg>
