<!-- Generated by IcoMoon.io -->
<svg version="1.1" xmlns="http://www.w3.org/2000/svg" width="32" height="32" viewBox="0 0 32 32">
<title>books</title>
<path d="M7.998 8.097c-4.25 2.521-7.802 4.71-7.912 4.876-0.11 0.184-0.11 0.35 0 0.46 0.11 0.092 3.698 2.245 7.986 4.784 4.747 2.815 7.93 4.582 8.096 4.526 0.147-0.055 3.79-2.19 8.059-4.729 5.667-3.349 7.783-4.692 7.747-4.913-0.055-0.313-15.493-9.568-15.971-9.587-0.147 0-3.754 2.061-8.004 4.582zM23.325 8.851c3.864 2.282 6.992 4.214 6.974 4.306-0.037 0.074-3.257 2.061-7.176 4.379l-7.139 4.232-7.102-4.214c-3.919-2.337-7.139-4.306-7.176-4.398-0.074-0.221 13.947-8.538 14.315-8.482 0.166 0.018 3.459 1.895 7.305 4.177zM0.16 15.659c-0.202 0.129-0.202 0.258-0.055 0.497 0.258 0.405 15.456 9.439 15.879 9.439 0.276 0 15.125-8.685 15.787-9.219 0.331-0.276 0.294-0.662-0.055-0.791-0.166-0.074-3.128 1.582-7.857 4.379-4.177 2.484-7.673 4.526-7.765 4.563-0.11 0.037-3.496-1.895-7.544-4.287-8.666-5.115-8.041-4.784-8.391-4.582zM0.068 18.695c-0.074 0.166-0.018 0.405 0.129 0.534 0.681 0.644 15.677 9.329 15.953 9.255 0.166-0.037 3.79-2.153 8.041-4.674 5.851-3.478 7.728-4.674 7.728-4.95 0-0.184-0.129-0.368-0.294-0.405-0.147-0.018-3.698 1.987-7.894 4.471-4.177 2.484-7.673 4.508-7.747 4.508s-3.496-2.006-7.618-4.434c-4.122-2.447-7.654-4.49-7.838-4.526-0.221-0.055-0.386 0.018-0.46 0.221z"></path>
</svg>
