<!-- Generated by IcoMoon.io -->
<svg version="1.1" xmlns="http://www.w3.org/2000/svg" width="32" height="32" viewBox="0 0 32 32">
<title>browser</title>
<path d="M5.091 14.546h8.727c0.402 0 0.727-0.325 0.727-0.727s-0.325-0.727-0.727-0.727h-8.727c-0.402 0-0.727 0.325-0.727 0.727s0.325 0.727 0.727 0.727zM5.091 20.364h8.727c0.402 0 0.727-0.325 0.727-0.727s-0.325-0.727-0.727-0.727h-8.727c-0.402 0-0.727 0.326-0.727 0.727s0.325 0.727 0.727 0.727zM18.182 26.182h8.727c0.402 0 0.727-0.325 0.727-0.727v-11.636c0-0.402-0.325-0.727-0.727-0.727h-8.727c-0.402 0-0.727 0.325-0.727 0.727v11.636c0 0.402 0.325 0.727 0.727 0.727zM18.909 14.546h7.273v10.182h-7.273v-10.182zM29.091 1.455h-26.182c-1.607 0-2.909 1.303-2.909 2.909v23.273c0 1.607 1.303 2.909 2.909 2.909h26.182c1.607 0 2.909-1.303 2.909-2.909v-23.273c0-1.607-1.303-2.909-2.909-2.909zM30.545 27.636c0 0.804-0.652 1.455-1.455 1.455h-26.182c-0.803 0-1.455-0.651-1.455-1.455v-17.455h29.091v17.455zM30.545 8.727h-29.091v-4.364c0-0.803 0.652-1.455 1.455-1.455h26.182c0.803 0 1.455 0.652 1.455 1.455v4.364zM8.727 4.364c-0.803 0-1.455 0.652-1.455 1.455s0.652 1.455 1.455 1.455 1.455-0.651 1.455-1.455c0-0.803-0.652-1.455-1.455-1.455zM13.091 4.364c-0.803 0-1.455 0.652-1.455 1.455s0.652 1.455 1.455 1.455 1.455-0.651 1.455-1.455c0-0.803-0.652-1.455-1.455-1.455zM5.091 26.182h8.727c0.402 0 0.727-0.325 0.727-0.727s-0.325-0.727-0.727-0.727h-8.727c-0.402 0-0.727 0.326-0.727 0.727s0.325 0.727 0.727 0.727zM4.364 4.364c-0.803 0-1.455 0.652-1.455 1.455s0.652 1.455 1.455 1.455 1.455-0.651 1.455-1.455c0-0.803-0.652-1.455-1.455-1.455z"></path>
</svg>
