<!-- Generated by IcoMoon.io -->
<svg version="1.1" xmlns="http://www.w3.org/2000/svg" width="32" height="32" viewBox="0 0 32 32">
<title>bullet-list</title>
<path d="M2.182 13.818c-1.236 0-2.182 0.945-2.182 2.182s0.945 2.182 2.182 2.182 2.182-0.945 2.182-2.182-0.945-2.182-2.182-2.182zM2.182 22.545c-1.236 0-2.182 0.945-2.182 2.182s0.945 2.182 2.182 2.182 2.182-0.945 2.182-2.182-0.945-2.182-2.182-2.182zM8 8h23.273c0.436 0 0.727-0.291 0.727-0.727s-0.291-0.727-0.727-0.727h-23.273c-0.436 0-0.727 0.291-0.727 0.727s0.291 0.727 0.727 0.727zM2.182 5.091c-1.236 0-2.182 0.945-2.182 2.182s0.945 2.182 2.182 2.182 2.182-0.945 2.182-2.182c0-1.236-0.945-2.182-2.182-2.182zM31.273 24h-23.273c-0.436 0-0.727 0.291-0.727 0.727s0.291 0.727 0.727 0.727h23.273c0.436 0 0.727-0.291 0.727-0.727s-0.291-0.727-0.727-0.727zM31.273 15.273h-23.273c-0.436 0-0.727 0.291-0.727 0.727s0.291 0.727 0.727 0.727h23.273c0.436 0 0.727-0.291 0.727-0.727s-0.291-0.727-0.727-0.727z"></path>
</svg>
