<!-- Generated by IcoMoon.io -->
<svg version="1.1" xmlns="http://www.w3.org/2000/svg" width="32" height="32" viewBox="0 0 32 32">
<title>cabinet</title>
<path d="M12.579 8.050h6.843c0.604 0 1.006-0.604 1.006-1.208v-1.811c0-0.402-0.201-0.604-0.604-0.604s-0.604 0.201-0.604 0.604v1.61h-6.642v-1.61c0-0.402-0.201-0.604-0.604-0.604s-0.604 0.201-0.604 0.604v1.61c0 0.805 0.604 1.409 1.208 1.409zM28.478 0h-24.956c-0.604 0-1.208 0.604-1.208 1.208v29.585c0 0.604 0.604 1.208 1.208 1.208h24.956c0.604 0 1.208-0.604 1.208-1.208v-29.585c0-0.604-0.604-1.208-1.208-1.208zM28.478 30.793h-24.956v-9.057h24.956v9.057zM28.478 20.528h-24.956v-9.057h24.956v9.057zM28.478 10.264h-24.956v-9.057h24.956v9.057zM12.579 28.377h6.843c0.604 0 1.208-0.604 1.208-1.208v-1.61c0-0.402-0.201-0.604-0.604-0.604s-0.604 0.201-0.604 0.604v1.61h-6.843v-1.61c0-0.402-0.201-0.604-0.604-0.604s-0.604 0.201-0.604 0.604v1.61c0 0.805 0.604 1.208 1.208 1.208zM12.579 18.113h6.843c0.604 0 1.006-0.402 1.006-1.006v-1.811c0-0.402-0.201-0.604-0.604-0.604s-0.604 0.201-0.604 0.604v1.61h-6.642v-1.61c0-0.402-0.201-0.604-0.604-0.604s-0.604 0.201-0.604 0.604v1.61c0 0.805 0.604 1.208 1.208 1.208z"></path>
</svg>
