<!-- Generated by IcoMoon.io -->
<svg version="1.1" xmlns="http://www.w3.org/2000/svg" width="32" height="32" viewBox="0 0 32 32">
<title>calendar</title>
<path d="M25.952 4.476v-3.143h-1.048v3.143h-17.809v-3.143h-1.048v3.143h-4.714v26.191h29.333v-26.191h-4.714zM29.619 29.619h-27.238v-20.952h27.238v20.952zM29.619 7.619h-27.238v-2.095h3.667v1.048h1.048v-1.048h17.809v1.048h1.048v-1.048h3.667v2.095zM27.524 17.048h-4.191v4.191h4.191v-4.191zM26.476 20.191h-2.095v-2.095h2.095v2.095zM27.524 10.762h-4.191v4.191h4.191v-4.191zM26.476 13.905h-2.095v-2.095h2.095v2.095zM14.952 10.762h-4.191v4.191h4.191v-4.191zM13.905 13.905h-2.095v-2.095h2.095v2.095zM14.952 23.333h-4.191v4.191h4.191v-4.191zM13.905 26.476h-2.095v-2.095h2.095v2.095zM14.952 17.048h-4.191v4.191h4.191v-4.191zM13.905 20.191h-2.095v-2.095h2.095v2.095zM8.667 23.333h-4.191v4.191h4.191v-4.191zM7.619 26.476h-2.095v-2.095h2.095v2.095zM21.238 23.333h-4.191v4.191h4.191v-4.191zM20.191 26.476h-2.095v-2.095h2.095v2.095zM21.238 17.048h-4.191v4.191h4.191v-4.191zM20.191 20.191h-2.095v-2.095h2.095v2.095zM21.238 10.762h-4.191v4.191h4.191v-4.191zM20.191 13.905h-2.095v-2.095h2.095v2.095zM8.667 17.048h-4.191v4.191h4.191v-4.191zM7.619 20.191h-2.095v-2.095h2.095v2.095z"></path>
</svg>
