<!-- Generated by IcoMoon.io -->
<svg version="1.1" xmlns="http://www.w3.org/2000/svg" width="32" height="32" viewBox="0 0 32 32">
<title>camera</title>
<path d="M29.091 5.818h-5.091c-1.455 0-2.909-2.909-4.364-2.909h-1.455c0 0-2.036 0-4.364 0h-1.455c-1.455 0-2.909 2.909-4.364 2.909h-5.091c-1.6 0-2.909 1.309-2.909 2.909v17.455c0 1.6 1.309 2.909 2.909 2.909h26.182c1.6 0 2.909-1.309 2.909-2.909v-17.455c0-1.6-1.309-2.909-2.909-2.909zM30.545 26.182c0 0.8-0.655 1.455-1.455 1.455h-26.182c-0.8 0-1.455-0.655-1.455-1.455v-17.455c0-0.8 0.655-1.455 1.455-1.455h5.091c2.182 0 3.636-2.909 4.364-2.909h1.455c0 0 3.636 0 5.818 0 0.727 0 2.182 2.909 4.364 2.909h5.091c0.8 0 1.455 0.655 1.455 1.455v17.455zM16 8.727c-4 0-7.273 3.273-7.273 7.273s3.273 7.273 7.273 7.273 7.273-3.273 7.273-7.273-3.273-7.273-7.273-7.273zM16 21.818c-3.2 0-5.818-2.618-5.818-5.818s2.618-5.818 5.818-5.818 5.818 2.618 5.818 5.818-2.618 5.818-5.818 5.818z"></path>
</svg>
