<!-- Generated by IcoMoon.io -->
<svg version="1.1" xmlns="http://www.w3.org/2000/svg" width="32" height="32" viewBox="0 0 32 32">
<title>cert-connection</title>
<path d="M24.885 9.319l-0.802-0.735 2.271-2.739 0.802 0.668zM6.18 26.823l-1.002-0.935 3.407-3.541 1.002 0.868zM15.198 20.342c-0.2 0-0.401-0.067-0.534-0.2l-3.741-3.273c-0.334-0.334-0.401-0.802-0.067-1.203 0.334-0.334 0.802-0.401 1.203-0.067l3.073 2.739 5.478-6.681c0.267-0.334 0.802-0.401 1.203-0.134 0.334 0.267 0.401 0.802 0.134 1.203l-6.013 7.349c-0.2 0.134-0.401 0.2-0.735 0.267 0.067 0 0.067 0 0 0zM3.708 32.033c-2.004 0-3.674-1.67-3.674-3.674s1.67-3.674 3.674-3.674 3.674 1.67 3.674 3.674c0 2.004-1.67 3.674-3.674 3.674zM3.708 25.687c-1.47 0-2.672 1.203-2.672 2.672s1.203 2.672 2.672 2.672 2.672-1.203 2.672-2.672c-0.067-1.47-1.202-2.672-2.672-2.672zM28.359 7.516c-2.004 0-3.674-1.67-3.674-3.674s1.67-3.674 3.674-3.674c2.004 0 3.674 1.67 3.674 3.674s-1.67 3.674-3.674 3.674zM28.359 1.169c-1.47 0-2.672 1.202-2.672 2.672s1.203 2.672 2.672 2.672c1.47 0 2.672-1.202 2.672-2.672-0.067-1.47-1.203-2.672-2.672-2.672zM23.081 23.883h-12.96c-1.47 0-2.605-1.203-2.605-2.605v-10.622c0-1.47 1.203-2.605 2.605-2.605h13.027c1.47 0 2.605 1.203 2.605 2.605v10.622c-0.067 1.403-1.203 2.605-2.672 2.605zM10.121 9.119c-0.868 0-1.537 0.735-1.537 1.537v10.622c0 0.868 0.735 1.537 1.537 1.537h13.027c0.868 0 1.537-0.735 1.537-1.537v-10.622c0-0.868-0.735-1.537-1.537-1.537h-13.027z"></path>
</svg>
