<!-- Generated by IcoMoon.io -->
<svg version="1.1" xmlns="http://www.w3.org/2000/svg" width="32" height="32" viewBox="0 0 32 32">
<title>certificate</title>
<path d="M29.445 23.3h-16.061v-1.46h16.061c0.487 0 0.973-0.487 0.973-0.973v-17.277c0-0.487-0.487-0.973-0.973-0.973h-26.89c-0.487 0-0.973 0.487-0.973 0.973v17.156c0 0.487 0.487 0.973 0.973 0.973h3.407v1.46h-3.407c-1.338 0-2.555-1.095-2.555-2.555v-17.034c0-1.338 1.095-2.555 2.555-2.555h26.89c1.338 0 2.555 1.095 2.555 2.555v17.156c0 1.338-1.217 2.555-2.555 2.555zM15.331 15.878c0-3.164-2.555-5.719-5.719-5.719s-5.719 2.555-5.719 5.719c0 1.338 0.487 2.555 1.217 3.529v11.316l4.259-4.259 4.502 4.502v-11.559c0.973-0.973 1.46-2.19 1.46-3.529zM9.612 11.741c2.312 0 4.137 1.825 4.137 4.137s-1.825 4.137-4.137 4.137-4.137-1.825-4.137-4.137 1.947-4.137 4.137-4.137zM9.491 24.152l-2.798 2.798v-6.327c0.852 0.487 1.825 0.852 2.92 0.852s2.068-0.365 2.92-0.852v6.57l-3.042-3.042zM4.015 6.996h23.97v1.46h-23.97v-1.46zM17.034 10.89h10.951v1.46h-10.951v-1.46zM20.806 15.27h7.179v1.46h-7.179v-1.46z"></path>
</svg>
