<!-- Generated by IcoMoon.io -->
<svg version="1.1" xmlns="http://www.w3.org/2000/svg" width="32" height="32" viewBox="0 0 32 32">
<title>chat</title>
<path d="M16 1.714c-8.837 0-16 5.629-16 12.571 0 4.287 2.735 8.068 6.905 10.337-0.27 1.623-1.18 3.597-3.477 5.663 0 0 5.993-0.003 9.299-3.694 1.057 0.173 2.151 0.265 3.273 0.265 8.837 0 16-5.629 16-12.571s-7.163-12.571-16-12.571zM16 25.714c-1.29 0-2.535-0.139-3.728-0.377-2.24 3.123-6.307 3.663-6.307 3.663 1.505-1.755 1.97-3.592 2.019-5.102-4.111-2.033-6.841-5.574-6.841-9.613 0-6.312 6.652-11.429 14.857-11.429s14.857 5.117 14.857 11.429-6.652 11.429-14.857 11.429z"></path>
</svg>
