<!-- Generated by IcoMoon.io -->
<svg version="1.1" xmlns="http://www.w3.org/2000/svg" width="32" height="32" viewBox="0 0 32 32">
<title>chat-square</title>
<path d="M25.143 1.143h-18.285c-3.787 0-6.857 3.070-6.857 6.857v10.286c0 3.787 3.070 6.857 6.857 6.857h1.143v5.714l8-5.714h9.143c3.787 0 6.857-3.070 6.857-6.857v-10.286c0-3.787-3.070-6.857-6.857-6.857zM30.857 18.286c0 3.156-2.559 5.714-5.715 5.714h-9.547l-6.453 4.607v-4.607h-2.286c-3.156 0-5.714-2.558-5.714-5.714v-10.286c0-3.156 2.559-5.714 5.714-5.714h18.286c3.156 0 5.714 2.559 5.714 5.714v10.286z"></path>
</svg>
