<!-- Generated by IcoMoon.io -->
<svg version="1.1" xmlns="http://www.w3.org/2000/svg" width="32" height="32" viewBox="0 0 32 32">
<title>clipboard</title>
<path d="M26.286 3.429h-4.571v-1.143c0-0.631-0.512-1.143-1.143-1.143h-4v-0.571c0-0.316-0.255-0.571-0.571-0.571s-0.571 0.255-0.571 0.571v0.571h-4c-0.631 0-1.143 0.512-1.143 1.143v1.143h-4.571c-0.631 0-1.143 0.512-1.143 1.143v26.286c0 0.631 0.512 1.143 1.143 1.143h20.571c0.631 0 1.143-0.512 1.143-1.143v-26.286c0-0.631-0.512-1.143-1.143-1.143zM11.429 2.286h9.143v3.429h-9.143v-3.429zM26.286 30.857h-2.621l2.621-2.621v2.621zM26.286 26.621l-4.237 4.237h-16.335v-26.286h4.571v1.143c0 0.631 0.512 1.143 1.143 1.143h9.143c0.631 0 1.143-0.512 1.143-1.143v-1.143h4.571v22.049zM8 14.286c0 0.316 0.255 0.571 0.571 0.571h14.857c0.316 0 0.571-0.255 0.571-0.571s-0.255-0.571-0.571-0.571h-14.857c-0.316 0-0.571 0.256-0.571 0.571zM8.571 18.286h11.429c0.316 0 0.571-0.255 0.571-0.571s-0.255-0.571-0.571-0.571h-11.429c-0.316 0-0.571 0.255-0.571 0.571s0.255 0.571 0.571 0.571zM23.429 20.571h-14.857c-0.316 0-0.571 0.256-0.571 0.571s0.255 0.571 0.571 0.571h14.857c0.316 0 0.571-0.255 0.571-0.571s-0.255-0.571-0.571-0.571z"></path>
</svg>
