<!-- Generated by IcoMoon.io -->
<svg version="1.1" xmlns="http://www.w3.org/2000/svg" width="32" height="32" viewBox="0 0 32 32">
<title>close</title>
<path d="M15.936 32c-8.739 0-15.936-7.197-15.936-16.064s7.197-15.936 15.936-15.936 15.936 7.197 15.936 15.936-7.068 16.064-15.936 16.064zM15.936 1.285c-8.096 0-14.651 6.554-14.651 14.651s6.554 14.651 14.651 14.651c8.096 0 14.651-6.554 14.651-14.651 0.129-8.096-6.426-14.651-14.651-14.651zM9.176 8.188l14.54 14.54-0.909 0.909-14.54-14.54 0.909-0.909zM22.807 8.188l0.909 0.909-14.54 14.54-0.909-0.909 14.54-14.54z"></path>
</svg>
