<!-- Generated by IcoMoon.io -->
<svg version="1.1" xmlns="http://www.w3.org/2000/svg" width="32" height="32" viewBox="0 0 32 32">
<title>code</title>
<path d="M30.667 4v24c0 1.473-0.938 2.667-2.095 2.667h-25.143c-1.157 0-2.095-1.194-2.095-2.667v-24c0-1.473 0.938-2.667 2.095-2.667h25.143c1.157 0 2.095 1.194 2.095 2.667zM29.619 28v-24c0-0.736-0.469-1.333-1.047-1.333h-25.143c-0.578 0-1.048 0.597-1.048 1.333v24c0 0.736 0.469 1.333 1.048 1.333h25.143c0.578 0 1.047-0.597 1.047-1.333zM21.921 12.466c-0.322-0.311-0.33-0.824-0.019-1.146s0.824-0.33 1.146-0.019l4.053 3.921c0.329 0.319 0.329 0.846 0 1.165l-4.053 3.921c-0.322 0.311-0.835 0.303-1.146-0.019s-0.303-0.835 0.019-1.146l3.451-3.338-3.451-3.338zM6.359 15.804l3.451 3.338c0.322 0.311 0.33 0.824 0.019 1.146s-0.824 0.33-1.146 0.019l-4.053-3.921c-0.329-0.319-0.329-0.847 0-1.165l4.053-3.921c0.322-0.311 0.835-0.303 1.146 0.019s0.303 0.835-0.019 1.146l-3.451 3.338zM14.566 21.643c-0.163 0.417-0.633 0.623-1.050 0.459s-0.623-0.633-0.459-1.050l4.107-10.494c0.163-0.417 0.633-0.623 1.050-0.459s0.623 0.633 0.459 1.050l-4.107 10.494z"></path>
</svg>
