<!-- Generated by IcoMoon.io -->
<svg version="1.1" xmlns="http://www.w3.org/2000/svg" width="32" height="32" viewBox="0 0 32 32">
<title>cog-filled</title>
<path d="M31.273 13.818l-3.339-1.001c-0.282-1.060-0.721-2.049-1.261-2.972l1.67-3.101c0.284-0.284 0.284-0.745 0-1.028l-2.057-2.057c-0.284-0.284-0.745-0.284-1.029 0l-3.097 1.668c-0.924-0.543-1.916-0.983-2.977-1.264l-1-3.335c0-0.402-0.325-0.727-0.727-0.727h-2.909c-0.402 0-0.727 0.326-0.727 0.727l-1 3.334c-1.062 0.282-2.052 0.722-2.977 1.265l-3.097-1.668c-0.284-0.284-0.745-0.284-1.029 0l-2.057 2.057c-0.284 0.284-0.284 0.744 0 1.028l1.67 3.101c-0.54 0.924-0.98 1.913-1.261 2.972l-3.339 1.001c-0.402 0-0.727 0.326-0.727 0.727v2.909c0 0.402 0.325 0.727 0.727 0.727l3.338 1.001c0.283 1.060 0.721 2.049 1.262 2.973l-1.67 3.1c-0.284 0.284-0.284 0.745 0 1.029l2.057 2.057c0.284 0.284 0.745 0.284 1.029 0l3.097-1.668c0.924 0.543 1.916 0.983 2.978 1.265l1 3.333c0 0.402 0.325 0.727 0.727 0.727h2.909c0.402 0 0.727-0.325 0.727-0.727l1-3.334c1.062-0.283 2.052-0.722 2.977-1.265l3.097 1.668c0.284 0.284 0.745 0.284 1.029 0l2.057-2.057c0.284-0.284 0.284-0.745 0-1.029l-1.67-3.1c0.541-0.924 0.98-1.913 1.262-2.973l3.338-1.001c0.402 0 0.727-0.325 0.727-0.727v-2.909c0-0.402-0.325-0.727-0.727-0.727zM16 20.367c-2.412 0-4.367-1.955-4.367-4.367 0-2.411 1.955-4.367 4.367-4.367s4.367 1.955 4.367 4.367c0 2.412-1.955 4.367-4.367 4.367z"></path>
</svg>
