<!-- Generated by IcoMoon.io -->
<svg version="1.1" xmlns="http://www.w3.org/2000/svg" width="32" height="32" viewBox="0 0 32 32">
<title>cog</title>
<path d="M16.076 10.464c-3.033 0-5.611 2.578-5.611 5.611s2.578 5.611 5.611 5.611 5.611-2.578 5.611-5.611c0-3.185-2.578-5.611-5.611-5.611zM16.076 20.474c-2.427 0-4.55-1.971-4.55-4.55 0-2.427 1.972-4.55 4.55-4.55s4.55 1.972 4.55 4.55c-0.152 2.578-2.123 4.55-4.55 4.55zM31.393 13.801v0l-4.095-1.213c-0.303-0.758-0.607-1.517-0.91-2.275l1.971-3.64c0.152-0.152 0.152-0.455-0.152-0.607l-2.427-2.427c-0.152-0.152-0.455-0.152-0.607-0.152v0l-3.64 1.971c-0.758-0.455-1.365-0.758-2.275-0.91l-1.213-4.095c0-0.303-0.303-0.455-0.455-0.455h-3.185c-0.303 0.303-0.455 0.455-0.607 0.758v0l-1.213 3.943c-0.607 0.303-1.365 0.607-1.972 0.91l-3.792-1.971c-0.152-0.152-0.455-0.152-0.758 0l-2.427 2.427c-0.152 0.303-0.152 0.607 0 0.758v0l1.972 3.792c-0.303 0.607-0.607 1.213-0.91 1.972l-3.943 1.213c-0.303 0-0.455 0.152-0.455 0.455v3.488c0 0.303 0.152 0.455 0.455 0.607v0l4.095 1.213c0.152 0.758 0.455 1.365 0.758 1.971l-1.971 3.791c-0.152 0.152-0.152 0.455 0.152 0.607l2.427 2.427c0.152 0.152 0.455 0.152 0.607 0.152v0l3.792-1.971c0.607 0.303 1.365 0.607 1.972 0.91l1.213 4.095c0 0.303 0.303 0.455 0.607 0.455h3.488c0.303 0 0.455-0.152 0.607-0.455v0l1.213-4.095c0.758-0.303 1.365-0.607 2.123-0.91l3.64 1.971c0.152 0.152 0.455 0.152 0.607-0.152l2.427-2.427c0.152-0.152 0.152-0.455 0.152-0.607v0l-1.971-3.64c0.303-0.758 0.758-1.365 0.91-2.275l4.095-1.213c0.303 0 0.455-0.303 0.455-0.455v-3.336c-0.455-0.303-0.607-0.455-0.758-0.607zM30.635 17.289l-4.246 1.213c-0.303 1.062-0.758 2.123-1.365 3.185l2.123 3.791-1.82 1.82-3.791-2.123c-0.91 0.607-1.971 1.062-3.033 1.213l-1.213 4.246h-2.578l-1.213-4.246c-1.062-0.303-2.123-0.758-3.033-1.213l-3.943 2.123-1.668-1.82 2.123-3.943c-0.607-0.91-0.91-1.971-1.213-2.881l-4.246-1.213v-2.73l4.246-1.213c0.152-1.062 0.607-2.123 1.213-3.033l-2.123-3.792 1.82-1.82 3.943 2.123c0.758-0.607 1.82-1.062 2.881-1.365l1.213-4.246h2.578l1.213 4.246c1.062 0.303 2.123 0.758 3.185 1.365l3.791-2.123 1.82 1.82-2.123 3.791c0.455 0.91 0.91 1.972 1.213 3.033l4.246 1.213v2.578z"></path>
</svg>
