<!-- Generated by IcoMoon.io -->
<svg version="1.1" xmlns="http://www.w3.org/2000/svg" width="32" height="32" viewBox="0 0 32 32">
<title>cogs</title>
<path d="M11.631 6.523c-2.831 0-5.108 2.277-5.108 5.108s2.277 5.108 5.108 5.108c2.831 0 5.108-2.277 5.108-5.108s-2.277-5.108-5.108-5.108zM11.631 15.262c-2.031 0-3.631-1.6-3.631-3.631s1.6-3.631 3.631-3.631c2.031 0 3.631 1.6 3.631 3.631s-1.6 3.631-3.631 3.631zM31.508 23.692v0l-1.108-0.246c0 0 0-0.062-0.062-0.062l0.615-0.985c0.123-0.246 0.123-0.554-0.062-0.738l-1.662-1.662c-0.123-0.123-0.246-0.185-0.431-0.185-0.123 0-0.246 0.062-0.369 0.123v0l-0.985 0.615c0 0-0.062 0-0.062-0.062l-0.246-1.108c-0.062-0.246-0.308-0.492-0.554-0.492h-2.4c-0.308 0-0.492 0.185-0.554 0.492v0l-0.246 1.108c0 0-0.062 0-0.062 0.062l-0.985-0.615c-0.123-0.062-0.246-0.123-0.308-0.123-0.123 0-0.308 0.062-0.431 0.185l-1.662 1.662c-0.185 0.185-0.246 0.492-0.062 0.738v0l0.615 0.985c0 0 0 0.062-0.062 0.062l-1.108 0.246c-0.246 0.062-0.492 0.308-0.492 0.554v2.4c0 0.308 0.185 0.492 0.492 0.554v0l1.108 0.246c0 0 0 0.062 0.062 0.062l-0.615 0.985c-0.123 0.246-0.123 0.554 0.062 0.738l1.662 1.662c0.123 0.123 0.246 0.185 0.431 0.185 0.123 0 0.246-0.062 0.369-0.123v0l0.985-0.615c0 0 0.062 0 0.062 0.062l0.246 1.108c0.062 0.246 0.308 0.492 0.554 0.492h2.4c0.308 0 0.492-0.185 0.554-0.492v0l0.246-1.108c0 0 0.062 0 0.062-0.062l0.985 0.615c0.123 0.062 0.246 0.123 0.369 0.123s0.308-0.062 0.431-0.185l1.662-1.662c0.185-0.185 0.246-0.492 0.062-0.738v0l-0.615-0.985c0 0 0-0.062 0.062-0.062l1.108-0.246c0.246-0.062 0.492-0.308 0.492-0.554v-2.4c-0.062-0.246-0.246-0.492-0.554-0.554zM30.523 25.969l-0.431 0.062c-0.431 0.062-0.862 0.369-1.046 0.8 0 0.062-0.062 0.123-0.062 0.123-0.185 0.431-0.123 0.985 0.123 1.354l0.246 0.369-0.677 0.677-0.369-0.246c-0.246-0.185-0.554-0.246-0.8-0.246-0.185 0-0.369 0.062-0.554 0.123-0.062 0-0.062 0.062-0.123 0.062-0.431 0.185-0.738 0.554-0.8 1.046l-0.062 0.431h-0.985l-0.062-0.431c-0.062-0.431-0.369-0.862-0.8-1.046-0.062 0-0.062-0.062-0.123-0.062-0.246-0.062-0.431-0.062-0.615-0.062-0.308 0-0.554 0.062-0.8 0.246l-0.369 0.246-0.677-0.677 0.246-0.369c0.246-0.431 0.308-0.923 0.123-1.354 0-0.062-0.062-0.062-0.062-0.123-0.185-0.431-0.554-0.738-1.046-0.8l-0.431-0.062v-0.985l0.431-0.062c0.431-0.062 0.862-0.369 1.046-0.8 0-0.062 0.062-0.062 0.062-0.123 0.185-0.431 0.123-0.985-0.123-1.354l-0.246-0.492 0.677-0.677 0.369 0.246c0.246 0.185 0.554 0.246 0.8 0.246 0.185 0 0.369-0.062 0.554-0.123 0.062 0 0.062-0.062 0.123-0.062 0.431-0.185 0.738-0.554 0.8-1.046l0.062-0.431h0.985l0.062 0.431c0.062 0.431 0.369 0.862 0.8 1.046 0.062 0 0.062 0.062 0.123 0.062 0.185 0.062 0.369 0.123 0.554 0.123 0.308 0 0.554-0.062 0.8-0.246l0.369-0.246 0.677 0.677-0.246 0.369c-0.246 0.431-0.308 0.923-0.123 1.354 0 0.062 0.062 0.062 0.062 0.123 0.185 0.431 0.554 0.738 1.046 0.8l0.431 0.062v1.046zM25.477 23.262c-1.231 0-2.154 0.985-2.154 2.154 0 1.231 0.985 2.154 2.154 2.154 1.231 0 2.154-0.985 2.154-2.154s-0.985-2.154-2.154-2.154zM25.477 26.154c-0.431 0-0.738-0.308-0.738-0.738 0-0.369 0.308-0.738 0.738-0.738 0.369 0 0.738 0.308 0.738 0.738-0.062 0.431-0.369 0.738-0.738 0.738zM20.677 19.077c0.185-0.185 0.185-0.431 0.123-0.615v0l-1.354-2.646c0.246-0.492 0.492-1.046 0.677-1.6l2.769-0.923c0.246-0.062 0.369-0.246 0.369-0.492v-2.215c0-0.246-0.185-0.431-0.369-0.492v0l-2.769-0.923c-0.185-0.554-0.431-1.108-0.677-1.6l1.354-2.646c0.123-0.185 0.062-0.492-0.123-0.615l-1.6-1.662c-0.123-0.123-0.246-0.185-0.369-0.185-0.062 0-0.185 0-0.246 0.062v0l-2.646 1.354c-0.492-0.246-1.046-0.492-1.6-0.677l-0.923-2.769c-0.123-0.246-0.308-0.431-0.554-0.431h-2.215c-0.246 0-0.431 0.185-0.492 0.369v0l-0.923 2.769c-0.554 0.185-1.108 0.431-1.6 0.677l-2.646-1.292c-0.123-0.062-0.185-0.062-0.308-0.062s-0.246 0.062-0.369 0.185l-1.538 1.538c-0.185 0.185-0.246 0.431-0.123 0.615v0l1.354 2.646c-0.246 0.492-0.492 1.046-0.677 1.6l-2.769 0.923c-0.246 0.123-0.431 0.308-0.431 0.554v2.215c0 0.246 0.185 0.431 0.369 0.492v0l2.769 0.923c0.185 0.554 0.431 1.108 0.677 1.6l-1.292 2.708c-0.123 0.185-0.062 0.492 0.123 0.615l1.538 1.538c0.123 0.123 0.246 0.185 0.369 0.185 0.062 0 0.185 0 0.246-0.062v0l2.646-1.354c0.492 0.246 1.046 0.492 1.6 0.677l0.923 2.769c0.062 0.246 0.246 0.369 0.492 0.369h2.215c0.246 0 0.431-0.185 0.492-0.369v0l0.923-2.769c0.554-0.185 1.108-0.431 1.6-0.677l2.646 1.354c0.062 0.062 0.185 0.062 0.246 0.062 0.123 0 0.246-0.062 0.369-0.185l1.723-1.538zM18.523 19.138l-2.092-1.046c-0.185-0.123-0.431-0.123-0.677-0.123s-0.492 0.062-0.677 0.185c-0.492 0.246-0.923 0.431-1.354 0.554s-0.8 0.492-0.923 0.923l-0.738 2.154h-0.923l-0.677-2.154c-0.123-0.431-0.492-0.8-0.923-0.923s-0.8-0.308-1.354-0.554c-0.185-0.123-0.431-0.185-0.677-0.185s-0.431 0.062-0.677 0.123l-2.092 1.046-0.677-0.677 1.046-2.092c0.185-0.431 0.185-0.923 0-1.354-0.246-0.492-0.431-0.923-0.554-1.292-0.123-0.431-0.492-0.8-0.923-0.923l-2.154-0.738v-0.923l2.154-0.677c0.431-0.123 0.8-0.492 0.923-0.923s0.308-0.8 0.554-1.354c0.246-0.431 0.246-0.923 0-1.354l-0.985-2.092 0.677-0.677 2.092 1.046c0.185 0.123 0.431 0.123 0.677 0.123s0.492-0.062 0.677-0.185c0.492-0.246 0.923-0.431 1.354-0.554s0.8-0.492 0.923-0.923l0.738-2.154h0.923l0.738 2.154c0.123 0.431 0.492 0.8 0.923 0.923s0.8 0.308 1.354 0.554c0.246 0.123 0.431 0.185 0.677 0.185s0.431-0.062 0.677-0.123l2.092-1.046 0.677 0.677-1.046 2.092c-0.185 0.431-0.185 0.923 0 1.354 0.246 0.492 0.431 0.923 0.554 1.354s0.492 0.8 0.923 0.923l2.154 0.738v0.923l-2.154 0.738c-0.431 0.123-0.8 0.492-0.923 0.923s-0.308 0.8-0.554 1.292c-0.246 0.431-0.246 0.923 0 1.354l1.046 2.092-0.8 0.615z"></path>
</svg>
