<!-- Generated by IcoMoon.io -->
<svg version="1.1" xmlns="http://www.w3.org/2000/svg" width="31" height="32" viewBox="0 0 31 32">
<title>collapse</title>
<path d="M2.162 3.096h26.413c0.486 0 0.881-0.393 0.881-0.881s-0.395-0.881-0.881-0.881h-26.413c-0.486 0-0.881 0.393-0.881 0.881s0.395 0.881 0.881 0.881zM28.576 28.904h-26.413c-0.486 0-0.881 0.395-0.881 0.881 0 0.488 0.395 0.881 0.881 0.881h26.413c0.486 0 0.881-0.393 0.881-0.881 0-0.486-0.395-0.881-0.881-0.881zM14.379 9.616h1.976v20.577h-1.976v-20.577zM7.24 15.929l-1.207-1.565 9.336-7.188 9.334 7.188-1.205 1.565-8.129-6.259z"></path>
</svg>
