<!-- Generated by IcoMoon.io -->
<svg version="1.1" xmlns="http://www.w3.org/2000/svg" width="32" height="32" viewBox="0 0 32 32">
<title>connection-status</title>
<path d="M24.963 22.283l-1.34-1.173c1.675-1.843 2.681-4.356 2.681-6.869s-1.005-5.026-2.681-6.869l1.34-1.34c2.010 2.178 3.183 5.194 3.183 8.209 0 2.848-1.173 5.864-3.183 8.042zM6.869 22.283c-2.010-2.178-3.183-5.194-3.183-8.209s1.173-5.864 3.016-8.209l1.34 1.173c-1.675 1.843-2.681 4.356-2.681 6.869s1.005 5.026 2.681 6.869l-1.173 1.508zM9.215 19.435c-1.173-1.508-1.843-3.351-1.843-5.194 0-2.010 0.67-3.686 1.843-5.194l1.508 1.173c-0.838 1.005-1.34 2.346-1.34 3.853s0.503 2.848 1.508 4.021l-1.675 1.34zM22.618 19.435l-1.508-1.173c1.005-1.173 1.508-2.513 1.508-4.021s-0.503-2.848-1.508-4.021l1.508-1.34c1.173 1.508 1.843 3.351 1.843 5.194 0 2.010-0.67 3.853-1.843 5.361zM19.602 14.073c0 2.036-1.65 3.686-3.686 3.686s-3.686-1.65-3.686-3.686c0-2.036 1.65-3.686 3.686-3.686s3.686 1.65 3.686 3.686zM15.916 14.073v0c1.005 0 1.843 0.838 1.843 1.843v11.225c0 1.005-0.838 1.843-1.843 1.843s-1.843-0.838-1.843-1.843v-11.058c0-1.173 0.838-2.010 1.843-2.010zM4.356 25.131c-2.848-3.016-4.356-6.869-4.356-11.058s1.508-8.042 4.356-11.058l1.34 1.34c-2.513 2.681-3.853 6.199-3.853 9.717 0 3.686 1.34 7.037 3.853 9.717l-1.34 1.34zM27.476 25.131l-1.34-1.34c2.513-2.681 3.853-6.031 3.853-9.717 0-3.518-1.34-7.037-3.853-9.717l1.508-1.173c2.848 3.016 4.356 6.869 4.356 10.89-0.168 4.188-1.675 8.042-4.524 11.058z"></path>
</svg>
