<?xml version="1.0" encoding="utf-8"?>
<!-- Generator: Adobe Illustrator 25.2.3, SVG Export Plug-In . SVG Version: 6.00 Build 0)  -->
<svg version="1.1" xmlns="http://www.w3.org/2000/svg" xmlns:xlink="http://www.w3.org/1999/xlink" x="0px" y="0px"
	 viewBox="0 0 24 24" style="enable-background:new 0 0 24 24;" xml:space="preserve">
<g id="Layer_2">
</g>
<g id="mdi-certificate-outline">
	<g>
		<path d="M11,8H5V6h6C11,6,11,8,11,8z"/>
		<path d="M9,11H5V9h4C9,9,9,11,9,11z"/>
		<rect x="5" y="12" width="6" height="2"/>
		<path d="M11.4,15H4V5h16v4.8c1,0.7,1.7,2,2,2.8V5c0-1.1-0.9-2-2-2H4C2.9,3,2,3.9,2,5v10c0,1.1,0.9,2,2,2h8.1
			C11.7,16.4,11.5,15.7,11.4,15z"/>
		<path d="M15.1,14.3c0-0.9,0.7-1.6,1.6-1.6c0.9,0,1.6,0.7,1.6,1.6c0,0.9-0.7,1.6-1.6,1.6C15.9,15.9,15.1,15.2,15.1,14.3 M16.8,11
			c-0.9,0-1.7,0.3-2.3,0.9c-0.6,0.6-1,1.4-1,2.3c0,0.9,0.3,1.7,1,2.3c0.6,0.6,1.4,1,2.3,1c0.9,0,1.7-0.3,2.3-1c0.6-0.6,1-1.4,1-2.3
			c0-0.9-0.3-1.7-1-2.3C18.5,11.3,17.6,11,16.8,11 M21.1,14.3c0,0.5-0.1,1-0.3,1.5c-0.2,0.5-0.4,1-0.8,1.3v4.2l-3.3-1.1l-3.3,1.1
			v-4.2c-0.7-0.8-1.1-1.8-1.1-2.9c0-1.2,0.4-2.3,1.3-3.1c0.8-0.8,1.9-1.3,3.1-1.3c1.2,0,2.3,0.4,3.1,1.3
			C20.7,12,21.1,13.1,21.1,14.3z"/>
	</g>
</g>
</svg>
