<!-- Generated by IcoMoon.io -->
<svg version="1.1" xmlns="http://www.w3.org/2000/svg" width="32" height="32" viewBox="0 0 32 32">
<title>curly-braces</title>
<path d="M24.438 0.080h-3.662v1.91c2.070 0 3.184 0 3.184 0s2.388-0.159 2.388 1.751v7.801c0 3.98 4.935 4.458 4.935 4.458h0.637c0 0 0-0.637 0-1.751 0 0-1.91 0.159-3.025-0.955-0.637-0.637-0.796-1.91-0.796-3.343v-5.891c0.159 0 0.159-3.98-3.662-3.98zM28.259 22.050c0-1.433 0.159-2.706 0.796-3.343 1.114-0.955 3.025-0.955 3.025-0.955 0-1.114 0-1.751 0-1.751h-0.637c0 0-4.935 0.478-4.935 4.458v7.801c0 1.91-2.388 1.751-2.388 1.751s-1.114 0-3.184 0v1.91h3.662c3.662 0 3.662-3.98 3.662-3.98v-5.891zM5.652 20.458c0-3.98-4.935-4.458-4.935-4.458s4.935-0.478 4.935-4.458v-7.642c0-2.070 2.388-1.91 2.388-1.91s1.114 0 3.184 0v-1.91h-3.662c-3.821 0-3.821 3.98-3.821 3.98v6.050c0 1.433-0.159 2.706-0.796 3.343-0.955 0.955-2.866 0.796-2.866 0.796 0 1.114 0 1.751 0 1.751s0 0.637 0 1.751c0 0 1.91-0.159 3.025 0.955 0.637 0.637 0.796 1.91 0.796 3.343v6.050c0 0 0 3.98 3.662 3.98h3.662v-1.91c-2.070 0-3.184 0-3.184 0s-2.388 0.159-2.388-1.751v-7.96z"></path>
</svg>
