<!-- Generated by IcoMoon.io -->
<svg version="1.1" xmlns="http://www.w3.org/2000/svg" width="32" height="32" viewBox="0 0 32 32">
<title>delete</title>
<path d="M11.687 27.687c0.417 0 0.696-0.417 0.696-0.835l-0.696-17.391c0-0.417-0.417-0.696-0.835-0.696s-0.696 0.417-0.696 0.835l0.696 17.53c0.139 0.278 0.417 0.557 0.835 0.557zM28.383 4.313h-5.843v-1.391c0-1.67-1.252-2.922-2.922-2.922h-7.235c-1.53 0-2.922 1.252-2.922 2.922v1.391h-5.843c-0.417 0-0.696 0.417-0.696 0.835s0.278 0.696 0.696 0.696h0.696l1.391 23.374c0.139 1.53 1.391 2.783 3.061 2.783h14.609c1.67 0 2.922-1.252 2.922-2.922l1.391-23.374h0.696c0.417 0 0.696-0.278 0.696-0.696s-0.278-0.696-0.696-0.696zM10.991 2.922c0-0.835 0.696-1.391 1.391-1.391h7.235c0.835 0 1.391 0.696 1.391 1.391v1.391h-10.017v-1.391zM24.765 29.217c0 0.835-0.696 1.391-1.391 1.391h-14.609c-0.835 0-1.391-0.696-1.391-1.391l-1.391-23.374h20.452l-1.67 23.374zM20.313 27.687c0.417 0 0.696-0.278 0.835-0.696l0.696-17.391c0-0.417-0.278-0.696-0.696-0.835-0.417 0-0.696 0.278-0.835 0.696l-0.696 17.53c0 0.278 0.417 0.696 0.696 0.696zM16 27.687c0.417 0 0.696-0.278 0.696-0.696v-17.53c0-0.417-0.278-0.696-0.696-0.696s-0.696 0.278-0.696 0.696v17.53c0 0.417 0.278 0.696 0.696 0.696z"></path>
</svg>
