<!-- Generated by IcoMoon.io -->
<svg version="1.1" xmlns="http://www.w3.org/2000/svg" width="32" height="32" viewBox="0 0 32 32">
<title>desktop</title>
<path d="M29.091 1.455h-26.182c-1.607 0-2.909 1.303-2.909 2.909v18.909c0 1.607 1.303 2.909 2.909 2.909h10.182v2.909h-1.455c-0.402 0-0.727 0.325-0.727 0.727s0.325 0.727 0.727 0.727h8.727c0.402 0 0.727-0.325 0.727-0.727s-0.325-0.727-0.727-0.727h-1.455v-2.909h10.182c1.607 0 2.909-1.303 2.909-2.909v-18.909c0-1.607-1.303-2.909-2.909-2.909zM17.454 29.091h-2.909v-2.909h2.909v2.909zM30.545 23.273c0 0.803-0.652 1.455-1.455 1.455h-26.182c-0.803 0-1.455-0.652-1.455-1.455v-1.455h29.091v1.455zM30.545 20.364h-29.091v-16c0-0.803 0.652-1.455 1.455-1.455h26.182c0.803 0 1.455 0.652 1.455 1.455v16z"></path>
</svg>
