<!-- Generated by IcoMoon.io -->
<svg version="1.1" xmlns="http://www.w3.org/2000/svg" width="32" height="32" viewBox="0 0 32 32">
<title>details</title>
<path d="M6.146 19.285h19.285c0.212 0 0.636-0.212 0.636-0.636 0-0.212-0.212-0.636-0.636-0.636h-19.285c-0.212 0-0.636 0.212-0.636 0.636 0.212 0.424 0.424 0.636 0.636 0.636zM6.146 14.834h19.285c0.212 0 0.636-0.212 0.636-0.636s-0.212-0.636-0.636-0.636h-19.285c-0.212 0-0.636 0.212-0.636 0.636s0.424 0.636 0.636 0.636zM6.146 23.947h19.285c0.212 0 0.636-0.212 0.636-0.636 0-0.212-0.212-0.636-0.636-0.636h-19.285c-0.212 0-0.636 0.212-0.636 0.636 0.212 0.424 0.424 0.636 0.636 0.636zM29.457 2.331h-27.126c-1.272 0-2.331 1.060-2.331 2.331v22.675c0 1.271 1.060 2.331 2.331 2.331h27.338c1.271 0 2.331-1.060 2.331-2.331v-22.675c-0.212-1.272-1.271-2.331-2.543-2.331zM30.729 27.338c0 0.636-0.424 1.060-1.060 1.060h-27.338c-0.636 0-1.060-0.424-1.060-1.060v-18.225h29.457v18.225zM30.729 8.053h-29.669v-3.391c0-0.636 0.424-1.060 1.060-1.060h27.338c0.636 0 1.060 0.424 1.060 1.060v3.391z"></path>
</svg>
