<!-- Generated by IcoMoon.io -->
<svg version="1.1" xmlns="http://www.w3.org/2000/svg" width="32" height="32" viewBox="0 0 32 32">
<title>device</title>
<path d="M25.246 4.572h-18.489v-2.287c0-0.631 0.518-1.142 1.156-1.142h16.177c0.638 0 1.156 0.511 1.156 1.142v2.287zM6.756 26.285v-20.571h18.489v20.571h-18.489zM25.246 29.713c0 0.631-0.518 1.143-1.156 1.143h-16.177c-0.638 0-1.156-0.513-1.156-1.143v-2.285h18.489v2.285zM24.089 0h-16.177c-1.276 0-2.312 1.023-2.312 2.285v27.428c0 1.262 1.037 2.287 2.312 2.287h16.177c1.276 0 2.311-1.025 2.311-2.287v-27.428c0-1.262-1.035-2.285-2.311-2.285zM17.156 2.285h-2.311c-0.321 0-0.579 0.255-0.579 0.573 0 0.315 0.258 0.571 0.579 0.571h2.311c0.321 0 0.577-0.255 0.577-0.571 0-0.317-0.257-0.573-0.577-0.573zM16 30.286c0.638 0 1.156-0.513 1.156-1.143s-0.518-1.143-1.156-1.143c-0.638 0-1.154 0.513-1.154 1.143s0.517 1.143 1.154 1.143z"></path>
</svg>
