<!-- Generated by IcoMoon.io -->
<svg version="1.1" xmlns="http://www.w3.org/2000/svg" width="32" height="32" viewBox="0 0 32 32">
<title>directory-hollow</title>
<path d="M10.805 9.143h18.286c1.662 0 2.909-1.247 2.909-2.909s-1.247-2.909-2.701-2.909h-18.494c-1.455 0-2.701 1.247-2.701 2.909s1.247 2.909 2.701 2.909zM10.805 4.571h18.286c1.039 0 1.662 0.831 1.662 1.662 0 1.039-0.831 1.662-1.662 1.662h-18.286c-1.039 0-1.662-0.831-1.662-1.662s0.831-1.662 1.662-1.662zM29.299 22.857h-18.494c-1.662 0-2.909 1.247-2.909 2.909s1.247 2.909 2.909 2.909h18.286c1.662 0 2.909-1.247 2.909-2.909s-1.247-2.909-2.701-2.909zM29.299 27.429h-18.494c-1.039 0-1.662-0.831-1.662-1.662s0.831-1.662 1.662-1.662h18.286c1.039 0 1.662 0.831 1.662 1.662s-0.623 1.662-1.455 1.662zM29.299 13.091h-18.494c-1.662 0-2.909 1.247-2.909 2.909s1.247 2.909 2.909 2.909h18.286c1.662 0 2.909-1.247 2.909-2.909s-1.247-2.909-2.701-2.909zM29.299 17.662h-18.494c-1.039 0-1.662-0.831-1.662-1.662 0-1.039 0.831-1.662 1.662-1.662h18.286c1.039 0 1.662 0.831 1.662 1.662 0.208 1.039-0.623 1.662-1.455 1.662zM2.909 22.857c-1.662 0-2.909 1.247-2.909 2.909s1.247 2.909 2.909 2.909 2.909-1.247 2.909-2.909-1.455-2.909-2.909-2.909zM2.909 27.429c-1.039 0-1.662-0.831-1.662-1.662s0.623-1.662 1.662-1.662 1.662 0.831 1.662 1.662-0.831 1.662-1.662 1.662zM2.909 13.091c-1.662 0-2.909 1.247-2.909 2.909s1.247 2.909 2.909 2.909 2.909-1.247 2.909-2.909-1.455-2.909-2.909-2.909zM2.909 17.662c-1.039 0-1.662-0.831-1.662-1.662 0-1.039 0.831-1.662 1.662-1.662 1.039 0 1.662 0.831 1.662 1.662 0 1.039-0.831 1.662-1.662 1.662zM2.909 3.325c-1.662 0-2.909 1.247-2.909 2.909s1.247 2.909 2.909 2.909 2.909-1.247 2.909-2.909-1.455-2.909-2.909-2.909zM2.909 7.896c-1.039 0-1.662-0.831-1.662-1.662 0-1.039 0.831-1.662 1.662-1.662 1.039 0 1.662 0.831 1.662 1.662 0 1.039-0.831 1.662-1.662 1.662z"></path>
</svg>
