<!-- Generated by IcoMoon.io -->
<svg version="1.1" xmlns="http://www.w3.org/2000/svg" width="32" height="32" viewBox="0 0 32 32">
<title>directory</title>
<path d="M3.395 18.667c-1 0-1.833 0.833-1.833 1.833s0.833 1.833 1.833 1.833c1 0 1.833-0.833 1.833-1.833s-0.833-1.833-1.833-1.833zM3.395 27c-1 0-1.833 0.833-1.833 1.833s0.833 1.833 1.833 1.833c1 0 1.833-0.833 1.833-1.833s-0.833-1.833-1.833-1.833zM3.395 10.5c-1 0-1.833 0.833-1.833 1.833s0.833 1.833 1.833 1.833c1 0 1.833-0.833 1.833-1.833s-0.833-1.833-1.833-1.833zM9.728 4h19.833c0.5 0 0.833-0.333 0.833-0.833s-0.333-0.833-0.833-0.833h-19.833c-0.5 0-0.833 0.333-0.833 0.833s0.333 0.833 0.833 0.833zM29.728 19.667h-20c-0.5 0-0.833 0.333-0.833 0.833s0.333 0.833 0.833 0.833h19.833c0.5 0 0.833-0.333 0.833-0.833 0.167-0.5-0.167-0.833-0.667-0.833zM29.728 11.333h-20c-0.5 0-0.833 0.5-0.833 1s0.333 0.833 0.833 0.833h19.833c0.5 0 0.833-0.333 0.833-0.833s-0.167-1-0.667-1zM3.395 1.333c-1 0-1.833 0.833-1.833 1.833s0.833 1.833 1.833 1.833c1 0 1.833-0.833 1.833-1.833s-0.833-1.833-1.833-1.833zM29.728 27.833h-20c-0.5 0-0.833 0.333-0.833 0.833s0.333 0.833 0.833 0.833h19.833c0.5 0 0.833-0.333 0.833-0.833 0.167-0.333-0.167-0.833-0.667-0.833z"></path>
</svg>
