<!-- Generated by IcoMoon.io -->
<svg version="1.1" xmlns="http://www.w3.org/2000/svg" width="32" height="32" viewBox="0 0 32 32">
<title>docs</title>
<path d="M17.733 22.88h-10.293c-0.32 0-0.587 0.267-0.587 0.587s0.267 0.587 0.587 0.587h10.293c0.32 0 0.587-0.267 0.587-0.587 0-0.373-0.267-0.587-0.587-0.587zM7.44 20.587h6.88c0.32 0 0.587-0.267 0.587-0.587s-0.267-0.587-0.587-0.587h-6.88c-0.32 0-0.587 0.267-0.587 0.587s0.267 0.587 0.587 0.587zM6.853 16.587c0 0.32 0.267 0.587 0.587 0.587h10.293c0.32 0 0.587-0.267 0.587-0.587s-0.267-0.587-0.587-0.587h-10.293c-0.32 0-0.587 0.267-0.587 0.587zM4.56 6.88c-0.587 0-1.12 0.48-1.12 1.12v22.88c0 0.587 0.533 1.12 1.12 1.12h16c0.64 0 1.12-0.533 1.12-1.12v-18.293l-5.653-5.707h-11.467zM20.56 30.88h-16v-22.88h10.293v5.12c0 0.32 0.267 0.587 0.587 0.587h5.12v17.173zM16.027 12.587v-4l4 4h-4zM24.56 9.12h-4.587l1.12 1.12h3.413c0.32 0 0.587-0.267 0.587-0.587 0.053-0.267-0.213-0.533-0.533-0.533zM22.853 0h-11.413c-0.64 0-1.12 0.533-1.12 1.12v4c0 0.32 0.267 0.587 0.587 0.587s0.533-0.267 0.533-0.587v-4h10.293v5.12c0 0.32 0.267 0.587 0.587 0.587h5.12v17.173h-4c-0.32 0-0.587 0.267-0.587 0.587s0.267 0.587 0.587 0.587h4c0.64 0 1.12-0.533 1.12-1.12v-18.347l-5.707-5.707zM22.853 5.707v-4l4 4h-4zM24.56 16h-1.707v1.12h1.707c0.32 0 0.587-0.267 0.587-0.587 0-0.267-0.267-0.533-0.587-0.533zM24.56 12.587h-1.707v1.12h1.707c0.32 0 0.587-0.267 0.587-0.587 0-0.267-0.267-0.533-0.587-0.533z"></path>
</svg>
