<!-- Generated by IcoMoon.io -->
<svg version="1.1" xmlns="http://www.w3.org/2000/svg" width="32" height="32" viewBox="0 0 32 32">
<title>download</title>
<path d="M27.782 16.873c-0.291 0-0.873 0.291-1.164 0.582l-9.309 9.309v-25.309c0-0.873-0.582-1.455-1.455-1.455s-1.455 0.582-1.455 1.455v25.309l-9.6-9.6c-0.291-0.291-0.582-0.291-1.164-0.291-0.873 0-1.455 0.582-1.455 1.455 0 0.291 0.291 0.873 0.582 1.164l12.218 12.218c0 0 0.291 0.291 0.873 0.291s0.873-0.291 1.164-0.582l12.218-12.218c0.291-0.291 0.582-0.582 0.582-1.164-0.582-0.582-1.164-1.164-2.036-1.164z"></path>
</svg>
