<!-- Generated by IcoMoon.io -->
<svg version="1.1" xmlns="http://www.w3.org/2000/svg" width="32" height="32" viewBox="0 0 32 32">
<title>download-box</title>
<path d="M15.665 24.85c0.097 0.103 0.238 0.161 0.393 0.161s0.29-0.064 0.393-0.161l4.419-4.419c0.097-0.097 0.161-0.238 0.161-0.393 0-0.303-0.245-0.554-0.554-0.554-0.155 0-0.29 0.064-0.393 0.161l-3.472 3.472v-10.801c0-0.303-0.245-0.554-0.554-0.554-0.303 0-0.554 0.251-0.554 0.554v10.814l-3.472-3.472c-0.097-0.097-0.238-0.161-0.393-0.161-0.303 0-0.554 0.251-0.554 0.554 0 0.155 0.065 0.29 0.161 0.393l4.419 4.406zM31.349 7.511l-4.419-4.419c-0.097-0.097-0.238-0.161-0.393-0.161h-20.972c-0.155 0-0.29 0.064-0.393 0.161l-4.419 4.419c-0.097 0.103-0.161 0.238-0.161 0.393v20.424c0 0.612 0.496 1.101 1.101 1.101h28.707c0.612 0 1.101-0.496 1.101-1.101v-20.431c0.006-0.148-0.052-0.29-0.155-0.386zM5.791 4.033h20.521l3.311 3.311h-27.142l3.311-3.311zM30.408 28.328h-28.707v-19.877h28.707v19.877z"></path>
</svg>
