<!-- Generated by IcoMoon.io -->
<svg version="1.1" xmlns="http://www.w3.org/2000/svg" width="32" height="32" viewBox="0 0 32 32">
<title>earth</title>
<path d="M19.553 19.165c-1.068-0.549 0.534-0.549-2.137-1.647s-4.274 0-4.274 1.647c0 3.295 2.137 3.844 2.137 3.844-0.534 2.746 0 3.844 0.534 4.393s0.898 1.366 1.38 1.098 0.757-3.844 2.359-5.491 1.069-3.295 0-3.845zM26.181 6.835c-1.473-1.635-3.33-2.91-5.433-3.687-0.041 0.102-0.093 0.198-0.177 0.281-0.571 0.571-1.714 2.286 0.571 2.286 0 0-1.143 3.429 0.571 3.429 1.489 0 2.978-3.012 4.467-2.308zM15.429 12c2.286-1.143 1.714-1.714 2.857-1.714s1.143-2.286-1.143-2.286-1.143 2.857-2.857 1.143 0.571-1.143 1.714-2.286-1.143-1.714-1.714-0.571c0 0-1.714-1.714-2.857 1.143 0 0-2.274-1.366-3.091-2.803-1.148 0.775-2.167 1.724-3.032 2.801 0.485 0.253 1.015 0.609 1.552 1.145 1.714 1.714 0.571 3.429 0 4.571s1.714 2.857 1.714 2.857 1.714 1.143 3.429 1.714c0 0 1.143-0.571-1.143-1.714 0 0-1.714-1.714 0.571-2.286 1.714-0.571 0.571 1.143 1.714 1.143s0-1.714 2.286-2.857zM27.207 8.113c0.364 1.527-3.207 1.491-3.207 5.030 0 2.877 3.245 5.156 5.283 6.213 0.271-1.075 0.431-2.195 0.431-3.355 0-2.939-0.933-5.655-2.507-7.887zM16 0c-8.837 0-16 7.163-16 16s7.163 16 16 16 16-7.163 16-16-7.163-16-16-16zM16 30.857c-8.205 0-14.857-6.652-14.857-14.857s6.652-14.857 14.857-14.857 14.857 6.652 14.857 14.857-6.652 14.857-14.857 14.857z"></path>
</svg>
