<!-- Generated by IcoMoon.io -->
<svg version="1.1" xmlns="http://www.w3.org/2000/svg" width="32" height="32" viewBox="0 0 32 32">
<title>email</title>
<path d="M30.854 24.498l-8.799-8.844 8.799-8.833v17.677zM2.367 24.838l8.347-8.39 3.681 3.697c0.881 0.883 2.307 0.883 3.188 0l3.682-3.697 8.347 8.39h-27.245zM1.142 6.838l8.78 8.815-8.78 8.826v-17.642zM29.611 6.481l-12.803 12.855c-0.451 0.454-1.185 0.454-1.637 0l-12.803-12.855h27.244zM30.854 5.333h-29.712c-0.63 0-1.142 0.513-1.142 1.147v18.358c0 0.634 0.512 1.147 1.142 1.147h29.712c0.631 0 1.142-0.513 1.142-1.147v-18.358c0-0.634-0.511-1.147-1.142-1.147z"></path>
</svg>
