<!-- Generated by IcoMoon.io -->
<svg version="1.1" xmlns="http://www.w3.org/2000/svg" width="32" height="32" viewBox="0 0 32 32">
<title>error-triangle</title>
<path d="M14.606 2.331c-0.341 0.149-0.81 0.469-1.002 0.682-0.213 0.235-3.348 5.437-6.994 11.6-5.779 9.766-6.61 11.259-6.61 12.026 0 1.194 0.618 2.26 1.621 2.836l0.832 0.49h13.54c12.772 0 13.583-0.021 14.286-0.405 1.557-0.81 2.175-2.772 1.365-4.35-0.853-1.663-12.772-21.621-13.178-22.069-0.981-1.087-2.516-1.407-3.859-0.81zM17.208 15.829c-0.085 2.218-0.149 4.329-0.149 4.691 0 0.682-0.043 0.704-0.81 0.704h-0.832l-0.128-2.41c-0.085-1.301-0.149-3.412-0.149-4.691v-2.282h2.196l-0.128 3.987zM17.101 23.078c0.81 0.725 0.235 2.196-0.853 2.196-1.151 0-1.727-1.322-0.96-2.175 0.426-0.469 1.301-0.49 1.812-0.021z"></path>
</svg>
