<!-- Generated by IcoMoon.io -->
<svg version="1.1" xmlns="http://www.w3.org/2000/svg" width="32" height="32" viewBox="0 0 32 32">
<title>error</title>
<path d="M31.305 25.036l-12.539-21.39c-1.291-2.213-4.426-2.213-5.716 0l-6.085 10.695-6.27 10.695c-1.291 2.213 0.369 4.794 2.766 4.794h24.894c2.582 0 4.057-2.582 2.95-4.794zM17.106 13.234l-0.369 8.667h-1.475l-0.369-8.667h2.213zM16 25.773c-0.553 0-1.106-0.553-1.106-1.106 0-0.738 0.553-1.291 1.106-1.291s1.106 0.553 1.106 1.106c0 0.738-0.553 1.291-1.106 1.291z"></path>
</svg>
