<!-- Generated by IcoMoon.io -->
<svg version="1.1" xmlns="http://www.w3.org/2000/svg" width="32" height="32" viewBox="0 0 32 32">
<title>expand</title>
<path d="M27.824 15.771h-23.647c-0.437 0-0.789 0.354-0.789 0.789s0.352 0.789 0.789 0.789h23.647c0.435 0 0.787-0.352 0.787-0.789 0.002-0.435-0.352-0.789-0.787-0.789zM4.177 1.579h23.647c0.435 0 0.787-0.352 0.787-0.789 0.002-0.437-0.352-0.789-0.787-0.789h-23.647c-0.437 0-0.789 0.352-0.789 0.789 0 0.435 0.352 0.789 0.789 0.789zM27.824 7.887h-23.647c-0.437 0-0.789 0.352-0.789 0.787 0 0.437 0.352 0.789 0.789 0.789h23.647c0.435 0 0.787-0.352 0.787-0.789 0.002-0.435-0.352-0.787-0.787-0.787zM15.116 17.349h1.769v12.51h-1.769v-12.51zM16.001 31.999l-9.19-7.074 1.079-1.403 8.111 6.244 8.111-6.244 1.077 1.403z"></path>
</svg>
