<!-- Generated by IcoMoon.io -->
<svg version="1.1" xmlns="http://www.w3.org/2000/svg" width="32" height="32" viewBox="0 0 32 32">
<title>facebook</title>
<path d="M30.667 4.476v23.048c0 1.735-1.408 3.143-3.143 3.143h-5.585v-11.602h3.968l0.57-4.426h-4.537v-2.829c0-1.283 0.354-2.154 2.193-2.154h2.344v-3.955c-0.406-0.052-1.794-0.177-3.418-0.177-3.379 0-5.696 2.063-5.696 5.854v3.267h-3.981v4.426h3.987v11.596h-12.892c-1.735 0-3.143-1.408-3.143-3.143v-23.048c0-1.735 1.408-3.143 3.143-3.143h23.048c1.735 0 3.143 1.408 3.143 3.143z"></path>
</svg>
