<!-- Generated by IcoMoon.io -->
<svg version="1.1" xmlns="http://www.w3.org/2000/svg" width="32" height="32" viewBox="0 0 32 32">
<title>filter</title>
<path d="M15.84 0c-8.8 0-15.84 1.92-15.84 4.48 0 4.48 13.6 15.84 13.6 15.84v10.4c0 0.64 0.64 1.28 1.28 1.28h2.24c0.64 0 1.28-0.64 1.28-1.28v-10.4c0 0 13.6-11.36 13.6-15.84-0.32-2.24-7.36-4.48-16.16-4.48zM17.12 20v10.72h-2.56v-11.040c0 0-10.080-8.48-12.96-13.28 2.88 1.6 8.16 2.56 14.24 2.56s11.36-0.96 13.92-2.24c-2.88 4.96-12.64 13.28-12.64 13.28zM15.84 8.16c-8.16 0-14.88-1.6-14.88-3.52s6.72-3.52 14.88-3.52 14.88 1.6 14.88 3.52-6.88 3.52-14.88 3.52z"></path>
</svg>
