<!-- Generated by IcoMoon.io -->
<svg version="1.1" xmlns="http://www.w3.org/2000/svg" width="32" height="32" viewBox="0 0 32 32">
<title>fingerprint</title>
<path d="M29.166 26.646c-0.067 0-0.135-0.009-0.202-0.029-0.388-0.11-0.61-0.516-0.5-0.903 2.036-7.047 0.234-14.861 0.215-14.941-0.977-3.884-3.531-6.806-7.383-8.44-0.37-0.159-0.543-0.588-0.386-0.958 0.157-0.371 0.586-0.543 0.956-0.388 4.288 1.821 7.134 5.085 8.23 9.44 0.081 0.343 1.913 8.265-0.231 15.691-0.092 0.319-0.382 0.527-0.7 0.527zM3.979 11.783c-0.050 0-0.103-0.005-0.153-0.018-0.395-0.085-0.646-0.471-0.561-0.864 0.653-3.042 2.343-5.807 4.757-7.787 2.449-2.009 5.543-3.114 8.714-3.114 0.777 0 1.558 0.065 2.321 0.195 0.397 0.067 0.664 0.444 0.597 0.842-0.069 0.397-0.445 0.664-0.84 0.595-0.682-0.114-1.381-0.175-2.077-0.175-2.833 0-5.599 0.99-7.79 2.784-2.16 1.773-3.672 4.245-4.254 6.964-0.074 0.343-0.377 0.577-0.712 0.577zM4.415 26.939c-0.209 0-0.417-0.090-0.563-0.263-0.256-0.31-0.213-0.77 0.097-1.028 2.914-2.413 4.362-6.128 3.688-9.464-0.673-3.329 0.179-5.558 0.263-5.769 1.396-3.639 4.945-6.084 8.835-6.084 3.293 0 6.297 1.675 8.039 4.481l0.013 0.023c0.094 0.162 2.265 4.030 1.789 9.816-0.034 0.402-0.386 0.7-0.786 0.665-0.402-0.032-0.701-0.384-0.667-0.784 0.429-5.208-1.482-8.761-1.594-8.964-1.477-2.366-4.014-3.78-6.793-3.78-3.293 0-6.297 2.072-7.475 5.158l-0.009 0.020c-0.007 0.016-0.783 1.971-0.186 4.93 0.781 3.856-0.862 8.124-4.186 10.876-0.137 0.114-0.301 0.168-0.465 0.168zM17.27 32c-0.119 0-0.238-0.031-0.35-0.092-0.353-0.191-0.482-0.635-0.289-0.99 0.139-0.251 0.281-0.509 0.427-0.772 1.664-2.994 3.735-6.721 3.735-11.723 0-4.844-0.701-6.234-0.808-6.418l-0.070-0.059 0.005-0.038c-0.682-1.123-1.856-1.794-3.14-1.794-1.517 0-2.905 0.983-3.452 2.445l-0.007 0.018c0 0-0.321 0.848-0.114 2.146 0.011 0.070 0.023 0.142 0.040 0.216 0.076 0.395-0.18 0.779-0.575 0.857s-0.777-0.18-0.857-0.575c-0.018-0.090-0.032-0.18-0.047-0.267-0.265-1.65 0.13-2.745 0.198-2.914 0.759-2.023 2.694-3.383 4.813-3.383 1.78 0 3.403 0.914 4.357 2.447 1.059 1.329 1.114 6.319 1.114 7.32 0 5.381-2.173 9.291-3.919 12.432-0.146 0.261-0.287 0.516-0.426 0.766-0.132 0.242-0.381 0.379-0.638 0.379zM7.963 29.645c-0.195 0-0.39-0.078-0.532-0.231-0.276-0.294-0.26-0.756 0.034-1.030 3.883-3.627 4.647-7.844 4.606-10.742-0.005-0.404 0.317-0.734 0.72-0.739 0.4-0.009 0.732 0.314 0.739 0.718 0.036 2.615-0.572 7.628-5.069 11.83-0.141 0.13-0.319 0.195-0.498 0.195zM22.895 31.13c-0.126 0-0.252-0.032-0.368-0.101-0.346-0.202-0.463-0.649-0.261-0.995 0.025-0.043 1.706-2.994 2.525-8.667 0.058-0.399 0.427-0.674 0.826-0.617 0.397 0.056 0.674 0.426 0.617 0.824-0.866 6-2.633 9.067-2.709 9.195-0.135 0.233-0.379 0.361-0.629 0.361zM12.288 31.385c-0.169 0-0.339-0.058-0.476-0.179-0.305-0.263-0.339-0.723-0.074-1.028 6.268-7.239 4.451-16.095 4.431-16.183-0.085-0.393 0.166-0.781 0.559-0.867 0.393-0.085 0.781 0.164 0.866 0.559 0.022 0.097 0.523 2.449 0.191 5.778-0.307 3.071-1.412 7.588-4.945 11.668-0.144 0.168-0.348 0.252-0.552 0.252zM1.827 23.475c-0.198 0-0.395-0.079-0.539-0.238-0.272-0.298-0.249-0.759 0.049-1.030 2.218-2.018 2.159-4.418 1.924-5.67-0.114-0.611-0.236-2.563-0.249-2.783-0.025-0.4 0.28-0.747 0.682-0.772s0.748 0.281 0.774 0.683c0.034 0.573 0.144 2.162 0.227 2.604 0.492 2.636-0.375 5.194-2.377 7.015-0.141 0.128-0.316 0.189-0.49 0.189z"></path>
</svg>
