<!-- Generated by IcoMoon.io -->
<svg version="1.1" xmlns="http://www.w3.org/2000/svg" width="32" height="32" viewBox="0 0 32 32">
<title>ghost-timed-out</title>
<path d="M16 30.388c-7.961 0-14.415-6.448-14.415-14.402s6.454-14.402 14.415-14.402 14.415 6.448 14.415 14.402c0 7.954-6.454 14.402-14.415 14.402zM16 0.476c-8.573 0-15.524 6.944-15.524 15.51s6.95 15.51 15.524 15.51c8.573 0 15.523-6.944 15.523-15.51s-6.95-15.51-15.524-15.51zM16 4.354c-0.306 0-0.554 0.248-0.554 0.554v10.525h-6.653c-0.306 0-0.554 0.248-0.554 0.554s0.248 0.554 0.554 0.554h7.207c0.306 0 0.554-0.248 0.554-0.554v-11.079c0-0.306-0.248-0.554-0.554-0.554z"></path>
</svg>
