<!-- Generated by IcoMoon.io -->
<svg version="1.1" xmlns="http://www.w3.org/2000/svg" width="32" height="32" viewBox="0 0 32 32">
<title>ghost-error</title>
<path d="M29.92 29.295h-27.839c-0.834 0-1.5-0.667-1.5-1.5 0-0.125 0-0.208 0.042-0.333l-0.042-0.042 0.167-0.375 14.17-26.131 0.083 0.042c0.542-0.5 1.459-0.5 2 0l0.083-0.042 0.208 0.375 14.128 26.131-0.042 0.042c0.042 0.083 0.042 0.208 0.042 0.333 0 0.834-0.667 1.5-1.5 1.5zM1.705 27.127v0l-0.167 0.375c-0.083 0.083-0.125 0.167-0.125 0.292 0 0.375 0.292 0.667 0.667 0.667h27.881c0.375 0 0.667-0.292 0.667-0.667 0-0.125-0.042-0.208-0.083-0.333l-0.208-0.333-13.711-25.297-0.083-0.125c-0.125-0.167-0.333-0.292-0.542-0.292s-0.417 0.125-0.542 0.333l-0.083 0.167-13.67 25.214zM16 25.002c-0.834 0-1.5-0.667-1.5-1.5s0.667-1.5 1.5-1.5c0.834 0 1.5 0.667 1.5 1.5s-0.667 1.5-1.5 1.5zM16 22.835c-0.375 0-0.667 0.292-0.667 0.667s0.292 0.667 0.667 0.667 0.667-0.292 0.667-0.667-0.292-0.667-0.667-0.667zM16 20.709c-0.792 0-1.459-0.667-1.5-1.459l-1.084-7.543c0-0.834 0.667-1.5 1.5-1.5h2.125c0.834 0 1.5 0.667 1.5 1.5v0.042l-1.084 7.46c0 0.834-0.667 1.5-1.459 1.5zM14.291 11.707l1.084 7.543c0 0.375 0.292 0.667 0.667 0.667s0.667-0.292 0.667-0.667v-0.042l1.084-7.46c0-0.333-0.292-0.625-0.667-0.625h-2.125c-0.417-0.083-0.709 0.208-0.709 0.583z"></path>
</svg>
