<!-- Generated by IcoMoon.io -->
<svg version="1.1" xmlns="http://www.w3.org/2000/svg" width="32" height="32" viewBox="0 0 32 32">
<title>ghost-success</title>
<path d="M12.853 22.812c-0.216 0-0.431-0.086-0.604-0.259l-5.044-5.044c-0.345-0.345-0.345-0.862 0-1.207s0.862-0.345 1.207 0l4.484 4.441 10.174-9.312c0.345-0.302 0.905-0.302 1.207 0.043s0.302 0.905-0.043 1.207l-10.778 9.872c-0.172 0.172-0.388 0.259-0.604 0.259z"></path>
<path d="M16 30.399c-7.976 0-14.399-6.467-14.399-14.399s6.467-14.399 14.399-14.399 14.399 6.467 14.399 14.399c0 7.933-6.424 14.399-14.399 14.399zM16 0.48c-8.579 0-15.52 6.941-15.52 15.52s6.941 15.52 15.52 15.52c8.579 0 15.52-6.941 15.52-15.52s-6.941-15.52-15.52-15.52z"></path>
</svg>
