<!-- Generated by IcoMoon.io -->
<svg version="1.1" xmlns="http://www.w3.org/2000/svg" width="32" height="32" viewBox="0 0 32 32">
<title>globe</title>
<path d="M16 0c-8.889 0-16 7.111-16 16s7.111 16 16 16 16-7.111 16-16-7.111-16-16-16zM12.267 1.6c-1.422 1.244-2.489 3.2-3.378 5.511-1.244-0.356-2.311-1.067-3.2-1.778 1.778-1.778 4.089-3.022 6.578-3.733zM4.978 6.044c1.067 0.889 2.133 1.6 3.556 2.133-0.711 2.133-1.067 4.622-1.067 7.111h-6.222c0-3.378 1.422-6.756 3.733-9.244zM1.244 16.533h6.222c0 2.667 0.356 4.978 1.067 7.111-1.422 0.533-2.489 1.244-3.556 2.133-2.311-2.311-3.733-5.689-3.733-9.244zM5.689 26.667c0.889-0.711 1.956-1.422 3.2-1.778 0.889 2.311 1.956 4.267 3.378 5.511-2.489-0.711-4.8-1.956-6.578-3.733zM15.467 30.756c-2.311-0.356-4.267-2.844-5.511-6.4 1.6-0.533 3.556-0.889 5.511-0.889v7.289zM15.467 22.222c-2.133 0-4.089 0.356-5.867 1.067-0.533-1.956-0.889-4.267-1.067-6.756h6.756l0.178 5.689zM15.467 15.467h-6.933c0-2.489 0.356-4.8 0.889-6.756 1.778 0.533 3.733 0.889 5.867 1.067l0.178 5.689zM15.467 8.533c-1.956 0-3.911-0.356-5.511-0.889 1.244-3.556 3.2-6.044 5.511-6.4v7.289zM30.756 15.467h-6.222c0-2.667-0.356-4.978-1.067-7.111 1.422-0.533 2.489-1.244 3.556-2.133 2.311 2.311 3.733 5.689 3.733 9.244zM26.311 5.333c-0.889 0.711-1.956 1.422-3.2 1.778-0.889-2.311-1.956-4.267-3.378-5.511 2.489 0.711 4.8 1.956 6.578 3.733zM16.533 1.244c2.311 0.356 4.267 2.844 5.511 6.4-1.6 0.533-3.556 0.889-5.511 0.889 0 0 0-7.289 0-7.289zM16.533 9.778c2.133 0 4.089-0.356 5.867-1.067 0.533 1.956 0.889 4.267 0.889 6.756h-6.756v-5.689zM16.533 16.533h6.756c0 2.489-0.356 4.8-0.889 6.756-1.778-0.533-3.733-0.889-5.867-1.067v-5.689zM16.533 30.756v-7.289c1.956 0 3.911 0.356 5.511 0.889-1.244 3.733-3.2 6.044-5.511 6.4zM19.733 30.4c1.422-1.244 2.489-3.2 3.378-5.511 1.244 0.533 2.311 1.067 3.2 1.956-1.778 1.6-4.089 2.844-6.578 3.556zM27.022 25.956c-1.067-0.889-2.133-1.6-3.556-2.133 0.711-2.133 1.067-4.622 1.067-7.111h6.222c0 3.378-1.422 6.756-3.733 9.244z"></path>
</svg>
