<!-- Generated by IcoMoon.io -->
<svg version="1.1" xmlns="http://www.w3.org/2000/svg" width="32" height="32" viewBox="0 0 32 32">
<title>grip</title>
<path d="M13.714 2.116c0 1.185-1.016 2.032-2.032 2.032s-2.201-0.847-2.201-2.032c0-1.016 1.016-2.032 2.032-2.032s2.201 1.016 2.201 2.032zM13.714 11.429c0 1.185-1.016 2.032-2.032 2.032s-2.201-0.847-2.201-2.032c0-1.185 1.016-2.032 2.032-2.032s2.201 0.847 2.201 2.032zM13.714 20.741c0 1.185-1.016 2.032-2.032 2.032s-2.201-0.847-2.201-2.032c0-1.185 1.016-2.032 2.032-2.032s2.201 0.847 2.201 2.032zM13.714 29.884c0 1.185-1.016 2.032-2.032 2.032s-2.201-0.847-2.201-2.032c0-1.185 1.016-2.032 2.032-2.032s2.201 1.016 2.201 2.032zM22.519 2.116c0 1.185-1.016 2.032-2.032 2.032s-2.201-0.847-2.201-2.032c0-1.016 0.847-2.032 2.032-2.032s2.201 1.016 2.201 2.032zM22.519 11.429c0 1.185-1.016 2.032-2.032 2.032s-2.201-0.847-2.201-2.032c0-1.185 1.016-2.032 2.032-2.032s2.201 0.847 2.201 2.032zM22.519 20.741c0 1.185-1.016 2.032-2.032 2.032s-2.032-1.016-2.032-2.032c0-1.185 1.016-2.032 2.032-2.032s2.032 0.847 2.032 2.032zM22.519 29.884c0 1.185-1.016 2.032-2.032 2.032s-2.032-1.016-2.032-2.032c0-1.185 1.016-2.032 2.032-2.032s2.032 1.016 2.032 2.032z"></path>
</svg>
