<!-- Generated by IcoMoon.io -->
<svg version="1.1" xmlns="http://www.w3.org/2000/svg" width="32" height="32" viewBox="0 0 32 32">
<title>group</title>
<path d="M32 16.213c0-0.213-0.213-0.427-0.427-0.427v0 0 0l-7.253-3.2 7.253-3.2c0.213 0 0.427-0.213 0.427-0.427s-0.213-0.427-0.427-0.427v0 0c0 0 0 0 0 0l-15.36-7.253c0 0-0.213 0-0.213 0s-0.213 0-0.213 0v0l-15.36 6.827c0 0 0 0 0 0v0 0c-0.213 0.213-0.427 0.427-0.427 0.64s0.213 0.427 0.427 0.427v0 0 0l7.253 3.2-7.253 3.2c-0.213 0.213-0.427 0.427-0.427 0.64s0.213 0.427 0.427 0.427v0 0 0l7.253 3.2-7.253 3.2c-0.213 0-0.427 0.213-0.427 0.427s0.213 0.427 0.427 0.427v0 0 0l15.36 6.827c0 0 0.213 0 0.213 0s0.213 0 0.213 0v0l15.36-6.827c0.213 0 0.427-0.213 0.427-0.427s-0.213-0.427-0.427-0.427v0 0 0l-7.253-3.2 7.253-3.2c0.213 0 0.427-0.213 0.427-0.427zM1.92 8.747l14.080-6.187 14.080 6.187-14.080 6.187-14.080-6.187zM30.080 23.467l-14.080 6.187-14.080-6.187 7.040-2.987 6.827 2.987c0 0 0.213 0 0.213 0s0.213 0 0.213 0v0l6.827-2.987 7.040 2.987zM16 22.4l-14.080-6.187 7.040-2.987 6.827 2.987c0 0 0.213 0 0.213 0s0.213 0 0.213 0v0l6.827-2.987 7.040 2.987-14.080 6.187z"></path>
</svg>
