<!-- Generated by IcoMoon.io -->
<svg version="1.1" xmlns="http://www.w3.org/2000/svg" width="32" height="32" viewBox="0 0 32 32">
<title>help</title>
<path d="M16 32c-8.823 0-16-7.177-16-16s7.177-16 16-16c8.823 0 16 7.177 16 16s-7.177 16-16 16zM16 1.73c-7.869 0-14.27 6.402-14.27 14.27s6.402 14.27 14.27 14.27c7.869 0 14.27-6.402 14.27-14.27s-6.402-14.27-14.27-14.27zM13.919 18.726v-0.751c0-0.344 0.036-0.657 0.107-0.938s0.18-0.547 0.325-0.801 0.33-0.498 0.56-0.739 0.507-0.488 0.83-0.745c0.284-0.223 0.524-0.422 0.72-0.597s0.355-0.349 0.476-0.522 0.209-0.353 0.263-0.541 0.080-0.408 0.080-0.659c0-0.386-0.13-0.702-0.389-0.953s-0.654-0.375-1.188-0.375c-0.467 0-0.969 0.099-1.505 0.294s-1.093 0.436-1.668 0.72l-1.034-2.24c0.291-0.169 0.607-0.329 0.948-0.481s0.695-0.287 1.064-0.405 0.742-0.211 1.119-0.279 0.751-0.102 1.116-0.102c0.688 0 1.311 0.083 1.865 0.249s1.024 0.406 1.408 0.725 0.683 0.702 0.889 1.155 0.308 0.97 0.308 1.55c0 0.426-0.047 0.806-0.142 1.14s-0.234 0.645-0.419 0.932-0.419 0.564-0.699 0.83-0.609 0.548-0.979 0.846c-0.284 0.223-0.514 0.417-0.694 0.583s-0.32 0.323-0.422 0.472-0.171 0.303-0.208 0.462-0.055 0.346-0.055 0.562v0.609h-2.676zM13.584 22.192c0-0.318 0.045-0.586 0.137-0.806s0.218-0.396 0.381-0.533 0.353-0.234 0.573-0.294 0.455-0.092 0.704-0.092c0.237 0 0.462 0.031 0.675 0.092s0.4 0.159 0.562 0.294 0.291 0.313 0.386 0.533 0.142 0.488 0.142 0.806c0 0.304-0.047 0.564-0.142 0.78s-0.223 0.396-0.386 0.538-0.349 0.244-0.562 0.308-0.438 0.097-0.675 0.097c-0.251 0-0.484-0.033-0.704-0.097s-0.41-0.168-0.573-0.31-0.289-0.322-0.381-0.538-0.137-0.474-0.137-0.778z"></path>
</svg>
