<!-- Generated by IcoMoon.io -->
<svg version="1.1" xmlns="http://www.w3.org/2000/svg" width="32" height="32" viewBox="0 0 32 32">
<title>help-rounded</title>
<path d="M16 1.333c-11.44 0-14.667 3.227-14.667 14.667s3.080 14.667 14.667 14.667 14.667-3.080 14.667-14.667-3.227-14.667-14.667-14.667zM16 26.413c-1.173 0-2.053-0.88-2.053-2.053s0.88-2.053 2.053-2.053c1.173 0 2.053 0.88 2.053 2.053s-0.88 2.053-2.053 2.053zM20.987 15.853l-1.613 1.173c-1.173 0.88-1.32 0.44-1.32 2.2v0.88h-4.107v-1.467c0-2.347 0.587-2.64 1.907-3.813l1.467-1.027c1.173-0.733 1.907-1.32 1.907-2.64 0-1.467-1.173-2.347-2.933-2.347-2.2 0.293-3.227 1.467-3.227 3.373v0.733h-3.813v-0.88c0-4.107 2.933-6.453 7.040-6.453 4.107 0.147 7.040 2.347 7.040 5.72 0 2.2-0.88 3.52-2.347 4.547z"></path>
</svg>
