<!-- Generated by IcoMoon.io -->
<svg version="1.1" xmlns="http://www.w3.org/2000/svg" width="32" height="32" viewBox="0 0 32 32">
<title>help-solid</title>
<path d="M16 0c-8.862 0-16 7.138-16 16s7.138 16 16 16 16-7.138 16-16-7.138-16-16-16zM17.231 26.338h-2.708v-2.954h2.708v2.954zM21.662 14.031c-0.492 0.738-1.231 1.477-2.462 2.462-0.738 0.738-1.231 1.231-1.477 1.723s-0.492 0.738-0.492 0.985c0 0.492-0.246 1.231-0.246 2.215h-2.215c0-0.246 0-0.492 0-0.738 0-0.985 0-1.723 0.246-2.462 0.246-0.492 0.492-0.985 0.985-1.723 0.246-0.492 0.985-0.985 1.723-1.723s1.477-1.231 1.723-1.723c0.246-0.246 0.246-0.738 0.246-1.231 0-0.985-0.246-1.723-0.985-2.462s-1.723-1.231-2.708-1.231c-0.985 0-1.969 0.246-2.462 0.985-0.738 0.738-1.231 1.723-1.477 2.954l-2.462-0.246c0.246-1.723 0.738-3.2 1.969-4.185 0.985-0.985 2.462-1.477 4.431-1.477s3.446 0.492 4.677 1.477c1.231 0.985 1.723 2.215 1.723 3.692 0 0.985-0.246 1.969-0.738 2.708z"></path>
</svg>
