<!-- Generated by IcoMoon.io -->
<svg version="1.1" xmlns="http://www.w3.org/2000/svg" width="24" height="32" viewBox="0 0 24 32">
<title>hour-glass</title>
<path d="M12.526 17.371h-0.823c-0.137 0-0.274 0.137-0.274 0.274v0.823c0 0.137 0.137 0.274 0.274 0.274h0.823c0.137 0 0.274-0.137 0.274-0.274v-0.823c0-0.137-0.137-0.274-0.274-0.274z"></path>
<path d="M12.526 19.657h-0.823c-0.137 0-0.274 0.137-0.274 0.274v0.823c0 0.137 0.137 0.274 0.274 0.274h0.823c0.137 0 0.274-0.137 0.274-0.274v-0.823c0-0.137-0.137-0.274-0.274-0.274z"></path>
<path d="M12.526 22.4h-0.823c-0.137 0-0.274 0.137-0.274 0.274v0.823c0 0.137 0.137 0.274 0.274 0.274h0.823c0.137 0 0.274-0.137 0.274-0.274v-0.823c0-0.137-0.137-0.274-0.274-0.274z"></path>
<path d="M12.526 24.686h-0.823c-0.137 0-0.274 0.137-0.274 0.274v0.823c0 0.137 0.137 0.274 0.274 0.274h0.823c0.137 0 0.274-0.137 0.274-0.274v-0.823c0-0.137-0.137-0.274-0.274-0.274z"></path>
<path d="M22.857 4.48h-21.943c-0.457 0-0.823-0.366-0.823-0.777v-2.834c0-0.411 0.366-0.777 0.823-0.777h21.943c0.457 0 0.777 0.32 0.777 0.731v2.834c0.046 0.457-0.32 0.823-0.777 0.823zM0.914 0.823c-0.046 0-0.091 0.046-0.091 0.046v2.834c0 0.046 0.046 0.046 0.091 0.046h21.943c0.046 0 0.091-0.046 0.091-0.046v-2.834c0-0.046-0.046-0.046-0.091-0.046h-21.943z"></path>
<path d="M22.491 31.909h-21.211c-0.64 0-1.143-0.503-1.143-1.097v-2.149c0-0.594 0.503-1.097 1.143-1.097h21.211c0.64 0 1.143 0.503 1.143 1.097v2.149c0.046 0.594-0.503 1.097-1.143 1.097zM1.28 28.251c-0.274 0-0.457 0.183-0.457 0.411v2.149c0 0.229 0.229 0.411 0.457 0.411h21.211c0.274 0 0.457-0.183 0.457-0.411v-2.149c0-0.229-0.229-0.411-0.457-0.411h-21.211z"></path>
<path d="M2.011 27.474c-0.046-0.366-0.046-0.777-0.046-1.143 0-4.389 2.971-8.32 7.269-9.554v0c0.594-0.183 0.594-0.549 0.594-0.64 0-0.366-0.366-0.549-0.594-0.64v0c-4.297-1.234-7.314-5.166-7.314-9.6 0-0.457 0.046-0.914 0.091-1.371l0.731 0.091c-0.091 0.411-0.091 0.869-0.091 1.28 0 4.023 2.697 7.634 6.629 8.869 0.777 0.183 1.234 0.686 1.234 1.326 0 0.366-0.183 1.051-1.28 1.371-3.886 1.234-6.583 4.846-6.583 8.869 0 0.366 0 0.731 0.046 1.051l-0.686 0.091zM22.217 27.474l-0.686-0.091c0.046-0.366 0.046-0.686 0.046-1.051 0-4.023-2.606-7.543-6.491-8.823-0.823-0.229-1.28-0.777-1.28-1.371 0-0.64 0.457-1.097 1.326-1.371 3.886-1.28 6.491-4.8 6.491-8.823 0-0.411-0.046-0.869-0.091-1.28l0.686-0.091c0.046 0.457 0.091 0.914 0.091 1.371 0 4.343-2.834 8.137-6.994 9.509v0c-0.686 0.229-0.777 0.503-0.777 0.731 0 0.457 0.594 0.686 0.777 0.731v0c4.206 1.326 6.994 5.166 6.994 9.509 0 0.274-0.046 0.686-0.091 1.051z"></path>
</svg>
