<!-- Generated by IcoMoon.io -->
<svg version="1.1" xmlns="http://www.w3.org/2000/svg" width="32" height="32" viewBox="0 0 32 32">
<title>idp</title>
<path d="M26.267 30.667h-20.533c-2.493 0-4.4-1.907-4.4-4.4v-20.533c0-2.493 1.907-4.4 4.4-4.4h20.533c2.493 0 4.4 1.907 4.4 4.4v20.533c0 2.493-1.907 4.4-4.4 4.4zM5.733 3.093c-1.467 0-2.64 1.173-2.64 2.64v20.533c0 1.467 1.173 2.64 2.64 2.64h20.533c1.467 0 2.64-1.173 2.64-2.64v-20.533c0-1.467-1.173-2.64-2.64-2.64h-20.533zM5.293 10.867h2.347v10.707h-2.347v-10.707zM14.973 20.547v0c-0.587 0.88-1.32 1.173-2.347 1.173-2.347 0-3.52-2.053-3.52-4.107s1.173-3.96 3.373-3.96c0.88 0 1.76 0.44 2.347 1.173v0-3.96h2.053v10.707h-1.907v-1.027zM13.067 15.12c-1.32 0-1.907 1.173-1.907 2.493 0 1.173 0.587 2.493 1.907 2.493 1.467 0 1.76-1.173 1.76-2.493 0.147-1.32-0.293-2.493-1.76-2.493zM18.787 10.867h4.84c2.64 0 3.667 1.613 3.667 3.373s-1.027 3.373-3.667 3.373h-2.493v3.813h-2.347v-10.56zM21.133 15.853h1.76c1.027 0 2.053-0.293 2.053-1.613s-1.027-1.613-2.053-1.613h-1.76v3.227z"></path>
</svg>
