<!-- Generated by IcoMoon.io -->
<svg version="1.1" xmlns="http://www.w3.org/2000/svg" width="32" height="32" viewBox="0 0 32 32">
<title>info</title>
<path d="M15.758 11.394c0.485 0 0.97-0.242 1.455-0.485 0.485-0.485 0.485-0.97 0.485-1.455s-0.242-0.97-0.485-1.455c-0.485-0.242-0.97-0.485-1.455-0.485s-0.97 0.242-1.455 0.485c-0.242 0.485-0.485 0.97-0.485 1.455s0.242 0.97 0.485 1.455c0.485 0.485 0.97 0.485 1.455 0.485zM16 0c-8.97 0-16 7.030-16 16 0 8.727 7.030 16 16 16 8.727 0 16-7.030 16-16-0.242-8.97-7.273-16-16-16zM16 30.788c-8.242 0-14.788-6.545-14.788-14.788s6.545-14.788 14.788-14.788c8.242 0 14.788 6.545 14.788 14.788 0 8-6.788 14.788-14.788 14.788zM18.182 23.273c-0.242 0-0.242-0.242-0.485-0.485 0-0.242-0.242-0.485-0.242-0.727v-8.727l-4.848 0.242v0.97c0.242 0 0.485 0 0.727 0s0.485 0.242 0.485 0.242c0.242 0 0.242 0.242 0.485 0.485 0 0.242 0.242 0.485 0.242 0.727v6.303c0 0.242 0 0.485-0.242 0.727s-0.242 0.242-0.485 0.485c0 0-0.242 0-0.485 0s-0.242 0-0.485 0v0.727h6.303v-0.727c-0.242 0-0.242 0-0.485 0s-0.242-0.242-0.485-0.242z"></path>
</svg>
