<!-- Generated by IcoMoon.io -->
<svg version="1.1" xmlns="http://www.w3.org/2000/svg" width="32" height="32" viewBox="0 0 32 32">
<title>key-three</title>
<path d="M16.733 31.754l-3.323-3.569 1.477-1.477-1.477-1.477 1.477-1.354-1.231-1.354v-4.431h1.231v3.938l1.846 1.846-1.477 1.354 1.477 1.477-1.6 1.477 1.6 1.723 1.723-1.969 0.123-6.154h1.231l-0.123 6.646z"></path>
<path d="M5.49 29.071l-1.367-4.769 2.106-0.553-0.719-2.055 2.106-0.553-0.56-1.831 1.849-3.477c-1.494-1.909-1.649-4.501-0.493-6.675 1.733-3.26 5.837-4.424 9.097-2.69v0c1.63 0.867 2.696 2.27 3.314 3.992 0.509 1.665 0.352 3.533-0.457 5.054-1.156 2.173-3.449 3.603-6.034 3.483l-4.623 8.694-4.219 1.381zM5.695 25.277l0.604 2.273 2.555-0.872 4.796-9.020 0.384 0.065c2.143 0.164 4.263-0.939 5.245-2.787 0.693-1.304 0.786-2.788 0.378-4.12-0.516-1.389-1.422-2.568-2.726-3.262-2.717-1.445-6.046-0.427-7.433 2.181-0.982 1.847-0.82 4.164 0.514 5.849l0.268 0.282-1.965 3.695 0.872 2.555-2.048 0.444 0.719 2.055-2.164 0.662z"></path>
<path d="M15.424 12.747c-0.333 0.102-0.825-0.021-1.151-0.194-1.195-0.636-1.653-2.134-1.076-3.22 0.289-0.543 0.795-0.971 1.461-1.175s1.325-0.132 1.868 0.157v0c1.195 0.636 1.653 2.134 1.076 3.22-0.289 0.543-0.795 0.971-1.461 1.175-0.166 0.051-0.499 0.153-0.717 0.037zM15.347 9.221c-0.109-0.058-0.275-0.007-0.333 0.102-0.333 0.102-0.557 0.261-0.673 0.479-0.289 0.543-0.085 1.209 0.567 1.556 0.326 0.173 0.601 0.18 0.934 0.078 0.275 0.007 0.499-0.153 0.673-0.479 0.289-0.543 0.085-1.209-0.567-1.556-0.217-0.116-0.384-0.065-0.601-0.18z"></path>
<path d="M19.318 8.246l-1.231-0.246c0.738-2.831 0.738-3.692 0.738-3.938-0.246-1.477-0.615-2.215-0.862-2.462-0.246 0.246-0.862 0.862-1.231 2.338-0.123 0.369-0.246 1.108-0.246 2.954h-1.231c0-1.6 0.123-2.708 0.246-3.323 0.615-2.092 1.723-3.323 2.585-3.323 0 0 0 0 0 0 0.985 0 1.6 1.846 1.846 3.569 0.123 0.492 0.123 1.354-0.615 4.431z"></path>
<path d="M27.015 30.075l-4.856-1.39 0.547-2.196-2.196-0.547 0.611-2.090-1.921-0.569-2.472-4.114 1.055-0.634 2.219 3.692 2.597 0.737-0.611 2.090 2.196 0.547-0.547 2.196 2.428 0.695 0.505-2.744-5.515-9.178 1.055-0.634 5.768 9.6z"></path>
<path d="M16.238 19.895c-0.614 0.043-1.236-0.037-1.867-0.24l0.414-1.139c1.008 0.3 2.113 0.222 3.087 0.031l0.331 1.211c-0.614 0.043-1.351 0.094-1.964 0.137zM21.723 17.167l-0.911-0.677c0.457-0.525 0.659-1.156 0.862-1.788 0.785-2.893-1.035-5.973-4.173-6.741l0.291-1.131c3.769 0.97 6.008 4.762 5.021 8.285-0.203 0.631-0.519 1.393-1.090 2.050z"></path>
</svg>
