<!-- Generated by IcoMoon.io -->
<svg version="1.1" xmlns="http://www.w3.org/2000/svg" width="32" height="32" viewBox="0 0 32 32">
<title>key-two</title>
<path d="M26.019 29.767l-4.412-1.022 0.306-1.999-1.968-0.465 0.37-1.904-1.714-0.498-2.492-3.695 0.947-0.639 2.237 3.316 2.349 0.621-0.37 1.904 1.968 0.465-0.306 1.999 2.19 0.59 0.335-2.569-5.56-8.243 0.947-0.639 5.816 8.622z"></path>
<path d="M14.028 19.77l3.041-0.522 0.193 1.126-3.041 0.522-0.193-1.126z"></path>
<path d="M20.64 18.077l-0.991-0.569c0.384-0.623 0.555-1.104 0.712-1.7 0.301-1.303 0.020-2.651-0.7-3.829s-1.966-1.946-3.383-2.233l0.215-1.063c1.757 0.245 3.258 1.212 4.133 2.717 0.862 1.391 1.184 3.079 0.798 4.623-0.030 0.695-0.301 1.303-0.784 2.054z"></path>
<path d="M9.596 31.829l-2.971-3.771 1.829-1.257-1.371-1.6 1.829-1.143-1.143-1.371 0.571-3.886c-2.057-1.371-3.2-3.657-2.971-6.171 0.229-1.714 1.143-3.2 2.514-4.229 1.486-1.143 3.429-1.6 5.257-1.257 1.829 0.229 3.543 1.143 4.686 2.629 1.029 1.371 1.486 2.971 1.257 4.571-0.343 2.4-2.057 4.229-4.457 5.143l-1.486 9.714-3.543 2.629zM8.224 28.286l1.6 1.943 2.171-1.714 1.371-9.829 0.343-0.114c2.286-0.686 3.771-2.286 4-4.343 0.229-1.371-0.114-2.629-1.029-3.771-0.914-1.257-2.286-2.057-3.886-2.171v0c-1.371-0.229-2.971 0.114-4.229 1.029-1.143 0.8-1.943 2.057-2.057 3.429-0.229 2.171 0.8 4.114 2.743 5.257l0.229 0.114-0.571 4.114 1.6 2.057-1.829 1.143 1.371 1.6-1.829 1.257z"></path>
<path d="M12.453 13.771c-0.114 0-0.229 0-0.343 0-1.257-0.229-2.171-1.371-2.057-2.629 0.114-0.571 0.457-1.143 0.914-1.486s1.143-0.457 1.714-0.457c1.257 0.229 2.286 1.371 2.057 2.629-0.114 0.571-0.457 1.143-0.914 1.486-0.343 0.229-0.8 0.457-1.371 0.457zM12.453 10.343c-0.229 0-0.571 0.114-0.8 0.229s-0.457 0.457-0.457 0.686c-0.114 0.571 0.343 1.257 1.143 1.257 0.343 0 0.686 0 0.914-0.229s0.457-0.457 0.457-0.686c0.114-0.571-0.343-1.257-1.143-1.257 0 0-0.114 0-0.114 0z"></path>
<path d="M11.424 9.886c-0.114-2.286-0.114-4 0-4.8 0.343-2.4 1.257-4.914 2.286-4.914 0.343 0 1.143 0 2.057 4.914 0.114 0.8 0.229 1.829 0.229 3.314h-1.143c0-1.371-0.114-2.4-0.229-3.086-0.457-2.286-0.8-3.314-0.914-3.771-0.343 0.571-0.8 1.714-1.143 3.771-0.114 0.571-0.114 1.714 0 4.571h-1.143z"></path>
</svg>
