<!-- Generated by IcoMoon.io -->
<svg version="1.1" xmlns="http://www.w3.org/2000/svg" width="32" height="32" viewBox="0 0 32 32">
<title>key</title>
<path d="M8.099 4.543c-1.975 0-3.358 1.58-3.358 3.358 0 1.975 1.58 3.358 3.358 3.358s3.358-1.383 3.358-3.16c0-1.975-1.58-3.556-3.358-3.556zM8.099 10.272c-1.185 0-2.37-0.988-2.37-2.37 0-1.185 0.988-2.37 2.37-2.37s2.37 0.988 2.37 2.37c-0.198 1.383-1.185 2.37-2.37 2.37zM32 25.481c0 0 0 0 0 0s0 0 0 0l-11.852-12.049c0-0.198 0.198-0.395 0.198-0.593s0-0.198 0-0.395 0-0.395 0.198-0.593c0-0.198 0-0.395 0-0.395 0-0.198 0-0.198 0-0.395 0-0.395 0-0.593 0-0.988 0-5.531-4.543-10.074-10.272-10.074s-10.272 4.543-10.272 10.272 4.543 10.272 10.272 10.272c0.395 0 0.593 0 0.988 0 0.198 0 0.198 0 0.395 0s0.395 0 0.593 0c0.198 0 0.395 0 0.593-0.198 0.198 0 0.198 0 0.395 0s0.395-0.198 0.593-0.198l4.938 4.938c0 0 0.198 0 0.198 0.198v0c0 0 0.198 0 0.198 0h2.568v2.765c0 0.395 0.198 0.593 0.593 0.593h2.765v2.765c0 0.395 0.198 0.593 0.593 0.593h5.728c0.395 0 0.593-0.198 0.593-0.593v-5.728c0 0 0 0 0-0.198zM30.815 30.815h-4.543v-2.765c0-0.395-0.198-0.593-0.593-0.593h-2.765v-2.765c0-0.395-0.198-0.593-0.593-0.593h-3.16l-4.938-4.938c-0.198-0.198-0.395-0.395-0.593-0.395 0 0-0.198 0-0.198 0v0c-0.988 0.395-1.975 0.593-3.161 0.593-5.136 0-9.086-4.148-9.086-9.086 0-5.136 4.148-9.086 9.086-9.086 5.136 0 9.086 4.148 9.086 9.086 0 1.185-0.198 2.173-0.593 3.16v0c0 0 0 0.198 0 0.198 0 0.198 0 0.395 0.198 0.395v0l11.852 11.852v4.938z"></path>
</svg>
