<!-- Generated by IcoMoon.io -->
<svg version="1.1" xmlns="http://www.w3.org/2000/svg" width="32" height="32" viewBox="0 0 32 32">
<title>ldap</title>
<path fill="#4b637c" d="M28.263 27.696c-1.468 0-2.636-1.168-2.636-2.636s1.168-2.636 2.636-2.636c1.468 0 2.636 1.168 2.636 2.636s-1.168 2.636-2.636 2.636zM22.090 18.619c-1.468 0-2.636-1.168-2.636-2.636s1.168-2.636 2.636-2.636c1.468 0 2.636 1.168 2.636 2.636s-1.168 2.636-2.636 2.636zM18.586 25.127c0 1.468-1.168 2.636-2.636 2.636s-2.636-1.168-2.636-2.636c0-1.469 1.168-2.636 2.636-2.636s2.636 1.168 2.636 2.636zM15.95 9.544c-1.468 0-2.636-1.168-2.636-2.636s1.168-2.636 2.636-2.636 2.636 1.168 2.636 2.636c0 1.469-1.168 2.636-2.636 2.636zM12.98 15.95c0 1.468-1.168 2.636-2.636 2.636s-2.636-1.168-2.636-2.636c0-1.468 1.168-2.636 2.636-2.636s2.636 1.201 2.636 2.636zM6.34 25.060c0 1.468-1.168 2.636-2.636 2.636s-2.636-1.168-2.636-2.636c0-1.469 1.168-2.636 2.636-2.636s2.636 1.168 2.636 2.636zM28.263 21.389c-0.567 0-1.134 0.133-1.602 0.367l-2.069-3.070c0.734-0.667 1.202-1.635 1.202-2.736 0-2.035-1.668-3.704-3.704-3.704-0.567 0-1.134 0.134-1.602 0.367l-2.035-3.003c0.734-0.667 1.201-1.635 1.201-2.736 0-2.036-1.668-3.704-3.704-3.704s-3.704 1.668-3.704 3.704c0 1.067 0.467 2.069 1.201 2.736l-1.902 2.836c-0.367-0.133-0.801-0.2-1.201-0.2-2.035 0-3.704 1.668-3.704 3.704 0 0.935 0.334 1.769 0.934 2.436l-2.269 3.337c-0.501-0.234-1.034-0.367-1.602-0.367-2.035 0-3.704 1.668-3.704 3.704s1.668 3.704 3.704 3.704 3.704-1.668 3.704-3.704c0-1.068-0.467-2.069-1.201-2.737l2.202-3.237c0.567 0.367 1.235 0.567 1.969 0.567 2.035 0 3.704-1.668 3.704-3.704 0-1.234-0.601-2.336-1.535-3.003l1.835-2.736c0.501 0.233 1.034 0.367 1.602 0.367s1.135-0.133 1.602-0.367l2.036 3.003c-0.734 0.667-1.202 1.635-1.202 2.736s0.467 2.069 1.235 2.736l-2.069 3.104c-0.501-0.234-1.034-0.367-1.602-0.367-2.035 0-3.704 1.668-3.704 3.704s1.668 3.704 3.704 3.704 3.704-1.668 3.704-3.704c0-1.101-0.467-2.069-1.234-2.736l2.069-3.103c0.501 0.233 1.034 0.367 1.602 0.367s1.134-0.133 1.601-0.367l2.069 3.070c-0.734 0.667-1.202 1.635-1.202 2.736 0 2.036 1.668 3.704 3.704 3.704s3.704-1.668 3.704-3.704c-0.033-2.069-1.701-3.704-3.737-3.704z"></path>
</svg>
