<!-- Generated by IcoMoon.io -->
<svg version="1.1" xmlns="http://www.w3.org/2000/svg" width="32" height="32" viewBox="0 0 32 32">
<title>left</title>
<path d="M30.4 14.514h-25.6l5.943-5.943c0.229-0.229 0.457-0.686 0.457-0.914 0-0.686-0.686-1.371-1.371-1.371-0.457 0-0.914 0.229-1.143 0.457l-8.229 8.229c-0.229 0.229-0.457 0.686-0.457 1.143s0.229 0.686 0.457 0.914l8.229 8.229c0.229 0.229 0.686 0.457 0.914 0.457 0.686 0 1.371-0.686 1.371-1.371 0-0.457-0.229-0.686-0.457-0.914l-5.714-5.943h25.829c0.686 0 1.371-0.686 1.371-1.371-0.229-0.914-0.686-1.6-1.6-1.6z"></path>
</svg>
