<!-- Generated by IcoMoon.io -->
<svg version="1.1" xmlns="http://www.w3.org/2000/svg" width="32" height="32" viewBox="0 0 32 32">
<title>line-chart</title>
<path d="M5.334 20.342v0c-0.422 0-0.761-0.358-0.761-0.8 0-0.18 0.067-0.338 0.164-0.472l-0.010-0.008 2.184-4.589c0.015-0.041 0.034-0.079 0.055-0.116l0.046-0.096 0.010 0.008c0.137-0.194 0.35-0.328 0.598-0.328 0.332 0 0.607 0.226 0.711 0.537l0.007-0.003 4.682 8.427 5.346-7.719 0.007 0.004c0.038-0.077 0.087-0.144 0.144-0.204l-0.007-0.008 0.122-0.096c0.007-0.005 0.014-0.012 0.021-0.017l2.905-2.287c0.139-0.144 0.329-0.235 0.538-0.235 0.283 0 0.519 0.17 0.651 0.41l0.010-0.007 2.309 4.246 3.168-7.315 0.007 0.003c0.106-0.312 0.379-0.537 0.711-0.537 0.422 0 0.761 0.358 0.761 0.8 0 0.094-0.022 0.18-0.050 0.264l0.007 0.003-0.013 0.032c-0.005 0.010-0.009 0.019-0.012 0.028l-3.785 8.739-0.007-0.003c-0.105 0.312-0.379 0.537-0.711 0.537-0.283 0-0.519-0.168-0.651-0.41l-0.010 0.007-2.624-4.82-2.272 1.788c-0.002 0-0.002 0.003-0.002 0.003l-5.95 8.59-0.007-0.004c-0.127 0.262-0.377 0.446-0.675 0.446-0.332 0-0.605-0.226-0.711-0.536l-0.007 0.002-4.563-8.214-1.625 3.416c-0.015 0.041-0.036 0.079-0.057 0.116l-0.044 0.096-0.010-0.008c-0.139 0.194-0.35 0.328-0.6 0.328zM2.286 27.427v-22.856h27.427v22.856h-27.427zM30.545 2.286h-29.090c-0.802 0-1.455 0.682-1.455 1.524v24.38c0 0.841 0.651 1.524 1.455 1.524h29.090c0.804 0 1.455-0.682 1.455-1.524v-24.38c0-0.841-0.651-1.524-1.455-1.524v0z"></path>
</svg>
