<!-- Generated by IcoMoon.io -->
<svg version="1.1" xmlns="http://www.w3.org/2000/svg" width="32" height="32" viewBox="0 0 32 32">
<title>link</title>
<path d="M29.69 2.303c-3.078-3.070-8.068-3.071-11.145-0.002l-6.699 6.681c-0.040 0.040-0.074 0.084-0.112 0.125 0.76-0.162 1.536-0.226 2.31-0.198l5.563-5.548c2.491-2.485 6.53-2.484 9.022 0.002s2.492 6.513 0.002 8.997l-6.699 6.681c-2.491 2.485-6.53 2.483-9.022-0.002-1.343-1.339-1.955-3.127-1.851-4.88-0.284 0.183-0.554 0.397-0.803 0.645l-0.656 0.654c0.2 1.695 0.945 3.339 2.249 4.639 3.078 3.070 8.068 3.071 11.145 0.002l6.699-6.681c3.078-3.069 3.076-8.045-0.002-11.115zM12.392 28.641c-2.491 2.484-6.53 2.483-9.022-0.002s-2.492-6.513-0.002-8.997l6.699-6.681c2.491-2.484 6.53-2.483 9.022 0.002 1.343 1.339 1.955 3.127 1.851 4.88 0.284-0.183 0.554-0.397 0.803-0.645l0.656-0.654c-0.2-1.694-0.945-3.339-2.249-4.639-3.078-3.070-8.068-3.071-11.145-0.002l-6.699 6.681c-3.077 3.069-3.075 8.045 0.002 11.115s8.068 3.070 11.145 0.002l6.699-6.681c0.040-0.040 0.074-0.084 0.112-0.125-0.76 0.162-1.536 0.226-2.31 0.198l-5.563 5.549z"></path>
</svg>
