<!-- Generated by IcoMoon.io -->
<svg version="1.1" xmlns="http://www.w3.org/2000/svg" width="32" height="32" viewBox="0 0 32 32">
<title>linkedin</title>
<path d="M28.571 1.333h-25.149c-1.152 0-2.089 0.949-2.089 2.115v25.104c0 1.166 0.936 2.115 2.089 2.115h25.149c1.152 0 2.095-0.949 2.095-2.115v-25.104c0-1.165-0.943-2.115-2.095-2.115zM10.199 26.476h-4.348v-13.999h4.354v13.999zM8.025 10.566c-1.395 0-2.521-1.133-2.521-2.521s1.126-2.521 2.521-2.521c1.388 0 2.521 1.133 2.521 2.521 0 1.395-1.126 2.521-2.521 2.521zM26.496 26.476h-4.348v-6.809c0-1.624-0.033-3.713-2.259-3.713-2.265 0-2.613 1.768-2.613 3.595v6.927h-4.348v-13.999h4.171v1.912h0.059c0.583-1.1 2.004-2.259 4.118-2.259 4.4 0 5.218 2.901 5.218 6.672v7.674z"></path>
</svg>
