<!-- Generated by IcoMoon.io -->
<svg version="1.1" xmlns="http://www.w3.org/2000/svg" width="32" height="32" viewBox="0 0 32 32">
<title>lock-large</title>
<path d="M16.32 19.52c-0.64 0-1.12 0.48-1.12 1.12s0.48 1.12 1.12 1.12c0.64 0 1.12-0.48 1.12-1.12s-0.64-1.12-1.12-1.12zM16.32 16c-2.56 0-4.64 2.080-4.64 4.64s2.080 4.64 4.64 4.64 4.64-2.080 4.64-4.64c-0.16-2.56-2.24-4.64-4.64-4.64zM16.32 24c-1.92 0-3.52-1.44-3.52-3.36s1.6-3.36 3.36-3.36 3.36 1.6 3.36 3.36c0.16 1.92-1.44 3.36-3.2 3.36zM24.32 12.64c0 0 0-0.16 0 0 0-0.16 0-0.16 0 0-0.48-0.48-0.8-0.8-1.28-1.12v-4.64c0-3.84-3.040-6.88-6.72-6.88s-6.88 3.040-6.88 6.88v4.64c-0.48 0.32-0.8 0.64-1.28 0.96v0 0c-2.080 2.24-3.36 4.96-3.36 8.16s1.28 6.080 3.36 8.16c2.080 1.92 4.96 3.2 8.16 3.2s6.080-1.28 8.16-3.36v0c2.080-2.080 3.36-4.96 3.36-8.16-0.16-3.040-1.44-5.76-3.52-7.84zM10.56 6.88c0-3.2 2.56-5.76 5.76-5.76s5.76 2.56 5.76 5.76v3.84c-1.76-0.96-3.68-1.6-5.76-1.6s-4 0.64-5.76 1.6c0 0 0-3.84 0-3.84zM23.84 27.52l-1.92-1.92c-0.16-0.16-0.64-0.16-0.8 0s-0.16 0.64 0 0.8l1.92 1.92c-1.76 1.44-3.84 2.4-6.24 2.56v-2.88c0-0.32-0.32-0.64-0.64-0.64s-0.64 0.32-0.64 0.64v2.88c-2.4-0.16-4.64-1.12-6.24-2.56l1.92-1.92c0.16-0.16 0.16-0.64 0-0.8s-0.64-0.16-0.8 0l-1.92 1.92c-1.44-1.76-2.4-3.84-2.56-6.24h2.88c0.32 0 0.64-0.32 0.64-0.64s-0.32-0.64-0.64-0.64h-2.88c0.16-2.4 1.12-4.48 2.72-6.24l1.92 1.92c0.32 0.32 0.64 0.32 0.8 0 0.16-0.16 0.16-0.64 0-0.8l-1.92-1.92c1.76-1.44 3.84-2.4 6.24-2.56v2.88c0 0.32 0.32 0.64 0.64 0.64s0.64-0.32 0.64-0.64v-2.88c2.4 0.16 4.64 1.12 6.24 2.56l-1.92 1.92c-0.16 0.16-0.16 0.64 0 0.8s0.64 0.16 0.8 0l1.92-1.92c1.44 1.76 2.4 3.84 2.56 6.24h-2.88c-0.32 0-0.64 0.32-0.64 0.64s0.32 0.64 0.64 0.64h2.88c-0.16 2.24-1.12 4.48-2.72 6.24z"></path>
</svg>
