<!-- Generated by IcoMoon.io -->
<svg version="1.1" xmlns="http://www.w3.org/2000/svg" width="32" height="32" viewBox="0 0 32 32">
<title>lockout</title>
<path d="M26.023 14.495h-0.616v-5.008c-0.031-6.143-4.221-9.487-9.313-9.487-5.091 0-9.655 3.503-9.496 9.487l-0.005 5.002c0 0 0.077 0.007-0.308 0.007-0.406 0-3.085 0.471-3.085 2.859v11.464c0 2.547 3.015 3.182 3.085 3.182h19.586c0.070 0 2.93-0.318 2.93-3.182v-11.306c0-2.704-2.706-3.017-2.778-3.017zM10.909 9.553c0-3.184 1.943-5.729 5.091-5.729 3.117 0 5.090 2.227 5.090 5.729l0.003 4.942h-10.189l0.005-4.942zM18.049 28.234l-2.599-2.599-2.351 2.399c-0.603 0.615-1.59 0.625-2.204 0.022-0.004-0.004-0.008-0.008-0.012-0.012v0c-0.615-0.616-0.614-1.615 0.001-2.23l2.582-2.581-2.368-2.364c-0.603-0.602-0.606-1.578-0.007-2.183v0c0.595-0.602 1.564-0.607 2.166-0.013 0.002 0.002 0.004 0.004 0.006 0.006l2.608 2.607 2.416-2.397c0.611-0.606 1.596-0.604 2.204 0.004v0c0.607 0.608 0.607 1.592-0 2.2-0 0-0 0-0 0l-2.597 2.596 2.387 2.385c0.597 0.596 0.597 1.563 0.001 2.16-0.006 0.006-0.012 0.012-0.018 0.018v0c-0.619 0.599-1.604 0.591-2.213-0.018z"></path>
</svg>
