<!-- Generated by IcoMoon.io -->
<svg version="1.1" xmlns="http://www.w3.org/2000/svg" width="32" height="32" viewBox="0 0 32 32">
<title>lock</title>
<path d="M25.412 11.656h-1.449v-3.624c0-4.396-3.565-7.96-7.962-7.96s-7.962 3.564-7.962 7.96c0 0 0 0 0 0.001v3.623h-1.449c-1.599 0-2.896 1.297-2.896 2.896v14.48c0 1.599 1.297 2.896 2.896 2.896h18.824c1.599 0 2.896-1.297 2.896-2.896v-14.48c0-1.599-1.297-2.896-2.896-2.896zM17.191 22.764v3.793c0 0.659-0.532 1.191-1.191 1.191-0.658 0-1.191-0.532-1.191-1.191v-3.793c-1.384-0.492-2.383-1.801-2.383-3.355 0-1.973 1.6-3.574 3.574-3.574s3.574 1.601 3.574 3.574c0 1.555-0.998 2.863-2.383 3.355zM20.938 11.656h-9.877v-2.744c0.005-2.722 2.214-4.927 4.938-4.927s4.933 2.205 4.938 4.927h0.001v2.744z"></path>
</svg>
