<!-- Generated by IcoMoon.io -->
<svg version="1.1" xmlns="http://www.w3.org/2000/svg" width="32" height="32" viewBox="0 0 32 32">
<title>menu</title>
<path d="M31.175 25.101h-30.207c-0.581 0-0.968 0.387-0.968 0.968s0.387 0.968 0.968 0.968h30.013c0.581 0 0.968-0.387 0.968-0.968 0.194-0.581-0.194-0.968-0.775-0.968zM0.968 6.899h30.013c0.581 0 0.968-0.387 0.968-0.968s-0.194-0.968-0.775-0.968h-30.207c-0.581 0-0.968 0.387-0.968 0.968s0.387 0.968 0.968 0.968zM31.175 15.032h-30.207c-0.581 0-0.968 0.387-0.968 0.968s0.387 0.968 0.968 0.968h30.013c0.581 0 0.968-0.387 0.968-0.968 0.194-0.581-0.194-0.968-0.775-0.968z"></path>
</svg>
