<!-- Generated by IcoMoon.io -->
<svg version="1.1" xmlns="http://www.w3.org/2000/svg" width="32" height="32" viewBox="0 0 32 32">
<title>mobile</title>
<path d="M23.867 32h-15.733c-1.6 0-2.8-1.2-2.8-2.8v-26.4c0-1.6 1.2-2.8 2.8-2.8h15.733c1.6 0 2.8 1.2 2.8 2.8v26.4c0 1.6-1.2 2.8-2.8 2.8zM8.133 1.333c-0.8 0-1.467 0.667-1.467 1.467v26.4c0 0.8 0.667 1.467 1.467 1.467h15.733c0.8 0 1.467-0.667 1.467-1.467v-26.4c0-0.8-0.667-1.467-1.467-1.467h-15.733z"></path>
<path d="M14.267 28c0-0.933 0.8-1.867 1.733-1.867s1.867 0.8 1.867 1.867-0.933 1.867-1.867 1.867c-0.933 0-1.733-0.933-1.733-1.867zM15.067 28c0 0.533 0.4 0.8 0.933 0.8s0.8-0.4 0.8-0.8-0.267-0.8-0.8-0.8c-0.533 0-0.933 0.267-0.933 0.8z"></path>
<path d="M13.333 5.067h5.333c0.267 0 0.533-0.267 0.533-0.4s-0.267-0.4-0.533-0.4h-5.333c-0.267 0-0.4 0.267-0.4 0.4s0.133 0.4 0.4 0.4z"></path>
</svg>
