<!-- Generated by IcoMoon.io -->
<svg version="1.1" xmlns="http://www.w3.org/2000/svg" width="32" height="32" viewBox="0 0 32 32">
<title>native-app</title>
<path d="M15.689 21.291h-14.343c-0.744 0-1.346-0.605-1.346-1.346v-16.479c0-0.744 0.605-1.346 1.346-1.346h20.641c0.744 0 1.346 0.605 1.346 1.346v7.521h-1.136v-7.521c0-0.115-0.098-0.21-0.21-0.21h-20.641c-0.115 0-0.21 0.098-0.21 0.21v16.479c0 0.115 0.098 0.21 0.21 0.21h14.343v1.136z"></path>
<path d="M10.869 20.757h1.136v5.578h-1.136v-5.578z"></path>
<path d="M7.235 25.727h8.409v1.136h-8.409v-1.136z"></path>
<path d="M28.012 29.879h-8.066c-0.744 0-1.346-0.605-1.346-1.346v-13.567c0-0.744 0.605-1.346 1.346-1.346h6.77v1.136h-6.77c-0.115 0-0.21 0.098-0.21 0.21v13.564c0 0.115 0.098 0.21 0.21 0.21h8.063c0.115 0 0.21-0.098 0.21-0.21v-5.463h1.136v5.466c0.003 0.741-0.601 1.346-1.342 1.346z"></path>
<path d="M9.37 15.119l-3.072-3.069 0.804-0.804 2.268 2.268 6.462-6.462 0.804 0.804z"></path>
<path d="M24.734 23.294l-3.072-3.072 0.804-0.8 2.268 2.265 6.462-6.462 0.804 0.804z"></path>
</svg>
