<!-- Generated by IcoMoon.io -->
<svg version="1.1" xmlns="http://www.w3.org/2000/svg" width="32" height="32" viewBox="0 0 32 32">
<title>network</title>
<path d="M26.844 0c-2.844 0-5.156 2.311-5.156 5.156 0 2.667 1.956 4.8 4.622 5.156v5.156h-5.156c-0.356-2.667-2.489-4.622-5.156-4.622s-4.8 1.956-5.156 4.622h-5.689c-0.356 0-0.533 0.178-0.533 0.533v5.689c-2.667 0.356-4.622 2.489-4.622 5.156 0 2.844 2.311 5.156 5.156 5.156s5.156-2.311 5.156-5.156c0-2.667-1.956-4.8-4.622-5.156v-5.156h5.156c0.356 2.489 2.489 4.622 5.156 4.622s4.8-1.956 5.156-4.622h5.689c0.356 0 0.533-0.178 0.533-0.533v-5.689c2.667-0.356 4.622-2.489 4.622-5.156 0-2.844-2.311-5.156-5.156-5.156zM9.067 26.844c0 2.133-1.778 4.089-3.911 4.089s-3.911-1.778-3.911-4.089c0-2.133 1.778-3.911 3.911-3.911s3.911 1.778 3.911 3.911zM16 19.911c-2.133 0-3.911-1.778-3.911-3.911s1.778-3.911 3.911-3.911 4.089 1.778 4.089 3.911-1.956 3.911-4.089 3.911zM26.844 9.067c-2.133 0-3.911-1.778-3.911-3.911s1.778-3.911 3.911-3.911c2.133 0 4.089 1.778 4.089 3.911s-1.956 3.911-4.089 3.911z"></path>
</svg>
