<!-- Generated by IcoMoon.io -->
<svg version="1.1" xmlns="http://www.w3.org/2000/svg" width="32" height="32" viewBox="0 0 32 32">
<title>new-window</title>
<path d="M29.632 30.555h-27.265c-0.615 0-1.025-0.41-1.025-1.025v-27.060c0-0.615 0.41-1.025 1.025-1.025h12.71c0.615 0 1.025 0.41 1.025 1.025s-0.615 0.82-1.025 0.82h-11.685v25.215h25.215v-11.48c0-0.615 0.41-1.025 1.025-1.025s1.025 0.41 1.025 1.025v12.71c-0.205 0.41-0.615 0.82-1.025 0.82zM29.222 11.080c-0.205-0.205-0.205-0.41-0.205-0.615v-5.74l-12.915 12.505c-0.41 0.41-1.025 0.41-1.435 0s-0.41-1.025 0-1.435l12.915-12.505h-5.945c-0.205 0-0.41 0-0.615-0.205-0.41-0.41-0.41-1.025 0-1.435 0.205-0.205 0.41-0.205 0.615-0.205h7.995c0.205 0 0.41 0 0.615 0.205s0.205 0.41 0.205 0.615v0 7.995c0 0.205 0 0.205-0.205 0.615 0 0.615-0.615 0.615-1.025 0.205z"></path>
</svg>
