<!-- Generated by IcoMoon.io -->
<svg version="1.1" xmlns="http://www.w3.org/2000/svg" width="32" height="32" viewBox="0 0 32 32">
<title>nodes</title>
<path d="M12.257 19.691l-4.907 3.698c0.318 0.536 0.501 1.163 0.501 1.832 0 1.982-1.602 3.589-3.578 3.589s-3.578-1.607-3.578-3.589c0-1.982 1.602-3.589 3.578-3.589 0.69 0 1.334 0.196 1.881 0.535l5.056-3.81c-0.368-0.687-0.577-1.473-0.577-2.308 0-0.916 0.251-1.772 0.688-2.505l-5.89-5.89c-0.541 0.329-1.176 0.519-1.854 0.519-1.976 0-3.578-1.607-3.578-3.589s1.602-3.589 3.578-3.589c1.976 0 3.578 1.607 3.578 3.589 0 0.686-0.192 1.327-0.524 1.872l5.801 5.801c0.788-0.643 1.781-1.044 2.866-1.089l1.285-4.48c-1.062-0.622-1.775-1.778-1.775-3.101 0-1.982 1.602-3.589 3.578-3.589s3.578 1.607 3.578 3.589c0 1.982-1.602 3.589-3.578 3.589-0.060 0-0.119-0.001-0.179-0.004l-1.212 4.225c0.818 0.264 1.542 0.739 2.107 1.361l5.741-2.090 0.003 0.009c-0.001-0.037-0.002-0.074-0.002-0.112 0-1.982 1.602-3.589 3.578-3.589s3.578 1.607 3.578 3.589c0 1.982-1.602 3.589-3.578 3.589-1.346 0-2.518-0.745-3.128-1.846l-5.271 1.919c0.226 0.563 0.35 1.178 0.35 1.822 0 0.942-0.266 1.822-0.726 2.568l6.687 6.687c0.527-0.306 1.139-0.482 1.791-0.482 1.976 0 3.578 1.607 3.578 3.589s-1.602 3.589-3.578 3.589c-1.976 0-3.578-1.607-3.578-3.589 0-0.712 0.207-1.376 0.563-1.934l-6.592-6.592c-0.829 0.657-1.877 1.049-3.015 1.049-1.247 0-2.385-0.47-3.246-1.244z"></path>
</svg>
