<!-- Generated by IcoMoon.io -->
<svg version="1.1" xmlns="http://www.w3.org/2000/svg" width="32" height="32" viewBox="0 0 32 32">
<title>non-interactive</title>
<path d="M8.51 7.422c-0.316 0.261-0.681 0.477-1.077 0.632l-0.027 0.009c0.169 0.11 0.285 0.291 0.307 0.499l0 0.003c0 0.633-1.247 1.143-3.143 1.143s-3.139-0.51-3.139-1.143c0.020-0.212 0.136-0.393 0.304-0.5l0.003-0.002c-0.423-0.164-0.788-0.381-1.11-0.647l0.007 0.005c-0.358 0.265-0.598 0.673-0.633 1.138l-0 0.005c0 1.263 2.048 2.287 4.57 2.287s4.594-1.024 4.594-2.287c-0.041-0.473-0.287-0.882-0.649-1.14l-0.005-0.003zM8.51 10.853c-0.315 0.261-0.68 0.476-1.077 0.628l-0.027 0.009c0.174 0.116 0.291 0.306 0.307 0.524l0 0.002c0 0.629-1.247 1.143-3.143 1.143s-3.139-0.534-3.139-1.143c0.020-0.213 0.136-0.395 0.304-0.504l0.003-0.002c-0.423-0.161-0.788-0.377-1.11-0.643l0.006 0.005c-0.358 0.265-0.598 0.673-0.633 1.138l-0 0.005c0 1.263 2.048 2.287 4.57 2.287s4.594-1.044 4.594-2.287c-0.035-0.481-0.283-0.898-0.649-1.16l-0.005-0.003zM8.51 21.139c-0.316 0.259-0.681 0.474-1.076 0.628l-0.027 0.009c0.17 0.111 0.286 0.293 0.307 0.503l0 0.003c0 0.629-1.247 1.139-3.143 1.139s-3.139-0.51-3.139-1.139c0.019-0.213 0.135-0.396 0.304-0.504l0.003-0.002c-0.423-0.163-0.788-0.378-1.111-0.643l0.007 0.006c-0.358 0.265-0.598 0.673-0.633 1.138l-0 0.005c0 1.259 2.048 2.283 4.57 2.283s4.594-1.024 4.594-2.283c-0.041-0.473-0.287-0.882-0.649-1.14l-0.005-0.003zM8.51 17.709c-0.315 0.261-0.68 0.476-1.077 0.628l-0.027 0.009c0.169 0.112 0.285 0.294 0.307 0.503l0 0.003c0 0.633-1.247 1.143-3.143 1.143s-3.139-0.51-3.139-1.143c0.020-0.213 0.136-0.395 0.304-0.504l0.003-0.002c-0.423-0.161-0.788-0.377-1.11-0.643l0.006 0.005c-0.358 0.265-0.598 0.673-0.633 1.138l-0 0.005c0 1.263 2.048 2.287 4.57 2.287s4.594-1.024 4.594-2.287c-0.041-0.473-0.287-0.882-0.649-1.14l-0.005-0.003zM8.51 14.283c-0.316 0.258-0.681 0.473-1.076 0.628l-0.028 0.010c0.169 0.11 0.285 0.291 0.307 0.499l0 0.003c0 0.633-1.247 1.143-3.143 1.143s-3.139-0.51-3.139-1.143c0.020-0.212 0.136-0.393 0.304-0.5l0.003-0.002c-0.423-0.165-0.787-0.38-1.111-0.643l0.007 0.006c-0.358 0.263-0.598 0.67-0.633 1.134l-0 0.005c0 1.263 2.048 2.287 4.57 2.287s4.594-1.024 4.594-2.287c-0.040-0.472-0.287-0.88-0.649-1.136l-0.005-0.003zM27.43 10.853c0.002 0 0.005 0 0.008 0 0.631 0 1.143-0.512 1.143-1.143s-0.512-1.143-1.143-1.143c-0.631 0-1.143 0.512-1.143 1.143v0c0 0.001 0 0.003 0 0.004 0 0.628 0.508 1.137 1.135 1.139h0zM27.43 20.016c0.002 0 0.005 0 0.008 0 0.631 0 1.143-0.512 1.143-1.143s-0.512-1.143-1.143-1.143c-0.625 0-1.132 0.501-1.143 1.122l-0 0.001c0.005 0.624 0.511 1.129 1.135 1.131h0zM14.857 21.139c-2.526 0-4.57 1.024-4.57 2.283s2.064 2.287 4.57 2.287 4.574-1.024 4.574-2.287-2.048-2.283-4.574-2.283zM14.857 24.566c-1.892 0-3.143-0.51-3.143-1.143s1.251-1.139 3.143-1.139 3.143 0.51 3.143 1.139-1.267 1.143-3.143 1.143zM4.57 2.853c-2.522 0-4.57 1.024-4.57 2.287s2.048 2.283 4.57 2.283 4.594-1.020 4.594-2.283-2.068-2.287-4.594-2.287zM4.57 6.283c-1.892 0-3.139-0.514-3.139-1.143s1.247-1.143 3.139-1.143 3.143 0.51 3.143 1.143-1.247 1.143-3.143 1.143zM18.287 18.853c2.526 0 4.574-2.048 4.574-4.574s-2.048-4.574-4.574-4.574c-2.526 0-4.574 2.048-4.574 4.574 0 0.001 0 0.003 0 0.004v-0c0.002 2.524 2.049 4.57 4.574 4.57v0zM18.287 10.853c1.895 0 3.43 1.536 3.43 3.43s-1.536 3.43-3.43 3.43c-1.895 0-3.43-1.536-3.43-3.43v0c0-0.001 0-0.003 0-0.004 0-1.892 1.534-3.426 3.426-3.426 0.001 0 0.003 0 0.004 0h-0zM29.713 5.139h-18.857c-0.296 0.025-0.526 0.272-0.526 0.572s0.23 0.546 0.524 0.572l0.002 0h18.857c0.001 0 0.003 0 0.004 0 0.629 0 1.139 0.51 1.139 1.139 0 0 0 0 0 0v0 13.717c0 0.631-0.512 1.143-1.143 1.143v0h-8.57c-0.315 0-0.57 0.255-0.57 0.57s0.255 0.57 0.57 0.57h8.57c0.001 0 0.003 0 0.004 0 1.261 0 2.283-1.022 2.283-2.283 0 0 0 0 0 0v0-13.717c-0.002-1.261-1.025-2.283-2.287-2.283 0 0 0 0 0 0v0zM18.793 25.709c-0.314 0.265-0.678 0.485-1.073 0.64l-0.026 0.009c0.169 0.112 0.285 0.294 0.307 0.503l0 0.003c0 0.633-1.251 1.143-3.143 1.143s-3.143-0.51-3.143-1.143c0.021-0.213 0.139-0.395 0.308-0.504l0.003-0.002c-0.423-0.16-0.789-0.376-1.11-0.642l0.006 0.005c-0.359 0.264-0.599 0.673-0.633 1.138l-0 0.005c0 1.251 2.064 2.283 4.57 2.283s4.574-1.024 4.574-2.287c-0.033-0.474-0.275-0.886-0.633-1.148l-0.004-0.003z"></path>
</svg>
