<!-- Generated by IcoMoon.io -->
<svg version="1.1" xmlns="http://www.w3.org/2000/svg" width="32" height="32" viewBox="0 0 32 32">
<title>notepad</title>
<path d="M27.429 3.429h-2.286v-2.857c0-0.316-0.255-0.571-0.571-0.571s-0.571 0.255-0.571 0.571v2.857h-2.286v-2.857c0-0.316-0.255-0.571-0.571-0.571s-0.571 0.255-0.571 0.571v2.857h-2.286v-2.857c0-0.316-0.255-0.571-0.571-0.571s-0.571 0.255-0.571 0.571v2.857h-2.286v-2.857c0-0.316-0.255-0.571-0.571-0.571s-0.571 0.255-0.571 0.571v2.857h-2.286v-2.857c0-0.316-0.255-0.571-0.571-0.571s-0.571 0.255-0.571 0.571v2.857h-2.286v-2.857c0-0.316-0.255-0.571-0.571-0.571s-0.571 0.255-0.571 0.571v2.857h-2.286c-1.262 0-2.286 1.023-2.286 2.286v24c0 1.262 1.023 2.286 2.286 2.286h22.857c1.262 0 2.286-1.023 2.286-2.286v-24c0-1.262-1.023-2.286-2.286-2.286zM28.572 29.714c0 0.631-0.512 1.143-1.143 1.143h-22.857c-0.631 0-1.143-0.512-1.143-1.143v-24c0-0.631 0.512-1.143 1.143-1.143h2.286v2.857c0 0.316 0.255 0.571 0.571 0.571s0.571-0.255 0.571-0.571v-2.857h2.286v2.857c0 0.316 0.255 0.571 0.571 0.571s0.571-0.255 0.571-0.571v-2.857h2.286v2.857c0 0.316 0.256 0.571 0.571 0.571s0.571-0.255 0.571-0.571v-2.857h2.286v2.857c0 0.316 0.255 0.571 0.571 0.571s0.571-0.255 0.571-0.571v-2.857h2.286v2.857c0 0.316 0.255 0.571 0.571 0.571s0.571-0.255 0.571-0.571v-2.857h2.286v2.857c0 0.316 0.255 0.571 0.571 0.571s0.571-0.255 0.571-0.571v-2.857h2.286c0.631 0 1.143 0.512 1.143 1.143v24zM7.429 20.571h13.714c0.316 0 0.571-0.255 0.571-0.571s-0.255-0.571-0.571-0.571h-13.714c-0.316 0-0.571 0.256-0.571 0.571s0.255 0.571 0.571 0.571zM24.572 22.857h-17.143c-0.316 0-0.571 0.255-0.571 0.571s0.255 0.571 0.571 0.571h17.143c0.316 0 0.571-0.255 0.571-0.571s-0.255-0.571-0.571-0.571zM24.572 12.571h-17.143c-0.316 0-0.571 0.256-0.571 0.571s0.255 0.571 0.571 0.571h17.143c0.316 0 0.571-0.255 0.571-0.571s-0.255-0.571-0.571-0.571zM24.572 16h-17.143c-0.316 0-0.571 0.256-0.571 0.571s0.255 0.571 0.571 0.571h17.143c0.316 0 0.571-0.255 0.571-0.571s-0.255-0.571-0.571-0.571z"></path>
</svg>
