<!-- Generated by IcoMoon.io -->
<svg version="1.1" xmlns="http://www.w3.org/2000/svg" width="32" height="32" viewBox="0 0 32 32">
<title>on-off</title>
<path d="M27.657 25.902c-0.094 0.103-0.15 0.163-0.207 0.228-0.111 0.127-0.465 0.58-0.49 0.595-0.227 0.34-0.437 0.572-0.927 1.062l-0.093 0.093c-0.268 0.256-0.482 0.445-0.935 0.808-0.041 0.039-0.079 0.067-0.161 0.121-0.052 0.035-0.073 0.050-0.105 0.079-0.359 0.287-0.602 0.464-0.89 0.639-0.068 0.064-0.139 0.118-0.217 0.167-0.059 0.037-0.104 0.061-0.191 0.105-0.253 0.187-0.571 0.38-0.815 0.5-0.213 0.142-0.365 0.218-0.541 0.273l-0.827 0.414c-0.097 0.032-0.14 0.051-0.194 0.059-3.29 1.263-7.021 1.292-10.325-0.017-7.241-2.845-10.831-11.126-8.034-18.474 1.471-3.582 4.169-6.331 7.565-7.767 0.203-0.102 0.42-0.108 0.625-0.018 0.485 0.122 0.715 0.64 0.497 1.077-0.094 0.188-0.207 0.301-0.41 0.402-3.064 1.34-5.475 3.8-6.676 6.924-2.579 6.448 0.577 13.832 6.982 16.506 3.061 1.2 6.394 1.152 9.439-0.076 0.117-0.029 0.244-0.077 0.401-0.149 0.080-0.037 0.146-0.069 0.295-0.144 0.064-0.032 0.118-0.055 0.246-0.106 0.11-0.044 0.156-0.063 0.198-0.084 0.364-0.182 0.521-0.27 0.76-0.444 0.038-0.019 0.063-0.035 0.124-0.075 0.082-0.054 0.125-0.081 0.144-0.085 0.104-0.078 0.195-0.148 0.407-0.313 0.215-0.168 0.309-0.239 0.416-0.32l0.084-0.063h0.106c0.458-0.43 0.653-0.594 0.853-0.794l0.063-0.063c0.785-0.785 1.458-1.706 2.158-2.896 0.077-0.154 0.131-0.27 0.248-0.528 0.12-0.265 0.177-0.386 0.259-0.549l0.088-0.175c1.262-3.003 1.323-6.344 0.091-9.451-1.27-3.204-3.627-5.636-6.62-6.9-0.229-0.021-0.328-0.15-0.466-0.426-0.124-0.467 0.076-0.867 0.459-1.059 0.216-0.108 0.448-0.108 0.645-0.008 3.455 1.462 6.191 4.232 7.585 7.779 1.315 3.318 1.281 7.001-0.011 10.397l-0.19 0.38-0.075 0.148c-0.153 0.254-0.277 0.493-0.559 1.056l-0.088 0.175c-0.188 0.239-0.352 0.489-0.693 1zM15.924 11.849c-0.428 0-0.824-0.395-0.824-0.824v-10.202c0-0.428 0.395-0.824 0.824-0.824s0.824 0.395 0.824 0.824v10.202c0 0.477-0.378 0.824-0.824 0.824z"></path>
</svg>
