<!-- Generated by IcoMoon.io -->
<svg version="1.1" xmlns="http://www.w3.org/2000/svg" width="32" height="32" viewBox="0 0 32 32">
<title>open-lock</title>
<path d="M16 23.968c1.606 0 2.921-1.314 2.921-2.921s-1.314-2.921-2.921-2.921-2.921 1.314-2.921 2.921 1.314 2.921 2.921 2.921zM24.762 10.825h-1.46v-2.921c0-4.089-3.213-7.302-7.302-7.302s-7.302 3.213-7.302 7.302h2.775c0-2.483 2.044-4.527 4.527-4.527s4.527 2.044 4.527 4.527v2.921h-13.289c-1.606 0-2.921 1.314-2.921 2.921v14.603c0 1.606 1.314 2.921 2.921 2.921h17.524c1.606 0 2.921-1.314 2.921-2.921v-14.603c0-1.606-1.314-2.921-2.921-2.921zM24.762 28.349h-17.524v-14.603h17.524v14.603z"></path>
</svg>
