<!-- Generated by IcoMoon.io -->
<svg version="1.1" xmlns="http://www.w3.org/2000/svg" width="32" height="32" viewBox="0 0 32 32">
<title>org-chart</title>
<path d="M12.364 8.727h7.273c0.402 0 0.727-0.325 0.727-0.727v-7.273c0-0.402-0.325-0.727-0.727-0.727h-7.273c-0.402 0-0.727 0.325-0.727 0.727v7.273c0 0.402 0.325 0.727 0.727 0.727zM13.091 1.454h5.818v5.818h-5.818v-5.818zM5.091 16.727h10.182v5.091h1.455v-5.091h10.182v5.091h1.455v-5.818c0-0.401-0.325-0.727-0.727-0.727h-10.909v-5.091h-1.455v5.091h-10.909c-0.402 0-0.727 0.326-0.727 0.727v5.818h1.455v-5.091zM8 23.273h-7.273c-0.402 0-0.727 0.325-0.727 0.727v7.273c0 0.402 0.325 0.727 0.727 0.727h7.273c0.402 0 0.727-0.325 0.727-0.727v-7.273c0-0.402-0.325-0.727-0.727-0.727zM7.273 30.546h-5.818v-5.818h5.818v5.818zM19.636 23.273h-7.273c-0.402 0-0.727 0.325-0.727 0.727v7.273c0 0.402 0.325 0.727 0.727 0.727h7.273c0.402 0 0.727-0.325 0.727-0.727v-7.273c0-0.402-0.325-0.727-0.727-0.727zM18.909 30.546h-5.818v-5.818h5.818v5.818zM31.273 23.273h-7.273c-0.402 0-0.727 0.325-0.727 0.727v7.273c0 0.402 0.325 0.727 0.727 0.727h7.273c0.402 0 0.727-0.325 0.727-0.727v-7.273c0-0.402-0.325-0.727-0.727-0.727zM30.546 30.546h-5.818v-5.818h5.818v5.818z"></path>
</svg>
