<!-- Generated by IcoMoon.io -->
<svg version="1.1" xmlns="http://www.w3.org/2000/svg" width="32" height="32" viewBox="0 0 32 32">
<title>overview</title>
<path d="M24.629 11.685l1.977-1.079c0.36-0.36 0.36-0.719 0.18-0.899-0.18-0.36-0.539-0.36-0.719-0.18l-1.977 1.079c-0.36 0.18-0.36 0.539-0.18 0.719 0.18 0.36 0.539 0.36 0.719 0.36zM5.933 9.528c-0.36-0.18-0.539 0-0.719 0.18s-0.18 0.539 0.18 0.719l1.978 1.079c0.36 0.18 0.539 0 0.719-0.18 0.18-0.36 0-0.539-0.18-0.719l-1.978-1.079zM16 6.832c0.36 0 0.539-0.18 0.539-0.539v-2.337c0-0.36-0.18-0.539-0.539-0.539s-0.539 0.18-0.539 0.539v2.337c0 0.36 0.18 0.539 0.539 0.539zM6.832 16c0-0.36-0.18-0.539-0.539-0.539h-2.337c-0.36 0-0.539 0.18-0.539 0.539s0.18 0.539 0.539 0.539h2.337c0.36 0 0.539-0.18 0.539-0.539zM7.371 20.315l-1.978 1.079c-0.36 0.18-0.36 0.539-0.18 0.719 0.18 0.36 0.539 0.36 0.719 0.18l1.978-1.079c0.36-0.18 0.36-0.539 0.18-0.719s-0.539-0.36-0.719-0.18zM24.629 20.315c-0.36-0.18-0.539 0-0.719 0.18-0.18 0.36 0 0.539 0.18 0.719l1.977 1.079c0.36 0.18 0.539 0 0.719-0.18 0.18-0.36 0-0.539-0.18-0.719l-1.977-1.079zM27.865 15.461h-2.337c-0.36 0-0.539 0.18-0.539 0.539s0.18 0.539 0.539 0.539h2.337c0.36 0 0.539-0.18 0.539-0.539s-0.18-0.539-0.539-0.539zM16 0c-8.809 0-16 7.191-16 16s7.191 16 16 16 16-7.191 16-16c0-8.809-7.191-16-16-16zM16 30.742c-3.416 0-6.472-1.079-8.989-3.056 2.337-2.337 5.393-3.775 8.989-3.775s6.652 1.438 8.989 3.775c-2.517 1.977-5.573 3.056-8.989 3.056zM25.888 26.966c-2.517-2.517-5.933-4.135-9.888-4.135s-7.371 1.618-9.888 4.135c-3.056-2.697-5.034-6.652-5.034-11.146 0-8.27 6.652-14.742 14.742-14.742 8.27 0 14.742 6.652 14.742 14.742 0.18 4.494-1.618 8.449-4.674 11.146zM21.213 9.888l-4.135 4.135c-0.36-0.18-0.719-0.36-1.079-0.36-1.258 0-2.337 1.079-2.337 2.337s1.079 2.337 2.337 2.337c1.258 0 2.337-1.079 2.337-2.337 0-0.36-0.18-0.899-0.36-1.079l4.135-4.135c0.18-0.18 0.18-0.539 0-0.719-0.18-0.36-0.539-0.36-0.899-0.18zM16 17.079c-0.719 0-1.079-0.539-1.079-1.079s0.539-1.079 1.079-1.079c0.719 0 1.079 0.539 1.079 1.079s-0.539 1.079-1.079 1.079zM10.427 5.393c-0.18-0.36-0.539-0.36-0.719-0.36-0.36 0.18-0.36 0.539-0.18 0.899l1.079 1.978c0.18 0.18 0.539 0.36 0.719 0.18 0.36-0.18 0.36-0.539 0.18-0.719l-1.079-1.978zM21.393 5.393l-1.079 1.978c-0.18 0.36 0 0.539 0.18 0.719 0.36 0.18 0.539 0 0.719-0.18l1.079-1.978c0.18-0.36 0-0.539-0.18-0.719s-0.539-0.18-0.719 0.18z"></path>
</svg>
