<!-- Generated by IcoMoon.io -->
<svg version="1.1" xmlns="http://www.w3.org/2000/svg" width="32" height="32" viewBox="0 0 32 32">
<title>pin</title>
<path d="M22.765 4.403c0.644 0 1.074-0.43 1.074-1.074v-2.362c0.215-0.644-0.43-1.074-1.074-1.074h-13.745c-0.644 0-1.074 0.43-1.074 1.074v2.362c0 0.644 0.43 1.074 1.074 1.074h2.362v10.738l-3.221 3.221c-0.215 0.215-0.215 0.215-0.215 0.43s0.215 0.644 0.644 0.644h6.872v10.953l0.644 1.718 0.43-1.933v-10.738h6.872c0.215 0 0.644-0.215 0.644-0.644 0-0.215 0-0.215-0.215-0.43l-3.221-3.221v-10.738h2.148zM21.906 18.148h-12.027l2.362-2.362c0 0 0.215-0.215 0.215-0.43v-10.953h6.872v10.953c0 0.215 0 0.215 0.215 0.43l2.362 2.362zM9.020 0.966h13.745v2.362h-13.745v-2.362z"></path>
</svg>
