<!-- Generated by IcoMoon.io -->
<svg version="1.1" xmlns="http://www.w3.org/2000/svg" width="32" height="32" viewBox="0 0 32 32">
<title>population</title>
<path d="M16 0c-8.758 0-16 7.242-16 16s7.242 16 16 16 16-7.242 16-16-7.242-16-16-16zM16.505 1.179c6.063 0.168 11.116 4.042 13.137 9.263l-13.137 4.716v-13.979zM16 30.821c-8.253 0-14.821-6.568-14.821-14.821 0-8.084 6.4-14.484 14.316-14.821v14.821c0 0.168 0 0.168 0.168 0.337v0l8.758 11.958c-2.526 1.684-5.389 2.526-8.421 2.526zM25.263 27.621l-8.421-11.284 13.305-4.716c0.505 1.347 0.674 2.863 0.674 4.547 0 4.547-2.189 8.758-5.558 11.453z"></path>
</svg>
