<!-- Generated by IcoMoon.io -->
<svg version="1.1" xmlns="http://www.w3.org/2000/svg" width="32" height="32" viewBox="0 0 32 32">
<title>previous</title>
<path d="M26.639 32c-0.58 0-0.87-0.29-1.16-0.58l-9.566-15.363 9.566-15.363c0.29-0.58 1.449-0.87 2.029-0.58s0.87 1.449 0.58 2.029l-8.406 13.624 8.406 13.624c0.29 0.58 0.29 1.449-0.58 2.029-0.29 0.58-0.58 0.58-0.87 0.58zM14.464 32c-0.58 0-0.87-0.29-1.159-0.58l-9.566-15.363 9.566-15.363c0.29-0.58 1.449-0.87 2.029-0.58s0.87 1.449 0.58 2.029l-8.406 13.624 8.406 13.624c0.29 0.58 0.29 1.449-0.58 2.029-0.29 0.58-0.58 0.58-0.87 0.58z"></path>
</svg>
