<!-- Generated by IcoMoon.io -->
<svg version="1.1" xmlns="http://www.w3.org/2000/svg" width="32" height="32" viewBox="0 0 32 32">
<title>puzzle</title>
<path d="M29.84 12.8c2.24-1.28 2.72-3.2 1.44-5.28-1.28-2.24-3.2-2.72-5.44-1.44-1.12 0.64-1.6 1.6-1.92 2.4l-3.52-5.92c0-0.32-0.32-0.32-0.64-0.16l-6.24 3.52c-0.32 0-0.32 0.32-0.32 0.48s0.16 0.32 0.32 0.48c0.48 0.16 0.8 0.48 0.96 0.96 0.96 1.6 0.64 2.88-1.12 3.84-1.6 0.96-2.72 0.64-3.84-1.12-0.16-0.32-0.32-0.8-0.32-1.28 0-0.16-0.16-0.32-0.32-0.48s-0.32-0.16-0.48 0l-6.24 3.52c-0.32 0.16-0.48 0.48-0.32 0.64l3.52 5.92c-0.96-0.16-1.92-0.32-3.2 0.32-2.24 1.28-2.72 3.2-1.44 5.28 1.28 2.24 3.2 2.72 5.44 1.44 1.12-0.64 1.6-1.6 1.92-2.4l3.52 5.92c0.16 0.32 0.48 0.32 0.8 0.16l6.72-3.68c0.16-0.16 0.32-0.32 0.32-0.48s-0.16-0.48-0.32-0.48c-0.64-0.32-1.28-0.48-1.6-1.28-0.96-1.6-0.64-2.88 1.12-3.84s2.88-0.64 4 0.96c0.32 0.64 0.32 1.28 0.32 2.080 0 0.16 0 0.48 0.16 0.48 0.16 0.16 0.48 0.16 0.64 0l6.72-3.68c0.32-0.16 0.32-0.48 0.16-0.8l-3.52-5.92c0.48 0.32 1.6 0.48 2.72-0.16zM26.8 12c-0.32-0.16-0.8-0.16-1.12-0.16-0.16 0-0.48 0.16-0.48 0.32-0.16 0.16-0.16 0.32 0 0.64l3.84 6.4-5.28 2.88c0-0.48-0.16-1.12-0.48-1.6-1.28-2.24-3.2-2.72-5.44-1.44s-2.72 3.2-1.44 5.28c0.32 0.64 0.8 0.96 1.28 1.28l-5.28 2.88-3.84-6.4c-0.16-0.16-0.32-0.32-0.48-0.32s-0.48 0.16-0.48 0.32c-0.16 0.32-0.32 0.64-0.32 0.96-0.32 0.8-0.48 1.6-1.44 2.080-1.76 0.96-2.88 0.64-4-0.96-0.96-1.6-0.64-2.88 1.12-3.84 0.8-0.48 1.6-0.32 2.56-0.16 0.32 0 0.8 0.16 1.12 0.16 0.16 0 0.48-0.16 0.48-0.32 0.16-0.16 0.16-0.32 0-0.64l-3.84-6.4 4.96-2.88c0 0.32 0.16 0.64 0.48 1.12 1.28 2.24 3.2 2.72 5.44 1.44s2.72-3.2 1.44-5.28c-0.32-0.48-0.48-0.64-0.8-0.96l4.96-2.88 3.84 6.4c0.16 0.32 0.32 0.48 0.48 0.48s0.48-0.16 0.48-0.32c0.16-0.32 0.32-0.64 0.32-0.96 0.32-0.8 0.48-1.6 1.44-2.080 1.76-0.96 2.88-0.64 4 0.96 0.96 1.6 0.64 2.88-1.12 3.84-0.8 0.48-1.6 0.32-2.4 0.16z"></path>
</svg>
