<!-- Generated by IcoMoon.io -->
<svg version="1.1" xmlns="http://www.w3.org/2000/svg" width="32" height="32" viewBox="0 0 32 32">
<title>radar</title>
<path d="M31.429 15.429c-0.316 0-0.571 0.256-0.571 0.571 0 8.205-6.652 14.857-14.857 14.857s-14.857-6.652-14.857-14.857 6.652-14.857 14.857-14.857c2.978 0 5.746 0.886 8.071 2.394l-3.293 4.679c-1.392-0.856-3.025-1.359-4.779-1.359-5.050 0-9.143 4.094-9.143 9.143s4.093 9.143 9.143 9.143 9.143-4.093 9.143-9.143c0-0.315-0.255-0.571-0.571-0.571s-0.571 0.256-0.571 0.571c0 4.418-3.582 8-8 8s-8-3.582-8-8 3.582-8 8-8c1.51 0 2.916 0.426 4.121 1.152l-3.317 4.714c-0.249-0.097-0.519-0.151-0.803-0.151-1.262 0-2.286 1.023-2.286 2.286s1.023 2.286 2.286 2.286 2.286-1.023 2.286-2.286c0-0.283-0.058-0.552-0.153-0.802l13.618-9.597c0.146-0.103 0.249-0.265 0.249-0.458 0-0.158-0.064-0.301-0.167-0.404l-4.571-4.571c-0.103-0.103-0.246-0.167-0.404-0.167-0.193 0-0.355 0.102-0.459 0.249l-0.009-0.006-1.66 2.359c-2.511-1.639-5.506-2.602-8.73-2.602-8.837 0-16 7.163-16 16s7.163 16 16 16 16-7.163 16-16c0-0.315-0.255-0.571-0.571-0.571zM16 17.143c-0.631 0-1.143-0.512-1.143-1.143s0.512-1.143 1.143-1.143 1.143 0.512 1.143 1.143-0.512 1.143-1.143 1.143z"></path>
</svg>
