<!-- Generated by IcoMoon.io -->
<svg version="1.1" xmlns="http://www.w3.org/2000/svg" width="32" height="32" viewBox="0 0 32 32">
<title>resend</title>
<path d="M31.154 15.308c-0.462 0-0.769 0.308-0.769 0.769 0 8-6.462 14.462-14.462 14.462s-14.462-6.462-14.462-14.462c0.154-8 6.615-14.462 14.615-14.462 5.385 0 10.154 2.923 12.615 7.692h-6.769c-0.462 0-0.769 0.308-0.769 0.769s0.308 0.769 0.769 0.769h8.154c0 0 0 0 0 0s0 0 0.154 0 0.308-0.154 0.462-0.154c0 0 0-0.154 0.154-0.154 0 0 0 0 0-0.154s0-0.154 0-0.308v-8.154c0-0.462-0.308-0.769-0.769-0.769s-0.923 0.462-0.923 0.769v5.077c-2.923-4.308-7.846-6.923-13.077-6.923-8.923 0-16 7.077-16 16 0 8.769 7.077 16 16 16 8.769 0 16-7.077 16-16-0.154-0.462-0.462-0.769-0.923-0.769z"></path>
</svg>
