<!-- Generated by IcoMoon.io -->
<svg version="1.1" xmlns="http://www.w3.org/2000/svg" width="32" height="32" viewBox="0 0 32 32">
<title>resource</title>
<path d="M19.404 30.213h-2.723v-6.468l8.34-8.34-1.021-1.021-7.319 7.319v-12.766h-1.362v12.936l-7.489-7.489-0.851 1.021 8.34 8.34v6.468h-2.723c-0.34 0-0.681 0.34-0.681 0.681s0.34 0.681 0.681 0.681v0h6.809c0.34 0 0.681-0.34 0.681-0.681-0.17-0.511-0.34-0.681-0.681-0.681zM27.234 7.404c-2.553 0-4.766 2.043-4.766 4.766s2.043 4.766 4.766 4.766c2.553 0 4.766-2.043 4.766-4.766s-2.043-4.766-4.766-4.766zM27.234 15.574c-1.872 0-3.404-1.532-3.404-3.404s1.532-3.404 3.404-3.404 3.404 1.532 3.404 3.404-1.532 3.404-3.404 3.404zM16 0.426c-2.723 0-4.766 2.213-4.766 4.766s2.043 4.766 4.766 4.766c2.553 0 4.766-2.043 4.766-4.766s-2.213-4.766-4.766-4.766zM16 8.596c-1.872 0-3.404-1.532-3.404-3.404s1.532-3.404 3.404-3.404 3.404 1.532 3.404 3.404-1.532 3.404-3.404 3.404zM4.766 7.404c-2.553 0-4.766 2.043-4.766 4.766s2.043 4.766 4.766 4.766c2.553 0 4.766-2.043 4.766-4.766s-2.213-4.766-4.766-4.766zM4.766 15.574c-1.872 0-3.404-1.532-3.404-3.404s1.532-3.404 3.404-3.404 3.404 1.532 3.404 3.404-1.532 3.404-3.404 3.404z"></path>
</svg>
