<!-- Generated by IcoMoon.io -->
<svg version="1.1" xmlns="http://www.w3.org/2000/svg" width="32" height="32" viewBox="0 0 32 32">
<title>right</title>
<path d="M31.77 14.964l-8.288-8.288c-0.46-0.23-0.691-0.46-1.151-0.46-0.921 0-1.381 0.691-1.381 1.381 0 0.46 0.23 0.691 0.46 0.921l5.986 5.986h-26.014c-0.691 0-1.381 0.691-1.381 1.611 0 0.691 0.691 1.381 1.381 1.381h26.014l-5.986 5.986c-0.46 0.23-0.46 0.46-0.46 0.921 0 0.691 0.691 1.381 1.381 1.381 0.46 0 0.691-0.23 0.921-0.46l8.288-8.288c0.23-0.23 0.46-0.691 0.46-0.921 0-0.46 0-0.921-0.23-1.151z"></path>
</svg>
