<!-- Generated by IcoMoon.io -->
<svg version="1.1" xmlns="http://www.w3.org/2000/svg" width="32" height="32" viewBox="0 0 32 32">
<title>robot</title>
<path d="M30.381 6.266h-4.49v-3.186c0.727-0.12 1.284-0.752 1.284-1.512 0-0.847-0.689-1.535-1.535-1.535s-1.535 0.689-1.535 1.535c0 0.761 0.557 1.392 1.284 1.514v3.186h-18.188v-3.188c0.727-0.12 1.284-0.752 1.284-1.514 0-0.847-0.689-1.535-1.535-1.535s-1.537 0.689-1.537 1.535c0 0.761 0.557 1.392 1.284 1.514v3.186h-5.079c-0.893 0-1.619 0.726-1.619 1.619v10.868c0 0.892 0.726 1.619 1.619 1.619h11.703v5.541h-4.38c-1.159 0-2.101 0.943-2.101 2.101v3.956h0.504v-3.956c0-0.881 0.717-1.598 1.598-1.598h14.075c0.881 0 1.598 0.717 1.598 1.598v3.956h0.504v-3.956c0-1.159-0.943-2.101-2.101-2.101h-4.26v-5.541h11.624c0.893 0 1.619-0.726 1.619-1.619v-10.868c0-0.893-0.726-1.619-1.619-1.619zM18.253 20.37v5.541h-4.428v-5.541h4.428zM30.381 19.866h-28.762c-0.615 0-1.115-0.501-1.115-1.115v-10.867c0-0.615 0.501-1.115 1.115-1.115h28.762c0.615 0 1.115 0.501 1.115 1.115v10.868c0 0.613-0.501 1.114-1.115 1.114zM25.64 2.539c-0.537 0-0.974-0.437-0.974-0.974s0.437-0.974 0.974-0.974 0.974 0.437 0.974 0.974-0.437 0.974-0.974 0.974zM7.924 1.566c0 0.537-0.437 0.974-0.974 0.974s-0.974-0.437-0.974-0.974 0.437-0.974 0.974-0.974 0.974 0.437 0.974 0.974zM14.979 17.52h2.098v0.504h-2.098v-0.504zM8.196 10.999c-1.278 0-2.319 1.041-2.319 2.319s1.041 2.319 2.319 2.319 2.319-1.041 2.319-2.319-1.041-2.319-2.319-2.319zM10.095 13.318c0 1.047-0.852 1.899-1.899 1.899s-1.899-0.852-1.899-1.899 0.852-1.899 1.899-1.899 1.899 0.852 1.899 1.899zM8.196 8.691c-2.552 0-4.627 2.075-4.627 4.627s2.075 4.627 4.627 4.627 4.627-2.075 4.627-4.627c-0.002-2.552-2.077-4.627-4.627-4.627zM12.318 13.318c0 2.273-1.85 4.123-4.123 4.123s-4.123-1.85-4.123-4.123 1.85-4.123 4.123-4.123 4.123 1.85 4.123 4.123zM23.198 10.999c-1.278 0-2.319 1.041-2.319 2.319s1.041 2.319 2.319 2.319 2.319-1.041 2.319-2.319-1.041-2.319-2.319-2.319zM25.097 13.318c0 1.047-0.852 1.899-1.899 1.899s-1.899-0.852-1.899-1.899 0.852-1.899 1.899-1.899 1.899 0.852 1.899 1.899zM23.198 8.691c-2.552 0-4.627 2.075-4.627 4.627s2.075 4.627 4.627 4.627 4.627-2.075 4.627-4.627c0-2.552-2.077-4.627-4.627-4.627zM27.32 13.318c0 2.273-1.85 4.123-4.123 4.123s-4.123-1.85-4.123-4.123 1.85-4.123 4.123-4.123 4.123 1.85 4.123 4.123zM29.884 7.848l-0.443 0.24 0.018 0.033c0.008 0.014 0.735 1.374 0.024 2.269l-0.024 0.030 0.394 0.313 0.024-0.030c0.914-1.15 0.061-2.754 0.024-2.822l-0.018-0.033zM10.477 29.722h10.784v0.38h-10.784v-0.38z"></path>
</svg>
