<!-- Generated by IcoMoon.io -->
<svg version="1.1" xmlns="http://www.w3.org/2000/svg" width="32" height="32" viewBox="0 0 32 32">
<title>safe</title>
<path d="M1.403 11.967h-0.614c-0.438 0-0.789-0.351-0.789-0.789v-3.288c0-0.438 0.351-0.789 0.789-0.789h0.658c0.438 0 0.789 0.351 0.789 0.789v3.288c-0.044 0.438-0.395 0.789-0.833 0.789zM0.789 7.803c-0.044 0-0.088 0.044-0.088 0.088v3.288c0 0.044 0.044 0.088 0.088 0.088h0.658c0.044 0 0.088-0.044 0.088-0.088v-3.288c0-0.044-0.044-0.088-0.088-0.088h-0.658z"></path>
<path d="M1.403 23.803h-0.614c-0.438 0-0.789-0.351-0.789-0.789v-3.288c0-0.438 0.351-0.789 0.789-0.789h0.658c0.438 0 0.789 0.351 0.789 0.789v3.288c-0.044 0.438-0.395 0.789-0.833 0.789zM0.789 19.638c-0.044 0-0.088 0.044-0.088 0.088v3.288c0 0.044 0.044 0.088 0.088 0.088h0.658c0.044 0 0.088-0.044 0.088-0.088v-3.288c0-0.044-0.044-0.088-0.088-0.088h-0.658z"></path>
<path d="M29.896 30.378h-26.038c-1.14 0-2.104-0.921-2.104-2.104v-26.082c0-1.14 0.921-2.104 2.104-2.104h26.082c1.14 0.044 2.060 0.964 2.060 2.104v26.082c0 1.184-0.921 2.104-2.104 2.104zM3.858 0.789c-0.789 0-1.447 0.658-1.447 1.403v26.082c0 0.789 0.658 1.403 1.403 1.403h26.082c0.789 0 1.403-0.658 1.403-1.403v-26.082c0-0.789-0.658-1.403-1.403-1.403h-26.038z"></path>
<path d="M16.833 23.671c-4.647 0-8.416-3.814-8.416-8.46s3.814-8.416 8.46-8.416c4.647 0 8.416 3.814 8.416 8.46 0 4.69-3.814 8.46-8.46 8.416zM16.921 7.452c-4.296 0-7.803 3.463-7.803 7.759s3.463 7.803 7.759 7.803c4.296 0 7.803-3.463 7.803-7.759 0-4.252-3.463-7.759-7.759-7.803z"></path>
<path d="M10.214 31.869h-2.279c-0.088 0-0.175-0.044-0.263-0.131l-1.359-1.622 0.526-0.438 1.227 1.49h1.929l1.008-1.447 0.526 0.395-1.096 1.622c-0.044 0.088-0.132 0.131-0.219 0.131z"></path>
<path d="M25.995 31.869h-2.279c-0.088 0-0.175-0.044-0.263-0.131l-1.359-1.622 0.526-0.438 1.227 1.49h1.929l1.008-1.447 0.526 0.395-1.096 1.622c-0.044 0.088-0.131 0.131-0.219 0.131z"></path>
<path d="M17.227 11.66v-2.981c0-0.175-0.131-0.351-0.351-0.351s-0.351 0.132-0.351 0.351v2.981c0.088 0 0.219 0 0.351 0s0.219 0 0.351 0z"></path>
<path d="M16.57 18.849v2.981c0 0.175 0.131 0.351 0.351 0.351s0.351-0.131 0.351-0.351v-2.981c-0.088 0-0.219 0-0.351 0s-0.263 0-0.351 0z"></path>
<path d="M23.452 14.904h-2.981c0 0.088 0 0.219 0 0.351s0 0.219 0 0.351h2.981c0.175 0 0.351-0.132 0.351-0.351s-0.175-0.351-0.351-0.351z"></path>
<path d="M13.282 14.904h-2.981c-0.175 0-0.351 0.132-0.351 0.351s0.132 0.351 0.351 0.351h2.981c0-0.088 0-0.219 0-0.351s0-0.219 0-0.351z"></path>
<path d="M19.2 18.016l2.104 2.104c0.044 0.044 0.131 0.088 0.219 0.088s0.175-0.044 0.219-0.088c0.131-0.131 0.131-0.351 0-0.482l-2.104-2.104c-0.131 0.219-0.263 0.351-0.438 0.482z"></path>
<path d="M14.553 12.493l-2.104-2.104c-0.132-0.132-0.351-0.132-0.482 0s-0.132 0.351 0 0.482l2.104 2.104c0.175-0.219 0.307-0.351 0.482-0.482z"></path>
<path d="M19.638 12.931l2.104-2.104c0.131-0.132 0.131-0.351 0-0.482s-0.351-0.132-0.482 0l-2.104 2.104c0.219 0.175 0.351 0.307 0.482 0.482z"></path>
<path d="M14.115 17.578l-2.104 2.104c-0.132 0.131-0.132 0.351 0 0.482 0.044 0.044 0.132 0.088 0.219 0.088s0.175-0.044 0.219-0.088l2.104-2.104c-0.175-0.175-0.307-0.307-0.438-0.482z"></path>
<path d="M17.227 18.542v0.307c0.745-0.088 1.447-0.351 1.973-0.833l-0.219-0.219c-0.526 0.395-1.096 0.658-1.753 0.745z"></path>
<path d="M19.419 17.315l0.219 0.219c0.438-0.57 0.745-1.227 0.833-1.973h-0.307c-0.088 0.701-0.351 1.271-0.745 1.753z"></path>
<path d="M14.816 17.797l-0.219 0.219c0.57 0.438 1.227 0.745 1.973 0.833v-0.307c-0.701-0.088-1.271-0.351-1.753-0.745z"></path>
<path d="M20.164 14.904h0.307c-0.088-0.745-0.351-1.447-0.833-1.973l-0.219 0.219c0.395 0.526 0.658 1.096 0.745 1.753z"></path>
<path d="M14.334 13.151l-0.219-0.219c-0.438 0.57-0.745 1.227-0.833 1.973h0.307c0.088-0.658 0.351-1.227 0.745-1.753z"></path>
<path d="M16.57 11.967v-0.307c-0.745 0.088-1.447 0.351-1.973 0.833l0.219 0.219c0.482-0.395 1.052-0.658 1.753-0.745z"></path>
<path d="M13.589 15.562h-0.307c0.088 0.745 0.351 1.447 0.833 1.973l0.219-0.219c-0.395-0.482-0.658-1.052-0.745-1.753z"></path>
<path d="M18.937 12.712l0.219-0.219c-0.57-0.438-1.227-0.745-1.973-0.833v0.307c0.701 0.088 1.271 0.351 1.753 0.745z"></path>
<path d="M16.877 18.542c-0.131 0-0.219 0-0.351 0v0.307c0.088 0 0.219 0 0.351 0s0.219 0 0.351 0v-0.307c-0.131 0-0.219 0-0.351 0z"></path>
<path d="M16.877 11.967c0.131 0 0.219 0 0.351 0v-0.307c-0.088 0-0.219 0-0.351 0s-0.219 0-0.351 0v0.307c0.131 0 0.219 0 0.351 0z"></path>
<path d="M20.471 14.904h-0.307c0 0.088 0 0.219 0 0.351s0 0.219 0 0.351h0.307c0-0.088 0-0.219 0-0.351s0-0.219 0-0.351z"></path>
<path d="M13.589 15.255c0-0.132 0-0.219 0-0.351h-0.307c0 0.088 0 0.219 0 0.351s0 0.219 0 0.351h0.307c0-0.132 0-0.263 0-0.351z"></path>
<path d="M18.937 17.797l0.219 0.219c0.175-0.131 0.307-0.307 0.482-0.482l-0.219-0.219c-0.131 0.175-0.307 0.351-0.482 0.482z"></path>
<path d="M14.816 12.712l-0.219-0.219c-0.175 0.132-0.307 0.307-0.482 0.482l0.219 0.219c0.132-0.175 0.307-0.351 0.482-0.482z"></path>
<path d="M19.419 13.151l0.219-0.219c-0.131-0.175-0.307-0.307-0.482-0.482l-0.219 0.263c0.175 0.132 0.351 0.307 0.482 0.438z"></path>
<path d="M14.334 17.315l-0.219 0.219c0.132 0.175 0.307 0.307 0.482 0.482l0.219-0.219c-0.175-0.131-0.351-0.307-0.482-0.482z"></path>
<path d="M14.553 13.414l-0.219-0.263c-0.395 0.482-0.658 1.096-0.745 1.753h0.351c0.044-0.57 0.307-1.052 0.614-1.49z"></path>
<path d="M17.227 18.192v0.351c0.658-0.044 1.271-0.307 1.753-0.745l-0.219-0.219c-0.482 0.307-1.008 0.57-1.534 0.614z"></path>
<path d="M15.036 17.578l-0.219 0.219c0.482 0.395 1.096 0.658 1.753 0.745v-0.351c-0.57-0.044-1.096-0.307-1.534-0.614z"></path>
<path d="M19.2 17.096l0.219 0.219c0.395-0.482 0.658-1.096 0.745-1.753h-0.351c-0.044 0.57-0.307 1.096-0.614 1.534z"></path>
<path d="M19.2 13.414c0.351 0.438 0.57 0.964 0.614 1.534h0.351c-0.044-0.658-0.307-1.271-0.745-1.753l-0.219 0.219z"></path>
<path d="M13.94 15.562h-0.351c0.044 0.658 0.307 1.271 0.745 1.753l0.219-0.219c-0.307-0.438-0.57-0.964-0.614-1.534z"></path>
<path d="M18.718 12.931l0.219-0.219c-0.482-0.395-1.096-0.658-1.753-0.745v0.351c0.57 0.044 1.096 0.263 1.534 0.614z"></path>
<path d="M16.57 12.318v-0.351c-0.658 0.044-1.271 0.307-1.753 0.745l0.219 0.219c0.438-0.351 0.964-0.57 1.534-0.614z"></path>
<path d="M16.877 12.274c0.131 0 0.219 0 0.351 0v-0.351c-0.088 0-0.219 0-0.351 0s-0.219 0-0.351 0v0.351c0.131 0.044 0.219 0 0.351 0z"></path>
<path d="M16.877 18.192c-0.131 0-0.219 0-0.351 0v0.351c0.088 0 0.219 0 0.351 0s0.219 0 0.351 0v-0.351c-0.131 0-0.219 0-0.351 0z"></path>
<path d="M19.858 15.255c0 0.132 0 0.219 0 0.351h0.307c0-0.088 0-0.219 0-0.351s0-0.219 0-0.351h-0.351c0 0.132 0.044 0.219 0.044 0.351z"></path>
<path d="M13.94 15.255c0-0.132 0-0.219 0-0.351h-0.351c0 0.088 0 0.219 0 0.351s0 0.219 0 0.351h0.351c0-0.132 0-0.263 0-0.351z"></path>
<path d="M18.718 17.578l0.219 0.219c0.175-0.131 0.307-0.307 0.482-0.482l-0.219-0.219c-0.131 0.175-0.307 0.351-0.482 0.482z"></path>
<path d="M15.036 12.931l-0.219-0.219c-0.175 0.132-0.307 0.307-0.482 0.482l0.219 0.219c0.132-0.175 0.307-0.351 0.482-0.482z"></path>
<path d="M19.2 13.414l0.219-0.219c-0.131-0.175-0.307-0.307-0.482-0.482l-0.219 0.219c0.175 0.132 0.351 0.307 0.482 0.482z"></path>
<path d="M14.553 17.096l-0.219 0.219c0.132 0.175 0.307 0.307 0.482 0.482l0.219-0.219c-0.175-0.131-0.351-0.307-0.482-0.482z"></path>
<path d="M16.658 16.526v0.921c0 0.131 0.088 0.219 0.219 0.219s0.219-0.088 0.219-0.219v-0.921c-0.088 0-0.131 0.044-0.219 0.044s-0.131 0-0.219-0.044z"></path>
<path d="M17.096 13.94v-0.921c0-0.132-0.088-0.219-0.219-0.219s-0.219 0.132-0.219 0.263v0.921c0.088 0 0.131-0.044 0.219-0.044s0.131 0 0.219 0z"></path>
<path d="M15.605 15.036h-0.921c-0.132 0-0.219 0.088-0.219 0.219s0.088 0.219 0.219 0.219h0.921c0-0.088-0.044-0.132-0.044-0.219s0-0.132 0.044-0.219z"></path>
<path d="M18.148 15.474h0.921c0.131 0 0.219-0.088 0.219-0.219s-0.088-0.219-0.219-0.219h-0.921c0 0.088 0.044 0.132 0.044 0.219s0 0.132-0.044 0.219z"></path>
<path d="M17.666 16.307l0.658 0.658c0.044 0.044 0.088 0.044 0.175 0.044s0.131 0 0.175-0.044c0.088-0.088 0.088-0.219 0-0.307l-0.701-0.658c-0.088 0.131-0.219 0.219-0.307 0.307z"></path>
<path d="M16.131 14.159l-0.614-0.614c-0.088-0.088-0.219-0.088-0.307 0s-0.088 0.219 0 0.307l0.614 0.614c0.088-0.088 0.175-0.219 0.307-0.307z"></path>
<path d="M17.973 14.51l0.658-0.658c0.088-0.088 0.088-0.219 0-0.307s-0.219-0.088-0.307 0l-0.658 0.658c0.131 0.088 0.219 0.175 0.307 0.307z"></path>
<path d="M15.825 16.044l-0.614 0.614c-0.088 0.088-0.088 0.219 0 0.307 0.044 0.044 0.088 0.044 0.175 0.044s0.132 0 0.175-0.044l0.614-0.614c-0.175-0.088-0.263-0.219-0.351-0.307z"></path>
<path d="M17.096 15.956v0.175c0.044 0 0.088 0 0.088-0.044v0l-0.088-0.132z"></path>
<path d="M16.658 14.553v-0.175c-0.044 0-0.088 0-0.088 0.044v0l0.088 0.132z"></path>
<path d="M16.57 16.044v0c0.044 0.044 0.088 0.044 0.088 0.044v-0.175l-0.088 0.131z"></path>
<path d="M17.227 14.466v0c-0.044-0.044-0.088-0.044-0.088-0.044v0.175l0.088-0.132z"></path>
<path d="M16.088 14.904v0c-0.044 0.044-0.044 0.088-0.044 0.088h0.175l-0.131-0.088z"></path>
<path d="M17.666 15.562v0c0.044-0.044 0.044-0.088 0.044-0.088h-0.175l0.131 0.088z"></path>
<path d="M17.578 15.036h0.175c0-0.044 0-0.088-0.044-0.088v0l-0.131 0.088z"></path>
<path d="M16.175 15.474h-0.175c0 0.044 0 0.088 0.044 0.088v0l0.131-0.088z"></path>
<path d="M16.263 14.904l-0.131-0.132c-0.044 0.044-0.044 0.088-0.044 0.132v0h0.175z"></path>
<path d="M17.534 15.562l0.088 0.088c0-0.044 0.044-0.044 0.044-0.088v0h-0.131z"></path>
<path d="M16.57 14.466v0c-0.044 0-0.088 0-0.088 0.044l0.088 0.088v-0.132z"></path>
<path d="M17.227 16.044v0c0.044 0 0.088-0.044 0.131-0.044l-0.131-0.132v0.175z"></path>
<path d="M17.666 14.904v0c0-0.044 0-0.044-0.044-0.088l-0.088 0.088h0.131z"></path>
<path d="M16.57 15.912l-0.088 0.088c0.044 0 0.044 0.044 0.088 0.044v0-0.132z"></path>
<path d="M16.088 15.562v0c0 0.044 0.044 0.088 0.044 0.132l0.131-0.132h-0.175z"></path>
<path d="M17.227 14.641l0.131-0.132c-0.044-0.044-0.088-0.044-0.131-0.088v0 0.219z"></path>
<path d="M16.658 14.422v0.175l0.219 0.219 0.219-0.219v-0.175c-0.088 0-0.131-0.044-0.219-0.044s-0.131 0-0.219 0.044z"></path>
<path d="M16.877 15.737l-0.219 0.219v0.175c0.088 0 0.131 0.044 0.219 0.044s0.131 0 0.219-0.044v-0.175l-0.219-0.219z"></path>
<path d="M16.921 15.562h-0.044l-0.044 0.088 0.044 0.088 0.088-0.088z"></path>
<path d="M17.359 15.255l0.219 0.219h0.175c0-0.088 0.044-0.132 0.044-0.219s0-0.132-0.044-0.219h-0.175l-0.219 0.219z"></path>
<path d="M16.395 15.255l-0.219-0.219h-0.175c0 0.088-0.044 0.132-0.044 0.219s0 0.132 0.044 0.219h0.175l0.219-0.219z"></path>
<path d="M16.57 15.299v-0.088l-0.088-0.044-0.088 0.088 0.131 0.088z"></path>
<path d="M17.209 15.261l0.062-0.062 0.062 0.062-0.062 0.062-0.062-0.062z"></path>
<path d="M16.57 14.904v-0.351l-0.088-0.088c-0.131 0.088-0.219 0.175-0.307 0.307l0.131 0.132h0.263z"></path>
<path d="M17.227 15.562v0.307l0.131 0.131c0.131-0.088 0.219-0.175 0.307-0.307l-0.131-0.132h-0.307z"></path>
<path d="M16.614 15.036l0.044-0.044v-0.088h-0.088v0.132z"></path>
<path d="M17.14 15.474l-0.044 0.044v0.044h0.131v-0.088z"></path>
<path d="M17.008 15.474l-0.088 0.088h0.088l0.088-0.044v-0.044z"></path>
<path d="M16.658 14.992v0.044h0.175l0.088-0.088-0.044-0.044h-0.131z"></path>
<path d="M16.658 15.211v-0.175h-0.044l-0.044 0.088v0.088l0.044 0.044z"></path>
<path d="M17.227 15.255l-0.131 0.132v0.088h0.044l0.088-0.088z"></path>
<path d="M16.57 15.562h-0.263l-0.131 0.132c0.088 0.132 0.175 0.219 0.307 0.307l0.088-0.088v-0.351z"></path>
<path d="M17.227 14.904h0.307l0.088-0.088c-0.088-0.132-0.175-0.263-0.307-0.307l-0.131 0.132v0.263z"></path>
<path d="M16.658 15.518l-0.044-0.044h-0.044v0.088h0.088z"></path>
<path d="M17.096 14.992l0.044 0.044h0.088v-0.132h-0.131z"></path>
<path d="M17.008 15.036h0.088v-0.044l-0.088-0.088h-0.088v0.044z"></path>
<path d="M16.789 15.474h-0.131v0.044l0.088 0.044h0.175z"></path>
<path d="M17.096 15.123l0.131 0.132v-0.132l-0.088-0.088h-0.044z"></path>
<path d="M16.658 15.342l-0.044-0.088-0.044 0.044v0.088l0.044 0.088h0.044z"></path>
<path d="M16.658 15.342l0.131 0.132h0.219l0.088-0.088v-0.263l-0.088-0.088h-0.175l-0.175 0.175z"></path>
<path d="M17.227 14.203c0.044 0 0.131 0.044 0.175 0.088l0.175-0.175c-0.088-0.044-0.219-0.088-0.351-0.132v0.219z"></path>
<path d="M16.395 16.219l-0.175 0.175c0.088 0.044 0.219 0.088 0.351 0.131v-0.219c-0.088-0.044-0.131-0.044-0.175-0.088z"></path>
<path d="M17.227 16.307v0.219c0.131-0.044 0.219-0.088 0.351-0.131l-0.219-0.175c-0.044 0.044-0.088 0.044-0.131 0.088z"></path>
<path d="M16.57 14.203v-0.219c-0.131 0.044-0.219 0.088-0.351 0.132l0.175 0.175c0.044-0.044 0.088-0.044 0.175-0.088z"></path>
<path d="M17.929 14.904h0.219c-0.044-0.132-0.088-0.219-0.131-0.351l-0.175 0.175c0.044 0.088 0.044 0.132 0.088 0.175z"></path>
<path d="M15.912 14.729l-0.175-0.175c-0.044 0.088-0.088 0.219-0.132 0.351h0.219c0.044-0.044 0.044-0.088 0.088-0.175z"></path>
<path d="M17.841 15.737l0.175 0.175c0.044-0.088 0.088-0.219 0.131-0.351h-0.219c-0.044 0.088-0.044 0.132-0.088 0.175z"></path>
<path d="M15.825 15.562h-0.219c0.044 0.132 0.088 0.219 0.132 0.351l0.175-0.175c-0.044-0.044-0.044-0.088-0.088-0.175z"></path>
<path d="M17.096 16.307v0.219c0.044 0 0.088 0 0.088-0.044v-0.219c0 0.044-0.044 0.044-0.088 0.044z"></path>
<path d="M16.57 16.307v0.219c0.044 0 0.088 0 0.088 0.044v-0.219c-0.044-0.044-0.088-0.044-0.088-0.044z"></path>
<path d="M17.227 14.203v-0.219c-0.044 0-0.088 0-0.088-0.044v0.219c0 0.044 0.044 0.044 0.088 0.044z"></path>
<path d="M16.658 14.159v-0.219c-0.044 0-0.088 0-0.088 0.044v0.219c0 0 0.044 0 0.088-0.044z"></path>
<path d="M15.825 15.474h-0.219c0 0.044 0 0.088 0.044 0.088h0.219c-0.044 0-0.044-0.044-0.044-0.088z"></path>
<path d="M17.929 15.562h0.219c0-0.044 0-0.088 0.044-0.088h-0.219c-0.044 0.044-0.044 0.088-0.044 0.088z"></path>
<path d="M17.929 15.036h0.219c0-0.044 0-0.088-0.044-0.088h-0.219c0.044 0 0.044 0.044 0.044 0.088z"></path>
<path d="M15.825 14.904h-0.219c0 0.044 0 0.088-0.044 0.088h0.219c0.044 0 0.044-0.044 0.044-0.088z"></path>
<path d="M15.956 14.641l-0.132-0.175c-0.044 0.044-0.044 0.088-0.088 0.088l0.175 0.175c0 0 0.044-0.044 0.044-0.088z"></path>
<path d="M16.395 14.29l-0.175-0.175c-0.044 0-0.044 0.044-0.088 0.044l0.175 0.175c0 0 0.044-0.044 0.088-0.044z"></path>
<path d="M17.797 15.825l0.175 0.175c0-0.044 0.044-0.044 0.044-0.088l-0.175-0.175c0 0.044-0.044 0.088-0.044 0.088z"></path>
<path d="M17.359 16.219l0.175 0.175c0.044 0 0.088-0.044 0.088-0.088l-0.175-0.175c0 0.044-0.044 0.088-0.088 0.088z"></path>
<path d="M17.49 14.334l0.175-0.175c-0.044-0.044-0.088-0.044-0.131-0.088l-0.175 0.175c0.044 0.044 0.088 0.088 0.131 0.088z"></path>
<path d="M16.307 16.175l-0.175 0.175c0.044 0 0.044 0.044 0.088 0.044l0.175-0.175c-0.044 0-0.088-0.044-0.088-0.044z"></path>
<path d="M15.912 15.737l-0.175 0.175c0.044 0.044 0.044 0.088 0.088 0.132l0.175-0.175c-0.044-0.044-0.088-0.088-0.088-0.132z"></path>
<path d="M17.841 14.729l0.175-0.175c0-0.044-0.044-0.044-0.044-0.088l-0.175 0.175c0.044 0.044 0.044 0.088 0.044 0.088z"></path>
<path d="M16.877 16.351c-0.088 0-0.131 0-0.219-0.044v0.219c0.088 0 0.131 0.044 0.219 0.044s0.131 0 0.219-0.044v-0.219c-0.088 0.044-0.131 0.044-0.219 0.044z"></path>
<path d="M16.877 14.159c0.088 0 0.131 0 0.219 0.044v-0.219c-0.088 0-0.131-0.044-0.219-0.044s-0.131 0-0.219 0.044v0.219c0.088-0.044 0.131-0.044 0.219-0.044z"></path>
<path d="M17.973 15.255c0 0.088 0 0.132-0.044 0.219h0.219c0-0.088 0.044-0.132 0.044-0.219s0-0.132-0.044-0.219h-0.219c0.044 0.088 0.044 0.132 0.044 0.219z"></path>
<path d="M15.781 15.255c0-0.088 0-0.132 0.044-0.219h-0.219c0 0.088-0.044 0.132-0.044 0.219s0 0.132 0.044 0.219h0.219c-0.044-0.088-0.044-0.132-0.044-0.219z"></path>
<path d="M17.49 16.175l0.175 0.175c0.131-0.088 0.219-0.175 0.307-0.307l-0.175-0.175c-0.088 0.088-0.175 0.219-0.307 0.307z"></path>
<path d="M16.307 14.334l-0.175-0.175c-0.132 0.088-0.219 0.175-0.307 0.307l0.175 0.175c0.044-0.132 0.175-0.219 0.307-0.307z"></path>
<path d="M16 15.868l-0.175 0.175c0.088 0.131 0.175 0.219 0.307 0.307l0.175-0.175c-0.131-0.088-0.263-0.175-0.307-0.307z"></path>
<path d="M17.797 14.685l0.175-0.175c-0.088-0.132-0.175-0.219-0.307-0.307l-0.175 0.175c0.131 0.044 0.219 0.175 0.307 0.307z"></path>
<path d="M17.227 16.044v0.219c0.044 0 0.131-0.044 0.175-0.088l-0.175-0.131c0 0 0 0 0 0z"></path>
<path d="M16.526 16.044l-0.131 0.175c0.044 0.044 0.131 0.044 0.175 0.088l-0.044-0.263c0 0 0 0 0 0z"></path>
<path d="M17.666 15.605l0.175 0.175c0.044-0.044 0.044-0.132 0.088-0.175h-0.263c0 0 0 0 0 0z"></path>
<path d="M16.044 15.562h-0.219c0 0.044 0.044 0.132 0.088 0.175l0.132-0.175c0.044 0.044 0.044 0.044 0 0z"></path>
<path d="M16.088 14.904l-0.175-0.175c-0.044 0.044-0.044 0.132-0.088 0.175h0.263c0 0 0 0 0 0z"></path>
<path d="M16.57 14.422v-0.219c-0.044 0-0.131 0.044-0.175 0.088l0.175 0.132c-0.044 0.044-0.044 0 0 0z"></path>
<path d="M17.227 14.466l0.175-0.175c-0.044-0.044-0.131-0.044-0.175-0.088v0.263c0-0.044 0 0 0 0z"></path>
<path d="M17.71 14.904h0.219c0-0.044-0.044-0.132-0.088-0.175l-0.131 0.175c-0.044 0-0.044 0 0 0z"></path>
<path d="M17.096 16.088v0.219c0.044 0 0.088-0.044 0.088-0.044v-0.219c0 0.044-0.044 0.044-0.088 0.044z"></path>
<path d="M17.096 14.422c0.044 0 0.088 0 0.088 0.044v-0.219c-0.044 0-0.088-0.044-0.088-0.044v0.219z"></path>
<path d="M16.57 16.044v0.219c0.044 0 0.088 0.044 0.088 0.044v-0.219c-0.044 0-0.088 0-0.088-0.044z"></path>
<path d="M16.658 14.422v-0.219c-0.044 0-0.088 0.044-0.088 0.044v0.219c0-0.044 0.044-0.044 0.088-0.044z"></path>
<path d="M16.044 14.904h-0.219c0 0.044-0.044 0.088-0.044 0.088h0.219c0.044 0 0.044-0.044 0.044-0.088z"></path>
<path d="M16.044 15.474h-0.219c0 0.044 0.044 0.088 0.044 0.088h0.219c-0.044 0-0.044-0.044-0.044-0.088z"></path>
<path d="M17.71 15.036h0.219c0-0.044-0.044-0.088-0.044-0.088h-0.219c0.044 0 0.044 0.044 0.044 0.088z"></path>
<path d="M17.71 15.562h0.219c0-0.044 0.044-0.088 0.044-0.088h-0.219c-0.044 0.044-0.044 0.088-0.044 0.088z"></path>
<path d="M16.131 14.816l-0.175-0.175c-0.044 0.044-0.044 0.088-0.044 0.132l0.175 0.175c0-0.088 0-0.132 0.044-0.132z"></path>
<path d="M16.526 14.466l-0.175-0.175c-0.044 0-0.044 0.044-0.088 0.044l0.175 0.175c0.044-0.044 0.044-0.044 0.088-0.044z"></path>
<path d="M17.622 15.693l0.175 0.175c0-0.044 0.044-0.044 0.044-0.088l-0.175-0.175c0 0 0 0.044-0.044 0.088z"></path>
<path d="M17.227 16.044l0.175 0.175c0.044 0 0.088-0.044 0.131-0.044l-0.175-0.175c-0.044 0-0.088 0.044-0.131 0.044z"></path>
<path d="M17.666 14.904l0.175-0.175c0-0.044-0.044-0.044-0.044-0.088l-0.175 0.175c0.044 0.044 0.044 0.088 0.044 0.088z"></path>
<path d="M17.359 14.51l0.175-0.175c-0.044-0.044-0.088-0.044-0.131-0.088l-0.175 0.219c0.044 0 0.088 0.044 0.131 0.044z"></path>
<path d="M16.482 16l-0.175 0.175c0.044 0 0.044 0.044 0.088 0.044l0.175-0.175c-0.044 0-0.088 0-0.088-0.044z"></path>
<path d="M16.088 15.605l-0.175 0.175c0.044 0.044 0.044 0.088 0.088 0.132l0.175-0.175c-0.044-0.044-0.088-0.088-0.088-0.132z"></path>
<path d="M16.877 16.131c-0.088 0-0.131 0-0.219-0.044v0.219c0.088 0 0.131 0.044 0.219 0.044s0.131 0 0.219-0.044v-0.219c-0.088 0.044-0.131 0.044-0.219 0.044z"></path>
<path d="M16.877 14.378c0.088 0 0.131 0 0.219 0.044v-0.219c-0.088 0-0.131-0.044-0.219-0.044s-0.131 0-0.219 0.044v0.219c0.088-0.044 0.131-0.044 0.219-0.044z"></path>
<path d="M17.753 15.255c0 0.088 0 0.132-0.044 0.219h0.219c0-0.088 0.044-0.132 0.044-0.219s0-0.132-0.044-0.219h-0.219c0.044 0.088 0.044 0.132 0.044 0.219z"></path>
<path d="M16 15.255c0-0.088 0-0.132 0.044-0.219h-0.219c0 0.088-0.044 0.132-0.044 0.219s0 0.132 0.044 0.219h0.219c-0.044-0.088-0.044-0.132-0.044-0.219z"></path>
<path d="M16.438 14.51l-0.175-0.175c-0.131 0.088-0.219 0.175-0.307 0.307l0.175 0.175c0.088-0.132 0.175-0.263 0.307-0.307z"></path>
<path d="M17.315 16l0.175 0.175c0.131-0.088 0.219-0.175 0.307-0.307l-0.175-0.175c-0.044 0.132-0.175 0.219-0.307 0.307z"></path>
<path d="M16.131 15.737l-0.175 0.175c0.088 0.132 0.175 0.219 0.307 0.307l0.175-0.175c-0.088-0.088-0.219-0.175-0.307-0.307z"></path>
<path d="M17.622 14.816l0.175-0.175c-0.088-0.132-0.175-0.219-0.307-0.307l-0.175 0.175c0.175 0.088 0.263 0.175 0.307 0.307z"></path>
</svg>
