<!-- Generated by IcoMoon.io -->
<svg version="1.1" xmlns="http://www.w3.org/2000/svg" width="32" height="32" viewBox="0 0 32 32">
<title>saml</title>
<path d="M3.929 18.804c-1.382-5.734-1.267-11.44-1.258-11.808 0.010-0.435 0.266-0.826 0.659-1.014l12.374-5.869c0.323-0.154 0.694-0.15 1.014 0.006l6.25 3.069c2.448 1.203 2.781 1.744 2.781 1.744 0.979 1.101 0.637 2.832-0.109 3.619-0.81 0.854-1.955 1.386-3.229 1.386h-10.122c-0.646 0-1.174 0.522-1.174 1.165s0.525 1.165 1.174 1.165h6.934c2.448 0 4.432 1.971 4.432 4.403s-1.984 4.403-4.432 4.403h-10.509c0 0-1.258 0.019-1.216 0.826 0.042 0.803 0.323 1.312 0.323 1.312 0.701 1.555 1.574 2.96 2.662 4.067 1.6 1.626 3.472 2.419 5.718 2.419 2.179 0 3.99-0.771 5.536-2.355 4.502-4.624 5.171-14.586 5.254-18.576 0 0 1.187-2.611 0.803-3.219l0.877 0.445c0.384 0.189 0.63 0.57 0.646 0.995 0.022 0.627 0.442 15.437-5.91 21.955-1.978 2.029-4.403 3.059-7.206 3.059-2.867 0-5.35-1.050-7.382-3.114-1.597-1.622-2.781-3.747-3.658-6.035 0 0-0.838-2.301 0.413-3.629 0.806-0.854 1.955-1.386 3.229-1.386h10.266c0.646 0 1.174-0.522 1.174-1.165s-0.525-1.165-1.174-1.165h-7.168c-2.448 0-4.432-1.971-4.432-4.403s1.984-4.403 4.432-4.403h10.23c0 0 0.55 0 0.55-0.467s-0.403-0.806-1.040-1.12l-5.45-2.678-11.2 5.318c0.016 1.507 0.138 5.238 0.925 9.21 0 0-1.114 0.646-1.552 1.245-0.438 0.595-0.438 0.595-0.438 0.595z"></path>
</svg>
