<!-- Generated by IcoMoon.io -->
<svg version="1.1" xmlns="http://www.w3.org/2000/svg" width="32" height="32" viewBox="0 0 32 32">
<title>search</title>
<path d="M31.663 30.464l-9.293-9.293c1.948-2.248 3.148-5.246 3.148-8.393 0-7.045-5.696-12.74-12.74-12.74-6.895 0.15-12.59 5.845-12.59 12.89s5.696 12.74 12.74 12.74c3.297 0 6.145-1.199 8.393-3.148l9.293 9.293c0.3 0.3 0.749 0.3 1.049 0 0.3-0.45 0.3-1.049 0-1.349zM12.927 24.019c-6.295 0-11.241-4.946-11.241-11.091s4.946-11.241 11.241-11.241c6.145 0 11.241 4.946 11.241 11.241s-5.096 11.091-11.241 11.091z"></path>
</svg>
