<!-- Generated by IcoMoon.io -->
<svg version="1.1" xmlns="http://www.w3.org/2000/svg" width="32" height="32" viewBox="0 0 32 32">
<title>settings</title>
<path d="M23.072 14.497h-14.144c-4.066 0-7.249-3.359-7.249-7.249s3.182-7.249 7.249-7.249h14.144c4.066 0 7.249 3.182 7.249 7.249s-3.182 7.249-7.249 7.249zM8.928 1.238c-3.182 0-5.834 2.652-5.834 5.834s2.652 5.834 5.834 5.834h14.144c3.182 0 5.834-2.652 5.834-5.834s-2.475-5.834-5.834-5.834h-14.144zM13.525 7.072c0 2.539-2.058 4.597-4.597 4.597s-4.597-2.058-4.597-4.597c0-2.539 2.058-4.597 4.597-4.597s4.597 2.058 4.597 4.597zM23.072 32h-14.144c-4.066 0-7.249-3.182-7.249-7.249s3.182-7.072 7.249-7.072h14.144c4.066 0 7.249 3.182 7.249 7.249s-3.182 7.072-7.249 7.072zM8.928 18.917c-3.182 0-5.834 2.652-5.834 5.834s2.652 5.834 5.834 5.834h14.144c3.182 0 5.834-2.652 5.834-5.834s-2.652-5.834-5.834-5.834h-14.144zM27.669 24.928c0 2.539-2.058 4.597-4.597 4.597s-4.597-2.058-4.597-4.597c0-2.539 2.058-4.597 4.597-4.597s4.597 2.058 4.597 4.597z"></path>
</svg>
