<!-- Generated by IcoMoon.io -->
<svg version="1.1" xmlns="http://www.w3.org/2000/svg" width="29" height="32" viewBox="0 0 29 32">
<title>shield-arrow</title>
<path d="M12.835 30.275l-5.365-2.874c-0.192-0.192-4.886-3.162-4.886-8.048v-13.701h5.461c0.096 0 2.395 0.096 6.419-3.545l0.383-0.383 0.479 0.383c0 0 3.545 3.545 6.515 3.545h4.982v13.605c0 0.287-0.287 5.94-4.886 8.24l-5.269 2.778v-14.18h2.97l-4.982-4.886-4.982 4.886h3.162v14.18zM17.913 17.245v11.018l3.545-1.82c3.928-2.012 4.216-7.186 4.216-7.186v-12.359h-3.832c-2.778 0-5.844-2.491-6.898-3.545-4.216 3.737-6.802 3.449-6.898 3.449h-4.216v12.455c0 4.311 4.216 6.994 4.216 7.090l3.545 1.916v-11.018h-4.79l7.952-7.76 7.856 7.76h-4.695z"></path>
</svg>
