<!-- Generated by IcoMoon.io -->
<svg version="1.1" xmlns="http://www.w3.org/2000/svg" width="32" height="32" viewBox="0 0 32 32">
<title>shield</title>
<path d="M13.973 13.135h-6.541l5.279 3.722-1.913 6 5.203-3.494 5.202 3.494-1.913-6 5.279-3.722h-6.541l-2.027-6.076-2.027 6.076zM21.034 14.289l-3.102 2.182 1.107 3.583-3.038-2.18-3.078 2.18 1.146-3.583-3.103-2.182h3.892l1.143-3.527 1.143 3.527h3.891zM30.281 4.687c-7.708 0-13.884-4.4-13.945-4.443l-0.336-0.243-0.336 0.243c-0.061 0.043-6.238 4.443-13.945 4.443h-0.571v6.259c0 15.715 13.65 21.054 14.853 21.054s14.853-5.34 14.853-21.054v-6.26h-0.571zM29.71 10.946c0 14.716-12.345 19.828-13.71 19.916-1.365-0.087-13.71-5.201-13.71-19.916v-5.129c6.869-0.178 12.32-3.498 13.71-4.423 1.39 0.925 6.841 4.245 13.71 4.423v5.129z"></path>
</svg>
