<!-- Generated by IcoMoon.io -->
<svg version="1.1" xmlns="http://www.w3.org/2000/svg" width="32" height="32" viewBox="0 0 32 32">
<title>signpost</title>
<path d="M31.656 7.776l-3.991-3.991c-0.103-0.103-0.241-0.172-0.413-0.172h-9.703v-1.72c0-0.963-0.757-1.72-1.72-1.72s-1.72 0.757-1.72 1.72v1.72h-7.432c-0.619 0-1.135 0.516-1.135 1.135v6.847c0 0.619 0.516 1.135 1.135 1.135h7.432v2.271h-9.703c-0.172 0-0.31 0.069-0.413 0.172l-3.991 4.026c-0.103 0.103-0.172 0.241-0.172 0.413s0.069 0.31 0.172 0.413l3.991 3.991c0.103 0.103 0.241 0.172 0.413 0.172h9.703v7.983h1.135v-7.983h1.135v7.983h1.135v-7.983h7.432c0.619 0 1.135-0.516 1.135-1.135v-6.882c0-0.619-0.516-1.135-1.135-1.135h-7.398v-2.271h9.703c0.172 0 0.31-0.069 0.413-0.172l3.991-3.991c0.103-0.103 0.172-0.241 0.172-0.413s-0.069-0.31-0.172-0.413zM15.243 1.892c0-0.31 0.241-0.585 0.585-0.585s0.585 0.241 0.585 0.585v1.72h-1.135v-1.72zM24.981 16.172v6.847h-20.335l-3.441-3.441 3.441-3.441h20.335zM15.243 15.037v-2.271h1.135v2.271h-1.135zM27.011 11.596h-20.335v-6.847h20.335l3.441 3.441-3.441 3.406z"></path>
</svg>
