<!-- Generated by IcoMoon.io -->
<svg version="1.1" xmlns="http://www.w3.org/2000/svg" width="32" height="32" viewBox="0 0 32 32">
<title>slider</title>
<path d="M0.533 4.711h22.933v2.311c0 0.711 0.533 1.067 1.067 1.067h1.067c0.711 0 1.067-0.533 1.067-1.067v-2.311h4.622c0.355 0 0.533-0.178 0.533-0.533s-0.178-0.533-0.533-0.533h-4.622v-2.489c0-0.711-0.533-1.067-1.067-1.067h-1.067c-0.711 0-1.067 0.533-1.067 1.067v2.311h-22.933c-0.355 0-0.533 0.356-0.533 0.711 0 0.178 0.178 0.533 0.533 0.533zM24.533 1.156h1.067v5.689h-1.067v-5.689zM31.467 15.556h-22.933v-2.311c0-0.711-0.533-1.067-1.067-1.067h-1.244c-0.533 0-1.067 0.355-1.067 1.067v2.311h-4.622c-0.355 0-0.533 0.178-0.533 0.533s0.178 0.533 0.533 0.533h4.622v2.311c0 0.711 0.533 1.067 1.067 1.067h1.067c0.711 0 1.067-0.533 1.067-1.067v-2.311h22.933c0.533 0 0.711-0.178 0.711-0.533s-0.178-0.533-0.533-0.533zM7.467 18.933h-1.244v-5.689h1.067l0.178 5.689zM31.467 27.467h-11.378v-2.311c0-0.711-0.533-1.067-1.067-1.067h-1.244c-0.711 0-1.067 0.533-1.067 1.067v2.311h-16c-0.355 0-0.533 0.178-0.533 0.533s0.178 0.533 0.533 0.533h16v2.311c0 0.711 0.533 1.067 1.067 1.067h1.067c0.711 0 1.067-0.533 1.067-1.067v-2.311h11.378c0.355 0 0.533-0.178 0.533-0.533 0.178-0.178 0-0.533-0.355-0.533zM18.844 31.022h-1.067v-5.689h1.067v5.689z"></path>
</svg>
