<!-- Generated by IcoMoon.io -->
<svg version="1.1" xmlns="http://www.w3.org/2000/svg" width="32" height="32" viewBox="0 0 32 32">
<title>sp</title>
<path d="M26.267 30.667h-20.533c-2.493 0-4.4-1.907-4.4-4.4v-20.533c0-2.493 1.907-4.4 4.4-4.4h20.533c2.493 0 4.4 1.907 4.4 4.4v20.533c0 2.347-2.053 4.4-4.4 4.4zM5.733 3.093c-1.467 0-2.64 1.173-2.64 2.64v20.533c0 1.467 1.173 2.64 2.64 2.64h20.533c1.467 0 2.64-1.173 2.64-2.64v-20.533c0-1.467-1.173-2.64-2.64-2.64h-20.533zM9.107 17.32c0 1.467 1.173 1.907 2.347 1.907 0.88 0 2.053-0.293 2.053-1.32 0-1.173-1.613-1.32-3.227-1.76-1.467-0.44-3.080-1.027-3.080-2.933 0-2.2 2.053-3.227 3.96-3.227 2.2 0 4.253 1.027 4.253 3.373h-2.2c-0.147-1.32-1.027-1.613-2.2-1.613-0.733 0-1.613 0.293-1.613 1.173s0.44 0.88 3.227 1.613c0.733 0.147 3.227 0.733 3.227 3.080 0 1.907-1.467 3.373-4.4 3.373-2.347 0-4.547-1.173-4.547-3.813h2.2zM17.173 10.133h4.84c2.64 0 3.667 1.613 3.667 3.373s-1.027 3.373-3.667 3.373h-2.493v3.813h-2.347v-10.56zM19.52 15.12h1.76c1.027 0 2.053-0.293 2.053-1.613s-1.027-1.613-2.053-1.613h-1.76v3.227z"></path>
</svg>
