<!-- Generated by IcoMoon.io -->
<svg version="1.1" xmlns="http://www.w3.org/2000/svg" width="32" height="32" viewBox="0 0 32 32">
<title>spinner</title>
<path d="M16 32c4.275 0 8.294-1.663 11.312-4.688 3.025-3.025 4.688-7.037 4.688-11.312 0-3.025-0.85-5.975-2.456-8.519-1.563-2.475-3.769-4.481-6.387-5.787l-1.344 2.675c2.125 1.062 3.919 2.694 5.194 4.706 1.306 2.075 1.994 4.469 1.994 6.925 0 7.169-5.831 13-13 13s-13-5.831-13-13c0-2.456 0.687-4.85 1.994-6.919 1.269-2.019 3.069-3.644 5.194-4.713l-1.344-2.681c-2.612 1.313-4.825 3.312-6.387 5.794-1.606 2.544-2.456 5.494-2.456 8.519 0 4.275 1.663 8.294 4.688 11.312 3.019 3.025 7.037 4.688 11.312 4.688z"></path>
</svg>
