<!-- Generated by IcoMoon.io -->
<svg version="1.1" xmlns="http://www.w3.org/2000/svg" width="32" height="32" viewBox="0 0 32 32">
<title>success-alt</title>
<path d="M16 0.889c-8.419 0-15.111 6.692-15.111 15.111s6.692 15.111 15.111 15.111 15.111-6.692 15.111-15.111-6.692-15.111-15.111-15.111zM25.283 13.841l-10.578 9.714c-0.432 0.432-0.864 0.648-1.511 0.648s-1.079-0.216-1.511-0.648l-4.965-4.965c-0.864-0.863-0.864-2.159 0-3.022s2.159-0.864 3.022 0l3.454 3.454 9.283-8.419c0.863-0.864 2.159-0.648 3.022 0.216s0.648 2.159-0.216 3.022z"></path>
</svg>
