<!-- Generated by IcoMoon.io -->
<svg version="1.1" xmlns="http://www.w3.org/2000/svg" width="32" height="32" viewBox="0 0 32 32">
<title>terminal</title>
<path d="M13.469 13.599c0.145-0.104 0.246-0.265 0.246-0.457 0-0.212-0.121-0.39-0.293-0.488l0.005-0.008-8-4.571-0.005 0.008c-0.083-0.048-0.175-0.083-0.279-0.083-0.316 0-0.571 0.256-0.571 0.571 0 0.212 0.121 0.39 0.293 0.488l-0.005 0.008 7.226 4.129-7.274 5.196 0.006 0.009c-0.145 0.103-0.246 0.265-0.246 0.456 0 0.316 0.255 0.571 0.571 0.571 0.124 0 0.233-0.048 0.326-0.115l0.006 0.009 8-5.714-0.006-0.009zM18.286 19.429h-5.714c-0.316 0-0.571 0.255-0.571 0.571s0.255 0.571 0.571 0.571h5.714c0.316 0 0.571-0.255 0.571-0.571s-0.255-0.571-0.571-0.571zM29.714 3.429h-27.429c-1.262 0-2.286 1.023-2.286 2.286v20.571c0 1.262 1.023 2.286 2.286 2.286h27.429c1.262 0 2.286-1.023 2.286-2.286v-20.571c0-1.262-1.023-2.286-2.286-2.286zM30.857 26.286c0 0.631-0.512 1.143-1.143 1.143h-27.429c-0.631 0-1.143-0.512-1.143-1.143v-20.571c0-0.631 0.512-1.143 1.143-1.143h27.429c0.631 0 1.143 0.512 1.143 1.143v20.571z"></path>
</svg>
