<!-- Generated by IcoMoon.io -->
<svg version="1.1" xmlns="http://www.w3.org/2000/svg" width="32" height="32" viewBox="0 0 32 32">
<title>thumb</title>
<path d="M30.72 23.36c-0.16-0.8-0.48-1.44-0.8-1.76 0.96-0.96 0.96-2.24 0.96-3.040 0-1.44-0.48-2.56-1.76-3.2 0.48-1.6 0-2.72-0.96-3.2-1.44-0.64-3.040-0.48-4.96 0-1.6 0.32-3.36 0.64-4.8 0.48-0.96-0.16-1.28-0.48-1.28-0.48-0.16-0.32 0.32-1.28 0.8-2.080 0.8-1.44 1.76-3.36 1.76-5.44 0-2.88-1.76-4.64-3.52-4.64-1.12 0-2.080 0.8-2.080 2.4 0 2.72-1.44 4.32-5.92 8.96-1.92 1.92-2.72 3.36-3.2 4.32-0.64 1.28-1.6 1.6-3.2 1.6v0c-0.32 0-0.64 0.32-0.64 0.64s0.32 0.64 0.64 0.64v0 0c2.24-0.32 3.36-0.96 4.16-2.56 0.48-0.96 1.12-2.24 3.040-4 4.64-4.64 6.24-6.4 6.24-9.76 0-0.64 0.32-1.12 0.96-1.12 0.96 0 2.4 1.12 2.4 3.52 0 1.76-0.96 3.52-1.6 4.8s-1.28 2.24-0.8 3.2c0.32 0.8 1.44 1.12 2.24 1.12 1.6 0.32 3.52-0.16 5.12-0.48 1.76-0.32 3.2-0.8 4-0.16 1.28 0.96 0.48 2.88 0.48 2.88s1.76 0.32 1.76 2.56c0 0.8 0 1.76-0.96 2.4l-0.64 0.64 0.8 0.48c0 0 0.64 0.48 0.8 1.44 0.16 0.8-0.64 1.92-1.6 3.040l-0.16 0.32 0.16 0.32c0 0 0.8 0.8 0.32 1.6s-2.4 2.080-8.64 2.080c-5.92 0-8.32-0.32-10.56-1.12-1.92-0.64-3.68-1.12-7.52-1.12v0c-0.32 0-0.64 0.16-0.64 0.48s0.32 0.48 0.48 0.64v0c3.68 0 5.44 0.32 7.2 0.96 2.24 0.8 4.64 1.28 10.88 1.28 5.12 0 8.64-0.8 9.6-2.72 0.64-1.12-0.16-1.76-0.32-2.24 1.28-1.44 2.080-2.56 1.76-3.68z"></path>
</svg>
