<!-- Generated by IcoMoon.io -->
<svg version="1.1" xmlns="http://www.w3.org/2000/svg" width="32" height="32" viewBox="0 0 32 32">
<title>timer</title>
<path d="M17.616 17.617c0.893-0.893 0.893-2.34 0-3.233-1.616-1.616-9.698-6.465-9.698-6.465s4.849 8.081 6.466 9.698c0.892 0.893 2.339 0.893 3.232 0zM16 0c-0.316 0-0.571 0.256-0.571 0.571v6.857c0 0.316 0.255 0.571 0.571 0.571s0.571-0.255 0.571-0.571v-6.257c7.938 0.302 14.286 6.815 14.286 14.828 0 8.205-6.652 14.857-14.857 14.857s-14.857-6.652-14.857-14.857c0-4.103 1.663-7.817 4.351-10.506l-0.001-0.001c0.103-0.103 0.167-0.246 0.167-0.404 0-0.316-0.255-0.571-0.571-0.571-0.161 0-0.306 0.068-0.41 0.176-2.891 2.895-4.679 6.891-4.679 11.306 0 8.837 7.163 16 16 16s16-7.163 16-16c0-8.837-7.163-16-16-16z"></path>
</svg>
