<!-- Generated by IcoMoon.io -->
<svg version="1.1" xmlns="http://www.w3.org/2000/svg" width="32" height="32" viewBox="0 0 32 32">
<title>twitter</title>
<path d="M27.524 1.333h-23.048c-1.735 0-3.143 1.408-3.143 3.143v23.048c0 1.735 1.408 3.143 3.143 3.143h23.048c1.735 0 3.143-1.408 3.143-3.143v-23.048c0-1.735-1.408-3.143-3.143-3.143zM24.322 11.731c0.013 0.183 0.013 0.373 0.013 0.557 0 5.677-4.321 12.218-12.218 12.218-2.436 0-4.695-0.707-6.593-1.925 0.347 0.039 0.681 0.052 1.035 0.052 2.010 0 3.857-0.681 5.33-1.833-1.886-0.039-3.47-1.277-4.014-2.979 0.661 0.098 1.257 0.098 1.938-0.079-1.964-0.399-3.438-2.128-3.438-4.217v-0.052c0.57 0.321 1.237 0.517 1.938 0.543-1.159-0.779-1.912-2.086-1.912-3.568 0-0.002 0-0.005 0-0.007v0c0-0.799 0.21-1.532 0.583-2.167 2.115 2.606 5.29 4.308 8.852 4.492-0.609-2.914 1.571-5.277 4.191-5.277 1.238 0 2.351 0.517 3.136 1.355 0.969-0.183 1.899-0.543 2.724-1.034-0.321 0.995-0.995 1.833-1.886 2.364 0.864-0.092 1.702-0.334 2.475-0.668-0.583 0.858-1.316 1.617-2.154 2.226z"></path>
</svg>
