<!-- Generated by IcoMoon.io -->
<svg version="1.1" xmlns="http://www.w3.org/2000/svg" width="32" height="32" viewBox="0 0 32 32">
<title>undo</title>
<path d="M16 5.149c-0.184 0-0.184 0-0.368 0v-4.598c0-0.368-0.184-0.552-0.552-0.552 0 0-0.184 0-0.184 0.184v0l-8.092 4.966c-0.184 0.184-0.184 0.368-0.184 0.552s0.184 0.368 0.184 0.552v0l7.908 5.149c0 0 0.184 0.184 0.368 0.184 0.368 0 0.552-0.184 0.552-0.552v-4.782c0.184 0 0.184 0 0.368 0 6.805 0 12.322 5.517 12.322 12.322s-5.517 12.322-12.322 12.322-12.322-5.517-12.322-12.322c0-0.368-0.184-0.552-0.552-0.552s-0.552 0.184-0.552 0.552c0 7.356 6.069 13.425 13.425 13.425s13.425-6.069 13.425-13.425c0-7.356-6.069-13.425-13.425-13.425z"></path>
</svg>
