<!-- Generated by IcoMoon.io -->
<svg version="1.1" xmlns="http://www.w3.org/2000/svg" width="32" height="32" viewBox="0 0 32 32">
<title>unlink</title>
<path d="M7.792 26.835c-0.326 0.006-0.641-0.107-0.892-0.321-0.575-0.491-0.647-1.349-0.162-1.915l16.101-18.435c0.494-0.575 1.355-0.644 1.921-0.162 0.575 0.491 0.647 1.349 0.162 1.915l-16.101 18.435c-0.237 0.277-0.569 0.448-0.93 0.479-0.032 0-0.066 0.003-0.098 0.003v0zM31.995 22.251c-0.014-0.419-0.061-0.838-0.136-1.251-0.358-1.964-1.392-3.743-2.917-5.014l-4.797-3.994-1.944 2.233 4.838 4.026c0.994 0.829 1.666 1.993 1.9 3.272 0.162 0.881 0.113 1.799-0.147 2.657-0.315 1.040-0.858 1.924-1.736 2.576-0.884 0.656-1.958 1.031-3.059 1.072-0.066 0.003-0.133 0.003-0.199 0.003-0.017 0-0.032 0-0.049 0-1.282-0.012-2.527-0.479-3.5-1.32l-4.994-4.309-1.944 2.233 4.999 4.315c1.508 1.297 3.431 2.022 5.415 2.039 0.026 0 0.052 0 0.075 0 2.207 0 4.22-0.875 5.843-2.339 0.814-0.736 1.398-1.805 1.788-2.822 0.413-1.074 0.604-2.227 0.563-3.376zM4.999 13.737c-0.999-0.82-1.687-1.978-1.932-3.255-0.173-0.898-0.127-1.854 0.121-2.735 0.266-0.939 0.783-1.658 1.519-2.284 0.985-0.835 2.25-1.297 3.541-1.297 1.282 0 2.53 0.459 3.512 1.288l5.046 4.277 1.944-2.233-5.066-4.298c-1.522-1.282-3.451-1.99-5.433-1.99-2.204 0-4.243 0.869-5.848 2.354-0.407 0.375-0.751 0.76-1.051 1.225l-0.003 0.006c-1.187 1.854-1.609 4.069-1.193 6.241 0.375 1.955 1.427 3.726 2.96 4.985l4.797 3.922 1.944-2.233-4.858-3.974z"></path>
</svg>
