<!-- Generated by IcoMoon.io -->
<svg version="1.1" xmlns="http://www.w3.org/2000/svg" width="32" height="32" viewBox="0 0 32 32">
<title>user_directory</title>
<path d="M29.55 0h-23.579c-1.347 0-2.526 1.179-2.526 2.695v5.389h-2.695c-0.337-0.168-0.674 0.168-0.674 0.505s0.337 0.674 0.674 0.674h2.695v5.558h-2.695c-0.337 0-0.674 0.337-0.674 0.674s0.337 0.674 0.674 0.674h2.695v5.726h-2.695c-0.337 0-0.674 0.337-0.674 0.674s0.337 0.674 0.674 0.674h2.695v6.063c0 1.516 1.179 2.695 2.526 2.695h23.41c1.516 0 2.526-1.179 2.526-2.695v-26.61c0.168-1.516-1.011-2.695-2.358-2.695zM30.729 29.305c0 0.674-0.505 1.347-1.347 1.347h-23.41c-0.674 0-1.347-0.674-1.347-1.347v-6.063h2.695c0.337 0 0.674-0.337 0.674-0.674s-0.337-0.674-0.674-0.674h-2.695v-5.726h2.695c0.337 0 0.674-0.337 0.674-0.674s-0.337-0.674-0.674-0.674h-2.695v-5.558h2.695c0.337 0 0.674-0.337 0.674-0.674s-0.337-0.674-0.674-0.674h-2.695v-5.221c0-0.674 0.505-1.347 1.347-1.347h23.41c0.674 0 1.347 0.674 1.347 1.347 0 0 0 26.61 0 26.61zM27.697 25.095c0-2.526-2.021-3.537-3.368-4.042-0.337-0.168-0.674-0.337-1.011-0.505-0.168-0.168-0.505-0.337-0.674-0.337v0c-0.842-0.505-1.179-0.674-1.179-2.021 0-1.684 1.347-2.695 1.347-2.863v0l0.168-0.168c0.505-1.011 0.337-1.853 0.168-2.358 1.011-2.358-0.168-4.379-0.505-4.884-0.674-2.021-2.189-2.526-3.368-2.526-1.347 0-2.526 0.674-2.526 0.674-1.179 0.337-2.021 1.179-2.526 2.358-0.674 1.684 0 3.705 0.168 4.211-0.505 1.516 0.168 2.358 0.168 2.526h0.168c0 0 1.347 1.179 1.347 2.863s-0.842 2.021-2.021 2.358h-0.168c-1.347 0.505-4.211 1.516-4.211 4.547v0.505h18.189l-0.168-0.337zM17.255 18.021c0-2.021-1.347-3.368-1.684-3.705-0.168-0.168-0.337-0.674 0-1.516l0.168-0.168-0.168-0.168c0 0-0.842-2.021-0.168-3.705 0.337-0.842 1.011-1.516 2.021-1.853 0 0 1.011-0.505 2.189-0.505s2.021 0.674 2.358 1.853v0 0.168c0.168 0.168 1.347 1.853 0.337 4.042l-0.168 0.337 0.168 0.337c0 0 0.337 0.674 0 1.347-0.505 0.337-1.684 1.684-1.684 3.705 0 1.853 0.674 2.358 1.684 3.032 0.168 0.168 0.337 0.168 0.674 0.337s0.674 0.337 1.179 0.674c1.179 0.505 2.358 1.011 2.695 2.526h-16.168c0.337-2.021 2.358-2.526 3.537-3.032h0.168c1.179-0.674 2.863-1.179 2.863-3.705z"></path>
</svg>
