<!-- Generated by IcoMoon.io -->
<svg version="1.1" xmlns="http://www.w3.org/2000/svg" width="32" height="32" viewBox="0 0 32 32">
<title>users</title>
<path d="M2.507 20.633c0.238-0.15 0.49-0.308 0.754-0.485 0.341-0.227 0.64-0.385 0.903-0.524 0.74-0.391 1.554-0.878 1.554-2.425 0-1.586-0.238-1.72-0.655-2.415-0.254-0.423-0.508-1.299-0.508-2.382 0-1.484 0.428-3.255 2.127-3.255s2.467 1.77 2.467 3.255c0 1.083-0.183 1.96-0.438 2.382-0.417 0.695-0.726 0.829-0.726 2.415 0 1.113 0.311 1.656 0.786 2.019 0.488-0.176 0.575-0.266 1.129-0.411-0.646-0.596-0.773-0.653-0.773-1.608 0-2.798 1.164-1.999 1.164-4.797 0.001-4.398-3.209-4.398-3.609-4.398s-3.27 0-3.27 4.397c0 2.798 1.164 1.999 1.164 4.797 0.001 1.2-0.578 1.086-1.948 1.999-1.941 1.292-2.628 1.599-2.628 4.797h3.335c0.15-0.404 0.339-0.781 0.553-1.142h-2.675c0.18-1.161 0.154-1.504 1.294-2.22zM23.415 20.569c-3.427-1.713-4.569-1.142-4.569-2.855 0-3.998 1.713-2.855 1.713-6.853 0-6.282-3.998-6.282-4.569-6.282s-4.569 0-4.569 6.282c0 3.998 1.713 2.855 1.713 6.853 0 1.713-1.142 1.142-4.569 2.855-2.978 1.489-4.569 2.284-4.569 6.853h23.986c0-4.569-1.59-5.364-4.569-6.853zM5.178 26.28c0.215-2.848 1.344-3.412 3.899-4.689 1.163-0.583 2.028-0.878 2.723-1.115 1.275-0.436 2.477-0.848 2.477-2.762 0-2.315-0.541-3.218-1.019-4.014-0.388-0.646-0.694-1.156-0.694-2.839 0-4.472 2.147-5.14 3.427-5.14s3.427 0.668 3.427 5.14c0 1.683-0.306 2.193-0.694 2.839-0.478 0.796-1.019 1.699-1.019 4.014 0 1.914 1.203 2.325 2.477 2.762 0.695 0.238 1.559 0.533 2.723 1.115 2.556 1.277 3.684 1.842 3.899 4.689h-21.625zM29.373 19.198c-1.371-0.914-1.949-0.799-1.949-1.999 0-2.798 1.164-1.999 1.164-4.797 0-4.397-2.87-4.397-3.27-4.397s-3.609 0-3.609 4.397c0 2.798 1.164 1.999 1.164 4.797 0 0.955-0.127 1.012-0.773 1.608 0.554 0.145 0.641 0.235 1.129 0.411 0.476-0.363 0.786-0.906 0.786-2.019 0-1.586-0.31-1.72-0.726-2.415-0.254-0.423-0.438-1.299-0.438-2.382 0-1.485 0.767-3.255 2.467-3.255s2.128 1.77 2.128 3.255c0 1.083-0.255 1.96-0.509 2.382-0.417 0.695-0.655 0.829-0.655 2.415 0 1.547 0.814 2.034 1.555 2.425 0.263 0.139 0.561 0.297 0.902 0.524 0.265 0.176 0.516 0.335 0.754 0.485 1.14 0.717 1.114 1.059 1.294 2.22h-2.675c0.214 0.362 0.403 0.738 0.553 1.142h3.335c-0.001-3.199-0.688-3.505-2.627-4.798z"></path>
</svg>
