<!-- Generated by IcoMoon.io -->
<svg version="1.1" xmlns="http://www.w3.org/2000/svg" width="32" height="32" viewBox="0 0 32 32">
<title>user</title>
<path d="M30.576 31.33c0-4.021-3.016-5.361-5.361-6.366-0.67-0.335-1.173-0.503-1.675-0.838-0.335-0.335-0.67-0.503-1.005-0.67-1.34-0.838-2.010-1.173-2.010-3.351 0-2.848 2.346-4.691 2.346-4.691l0.335-0.168v-0.168c0.838-1.675 0.335-3.016 0.168-3.686 1.675-3.853-0.335-7.037-0.838-7.539-1.173-3.183-3.518-3.853-5.361-3.853-2.178 0-4.021 1.005-4.021 1.005-2.010 0.838-3.351 2.010-4.188 3.686-1.173 2.848-0.168 5.864 0.335 6.702-0.838 2.346 0.168 3.686 0.168 3.853l0.168 0.168c0 0 2.346 1.843 2.346 4.691s-1.508 3.351-3.518 4.021l-0.335 0.168c-2.178 0.67-6.702 2.178-6.702 7.037v0.67h29.152v-0.67zM2.764 30.66c0.335-3.518 3.853-4.524 5.864-5.194l0.335-0.168c2.010-0.67 4.356-1.508 4.356-5.194 0-3.183-2.346-5.361-2.848-5.696-0.168-0.335-0.503-1.173 0.168-2.681l0.168-0.335-0.168-0.168c0 0-1.508-3.183-0.335-6.031 0.503-1.34 1.675-2.346 3.351-3.016 0 0 1.675-0.838 3.518-0.838 2.010 0 3.351 1.005 4.188 3.183v0.335c0 0 2.346 3.016 0.67 6.534l-0.168 0.335 0.168 0.335c0 0 0.67 1.173 0 2.513-0.503 0.503-2.848 2.513-2.848 5.696 0 2.848 1.005 3.686 2.513 4.524 0.335 0.168 0.67 0.335 1.005 0.67 0.503 0.335 1.173 0.67 1.843 1.005 2.010 0.838 4.021 1.843 4.524 4.524h-26.304z"></path>
</svg>
