<?xml version="1.0" encoding="UTF-8"?>
<svg width="22px" height="18px" viewBox="0 0 22 18" version="1.1" xmlns="http://www.w3.org/2000/svg" xmlns:xlink="http://www.w3.org/1999/xlink">
    <title>Icons / Custom Material / verify </title>
    <g id="Hero-Chart" stroke="none" stroke-width="1" fill="none" fill-rule="evenodd">
        <g id="Dashboard-–-Verify" transform="translate(-251.000000, -579.000000)" fill="#000000" fill-rule="nonzero">
            <g id="Group" transform="translate(251.000000, 577.000000)">
                <g id="card-account-details-star-outline" transform="translate(0.000000, 2.000000)">
                    <path d="M12.9066667,16.2 L1.83333333,16.2 C0.834166667,16.164 0.0366666667,15.381 0,14.4 L0,1.8 C0.0366666667,0.819 0.834166667,0.036 1.83333333,0 L20.1666667,0 C21.1658333,0.036 21.9633333,0.819 22,1.8 L22,11.277 C21.4683333,10.8 20.8541667,10.449 20.1666667,10.206 L20.1666667,1.8 L1.83333333,1.8 L1.83333333,14.4 L12.9066667,14.4 C12.8608333,14.697 12.8333333,14.994 12.8333333,15.3 C12.8333333,15.606 12.8608333,15.912 12.9066667,16.2 M12.8333333,12.6 L3.66666667,12.6 L3.66666667,11.475 C3.66666667,9.981 6.72833333,9.225 8.25,9.225 C9.77166667,9.225 12.8333333,9.981 12.8333333,11.475 L12.8333333,12.6 M12.8333333,7.2 L16.5,7.2 L16.5,8.1 L12.8333333,8.1 L12.8333333,7.2 M8.25,3.6 C6.99416667,3.6 5.95833333,4.617 5.95833333,5.85 C5.95833333,7.083 6.99416667,8.1 8.25,8.1 C9.50583333,8.1 10.5416667,7.083 10.5416667,5.85 C10.5416667,4.617 9.50583333,3.6 8.25,3.6 M12.8333333,5.4 L18.3333333,5.4 L18.3333333,6.3 L12.8333333,6.3 L12.8333333,5.4 M20.4783333,12.456 L21.5416667,13.725 L17.1875,18 L14.6666667,15.3 L15.73,14.256 L17.1875,15.687 L20.4783333,12.456 Z M18.3333333,3.6 L18.3333333,4.5 L12.8333333,4.5 L12.8333333,3.6 L18.3333333,3.6 Z" id="Shape"></path>
                </g>
            </g>
        </g>
    </g>
</svg>