<!-- Generated by IcoMoon.io -->
<svg version="1.1" xmlns="http://www.w3.org/2000/svg" width="32" height="32" viewBox="0 0 32 32">
<title>view-hidden</title>
<path d="M29.734 1.14l1.126 1.126-28.706 28.706-1.126-1.126 28.706-28.706zM18.866 13.134c0-1.592-1.274-2.866-2.866-2.866s-2.866 1.274-2.866 2.866 1.274 2.866 2.866 2.866l2.866-2.866zM19.184 19.184l-1.91 1.91c3.343-0.637 5.891-3.184 6.368-6.368l-1.91 1.91c-0.318 0.955-1.274 1.91-2.547 2.547zM9.154 13.134c0-1.274 0.318-2.388 0.955-3.343 1.91-0.637 3.98-1.114 5.891-1.114s3.98 0.478 5.891 1.114c0 0 0 0.159 0.159 0.159l0.955-0.955c-0.159 0-0.159 0-0.318-0.159v0h-0.159c-2.070-0.796-4.458-1.433-6.527-1.433s-4.458 0.637-6.527 1.433h-0.159c-5.095 2.070-9.234 5.572-9.234 7.164s3.98 4.935 8.915 7.005l0.796-0.796c-4.617-1.751-8.597-4.935-8.597-6.050s3.184-3.821 7.164-5.572c-0.159 0.637-0.318 1.592-0.318 2.547 0 2.866 1.592 5.413 3.98 6.846l0.796-0.796c-2.070-1.114-3.662-3.343-3.662-6.050zM27.144 11.224l-0.796 0.796c2.547 1.592 4.299 3.184 4.299 3.98 0 1.751-7.801 7.323-14.647 7.323-0.318 0-0.637 0-0.955 0l-0.955 0.955c0.637 0.159 1.274 0.159 2.070 0.159 7.323 0 15.92-6.209 15.92-8.597-0.159-0.955-2.070-2.866-4.935-4.617z"></path>
</svg>
