<!-- Generated by IcoMoon.io -->
<svg version="1.1" xmlns="http://www.w3.org/2000/svg" width="32" height="32" viewBox="0 0 32 32">
<title>view</title>
<path d="M22.743 8.857c0 0 0 0 0 0-0.057 0-0.114-0.057-0.171-0.057-2.114-0.8-4.4-1.371-6.571-1.371s-4.457 0.571-6.571 1.371c-0.057 0-0.114 0.057-0.171 0.057 0 0 0 0 0 0-5.086 2-9.257 5.543-9.257 7.143 0 2.286 8.571 8.571 16 8.571s16-6.286 16-8.571c0-1.6-4.171-5.143-9.257-7.143zM10.057 9.771c1.886-0.743 3.943-1.2 5.943-1.2s4.057 0.457 5.943 1.2c0.571 0.971 0.914 2.171 0.914 3.371 0 3.771-3.086 6.857-6.857 6.857s-6.857-3.086-6.857-6.857c0-1.257 0.343-2.4 0.914-3.371zM16 23.429c-6.857 0-14.743-5.714-14.743-7.429 0-1.086 3.2-3.771 7.257-5.6-0.343 0.857-0.514 1.771-0.514 2.743 0 4.4 3.6 8 8 8s8-3.6 8-8c0-0.971-0.171-1.886-0.514-2.743 4.114 1.829 7.257 4.514 7.257 5.6 0 1.714-7.886 7.429-14.743 7.429zM16 16c1.6 0 2.857-1.257 2.857-2.857s-1.257-2.857-2.857-2.857c-1.6 0-2.857 1.257-2.857 2.857s1.257 2.857 2.857 2.857z"></path>
</svg>
