<!-- Generated by IcoMoon.io -->
<svg version="1.1" xmlns="http://www.w3.org/2000/svg" width="32" height="32" viewBox="0 0 32 32">
<title>walkthrough</title>
<path d="M9.92 18.4c-0.32-0.16-0.64 0-0.8 0.16-0.16 0.32-0.16 0.64 0.16 0.8s0.48 0.48 0.8 0.64c0.16 0.16 0.32 0.16 0.48 0.16s0.32 0 0.32-0.16 0.16-0.64 0-0.8c-0.32-0.32-0.64-0.48-0.96-0.8zM12.8 22.24c-0.16-0.32-0.32-0.64-0.48-0.96s-0.48-0.32-0.8-0.16c-0.32 0-0.48 0.32-0.32 0.64s0.32 0.64 0.48 0.96c0.16 0.16 0.32 0.32 0.48 0.32s0.16 0 0.32 0c0.32-0.16 0.48-0.48 0.32-0.8zM4.16 18.72c0.32-0.16 0.48-0.48 0.32-0.64-0.16-0.32-0.48-0.48-0.64-0.32-0.48 0.16-0.8 0.32-1.12 0.48s-0.32 0.48-0.16 0.8c0.16 0.16 0.32 0.32 0.48 0.32s0.16 0 0.32-0.16c0.16-0.32 0.48-0.48 0.8-0.48zM4.16 28.8c-0.16-0.16-0.64-0.16-0.8 0s-0.16 0.64 0 0.8c0.32 0.32 0.48 0.48 0.8 0.8 0.16 0.16 0.32 0.16 0.48 0.16s0.32 0 0.48-0.16 0.16-0.64 0-0.8c-0.48-0.32-0.64-0.64-0.96-0.8zM7.52 17.44c-0.48 0-0.8-0.16-1.12-0.16s-0.64 0.16-0.64 0.48 0.16 0.64 0.48 0.64 0.64 0 0.96 0.16v0 0c0.48 0.16 0.8-0.16 0.8-0.48 0-0.16-0.16-0.48-0.48-0.64zM1.92 26.4c-0.16-0.32-0.48-0.32-0.8-0.16s-0.32 0.48-0.16 0.8 0.48 0.64 0.8 0.96c0.16 0.16 0.32 0.16 0.48 0.16s0.32 0 0.32-0.16 0.32-0.64 0-0.8c-0.32-0.32-0.48-0.64-0.64-0.8zM0.8 21.76v0c0.32 0 0.64-0.16 0.64-0.32 0.16-0.32 0.32-0.64 0.48-0.96s0-0.64-0.16-0.8c-0.32-0.16-0.64 0-0.8 0.16-0.16 0.32-0.32 0.8-0.48 1.12-0.16 0.48 0 0.8 0.32 0.8zM1.12 24.48c0-0.16 0-0.16 0-0.32s0-0.48 0-0.8-0.16-0.64-0.48-0.64c-0.32 0.16-0.64 0.48-0.64 0.64 0 0.32 0 0.64 0 0.8s0 0.32 0 0.32c0 0.32 0.32 0.48 0.64 0.48v0c0.32 0.16 0.48-0.16 0.48-0.48zM24 21.12c-0.32 0-0.64 0.16-0.64 0.48 0 0.16 0 0.64-0.16 1.12 0 0.32 0.16 0.64 0.48 0.64v0c0.32 0 0.48-0.16 0.64-0.48 0-0.48 0.16-0.96 0.16-1.12 0.16-0.32-0.16-0.64-0.48-0.64zM19.52 11.2c0.16 0.32 0.32 0.48 0.64 0.48 0.16 0 0.32-0.16 0.32-0.32l1.28-2.24 2.4 1.28c0.16 0 0.32 0.16 0.48 0 0.32-0.16 0.48-0.32 0.48-0.64 0-0.16-0.16-0.32-0.32-0.32l-2.24-1.28 1.28-2.24c0-0.16 0.16-0.32 0-0.48-0.16-0.32-0.32-0.48-0.64-0.48-0.16 0-0.32 0.16-0.32 0.32l-1.28 2.24-2.4-1.44c-0.16 0-0.32-0.16-0.48 0-0.32 0.16-0.48 0.32-0.48 0.64 0 0.16 0.16 0.32 0.32 0.32v0l2.24 1.28-1.28 2.24c0 0.32 0 0.48 0 0.64zM13.76 24.32c-0.16-0.32-0.48-0.48-0.8-0.32s-0.48 0.48-0.32 0.8 0.32 0.64 0.48 1.12c0.16 0.16 0.32 0.32 0.48 0.32s0.16 0 0.32 0c0.32-0.16 0.48-0.48 0.32-0.8-0.16-0.48-0.32-0.8-0.48-1.12zM23.52 24.48c-0.32-0.16-0.64 0-0.64 0.32-0.16 0.32-0.16 0.64-0.32 0.96s0 0.64 0.32 0.8h0.16c0.16 0 0.48-0.16 0.48-0.32 0.16-0.32 0.32-0.8 0.48-1.12 0-0.32-0.16-0.64-0.48-0.64zM31.84 6.4c-1.6-5.6-4.8-6.24-12.16-5.28-6.4 0.8-9.28 4.8-8 10.24 1.12 4.16 4 5.76 8.64 5.28l0.48-1.12c-4.32 0.48-7.040-0.8-8-4.48-1.12-4.64 1.28-8 7.040-8.8 6.56-0.8 9.28-0.32 10.72 4.48 0.96 3.040-1.6 6.24-5.44 7.68l0.96 0.8c4.16-1.76 6.72-5.44 5.76-8.8zM26.4 17.44v0l-3.040-2.72c-0.16-0.16-0.32-0.16-0.48-0.16s-0.32 0.16-0.32 0.32v0l-1.28 3.84c0 0.16 0 0.16 0 0.32 0.16 0.32 0.32 0.48 0.64 0.48l4.48-1.12c0.32-0.16 0.48-0.32 0.48-0.64-0.32-0.16-0.32-0.32-0.48-0.32zM22.56 18.24l0.64-2.080 1.6 1.44-2.24 0.64zM15.36 27.2c-0.16-0.32-0.48-0.32-0.8-0.16s-0.32 0.48-0.16 0.8c0.32 0.32 0.48 0.64 0.8 0.96 0.16 0.16 0.32 0.16 0.32 0.16 0.16 0 0.32 0 0.48-0.16s0.16-0.64 0-0.8c-0.16-0.32-0.48-0.48-0.64-0.8zM21.44 27.52c-0.16 0.32-0.48 0.48-0.8 0.64s-0.32 0.48-0.16 0.8c0.16 0.16 0.32 0.32 0.48 0.32s0.16 0 0.32-0.16c0.32-0.16 0.64-0.48 0.96-0.8 0.16-0.16 0.16-0.64 0-0.8-0.32-0.16-0.64-0.16-0.8 0zM18.72 28.8c-0.32 0-0.64 0-0.96 0s-0.64 0.16-0.64 0.48c0 0.32 0.16 0.64 0.48 0.64 0.16 0 0.48 0 0.8 0 0.16 0 0.32 0 0.48 0 0.32 0 0.48-0.32 0.48-0.64s-0.32-0.48-0.64-0.48z"></path>
</svg>
