<!-- Generated by IcoMoon.io -->
<svg version="1.1" xmlns="http://www.w3.org/2000/svg" width="32" height="32" viewBox="0 0 32 32">
<title>wand</title>
<path d="M31.799 27.774l-18.516-18.516c-0.403-0.403-1.811 0-2.818 1.208s-1.61 2.415-1.208 2.818l18.516 18.516c0.403 0.403 1.811 0 2.818-1.208 1.208-1.006 1.61-2.415 1.208-2.818zM16.704 16.704c-0.604 0.604-1.006 1.409-0.805 1.61v0 0l-5.434-5.434c-0.201-0.201 0.201-0.805 0.805-1.61 0.805-0.604 1.409-1.006 1.61-0.805l5.434 5.434c-0.201-0.201-1.006 0.201-1.61 0.805zM18.314 15.899v0 0 0zM15.497 8.050l0.403-1.409 1.409-0.403-1.409-0.403-0.403-1.208-0.403 1.208-1.409 0.403 1.409 0.403 0.403 1.409zM22.34 8.050l0.805-3.019 3.22-1.006-3.019-0.805-1.006-3.22-0.805 3.019-3.22 1.006 3.019 0.805 1.006 3.22zM7.447 5.635l0.604-2.214 2.214-0.604-2.214-0.604-0.604-2.214-0.604 2.214-2.214 0.604 2.214 0.604 0.604 2.214zM22.742 11.27l-2.214 0.805 2.214 0.604 0.604 2.214 0.805-2.214 2.214-0.604-2.214-0.805-0.604-2.214-0.805 2.214zM10.868 21.736l-0.403 1.409-1.409 0.403 1.409 0.403 0.403 1.409 0.403-1.409 1.409-0.403-1.409-0.403-0.403-1.409zM5.233 15.497l-0.805 2.616-2.616 0.805 2.616 0.805 0.805 2.616 0.805-2.616 2.616-0.805-2.818-0.805-0.604-2.616zM2.013 10.063l1.409-0.403-1.409-0.403-0.201-1.208-0.403 1.208-1.409 0.403 1.409 0.403 0.403 1.409 0.201-1.409z"></path>
</svg>
