<!-- Generated by IcoMoon.io -->
<svg version="1.1" xmlns="http://www.w3.org/2000/svg" width="32" height="32" viewBox="0 0 32 32">
<title>welcome</title>
<path d="M13.419 13.422c0-1.45-1.128-2.739-2.739-2.739-1.45 0-2.739 1.128-2.739 2.739 0 1.45 1.128 2.739 2.739 2.739 1.45-0.161 2.739-1.289 2.739-2.739zM9.39 13.422c0-0.806 0.645-1.45 1.289-1.45 0.806 0 1.289 0.645 1.289 1.289 0 0.806-0.645 1.289-1.289 1.289-0.645 0.161-1.289-0.483-1.289-1.128zM22.12 20.028c-0.161 0-0.161 0-0.322 0.161v0c0 0-2.256 1.934-5.64 1.934s-5.64-1.934-5.64-1.934v0c-0.161 0-0.161-0.161-0.322-0.161-0.483 0-0.806 0.322-0.806 0.645s0.161 0.483 0.322 0.483v0c0.161 0.161 2.417 2.095 6.284 2.095 4.028 0 6.284-2.095 6.284-2.095v0c0.161-0.161 0.322-0.322 0.322-0.483 0.161-0.322-0.161-0.645-0.483-0.645zM21.315 10.682c-1.45 0-2.739 1.128-2.739 2.739 0 1.45 1.128 2.739 2.739 2.739 1.45 0 2.739-1.128 2.739-2.739 0-1.45-1.128-2.739-2.739-2.739zM21.315 14.711c-0.806 0-1.289-0.645-1.289-1.289 0-0.806 0.645-1.289 1.289-1.289 0.806 0 1.289 0.645 1.289 1.289 0.161 0.645-0.483 1.289-1.289 1.289zM18.092 1.336h-4.19c-9.346 0-12.569 3.223-12.569 12.569v4.19c0 9.507 3.223 12.569 12.569 12.569h4.19c9.507 0 12.569-3.223 12.569-12.569v-4.19c0.161-9.346-3.062-12.569-12.569-12.569zM29.372 18.095c0 8.701-2.578 11.28-11.28 11.28h-4.19c-8.701 0-11.28-2.578-11.28-11.28v-4.19c0-8.701 2.578-11.28 11.28-11.28h4.19c8.701 0 11.28 2.578 11.28 11.28v4.19z"></path>
</svg>
