<svg id="Layer_1" data-name="Layer 1" xmlns="http://www.w3.org/2000/svg" viewBox="0 0 401.87 88.56"><defs><style>.cls-1{fill:#263745;}</style></defs><title>ping-product-logos-all</title><path class="cls-1" d="M33.87,11.78c9.22,0,12,1,15.08,2.67,5.07,2.8,7.8,7.81,7.8,14.06,0,7.19-3.44,13-9.37,15.78-2.5,1.16-4.85,1.79-10.86,1.79h-6v20H19.57V11.78Zm-3.36,25.4h5.7c4.45,0,5.79-.56,7.26-2.81a9.62,9.62,0,0,0,1.33-5.64c0-5.07-2.73-8.11-7.34-8.11H30.51ZM72.15,15.07a6.45,6.45,0,1,1-12.89,0,6.54,6.54,0,0,1,6.55-6.49A6.4,6.4,0,0,1,72.15,15.07ZM70.89,25.14V66.08H60.44V26.79ZM85,25.07a10.17,10.17,0,0,1,1.48,5,47.47,47.47,0,0,1,4.63-3,16.57,16.57,0,0,1,7.17-1.7c4.46,0,8.36,2.33,9.61,5.78a16,16,0,0,1,.78,5.69V66.08H98.39v-26c0-4.53-.78-5.86-3.52-5.86-2.1,0-4.83,1.4-7.26,3.59V66.08H77.14v-29a28.82,28.82,0,0,0-1.4-9.38Zm69.3,5.39a10,10,0,0,1-7.35,3,24.16,24.16,0,0,1-2.73-.23,9.63,9.63,0,0,1,2.34,6.55c0,6.87-6.24,11.88-14.76,11.88a12.57,12.57,0,0,1-1.57-.08c-2.64,1.26-4.13,2.19-4.13,3.28,0,.55.62,1,1.71,1l5.63.07c6.09.07,9.3,1,12.11,3.59A11,11,0,0,1,149,68a11.33,11.33,0,0,1-3.21,8.27c-3.52,3.76-9.54,5.16-15.79,5.16-5.69,0-11.55-.93-15.14-4.29A9.4,9.4,0,0,1,111.6,70a8.08,8.08,0,0,1,.93-4.06h9.69a5.7,5.7,0,0,0-.47,2.59c0,3.2,2.66,4.91,7.5,4.91,2.65,0,4.92-.31,6.56-1.32A4.87,4.87,0,0,0,138.39,68c0-3.6-3.21-4.69-7.35-4.76l-4.45-.09c-4.68-.08-7.73-.47-9.61-1.25s-3-2.5-3-5.22.78-5,7.34-6.73c-5.78-1.48-8.59-5.16-8.59-11.1,0-8.2,6.64-13.5,16.87-13.5a29.33,29.33,0,0,1,7.19,1,20.89,20.89,0,0,0,4.92.87A12.61,12.61,0,0,0,150,23.82ZM123.23,39c0,4.06,2.51,5.69,6.18,5.69,4.13,0,6.4-2,6.4-5.69S133.47,33,129.48,33,123.23,35.23,123.23,39Z"/><path class="cls-1" d="M194.32,21.11a21.5,21.5,0,0,0-11-3C171,18.12,162.77,27,162.77,39c0,12.56,9,20.91,20.14,20.91,3.83,0,9-1,11.64-2.61l.46,7.43c-4.06,1.69-9,1.92-12.18,1.92-16.92,0-28.17-10.88-28.17-27.87,0-16.47,11.94-27.42,28.25-27.42a29.58,29.58,0,0,1,12,2.3Z"/><path class="cls-1" d="M228.85,64.14a30,30,0,0,1-12.33,2.53c-13.86,0-20.21-8.43-20.21-21.14,0-11.56,7.27-19.75,18.3-19.75,13,0,17.22,9.49,17.22,22H204a12.78,12.78,0,0,0,12.87,13,23,23,0,0,0,12-3.91Zm-4.67-21.67c0-6-3.52-10.87-9.73-10.87-7,0-9.95,5.82-10.49,10.87Z"/><path class="cls-1" d="M236.89,26.7h7v6.2H244c2.14-4.44,7.35-7.12,12.78-7.12,10.11,0,14.63,6.28,14.63,16.77v23.2h-7.2V45.53c0-9.11-2-13.55-8.27-13.93-8.19,0-11.87,6.58-11.87,16.08V65.75h-7.19Z"/><path class="cls-1" d="M299.82,32.52H289.49V53.88c0,4.52,2.75,7,6.05,7a8.91,8.91,0,0,0,4.9-1.38v6.12a22.54,22.54,0,0,1-6.13,1.08c-7.43,0-12-3.53-12-11.34V32.52h-8.81V26.7h8.81v-9l7.2-2.3V26.7h10.33Z"/><path class="cls-1" d="M304.26,26.7H311v6.05h.15c1.92-4.06,6.05-7,10.19-7a20.62,20.62,0,0,1,4.74.53v6.44a10.55,10.55,0,0,0-4-.69c-6.43,0-10.64,6.12-10.64,15.92V65.75h-7.2Z"/><path class="cls-1" d="M331.29,29.45a24.91,24.91,0,0,1,12.86-3.67c11.18,0,15.7,5.51,15.7,16.15V58.09a60.06,60.06,0,0,0,.31,7.66h-6.74V60.69h-.16a14.46,14.46,0,0,1-12.09,6c-8.43,0-14.32-3.68-14.32-12.18,0-9.8,10.72-12.86,18.15-12.86,2.83,0,4.82,0,7.65.15,0-6.74-2.45-10.18-9.65-10.18a18.37,18.37,0,0,0-11.33,4Zm21.36,17.69c-1.53,0-3.06-.15-4.59-.15-3.91,0-13.56.61-13.56,7.5,0,4.14,4,6.36,7.28,6.36,7.12,0,10.87-4.44,10.87-10.26Z"/><path class="cls-1" d="M368.35,8.32h7.19V65.75h-7.19Z"/><path class="cls-1" d="M383.71,18.27h-1.87v-1h4.84v1h-1.86v5h-1.11Zm4.4-1h1.72l1.59,4.1,1.56-4.1h1.72v6.06h-1.11V18.68h0l-1.71,4.63H391l-1.7-4.63h0v4.63h-1.11Z"/></svg>