<?xml version="1.0" encoding="UTF-8"?>
<svg width="376px" height="74px" viewBox="0 0 376 74" version="1.1" xmlns="http://www.w3.org/2000/svg" xmlns:xlink="http://www.w3.org/1999/xlink">
    <title>PingCentral-white</title>
    <g id="PingCentral-white" stroke="none" stroke-width="1" fill="none" fill-rule="evenodd">
        <g fill="#FFFFFF" fill-rule="nonzero">
            <path d="M14.87,3.78 C24.09,3.78 26.87,4.78 29.95,6.45 C35.02,9.25 37.75,14.26 37.75,20.51 C37.75,27.7 34.31,33.51 28.38,36.29 C25.88,37.45 23.53,38.08 17.52,38.08 L11.52,38.08 L11.52,58.08 L0.57,58.08 L0.57,3.78 L14.87,3.78 Z M11.51,29.18 L17.21,29.18 C21.66,29.18 23,28.62 24.47,26.37 C25.4824717,24.6713806 25.9468795,22.7020125 25.8,20.73 C25.8,15.66 23.07,12.62 18.46,12.62 L11.51,12.62 L11.51,29.18 Z M53.15,7.07 C53.2431023,9.43313057 52.035461,11.6577098 50.0030392,12.8669723 C47.9706175,14.0762349 45.4393825,14.0762349 43.4069608,12.8669723 C41.374539,11.6577098 40.1668977,9.43313057 40.26,7.07 C40.2874911,3.47369647 43.2135958,0.574395831 46.81,0.579991889 C48.5126692,0.595793808 50.1388535,1.28944184 51.3287163,2.50745593 C52.518579,3.72547001 53.1740181,5.367427 53.15,7.07 Z M51.89,17.14 L51.89,58.08 L41.44,58.08 L41.44,18.79 L51.89,17.14 Z M66,17.07 C66.9194839,18.5797216 67.4295844,20.3030342 67.48,22.07 C68.9638691,20.9810867 70.5098126,19.9793954 72.11,19.07 C74.3421083,17.9723564 76.7926974,17.3913241 79.28,17.37 C83.74,17.37 87.64,19.7 88.89,23.15 C89.4910632,24.9840965 89.7553195,26.9118124 89.67,28.84 L89.67,58.08 L79.39,58.08 L79.39,32.08 C79.39,27.55 78.61,26.22 75.87,26.22 C73.77,26.22 71.04,27.62 68.61,29.81 L68.61,58.08 L58.14,58.08 L58.14,29.08 C58.1945168,25.8974756 57.7214463,22.727903 56.74,19.7 L66,17.07 Z M135.3,22.46 C133.368884,24.4313087 130.708989,25.5169804 127.95,25.46 C127.036382,25.4350322 126.124917,25.3582421 125.22,25.23 C126.788771,27.0455673 127.623249,29.3813904 127.56,31.78 C127.56,38.65 121.32,43.66 112.8,43.66 C112.27551,43.6661162 111.751152,43.6393973 111.23,43.58 C108.59,44.84 107.1,45.77 107.1,46.86 C107.1,47.41 107.72,47.86 108.81,47.86 L114.44,47.93 C120.53,48 123.74,48.93 126.55,51.52 C128.877519,53.7111072 130.136774,56.8063207 130,60 C130.098541,63.0783843 128.939586,66.064226 126.79,68.27 C123.27,72.03 117.25,73.43 111,73.43 C105.31,73.43 99.45,72.5 95.86,69.14 C93.7841305,67.349267 92.5934772,64.7415171 92.6,62 C92.5498647,60.5886482 92.8705186,59.1888042 93.53,57.94 L103.22,57.94 C102.863402,58.7548381 102.702444,59.6418212 102.75,60.53 C102.75,63.73 105.41,65.44 110.25,65.44 C112.9,65.44 115.17,65.13 116.81,64.12 C118.342937,63.3047607 119.32591,61.7350517 119.39,60 C119.39,56.4 116.18,55.31 112.04,55.24 L107.59,55.15 C102.91,55.07 99.86,54.68 97.98,53.9 C96.1,53.12 94.98,51.4 94.98,48.68 C94.98,45.96 95.76,43.68 102.32,41.95 C96.54,40.47 93.73,36.79 93.73,30.85 C93.73,22.65 100.37,17.35 110.6,17.35 C113.028829,17.3843142 115.443989,17.7202196 117.79,18.35 C119.389289,18.835784 121.041101,19.1278726 122.71,19.22 C125.796381,19.1397417 128.746073,17.9299768 131,15.82 L135.3,22.46 Z M104.23,31 C104.23,35.06 106.74,36.69 110.41,36.69 C114.54,36.69 116.81,34.69 116.81,31 C116.81,27.31 114.47,25 110.48,25 C106.49,25 104.23,27.23 104.23,31 Z" id="Shape"></path>
            <path d="M175.32,13.11 C171.990142,11.1382632 168.189836,10.1018161 164.32,10.11 C152,10.12 143.77,19 143.77,31 C143.77,43.56 152.77,51.91 163.91,51.91 C167.74,51.91 172.91,50.91 175.55,49.3 L176.01,56.73 C171.95,58.42 167.01,58.65 163.83,58.65 C146.91,58.65 135.66,47.77 135.66,30.78 C135.66,14.31 147.6,3.36 163.91,3.36 C168.026476,3.28318142 172.113657,4.06655765 175.91,5.66 L175.32,13.11 Z" id="Path"></path>
            <path d="M209.85,56.14 C205.965148,57.8457476 201.762664,58.7080577 197.52,58.67 C183.66,58.67 177.31,50.24 177.31,37.53 C177.31,25.97 184.58,17.78 195.61,17.78 C208.61,17.78 212.83,27.27 212.83,39.78 L185,39.78 C184.940631,43.2230873 186.273254,46.5444329 188.695979,48.9916304 C191.118705,51.4388279 194.42649,52.8047625 197.87,52.78 C202.156337,52.6211066 206.312841,51.266779 209.87,48.87 L209.85,56.14 Z M205.18,34.47 C205.18,28.47 201.66,23.6 195.45,23.6 C188.45,23.6 185.5,29.42 184.96,34.47 L205.18,34.47 Z" id="Shape"></path>
            <path d="M217.89,18.7 L224.89,18.7 L224.89,24.9 L225,24.9 C227.14,20.46 232.35,17.78 237.78,17.78 C247.89,17.78 252.41,24.06 252.41,34.55 L252.41,57.75 L245.21,57.75 L245.21,37.53 C245.21,28.42 243.21,23.98 236.94,23.6 C228.75,23.6 225.07,30.18 225.07,39.68 L225.07,57.75 L217.88,57.75 L217.89,18.7 Z" id="Path"></path>
            <path d="M280.82,24.52 L270.49,24.52 L270.49,45.88 C270.49,50.4 273.24,52.88 276.54,52.88 C278.272781,52.9063096 279.975627,52.4267327 281.44,51.5 L281.44,57.62 C279.456446,58.2617581 277.393447,58.6252229 275.31,58.7 C267.88,58.7 263.31,55.17 263.31,47.36 L263.31,24.52 L254.5,24.52 L254.5,18.7 L263.31,18.7 L263.31,9.7 L270.51,7.4 L270.51,18.7 L280.84,18.7 L280.82,24.52 Z" id="Path"></path>
            <path d="M285.26,18.7 L292,18.7 L292,24.75 L292.15,24.75 C294.07,20.69 298.2,17.7497855 302.34,17.7497855 C303.935182,17.7427247 305.52582,17.9205808 307.08,18.28 L307.08,24.72 C305.803899,24.2332525 304.445427,23.998916 303.08,24.03 C296.65,24.03 292.44,30.15 292.44,39.95 L292.44,57.75 L285.24,57.75 L285.26,18.7 Z" id="Path"></path>
            <path d="M312.29,21.45 C316.162007,19.0773339 320.608945,17.8082622 325.15,17.78 C336.33,17.78 340.85,23.29 340.85,33.93 L340.85,50.09 C340.790103,52.6473296 340.893648,55.2058737 341.16,57.75 L334.42,57.75 L334.42,52.69 L334.26,52.69 C331.46784,56.56349 326.943464,58.8088379 322.17,58.69 C313.74,58.69 307.85,55.01 307.85,46.51 C307.85,36.71 318.57,33.65 326,33.65 C328.83,33.65 330.82,33.65 333.65,33.8 C333.65,27.06 331.2,23.62 324,23.62 C319.881728,23.6456072 315.891516,25.0543316 312.67,27.62 L312.29,21.45 Z M333.65,39.14 C332.12,39.14 330.59,38.99 329.06,38.99 C325.15,38.99 315.5,39.6 315.5,46.49 C315.5,50.63 319.5,52.85 322.78,52.85 C329.9,52.85 333.65,48.41 333.65,42.59 L333.65,39.14 Z" id="Shape"></path>
            <polygon id="Path" points="349.35 0.32 356.54 0.32 356.54 57.75 349.35 57.75"></polygon>
            <path d="M364.71,10.27 L362.84,10.27 L362.84,9.27 L367.68,9.27 L367.68,10.27 L365.82,10.27 L365.82,15.27 L364.71,15.27 L364.71,10.27 Z M369.11,9.27 L370.83,9.27 L372.42,13.37 L373.98,9.27 L375.7,9.27 L375.7,15.33 L374.59,15.33 L374.59,10.68 L374.59,10.68 L372.88,15.31 L372,15.31 L370.3,10.68 L370.3,10.68 L370.3,15.31 L369.19,15.31 L369.11,9.27 Z" id="Shape"></path>
        </g>
    </g>
</svg>