<svg id="Layer_1" data-name="Layer 1" xmlns="http://www.w3.org/2000/svg" viewBox="0 0 471.14 100"><defs><style>.cls-1{fill:#fff;}</style></defs><path class="cls-1" d="M19.63,4.4c12.66,0,16.52,1.29,20.72,3.65,7,3.86,10.71,10.73,10.71,19.32,0,9.87-4.72,17.81-12.87,21.67-3.43,1.6-6.65,2.46-14.91,2.46H15V79H0V4.4ZM15,39.28h7.84c6.12,0,8-.76,10-3.86,1.3-2.05,1.83-4.19,1.83-7.75,0-7-3.75-11.14-10.09-11.14H15ZM72.21,8.91a8.85,8.85,0,1,1-17.7,0,9,9,0,0,1,9-8.91A8.78,8.78,0,0,1,72.21,8.91ZM70.49,22.74V79H56.13V25Zm19.42-.1a14,14,0,0,1,2,6.86,65.49,65.49,0,0,1,6.35-4.08,22.85,22.85,0,0,1,9.86-2.33c6.12,0,11.48,3.2,13.2,7.93a22.14,22.14,0,0,1,1.07,7.82V79H108.26V43.24c0-6.21-1.08-8-4.84-8-2.88,0-6.63,1.93-10,4.93V79H79.07V39.17a39.55,39.55,0,0,0-1.93-12.88ZM185.09,30A13.69,13.69,0,0,1,175,34.12a32.4,32.4,0,0,1-3.75-.31,13.24,13.24,0,0,1,3.22,9c0,9.43-8.59,16.32-20.29,16.32A15.85,15.85,0,0,1,152,59c-3.63,1.74-5.67,3-5.67,4.51,0,.75.85,1.3,2.35,1.3l7.73.1c8.36.11,12.77,1.39,16.63,4.93,3.21,3,4.72,6.76,4.72,11.71a15.61,15.61,0,0,1-4.4,11.36c-4.83,5.16-13.1,7.08-21.68,7.08-7.82,0-15.87-1.27-20.81-5.89a12.9,12.9,0,0,1-4.5-9.78,11,11,0,0,1,1.28-5.57H141a7.73,7.73,0,0,0-.65,3.55c0,4.39,3.65,6.74,10.31,6.74,3.64,0,6.75-.41,9-1.8a6.71,6.71,0,0,0,3.54-5.58c0-5-4.41-6.45-10.09-6.55L147,75c-6.43-.1-10.61-.64-13.2-1.71s-4.18-3.44-4.18-7.18c0-3.55,1.08-6.88,10.09-9.23-7.94-2-11.81-7.09-11.81-15.26,0-11.25,9.13-18.53,23.18-18.53a40.1,40.1,0,0,1,9.87,1.37,28.92,28.92,0,0,0,6.76,1.19,17.23,17.23,0,0,0,11.38-4.73ZM142.37,41.75c0,5.57,3.45,7.82,8.49,7.82,5.68,0,8.8-2.78,8.8-7.82s-3.22-8.17-8.7-8.17S142.37,36.6,142.37,41.75Z"/><path class="cls-1" d="M212.57,5.11h11l31,73.41H243.17L235.71,60h-36l-7.47,18.51h-11ZM217.72,15,203.1,51.38h29.24Z"/><path class="cls-1" d="M292.07,33.93a28.57,28.57,0,0,0-10.72-2.32c-11.05,0-17.25,9.89-17.25,20.09,0,9.57,5.15,20.09,17.88,20.09a20.73,20.73,0,0,0,10.62-3.05l.73,8.83c-4.1,1.89-8.83,2.21-12.41,2.21-16.19,0-27.34-12.73-27.34-28.08,0-16.3,10.94-28.08,27.34-28.08a37.18,37.18,0,0,1,12,2.1Z"/><path class="cls-1" d="M332.45,33.93a28.57,28.57,0,0,0-10.72-2.32c-11.05,0-17.25,9.89-17.25,20.09,0,9.57,5.15,20.09,17.88,20.09A20.73,20.73,0,0,0,333,68.74l.74,8.83c-4.11,1.89-8.84,2.21-12.41,2.21C305.11,79.78,294,67.05,294,51.7c0-16.3,10.94-28.08,27.35-28.08a37.17,37.17,0,0,1,12,2.1Z"/><path class="cls-1" d="M379.88,76.31c-3.78,1.37-8.1,3.47-16.93,3.47-19,0-27.77-11.57-27.77-29,0-15.88,10-27.13,25.14-27.13,17.88,0,23.66,13,23.66,30.29H345.7a17.55,17.55,0,0,0,17.67,17.88c6.52,0,14.09-3.37,16.51-5.37Zm-6.41-29.76c0-8.21-4.84-14.94-13.36-14.94-9.68,0-13.67,8-14.41,14.94Z"/><path class="cls-1" d="M386.93,68a26.44,26.44,0,0,0,12.3,3.79c4.52,0,10.1-1.9,10.1-7.68,0-9.78-23.25-8.94-23.25-24,0-11.15,8.31-16.51,18.94-16.51a41.5,41.5,0,0,1,12.3,2.1l-.84,8.63c-2.21-1.37-8.1-2.74-10.41-2.74-5.05,0-9.47,2.11-9.47,6.52,0,10.94,23.24,7.78,23.24,24.93,0,11.46-9.15,16.72-18.72,16.72-5,0-10.2-.53-14.72-2.94Z"/><path class="cls-1" d="M421.52,68a26.47,26.47,0,0,0,12.31,3.79c4.52,0,10.09-1.9,10.09-7.68,0-9.78-23.24-8.94-23.24-24,0-11.15,8.31-16.51,18.93-16.51a41.51,41.51,0,0,1,12.31,2.1l-.84,8.63c-2.21-1.37-8.1-2.74-10.42-2.74-5,0-9.46,2.11-9.46,6.52,0,10.94,23.24,7.78,23.24,24.93,0,11.46-9.15,16.72-18.72,16.72-5.05,0-10.2-.53-14.72-2.94Z"/><path class="cls-1" d="M456.69,18.89a7.23,7.23,0,1,1,7.23,7.23A7.23,7.23,0,0,1,456.69,18.89Zm12.69,0a5.48,5.48,0,1,0-10.93,0,5.48,5.48,0,1,0,10.93,0Zm-8.24-4.12h3c2,0,3,.68,3,2.4a2,2,0,0,1-2.14,2.2l2.2,3.58H465.7l-2.12-3.52h-.92V23h-1.52Zm1.52,3.5H464c.9,0,1.68-.12,1.68-1.22s-.88-1.12-1.66-1.12h-1.36Z"/></svg>