<?xml version="1.0" encoding="iso-8859-1"?>
<!-- Generator: Adobe Illustrator 19.1.0, SVG Export Plug-In . SVG Version: 6.00 Build 0)  -->
<svg version="1.1" id="Layer_1" xmlns="http://www.w3.org/2000/svg" xmlns:xlink="http://www.w3.org/1999/xlink" x="0px" y="0px"
	 viewBox="0 0 1920 1080" style="enable-background:new 0 0 1920 1080;" xml:space="preserve">
<linearGradient id="SVGID_1_" gradientUnits="userSpaceOnUse" x1="1832.4462" y1="118.3064" x2="126.9083" y2="942.6718">
	<stop  offset="0" style="stop-color:#FFFFFF"/>
	<stop  offset="1" style="stop-color:#E8E7EC"/>
</linearGradient>
<rect style="fill:url(#SVGID_1_);" width="1920" height="1080"/>
<path style="fill:#273846;" d="M1829.82,152.778c-0.646,0-1.168,0.552-1.168,1.318c0,0.765,0.522,1.318,1.168,1.318
	c0.646,0,1.169-0.553,1.169-1.318C1830.989,153.33,1830.467,152.778,1829.82,152.778z M1830.201,155.017l-0.453-0.798h-0.197v0.798
	h-0.325v-1.855h0.65c0.42,0,0.647,0.154,0.647,0.544c0,0.317-0.171,0.47-0.458,0.499l0.47,0.812H1830.201z M1787.082,145.632
	c-1.475,0-2.307,1.168-2.389,3.484h4.737c-0.02-1.213-0.166-1.956-0.478-2.495C1788.599,146.015,1787.872,145.632,1787.082,145.632z
	 M1830.198,153.678c0-0.218-0.188-0.253-0.356-0.253h-0.29v0.531h0.287C1830.031,153.956,1830.198,153.928,1830.198,153.678z
	 M1776.561,145.79c-0.812,0-1.497,0.405-1.934,1.169c-0.499,0.854-0.665,1.663-0.665,3.237c0,1.304,0.082,2.272,0.416,2.923
	c0.477,0.922,1.122,1.304,2.079,1.304c0.85,0,1.328-0.203,1.994-0.719c0.436-0.338,0.624-0.81,0.624-0.81v-5.935
	C1778.556,146.173,1777.785,145.79,1776.561,145.79z M1843.928,113.591c-2.635,0-4.135,1.534-4.135,4.159
	c0,2.846,1.654,3.993,4.084,3.993c2.741,0,4.24-1.421,4.24-3.993C1848.117,115.126,1846.568,113.591,1843.928,113.591z
	 M1780.081,104.891h-4.596v11.6h3.772c2.946,0,3.825-0.384,4.804-1.97c0.624-1.036,0.879-2.133,0.879-3.94
	C1784.941,107.026,1783.133,104.891,1780.081,104.891z M1755.829,54v114h114V54H1755.829z M1799.315,96.468
	c2.326,0,4.189,2.025,4.189,4.54c0,2.516-1.915,4.542-4.293,4.542c-2.324,0-4.237-2.026-4.237-4.542
	C1794.974,98.492,1796.938,96.468,1799.315,96.468z M1802.675,108.063v28.672h-6.925v-27.522L1802.675,108.063z M1769.911,155.75
	h-1.663v-15.423h1.663V155.75z M1779.365,155.75c0,0-0.208-0.564-0.229-1.146c-0.747,0.921-1.538,1.302-2.744,1.302
	c-2.679,0-4.217-2.091-4.217-5.665c0-2.383,0.726-4.137,2.14-5.192c0.665-0.495,1.247-0.697,1.996-0.697
	c1.162,0,2.182,0.517,2.804,1.416c0,0-0.02-0.922-0.02-1.73v-3.727h1.622v11.82c0,1.932,0.081,2.966,0.311,3.619H1779.365z
	 M1791.154,150.443h-6.461v0.271c0,1.056,0.123,1.867,0.477,2.45c0.581,0.967,1.537,1.371,2.577,1.371
	c0.999,0,1.809-0.336,2.535-1.057l0.624,1.126c-0.913,0.899-2.16,1.393-3.491,1.393c-2.868,0-4.592-2.247-4.592-5.957
	c0-1.889,0.373-3.101,1.246-4.227c0.831-1.056,1.849-1.552,3.096-1.552c1.122,0,2.099,0.429,2.807,1.214
	c0.892,0.991,1.143,2.047,1.183,4.721V150.443z M1786.648,121.47c-1.654,0.821-3.207,1.259-7.185,1.259h-3.978v14.006h-7.237V98.711
	h9.458c6.099,0,7.96,0.655,9.979,1.86c3.356,1.97,5.163,5.47,5.163,9.85C1792.847,115.452,1790.576,119.501,1786.648,121.47z
	 M1800.992,155.75h-1.643v-7.577c0-1.192-0.083-1.483-0.374-1.866c-0.228-0.292-0.665-0.472-1.143-0.472
	c-0.833,0-2.12,0.721-2.868,1.574v8.342h-1.579v-8.634c0-1.597-0.394-2.361-0.394-2.361l1.578-0.472c0,0,0.376,0.83,0.376,1.754
	c1.079-1.169,2.159-1.731,3.261-1.731c1.122,0,2.12,0.653,2.536,1.641c0.166,0.405,0.25,0.854,0.25,1.304V155.75z M1807.635,145.902
	h-2.238v7.216c0,1.237,0.312,1.665,1.33,1.665c0.458,0,0.337,0.005,0.629-0.154l0.229,1.125c-0.521,0.291-0.713,0.376-1.44,0.376
	c-0.54,0-0.955-0.111-1.351-0.314c-0.726-0.382-0.997-1.102-0.997-2.226v-7.689h-1.35v-1.326h1.35v-4.242h1.663v4.242h2.673
	L1807.635,145.902z M1811.58,155.75h-1.682v-11.163l1.682-0.281V155.75z M1817.826,154.761c0.458,0,0.337,0.005,0.629-0.153
	l0.229,1.124c-0.521,0.291-0.713,0.376-1.44,0.376c-0.54,0-0.955-0.111-1.351-0.314c-0.726-0.382-0.996-1.101-0.996-2.226v-7.688
	h-1.351v-1.326h1.351v-4.243h1.663v4.243h2.598l-0.499,1.326h-2.162v7.216C1816.496,154.333,1816.808,154.761,1817.826,154.761z
	 M1815.241,116.928v19.807h-6.93v-20.299c0-2.407-0.311-4.705-0.929-6.565l6.149-1.858c0.622,1.15,0.984,2.352,0.984,3.5
	c1.033-0.768,1.912-1.424,3.05-2.079c1.395-0.764,3.205-1.201,4.754-1.201c2.947,0,5.532,1.638,6.358,4.048
	c0.362,1.039,0.517,2.241,0.517,3.992v20.462h-6.825v-18.219c0-3.172-0.515-4.101-2.325-4.101
	C1818.652,114.414,1816.843,115.4,1815.241,116.928z M1822.224,160.358l-0.478-1.191c1.012-0.343,1.542-0.841,1.984-2.06
	c-0.166-0.884-0.26-1.268-0.26-1.268c-0.124-0.719-0.686-2.901-1.039-4.024l-2.225-7.014l1.602-0.586l2.12,7.262
	c0.311,1.058,0.622,2.788,0.622,2.788h0.042c0,0,0.394-1.438,0.644-2.36l2.036-7.352h1.85l-3.553,11.6
	C1824.863,158.403,1824.031,159.886,1822.224,160.358z M1829.82,155.731c-0.851,0-1.545-0.734-1.545-1.635
	c0-0.902,0.694-1.636,1.545-1.636c0.852,0,1.545,0.734,1.545,1.636C1831.366,154.997,1830.673,155.731,1829.82,155.731z
	 M1855.252,118.296c0,4.813-4.138,8.318-9.773,8.318c-0.312,0-0.518,0-1.034-0.056c-1.756,0.878-2.738,1.534-2.738,2.298
	c0,0.383,0.411,0.658,1.136,0.658l3.724,0.055c4.029,0.054,6.148,0.71,8.011,2.518c1.549,1.531,2.275,3.446,2.275,5.964
	c0,2.352-0.673,4.157-2.122,5.796c-2.324,2.628-6.307,3.611-10.442,3.611c-3.77,0-7.649-0.655-10.025-3.009
	c-1.448-1.421-2.17-3.066-2.17-4.976c0-1.532,0.359-2.301,0.619-2.846h6.41c-0.26,0.657-0.313,1.037-0.313,1.802
	c0,2.245,1.761,3.446,4.966,3.446c1.756,0,3.256-0.215,4.34-0.929c1.033-0.656,1.704-1.694,1.704-2.844
	c0-2.515-2.117-3.283-4.86-3.337l-2.945-0.055c-3.1-0.057-5.115-0.327-6.357-0.876c-1.242-0.491-2.015-1.748-2.015-3.663
	c0-1.804,0.515-3.504,4.858-4.705c-3.825-1.041-5.685-3.612-5.685-7.769c0-5.745,4.395-9.464,11.163-9.464
	c1.499,0,2.843,0.218,4.757,0.709c1.444,0.381,2.376,0.603,3.256,0.603c1.912,0,3.876-0.876,5.48-2.41l2.894,4.651
	c-1.501,1.477-2.946,2.079-4.858,2.079c-0.673,0-1.399-0.107-1.812-0.162C1854.731,115.012,1855.252,116.436,1855.252,118.296z"/>
<g>
	<defs>
		<rect id="SVGID_2_" width="1915" height="1071"/>
	</defs>
	<clipPath id="SVGID_3_">
		<use xlink:href="#SVGID_2_"  style="overflow:visible;"/>
	</clipPath>
	<g style="clip-path:url(#SVGID_3_);">
		
			<image style="overflow:visible;" width="2000" height="1392" xlink:href="D003EAFB91020140.jpg"  transform="matrix(0.8391 0 0 0.8391 682 87)">
		</image>
	</g>
</g>
<g>
</g>
<g>
</g>
<g>
</g>
<g>
</g>
<g>
</g>
<g>
</g>
</svg>
