<?xml version="1.0" encoding="iso-8859-1"?>
<!-- Generator: Adobe Illustrator 19.1.0, SVG Export Plug-In . SVG Version: 6.00 Build 0)  -->
<svg version="1.1" id="Layer_1" xmlns="http://www.w3.org/2000/svg" xmlns:xlink="http://www.w3.org/1999/xlink" x="0px" y="0px"
	 viewBox="0 0 114 114" style="enable-background:new 0 0 114 114;" xml:space="preserve">
<path style="fill:#273846;" d="M73.82,98.778c-0.646,0-1.168,0.552-1.168,1.318c0,0.765,0.522,1.318,1.168,1.318
	c0.646,0,1.169-0.553,1.169-1.318C74.989,99.33,74.467,98.778,73.82,98.778z M74.201,101.017l-0.453-0.798h-0.196v0.798h-0.325
	v-1.855h0.65c0.42,0,0.647,0.154,0.647,0.544c0,0.317-0.171,0.47-0.458,0.499l0.47,0.812H74.201z M31.082,91.632
	c-1.475,0-2.307,1.168-2.389,3.484h4.737c-0.02-1.213-0.166-1.956-0.478-2.495C32.599,92.015,31.872,91.632,31.082,91.632z
	 M74.197,99.678c0-0.218-0.189-0.253-0.356-0.253h-0.29v0.531h0.287C74.031,99.956,74.197,99.928,74.197,99.678z M20.561,91.79
	c-0.812,0-1.497,0.405-1.934,1.169c-0.499,0.854-0.664,1.663-0.664,3.237c0,1.304,0.082,2.272,0.416,2.923
	c0.477,0.922,1.122,1.304,2.079,1.304c0.85,0,1.328-0.203,1.994-0.719c0.436-0.338,0.624-0.81,0.624-0.81v-5.935
	C22.556,92.173,21.785,91.79,20.561,91.79z M87.928,59.591c-2.635,0-4.135,1.534-4.135,4.159c0,2.846,1.654,3.993,4.084,3.993
	c2.741,0,4.24-1.421,4.24-3.993C92.117,61.126,90.568,59.591,87.928,59.591z M24.081,50.891h-4.596v11.6h3.772
	c2.946,0,3.825-0.384,4.804-1.97c0.624-1.036,0.879-2.133,0.879-3.94C28.941,53.026,27.133,50.891,24.081,50.891z M-0.171,0v114h114
	V0H-0.171z M43.315,42.468c2.326,0,4.189,2.025,4.189,4.54c0,2.516-1.915,4.542-4.293,4.542c-2.324,0-4.237-2.026-4.237-4.542
	C38.974,44.492,40.938,42.468,43.315,42.468z M46.675,54.063v28.672h-6.925V55.213L46.675,54.063z M13.911,101.75h-1.663V86.327
	h1.663V101.75z M23.366,101.75c0,0-0.208-0.564-0.229-1.146c-0.747,0.921-1.538,1.302-2.744,1.302c-2.679,0-4.217-2.091-4.217-5.665
	c0-2.383,0.726-4.137,2.14-5.192c0.665-0.495,1.247-0.697,1.996-0.697c1.162,0,2.182,0.517,2.804,1.416c0,0-0.02-0.922-0.02-1.73
	v-3.727h1.622v11.82c0,1.932,0.082,2.966,0.311,3.619H23.366z M35.154,96.443h-6.461v0.271c0,1.056,0.123,1.867,0.477,2.45
	c0.582,0.967,1.537,1.371,2.577,1.371c0.999,0,1.809-0.336,2.535-1.057l0.624,1.126c-0.913,0.899-2.16,1.393-3.491,1.393
	c-2.868,0-4.592-2.247-4.592-5.957c0-1.889,0.373-3.101,1.246-4.227c0.831-1.056,1.849-1.552,3.096-1.552
	c1.122,0,2.099,0.429,2.807,1.214c0.892,0.991,1.143,2.047,1.183,4.721V96.443z M30.648,67.47c-1.654,0.821-3.207,1.259-7.185,1.259
	h-3.978v14.006h-7.237V44.711h9.457c6.099,0,7.96,0.655,9.979,1.86c3.356,1.97,5.163,5.47,5.163,9.85
	C36.847,61.452,34.576,65.501,30.648,67.47z M44.992,101.75h-1.643v-7.577c0-1.192-0.083-1.483-0.374-1.866
	c-0.228-0.292-0.665-0.472-1.143-0.472c-0.833,0-2.119,0.721-2.868,1.574v8.342h-1.579v-8.634c0-1.597-0.394-2.361-0.394-2.361
	l1.578-0.472c0,0,0.376,0.83,0.376,1.754c1.079-1.169,2.159-1.731,3.261-1.731c1.122,0,2.12,0.653,2.536,1.641
	c0.166,0.405,0.25,0.854,0.25,1.304V101.75z M51.635,91.902h-2.238v7.216c0,1.237,0.312,1.665,1.33,1.665
	c0.458,0,0.337,0.005,0.629-0.154l0.229,1.125c-0.521,0.291-0.713,0.376-1.44,0.376c-0.54,0-0.955-0.111-1.351-0.314
	c-0.726-0.382-0.997-1.102-0.997-2.226v-7.689h-1.35v-1.326h1.35v-4.242h1.663v4.242h2.673L51.635,91.902z M55.58,101.75h-1.682
	V90.587l1.682-0.281V101.75z M61.826,100.761c0.458,0,0.337,0.005,0.629-0.153l0.229,1.124c-0.521,0.291-0.713,0.376-1.44,0.376
	c-0.54,0-0.955-0.111-1.351-0.314c-0.726-0.382-0.996-1.101-0.996-2.226V91.88h-1.351v-1.326h1.351v-4.243h1.663v4.243h2.598
	l-0.499,1.326h-2.162v7.216C60.496,100.333,60.808,100.761,61.826,100.761z M59.241,62.928v19.807h-6.93V62.436
	c0-2.407-0.311-4.705-0.929-6.565l6.149-1.858c0.622,1.15,0.984,2.352,0.984,3.5c1.033-0.768,1.912-1.424,3.05-2.079
	c1.395-0.764,3.205-1.201,4.754-1.201c2.947,0,5.532,1.638,6.358,4.048c0.362,1.039,0.517,2.241,0.517,3.992v20.462H66.37V64.516
	c0-3.172-0.515-4.101-2.325-4.101C62.652,60.414,60.843,61.4,59.241,62.928z M66.224,106.358l-0.478-1.192
	c1.012-0.343,1.542-0.841,1.984-2.06c-0.166-0.884-0.26-1.268-0.26-1.268c-0.124-0.719-0.686-2.901-1.039-4.024l-2.225-7.014
	l1.602-0.586l2.12,7.262c0.311,1.058,0.622,2.788,0.622,2.788h0.042c0,0,0.394-1.438,0.644-2.36l2.036-7.352h1.85l-3.553,11.6
	C68.863,104.403,68.031,105.886,66.224,106.358z M73.82,101.731c-0.851,0-1.545-0.734-1.545-1.635c0-0.902,0.694-1.636,1.545-1.636
	c0.852,0,1.545,0.734,1.545,1.636C75.366,100.997,74.673,101.731,73.82,101.731z M99.252,64.296c0,4.813-4.138,8.318-9.773,8.318
	c-0.312,0-0.518,0-1.034-0.056c-1.756,0.878-2.738,1.534-2.738,2.298c0,0.383,0.411,0.658,1.136,0.658l3.724,0.055
	c4.029,0.054,6.148,0.71,8.011,2.518c1.549,1.531,2.275,3.446,2.275,5.964c0,2.352-0.673,4.157-2.122,5.796
	c-2.324,2.628-6.307,3.611-10.441,3.611c-3.77,0-7.649-0.655-10.025-3.009c-1.448-1.421-2.17-3.066-2.17-4.976
	c0-1.532,0.36-2.301,0.619-2.846h6.41c-0.26,0.657-0.313,1.037-0.313,1.802c0,2.245,1.761,3.446,4.966,3.446
	c1.756,0,3.256-0.215,4.34-0.929c1.034-0.656,1.705-1.694,1.705-2.844c0-2.515-2.117-3.283-4.86-3.337l-2.946-0.055
	c-3.1-0.057-5.114-0.327-6.357-0.876c-1.242-0.491-2.015-1.748-2.015-3.663c0-1.804,0.515-3.504,4.858-4.705
	c-3.825-1.041-5.685-3.612-5.685-7.769c0-5.745,4.395-9.464,11.163-9.464c1.499,0,2.843,0.218,4.757,0.709
	c1.444,0.381,2.376,0.603,3.256,0.603c1.912,0,3.876-0.876,5.48-2.41l2.894,4.651c-1.501,1.477-2.946,2.079-4.858,2.079
	c-0.673,0-1.399-0.107-1.812-0.162C98.731,61.012,99.252,62.436,99.252,64.296z"/>
<g>
</g>
<g>
</g>
<g>
</g>
<g>
</g>
<g>
</g>
<g>
</g>
</svg>
