<?xml version="1.0" encoding="UTF-8"?>
<svg viewBox="0 0 52 52" version="1.1" xmlns="http://www.w3.org/2000/svg" xmlns:xlink="http://www.w3.org/1999/xlink">
    <!-- Generator: Sketch 48.2 (47327) - http://www.bohemiancoding.com/sketch -->
    <title>ping-logo</title>
    <desc>Created with Sketch.</desc>
    <defs></defs>
    <g id="Page-1" stroke="none" stroke-width="1" fill="none" fill-rule="evenodd">
        <g id="Logos-/-Ping-Logo">
            <g id="PIC_square_logo_PIC_red_RGB">
                <polygon id="Fill-1" fill="#A62732" points="0 51.9898371 51.9710358 51.9898371 51.9710358 0.0289641694 0 0.0289641694"></polygon>
                <path d="M24.649355,41.3262801 L25.4161433,41.198228 L25.4161433,46.4153355 L24.649355,46.4153355 L24.649355,41.3262801 Z M27.6572248,41.915557 L27.6572248,45.2054463 C27.6572248,45.769316 27.7995049,45.9642736 28.2634397,45.9642736 C28.4721173,45.9642736 28.4170684,45.966645 28.5500326,45.894658 L28.6545407,46.4073746 C28.4170684,46.54 28.3296678,46.5784495 27.9980195,46.5784495 C27.7517394,46.5784495 27.5625407,46.5278046 27.3821498,46.4354919 C27.0510098,46.2613681 26.9278697,45.9334463 26.9278697,45.4205603 L26.9278697,41.915557 L26.312,41.915557 L26.312,41.3110358 L26.9278697,41.3110358 L26.9278697,39.376873 L27.6860195,39.376873 L27.6860195,41.3110358 L28.8703322,41.3110358 L28.6430228,41.915557 L27.6572248,41.915557 Z M29.2748143,27.5711792 C28.6399739,27.5711792 27.8154267,28.0203779 27.0850554,28.7172117 L27.0850554,37.7467492 L23.9259283,37.7467492 L23.9259283,28.4926124 C23.9259283,27.3951922 23.7843257,26.3477394 23.5023062,25.4996482 L26.3053941,24.6525733 C26.5891075,25.1768078 26.7539153,25.7245863 26.7539153,26.2481433 C27.2247948,25.898202 27.6257199,25.5989055 28.1445342,25.3002866 C28.7803909,24.9518697 29.6059544,24.7526775 30.3119349,24.7526775 C31.6554658,24.7526775 32.8336808,25.4996482 33.2103844,26.5982541 C33.3751922,27.0716743 33.4463322,27.6199609 33.4463322,28.4182541 L33.4463322,37.7467492 L30.3348013,37.7467492 L30.3348013,29.4408078 C30.3348013,27.9948013 30.1000391,27.5711792 29.2748143,27.5711792 Z M38.2780977,29.0918827 C38.2780977,27.8953746 38.9618893,27.1958306 40.1631401,27.1958306 C41.3665928,27.1958306 42.0727427,27.8953746 42.0727427,29.0918827 C42.0727427,30.2641694 41.3894593,30.9120521 40.1399349,30.9120521 C39.0323518,30.9120521 38.2780977,30.3891726 38.2780977,29.0918827 Z M41.3665928,34.4793876 L39.6690554,34.4544886 C39.3385928,34.4544886 39.1510879,34.3291466 39.1510879,34.1545147 C39.1510879,33.8060977 39.5987622,33.5071401 40.3992573,33.1070619 C40.6341889,33.1326384 40.7285342,33.1326384 40.8704756,33.1326384 C43.4389707,33.1326384 45.3257068,31.5348664 45.3257068,29.3407036 C45.3257068,28.4926124 45.0880651,27.843544 44.6166775,27.2469837 C44.8051987,27.2718827 45.1363388,27.3206645 45.4429186,27.3206645 C46.3145537,27.3206645 46.9731075,27.0459283 47.6574072,26.3726384 L46.3380977,24.2523257 C45.6070489,24.9518697 44.7115309,25.3509316 43.8398958,25.3509316 C43.4389707,25.3509316 43.0139935,25.2498111 42.3556091,25.0758567 C41.4829577,24.8522736 40.8704756,24.7526775 40.1870228,24.7526775 C37.1010684,24.7526775 35.0976287,26.4483518 35.0976287,29.0673225 C35.0976287,30.9621889 35.9453811,32.1344756 37.6894984,32.6090814 C35.7092638,33.1565212 35.474671,33.9312704 35.474671,34.753785 C35.474671,35.627114 35.8269837,36.2001303 36.3933941,36.4238827 C36.9598046,36.6743974 37.8781889,36.7973681 39.2915049,36.8232834 L40.6341889,36.8485212 C41.8845603,36.8734202 42.8496938,37.2235309 42.8496938,38.3699023 C42.8496938,38.8941368 42.5437915,39.3673876 42.0727427,39.6663453 C41.578658,39.9917264 40.8946971,40.0896287 40.0940326,40.0896287 C38.6331205,40.0896287 37.8300847,39.5421889 37.8300847,38.5186189 C37.8300847,38.1698632 37.8543062,37.9965863 37.972873,37.6969511 L35.0505407,37.6969511 C34.9321433,37.9454332 34.7681824,38.2958827 34.7681824,38.9944104 C34.7681824,39.8653681 35.0976287,40.6152182 35.7577068,41.2629316 C36.8410684,42.3359609 38.6092378,42.6345798 40.3279479,42.6345798 C42.2126515,42.6345798 44.0287557,42.1867362 45.0880651,40.9885342 C45.7488208,40.240886 46.0557394,39.4183713 46.0557394,38.3460195 C46.0557394,37.1979544 45.7245993,36.3249642 45.0184495,35.627114 C44.169342,34.8029055 43.2035309,34.5039479 41.3665928,34.4793876 Z M33.73157,46.2623844 C33.4370163,46.2623844 33.1990358,46.0101759 33.1990358,45.6614202 C33.1990358,45.3123257 33.4370163,45.060456 33.73157,45.060456 C34.0262932,45.060456 34.264443,45.3123257 34.264443,45.6614202 C34.264443,46.0101759 34.0262932,46.2623844 33.73157,46.2623844 Z M33.73157,44.9154658 C33.3436873,44.9154658 33.027114,45.2503322 33.027114,45.6614202 C33.027114,46.0721694 33.3436873,46.4066971 33.73157,46.4066971 C34.1201303,46.4066971 34.4360261,46.0721694 34.4360261,45.6614202 C34.4360261,45.2503322 34.1201303,44.9154658 33.73157,44.9154658 Z M33.6089381,45.5973941 L33.6089381,45.3555179 L33.7412248,45.3555179 C33.8176156,45.3555179 33.9034919,45.3717785 33.9034919,45.4710358 C33.9034919,45.5846906 33.8274397,45.5973941 33.7395309,45.5973941 L33.6089381,45.5973941 Z M34.0518697,45.4839088 C34.0518697,45.3060586 33.9482085,45.2357655 33.7568078,45.2357655 L33.4605603,45.2357655 L33.4605603,46.0811466 L33.6089381,46.0811466 L33.6089381,45.7171466 L33.6983713,45.7171466 L33.9051857,46.0811466 L34.0574593,46.0811466 L33.8431922,45.7112182 C33.973785,45.6981759 34.0518697,45.6282215 34.0518697,45.4839088 Z M33.4138111,41.3110358 L31.7938502,46.599114 C31.4716873,47.6247166 31.092443,48.300886 30.2685733,48.5163388 L30.0505798,47.9731336 C30.5118046,47.8167948 30.7536808,47.5894853 30.9550749,47.0340847 C30.8793616,46.6312964 30.8365081,46.4561564 30.8365081,46.4561564 C30.7801042,46.1282345 30.524,45.1334593 30.3630879,44.6214202 L29.3486645,41.4238436 L30.0790358,41.1567296 L31.0455244,44.4672834 C31.1872964,44.9496808 31.3292378,45.7383192 31.3292378,45.7383192 L31.3485472,45.7383192 C31.3485472,45.7383192 31.5280912,45.082645 31.6422541,44.6625798 L32.5702932,41.3110358 L33.4138111,41.3110358 Z M10.5974984,45.1133029 C10.5974984,45.1133029 10.5119609,45.3285863 10.3131075,45.4825537 C10.0095765,45.7178241 9.79158306,45.8103062 9.40403909,45.8103062 C8.96805212,45.8103062 8.67400651,45.6361824 8.45635179,45.2157785 C8.30441694,44.9188534 8.26681433,44.477785 8.26681433,43.8832573 C8.26681433,43.1659283 8.34218893,42.7971857 8.56983713,42.4076091 C8.76885993,42.0591922 9.08136808,41.8747362 9.4514658,41.8747362 C10.0095765,41.8747362 10.360873,42.0493681 10.5974984,42.4076091 L10.5974984,45.1133029 Z M11.3459935,39.376873 L10.6068143,39.376873 L10.6068143,41.0757655 C10.6068143,41.4441694 10.6161303,41.8645733 10.6161303,41.8645733 C10.3324169,41.454671 9.8674658,41.2190619 9.33764169,41.2190619 C8.99616938,41.2190619 8.73108795,41.3110358 8.42772638,41.5366515 C7.78340065,42.0178632 7.45226059,42.8175114 7.45226059,43.9037524 C7.45226059,45.5330293 8.15332899,46.4863062 9.37473616,46.4863062 C9.92454723,46.4863062 10.2849902,46.3126906 10.6256156,45.8926254 C10.6349316,46.158215 10.7299544,46.4153355 10.7299544,46.4153355 L11.4881042,46.4153355 C11.3832573,46.1175635 11.3459935,45.6461759 11.3459935,44.7655635 L11.3459935,39.376873 Z M22.6259283,41.3213681 L23.8446254,41.3213681 L23.6176547,41.9258893 L22.5974723,41.9258893 L22.5974723,45.2157785 C22.5974723,45.7798176 22.7394137,45.9749446 23.2036873,45.9749446 C23.4123648,45.9749446 23.357316,45.977316 23.4902801,45.9049902 L23.5947883,46.4178762 C23.357316,46.550671 23.2699153,46.5891205 22.9380977,46.5891205 C22.691987,46.5891205 22.5027883,46.5383062 22.3223974,46.4461629 C21.9912573,46.2718697 21.8677785,45.9437785 21.8677785,45.4310619 L21.8677785,41.9258893 L21.2522476,41.9258893 L21.2522476,41.3213681 L21.8677785,41.3213681 L21.8677785,39.387544 L22.6259283,39.387544 L22.6259283,41.3213681 Z M18.1996612,25.1996743 L21.3564169,24.6757785 L21.3564169,37.7467492 L18.1996612,37.7467492 L18.1996612,25.1996743 Z M17.8454853,21.4592313 C17.8454853,20.3125212 18.7411726,19.3893941 19.8247036,19.3893941 C20.8851987,19.3893941 21.7343062,20.3125212 21.7343062,21.4592313 C21.7343062,22.6062801 20.861316,23.5300847 19.7772769,23.5300847 C18.717798,23.5300847 17.8454853,22.6062801 17.8454853,21.4592313 Z M20.475127,41.9463844 C20.5508404,42.1310098 20.5889511,42.3356221 20.5889511,42.5410814 L20.5889511,46.4156743 L19.8401173,46.4156743 L19.8401173,42.9611466 C19.8401173,42.4176026 19.8021759,42.2849772 19.6695505,42.1103453 C19.5657199,41.9773811 19.3661889,41.8950619 19.1485342,41.8950619 C18.7689511,41.8950619 18.1823844,42.2238306 17.8412508,42.6127296 L17.8412508,46.4156743 L17.1212117,46.4156743 L17.1212117,42.4797655 C17.1212117,41.7517655 16.9416678,41.4033485 16.9416678,41.4033485 L17.6610293,41.1878958 C17.6610293,41.1878958 17.8322736,41.5664625 17.8322736,41.987544 C18.323987,41.454671 18.8163779,41.198228 19.319101,41.198228 C19.8308013,41.198228 20.285759,41.4958306 20.475127,41.9463844 Z M13.1587101,43.3912052 C13.1959739,42.3352834 13.5752182,41.8027492 14.2476612,41.8027492 C14.6081042,41.8027492 14.9392443,41.9773811 15.1001564,42.2536417 C15.2424365,42.4995831 15.3088339,42.8380065 15.3181498,43.3912052 L13.1587101,43.3912052 Z M14.2856026,41.1773941 C13.7168208,41.1773941 13.252886,41.4033485 12.8739805,41.8847296 C12.4762736,42.3981238 12.3060456,42.9508143 12.3060456,43.8119479 C12.3060456,45.5033876 13.0916352,46.5278046 14.3994267,46.5278046 C15.0059805,46.5278046 15.5745928,46.3025277 15.9907622,45.8926254 L15.7063713,45.3794007 C15.3752313,45.7078306 15.0059805,45.8611205 14.550684,45.8611205 C14.0767557,45.8611205 13.6411075,45.6770033 13.3760261,45.2362736 C13.2147752,44.9705147 13.1587101,44.6009251 13.1587101,44.119544 L13.1587101,43.9960651 L16.1042476,43.9960651 L16.1042476,43.8832573 C16.0859544,42.6642215 15.9714528,42.1823322 15.5651075,41.7307622 C15.2424365,41.3726906 14.7971336,41.1773941 14.2856026,41.1773941 Z M5.66139414,46.4153355 L6.41954397,46.4153355 L6.41954397,39.3841564 L5.66139414,39.3841564 L5.66139414,46.4153355 Z M12.8707622,27.6199609 C12.424443,28.3432182 12.0233485,28.5180195 10.6804951,28.5180195 L8.96059935,28.5180195 L8.96059935,23.229772 L11.056013,23.229772 C12.4473094,23.229772 13.2715179,24.2028664 13.2715179,25.8238436 C13.2715179,26.6477134 13.1551531,27.1473876 12.8707622,27.6199609 Z M14.522228,21.2600391 C13.6019805,20.7109055 12.7532117,20.4122866 9.97299023,20.4122866 L5.66139414,20.4122866 L5.66139414,37.7467492 L8.96059935,37.7467492 L8.96059935,31.361759 L10.7743322,31.361759 C12.5880651,31.361759 13.2957394,31.1618893 14.0499935,30.7877264 C15.8403518,29.8901759 16.8759479,28.0442606 16.8759479,25.7505016 C16.8759479,23.7540065 16.0520782,22.1582671 14.522228,21.2600391 L14.522228,21.2600391 Z" id="Fill-3" fill="#FFFFFE"></path>
            </g>
        </g>
    </g>
</svg>
