<?xml version="1.0" encoding="UTF-8"?>
<svg width="76px" height="76px" viewBox="0 0 76 76" version="1.1" xmlns="http://www.w3.org/2000/svg" xmlns:xlink="http://www.w3.org/1999/xlink">
    <!-- Generator: Sketch 57.1 (83088) - https://sketch.com -->
    <title>components-icon</title>
    <desc>Created with Sketch.</desc>
    <defs>
        <polygon id="path-1" points="0 -0.0003 69.208722 -0.0003 69.208722 68.4926 0 68.4926"></polygon>
    </defs>
    <g id="components-icon" stroke="none" stroke-width="1" fill="none" fill-rule="evenodd">
        <g id="Group-3" transform="translate(3.000000, 4.000000)">
            <mask id="mask-2" fill="white">
                <use xlink:href="#path-1"></use>
            </mask>
            <g id="Clip-2"></g>
            <path d="M43.3389,26.5396 L52.2039,26.5396 C53.0549,26.5396 53.0789,25.1986 53.0789,25.0456 L53.0789,3.1486 C53.0789,2.2546 52.3239,1.4996 51.4309,1.4996 L30.7719,1.4996 C29.8679,1.4996 28.6579,2.3536 28.6579,3.2266 C28.6579,3.3976 28.6019,3.5566 28.5039,3.6826 L28.5039,11.8926 C28.5039,12.2626 28.3519,12.5846 28.0759,12.7996 C27.6289,13.1496 27.0199,13.0846 26.7379,13.0276 C25.7119,12.9976 24.8109,12.4546 24.3129,11.5596 C23.6739,10.3976 22.3539,9.1606 20.5589,9.1606 C18.2009,9.1606 16.3559,10.9376 16.3559,13.2066 C16.3559,14.4846 16.9669,15.6756 18.0319,16.4736 C19.1659,17.3246 20.6389,17.5966 21.9729,17.2076 C22.7639,17.0086 23.3669,16.5716 23.7939,15.8996 C24.4409,15.0346 25.2489,14.5836 26.1679,14.5486 C26.4899,14.4616 27.2589,14.3216 27.8429,14.7416 C28.1099,14.9336 28.4259,15.3066 28.4259,15.9926 L28.4259,24.2016 C28.5239,24.3286 28.5819,24.4866 28.5819,24.6586 C28.5819,25.4006 29.6429,26.4616 30.3849,26.4616 L38.8959,26.4616 C38.9499,26.4446 38.9299,26.2096 38.8799,26.0516 C38.8569,25.9776 38.8429,25.8966 38.8429,25.8196 C38.8429,25.3306 38.6109,24.9186 38.1369,24.5616 C37.0489,23.8726 36.5399,22.7536 36.2569,21.9756 C35.7199,20.1446 36.0829,18.1786 37.2139,16.6686 C38.2989,15.2216 39.9269,14.3916 41.6819,14.3916 C44.7399,14.3916 47.2289,16.9496 47.2289,20.0936 C47.2289,22.1426 46.0129,24.0836 44.0549,25.1616 C43.6159,25.3586 43.3599,25.8296 43.3599,26.3606 C43.3599,26.4206 43.3539,26.4806 43.3389,26.5396 L43.3389,26.5396 Z M13.1059,27.6146 C13.0719,28.6756 12.4939,29.5796 11.5779,29.9866 C10.1679,30.6926 9.2369,32.1296 9.2369,33.6346 C9.2369,36.0296 10.9769,37.8366 13.2849,37.8366 C14.5629,37.8366 15.7529,37.2256 16.5509,36.1606 C17.4009,35.0266 17.6759,33.5536 17.2849,32.2196 C16.9979,31.3596 16.5919,30.7896 15.9769,30.3986 C15.3089,29.8996 14.6699,29.2746 14.6269,28.1846 C14.5389,27.8716 14.4039,27.1526 14.8029,26.5886 C14.9939,26.3196 15.3679,25.9976 16.0699,25.9976 L24.5819,25.9976 C24.7129,25.9976 24.8359,26.0046 24.9509,26.0186 C25.0059,26.0046 25.0649,25.9976 25.1229,25.9976 C25.9319,25.9976 26.9259,25.1746 26.9259,24.5036 L26.9259,15.9926 C26.8989,15.9346 26.6389,15.9676 26.5219,16.0076 C26.4439,16.0336 26.3639,16.0466 26.2829,16.0466 C25.7939,16.0466 25.3829,16.2776 25.0269,16.7526 C24.4279,17.6976 23.4959,18.3716 22.3649,18.6546 C20.6099,19.1676 18.6429,18.8056 17.1329,17.6746 C15.6859,16.5896 14.8559,14.9616 14.8559,13.2066 C14.8559,10.1486 17.4139,7.6606 20.5589,7.6606 C22.6079,7.6606 24.5489,8.8766 25.6249,10.8336 C25.8699,11.2746 26.3089,11.5286 26.8249,11.5286 C26.8849,11.5286 26.9449,11.5366 27.0039,11.5506 L27.0039,2.6846 C27.0039,1.8946 25.9589,1.8096 25.5099,1.8096 L3.6129,1.8096 C2.7189,1.8096 1.9649,2.5646 1.9649,3.4576 L1.9649,24.2716 C1.9649,25.1656 2.7189,25.9206 3.6129,25.9206 L11.9689,25.9206 C12.3509,25.9206 12.6799,26.0756 12.8949,26.3576 C13.2229,26.7886 13.1619,27.3466 13.1059,27.6146 L13.1059,27.6146 Z M2.7619,27.4206 C2.0199,27.4206 1.4999,27.9396 1.4999,28.6826 L1.4999,50.5796 C1.4999,51.7066 2.8509,53.9306 3.5349,53.9306 L24.3499,53.9306 C24.7559,53.9306 25.3019,52.2736 25.3019,50.5796 L25.3019,40.7526 C25.3019,40.3386 25.6379,40.0026 26.0519,40.0026 C26.5679,40.0026 28.2999,40.0806 28.8689,41.0776 C29.8139,42.8396 32.8549,44.5506 35.1409,43.3396 C36.9189,42.3826 37.7979,40.3096 37.1809,38.5216 L37.1809,38.5206 C36.4539,36.4076 33.9689,35.1736 31.7569,35.8246 C30.9269,36.0326 30.2629,36.4936 29.8579,37.1316 C29.1549,38.0706 27.6859,38.4856 26.9019,38.4856 L26.0359,38.5606 C25.8279,38.5746 25.6199,38.5056 25.4669,38.3646 C25.3129,38.2226 25.2249,38.0216 25.2249,37.8126 L25.2249,28.5276 C25.2249,27.4976 25.0879,27.4976 24.5819,27.4976 L16.0699,27.4976 C16.0559,27.4976 16.0429,27.4986 16.0309,27.4986 C16.0289,27.5946 16.0549,27.7396 16.0809,27.8136 C16.1099,27.8936 16.1239,27.9786 16.1239,28.0636 C16.1239,28.4976 16.2949,28.7646 16.8299,29.1656 C17.6949,29.7136 18.3099,30.5526 18.7169,31.7716 C19.2459,33.5826 18.8829,35.5496 17.7519,37.0596 C16.6679,38.5066 15.0389,39.3366 13.2849,39.3366 C10.1739,39.3366 7.7369,36.8316 7.7369,33.6346 C7.7369,31.5666 8.9939,29.6026 10.9379,28.6306 C11.3669,28.4386 11.6069,28.0296 11.6069,27.5216 C11.6069,27.4876 11.6099,27.4546 11.6129,27.4206 L2.7619,27.4206 Z M24.3499,55.4306 L3.5349,55.4306 C1.6369,55.4306 -0.0001,52.1766 -0.0001,50.5796 L-0.0001,28.6826 C-0.0001,27.6756 0.4849,26.8276 1.2459,26.3466 C0.7599,25.7916 0.4649,25.0656 0.4649,24.2716 L0.4649,3.4576 C0.4649,1.7226 1.8769,0.3096 3.6129,0.3096 L25.5099,0.3096 C26.6189,0.3096 27.4879,0.6556 27.9979,1.2526 C28.7179,0.4846 29.7909,-0.0004 30.7719,-0.0004 L51.4309,-0.0004 C53.1669,-0.0004 54.5789,1.4126 54.5789,3.1486 L54.5789,25.0456 C54.5789,26.8366 53.6249,28.0396 52.2039,28.0396 L42.9969,28.0396 C42.6269,28.0396 42.3039,27.8876 42.0889,27.6116 C41.7389,27.1646 41.8059,26.5546 41.8609,26.2736 C41.8919,25.1786 42.4849,24.2206 43.3889,23.8186 C44.4899,23.2096 45.7289,21.8886 45.7289,20.0936 C45.7289,17.7376 43.9509,15.8916 41.6819,15.8916 C40.4029,15.8916 39.2129,16.5026 38.4149,17.5676 C37.5659,18.7016 37.2909,20.1746 37.6819,21.5086 C37.9979,22.3726 38.4179,22.9666 38.9889,23.3296 C39.8559,23.9766 40.3059,24.7856 40.3409,25.7036 C40.4279,26.0256 40.5679,26.7936 40.1479,27.3786 C39.9549,27.6446 39.5819,27.9616 38.8959,27.9616 L30.3849,27.9616 C29.3719,27.9616 28.2949,27.2466 27.6559,26.3166 C27.3369,26.6626 26.9429,26.9486 26.5229,27.1526 C26.7249,27.6606 26.7249,28.2126 26.7249,28.5276 L26.7249,36.9976 L26.8409,36.9876 C27.4399,36.9856 28.3389,36.6596 28.6249,36.2796 C29.2039,35.3636 30.1889,34.6706 31.3629,34.3766 C34.3449,33.4976 37.6029,35.1356 38.5989,38.0326 C39.4529,40.5076 38.2699,43.3586 35.8469,44.6626 C32.8799,46.2336 28.9569,44.4146 27.5569,41.8036 C27.4939,41.7326 27.2059,41.6276 26.8019,41.5626 L26.8019,50.5796 C26.8019,50.7776 26.7739,55.4306 24.3499,55.4306 L24.3499,55.4306 Z M39.5029,48.4296 L35.7049,56.4706 C35.6239,56.6616 35.6409,56.7406 35.6419,56.7416 C35.6969,56.8816 36.2999,57.1396 36.6589,57.2936 L56.5479,66.6916 C57.1789,66.9866 57.8279,67.0736 58.2399,66.9166 C58.4599,66.8346 58.6099,66.6856 58.7129,66.4506 L67.6209,47.6276 C67.9009,47.0656 67.5409,45.5866 66.7209,45.1356 L58.7689,41.3526 C58.3979,41.1766 58.2369,40.7346 58.4099,40.3616 C58.9689,39.1496 59.8939,38.4556 60.9479,38.4556 C62.0589,38.4186 63.2589,37.8566 64.0579,36.9876 C64.5589,36.4416 65.1419,35.5176 65.0729,34.2156 C64.9349,32.0596 63.4849,30.3726 61.5489,30.1226 C59.3399,29.8566 57.1979,31.5176 56.8139,33.8346 C56.6839,34.6086 56.8129,35.3576 57.1949,36.0606 C57.7199,36.8936 57.6139,38.2346 57.2269,39.1136 C57.2299,39.1136 57.1699,39.3016 57.1099,39.5406 C57.0569,39.7596 56.9059,39.9416 56.7029,40.0386 C56.4979,40.1336 56.2629,40.1326 56.0619,40.0376 L46.7769,35.6266 C46.4779,35.4896 46.1179,35.6606 45.9299,35.7746 C45.5729,35.9916 45.2429,36.3596 45.0699,36.7336 L41.4329,44.4736 C41.5259,44.5196 41.6789,44.5626 41.7649,44.5726 C41.8409,44.5816 41.9159,44.6016 41.9859,44.6326 C42.3169,44.7796 42.6519,44.8046 43.2189,44.4496 C44.2459,43.8876 45.3519,43.6996 46.4469,43.8816 C48.2979,44.1836 49.9269,45.3586 50.8029,47.0246 C51.6359,48.6126 51.6899,50.4196 50.9479,51.9836 C49.6299,54.7946 46.3359,55.9366 43.4519,54.5856 C41.5379,53.6286 40.3129,51.6346 40.3129,49.4966 C40.3129,49.0516 40.0519,48.6816 39.5969,48.4796 C39.5649,48.4646 39.5329,48.4486 39.5029,48.4296 L39.5029,48.4296 Z M57.7639,68.4926 C57.1779,68.4926 56.5389,68.3426 55.9099,68.0496 L36.0999,58.6856 C35.4709,58.4166 34.9539,58.1956 34.5899,57.8176 C34.2439,57.4596 33.9199,56.8296 34.3379,55.8546 L38.2959,47.4736 C38.4289,47.1606 38.6929,46.9256 39.0289,46.8396 C39.5549,46.7016 40.0599,46.9876 40.2829,47.1446 C41.2289,47.5976 41.8129,48.4906 41.8129,49.4966 C41.8129,51.0716 42.7129,52.5396 44.1059,53.2356 C46.2149,54.2246 48.6289,53.3956 49.5919,51.3446 C50.1299,50.2076 50.0869,48.8886 49.4749,47.7226 C48.8179,46.4706 47.5949,45.5886 46.2039,45.3616 C45.4269,45.2296 44.6769,45.3616 43.9759,45.7446 C43.1329,46.2706 42.3049,46.3766 41.4789,46.0456 C41.1599,45.9926 40.4239,45.8036 40.0789,45.1916 C39.9209,44.9126 39.7909,44.4516 40.0719,43.8436 L43.7109,36.1016 C44.0089,35.4556 44.5339,34.8676 45.1509,34.4926 C45.9149,34.0286 46.7179,33.9496 47.4119,34.2686 L55.9249,38.3116 C56.0959,37.7506 56.0869,37.1136 55.9019,36.8186 C55.3389,35.7886 55.1509,34.6846 55.3339,33.5876 C55.8489,30.4926 58.7119,28.2686 61.7349,28.6336 C64.3989,28.9776 66.3849,31.2366 66.5699,34.1276 C66.6479,35.5786 66.1599,36.9156 65.1619,38.0016 C64.0849,39.1746 62.5189,39.9046 60.9729,39.9546 C60.6849,39.9556 60.4109,40.0976 60.1739,40.3596 L67.3829,43.7896 C67.3939,43.7946 67.4029,43.7996 67.4139,43.8056 C68.9559,44.6286 69.5979,47.0266 68.9699,48.2836 L60.0779,67.0716 C59.8219,67.6566 59.3669,68.0956 58.7699,68.3206 C58.4649,68.4356 58.1239,68.4926 57.7639,68.4926 L57.7639,68.4926 Z" id="Fill-1" fill="#3D454D" mask="url(#mask-2)"></path>
        </g>
    </g>
</svg>