<?xml version="1.0" encoding="UTF-8"?>
<svg width="76px" height="76px" viewBox="0 0 76 76" version="1.1" xmlns="http://www.w3.org/2000/svg" xmlns:xlink="http://www.w3.org/1999/xlink">
    <!-- Generator: Sketch 57.1 (83088) - https://sketch.com -->
    <title>documentation-icon</title>
    <desc>Created with Sketch.</desc>
    <defs>
        <polygon id="path-1" points="0 0.129 58.449 0.129 58.449 71.9999366 0 71.9999366"></polygon>
    </defs>
    <g id="documentation-icon" stroke="none" stroke-width="1" fill="none" fill-rule="evenodd">
        <g id="Group-18" transform="translate(9.000000, 2.000000)">
            <g id="Group-3" transform="translate(0.000000, 0.871000)">
                <mask id="mask-2" fill="white">
                    <use xlink:href="#path-1"></use>
                </mask>
                <g id="Clip-2"></g>
                <path d="M7.3094,19.4507 L16.1324,19.4507 L11.7734,23.1837 C11.7464,23.1997 11.7204,23.2177 11.6954,23.2357 C11.6264,23.2787 11.5654,23.3317 11.5124,23.3927 C11.4734,23.4327 11.4384,23.4757 11.4084,23.5237 C11.3764,23.5727 11.3504,23.6247 11.3304,23.6797 C11.3204,23.7057 11.3114,23.7317 11.3034,23.7587 C11.2894,23.8097 11.2814,23.8617 11.2774,23.9147 C11.2764,23.9407 11.2764,23.9667 11.2774,23.9927 C11.2754,24.0277 11.2754,24.0627 11.2774,24.0977 L11.2774,64.8997 L7.3094,64.8997 L7.3094,19.4507 Z M1.6444,14.2557 L10.2854,14.2557 L6.1614,17.7807 C5.9094,17.8997 5.7314,18.1457 5.6914,18.4327 C5.6884,18.4507 5.6664,18.4667 5.6644,18.4847 C5.6634,18.5197 5.6634,18.5547 5.6644,18.5897 L5.6644,18.6157 L5.6644,59.7047 L1.6444,59.7047 L1.6444,14.2557 Z M25.8184,13.3687 L25.8184,23.1317 L14.3834,23.1317 L25.8184,13.3687 Z M27.4364,12.4287 L56.8044,12.4287 L56.8044,70.3037 L12.9214,70.3037 L12.9214,24.8547 L26.6264,24.8547 C27.0784,24.8507 27.4404,24.4647 27.4364,23.9927 L27.4364,12.4287 Z M20.2054,7.9647 L20.2054,15.9527 L18.1434,17.7277 L8.7714,17.7277 L20.2054,7.9647 Z M21.8494,7.0247 L51.1924,7.0247 L51.1924,10.7057 L26.6794,10.7057 C26.6624,10.7047 26.6444,10.7047 26.6264,10.7057 L26.6014,10.7057 C26.5474,10.7087 26.4964,10.7177 26.4444,10.7317 C26.4004,10.7367 26.3564,10.7457 26.3144,10.7577 C26.3044,10.7657 26.2964,10.7747 26.2884,10.7837 C26.2604,10.7997 26.2344,10.8167 26.2094,10.8357 C26.1924,10.8447 26.1744,10.8527 26.1574,10.8627 C26.1394,10.8697 26.1214,10.8787 26.1054,10.8877 L26.1054,10.9137 L26.0524,10.9407 L26.0524,10.9667 L26.0004,10.9927 L25.9744,11.0187 L21.8494,14.5687 L21.8494,7.0247 Z M14.5404,2.7697 L14.5404,10.6277 L12.2694,12.5587 L3.1064,12.5587 L14.5404,2.7697 Z M16.1594,1.8297 L45.5274,1.8297 L45.5274,5.3027 L21.0144,5.3027 C20.8224,5.3047 20.6374,5.3787 20.4924,5.5107 L20.4404,5.5367 C20.4214,5.5617 20.4044,5.5877 20.3884,5.6157 L16.1594,9.2437 L16.1594,1.8297 Z M15.1934,0.1337 C15.0354,0.1667 14.8894,0.2487 14.7754,0.3677 L14.7234,0.3937 L14.6974,0.4207 L0.4174,12.6377 C0.3254,12.6987 0.2454,12.7787 0.1824,12.8727 C0.1674,12.8917 0.1434,12.9037 0.1304,12.9247 L0.1304,12.9507 C0.1254,12.9597 0.1094,12.9677 0.1044,12.9767 C0.0364,13.1037 -0.0006,13.2477 -0.0006,13.3947 L-0.0006,13.4207 L-0.0006,60.5657 C0.0104,61.0277 0.3684,61.3967 0.8094,61.4017 L5.6644,61.4017 L5.6644,65.7347 C5.6614,66.2067 6.0234,66.5917 6.4744,66.5967 L11.2774,66.5967 L11.2774,71.1387 C11.2744,71.6097 11.6364,71.9957 12.0864,71.9999366 L57.6144,71.9999366 C58.0644,72.0107 58.4384,71.6367 58.4494327,71.1647 L58.4494327,71.1387 L58.4494327,11.5667 C58.4534,11.0947 58.0894,10.7087 57.6394,10.7047 C57.6304,10.7047 57.6224,10.7047 57.6144,10.7057 L52.8364,10.7057 L52.8364,6.1627 C52.8394,5.6907 52.4774,5.3047 52.0264,5.3017 C52.0184,5.3017 52.0094,5.3017 52.0004,5.3017 L47.1714,5.3017 L47.1714,0.9687 C47.1624,0.4967 46.7884,0.1227 46.3364,0.1327 L15.3494,0.1327 C15.2974,0.1277 15.2454,0.1277 15.1934,0.1327 L15.1934,0.1337 Z" id="Fill-1" fill="#3D454D" mask="url(#mask-2)"></path>
            </g>
            <path d="M20.6805,60.7553 C20.2185,60.7483 19.8395,61.1173 19.8324279,61.5783 C19.8265,62.0403 20.1955,62.4193 20.6565,62.4253 C20.6645,62.4263 20.6725,62.4263 20.6805,62.4253 L51.4855,62.4253 C51.9465,62.4323 52.3255,62.0643 52.331598,61.6023 C52.3385,61.1413 51.9695,60.7613 51.5085,60.7553 L51.4855,60.7553 L20.6805,60.7553 Z" id="Fill-4" fill="#3D454D"></path>
            <path d="M20.6805,54.1073 C20.2185,54.1013 19.8395,54.4693 19.8324279,54.9313 C19.8265,55.3923 20.1955,55.7723 20.6565,55.7783 L20.6805,55.7783 L51.3785,55.7783 C51.8405,55.7843 52.2195,55.4163 52.2265723,54.9553 C52.2325,54.4933 51.8645,54.1143 51.4025,54.1073 L51.3785,54.1073 L20.6805,54.1073 Z" id="Fill-6" fill="#3D454D"></path>
            <path d="M20.5663,40.4721 C20.1053,40.4651 19.7253,40.8341 19.719202,41.2951 C19.7123,41.7571 20.0813,42.1361 20.5433,42.1421 C20.5503,42.1431 20.5583,42.1431 20.5663,42.1421 L51.5903,42.1421 C52.0513,42.1491 52.4313,41.7811 52.437398,41.3191 C52.4443,40.8581 52.0753,40.4781 51.6143,40.4721 L51.5903,40.4721 L20.5663,40.4721 Z" id="Fill-8" fill="#3D454D"></path>
            <path d="M20.6717,47.2387 C20.2107,47.2327 19.8317,47.6007 19.8246023,48.0617 C19.8177,48.5237 20.1877,48.9027 20.6487,48.9087 C20.6557,48.9097 20.6637,48.9097 20.6717,48.9087 L51.4847,48.9087 C51.9457,48.9157 52.3247,48.5477 52.331798,48.0857 C52.3387,47.6247 51.9697,47.2447 51.5087,47.2387 L51.4847,47.2387 L20.6717,47.2387 Z" id="Fill-10" fill="#3D454D"></path>
            <path d="M31.7938,20.1889 C31.3328,20.1819 30.9528,20.5509 30.946702,21.0119 C30.9398,21.4739 31.3088,21.8529 31.7708,21.8589 L31.7938,21.8589 L51.4848,21.8589 C51.9458,21.8659 52.3248,21.4969 52.331898,21.0359 C52.3388,20.5749 51.9698,20.1949 51.5088,20.1889 C51.5008,20.1889 51.4928,20.1889 51.4848,20.1889 L31.7938,20.1889 Z" id="Fill-12" fill="#3D454D"></path>
            <path d="M31.6883,26.8446 C31.2263,26.8386 30.8473,27.2066 30.8402279,27.6686 C30.8343,28.1296 31.2033,28.5086 31.6653,28.5156 L31.6883,28.5156 L51.3783,28.5156 C51.8403,28.5216 52.2193,28.1536 52.2263723,27.6916 C52.2323,27.2306 51.8643,26.8506 51.4023,26.8446 L51.3783,26.8446 L31.6883,26.8446 Z" id="Fill-14" fill="#3D454D"></path>
            <path d="M20.5663,33.7138 C20.1053,33.7068 19.7253,34.0758 19.719202,34.5368 C19.7123,34.9988 20.0813,35.3778 20.5433,35.3838 C20.5503,35.3848 20.5583,35.3848 20.5663,35.3838 L51.6963,35.3838 C52.1573,35.3908 52.5373,35.0228 52.5433721,34.5608 C52.5493,34.0998 52.1803,33.7198 51.7193,33.7138 L51.6963,33.7138 L20.5663,33.7138 Z" id="Fill-16" fill="#3D454D"></path>
        </g>
    </g>
</svg>