<?xml version="1.0" encoding="UTF-8"?>
<svg width="76px" height="76px" viewBox="0 0 76 76" version="1.1" xmlns="http://www.w3.org/2000/svg" xmlns:xlink="http://www.w3.org/1999/xlink">
    <!-- Generator: Sketch 57.1 (83088) - https://sketch.com -->
    <title>templates-icon</title>
    <desc>Created with Sketch.</desc>
    <defs>
        <polygon id="path-1" points="0 -0.0001 75.575 -0.0001 75.575 62.1725487 0 62.1725487"></polygon>
    </defs>
    <g id="templates-icon" stroke="none" stroke-width="1" fill="none" fill-rule="evenodd">
        <g id="Group-3" transform="translate(0.000000, 7.000000)">
            <mask id="mask-2" fill="white">
                <use xlink:href="#path-1"></use>
            </mask>
            <g id="Clip-2"></g>
            <path d="M35.6027,2.0179 L2.2507,19.9349 C1.9227,20.1109 1.6707,20.3729 1.5327,20.6669 C1.4637,20.8119 1.4247,20.9639 1.42033703,21.1139 C1.4167,21.2549 1.4457,21.3989 1.5107,21.5379 C1.6277,21.7879 1.8677,22.0309 2.2547,22.2399 L34.7337,39.6869 C36.0027,40.3699 36.9807,40.6639 37.8777,40.6489 C38.7667,40.6349 39.6237,40.3139 40.6447,39.7649 L73.4467,22.1429 C73.7487,21.9809 73.9717,21.7519 74.0907,21.4979 C74.1497,21.3719 74.1817,21.2389 74.1837258,21.1049 C74.1847,20.9749 74.1567,20.8389 74.0937,20.7049 C73.9647,20.4329 73.6997,20.1639 73.2667,19.9329 L39.8637,2.0749 C38.9587,1.5909 38.2217,1.3969 37.5557,1.4139 C36.8947,1.4319 36.2717,1.6589 35.6027,2.0179 L35.6027,2.0179 Z M70.6417,25.2309 L41.2357,41.0279 C40.0427,41.6689 39.0177,42.0439 37.8937,42.0619 C36.7787,42.0799 35.6127,41.7409 34.1427,40.9509 L4.8807,25.2309 L2.1587,26.6939 C1.8437,26.8619 1.6087,27.1049 1.4807,27.3759 C1.4167,27.5129 1.3807,27.6549 1.37760336,27.7959 C1.3757,27.9319 1.4047,28.0719 1.4687,28.2079 C1.5917,28.4709 1.8447,28.7279 2.2547,28.9489 L34.7337,46.3959 C35.7697,46.9529 36.6717,47.2899 37.5917,47.3259 C38.5077,47.3609 39.4787,47.0999 40.6677,46.4609 L73.5627,28.7889 C73.8487,28.6359 74.0527,28.4309 74.1587,28.2039 C74.2127,28.0889 74.2417,27.9699 74.2417,27.8499 C74.2417,27.7259 74.2127,27.5969 74.1517,27.4669 C74.0167,27.1779 73.7307,26.8909 73.2667,26.6419 L70.6417,25.2309 Z M70.6417,31.9399 L41.2587,47.7249 C39.8597,48.4769 38.6857,48.7829 37.5447,48.7389 C36.4087,48.6939 35.3417,48.3039 34.1427,47.6599 L4.8807,31.9399 L2.0637,33.4529 C1.7637,33.6139 1.5427,33.8389 1.4257,34.0879 C1.3677,34.2139 1.3347,34.3459 1.33267502,34.4759 C1.3317,34.6079 1.3607,34.7439 1.4237,34.8779 C1.5527,35.1519 1.8207,35.4239 2.2547,35.6569 L34.7337,53.1049 C35.9967,53.7829 37.0097,54.0599 37.8547,54.0819 C38.6657,54.1039 39.3317,53.8879 39.9197,53.5719 L73.3877,35.5919 C73.6987,35.4259 73.9297,35.1869 74.0547,34.9219 C74.1177,34.7879 74.1527,34.6479 74.1549045,34.5109 C74.1577,34.3749 74.1277,34.2359 74.0647,34.0999 C73.9397,33.8339 73.6837,33.5739 73.2667,33.3499 L70.6417,31.9399 Z M70.6417,38.6479 L40.5107,54.8349 C39.7487,55.2439 38.8847,55.5239 37.8237,55.4959 C36.7957,55.4679 35.5957,55.1489 34.1427,54.3679 L4.8807,38.6479 L2.0407,40.1739 C1.7437,40.3329 1.5267,40.5549 1.4127,40.7999 C1.3547,40.9229 1.3237,41.0529 1.32167502,41.1819 C1.3207,41.3099 1.3497,41.4449 1.4127,41.5779 C1.5417,41.8549 1.8147,42.1289 2.2547,42.3659 L35.3607,60.1089 C36.1447,60.5289 36.9567,60.7309 37.7207,60.7569 C38.5447,60.7839 39.3097,60.6079 39.9197,60.2799 L73.5867,42.1939 C73.8697,42.0419 74.0697,41.8409 74.1727,41.6199 C74.2257,41.5079 74.2537,41.3899 74.2537,41.2719 C74.2537,41.1509 74.2247,41.0229 74.1647,40.8949 C74.0277,40.6029 73.7377,40.3109 73.2667,40.0589 L70.6417,38.6479 Z M1.6607,18.6719 L35.0117,0.7549 C35.8437,0.3079 36.6387,0.0239 37.5247,0.0009 C38.4037,-0.0211 39.3417,0.2169 40.4547,0.8109 L73.8577,18.6689 C74.5647,19.0469 75.0247,19.5409 75.2757,20.0739 C75.4357,20.4149 75.5087,20.7709 75.5047,21.1219 C75.5007,21.4719 75.4197,21.8129 75.2727,22.1299 C75.0287,22.6509 74.6007,23.1039 74.0377,23.4069 L72.1127,24.4409 L73.8577,25.3779 C74.5947,25.7739 75.0767,26.2879 75.3327,26.8349 C75.4897,27.1669 75.5637,27.5109 75.5637,27.8499 C75.5627,28.1929 75.4857,28.5269 75.3407,28.8359 C75.1087,29.3299 74.7017,29.7589 74.1537,30.0529 L72.1127,31.1489 L73.8577,32.0869 C74.5487,32.4579 74.9987,32.9429 75.2467,33.4679 C75.4097,33.8149 75.4827,34.1759 75.4767,34.5329 C75.4707,34.8879 75.3867,35.2329 75.2367,35.5529 C74.9867,36.0859 74.5477,36.5499 73.9787,36.8559 L72.1127,37.8579 L73.8577,38.7949 C74.6017,39.1949 75.0867,39.7119 75.3457,40.2629 C75.5007,40.5929 75.5757,40.9349 75.5757,41.2719 C75.5757,41.6129 75.4987,41.9439 75.3547,42.2509 C75.1247,42.7409 74.7217,43.1649 74.1777,43.4569 L40.5107,61.5439 C39.7107,61.9729 38.7287,62.2049 37.6837,62.1689 C36.7367,62.1379 35.7347,61.8889 34.7697,61.3719 L1.6647,43.6289 C0.9497,43.2459 0.4827,42.7459 0.2307,42.2089 C0.0707,41.8699 -0.0023,41.5179 -0.000339971601,41.1699 C0.0027,40.8219 0.0827,40.4819 0.2307,40.1679 C0.4707,39.6559 0.8917,39.2099 1.4507,38.9109 L3.4097,37.8579 L1.6647,36.9209 C0.9557,36.5389 0.4937,36.0429 0.2427,35.5099 C0.0817,35.1679 0.0077,34.8139 0.0117,34.4649 C0.0157,34.1139 0.0957,33.7719 0.2447,33.4559 C0.4877,32.9389 0.9127,32.4909 1.4727,32.1889 L3.4097,31.1489 L1.6647,30.2119 C0.9787,29.8439 0.5327,29.3619 0.2877,28.8399 C0.1237,28.4909 0.0497,28.1279 0.0567,27.7679 C0.0637,27.4129 0.1477,27.0659 0.2987,26.7449 C0.5517,26.2059 0.9947,25.7379 1.5667,25.4309 L3.4097,24.4409 L1.6647,23.5029 C1.0007,23.1469 0.5687,22.6789 0.3297,22.1689 C0.1617,21.8129 0.0897,21.4419 0.0997,21.0749 C0.1097,20.7149 0.1977,20.3629 0.3507,20.0359 C0.6147,19.4749 1.0747,18.9859 1.6607,18.6719 L1.6607,18.6719 Z" id="Fill-1" fill="#3D454D" mask="url(#mask-2)"></path>
        </g>
    </g>
</svg>