<svg x="0px" y="0px" viewBox="0 0 100 100" style="enableBackground: new 0 0 100 100;">
    <g transform="matrix(54.85,0,0,-54.85,-2485.383,4815.859)">
        <path
            style="fill: #FFFFFF"
            d="M46.72,86.83c0,0.23,0.19,0.34,0.2,0.35c-0.11,0.16-0.27,0.18-0.33,0.18
            c-0.14,0.01-0.28-0.08-0.35-0.08c-0.07,0-0.18,0.08-0.3,0.08c-0.15,0-0.3-0.09-0.38-0.23c-0.16-0.28-0.04-0.69,0.12-0.92
            c0.08-0.11,0.17-0.24,0.29-0.23c0.12,0,0.16,0.07,0.3,0.07c0.14,0,0.18-0.07,0.3-0.07c0.12,0,0.2,0.11,0.28,0.22
            c0.09,0.13,0.12,0.25,0.13,0.26C46.96,86.46,46.72,86.56,46.72,86.83"
        />
    </g>
    <path
        style="fill: #FFFFFF"
        d="M64.68,15.98c3.49-4.23,5.85-10.11,5.2-15.97c-5.03,0.2-11.12,3.35-14.73,7.58
        c-3.23,3.74-6.07,9.72-5.3,15.47C55.46,23.49,61.19,20.2,64.68,15.98"/>
</svg>