<svg x="0px" y="0px" viewBox="0 0 100 100" style="enableBackground: new 0 0 100 100;">
    <path
        style="fill: #FFFFFF"
        d="M94.5,0h-89C2.5,0,0,2.5,0,5.5v89c0,3,2.5,5.5,5.5,5.5h47.9V61.3h-13V46.2h13V35.1c0-12.9,7.9-19.9,19.4-19.9
        c5.5,0,10.3,0.4,11.6,0.6v13.5l-8,0c-6.3,0-7.5,3-7.5,7.3v9.6h14.9L82,61.3H69V100h25.5c3,0,5.5-2.5,5.5-5.5v-89
        C100,2.5,97.5,0,94.5,0z"
    />
    <path
        style="fill: #1877f2"
        d="M82,61.3l1.9-15.1H69v-9.6c0-4.4,1.2-7.3,7.5-7.3l8,0V15.7c-1.4-0.2-6.1-0.6-11.6-0.6c-11.5,0-19.4,7-19.4,19.9
        v11.1h-13v15.1h13V100H69V61.3H82z"
    />
</svg>