<svg x="0px" y="0px" viewBox="0 0 315 310" style="enableBackground: new 0 0 100 100;">
    <g id="Page-1" stroke="none" stroke-width="1" fill="none" fill-rule="evenodd">
        <g id="iconfinder__github_2006660" fill="#ffffff" fill-rule="nonzero">
            <path d="M207.613636,305.714286 C207.613636,305.714286 206.181818,305.714286 206.181818,305.714286 L204.75,304.285714 L204.75,295.714286 C204.75,287.142857 204.75,274.285714 204.75,260 C204.75,250 203.318182,241.428571 199.022727,234.285714 C231.954545,228.571429 267.75,211.428571 267.75,147.142857 C267.75,130 262.022727,114.285714 252,101.428571 C254.863636,92.8571429 256.295455,77.1428571 249.136364,57.1428571 C247.704545,55.7142857 246.272727,54.2857143 244.840909,52.8571429 C244.840909,52.8571429 241.977273,51.4285714 239.113636,51.4285714 C230.522727,51.4285714 217.636364,54.2857143 196.159091,68.5714286 C184.704545,67.1428571 171.818182,64.2857143 157.5,64.2857143 C143.181818,64.2857143 130.295455,65.7142857 117.409091,68.5714286 C97.3636364,55.7142857 83.0454545,52.8571429 74.4545455,52.8571429 C71.5909091,52.8571429 70.1590909,54.2857143 68.7272727,54.2857143 C67.2954545,54.2857143 64.4318182,57.1428571 64.4318182,58.5714286 C57.2727273,78.5714286 58.7045455,94.2857143 61.5681818,102.857143 C51.5454545,115.714286 45.8181818,131.428571 45.8181818,148.571429 C45.8181818,211.428571 83.0454545,228.571429 114.545455,235.714286 C113.113636,238.571429 111.681818,242.857143 110.25,247.142857 C107.386364,248.571429 103.090909,250 97.3636364,250 C91.6363636,250 85.9090909,248.571429 81.6136364,244.285714 C81.6136364,244.285714 80.1818182,242.857143 80.1818182,242.857143 C80.1818182,242.857143 80.1818182,242.857143 80.1818182,242.857143 C78.75,241.428571 78.75,240 77.3181818,240 C77.3181818,240 77.3181818,240 77.3181818,240 C77.3181818,240 77.3181818,240 77.3181818,240 L75.8863636,238.571429 C75.8863636,238.571429 74.4545455,237.142857 74.4545455,237.142857 C74.4545455,235.714286 63,218.571429 42.9545455,217.142857 C35.7954545,217.142857 30.0681818,220 28.6363636,224.285714 C25.7727273,231.428571 34.3636364,237.142857 38.6590909,240 C38.6590909,240 47.25,244.285714 52.9772727,260 C55.8409091,270 68.7272727,288.571429 98.7954545,288.571429 C101.659091,288.571429 104.522727,288.571429 108.818182,288.571429 L108.818182,308.571429 L107.386364,310 C107.386364,310 105.954545,310 107.386364,310 C42.9545455,284.285714 0,224.285714 0,157.142857 C0,70 70.1590909,0 157.5,0 C244.840909,0 315,70 315,157.142857 C315,224.285714 272.045455,284.285714 207.613636,305.714286 Z" id="Path"></path>
        </g>
    </g>
</svg>