<svg x="0px" y="0px" viewBox="0 0 100 100" style="enableBackground: new 0 0 100 100;">
    <path style="fill: #4285F4" d="M99,51.11C99,47,98.67,44,97.94,40.89H51v18.56h27.56C78,64.06,75,71,68.33,75.67l-0.09,0.62l14.84,11.5 l1.03,0.1C93.56,79.17,99,66.33,99,51.11" />
    <path style="fill: #34A853" d="M51,100c13.5,0,24.83-4.44,33.11-12.11L68.33,75.67c-4.22,2.94-9.89,5-17.33,5c-13.22,0-24.44-8.72-28.44-20.78 l-0.59,0.05L6.54,71.88l-0.2,0.56C14.56,88.78,31.44,100,51,100" />
    <path style="fill: #FBBC05" d="M22.56,59.89c-1.06-3.11-1.67-6.44-1.67-9.89c0-3.44,0.61-6.78,1.61-9.89l-0.03-0.66L6.84,27.31l-0.51,0.24 C2.94,34.33,1,41.94,1,50s1.94,15.67,5.33,22.44L22.56,59.89" />
    <path style="fill: #EB4335" d="M51,19.33c9.39,0,15.72,4.06,19.33,7.44L84.44,13C75.78,4.94,64.5,0,51,0C31.44,0,14.56,11.22,6.33,27.56 L22.5,40.11C26.56,28.06,37.78,19.33,51,19.33" />
</svg>