<svg x="0px" y="0px" viewBox="0 0 100 100" style="enableBackground: new 0 0 100 100;">
    <path
        style="fill: #FFFFFF"
        d="M85.2,85.2H70.4V62c0-5.5-0.1-12.7-7.7-12.7c-7.7,0-8.9,6-8.9,12.3v23.6H39V37.5h14.2V44h0.2
        c2.9-5,8.3-7.9,14-7.7c15,0,17.8,9.9,17.8,22.7L85.2,85.2z M22.2,31c-4.7,0-8.6-3.8-8.6-8.6s3.8-8.6,8.6-8.6c4.7,0,8.6,3.8,8.6,8.6
        C30.8,27.1,27,31,22.2,31L22.2,31 M29.7,85.2H14.8V37.5h14.8V85.2z M92.6,0H7.4C3.4,0,0,3.2,0,7.2v85.6c0,4,3.3,7.3,7.4,7.2h85.2
        c4,0.1,7.4-3.2,7.4-7.2V7.2C99.9,3.2,96.6-0.1,92.6,0"
    />
</svg>