<svg x="0px" y="0px" viewBox="0 0 452 452" style="enableBackground: new 0 0 100 100;">
    <g id="Page-1" stroke="none" stroke-width="1" fill="none" fill-rule="evenodd">
        <g id="Group-16">
            <g id="iconfinder_paypal_683969" transform="translate(100.000000, 78.000000)" fill="#008DD2">
                <path d="M49.3655333,0.49311875 L100.241533,0.49311875 L104.962333,0.49311875 L155.554133,0.49311875 C189.646933,0.49311875 229.290267,25.5777344 217.464933,80.7421906 C207.039133,129.467984 168.073867,158.125806 121.4646,158.125806 L96.6482,158.123944 L96.6458667,158.125806 L91.1116667,158.125806 C84.4308667,158.125806 80.005,163.659759 78.9606,170.243697 L65.5276,255.130394 L12.9076667,255.130394 C6.239,255.130394 -0.288266667,249.591784 0.754733333,243.004122 L37.2130667,12.618925 C38.2551333,6.03079687 42.6814667,0.49311875 49.3655333,0.49311875 L49.3655333,0.49311875 Z M240.545333,88.8426687 C246.902267,100.141059 249.436267,115.021503 245.425733,133.727987 C235.993,177.812431 200.739133,203.741225 158.567867,203.741225 L148.5238,203.7077 L148.5224,203.709562 L142.480467,203.741225 C136.435733,203.772422 133.4668,208.716428 132.521333,214.673169 L131.875467,218.753441 L122.277067,279.409478 C121.27,285.714041 117.115733,291.081766 110.878267,291.481737 L72.5028667,291.506418 C66.4698,291.510141 60.5641333,286.496291 61.5072667,280.536291 L61.6902,279.381541 L86.2966,279.381541 L99.2316667,197.638278 L99.5835333,197.689031 L101.775933,182.375556 L121.462733,182.376953 C180.068133,182.380678 227.060533,145.529253 240.545333,88.8426687 L240.545333,88.8426687 Z" id="Shape"></path>
            </g>
            <g id="Group-14">
                <rect id="Rectangle" fill="#FFFFFF" x="0" y="0" width="452" height="452" rx="3"></rect>
                <g id="iconfinder_paypal_683969" transform="translate(100.000000, 78.000000)" fill="#008DD2">
                    <path d="M49.3655333,0.49311875 L100.241533,0.49311875 L104.962333,0.49311875 L155.554133,0.49311875 C189.646933,0.49311875 229.290267,25.5777344 217.464933,80.7421906 C207.039133,129.467984 168.073867,158.125806 121.4646,158.125806 L96.6482,158.123944 L96.6458667,158.125806 L91.1116667,158.125806 C84.4308667,158.125806 80.005,163.659759 78.9606,170.243697 L65.5276,255.130394 L12.9076667,255.130394 C6.239,255.130394 -0.288266667,249.591784 0.754733333,243.004122 L37.2130667,12.618925 C38.2551333,6.03079687 42.6814667,0.49311875 49.3655333,0.49311875 L49.3655333,0.49311875 Z M240.545333,88.8426687 C246.902267,100.141059 249.436267,115.021503 245.425733,133.727987 C235.993,177.812431 200.739133,203.741225 158.567867,203.741225 L148.5238,203.7077 L148.5224,203.709562 L142.480467,203.741225 C136.435733,203.772422 133.4668,208.716428 132.521333,214.673169 L131.875467,218.753441 L122.277067,279.409478 C121.27,285.714041 117.115733,291.081766 110.878267,291.481737 L72.5028667,291.506418 C66.4698,291.510141 60.5641333,286.496291 61.5072667,280.536291 L61.6902,279.381541 L86.2966,279.381541 L99.2316667,197.638278 L99.5835333,197.689031 L101.775933,182.375556 L121.462733,182.376953 C180.068133,182.380678 227.060533,145.529253 240.545333,88.8426687 L240.545333,88.8426687 Z" id="Shape"></path>
                </g>
            </g>
        </g>
    </g>
</svg>