<svg x="0px" y="0px" viewBox="0 0 100 100" style="enableBackground: new 0 0 100 100;">
    <path
        style="fill: #FFFFFF"
        d="M31.41,90.66c37.74,0,58.38-31.29,58.38-58.38c0-0.88,0-1.76-0.04-2.64c4-2.88,7.48-6.52,10.24-10.64
        c-3.68,1.64-7.64,2.72-11.8,3.24c4.24-2.52,7.48-6.56,9.04-11.36c-3.96,2.36-8.36,4.04-13.05,4.96c-3.76-4-9.08-6.48-14.97-6.48
        c-11.32,0-20.53,9.2-20.53,20.53c0,1.6,0.2,3.16,0.52,4.68c-17.05-0.84-32.17-9.04-42.3-21.45c-1.76,3.04-2.76,6.56-2.76,10.32
        c0,7.12,3.64,13.41,9.12,17.09C9.92,40.4,6.76,39.48,4,37.96c0,0.08,0,0.16,0,0.28c0,9.92,7.08,18.25,16.45,20.13
        c-1.72,0.48-3.52,0.72-5.4,0.72c-1.32,0-2.6-0.12-3.84-0.36c2.6,8.16,10.2,14.09,19.17,14.25c-7.04,5.52-15.89,8.8-25.49,8.8
        c-1.64,0-3.28-0.08-4.88-0.28C9.04,87.25,19.85,90.66,31.41,90.66"
    />
</svg>