<?xml version="1.0" encoding="utf-8"?>
<!-- Generator: Adobe Illustrator 23.0.2, SVG Export Plug-In . SVG Version: 6.00 Build 0)  -->
<svg version="1.1" id="Layer_1" xmlns="http://www.w3.org/2000/svg" xmlns:xlink="http://www.w3.org/1999/xlink" x="0px" y="0px"
	 viewBox="0 0 448 84.97" style="enable-background:new 0 0 448 84.97;" xml:space="preserve">
<style type="text/css">
	.st0{fill:#FFFFFF;}
</style>
<g>
	<path class="st0" d="M440.76,8.14c-3.96,0-7.24,3.28-7.24,7.24c0,4.07,3.28,7.24,7.24,7.24c4.07,0,7.24-3.28,7.24-7.24
		C448.11,11.42,444.83,8.14,440.76,8.14z M440.76,21.26c-3.05,0-5.54-2.49-5.54-5.88s2.49-5.88,5.54-5.88
		c3.05,0,5.54,2.49,5.54,5.88C446.3,18.77,443.81,21.26,440.76,21.26z M444.15,13.68c0-1.7-1.02-2.37-3.05-2.37h-3.05v8.25h1.58
		v-3.51h0.9l2.15,3.51h1.58L442,15.94C443.25,15.72,444.15,15.04,444.15,13.68z M439.52,14.81v-2.37h1.36c0.79,0,1.7,0.11,1.7,1.13
		c0,1.13-0.79,1.24-1.7,1.24H439.52z"/>
	<g>
		<g>
			<path class="st0" d="M162.37,6.75h30.96v7.68h-22.7v17.58h21.65v7.57h-21.65v27.35h-8.26V6.75z"/>
			<path class="st0" d="M229.88,65.06c-3.03,1.16-6.4,2.79-13.5,2.79c-15.13,0-22-9.43-22-23.74c0-13.04,7.91-22.23,20.02-22.23
				c14.2,0,18.74,10.71,18.74,24.79h-30.38c0,8.73,6.63,14.67,14.08,14.67c5.24,0,11.17-2.79,13.15-4.42v8.15H229.88z M224.76,40.74
				c0-6.75-3.84-12.22-10.59-12.22c-7.68,0-10.82,6.52-11.41,12.22H224.76z"/>
			<path class="st0" d="M267.94,60.76h-0.12c-2.1,3.26-6.98,7.22-14.55,7.22c-12.92,0-18.27-11.76-18.27-23.74
				C235,32.47,241.05,22,253.39,22c7.45,0,11.64,3.03,14.08,7.1h0.12V2.33h7.8v64.6h-7.57v-6.17H267.94z M255.14,61.46
				c8.85,0,12.57-9.08,12.57-16.41c0-8.15-4.07-16.53-12.57-16.53s-11.87,8.26-11.64,16.3C243.15,51.68,246.64,61.46,255.14,61.46z"
				/>
			<path class="st0" d="M314.03,65.06c-3.03,1.16-6.4,2.79-13.5,2.79c-15.13,0-22-9.43-22-23.74c0-13.04,7.91-22.23,20.02-22.23
				c14.2,0,18.74,10.71,18.74,24.79h-30.38c0,8.73,6.63,14.67,14.08,14.67c5.24,0,11.17-2.79,13.15-4.42v8.15H314.03z M308.91,40.74
				c0-6.75-3.84-12.22-10.59-12.22c-7.68,0-10.82,6.52-11.41,12.22H308.91z"/>
			<path class="st0" d="M320.67,23.05H328v6.75h0.12c2.1-4.54,6.63-7.8,11.06-7.8c2.33,0,3.49,0.23,5.24,0.58v7.22
				c-1.4-0.58-3.03-0.81-4.31-0.81c-6.98,0-11.64,6.87-11.64,17.92v20.02h-7.8V23.05z"/>
			<path class="st0" d="M348.48,26.07c3.96-2.44,8.61-4.19,14.08-4.19c12.22,0,17.11,6.17,17.11,18.16V58.2c0,5,0.12,7.33,0.35,8.61
				h-7.33v-5.7h-0.12c-1.86,2.68-6.05,6.75-13.15,6.75c-9.2,0-15.6-4.19-15.6-13.73c0-11.06,11.64-14.43,19.79-14.43
				c3.14,0,5.24,0,8.38,0.12c0-7.57-2.68-11.41-10.48-11.41c-4.42,0-9.2,1.75-12.34,4.42L348.48,26.07z M371.88,45.98
				c-1.63,0-3.38-0.12-5-0.12c-4.31,0-14.78,0.7-14.78,8.5c0,4.66,4.31,7.1,7.91,7.1c7.8,0,11.87-5,11.87-11.52V45.98z"/>
			<path class="st0" d="M408.89,29.56H397.6v23.98c0,5.12,3.03,7.8,6.63,7.8c2.44,0,4.19-0.81,5.35-1.51v6.87
				c-1.75,0.47-4.19,1.16-6.63,1.16c-8.15,0-13.15-3.96-13.15-12.8V29.56h-9.66v-6.52h9.66V12.92l7.8-2.56v12.8h11.29L408.89,29.56
				L408.89,29.56z"/>
			<path class="st0" d="M444.74,65.06c-3.03,1.16-6.4,2.79-13.5,2.79c-15.13,0-22-9.43-22-23.74c0-13.04,7.91-22.23,20.02-22.23
				c14.2,0,18.74,10.71,18.74,24.79h-30.38c0,8.73,6.63,14.67,14.08,14.67c5.24,0,11.17-2.79,13.15-4.42v8.15H444.74z M439.62,40.74
				c0-6.75-3.84-12.22-10.59-12.22c-7.68,0-10.82,6.52-11.41,12.22H439.62z"/>
		</g>
		<g>
			<g>
				<g>
					<g>
						<path class="st0" d="M16.53,3.72c10.71,0,13.97,1.05,17.58,3.14c5.94,3.26,9.08,9.08,9.08,16.41
							c0,8.38-3.96,15.13-10.94,18.39c-2.91,1.4-5.59,2.1-12.69,2.1h-6.98v23.28H0V3.72H16.53z M12.69,33.29h6.63
							c5.24,0,6.75-0.7,8.5-3.26c1.05-1.75,1.51-3.61,1.51-6.52c0-5.94-3.14-9.43-8.5-9.43H12.8v19.2H12.69z"/>
						<path class="st0" d="M61.11,7.57c0,4.19-3.38,7.57-7.57,7.57c-4.07,0-7.45-3.38-7.45-7.57S49.58,0,53.77,0
							C57.85,0,61.11,3.38,61.11,7.57z M59.71,19.32v47.61H47.49V21.18L59.71,19.32z"/>
						<path class="st0" d="M76.12,19.2c1.05,1.86,1.75,3.96,1.75,5.82c1.86-1.28,3.38-2.33,5.35-3.49c2.44-1.28,5.59-1.98,8.38-1.98
							c5.24,0,9.78,2.68,11.17,6.75c0.58,1.75,0.93,3.72,0.93,6.63v33.99H91.72V36.66c0-5.24-0.93-6.87-4.07-6.87
							c-2.44,0-5.59,1.63-8.5,4.19v32.94H66.93V33.17c0-3.96-0.58-7.8-1.63-10.94L76.12,19.2z"/>
						<path class="st0" d="M156.78,25.49c-2.68,2.44-5.24,3.49-8.5,3.49c-1.16,0-2.44-0.23-3.14-0.23c1.86,2.21,2.68,4.54,2.68,7.68
							c0,8.03-7.22,13.85-17.23,13.85c-0.58,0-0.93,0-1.86-0.12c-3.03,1.51-4.77,2.56-4.77,3.84c0,0.7,0.7,1.05,1.98,1.05l6.52,0.12
							c7.1,0.12,10.82,1.16,14.08,4.19c2.68,2.56,3.96,5.7,3.96,9.89c0,3.96-1.16,6.87-3.72,9.66c-4.07,4.42-11.06,6.05-18.39,6.05
							c-6.63,0-13.5-1.05-17.58-5c-2.56-2.33-3.84-5.12-3.84-8.26c0-2.56,0.58-3.84,1.05-4.77h11.29c-0.47,1.05-0.58,1.75-0.58,3.03
							c0,3.72,3.14,5.7,8.73,5.7c3.14,0,5.7-0.35,7.68-1.51c1.86-1.05,3.03-2.79,3.03-4.77c0-4.19-3.72-5.47-8.5-5.59l-5.24-0.12
							c-5.47-0.12-8.96-0.58-11.17-1.4s-3.49-2.91-3.49-6.05c0-3.03,0.93-5.82,8.5-7.8c-6.75-1.75-10.01-6.05-10.01-12.92
							c0-9.54,7.68-15.71,19.67-15.71c2.68,0,5,0.35,8.38,1.16c2.56,0.58,4.19,1.05,5.7,1.05c3.38,0,6.87-1.4,9.66-3.96
							L156.78,25.49z M120.58,35.38c0,4.77,2.91,6.63,7.22,6.63c4.77,0,7.45-2.33,7.45-6.63s-2.68-6.87-7.33-6.87
							C123.26,28.4,120.58,30.96,120.58,35.38z"/>
					</g>
				</g>
			</g>
		</g>
	</g>
</g>
</svg>
