<?xml version="1.0" encoding="UTF-8"?>
<svg width="76px" height="21px" viewBox="0 0 76 21" version="1.1" xmlns="http://www.w3.org/2000/svg" xmlns:xlink="http://www.w3.org/1999/xlink">
    <!-- Generator: Sketch 48.2 (47327) - http://www.bohemiancoding.com/sketch -->
    <title>logo-pingone</title>
    <desc>Created with Sketch.</desc>
    <defs></defs>
    <g id="Page-1" stroke="none" stroke-width="1" fill="none" fill-rule="evenodd">
        <path d="M73.825,4.363 L74.018,4.363 C74.242,4.363 74.425,4.288 74.425,4.106 C74.425,3.946 74.307,3.839 74.05,3.839 C73.943,3.839 73.868,3.849 73.825,3.86 L73.825,4.363 Z M73.815,5.358 L73.408,5.358 L73.408,3.603 C73.568,3.571 73.793,3.55 74.082,3.55 C74.414,3.55 74.563,3.603 74.692,3.678 C74.788,3.753 74.863,3.892 74.863,4.063 C74.863,4.256 74.713,4.406 74.499,4.47 L74.499,4.492 C74.67,4.555 74.767,4.684 74.82,4.92 C74.874,5.186 74.906,5.294 74.949,5.358 L74.51,5.358 C74.457,5.294 74.425,5.134 74.37,4.93 C74.339,4.738 74.232,4.652 74.007,4.652 L73.815,4.652 L73.815,5.358 Z M72.734,4.438 C72.734,5.218 73.312,5.84 74.103,5.84 C74.874,5.84 75.44,5.218 75.44,4.449 C75.44,3.668 74.874,3.036 74.093,3.036 C73.312,3.036 72.734,3.668 72.734,4.438 Z M75.89,4.438 C75.89,5.432 75.109,6.214 74.093,6.214 C73.087,6.214 72.285,5.432 72.285,4.438 C72.285,3.465 73.087,2.683 74.093,2.683 C75.109,2.683 75.89,3.465 75.89,4.438 Z M28.994,8.501 C28.994,9.637 29.696,10.093 30.723,10.093 C31.879,10.093 32.514,9.528 32.514,8.501 C32.514,7.453 31.859,6.839 30.742,6.839 C29.631,6.839 28.994,7.453 28.994,8.501 Z M37.693,6.118 C37.058,6.709 36.448,6.949 35.638,6.949 C35.356,6.949 35.048,6.905 34.874,6.885 C35.311,7.407 35.53,7.976 35.53,8.717 C35.53,10.638 33.782,12.042 31.4,12.042 C31.269,12.042 31.181,12.042 30.962,12.017 C30.221,12.371 29.805,12.632 29.805,12.935 C29.805,13.09 29.98,13.2 30.284,13.2 L31.859,13.22 C33.562,13.242 34.46,13.505 35.245,14.225 C35.899,14.84 36.208,15.601 36.208,16.609 C36.208,17.549 35.923,18.267 35.311,18.923 C34.327,19.974 32.643,20.365 30.895,20.365 C29.303,20.365 27.663,20.105 26.658,19.164 C26.045,18.593 25.741,17.938 25.741,17.174 C25.741,16.565 25.893,16.259 26.002,16.039 L28.712,16.039 C28.602,16.302 28.579,16.456 28.579,16.761 C28.579,17.656 29.324,18.134 30.679,18.134 C31.421,18.134 32.055,18.051 32.514,17.767 C32.95,17.502 33.237,17.089 33.237,16.631 C33.237,15.623 32.339,15.319 31.181,15.299 L29.935,15.273 C28.625,15.253 27.774,15.142 27.247,14.926 C26.722,14.726 26.395,14.225 26.395,13.464 C26.395,12.74 26.615,12.061 28.45,11.582 C26.833,11.167 26.045,10.14 26.045,8.476 C26.045,6.184 27.905,4.702 30.766,4.702 C31.4,4.702 31.969,4.787 32.777,4.98 C33.387,5.134 33.782,5.223 34.153,5.223 C34.961,5.223 35.79,4.875 36.47,4.26 L37.693,6.118 Z M18.31,4.611 C18.573,5.07 18.724,5.55 18.724,6.009 C19.163,5.702 19.534,5.44 20.017,5.177 C20.605,4.875 21.37,4.702 22.025,4.702 C23.272,4.702 24.364,5.353 24.713,6.316 C24.867,6.73 24.931,7.214 24.931,7.91 L24.931,16.084 L22.047,16.084 L22.047,8.806 C22.047,7.541 21.828,7.168 21.062,7.168 C20.475,7.168 19.711,7.561 19.033,8.173 L19.033,16.084 L16.103,16.084 L16.103,7.976 C16.103,7.014 15.973,6.095 15.71,5.353 L18.31,4.611 Z M14.355,4.63 L14.355,16.084 L11.43,16.084 L11.43,5.092 L14.355,4.63 Z M14.706,1.814 C14.706,2.82 13.897,3.628 12.891,3.628 C11.909,3.628 11.101,2.82 11.101,1.814 C11.101,0.808 11.93,0 12.934,0 C13.917,0 14.706,0.808 14.706,1.814 Z M3.058,7.999 L4.654,7.999 C5.9,7.999 6.272,7.843 6.685,7.214 C6.95,6.796 7.057,6.359 7.057,5.635 C7.057,4.217 6.292,3.366 5.002,3.366 L3.058,3.366 L3.058,7.999 Z M3.998,0.895 C6.577,0.895 7.363,1.159 8.216,1.639 C9.637,2.425 10.399,3.825 10.399,5.575 C10.399,7.584 9.438,9.2 7.778,9.987 C7.079,10.312 6.422,10.488 4.741,10.488 L3.058,10.488 L3.058,16.084 L0,16.084 L0,0.895 L3.998,0.895 Z M70.278,9.791 C70.278,8.176 69.354,6.851 67.728,6.851 C65.881,6.851 65.117,8.425 64.977,9.791 L70.278,9.791 Z M71.502,15.648 C70.78,15.918 69.956,16.332 68.27,16.332 C64.636,16.332 62.97,14.054 62.97,10.619 C62.97,7.493 64.877,5.278 67.768,5.278 C71.181,5.278 72.285,7.844 72.285,11.239 L64.977,11.239 C64.977,13.33 66.563,14.759 68.35,14.759 C69.595,14.759 71.04,14.096 71.502,13.703 L71.502,15.648 Z M52.991,5.526 L54.818,5.526 L54.818,7.203 L54.858,7.203 C55.42,6.003 56.785,5.277 58.211,5.277 C60.861,5.277 62.046,6.975 62.046,9.811 L62.046,16.084 L60.158,16.084 L60.158,10.619 C60.158,8.155 59.636,6.954 57.99,6.851 C55.842,6.851 54.878,8.632 54.878,11.198 L54.878,16.084 L52.991,16.084 L52.991,5.526 Z M45.179,14.51 C48.412,14.51 49.798,11.736 49.798,8.859 C49.798,5.919 48.272,3.186 45.179,3.208 C42.088,3.186 40.562,5.919 40.562,8.859 C40.562,11.736 41.948,14.51 45.179,14.51 Z M45.179,1.385 C49.436,1.385 51.926,4.574 51.926,8.859 C51.926,13.248 49.456,16.332 45.179,16.332 C40.903,16.332 38.434,13.248 38.434,8.859 C38.434,4.574 40.923,1.385 45.179,1.385 Z" id="logo-pingone" fill="#FEFEFE"></path>
    </g>
</svg>