<svg id="Layer_1" data-name="Layer 1" xmlns="http://www.w3.org/2000/svg" xmlns:xlink="http://www.w3.org/1999/xlink" viewBox="0 0 633.79 202.4"><defs><style>.cls-1{fill:#051727;}.cls-2{fill:url(#linear-gradient);}.cls-3{fill:url(#linear-gradient-2);}.cls-4{fill:url(#linear-gradient-3);}</style><linearGradient id="linear-gradient" x1="357.8" y1="76.5" x2="610.79" y2="76.5" gradientUnits="userSpaceOnUse"><stop offset="0" stop-color="#ff7f27"/><stop offset="0.35" stop-color="#d84332"/><stop offset="0.9" stop-color="#b3282d"/></linearGradient><linearGradient id="linear-gradient-2" x1="357.8" y1="42.5" x2="610.79" y2="42.5" xlink:href="#linear-gradient"/><linearGradient id="linear-gradient-3" x1="323.3" y1="59.5" x2="610.79" y2="59.5" gradientUnits="userSpaceOnUse"><stop offset="0" stop-color="#ff7f27"/><stop offset="0.11" stop-color="#fb7828"/><stop offset="0.27" stop-color="#ee652c"/><stop offset="0.47" stop-color="#da4631"/><stop offset="0.48" stop-color="#d84332"/><stop offset="0.74" stop-color="#b3282d"/></linearGradient></defs><path class="cls-1" d="M97.6,181.6a159.67,159.67,0,0,0,1,17.8H76.4a97.43,97.43,0,0,1-1-12.6c-4.6,8.2-14.8,15-28.6,15-28,0-46.8-22-46.8-51.4,0-28,19-51,46.4-51,17,0,25.6,7.8,28.6,14V51H97.6Zm-48.2-.2c15.2,0,25.8-12.6,25.8-31.2S64.8,120,49.6,120s-26.4,11.8-26.4,30.4S33.6,181.4,49.4,181.4Z"/><path class="cls-1" d="M147.8,143.6l25-3.8c5.6-.8,7.2-3.6,7.2-7,0-8.2-5.6-14.8-18.4-14.8-12.2,0-19,7.8-20,17.6l-21.2-4.8c1.8-16.8,17-31.8,41-31.8,30,0,41.4,17,41.4,36.4v48.4a88.34,88.34,0,0,0,1.2,15.6H182.4c-.2-.6-1-4.6-1-12.4-4.6,7.4-14.2,15.4-30,15.4-20.4,0-33-14-33-29.4C118.4,155.6,131.2,146,147.8,143.6ZM180,159v-4.4l-25.4,3.8c-7.2,1.2-13,5.2-13,13.2,0,6.6,5,12.6,14.2,12.6C168.8,184.2,180,178,180,159Z"/><path class="cls-1" d="M278.2,199.4H255L215.4,102H241l25.8,69.6L292,102h24.4Z"/><path class="cls-1" d="M334.8,199.4V102h23v97.4Z"/><path class="cls-1" d="M409.8,199.4H386.6V102h22.6v13c6.4-11.2,18-15.8,28.8-15.8,23.79,0,35.2,17.2,35.2,38.6v61.6H450V141.8c0-12-5.4-21.6-20-21.6-13.2,0-20.2,10.2-20.2,23Z"/><path class="cls-1" d="M518,150.6c0,19.6,12.6,30.6,27.2,30.6,15.2,0,22.2-10.6,24.4-18l20.4,7.4c-4.6,15.2-19.2,31.8-44.8,31.8-28.6,0-50.4-22.2-50.4-51.8,0-30,21.8-51.6,49.8-51.6,26.2,0,40.6,16.4,44.6,32l-20.8,7.6c-2.2-8.6-8.8-18.2-23.6-18.2C530.59,120.4,518,131,518,150.6Z"/><path class="cls-1" d="M610.79,199.4V102h23v97.4Z"/><rect class="cls-1" x="334.8" y="68" width="23" height="17"/><rect class="cls-1" x="610.79" y="68" width="23" height="17"/><rect class="cls-1" x="300.3" y="34" width="23" height="17"/><rect class="cls-1" x="334.8" width="23" height="17"/><rect class="cls-2" x="357.8" y="68" width="253" height="17"/><path class="cls-3" d="M610.79,85H564.53a128.24,128.24,0,0,1-69-20.08l-47.94-30.5A111.33,111.33,0,0,0,387.77,17h-30V0h30a128.26,128.26,0,0,1,69,20.08l47.94,30.5A111.31,111.31,0,0,0,564.53,68h46.26Z"/><path class="cls-4" d="M610.79,85H552.53a188.13,188.13,0,0,1-57.14-8.87L441.75,59.07a171.07,171.07,0,0,0-52-8.07H323.3V34h66.47a188.06,188.06,0,0,1,57.13,8.87l53.65,17.06a171.07,171.07,0,0,0,52,8.07h58.26Z"/></svg>
