<?xml version="1.0" encoding="UTF-8"?>
<svg width="104px" height="30px" viewBox="0 0 104 30" version="1.1" xmlns="http://www.w3.org/2000/svg" xmlns:xlink="http://www.w3.org/1999/xlink">
    <!-- Generator: Sketch 48.2 (47327) - http://www.bohemiancoding.com/sketch -->
    <title>logo-uilibrary</title>
    <desc>Created with Sketch.</desc>
    <defs></defs>
    <g id="logo-uilibrary" stroke="none" stroke-width="1" fill="none" fill-rule="evenodd">
        <g fill="#FFFFFF" fill-rule="nonzero" id="Shape">
            <path d="M0,0.045 L0,29.0725 L29.0275,29.0725 L29.0275,0.045 L0,0.045 Z M17.5061842,18.2252632 C17.5061842,20.0186842 17.4790789,20.3718421 17.2073684,21.1869737 C16.7182895,22.6814474 14.8706579,24.7465789 10.7947368,24.7465789 C7.91447368,24.7465789 5.79513158,23.8771053 4.73539474,22.2196053 C4.11039474,21.2414474 3.92026316,20.4806579 3.92026316,18.6601316 L3.92026316,5.50881579 L7.80578947,5.50881579 L7.80578947,17.9264474 C7.80578947,19.0948684 7.91447368,19.7742105 8.13184211,20.1817105 C8.56657895,21.0240789 9.46328947,21.4860526 10.7132895,21.4860526 C12.3707895,21.4860526 13.4305263,20.6707895 13.5935526,19.2851316 C13.6478947,18.8776316 13.6478947,18.6057895 13.6478947,17.6005263 L13.6478947,5.50881579 L17.5063158,5.50881579 L17.5063158,18.2252632 L17.5061842,18.2252632 Z M24.3221053,24.3934211 L20.355,24.3934211 L20.355,5.50881579 L24.3221053,6.93736842 L24.3221053,24.3934211 Z"></path>
            <polygon points="43.0475 24.3934211 33.7546053 24.3934211 33.7546053 5.75328947 35.9827632 5.75328947 35.9827632 22.5184211 43.3464474 22.5184211"></polygon>
            <path d="M46.4232895,8.33460526 C45.4994737,8.33460526 44.7657895,7.60105263 44.7657895,6.70434211 C44.7657895,5.78052632 45.4994737,5.01960526 46.4232895,5.01960526 C47.3471053,5.01960526 48.0807895,5.75328947 48.0807895,6.67710526 C48.0807895,7.60092105 47.3471053,8.33460526 46.4232895,8.33460526 Z M45.2819737,24.3934211 L45.2819737,10.9160526 L47.4828947,10.5627632 L47.4828947,24.3934211 L45.2819737,24.3934211 Z"></path>
            <path d="M56.1844737,24.7194737 C54.7715789,24.7194737 53.2226316,23.9315789 52.4619737,22.9260526 C52.4076316,23.4967105 52.3532895,23.8498684 52.0815789,24.3934211 L49.9621053,24.3934211 C50.2609211,23.7413158 50.3696053,22.8446053 50.3696053,21.0240789 L50.3696053,7.70973684 C50.3696053,6.13381579 50.0978947,5.12842105 50.0163158,4.93815789 L52.1356579,4.53052632 C52.2172368,4.74789474 52.4889474,5.88907895 52.4889474,7.73684211 L52.4889474,10.8888158 C52.4889474,11.4865789 52.4347368,12.2202632 52.4347368,12.3832895 C53.7661842,11.0790789 54.8802632,10.5627632 56.3202632,10.5627632 C59.5538158,10.5627632 61.5644737,13.1984211 61.5644737,17.4372368 C61.5644737,21.7848684 59.4180263,24.7194737 56.1844737,24.7194737 Z M58.4125,13.6603947 C57.8963158,12.9267105 56.9181579,12.4919737 55.8584211,12.4919737 C54.5269737,12.4919737 53.1955263,13.2527632 52.4619737,14.2581579 L52.4619737,21.2142105 C53.1684211,22.1380263 54.5271053,22.8446053 55.8040789,22.8446053 C56.7278947,22.8446053 57.7603947,22.3555263 58.2496053,21.6490789 C58.7388158,20.9153947 59.2006579,19.5839474 59.2006579,17.3015789 C59.2005263,15.5080263 58.9831579,14.4484211 58.4125,13.6603947 Z"></path>
            <path d="M69.2538158,12.8996053 C69.1178947,12.8452632 68.8734211,12.7909211 68.6560526,12.7909211 C67.8407895,12.7909211 67.0256579,13.1442105 66.4006579,13.7690789 C65.7757895,14.3940789 65.6126316,14.8015789 65.6126316,15.9156579 L65.6126316,24.3932895 L63.4934211,24.3932895 L63.4934211,13.9592105 C63.4934211,12.1930263 63.1130263,11.2692105 63.0314474,11.0789474 L65.1509211,10.5082895 C65.2596053,10.7256579 65.6671053,11.7038158 65.5856579,12.7092105 C66.5638158,11.3234211 68.0039474,10.4539474 69.3897368,10.4539474 C69.7157895,10.4539474 70.0418421,10.5626316 70.1234211,10.5897368 L69.2538158,12.8996053 Z"></path>
            <path d="M80.9376316,24.9096053 C80.0138158,24.6107895 79.3344737,23.8771053 79.09,22.9260526 C77.7856579,24.2303947 76.7259211,24.7465789 75.1772368,24.7465789 C71.835,24.7465789 70.8296053,22.7086842 70.8296053,20.8881579 C70.8296053,17.8177632 73.4653947,16.0243421 78.0031579,16.0243421 C78.3019737,16.0243421 78.5193421,16.0243421 78.9542105,16.0515789 L78.9542105,15.1005263 C78.9542105,13.905 78.8998684,13.4159211 78.5194737,12.9811842 C78.0847368,12.4919737 77.5413158,12.2475 76.6989474,12.2475 C75.1773684,12.2475 73.2481579,13.0626316 72.3786842,13.8506579 L71.3189474,12.3289474 C73.1123684,11.1334211 75.0414474,10.5084211 76.9978947,10.5084211 C78.8726316,10.5084211 80.1769737,11.2421053 80.7476316,12.6278947 C81.0464474,13.3614474 81.0736842,14.3940789 81.0464474,15.6167105 L80.9377632,20.0730263 C80.8834211,22.2739474 81.0193421,22.8446053 82.0246053,23.3880263 L80.9376316,24.9096053 Z M77.84,17.4644737 C74.4163158,17.4644737 73.1936842,18.6328947 73.1936842,20.6978947 C73.1936842,22.3010526 73.9815789,23.1705263 75.5303947,23.1705263 C76.9161842,23.1705263 78.1931579,22.3281579 78.8181579,21.0510526 L78.8997368,17.5186842 C78.6280263,17.4917105 78.1388158,17.4644737 77.84,17.4644737 Z"></path>
            <path d="M90.04,12.8996053 C89.9040789,12.8452632 89.6596053,12.7909211 89.4422368,12.7909211 C88.6269737,12.7909211 87.8118421,13.1442105 87.1868421,13.7690789 C86.5619737,14.3940789 86.3988158,14.8015789 86.3988158,15.9156579 L86.3988158,24.3932895 L84.2794737,24.3932895 L84.2794737,13.9592105 C84.2794737,12.1930263 83.8990789,11.2692105 83.8175,11.0789474 L85.9369737,10.5082895 C86.0455263,10.7256579 86.4531579,11.7038158 86.3717105,12.7092105 C87.3498684,11.3234211 88.79,10.4539474 90.1757895,10.4539474 C90.5018421,10.4539474 90.8278947,10.5626316 90.9094737,10.5897368 L90.04,12.8996053 Z"></path>
            <path d="M99.1694737,24.8825 C98.2727632,27.5997368 97.1586842,29.3930263 94.7947368,29.9636842 L94.1697368,28.5235526 C95.9088158,27.9801316 96.5609211,27.1106579 97.2944737,24.3661842 L96.8752632,26.0239474 C96.7121053,25.1544737 95.5282895,20.9969737 95.0663158,19.6382895 L92.1589474,11.1606579 L94.2511842,10.4542105 L97.0227632,19.2307895 C97.3760526,20.3719737 97.7564474,22.1925 97.8380263,22.6001316 L97.8922368,22.6001316 C98.1640789,21.6490789 98.4628947,20.6980263 98.7346053,19.7471053 L101.397368,10.8618421 L103.815789,10.8618421 L99.1694737,24.8825 Z"></path>
        </g>
    </g>
</svg>