<?xml version="1.0" encoding="iso-8859-1"?>
<!-- Generator: Adobe Illustrator 21.1.0, SVG Export Plug-In . SVG Version: 6.00 Build 0)  -->
<svg version="1.1" id="Layer_1" xmlns="http://www.w3.org/2000/svg" xmlns:xlink="http://www.w3.org/1999/xlink" x="0px" y="0px"
	 viewBox="0 0 785 240" style="enable-background:new 0 0 785 240;" xml:space="preserve">
<path style="fill:#FFFFFF;" d="M7,7.342v220.609h220.609V7.342H7z M140.047,145.512c0,13.63-0.206,16.314-2.271,22.509
	c-3.717,11.358-17.759,27.053-48.736,27.053c-21.89,0-37.997-6.608-46.051-19.205c-4.75-7.434-6.195-13.216-6.195-27.052v-99.95
	h29.53v94.374c0,8.88,0.826,14.043,2.478,17.14c3.304,6.402,10.119,9.913,19.619,9.913c12.597,0,20.651-6.196,21.89-16.727
	c0.413-3.097,0.413-5.163,0.413-12.803V48.867h29.324V145.512z M191.848,192.39h-30.15V48.867l30.15,10.857V192.39z"/>
<path style="fill:#FFFFFF;" d="M318.161,192.39h-70.626V50.725h16.934v127.415h55.964L318.161,192.39z"/>
<path style="fill:#FFFFFF;" d="M343.817,70.343c-7.021,0-12.597-5.575-12.597-12.39c0-7.021,5.576-12.804,12.597-12.804
	c7.021,0,12.597,5.576,12.597,12.597S350.838,70.343,343.817,70.343z M335.143,192.39V89.962l16.727-2.685V192.39H335.143z"/>
<path style="fill:#FFFFFF;" d="M418.002,194.868c-10.738,0-22.51-5.988-28.291-13.63c-0.413,4.337-0.826,7.021-2.891,11.152h-16.108
	c2.271-4.956,3.097-11.771,3.097-25.607V65.594c0-11.977-2.065-19.618-2.685-21.064l16.107-3.098
	c0.62,1.652,2.685,10.325,2.685,24.368v23.955c0,4.543-0.412,10.119-0.412,11.358c10.119-9.912,18.586-13.836,29.53-13.836
	c24.575,0,39.856,20.031,39.856,52.246C458.89,172.565,442.577,194.868,418.002,194.868z M434.935,110.819
	c-3.923-5.576-11.357-8.88-19.411-8.88c-10.119,0-20.238,5.782-25.813,13.423v52.866c5.369,7.021,15.695,12.391,25.4,12.391
	c7.021,0,14.868-3.717,18.586-9.086c3.718-5.576,7.228-15.695,7.228-33.041C440.924,124.861,439.272,116.808,434.935,110.819z"/>
<path style="fill:#FFFFFF;" d="M517.329,105.037c-1.033-0.413-2.891-0.826-4.543-0.826c-6.196,0-12.391,2.685-17.141,7.434
	c-4.749,4.75-5.989,7.847-5.989,16.314v64.43H473.55v-79.299c0-13.423-2.891-20.444-3.511-21.89l16.108-4.337
	c0.826,1.652,3.923,9.086,3.304,16.727c7.434-10.532,18.379-17.14,28.911-17.14c2.478,0,4.956,0.826,5.576,1.032L517.329,105.037z"
	/>
<path style="fill:#FFFFFF;" d="M606.126,196.313c-7.021-2.271-12.184-7.847-14.042-15.075c-9.913,9.913-17.967,13.836-29.737,13.836
	c-25.401,0-33.042-15.488-33.042-29.324c0-23.335,20.032-36.965,54.519-36.965c2.271,0,3.923,0,7.228,0.207v-7.228
	c0-9.086-0.413-12.803-3.304-16.107c-3.304-3.718-7.434-5.576-13.836-5.576c-11.564,0-26.226,6.195-32.834,12.184l-8.054-11.565
	c13.63-9.086,28.291-13.836,43.16-13.836c14.248,0,24.161,5.576,28.498,16.108c2.271,5.575,2.478,13.423,2.271,22.715l-0.826,33.868
	c-0.413,16.727,0.62,21.064,8.26,25.194L606.126,196.313z M582.584,139.73c-26.02,0-35.312,8.88-35.312,24.574
	c0,12.184,5.988,18.792,17.759,18.792c10.532,0,20.237-6.402,24.987-16.108l0.62-26.846
	C588.573,139.937,584.855,139.73,582.584,139.73z"/>
<path style="fill:#FFFFFF;" d="M675.304,105.037c-1.033-0.413-2.891-0.826-4.543-0.826c-6.196,0-12.391,2.685-17.141,7.434
	c-4.749,4.75-5.989,7.847-5.989,16.314v64.43h-16.107v-79.299c0-13.423-2.891-20.444-3.511-21.89l16.108-4.337
	c0.825,1.652,3.923,9.086,3.304,16.727c7.434-10.532,18.379-17.14,28.911-17.14c2.478,0,4.956,0.826,5.576,1.032L675.304,105.037z"
	/>
<path style="fill:#FFFFFF;" d="M744.688,196.107c-6.815,20.651-15.282,34.28-33.248,38.617l-4.75-10.945
	c13.217-4.13,18.173-10.738,23.748-31.596l-3.186,12.599c-1.24-6.608-10.237-38.205-13.748-48.531l-22.096-64.43l15.901-5.369
	l21.064,66.702c2.685,8.673,5.576,22.509,6.196,25.607h0.412c2.066-7.228,4.337-14.456,6.402-21.683l20.237-67.528H780
	L744.688,196.107z"/>
</svg>
