<?xml version="1.0" encoding="UTF-8"?>
<svg width="95px" height="21px" viewBox="0 0 95 21" version="1.1" xmlns="http://www.w3.org/2000/svg" xmlns:xlink="http://www.w3.org/1999/xlink">
    <!-- Generator: Sketch 48.2 (47327) - http://www.bohemiancoding.com/sketch -->
    <title>logo-pingaccess</title>
    <desc>Created with Sketch.</desc>
    <defs></defs>
    <g id="Page-1" stroke="none" stroke-width="1" fill="none" fill-rule="evenodd">
        <g id="logo-pingaccess" fill="#FFFFFF">
            <g id="Group" transform="translate(0.000000, 0.126437)">
                <path d="M84.022707,13.9677837 C84.2197727,14.0969726 84.4312579,14.2121801 84.6563143,14.3122875 C84.8813707,14.4126746 85.1067098,14.4951653 85.332049,14.5600394 C85.5571054,14.6243543 85.7719834,14.6710524 85.9761174,14.6998543 C86.1799688,14.7286562 86.3524366,14.7429173 86.4932382,14.7429173 C86.7185774,14.7429173 86.9507022,14.7180302 87.190178,14.6676969 C87.4293711,14.6173635 87.6473592,14.5312376 87.8452731,14.409319 C88.0417734,14.2874005 88.2040628,14.1257745 88.330445,13.9247207 C88.4576753,13.7239466 88.5204423,13.4725595 88.5204423,13.1711187 C88.5204423,12.840876 88.4045213,12.5609666 88.1721138,12.3313906 C87.9402718,12.1020943 87.6513175,11.8898553 87.306099,11.6963516 C86.9611633,11.5022885 86.5882369,11.31242 86.1873199,11.1256273 C85.7861201,10.9393939 85.4129109,10.7165291 85.0679752,10.4581512 C84.7230395,10.1997734 84.4346507,9.89833252 84.2022432,9.55354909 C83.9701184,9.20932492 83.8536319,8.77869516 83.8536319,8.26165982 C83.8536319,7.68813929 83.9523062,7.18900025 84.1493719,6.76564087 C84.3467204,6.34228148 84.6141869,5.99022768 84.9517715,5.71031834 C85.2899216,5.430409 85.6908386,5.22264412 86.1556536,5.08590519 C86.6204686,4.94972552 87.1194945,4.88121624 87.6547103,4.88121624 C88.1195253,4.88121624 88.5487157,4.92455885 88.9428472,5.01040517 C89.3369786,5.09681075 89.7313928,5.19663856 90.125807,5.31156637 L89.9564492,7.07770763 C89.8436383,7.00584279 89.6926582,6.93761314 89.5023781,6.87329831 C89.3123808,6.80842421 89.115315,6.74746494 88.911181,6.69014085 C88.7070469,6.63281675 88.5099812,6.58975378 88.3199838,6.56067229 C88.1299864,6.53242969 87.9787236,6.51788894 87.8661954,6.51788894 C87.359253,6.51788894 86.9159258,6.62554638 86.5359311,6.84086126 C86.1556536,7.05617614 85.9656563,7.3936892 85.9656563,7.85256156 C85.9656563,8.22614685 86.0815773,8.53094324 86.3142675,8.7677896 C86.5463923,9.0049156 86.8344984,9.2129601 87.1797168,9.39220275 C87.5243698,9.57200465 87.8975789,9.7512473 88.2990615,9.93048994 C88.6999785,10.1102918 89.0729049,10.3256067 89.4181233,10.5767142 C89.7627763,10.8278217 90.0514479,11.1398884 90.2838554,11.5131941 C90.5162629,11.8864998 90.6321839,12.3674629 90.6321839,12.9555242 C90.6321839,13.5444243 90.5267241,14.0539097 90.3158044,14.4845394 C90.1043192,14.9151692 89.822716,15.2705785 89.4709946,15.5504879 C89.1189906,15.8303972 88.7177908,16.0384417 88.2671125,16.1746214 C87.8164342,16.3108011 87.351902,16.3793103 86.873233,16.3793103 C86.3668561,16.3793103 85.8599137,16.3396029 85.353254,16.261027 C84.8463117,16.1818918 84.3676427,16.0205454 83.9172471,15.7761491 L84.022707,13.9677837 Z M77.0773419,13.9677837 C77.2744076,14.0969726 77.48561,14.2121801 77.7109492,14.3122875 C77.9360056,14.4126746 78.1613447,14.4951653 78.3866838,14.5600394 C78.6114575,14.6243543 78.8263355,14.6710524 79.0307523,14.6998543 C79.2346037,14.7286562 79.4070715,14.7429173 79.5481559,14.7429173 C79.7732123,14.7429173 80.005337,14.7180302 80.2450956,14.6676969 C80.484006,14.6173635 80.7022768,14.5312376 80.8996252,14.409319 C81.0964082,14.2874005 81.2586976,14.1257745 81.3853626,13.9247207 C81.5120275,13.7239466 81.5753599,13.4725595 81.5753599,13.1711187 C81.5753599,12.840876 81.4591562,12.5609666 81.2267487,12.3313906 C80.9946239,12.1020943 80.7059523,11.8898553 80.3610166,11.6963516 C80.0157982,11.5022885 79.6431545,11.31242 79.2419547,11.1256273 C78.8407549,10.9393939 78.4675458,10.7165291 78.1226101,10.4581512 C77.7773917,10.1997734 77.4892856,9.89833252 77.2568781,9.55354909 C77.0244706,9.20932492 76.9082668,8.77869516 76.9082668,8.26165982 C76.9082668,7.68813929 77.006941,7.18900025 77.2040068,6.76564087 C77.4010725,6.34228148 77.6688218,5.99022768 78.0064064,5.71031834 C78.3442737,5.430409 78.7454735,5.22264412 79.2102885,5.08590519 C79.6748208,4.94972552 80.1744121,4.88121624 80.7093451,4.88121624 C81.1741601,4.88121624 81.6033506,4.92455885 81.9977648,5.01040517 C82.3918962,5.09681075 82.7860277,5.19719782 83.1804419,5.31212563 L83.0113668,7.07770763 C82.8985559,7.00584279 82.7472931,6.93761314 82.5572957,6.87329831 C82.3672984,6.80842421 82.1699499,6.74746494 81.9660986,6.69014085 C81.7616818,6.63281675 81.5648988,6.58975378 81.3746187,6.56067229 C81.1846213,6.53242969 81.0333585,6.51788894 80.9205476,6.51788894 C80.4138879,6.51788894 79.970278,6.62554638 79.5902832,6.84086126 C79.2102885,7.05617614 79.0202911,7.3936892 79.0202911,7.85256156 C79.0202911,8.22614685 79.1362122,8.53094324 79.3686197,8.7677896 C79.6007444,9.0049156 79.8891333,9.2129601 80.2343517,9.39220275 C80.5790047,9.57200465 80.9524965,9.7512473 81.3536963,9.93048994 C81.7548961,10.1102918 82.1278225,10.3256067 82.4730409,10.5767142 C82.8174112,10.8278217 83.1063655,11.1398884 83.3384903,11.5131941 C83.5708978,11.8864998 83.6871015,12.3674629 83.6871015,12.9555242 C83.6871015,13.5444243 83.5816417,14.0539097 83.3701565,14.4845394 C83.1589541,14.9151692 82.8773508,15.2705785 82.5256295,15.5504879 C82.1736255,15.8303972 81.7721429,16.0384417 81.3217474,16.1746214 C80.8713518,16.3108011 80.4065368,16.3793103 79.9281506,16.3793103 C79.4214909,16.3793103 78.9145486,16.3396029 78.4078889,16.261027 C77.9009465,16.1818918 77.4219948,16.0205454 76.971882,15.7761491 L77.0773419,13.9677837 Z M74.4125722,9.57536021 C74.4125722,9.15899157 74.3523498,8.76443404 74.233036,8.39112838 C74.1131567,8.01782271 73.9406889,7.69121521 73.7156325,7.41130587 C73.4902933,7.13139653 73.2086901,6.9127261 72.8711055,6.75473531 C72.5329554,6.59674452 72.1529606,6.51788894 71.7308385,6.51788894 C71.2374674,6.51788894 70.8190208,6.61128527 70.4740851,6.79779828 C70.1288667,6.98459093 69.8404778,7.22479285 69.608353,7.51896331 C69.3759455,7.8134134 69.1998021,8.1400209 69.0802056,8.49878582 C68.960609,8.85755074 68.879747,9.21659529 68.8373369,9.57536021 L74.4125722,9.57536021 Z M75.7007091,15.6687712 C75.5033607,15.7406361 75.2995093,15.8161361 75.0883069,15.8947121 C74.8768217,15.9738473 74.6410214,16.0493473 74.380906,16.1209325 C74.1202251,16.1925177 73.8174168,16.2531973 73.4727638,16.3038103 C73.1275454,16.3541437 72.7368067,16.3793103 72.3008306,16.3793103 C71.34321,16.3793103 70.5164952,16.2355807 69.8195555,15.9486806 C69.1226157,15.6615009 68.5452725,15.259673 68.0878086,14.7429173 C67.6303447,14.2258819 67.2888018,13.6017484 67.0637454,12.8696778 C66.8384063,12.1376073 66.7255953,11.3266811 66.7255953,10.4366197 C66.7255953,9.61842318 66.8451919,8.87209148 67.0846677,8.19734499 C67.3241436,7.52287813 67.6656865,6.93761314 68.1090137,6.44238892 C68.5523409,5.9471647 69.0835984,5.56351274 69.7033517,5.29031451 C70.3225396,5.0182348 71.012411,4.88121624 71.7729659,4.88121624 C72.6734743,4.88121624 73.4269609,5.03948666 74.0322947,5.3551886 C74.6376286,5.67117018 75.1233659,6.10515549 75.489224,6.6577038 C75.8553647,7.21053174 76.1194385,7.8671023 76.2814451,8.62797475 C76.4431691,9.38912682 76.5243138,10.2070437 76.5243138,11.0825644 L68.8373369,11.0825644 C68.8373369,11.6281219 68.9326183,12.1233461 69.1226157,12.568237 C69.3126131,13.0134075 69.5730113,13.3973391 69.904093,13.7200318 C70.2346092,14.0430041 70.614604,14.2943912 71.0443599,14.4736339 C71.4735504,14.6534358 71.9205532,14.7429173 72.3853681,14.7429173 C72.708816,14.7429173 73.0430078,14.7034895 73.3882263,14.6243543 C73.733162,14.5457783 74.0568926,14.4521024 74.3597009,14.3444449 C74.6622265,14.2367875 74.9299758,14.1185041 75.1621005,13.9893152 C75.394508,13.8601263 75.5737615,13.7454781 75.7007091,13.6445318 L75.7007091,15.6687712 Z M66.5992132,6.99130204 C66.2189357,6.83387052 65.8460093,6.71530752 65.4798685,6.63617231 C65.1137278,6.55759636 64.7687921,6.51788894 64.4453442,6.51788894 C63.8962744,6.51788894 63.4068615,6.63281675 62.977671,6.86211312 C62.5479151,7.09224837 62.1857326,7.40067994 61.8899927,7.78824672 C61.5945354,8.1758135 61.3689136,8.61706919 61.214258,9.11229341 C61.0590369,9.60751762 60.9821332,10.1133678 60.9821332,10.6304031 C60.9821332,11.118357 61.0485757,11.6065904 61.1825917,12.0942646 C61.316325,12.5824981 61.5275274,13.0240334 61.816199,13.4188706 C62.1045879,13.8137077 62.477797,14.1327652 62.9352609,14.3766024 C63.3927248,14.6212783 63.9384018,14.7429173 64.5720091,14.7429173 C64.9098764,14.7429173 65.2720589,14.6892284 65.6594047,14.5812913 C66.0464678,14.4736339 66.3947963,14.3195579 66.704673,14.1185041 L66.8528257,15.9268695 C66.4439921,16.1279232 66.0184771,16.2531973 65.57515,16.3038103 C65.13154,16.3541437 64.7266647,16.3793103 64.3608067,16.3793103 C63.5439876,16.3793103 62.8012449,16.2285899 62.1328613,15.9268695 C61.464195,15.6254286 60.8868518,15.2132544 60.4011145,14.6892284 C59.9153771,14.1652023 59.5384925,13.5553299 59.2715914,12.8590519 C59.0038421,12.1630536 58.8701089,11.4197978 58.8701089,10.6304031 C58.8701089,9.79794546 59.0001666,9.02980264 59.2608475,8.32653392 C59.5212457,7.62326519 59.8944548,7.01674835 60.3801921,6.50698338 C60.8659295,5.99777768 61.4429899,5.59930534 62.1116563,5.31212563 C62.7803226,5.02494591 63.5301336,4.88121624 64.3608067,4.88121624 C64.7687921,4.88121624 65.2019408,4.92455885 65.6594047,5.01040517 C66.1168686,5.09681075 66.4864022,5.19719782 66.7682882,5.31212563 L66.5992132,6.99130204 Z M58.9003614,6.99130204 C58.520084,6.83387052 58.1471576,6.71530752 57.7810168,6.63617231 C57.4148761,6.55759636 57.0699404,6.51788894 56.7462097,6.51788894 C56.1971399,6.51788894 55.7080098,6.63281675 55.2785366,6.86211312 C54.8490634,7.09224837 54.4865982,7.40067994 54.1908582,7.78824672 C53.895401,8.1758135 53.6700618,8.61706919 53.5154062,9.11229341 C53.3601852,9.60751762 53.2829988,10.1133678 53.2829988,10.6304031 C53.2829988,11.118357 53.349724,11.6065904 53.4834573,12.0942646 C53.6171906,12.5824981 53.828393,13.0240334 54.1173473,13.4188706 C54.4054534,13.8137077 54.7786626,14.1327652 55.2364092,14.3766024 C55.6938731,14.6212783 56.2392673,14.7429173 56.8731574,14.7429173 C57.210742,14.7429173 57.5729245,14.6892284 57.9602703,14.5812913 C58.3476161,14.4736339 58.6959446,14.3195579 59.0058213,14.1185041 L59.1536913,15.9268695 C58.7451404,16.1279232 58.3196254,16.2531973 57.8762982,16.3038103 C57.4324056,16.3541437 57.027813,16.3793103 56.6619549,16.3793103 C55.8451359,16.3793103 55.1023932,16.2285899 54.4340096,15.9268695 C53.7653433,15.6254286 53.1880001,15.2132544 52.7022627,14.6892284 C52.2165254,14.1652023 51.8399235,13.5553299 51.5727397,12.8590519 C51.3047077,12.1630536 51.1712572,11.4197978 51.1712572,10.6304031 C51.1712572,9.79794546 51.3013149,9.02980264 51.5622785,8.32653392 C51.8221112,7.62326519 52.1956031,7.01674835 52.6813404,6.50698338 C53.166795,5.99777768 53.7438555,5.59930534 54.4128045,5.31212563 C55.0814709,5.02494591 55.8309992,4.88121624 56.6619549,4.88121624 C57.0699404,4.88121624 57.5028064,4.92455885 57.9602703,5.01040517 C58.4180169,5.09681075 58.7872678,5.19719782 59.0691537,5.31212563 L58.9003614,6.99130204 Z M44.4540585,3.11591387 L41.5187123,10.5658086 L47.3896875,10.5658086 L44.4540585,3.11591387 Z M43.4192514,1.09195402 L45.6367356,1.09195402 L51.8665005,16.1209325 L49.5644788,16.1209325 L48.0651395,12.3313906 L40.8429776,12.3313906 L39.3436382,16.1209325 L37.1264368,16.1209325 L43.4192514,1.09195402 L43.4192514,1.09195402 Z" id="Fill-1"></path>
                <path d="M29.3981513,8.66104545 C29.3981513,9.81801727 30.1100327,10.2833707 31.1506276,10.2833707 C32.3233884,10.2833707 32.9672015,9.70687958 32.9672015,8.66104545 C32.9672015,7.59298378 32.3029679,6.96747808 31.1707645,6.96747808 C30.0433825,6.96747808 29.3981513,7.59298378 29.3981513,8.66104545 Z M38.2183908,6.23311444 C37.5742941,6.83496776 36.9554394,7.07975564 36.1346486,7.07975564 C35.8481943,7.07975564 35.5356471,7.03530056 35.3600875,7.0150678 C35.8028154,7.54681889 36.0248884,8.12672964 36.0248884,8.88189598 C36.0248884,10.8387742 34.2528424,12.2676059 31.8369834,12.2676059 C31.7042501,12.2676059 31.6149104,12.2676059 31.3928374,12.2436685 C30.6421003,12.6032987 30.2206438,12.8691742 30.2206438,13.17808 C30.2206438,13.3350976 30.3973379,13.4488 30.7064816,13.4488 L32.3029679,13.4693177 C34.0290677,13.4909753 34.9397655,13.7582757 35.7361651,14.4923544 C36.3992643,15.11843 36.7123787,15.8943991 36.7123787,16.9211403 C36.7123787,17.8780643 36.4230882,18.6104332 35.8028154,19.2778292 C34.8050469,20.3495955 33.0979495,20.7471264 31.3253363,20.7471264 C29.7109821,20.7471264 28.0486963,20.4826757 27.0293729,19.5243269 C26.4079656,18.9432763 26.0988218,18.2758802 26.0988218,17.4967765 C26.0988218,16.8761153 26.2533937,16.5637899 26.3637212,16.3406596 L29.111697,16.3406596 C29.0002351,16.6090999 28.9775456,16.7646926 28.9775456,17.0764481 C28.9775456,17.9880621 29.7322534,18.4750732 31.1063831,18.4750732 C31.858822,18.4750732 32.5017842,18.3895826 32.9672015,18.1011946 C33.4090786,17.8313295 33.6995035,17.4104311 33.6995035,16.9433679 C33.6995035,15.9166266 32.7888058,15.606581 31.6149104,15.5860632 L30.351959,15.5604161 C29.024059,15.5393284 28.1601582,15.4273358 27.6266726,15.2064853 C27.0943214,15.0038727 26.7630555,14.4923544 26.7630555,13.7169553 C26.7630555,12.9788871 26.9851284,12.2881236 28.8459468,11.8002577 C27.2060669,11.3770795 26.4079656,10.3306755 26.4079656,8.63596823 C26.4079656,6.30065195 28.2934588,4.79003431 31.1945884,4.79003431 C31.8369834,4.79003431 32.4138626,4.87751962 33.2329517,5.07443281 C33.8523737,5.23088047 34.2528424,5.32150043 34.6283528,5.32150043 C35.4477255,5.32150043 36.2892204,4.96642977 36.9781288,4.34092407 L38.2183908,6.23311444 Z M18.5647904,4.69827448 C18.8316751,5.1656227 18.9851125,5.65377362 18.9851125,6.12140681 C19.4295421,5.80965135 19.8061869,5.54263593 20.2959954,5.27476561 C20.891877,4.96642977 21.6672889,4.79003431 22.3315225,4.79003431 C23.5956084,4.79003431 24.7031371,5.45401075 25.0570925,6.43515705 C25.2125153,6.85662536 25.278031,7.34962074 25.278031,8.05833722 L25.278031,16.3856846 L22.354212,16.3856846 L22.354212,8.97166103 C22.354212,7.68246386 22.132139,7.30288592 21.3550254,7.30288592 C20.7599946,7.30288592 19.9851499,7.70326656 19.2970924,8.32592258 L19.2970924,16.3856846 L16.3273272,16.3856846 L16.3273272,8.12672964 C16.3273272,7.14643825 16.1957284,6.21031696 15.9285601,5.45401075 L18.5647904,4.69827448 Z M14.5541468,4.7170824 L14.5541468,16.3856846 L11.5894867,16.3856846 L11.5894867,5.1872803 L14.5541468,4.7170824 Z M14.9106548,1.84830523 C14.9106548,2.8730517 14.0904312,3.69575555 13.0713913,3.69575555 C12.0756082,3.69575555 11.2553846,2.8730517 11.2553846,1.84830523 C11.2553846,0.824413664 12.0965959,0 13.1145013,0 C14.1108517,0 14.9106548,0.824413664 14.9106548,1.84830523 Z M3.10051315,8.14952712 L4.71855445,8.14952712 C5.98150588,8.14952712 6.3592852,7.9907997 6.77733829,7.34962074 C7.04620826,6.92330797 7.15540123,6.47932716 7.15540123,5.74182887 C7.15540123,4.29618403 6.3797057,3.42931007 5.07137538,3.42931007 L3.10051315,3.42931007 L3.10051315,8.14952712 Z M4.05318637,0.91218394 C6.66842894,0.91218394 7.46539582,1.1806242 8.33071466,1.67105486 C9.77036018,2.47067628 10.5437868,3.89665829 10.5437868,5.67942078 C10.5437868,7.72663397 9.56927494,9.37289658 7.88600147,10.1747977 C7.17809068,10.506501 6.51158812,10.6851762 4.80647606,10.6851762 L3.10051315,10.6851762 L3.10051315,16.3856846 L0,16.3856846 L0,0.91218394 L4.05318637,0.91218394 L4.05318637,0.91218394 Z" id="Fill-3"></path>
                <path d="M92.4370554,4.18074017 L92.4370554,3.47310516 L92.8447273,3.47310516 C93.0826206,3.47310516 93.3499964,3.52055195 93.3499964,3.81133301 C93.3499964,4.14515508 93.1134586,4.18074017 92.8399829,4.18074017 L92.4370554,4.18074017 Z M93.8105334,3.84827372 C93.8105334,3.32534229 93.4892758,3.11996547 92.893187,3.11996547 L91.9738073,3.11996547 L91.9738073,5.59838253 L92.4370554,5.59838253 L92.4370554,4.53252424 L92.7125643,4.53252424 L93.3560962,5.59838253 L93.8271385,5.59838253 L93.1609017,4.51354552 C93.5675569,4.47694371 93.8105334,4.27190579 93.8105334,3.84827372 Z M92.8162614,6.13046441 C91.9036593,6.13046441 91.1652411,5.39029446 91.1652411,4.36713828 C91.1652411,3.34567663 91.9036593,2.60787902 92.8162614,2.60787902 C93.7312357,2.60787902 94.4696538,3.34567663 94.4696538,4.36713828 C94.4696538,5.39029446 93.7312357,6.13046441 92.8162614,6.13046441 Z M92.8162614,2.18390805 C91.6132397,2.18390805 90.6321839,3.16571773 90.6321839,4.36713828 C90.6321839,5.57194789 91.6132397,6.55172414 92.8162614,6.55172414 C94.0216553,6.55172414 95,5.57194789 95,4.36713828 C95,3.16571773 94.0216553,2.18390805 92.8162614,2.18390805 L92.8162614,2.18390805 Z" id="Fill-5"></path>
            </g>
        </g>
    </g>
</svg>