<svg width="71" height="71" viewBox="0 0 71 71" fill="none" xmlns="http://www.w3.org/2000/svg">
<g clip-path="url(#clip0_183_19867)">
<path d="M56.4974 59.9278C56.4974 60.6686 55.8969 61.269 55.1562 61.269C54.4155 61.269 53.815 60.6686 53.815 59.9278C53.815 59.1871 54.4155 58.5866 55.1562 58.5866C55.8969 58.5866 56.4974 59.1871 56.4974 59.9278Z" fill="#B3282D"/>
<path fill-rule="evenodd" clip-rule="evenodd" d="M66.6224 28.0278H44.1865V64.5253H66.6224V38.8139H64.1024V55.1267H46.7065V30.5478H64.1024V33.3926H48.8975V35.9126H66.6224V28.0278ZM46.7065 57.6467V62.0053H64.1024V57.6467H46.7065Z" fill="#051727"/>
<path fill-rule="evenodd" clip-rule="evenodd" d="M57.3148 12.1927H7.6246V18.5758H10.1446V14.7127H54.7948V25.5134H57.3148V12.1927ZM10.1446 44.4981V23.6485H7.6246V44.4981H4.27472V52.1368H41.9698V49.6168H6.79472V47.0181H41.9698V44.4981H10.1446Z" fill="#051727"/>
<path fill-rule="evenodd" clip-rule="evenodd" d="M43.7516 21.9495L27.4967 38.4076L21.0243 31.8615L22.8163 30.0897L27.4958 34.8225L41.9586 20.1787L43.7516 21.9495Z" fill="#B3282D"/>
<path fill-rule="evenodd" clip-rule="evenodd" d="M62.3378 43.1481L54.4353 51.1494L50.0909 47.1073L51.8075 45.2624L54.3612 47.6383L60.5449 41.3773L62.3378 43.1481Z" fill="#B3282D"/>
<path fill-rule="evenodd" clip-rule="evenodd" d="M0.755371 58.3856L9.71537 58.3856L9.71537 60.9056L0.755371 60.9056L0.755371 58.3856Z" fill="#B3282D"/>
<path fill-rule="evenodd" clip-rule="evenodd" d="M61.7954 5.74561L70.7554 5.74561L70.7554 8.26561L61.7954 8.26561L61.7954 5.74561Z" fill="#B3282D"/>
<path fill-rule="evenodd" clip-rule="evenodd" d="M60.556 11.0727L65.036 11.0727L65.036 13.5927L60.556 13.5927L60.556 11.0727Z" fill="#051727"/>
<path fill-rule="evenodd" clip-rule="evenodd" d="M9.71536 63.8456L18.6754 63.8456L18.6754 66.3656L9.71536 66.3656L9.71536 63.8456Z" fill="#051727"/>
<path fill-rule="evenodd" clip-rule="evenodd" d="M12.1922 58.3856H14.9922V60.9056H12.1922V58.3856Z" fill="#B3282D"/>
</g>
<defs>
<clipPath id="clip0_183_19867">
<rect width="70" height="70" fill="white" transform="translate(0.755371 0.545349)"/>
</clipPath>
</defs>
</svg>
