<svg width="71" height="71" viewBox="0 0 71 71" fill="none" xmlns="http://www.w3.org/2000/svg">
<g clip-path="url(#clip0_183_19869)">
<path fill-rule="evenodd" clip-rule="evenodd" d="M58.2485 14.5303H15.6885V24.7691H18.2085V17.0503H55.7285V38.7503H58.2485V14.5303ZM18.2085 29.7903H15.6885V56.8103H44.2655V54.2903H25.0573C25.3455 52.3579 26.1074 49.9462 27.5963 47.8891C29.4061 45.3885 32.3107 43.3703 36.9496 43.3703C40.5952 43.3703 43.7234 45.2978 44.8359 46.0001L46.1811 43.8692C45.0537 43.1574 41.3829 40.8503 36.9496 40.8503C31.4358 40.8503 27.7982 43.3121 25.5549 46.4116C23.6937 48.9831 22.8078 51.963 22.5139 54.2903H18.2085V29.7903ZM36.9004 23.9673C35.7076 23.9673 34.5416 24.321 33.5499 24.9837C32.5581 25.6464 31.7851 26.5883 31.3286 27.6903C30.8722 28.7923 30.7528 30.0049 30.9855 31.1747C31.2182 32.3446 31.7925 33.4192 32.636 34.2626C33.4794 35.1061 34.554 35.6805 35.7239 35.9132C36.8938 36.1459 38.1064 36.0264 39.2084 35.57C40.3104 35.1135 41.2522 34.3405 41.9149 33.3488C42.5776 32.357 42.9313 31.191 42.9313 29.9982C42.9313 28.3987 42.2959 26.8647 41.1649 25.7337C40.0339 24.6027 38.4999 23.9673 36.9004 23.9673ZM32.1498 22.8884C33.556 21.9488 35.2092 21.4473 36.9004 21.4473C39.1683 21.4473 41.3432 22.3482 42.9468 23.9518C44.5504 25.5554 45.4513 27.7303 45.4513 29.9982C45.4513 31.6894 44.9498 33.3426 44.0102 34.7488C43.0706 36.155 41.7352 37.251 40.1727 37.8982C38.6103 38.5453 36.891 38.7147 35.2323 38.3847C33.5735 38.0548 32.0499 37.2404 30.8541 36.0446C29.6582 34.8487 28.8438 33.3251 28.5139 31.6664C28.1839 30.0077 28.3533 28.2884 29.0005 26.7259C29.6477 25.1634 30.7437 23.828 32.1498 22.8884Z" fill="#051727"/>
<path fill-rule="evenodd" clip-rule="evenodd" d="M65.7704 42.0992L53.2039 54.8228L47.9266 49.4855L49.7186 47.7137L53.2029 51.2377L63.9774 40.3284L65.7704 42.0992Z" fill="#B3282D"/>
<path fill-rule="evenodd" clip-rule="evenodd" d="M4.06848 22.0903H12.4685V24.6103H4.06848V22.0903Z" fill="#B3282D"/>
<path fill-rule="evenodd" clip-rule="evenodd" d="M62.8685 50.3704H67.0685V52.8904H62.8685V50.3704Z" fill="#051727"/>
<path fill-rule="evenodd" clip-rule="evenodd" d="M58.9485 55.6903H70.7085V58.2103H58.9485V55.6903Z" fill="#B3282D"/>
<path fill-rule="evenodd" clip-rule="evenodd" d="M0.708496 16.3503H5.4685V19.1503H0.708496V16.3503Z" fill="#051727"/>
<path fill-rule="evenodd" clip-rule="evenodd" d="M8.26849 16.3503H11.0685V19.1503H8.26849V16.3503Z" fill="#051727"/>
</g>
<defs>
<clipPath id="clip0_183_19869">
<rect width="70" height="70" fill="white" transform="translate(0.708496 0.670349)"/>
</clipPath>
</defs>
</svg>
